<svg
	xmlns="http://www.w3.org/2000/svg"
	viewBox="0 0 793 1160"
	aria-label="Map of Cameroon"
> 
	<path
		id="adamawa"
		name="Adamawa"
		d="m 285.25902,715.60543 2.07,-1.87 1.32,-2.08 2.08,-4.53 -0.19,-1.42 -0.75,-1.51 -1.71,-1.8 -0.85,-1.51 -0.47,-2.18 0.38,-3.87 -0.09,-2.99 1.39,-1.07 0.3,-2.32 -0.94,-2.44 -3.22,-1.23 -4.54,-0.37 -2.84,-1.41 0,0 0.76,-1.24 1.7,-9.74 -0.93,-3.32 0,0 3.58,-1.12 1.57,0.23 2.47,1.34 1.12,0 2.02,-1.12 0.9,-1.12 4.93,0.45 4.49,-2.47 0.45,-2.24 0.67,-1.35 -0.65,-2.7 1.7,0.03 -0.64,-0.88 0.73,-0.83 0.29,-2.86 -0.76,-1.47 0.78,-1.07 2.05,-0.24 0.99,-0.91 2.19,1.41 0.76,-0.02 0.68,-0.72 0.78,0.05 0.57,-0.53 0.99,-0.09 0.42,-0.93 -0.22,-0.92 0.73,-1.33 0.8,-0.76 0.1,-0.5 1.11,-0.52 0.42,-0.62 -0.05,-1.3 0.47,-0.81 -0.6,-1.3 0.56,-1.94 0.75,-0.9 2.44,-0.96 0.13,-1.73 -1.57,-2.53 1.03,-1.89 1.66,-0.72 -0.34,-0.66 0.02,-0.83 -1.47,-0.18 0.21,-1.69 -0.36,-1.25 -0.76,-0.73 -1.56,0.08 -0.1,-0.83 0.14,-0.71 0.87,-0.97 0.37,-1.45 0.89,-1.4 1,-0.57 2.53,-0.51 3.25,-3.63 1.79,-0.44 2.92,-1.35 0.67,-1.35 1.12,-1.12 4.71,-1.8 1.57,-2.02 3.73,-3.27 2.22,-0.2 1.09,-0.61 0.54,-0.61 0.44,-1.27 3.87,0.8 1.12,-1.35 0.45,-1.12 -0.45,-2.25 -9.11,-9.54 -0.26,-0.42 -0.33,-3.46 -4.2,0.17 -2.02,-0.67 0.22,-1.12 4.94,-2.92 5.9,-7.7 7.73,-8.23 2.72,-3.63 3.16,-2.91 2.02,-4.5 2.58,-1.79 -0.34,-6.38 -0.52,-1.27 0.94,-1.41 0.5,-0.28 0.4,-0.9 0.69,-5.74 0.47,-0.93 1.39,-1.52 0.11,-1.63 0.59,-0.48 0.09,-1.21 1.58,-1.9 1.34,-3.11 5.82,-5.14 1.95,-3.7 2.06,-1.85 0.47,-0.61 0.24,-1.43 1.21,-1.02 0.93,-1.95 0.23,-1.21 -0.83,-2.71 0.24,-2.28 -0.28,-1.92 -0.75,-2.25 0.55,-1.83 2.86,-3.82 0.63,-1.85 1.13,-0.8 0,0 4.51,6 4.94,5.21 9.45,8.96 4.76,3.49 8.31,1.92 5.05,-0.06 1.6,2.94 1.07,3.21 -1.34,4.54 0.54,6.68 18.92,8.55 16.41,2.1 4.16,2.15 4.75,1.9 6.93,1.06 7.62,0.22 3.64,-0.47 1.49,0.62 1.25,-2 -0.5,-4.18 0.56,-1.21 0.18,-1.47 2.58,-2.25 3.54,-0.13 4.16,0.76 1.52,0.89 1.51,1.77 1.14,2.02 1.76,1.52 5.3,1.89 1.01,1.77 2.65,2.28 1.14,0.38 1.51,-0.13 1.01,-2.65 1.77,-1.52 3.4,-0.63 1.52,-1.14 4.79,-2.28 2.53,0.26 1.89,0.88 1.39,0.13 2.52,-0.51 1.64,0 1.86,-1.25 4.34,-0.36 5.91,-1.16 1.11,0.56 0.65,1.81 0.2,1.4 -0.5,1.01 -0.2,1.45 0.46,1.26 5.49,2.02 2.07,-0.11 16,1.68 2.13,1.97 0.82,6.4 3.61,2.46 2.78,1.15 -0.33,3.12 2.79,2.13 3.93,6.73 4.42,1.48 1.47,2.13 0.99,4.76 0,4.59 -1.31,4.74 8.52,1.35 11.87,-0.45 2.92,6.05 1.49,2.46 5.15,0.62 1.85,2.86 2.86,1.52 4.54,-0.67 2.19,-0.68 3.87,-2.52 4.2,-2.19 1.18,-1.18 1.68,-0.51 2.02,0.34 10.26,-4.21 5.39,-3.03 2.02,-0.85 1.68,-0.16 2.18,0.5 2.19,-0.34 4.54,-2.69 2.53,-2.7 2.35,-3.36 1.18,-0.68 2.69,-1.01 2.19,-0.17 4.54,1.52 0,0 -1.85,1.01 -2.33,3.05 -0.38,0.96 0.21,0.29 -0.79,0.73 -0.24,0.97 -1.57,2.24 0.3,3.22 0.94,0.72 -1.62,3.2 -1.26,2.94 -0.07,0.76 -0.57,0.09 -0.69,-0.35 -1.51,0.65 -0.77,2.23 -0.52,0.33 -0.19,0.9 -0.69,0.54 -0.92,6.29 0.47,2.09 -0.29,0.59 -0.8,0.4 -1.48,2.5 -0.52,2.08 -1.31,2.03 -0.24,1.4 -0.93,2.29 -1.57,2.22 -0.37,2.91 -0.5,1.13 -1.54,1.56 -3.1,-0.5 -1.66,0.96 -3.55,0.79 -0.4,0.57 -10.34,23.55 -5.47,10.86 -0.44,2.53 0.71,2.49 -1.21,2.22 -0.83,0.78 -4.68,7.22 -1.14,0.97 -1.58,0.73 -9.18,3.18 -1.06,0.62 -4.69,1.54 -0.52,-0.15 -1.26,0.4 -2.03,1.84 -0.79,0.38 -0.9,1.51 -1.11,0.94 -0.98,1.8 -3.22,2.43 -0.19,0.59 -2.84,1.27 -1.96,0.18 0,0 -2.14,-0.44 -1.45,-3.12 -1.78,0.45 -3.59,3.87 -5.16,-0.55 -3.49,2.64 -6,0.28 -15.63,2.37 -4.6,-3.34 -1.96,-0.02 -14.93,6.43 -17.58,1.06 -23.06,0.47 -49.35,-0.09 -8.59,-0.31 0,0 -20.72,-0.11 -10.17,-0.63 -6.99,0.15 -2.22,-4.81 -1.38,-2.12 -7.39,-6.02 -7.4,-5.05 -2.58,-2.45 -4.23,-0.49 -11.59,3.3 -9.63,-0.12 -8.27,-8.63 -1.23,-0.62 -1.98,0.74 -2.1,2.47 -8.43,3.13 -5.27,0.81 -2.59,2.1 -4.94,2.22 -5.89,6.55 -16.13,4.5 -7.81,1.41 z"
	/>
	<path
		id="central"
		name="Central"
		d="m 285.25902,715.60543 16.92,-4.97 7.81,-1.41 16.13,-4.5 5.89,-6.55 4.94,-2.22 2.59,-2.1 5.27,-0.81 8.43,-3.13 2.1,-2.47 1.98,-0.74 1.23,0.62 8.27,8.63 9.63,0.12 11.59,-3.3 4.23,0.49 2.58,2.45 7.4,5.05 7.39,6.02 1.38,2.12 2.22,4.81 6.99,-0.15 10.17,0.63 20.72,0.11 0,0 -0.61,8.61 1.94,3.62 2.14,1.12 4.09,6.88 1.59,7.64 3.78,1.94 1.06,5.25 6.17,9.53 0,3.18 -5,11.51 -5.94,9.37 -4.48,0.97 -4.99,-0.32 -4.84,2.72 0.61,1.43 5.01,3.43 10.56,10 4.92,5.46 2.47,3.49 -1.31,8.43 7.52,2.63 6.47,0.66 5.8,13.42 -1.07,6.18 -1.43,16.05 -2.15,3.14 -4.59,-1.13 -5.04,0.58 -3.48,-0.67 -4.64,1.02 -4.21,-0.54 -8.31,4.57 -2.33,2.75 -3.57,11.59 -3.91,4.26 -0.73,3.61 0.62,1.97 -1.27,9.75 -2.47,8.76 2.48,2.45 0.59,2.72 -0.74,2.22 -5.93,2.96 -7.64,7.28 -5.82,0.73 -4.25,1.27 -2.65,2.85 -3.11,0.91 -0.7,3.31 2.33,5.07 9.43,5.27 -0.53,2.96 0.64,3.8 -0.64,5.69 -3.49,7.07 0,0 -2.96,-2.64 -4.04,-8.23 -2.44,-0.52 -2.01,0.52 -2.54,4.22 -4.35,3.91 -8.48,6.33 -5.19,5.38 -2.55,9.38 -0.74,4.22 -2.12,2.32 -3.6,-0.63 -1.91,1.48 -1.91,0.94 -1.06,-0.31 0,-1.58 1.17,-2.22 -0.85,-1.37 -13.78,-5.48 -1.59,-2.53 -1.91,-0.53 -1.68,0.75 -2.03,-0.96 -1.69,-2.11 -2.44,0.74 -2.44,6.54 -5.77,1.87 -2.4,2.55 -2.11,0.35 -1.8,3.4 -2.66,2.5 -1.82,7.08 -2.37,2.23997 -6.01,2.36 -3.91,1.95 -4.48,0.83 -3.91,0 -10.76,-0.83 -3.07,0.41 -3.63,1.53 -4.2,-1.25 -1.95,0 -3.92,1.11 -1.95,-0.13 -2.52,-3.34 -3.49,-2.64 0.14,-2.91997 -0.7,-1.81 -2.37,-0.35 -2.38,-2.85 -0.28,-3.75 -1.68,-6.4 -2.09,-2.78 -3.23,-2.47 -3.9,1.05 -1.82,-0.38 -1.25,-1.95 -2.38,-0.14 -8.83,2.42 -1.25,-1.07 -0.66,-2.6 -1.19,-3.03 -2.04,-1.14 -2.52,0.28 -17.92,4.8 -24,7.29 -8.66,1.25 -2.52,-8.31 -0.94,-4.89 -2.13,-4.04 1.76,-2.46 0,0 3.97,-0.18 4.29,-7.74 0.18,-4.78 2.43,-2.51 0.36,-2.64 -0.14,-1.94 1.26,-4.87 2.52,-2.23 2.51,-0.55 2.94,-1.26 4,1.94 7.35,4.6 2.34,3.2 1.96,0.84 1.12,-2.51 0.55,-2.92 3.08,-1.81 -0.7,-1.39 1.13,-2.08 1.53,-1.53 -1.26,-6.27 -0.28,-4.59 3.49,-4.31 1.26,-3.76 0.42,-2.64 4.08,-1.1 5.5,-2.63 3.41,0.67 1.66,-1.72 4.21,-1.46 3.64,-0.01 6.42,-2.24 3.5,-2.37 3.77,-0.41 2.79,-1.12 1.13,0.16 0.29,-1.98 -0.02,-3.05 -1.54,-1.53 -2.79,-1.11 -1.19,-0.87 -0.35,-1.36 -1.95,-1.95 -0.43,-1.44 -2.23,-1.71 -1.73,-2.12 -0.2,-2.73 -2.89,-2.3 -0.45,-2.65 -2.41,-2.36 -1.96,-2.51 -0.56,-2.64 0.06,-1.07 1.48,-1.16 1.46,-10.11 -0.5,-1.31 -1.57,-0.69 -3.73,2.34 -5.2,-1.67 -2.2,3.64 -0.42,2.37 -1.48,4.67 -3.14,2.93 -1.82,-0.4 -1.52,-3.54 -1.73,0.71 -1.59,2.76 -3.78,1.38 -2.53,3.13 -3.65,1.11 -4.05,-1.19 -2.15,-1.19 -4.19,-1.2 -3.19,-1.47 -2.45,0.38 -2.65,-1.18 -1.02,-2.03 0.42,-3.2 1.24,-3.66 4.77,-6.92 1.81,-0.42 2.66,-7.1 -2.24,-2.09 -3.94,-0.1 -5.84,3.72 -2.24,-0.28 1.12,-6.55 3.5,-3.06 5.43,-3.42 4.91,-5.64 1.11,-1.93 0,0 7.55,1.24 5.73,-1.95 11.16,-5.91 3.42,-4.22 1.77,-0.46 6.98,7.8 4.28,0.69 4.53,-3.34 2.52,-9.6 1.3,-6.97 3.88,-5.09 5.01,-1.33 -0.69,-2.51 0.87,-2.79 0.23,-2.69 -0.51,-2.44 2.59,-2.51 2.96,-0.9 1.36,-2.79 1.69,-1.83 2.54,-1.75 0.7,-3.49 -1.94,-2.13 0.64,-1.55 1.26,-0.39 2.15,-7.01 -2.15,-7.73 0.62,-2.19 1.39,-1.81 -0.67,-2.52 4.26,-4.07 3.25,-2.61 3.49,-4.98 -3.67,-2.33 -0.49,-6.54 -0.88,-2.05 0.82,-3.94 z"
	/>
	<path
		id="east"
		name="East"
		d="m 610.54902,705.06543 0.39,0.79 -1.02,2.98 0.12,1.11 0.89,1.14 0.57,1.87 3.09,2.68 0.52,0.8 0.61,2.06 1.3,1.47 0.4,2.06 1.29,1.24 0.9,0.42 1.32,0.07 2.86,-0.78 0.93,0.66 1.18,-0.69 1.57,-1.47 0.9,-0.09 1.04,0.36 1.15,2.15 -0.13,5.23 0.73,2.88 0.29,9.15 -0.2,3.07 -1.02,2.01 -0.72,2.38 0,1.23 -1.59,4.56 -0.05,1.23 0.23,1.2 0.94,1.3 0.57,2.58 1.95,3.22 -1.25,1.32 0.02,0.8 -0.43,1.02 -1.09,1.08 0.3,1.25 -0.52,1.87 0.25,2.76 -0.28,0.85 -2.46,1.34 -0.01,1.92 -0.73,0.82 -1.4,2.67 -0.39,1.81 -0.47,0.5 -0.05,0.45 0.55,0.57 -1.21,0.7 -1.45,1.75 0.5,1.27 3.39,2.66 1.37,1.44 1.14,-0.02 0.92,0.78 1.84,0.34 0.61,-0.28 1.96,0.69 1.12,0 0.73,1.32 1.12,0.53 0.59,1.41 1.97,8.55 -0.45,0.83 -1.16,0.54 -0.24,1.18 0.8,1.52 -0.09,1.08 0.77,2.46 -0.99,0.56 0.3,0.62 -0.64,0.35 0.47,0.71 -0.54,1.11 1.58,2.11 0.23,0.82 -0.48,1.75 0.14,0.45 -0.71,1.2 0.83,0.85 1.36,4.11 0.89,1.3 -0.19,0.76 -0.66,0.47 0.3,0.78 -0.19,0.61 0.57,0.74 0.82,3.37 -0.22,0.57 0.17,0.78 -0.69,1.82 -1.23,0.63 1.81,2.44 0.49,4.2 -0.24,2.62 0.37,1.6 -0.24,1.73 0.82,1.25 0.28,1.06 -0.28,0.97 1.67,0.97 0.99,1.89 1.44,0.26 0.21,0.67 1.86,2.27 1.56,1.16 0.84,1.46 0.78,0.08 0.97,0.59 0.47,0.78 1.91,0.24 0.33,1.11 1.56,0.62 1.76,2.5 1.72,0.32 3.68,1.92 0.54,1.11 1.04,0.12 1.11,-0.26 1.28,0.36 0.54,1.04 2.99,0.55 0.73,2.34 -0.05,0.75 0.8,1.21 0.28,1.2 0.4,0.15 0.71,-0.47 0.26,0.23 0.42,0.67 -0.28,0.63 1.62,1.8 0.42,1.23 1.11,1.35 0.8,0.19 0.97,2.73 -0.09,1.63 0.69,0.83 -0.48,2.1 0.65,1.58 0.43,0.38 -0.48,1.06 0.45,1.75 -0.08,1.15 0.69,0.62 -0.29,0.52 0.26,0.66 -0.22,0.52 0.33,0.64 -0.71,1.34 0.78,1.79 1.2,0.48 0.3,0.71 0.92,0.71 0.16,1.11 0.68,1.13 0.31,1.25 2.52,-0.3 0.55,0.19 0.46,1.3 -1.11,0.68 -1.82,0.45 -0.92,1.01 -3.52,0.83 -0.92,-0.07 -0.64,0.49 -3,0.84 -1.01,1.62 3.36,0.13 0.71,1.37 1.01,3.85 14.49,23.68 17.71,18.98 9,9.04 13.5,15.8 0.88,1.36 0.94,0.76 4.57,5.56 1.6,1.27997 3.27,4.31 5.18,5.8 0.74,0.68 0.71,-0.87 1.63,0.18 1.25,-0.75 2.17,-0.14 0.59,0.24 0.47,0.9 1.72,0.15 1.59,1.96 2.35,4.27 0.82,0.33 3.56,4.57 0.52,-0.07 0.29,-0.87 0.57,-0.33 2.33,-0.09 0.3,0.55 0.76,0.45 0.2,0.99 1.46,0.76 0.45,-0.05 0.09,1.61 1.64,2.22 0.68,2.19 1.43,1.25 1.46,4.53 0.18,3.87 -1.04,0.93 -0.6,1.04 -2.05,0.81 -0.24,0.33 0.93,3.35 0.49,0.66 -0.19,0.71 0.26,1.36 -0.57,0.61 0.56,0.59 -0.5,0.47 0.17,0.43 0.8,0.35 1.34,0.06 0.7,0.69 -1.5,2.58 -0.8,3.62 0.28,1.39 1.52,2.97 -0.25,2.85 -1.56,4.36 0.12,0.9 1.59,2.07 0.12,0.66 -0.19,1.28 -0.78,1.39 0.81,1.53 0.03,0.61 2,1.64 1.28,3.6 3.4,4.46 0.19,1.86 2.12,5.91 -0.1,0.85 -0.64,1.15 0.09,0.88 2.68,2.25 0.13,0.75 -1.19,1.79 -2.11,0.92 -1.29,1.49 -0.58,-0.01 -0.98,-2.17 -3.75,-0.19 -0.99,0.61 -0.64,5.32 0.04,1.98 0.73,1.13 0.24,1.08 -0.12,1.58 -0.62,0.87 -1.74,1.08 0.4,0.94 1.5,0.94 0.03,0.71 -0.71,1.46 -1.53,1.31 -0.73,1.15 0.27,2.17 -0.28,1.06 2.52,2.43 1.13,5.71 0.68,0.38 1.29,-0.32 0.47,0.26 -0.19,2.03 0.28,1.26 1.22,4.03 1.32,1.77 0.7,3.7 -0.74,1.82 0.02,1.98 1.32,2.07 -0.85,2.3 -0.99,-0.34 -0.94,-1 -1.24,0 -3.09,1.01 -1.98,3.29 -3.33,-0.43 -0.37,-0.35 -0.63,-1.91 0.43,-2.33 -0.16,-0.52 -0.7,-0.56 -0.03,-0.59 1.62,-3.12 0.14,-0.61 -0.28,-0.76 -0.61,-0.31 -3.11,0.46 -3.79,-0.11 -2.53,-1.19 -1.91,-0.22 -0.58,-1.38 -1.32,-0.03 -1.18,1.03 -0.61,-0.03 0.28,-0.87 -1.04,-3.2 -0.47,-0.54 -2.05,-0.2 -1.41,-1.51 -2.84,-1.12 -1.31,-1.32 -0.7,-1.77 -2.37,-2.64 -1.53,-0.74 -2.21,0.28 -0.61,-0.74 -3.69,-1.3 -1.65,0.37 -1.72,-0.32 -4.73,-1.12 -1.57,-0.95 -2.9,0.58 -1.99,-1.42 -0.73,0.07 -0.81,0.75 -0.49,-0.07 -3.29,-2.25 -0.68,0.02 -0.8,0.63 -4.76,1.28 -1.06,0.52 -1.4,1.33 -1.58,0.26 -5.04,2.57 -1.08,-1.82 0.08,-1.13 -1.61,0.94 -1.29,-0.38 -0.21,-0.54 0.33,-1.74 -0.37,-1.11 -1.41,-1.56 -1.01,-0.83 -1.38,-0.49 -0.8,-1.09 -1.7,-0.29 0.88,-1.69 -0.96,-0.45 -1.98,-0.17 -0.92,-0.4 -1.83,0.16 -1.87,2.01 -0.73,-0.56 -0.93,-2.05 -1.02,0.11 -0.28,0.28 -0.31,2.31 -0.57,0.58 -2,-0.36 -0.73,1.25 -0.17,1.22 -0.54,0.92 -3.35,-0.18 0.03,-1.74 -0.94,-0.45 -1.51,2.16 -0.5,0.4 -0.44,-0.1 -0.76,-0.73 -0.11,-1.5 -0.96,-0.76 -1.6,-0.64 -2.28,-2.08 -0.73,0.68 -0.64,1.81 -0.59,0.45 -1.39,0.42 -3.25,0.27 -0.85,-0.35 -1.74,-1.75 1.63,-1.88 0.41,-1.85 -0.28,-0.52 -2.54,-0.67 -0.71,-0.52 -0.28,-1.01 0.05,-2.17 -0.3,-0.54 -0.52,-0.09 -1.18,0.86 0.75,1.42 -0.21,0.73 -1.7,-0.34 -0.96,0.26 -1.4,1.81 -1.31,0.49 -0.45,-0.05 -1.32,-1.39 -0.35,-0.03 -1.46,1.1 -0.52,-0.04 -0.49,-0.69 0.73,-1.83 -0.54,-0.94 -1.1,0.06 -1.18,0.82 -0.57,-0.07 -0.07,-0.8 1.2,0.03 0.15,-0.59 -2.8,-2.19 -0.57,0.02 -0.16,0.3 0.47,1.13 -0.03,0.43 -0.37,0 -0.85,-0.45 -1.27,-0.1 -0.38,-1.08 -1.34,-1.11 -3.08,0.32 -0.52,-0.17 -0.54,-0.89 0.38,-0.92 -0.16,-0.45 -0.54,-0.4 -1.23,-0.12 -1.9,-3.53 -0.56,-0.62 -1.6,-0.5 -0.47,-0.89 -0.35,-0.14 -1.02,0.91 -0.61,-0.07 -1.07,-0.82 -1.14,1.49 -11.56,4.2 -0.7,0 -1.58,-1.88 -1.51,-0.84 -3.53,-0.26 -1.08,0.21 -4.34,-0.77 -4.14,0.55 -1.37,1.32 -1.1,0.07 -59.12,0.09 0,0 -1.83,-41.45 -0.79,-6.08 -2.04,-23.97 0.21,-3.58 -4.45,2 -2.16,3.22 -1.98,-0.27 -1.27,0.21 -0.1,1.69 -2.12,-0.32 -1.27,1.48 1.16,2.64 -1.38,1.37 -5.56,1.31 -6.73,-4.27 -3.1,1.18 -2.84,-1.91 -2.65,-2.53 -1.9,0.73 -0.18,0.49 1.76,4.68 -1.9,0.63 -0.96,-4 -1.58,-1.73 -4.14,-2.91 -1.38,1.58 -3.44,0.64 -2.39,-2.54 -1.8,1.58 -1.06,1.48 -2.01,-1.05 -6.15,-0.53 -4.35,-2.85 -2.54,1.58 -4.66,-1.05 -4.14,0.1 -1.8,-1.47 -1.91,0.31 -2.44,-2.42 -2.01,-0.63 -3.5,-5.48 -0.16,-10.21 -0.79,-8.56 -4.88,-8.74997 -4.24,-4.86 -9.9,-9.23 -1.97,-3 0.21,-5.91 0.75,-6.64 1.06,-2.85 0,0 3.49,-7.07 0.64,-5.69 -0.64,-3.8 0.53,-2.96 -9.43,-5.27 -2.33,-5.07 0.7,-3.31 3.11,-0.91 2.65,-2.85 4.25,-1.27 5.82,-0.73 7.64,-7.28 5.93,-2.96 0.74,-2.22 -0.59,-2.72 -2.48,-2.45 2.47,-8.76 1.27,-9.75 -0.62,-1.97 0.73,-3.61 3.91,-4.26 3.57,-11.59 2.33,-2.75 8.31,-4.57 4.21,0.54 4.64,-1.02 3.48,0.67 5.04,-0.58 4.59,1.13 2.15,-3.14 1.43,-16.05 1.07,-6.18 -5.8,-13.42 -6.47,-0.66 -7.52,-2.63 1.31,-8.43 -2.47,-3.49 -4.92,-5.46 -10.56,-10 -5.01,-3.43 -0.61,-1.43 4.84,-2.72 4.99,0.32 4.48,-0.97 5.94,-9.37 5,-11.51 0,-3.18 -6.17,-9.53 -1.06,-5.25 -3.78,-1.94 -1.59,-7.64 -4.09,-6.88 -2.14,-1.12 -1.94,-3.62 0.61,-8.61 0,0 8.59,0.31 49.35,0.09 23.06,-0.47 17.58,-1.06 14.93,-6.43 1.96,0.02 4.6,3.34 15.63,-2.37 6,-0.28 3.49,-2.64 5.16,0.55 3.59,-3.87 1.78,-0.45 1.45,3.12 2.14,0.44 0,0 z"
	/>
	<path
		id="far-north"
		name="Far North"
		d="m 508.83902,293.80543 -1.17,-0.26 -2.82,-4.79 -0.51,-1.98 0,0 1.56,-0.09 0.7,-0.38 1.2,-3.31 0.5,-0.64 2.67,-1.73 0.45,-1.2 -0.02,-3.83 0.93,-1.51 2.47,-2.75 0.74,-1.44 0.57,-1.8 0.18,-1.89 -0.44,-2.32 0.04,-1.53 1.62,-2.78 -0.26,-3.75 0.16,-2.04 0.52,-1.86 2.68,-2.77 0,-2.83 -1.27,-1.76 -0.58,-1.86 -0.03,-2.06 -0.59,-2.08 1.01,-5.01 0.81,-1.82 3.1,-2.52 1.31,-1.56 0.9,-2.33 1.37,-5.8 0.88,-1.1 1,-2.14 0.51,-0.31 0.54,-1.28 1.84,-1.37 1.69,-2.61 1.67,-4.11 -0.08,-3.18 0.49,-3.96 1.29,-1.25 4.02,-0.9 2.39,-1.65 2.26,-0.31 0.74,-0.72 0.15,-1.55 1.21,-1.22 0.65,-2.06 2.77,-3.01 0.63,-0.02 0.46,-0.36 0.96,-1.94 0.82,-0.86 1.08,-0.35 0.15,-0.38 -0.59,-1.25 0.05,-0.84 0.29,-0.43 2.14,-1.17 1.21,-1.74 0.1,-1.04 0.84,-0.85 0.35,-2.57 3.45,-3.92 1.36,-4.65 1.56,-0.89 0.84,0.14 1.78,1.39 1.29,0 3.48,1.04 1.57,1.87 2.37,1.77 2.07,0.19 1.8,-0.26 6.17,-2.39 1.24,-0.84 2.23,-2.71 0.98,-1.71 5.45,-3.44 1.94,-0.67 1.39,-0.96 4.37,-1.2 2.55,-1.37 3.21,-1.06 1.11,-1.13 1.72,-4.01 1.59,-0.75 4.85,-0.74 6.41,-2.93 4.18,-1.34 2.09,-1.57 0.27,-1.24 -0.22,-1.69 0.27,-2.35 0.72,-2.5 -0.75,-3.58 -0.86,-1.44 -1.66,-0.89 -1.06,-1.3 -3.34,-1.87 -0.96,-0.97 -1.13,-1.89 0.09,-0.92 1.73,-0.96 1.42,-1.66 0.91,-0.38 1.54,-1.97 0.24,-0.65 -0.45,-1.49 0.48,-2.5 -0.51,-1.45 0,-0.86 0.87,-1.35 -0.84,-0.67 -0.05,-0.48 1.66,-2.1 0.5,-1.09 0.17,0.2 1.53,-1.62 -0.39,-2.239996 0.78,-1.39 1.16,-1.22 -0.25,-0.97 -0.7,-0.41 -2.63,-5.19 -0.14,-1.04 0.23,-1.58 0.99,-1.03 1.28,-0.39 0.6,-0.5 0.02,-0.65 -1.01,-1.35 -0.24,-0.91 1.32,-1.86 0.22,-2.4 0.31,-0.61 2.15,-1.63 -0.05,-1.49 -0.46,-0.94 -1.01,-0.51 0.17,-0.7 -0.72,-1.03 -0.85,0.84 -0.73,0.12 -0.89,0.02 -0.27,0.24 0.07,0.58 -1.3,-0.21 -0.12,-0.48 -0.38,-0.17 -1.23,-0.15 -0.09,-0.29 0.84,-0.58 -1.4,-1.76 0.14,-0.72 -2.42,-0.34 -0.27,-0.34 -2.28,-0.61 0.14,-0.46 0.68,-0.43 0.37,-1.42 -0.79,0.53 -0.57,-1.6 0.2,-1.2 -1.1,-0.9 -0.96,-0.1 -0.65,-0.78 -0.89,0.09 -0.19,-0.24 0.32,-1.01 -0.26,-0.6 1.1,-0.04 -0.56,-1.45 -2.12,-0.57 -0.5,-0.73 -0.72,-0.32 0.2,-0.74 -0.29,-0.2 -0.95,0.57 -0.5,-0.84 -1.22,-0.3 -1.02,0.91 -0.4,-1.11 -1.13,-0.52 -1.55,0.43 -1.56,-0.42 -2.7,0.58 -1.11,-0.44 -1.64,0.06 -2.14,-1.07 -0.58,0.09 -1.81,1.34 -0.46,0.02 -0.71,-1.35 -0.54,0.47 0.58,1.02 -0.51,0.53 -0.79,-1.62 -0.46,-0.32 -2.65,0.47 -0.48,-0.17 -2.56,0.58 -0.46,-0.29 -0.49,-1.14 -1.68,-1.16 -1.1,-1.74 -1.59,-0.47 0.63,-1.06 -0.43,-0.55 0.07,-0.34 1.04,-0.12 0.15,-0.5 0.89,0.1 -0.4,-0.94 0.6,-0.58 -0.77,-0.41 -1.01,0.26 -0.09,-1.57 -0.5,-1.18 1.2,-1.3 0.48,-1.54 0.7,-0.44 -0.11,-0.37 1.87,-0.79 1.27,-1.08 0,-1.29 2.11,-2.15 0.43,-1.29 1.47,-2.58 0,-1.07 -1.26,-0.43 -0.64,-2.37 -1.48,-1.72 -2.53,-1.51 0.42,-1.5 0.85,-1.08 2.53,-0.86 2.54,-1.72 1.69,-0.43 2.32,0.43 1.48,0.65 0.63,-0.65 1.06,-3.44 -0.21,-1.29 -0.64,-1.29 -1.69,-0.43 -0.63,-0.65 0,-0.86 1.27,0 0.63,-0.43 2.11,2.8 1.9,1.07 1.9,2.16 4.44,0.64 1.69,1.29 0.21,0.65 -2.54,0.86 -0.84,1.5 0.42,0.86 2.96,-0.21 1.27,0.64 1.9,-1.29 0,-2.58 3.16,-4.73 0.22,-1.51 1.05,-1.5 -0.42,-4.74 0,-4.36 1.06,-0.16 1.47,0.43 1.69,2.16 0.87,2.01 -1.07,1.75 -0.46,1.55 0.05,1.18 1.06,0.96 1.11,0 0.39,0.32 0.34,1.64 0.6,1.11 0.87,0.29 0.67,-0.36 2.15,-2.34 0.34,0.29 -0.46,2.26 0.12,0.8 1.55,-0.12 2.7,2.03 2.7,-0.05 1.76,-0.43 1.09,0.67 0.7,1.26 -0.32,0.99 -1.47,1.88 0.02,0.84 0.66,1.02 1.11,0.41 0.65,-0.82 0.67,-1.71 1.16,-0.51 0.51,0.31 0.5,0.99 0.39,1.35 0.07,2.17 0.34,0.51 0.65,0.44 2.1,0.07 2.82,-0.41 1.25,0.63 0.54,3.16 1.56,3.64 0.28,1.43 -0.17,2.14 0.39,1.57 -0.46,1.18 0.65,2.03 -0.89,1.27 -0.1,1.62 0.79,0.89 0.63,-0.22 0.99,-1.39 0.58,-0.1 0.38,0.61 0.46,3.3 1.78,2.94 0.72,2.05 -0.29,3.97 0.21,1.11 -0.99,2.96 0.91,3.06 -0.51,3.62 0.22,1.39 -0.63,2.07 1.03,2.48 -1.8,1.47 -0.13,0.72 0.46,0.92 0.77,0.17 3.13,3.83 1.32,0.6 1.11,1.11 1.03,0.58 1.37,0.17 0.87,-0.52 0.58,-1.26 0.56,-0.43 0.96,-0.09 1.8,0.77 1.16,0.92 -0.34,2.84 1.56,0.46 1.15,2.41 -0.54,1.24 -0.29,0.24 -1.01,-0.11 -0.36,0.46 1.9,2.13 2.02,0.21 0.91,0.85 -0.4,1.61 -0.76,0.86 -1.24,-0.35 -1.02,0.33 0.04,1.04 0.97,1.76 0.11,1.64 -0.32,0.62 -1.72,1.279996 -0.25,1.13 0.73,1.96 0.55,2.96 0.79,0.83 0.57,0.27 0.53,-0.12 0.55,-1.97 1.72,1.53 0.09,2.51 0.45,0.99 1.93,2.03 -0.76,1.56 -2.43,0.7 -0.78,1.1 0.66,0.82 1.25,0.66 0.49,1.47 -0.15,0.39 -0.38,0.26 -1.51,-0.55 -1.06,0.21 -0.42,0.43 -0.4,1.61 0.37,1.63 0.48,0.13 0.65,0.82 -0.32,0.36 -0.01,1.25 0.11,0.55 0.79,0.8 -0.59,1.37 0.19,0.63 1.11,2.29 1.02,0.61 0.02,1.48 -0.51,0.79 0.29,0.7 3.72,1.86 0.57,0.69 0.03,2.14 -1.09,2.11 0.12,0.75 -2.65,1.55 -0.31,1.06 -0.77,0.41 0.26,1.15 -1.18,0.55 -0.53,1.61 -0.86,0.69 0.26,0.84 -0.6,0.48 -0.12,0.7 -1.16,1.39 -0.1,1.37 1.24,3.04 -1.65,1.69 -0.67,2.7 0.47,1.23 -0.32,0.38 -1.46,0.57 -0.22,0.33 0.44,0.99 -0.07,0.48 -0.97,0.49 0,0.46 0.62,0.92 -0.36,2.2 0.16,0.56 1.15,1.18 -1.53,1.26 0.93,0.85 -0.78,1.43 0.57,0.87 -0.11,1.13 0.69,0.77 -0.58,0.83 0.3,1.61 -1.22,1.43 1.06,0.44 0.39,1.71 -0.51,2.63 0.87,0.28 0.26,0.38 -0.83,1.1 0.79,0.94 -0.18,0.62 0.38,0.27 0.59,1.59 -0.06,1.82 -0.4,0.74 0.41,0.53 -0.18,1.41 1.12,1.58 0.19,1.44 1.15,0.82 0.91,1.1 0.38,3.6 0.57,2.18 0.14,2.76 -2.4,2.84 -0.22,0.77 0.14,2.71 0.6,0.65 0.4,1.46 1.49,2.35 0.76,1.99 1.65,1.72 1.03,1.68 1.66,4.46 1.17,2.23 0.31,2.49 -0.29,1.53 -1.08,1.99 0.18,5.24 1.39,1.61 1.17,0.72 3.9,1.42 1.14,0.86 2.2,2.42 1.07,3.48 3.27,3.74 -0.06,3.75 1.1,1.06 0.4,0.81 -0.29,0.81 0.17,0.43 1.17,0.87 0.43,1.08 -0.32,0.54 0.17,0.41 2.01,0.41 2.67,1.33 1.17,1.99 1.17,1.31 1.55,0.82 1.67,2.18 1.12,2.13 3.19,2.26 0.55,0.89 0.54,2.03 0.81,1.27 1.05,0.94 0.62,2.03 1.98,0.91 0.87,2.04 0.48,0.24 0.29,-0.48 0.84,-0.19 4.41,3.58 1.93,0.6 1.62,1.42 1.24,-0.16 1.05,0.98 2.05,0.73 2.69,1.92 0.53,0.62 0.35,1.7 -4.23,1.39 -1.96,0.18 -3.47,1.26 -4.45,0.77 -2.55,0.04 -3.49,1.25 -5.45,0.48 -10,-3.92 -2.89,-0.34 -4.72,-1.23 -2.87,-1.06 -2.42,3.31 -2.39,-0.65 -3.07,-1.94 -1.72,-0.53 -1.03,0 -2.2,1.21 -0.45,0.62 -0.05,1.03 -0.53,0.33 -3.56,-0.29 -3.12,-1.39 -0.75,-0.89 -1.14,-0.72 -1.58,-0.6 -1.79,0.02 -3.7,1.6 -3.13,0.61 -2.89,1.86 -2.2,2.12 -3.47,1.77 -3.82,-0.34 -4.39,-2.22 -3.75,-0.27 -1.48,0.19 -6.31,-1.72 -1.12,-0.7 -2.34,-0.43 -6.84,-2.29 -6.11,-1.12 -2.17,0.5 -4.81,0.26 -3.63,-0.16 -2.27,0.29 -1.26,0.47 -4.06,-0.68 -7.36,0.65 -2.77,0.81 -0.96,0.84 -0.81,1.7 0,0 0.22,-3.23 1.01,-3.74 -0.18,-1.66 -0.62,-0.73 -7.22,-3.39 -2.96,-0.75 -2.43,0.89 -1.95,0 -1.02,-2.11 -1.68,-2.04 -3.04,-1.5 -2.13,-3.93 -1.63,-1.22 -1.89,-0.93 -5.43,-0.27 -3.23,-1.55 -5.88,1.12 -11.81,-2.32 -2.38,1.03 -1.87,4.12 0.68,2.23 2.55,2.1 0.12,1.32 -0.8,1.04 -6.45,1.42 -3.08,1.5 -1.98,1.58 -0.75,0.1 -0.93,-0.58 -3.73,-0.44 -3.21,0.56 -2.04,1.37 -1.82,0.16 0,0 z"
	/>
	<path
		id="littoral"
		name="Littoral"
		d="m 113.19902,942.38543 0.8,1.02 0.23,0.68 -0.26,0.29 -0.57,-0.46 -0.36,-1.44 0.16,-0.09 z m -17.420004,-24.77 0.49,1.36 1.37,-0.06 0.29,0.37 0.03,0.34 0.14,0.29 1,1.31 0.06,1.08 -0.49,1.11 -0.63,0.48 -0.23,1.68 -0.6,0.63 -0.8,0.09 -0.29,0.6 0.14,0.17 0.14,0.34 0.17,0.08 0.03,-1 1.37,0.17 0.31,-0.11 1.06,0.11 1.200004,1.05 0.34,-0.06 -0.09,0.26 -4.520004,2.04 -2.17,0.31 -4.35,-1.25 -3.86,-2.26 0,0 3.09,-3.52 0,0 -0.4,-0.14 0.09,-0.71 0.46,0.29 0.86,-0.2 1.14,0.48 0.46,-0.11 0.06,-0.4 0.77,0.23 1.2,-1.14 -0.14,-2.19 0.6,-0.08 0.66,-1.05 1.04,-0.59 z m 8.350004,-1.09 0.74,0.28 -0.11,0.97 0.66,-0.68 0.71,0.68 0.54,3.47 -0.43,0.37 -0.26,0.88 -0.97,-0.31 -1.63,0.03 -1.03,-1 -0.71,0.11 -0.97,-0.77 1.17,-1.54 -0.11,-0.6 0.83,-0.17 0.23,-0.6 1.34,-1.12 z m -7.290004,-0.31 0.34,0.29 0.17,2.22 -0.91,0.08 -0.29,-1 -0.57,-0.66 1.26,-0.93 z m 7.090004,-1.25 1.23,0.2 0.34,0.83 -1.37,-0.26 -0.43,-0.48 0.23,-0.29 z m -2.46,-0.26 0.54,0.26 0.29,0.6 0.4,-0.17 0.8,1.22 -0.8,0.29 0.11,0.2 -0.51,0.37 -0.2,0.6 -0.83,-0.46 -0.4,0.2 -0.03,0.54 0.51,0.66 -1.31,0.85 -1.430004,-0.8 -0.2,-1.03 -0.83,-1.08 0.37,-0.28 2.890004,-0.43 0.17,-0.63 -0.06,-0.5 0.52,-0.41 z m -0.4,-2.28 0.54,0.57 -0.03,0.34 0.51,-0.03 0.26,0.57 -0.49,0.6 -0.6,0.03 -0.72,0.57 0.07,0.89 -1.420004,0.2 -0.54,-0.54 0.23,-0.94 -0.14,-1.96 0.34,-0.23 0.89,0.4 1.100004,-0.47 z m -3.030004,-1.08 -0.01,0 0,0 0.01,-0.02 0,0 0,0.02 z m 2.400004,-0.11 0.23,0.43 -0.690004,0.88 -0.37,-0.94 0.830004,-0.37 z m -1.730004,-0.44 0.5,0.58 -0.83,1.22 -0.23,2.85 -0.4,0.4 -1.29,0.2 -1.02,0.85 0.01,-0.33 0.59,-0.7 0.14,-0.67 0.72,-0.55 -0.28,-0.95 0.8,-0.17 0.05,-0.78 0.45,-0.09 0.46,-1.63 0.33,-0.23 z m 2.850004,-2.55 0.4,0.17 -1.29,1.88 -0.31,-0.96 0.37,-1.26 0.83,0.17 z m -0.03,-1.74 0.91,1.12 -0.48,0.53 -0.71,-0.23 -0.46,-0.88 0.74,-0.54 z m 0.83,0.48 1.05,0.81 1.46,-0.03 1.08,-0.98 1.13,-2.27 0.93,-1.02 -2.06,-2.69 0.54,-2.32 -0.99,-0.8 -1.44,0.54 -4.580004,0.89 -1.35,-1.52 -2.69,-0.27 -0.45,-1.7 1.11,-4.04 0.83,-4.54 1.19,-1.08 2.040004,-4.27 3.73,-5.96 -1.42,-3.27 0.39,-1.82 0.08,-3.26 1.77,-2.73 1.01,-2.46 2.2,-4.04 4.17,-6.23 3.71,1.15 2.77,-1.21 -0.22,-3.86 6.03,-7.5 1.15,-6.58 8.62,-8.99 0.29,-0.83 -0.34,-1.05 -2.89,-1.37 0.11,-2.39 4.04,-8.47 1.39,-0.58 3.26,-0.25 0.68,-1.37 -4.98,-8.89 -3.82,-2.89 -2.87,-10.49 0.44,-1.64 3.71,0.56 1.38,-0.56 2.47,-4.17 1.12,-1.02 3.36,0 0,0 -1.29,7.21 0.48,1.56 2.03,0.9 1.45,0.03 2.21,-1.92 1.72,0.18 2.64,-0.3 2.66,2.68 2.18,5.15 -0.39,3.9 -1.19,3.39 2.36,6.46 5.89,2.15 0,4.11 0.81,3.19 1.96,0.27 2.01,4.29 2.72,-0.14 0.57,-1.86 2.72,-5.43 5.88,-3.43 0.43,-3.86 1.29,-1.72 2.38,0.29 3.22,1.28 2.68,-0.8 5.02,-0.34 0.9,0.85 -0.29,2.86 0.57,2 2.37,2.33 0.7,1.36 0.73,4.46 1.65,1.44 1.98,-1.13 0.68,0.79 0.65,2.77 4.02,0.7 0,0 -1.11,1.93 -4.91,5.63 -5.43,3.42 -3.49,3.07 -1.12,6.55 2.24,0.28 5.83,-3.71 3.95,0.09 2.24,2.09 -2.66,7.1 -1.82,0.42 -4.76,6.92 -1.24,3.66 -0.42,3.2 1.02,2.02 2.65,1.19 2.45,-0.38 3.19,1.46 4.19,1.21 2.15,1.18 4.05,1.19 3.65,-1.11 2.53,-3.13 3.77,-1.38 1.6,-2.76 1.72,-0.71 1.52,3.53 1.82,0.4 3.14,-2.93 1.48,-4.67 0.42,-2.37 2.2,-3.65 5.2,1.67 3.73,-2.34 1.57,0.69 0.5,1.31 -1.46,10.11 -1.48,1.16 -0.06,1.07 0.56,2.65 1.96,2.51 2.41,2.36 0.45,2.64 2.89,2.3 0.2,2.73 1.72,2.12 2.23,1.72 0.43,1.44 1.96,1.95 0.35,1.35 1.19,0.87 2.79,1.11 1.54,1.53 0.02,3.05 -0.3,1.98 -1.12,-0.16 -2.79,1.11 -3.77,0.42 -3.49,2.37 -6.43,2.24 -3.63,0 -4.21,1.46 -1.66,1.72 -3.42,-0.67 -5.5,2.63 -4.08,1.1 -0.42,2.64 -1.26,3.76 -3.49,4.31 0.28,4.59 1.26,6.26 -1.53,1.54 -1.13,2.08 0.7,1.39 -3.07,1.81 -0.56,2.92 -1.12,2.5 -1.96,-0.83 -2.35,-3.21 -7.34,-4.59 -4,-1.94 -2.94,1.25 -2.51,0.56 -2.52,2.22 -1.26,4.87 0.14,1.95 -0.36,2.63 -2.44,2.51 -0.18,4.78 -4.29,7.74 -3.97,0.18 0,0 -0.22,-2.4 -2.79,-1.25 -0.98,-1.81 -1.12,-0.7 -2.94,2.09 -4.39,0.01 -1.06,2.22 -5.68,7.23 0.22,2.3 -0.41,2.71 0.42,2.92 -1.82,1.95 0.28,1.81 -1.82,4.17 -5.45,2.92 -3.63,3.61 -4.83,0.83 -0.17,0.49 0,0 -0.38,-1.14 0.46,-0.14 0.17,-1.37 -1.14,-2.16 -3.43,-4.3 -5.52,-6.12 -3.8,-4.04 -3.29,-2.9 -0.51,-0.57 -6.77,-4.96 -1.55,-0.85 -0.4,-0.34 -0.09,-0.63 -1.17,-0.74 -0.03,-0.37 0.51,-0.06 0.23,0.28 0.69,-0.88 -0.26,-0.22 -0.31,0.5 -0.23,0 0.6,-1.02 -0.17,-0.51 -0.11,-0.37 -0.34,-0.6 0.37,-0.43 0.49,-2.62 0.4,-0.6 0.37,-0.51 -0.11,-0.85 -0.52,-0.68 -0.66,-1.22 -1.94,-4.44 -7.49,-11.87 0.14,-0.31 1.83,1.82 1.43,0.8 1.17,3.19 0.06,0.88 0.6,0.65 1.4,0.46 0.6,-0.43 1.49,0.51 2.15,-0.03 0.74,-0.57 0.14,-2.08 -0.51,0.46 0.09,0.31 -0.31,1.34 -1.97,-0.4 -2.15,-0.97 -0.66,-1.85 -1.74,-2.79 0.57,-0.28 0.26,-0.85 -0.11,-2.08 1.29,-2.79 1.46,-0.48 0.97,0.91 2.4,1.42 0.31,0.71 -0.14,0.4 0.4,-0.14 0.26,-0.54 1.29,2.08 0.2,-0.11 -0.37,-0.43 0.11,-0.51 0.66,0.63 0.43,0.03 -0.55,1.23 0.63,0.34 0.26,0.83 0.37,1.88 -0.11,1.31 -0.63,1.76 -1.92,0.97 -0.34,0.65 1.57,1.11 0.11,1.62 0.43,0.46 0.8,0.23 -0.63,-1.03 0.06,-0.34 -0.37,-0.26 0.23,-0.65 -1.37,-1.48 0.03,-0.4 1.8,-0.77 0.54,0.63 0.03,-0.94 0.57,-0.6 0.11,-0.63 2.17,0.26 -0.57,-0.4 -1.14,-0.06 -0.31,-0.31 -0.49,-0.85 0.11,-2.08 -1.66,-3.76 0.6,-1.22 1.12,-0.43 0.37,-1.79 -1.06,-0.8 -0.11,-0.54 0.29,-0.37 -0.77,-0.46 -1.57,-1.99 0.23,-0.48 1.34,0.23 1.34,-0.8 -0.97,-2.39 -1.57,0.74 -2.12,0.06 -1.12,-0.34 -1.46,0.2 -1.06,-0.77 -0.23,-1.51 0.23,-0.94 0.77,0.65 0.31,-0.06 -0.17,-1.34 1.17,-2.28 0.8,-0.6 0.57,-0.97 2.03,1.42 1.97,-0.34 0.23,0.74 1.23,0.2 0.51,0.85 0.51,-0.11 -0.23,-0.28 -0.43,-0.34 -1.8,-1.42 -0.83,-0.06 -0.88,0.5 -0.95,-0.9 0.03,-0.65 -0.51,-0.66 0.03,-0.8 0.2,-0.11 0.26,0.6 0.54,0.17 0.37,-0.6 -0.94,-0.29 2.49,-2.48 0.11,-0.57 -0.4,0 -2.57,0.83 -1.49,-0.03 0.26,0.63 -1.57,1.4 -0.43,0.94 -1.34,0.03 0.4,0.48 -0.09,0.43 -3.52,1.42 -1.52,0.08 -1.06,-0.37 -0.54,-0.77 0.77,-1.45 -0.03,-0.14 0.31,-0.83 0.29,-0.46 -0.86,0.65 -0.23,1.11 -0.37,0.37 -0.34,-0.4 0.14,-1.02 1.37,-1.57 -0.26,-0.03 -0.88,1.02 -0.6,0.49 -0.37,1 0.46,1.28 -0.6,0.11 -1.03,-0.43 0.11,-1.03 -0.2,-0.2 0,0.63 -1,-0.03 -0.09,-0.68 -0.43,-0.06 0.29,-0.71 -0.8,0.09 -0.06,-0.57 -0.86,-0.83 0.6,-0.34 -0.4,-0.17 -0.4,0.48 -0.43,-0.23 0.43,-1.31 0.4,-0.37 -0.77,-0.06 0.06,0.77 -0.34,0.71 -0.4,-0.17 -0.66,-1.17 0.11,-0.54 -0.37,-0.2 -0.17,-0.65 0.49,-1.34 0.49,-0.28 -0.1,-0.69 -0.38,-0.19 -0.16,-0.42 z"
	/>
	<path
		id="north"
		name="North"
		d="m 729.52902,542.40543 0.47,1.7 -0.58,1.8 -1.19,1.39 -0.17,0.64 0.64,1 -0.07,0.47 -2.47,2.22 -0.96,1.25 -1.83,1.25 -0.62,1.3 -1.44,0.73 -0.77,1.23 0.19,0.73 -1.42,0.9 -0.01,0.66 -0.61,0.54 -1.19,0.57 0.12,0.95 -0.77,1.68 -1.07,0.25 -0.83,1.8 -0.88,0.45 2.55,2.36 0.67,2.02 -3.87,0.84 -0.84,1.02 -3.53,2.69 -2.86,3.2 -1.85,0.34 -3.03,2.02 -2.86,2.53 0,0 -4.54,-1.52 -2.19,0.17 -2.69,1.01 -1.18,0.68 -2.35,3.36 -2.53,2.7 -4.54,2.69 -2.19,0.34 -2.18,-0.5 -1.68,0.16 -2.02,0.85 -5.39,3.03 -10.26,4.21 -2.02,-0.34 -1.68,0.51 -1.18,1.18 -4.2,2.19 -3.87,2.52 -2.19,0.68 -4.54,0.67 -2.86,-1.52 -1.85,-2.86 -5.15,-0.62 -1.49,-2.46 -2.92,-6.05 -11.87,0.45 -8.52,-1.35 1.31,-4.74 0,-4.59 -0.99,-4.76 -1.47,-2.13 -4.42,-1.48 -3.93,-6.73 -2.79,-2.13 0.33,-3.12 -2.78,-1.15 -3.61,-2.46 -0.82,-6.4 -2.13,-1.97 -16,-1.68 -2.07,0.11 -5.49,-2.02 -0.46,-1.26 0.2,-1.45 0.5,-1.01 -0.2,-1.4 -0.65,-1.81 -1.11,-0.56 -5.91,1.16 -4.34,0.36 -1.86,1.25 -1.64,0 -2.52,0.51 -1.39,-0.13 -1.89,-0.88 -2.53,-0.26 -4.79,2.28 -1.52,1.14 -3.4,0.63 -1.77,1.52 -1.01,2.65 -1.51,0.13 -1.14,-0.38 -2.65,-2.28 -1.01,-1.77 -5.3,-1.89 -1.76,-1.52 -1.14,-2.02 -1.51,-1.77 -1.52,-0.89 -4.16,-0.76 -3.54,0.13 -2.58,2.25 -0.18,1.47 -0.56,1.21 0.5,4.18 -1.25,2 -1.49,-0.62 -3.64,0.47 -7.62,-0.22 -6.93,-1.06 -4.75,-1.9 -4.16,-2.15 -16.41,-2.1 -18.92,-8.55 -0.54,-6.68 1.34,-4.54 -1.07,-3.21 -1.6,-2.94 -5.05,0.06 -8.31,-1.92 -4.76,-3.49 -9.45,-8.96 -4.94,-5.21 -4.51,-6 0,0 0.24,-1.87 -0.12,-3.87 -0.84,-5.71 -1.18,-4.93 0.74,-5.39 2.25,-4.73 4.26,-1.12 1.57,0.9 2.24,0 2.92,-2.25 0.81,-2.91 2.42,-0.15 0.66,-0.45 1.13,-1.89 -0.76,-3.62 -1.35,-2.48 -1.34,-1.57 0.22,-2.26 2.69,-0.67 2.92,0.67 4.05,-2.66 4.93,1.13 4.39,1.7 1.37,-0.2 5.65,-4.6 1.09,-0.13 1.98,0.3 0.56,-0.48 0.88,-1.01 0.77,-2.07 1.63,-1.22 0.3,-0.98 -0.05,-3.57 0.97,-1.83 2.42,-0.9 3.87,0.29 1.8,-1.85 0.8,-1.76 -0.2,-1.64 1.59,-3.77 0.68,-3.83 0,-5.19 1.25,-3.92 0.61,-0.97 -0.29,-4.85 -0.9,-2.94 0,-1.8 2.02,-4.52 0.67,-4.06 2.86,-5.07 0.27,-2.16 1.21,-1.16 0.11,-1.85 -0.41,-3.96 -0.02,-3.88 0.33,-1.1 -0.16,-1.64 -0.81,-0.69 -3.17,-0.05 -0.77,-0.4 0.11,-1.55 -0.27,-0.69 0.93,-0.79 3.86,-2.02 1.48,-0.48 1.26,-0.83 0.5,-1.07 0.86,-0.91 1.72,-0.88 1.91,-1.95 2.7,-0.47 4.56,-3.59 1.24,0.11 1.27,-0.45 2.05,0.2 1.38,-0.65 2.72,0.2 3.09,-0.94 1.1,0.25 1.67,-0.58 1.64,-1.7 1.59,0.21 1.04,-2.11 0.67,-0.62 0.14,-1.49 1.09,-2.17 -0.71,-1.05 0.14,-0.62 -0.28,-0.69 0.5,-1.03 -0.54,-1.29 0.38,-0.97 1.41,-1.48 -0.45,-1.84 0.39,-1.48 0.5,-0.66 -0.12,-1.2 0.34,-2.55 0.29,-0.76 1.77,-1.69 0.7,-1.62 0.84,-1.08 -0.17,-0.88 -1.51,-1.76 -1.58,-1.24 -0.88,0.03 -2.01,-0.99 -0.52,-1.89 -0.64,-0.78 0.16,-0.45 -0.34,-1.46 0.23,-1.03 0.98,-1.1 2.09,-1.2 1.14,-2.06 0.77,-2.51 -0.05,-1.05 -1.7,-1.29 -0.87,-1.41 -0.25,-1.64 0.48,-1.29 2.54,-2.31 0.95,-2.06 2.99,-4.12 1.52,-0.67 3.42,0.05 1.91,-0.96 1.35,-0.26 0,0 0.51,1.98 2.82,4.79 1.17,0.26 1.82,-0.16 2.04,-1.37 3.21,-0.56 3.73,0.44 0.93,0.58 0.75,-0.1 1.98,-1.58 3.08,-1.5 6.45,-1.42 0.8,-1.04 -0.12,-1.32 -2.55,-2.1 -0.68,-2.23 1.87,-4.12 2.38,-1.03 11.81,2.32 5.88,-1.12 3.23,1.55 5.43,0.27 1.89,0.93 1.63,1.22 2.13,3.93 3.04,1.5 1.68,2.04 1.02,2.11 1.95,0 2.43,-0.89 2.96,0.75 7.22,3.39 0.62,0.73 0.18,1.66 -1.01,3.74 -0.22,3.23 0,0 -0.11,1.45 -0.62,1.56 -0.78,3.72 -1.1,1.7 -6.45,8.53 -2.1,1.91 -0.88,1.72 -2.65,1.58 -1.14,1.46 -1.4,3.3 -0.57,3.62 0.27,2.46 2.54,2.26 1.58,3.74 1.67,1.48 0.84,1.31 1.36,1.09 0.91,1.48 2.82,3.05 3.2,2.4 2.48,0.71 0.58,2.91 1.55,0.52 1.36,1 2.63,4.55 2.76,1.88 2.27,0.72 1.86,-0.03 2.05,3.86 1.77,2.26 2.31,1.19 0.9,0.79 0.72,2.14 -0.31,2.03 -1.16,2.71 -0.19,1.55 0.43,1.07 5.1,4.69 1.6,2.62 2.76,1.45 2.12,2.12 0,0.5 -0.93,1.12 0.03,0.57 2.62,3.97 2.76,0.69 2.36,1.43 6.26,6.07 0.59,0.29 5.74,6.33 3.66,2.71 1.19,1.53 1,0.73 1.52,2.19 1.33,0.72 4.35,0.26 1.48,0.98 1.33,-0.28 1.45,0.12 0.52,-0.65 0.69,-0.21 0.64,0.17 0.57,-0.69 0.62,0.65 0.45,-0.35 1.43,0.44 0.91,1.74 0.04,0.91 1.87,1.49 -1.51,1.38 1.44,0.88 2.72,-0.04 0.47,0.73 2.16,0.72 1.29,1.6 -0.6,3.13 0.52,1.07 1.92,-0.11 2.83,0.81 1.97,1.46 2.02,0.51 3.02,4.62 1.2,3.31 4.49,4.8 2.39,1.81 2.69,2.7 1.5,2.4 0.59,3.01 5.2,9.05 0.85,3.71 0.54,1.19 1.07,1.68 1.08,2.64 8.83,17.33 -0.75,4.88 0.85,2.56 1.78,1.66 0.66,1.3 3.12,9.58 1.61,3.2 4.32,6.97 1.14,0.54 7.13,1.52 0.64,0.9 -0.65,2.4 0.45,0.66 -0.24,0.85 0.26,0.91 0.01,2.65 0.26,0.52 -0.34,1.52 z"
	/>
	<path
		id="northwest"
		name="Northwest"
		d="m 172.82902,616.40543 0.92,4.18 2.19,2.19 3.7,1.52 4.2,0.16 5.05,-0.84 11.27,-0.67 5.55,0.34 1.52,-0.84 -0.19,-3.73 2.23,-0.69 0.54,-0.9 0.92,-0.76 0.16,-2.25 1.01,-2.06 1.15,-5.71 -0.29,-1.25 0.28,-1.35 -0.12,-2.21 0.45,-0.38 -0.17,-0.63 0.72,-6.52 0.26,-0.38 0.71,0.33 0.47,0.74 0.83,0.28 0.74,0.83 0.03,2.03 0.63,1.45 -0.87,3.2 3.08,2.63 2.44,0.59 0.43,-0.14 0.24,-0.62 2.07,1.05 0.25,0.37 -0.05,1.32 0.41,0.83 1.28,0.13 6.27,3.86 4.23,1.62 3.17,-0.1 2.35,2.02 0,4.21 2.19,3.19 0.34,4.55 2.18,3.03 3.03,1.85 4.04,0.51 4.37,0 5.89,4.54 1.1,3.61 0,1.42 -0.56,2.29 -0.57,6.72 1.42,3.69 -0.1,1.89 1.42,6.91 1.42,2.27 1.61,1.32 1.61,0.48 6.45,0.18 0,0 0.93,3.32 -1.7,9.74 -0.76,1.24 0,0 -1.7,1.41 -0.76,0.28 -0.47,1.42 -1.15,1.72 -1.88,1.21 -3.98,0.28 -7.76,-1.32 -1.13,0.85 -0.76,0.95 0.57,4.25 0.97,1.91 -1.31,1.64 -0.32,4.89 -1.96,2.29 -6.7,3.91 -5.41,1.59 -2.11,1.88 -2.25,-0.27 -4.25,-1.49 -3.79,-0.78 -3.4,0 -1.7,0.95 -4.01,8.64 -2.98,7.97 -2.59,3.4 -11.71,-0.27 -7.8,1.63 -3.03,0.23 -5.85,1.17 -0.86,6.3 -2.15,1.86 -2.08,-0.85 -2.5,-2.73 -7.87,-2.53 -5.77,4.7 -2.37,0.24 0,0 -8.66,-1.52 -3.01,-1.46 -3.67,1.12 -2.19,2.44 -5.67,-2.89 -7.15,-2.09 -4.08,-2.54 -1.73,-2.82 -1.98,-1.57 -3.59,0.69 -2.97,-2.78 -1.43,-2.08 -3.01,-1.5 -2.03,-1.98 1.02,-1.62 1.6,-3.81 -2.43,-3.25 -0.57,-1.79 0.23,-1.91 7.65,-3.9 3.94,-4.07 2.24,-6.71 2.55,-4.65 -1.22,-3.46 1.22,-9.59 -2.86,-3.87 1.35,-4.07 0.36,-4.73 -3.65,-3.51 0,0 2.48,-9.23 1.08,-2.02 0.63,-2.68 0.99,-0.61 -0.12,-1.35 0.59,-0.43 -0.55,-1.8 0.47,-0.45 -0.53,-1.13 0.5,-1.19 0.13,-1.79 1.28,-1.62 0.04,-0.78 -0.54,-0.53 1.49,-3.54 1.21,0.66 0.13,0.35 0.79,0.1 0.36,-0.58 1.5,0.85 3.67,0.15 2.22,1.21 3.97,-4.56 3.72,-3.15 1.85,-3.06 3.13,-2.65 0.92,-0.2 1.08,-1.87 9.72,-8.2 3.92,-4.1 1.47,0.52 -0.11,1.35 1.02,0.19 0.19,0.42 -0.9,1.36 0.6,1.39 0.47,0.09 0.34,1.94 -0.49,2.3 -0.5,-0.09 z"
	/>
	<path
		id="south"
		name="South"
		d="m 419.46902,963.72543 -1.06,2.85 -0.75,6.64 -0.21,5.91 1.97,3 9.9,9.23 4.24,4.86 4.88,8.74997 0.79,8.56 0.16,10.21 3.5,5.48 2.01,0.63 2.44,2.42 1.91,-0.31 1.8,1.47 4.14,-0.1 4.66,1.05 2.54,-1.58 4.35,2.85 6.15,0.53 2.01,1.05 1.06,-1.48 1.8,-1.58 2.39,2.54 3.44,-0.64 1.38,-1.58 4.14,2.91 1.58,1.73 0.96,4 1.9,-0.63 -1.76,-4.68 0.18,-0.49 1.9,-0.73 2.65,2.53 2.84,1.91 3.1,-1.18 6.73,4.27 5.56,-1.31 1.38,-1.37 -1.16,-2.64 1.27,-1.48 2.12,0.32 0.1,-1.69 1.27,-0.21 1.98,0.27 2.16,-3.22 4.45,-2 -0.21,3.58 2.04,23.97 0.79,6.08 1.83,41.45 0,0 -18.11,-0.07 -9.32,0.31 -10.91,-0.22 0.13,-1.24 -1.16,-0.62 1.82,-1.97 -0.69,-1.25 0.03,-0.85 -0.92,-0.59 -0.45,-1.62 -0.49,-0.07 -0.78,0.09 -0.89,-0.12 -0.24,-0.44 0.17,-0.57 -1.37,-1.27 -0.42,0 -0.61,0.61 -0.66,-0.17 -0.24,0.59 -0.96,0.4 -0.69,-0.3 -1.01,0.3 -0.19,-0.87 -1.08,0.3 -0.69,-0.74 -0.05,-0.28 0.99,0.15 -0.34,-0.82 -0.69,-0.02 -0.68,0.42 -1.86,-0.66 -4.97,1.6 0.35,1.74 -0.99,-0.38 -0.75,0.26 -0.12,0.66 -0.96,0.4 -0.26,0.51 -1.13,-1.27 -0.59,0.33 -0.57,-0.07 -0.52,0.8 -1.9,0.28 -0.45,-0.16 -0.14,-0.99 -0.52,0.4 -0.54,-0.05 -0.5,-0.54 -2,0.02 -0.73,0.03 -2.33,0.77 -0.75,-0.26 -1.96,0.02 -1.08,-0.96 -1.55,0.05 -0.45,0.25 0.54,0.71 -2.14,0.82 -0.9,-0.04 -0.99,-0.97 -0.52,0.42 -0.44,1.3 -0.47,-0.21 -0.48,0.21 -0.44,-0.05 -0.38,-0.73 -2.75,-0.38 -0.22,-1.34 -0.63,-0.49 -0.52,0.94 -0.71,0.23 -1.29,-0.33 -0.33,1.11 -1.65,0.89 -3.48,0.69 -0.83,-0.59 -1.62,-0.22 -0.8,0.29 -2.24,-1.44 -1.51,-0.12 -0.4,0.33 -1.22,0.17 -3.42,-0.59 -1.46,-1.06 -2.31,0 -0.44,-0.42 0.07,-0.69 -0.97,-0.35 -3.32,1.34 -1.65,0.19 -2.47,-0.68 -1.22,0 -1.77,0.66 -2.23,0.18 -2.97,-0.32 -10.06,-2.16 -2.69,-0.04 -0.99,0.08 -0.56,1.39 -0.61,0.57 -2.07,-0.05 -0.57,0.54 -1.27,0.26 -1.67,-0.87 -1.25,-1.93 -0.61,-0.23 -0.55,0.32 -3.5,-0.51 -0.73,0.71 -0.69,0.21 -0.59,-0.1 -0.92,-0.96 -1.48,-0.85 -1.74,1.2 -2.64,-0.07 -0.89,-0.56 -2.12,-0.21 -0.33,0.05 -0.26,0.54 -0.9,-0.05 -2.56,-0.91 -0.38,0.82 -0.94,-0.33 -0.99,0.17 -1.09,-0.69 -0.84,0.43 -0.36,-0.28 -0.54,0.49 -1.86,-0.3 -1.27,0.63 -1.63,-0.72 -0.25,0.68 -0.66,0.21 -1.23,-0.54 -1.17,0.61 -0.9,-0.44 -1.11,0.07 -0.35,1.01 -0.97,-0.02 -0.04,-0.76 -1.46,0.38 -0.5,-0.49 -1.06,-0.33 -0.23,0.8 -2.33,-0.19 -0.52,-0.3 -1.04,0.45 -0.23,0.51 -2.19,-0.35 -1.02,0.31 -0.02,-0.8 -0.64,-0.89 0.1,-0.83 -1.46,0.26 -0.9,-0.89 -1.11,-0.28 -1.2,-1.58 -0.45,-0.04 -2.19,0.49 -0.59,0 -0.4,-0.42 -1.27,0.66 -0.82,0.9 -1.77,-0.12 -1.5,0.83 -2.5,-1.18 -1.06,-0.09 -2.1,0.24 -0.49,0.7 -0.82,0.45 -0.52,-0.23 -0.78,0.23 -1.08,-0.54 -1.68,0.01 -1.9,0.87 -1.3,-0.89 -1.69,-0.07 -0.66,0.14 0.59,0.71 -0.4,0.33 -0.66,0.02 -1.3,-0.92 -0.94,0.55 -1.15,-0.02 -2.34,-0.68 -0.77,0.44 -0.76,-0.02 -1.17,1.11 0.87,0.52 0.42,0.72 0.08,0.26 -0.57,0.59 0.52,0.78 -0.75,1.06 -1.06,0.73 -0.26,0.92 -0.75,0.73 0.68,0.54 -0.28,0.33 0.19,0.73 -0.3,0.73 0.4,0.51 -0.66,1.49 0.72,1.05 -13.32,0.04 -2.53,-0.69 -1.27,-0.68 -0.89,0.1 -1.65,1.16 -99.71,0.19 -2.61,1.45 -1.36,-1.71 -1.74,0.13 -1.79,1.45 -1.16,-0.56 -4.28,0.25 -1.18,-0.28 -0.81,-1.62 -0.7,1.62 -0.54,0.4 -4.67,-1.63 -0.59,0.24 -0.73,-0.19 -1.93,-1.14 -1.84,-0.33 -2.1,-0.93 -0.41,0.07 -0.9,0.96 -0.54,-0.1 -0.37,-0.43 -0.11,-1.58 -0.33,-0.54 -0.52,-0.42 -0.66,-0.04 -0.67,-1.13 -3.49,-1.47 -1.72,-4.54 0.32,-2.2 -0.13,-1.74 -1.19,-1.89 0.18,-0.37 -0.26,-1.65 0.43,-1.03 -0.2,-2.89 -0.4,-1.57 0.17,-0.74 0.66,-0.51 0.08,-0.91 -0.51,-2.42 0.2,-0.96 -0.77,-3.13 0.02,-0.48 0.49,-0.17 0.23,-0.74 -0.09,-5.09 0.72,-1.06 0.86,-3.86 0.25,-0.23 0.63,-5.57 0.43,-1.23 0.34,-0.08 0.69,-1.37 -0.26,-1.99 0.6,-0.2 1.21,-1.64 -0.09,-1.34 0.34,-0.66 -0.23,-1.1 1.2,-2.91 0.63,-0.45 -1.2,-4.61 0.26,-0.25 0.09,-1.8 0.54,-1.79 0.57,0.03 0.14,-0.28 0.29,-2.02 -0.37,-1.45 0.63,-1.2 0.25,-2.16 0.35,-0.11 0.4,-2.31 1.11,-1.11 0.12,-0.85 0.6,-0.68 0.4,0.11 1.89,-1.36 0.45,-1.74 0.43,-0.43 0.12,-2.21 0.48,-0.46 -0.37,-1.73 0.95,-0.57 0.17,-0.4 -0.66,-1.94 -2.32,-4.55 -1.03,-3.18 -1.26,-2.73997 -0.28,-1.42 -2.37,-4.01 0,0 0.17,-0.49 4.83,-0.83 3.64,-3.62 5.45,-2.92 1.81,-4.17 -0.28,-1.81 1.82,-1.94 -0.42,-2.92 0.42,-2.71 -0.23,-2.3 5.68,-7.23 1.06,-2.22 4.39,-0.01 2.94,-2.08 1.11,0.69 0.98,1.81 2.8,1.25 0.22,2.41 0,0 -1.76,2.46 2.13,4.04 0.94,4.89 2.52,8.31 8.66,-1.25 24,-7.29 17.92,-4.8 2.52,-0.28 2.04,1.14 1.19,3.03 0.66,2.6 1.25,1.07 8.83,-2.42 2.38,0.14 1.25,1.95 1.82,0.38 3.9,-1.05 3.23,2.47 2.09,2.78 1.68,6.4 0.28,3.75 2.38,2.85 2.37,0.35 0.7,1.81 -0.14,2.91997 3.49,2.64 2.52,3.34 1.95,0.13 3.92,-1.11 1.95,0 4.2,1.25 3.63,-1.53 3.07,-0.41 10.76,0.83 3.91,0 4.48,-0.83 3.91,-1.95 6.01,-2.36 2.37,-2.23997 1.82,-7.08 2.66,-2.5 1.8,-3.4 2.11,-0.35 2.4,-2.55 5.77,-1.87 2.44,-6.54 2.44,-0.74 1.69,2.11 2.03,0.96 1.68,-0.75 1.91,0.53 1.59,2.53 13.78,5.48 0.85,1.37 -1.17,2.22 0,1.58 1.06,0.31 1.91,-0.94 1.91,-1.48 3.6,0.63 2.12,-2.32 0.74,-4.22 2.55,-9.38 5.19,-5.38 8.48,-6.33 4.35,-3.91 2.54,-4.22 2.01,-0.52 2.44,0.52 4.04,8.23 z"
	/>
	<path
		id="southwest"
		name="Southwest"
		d="m 6.479016,839.54543 -0.34,0.54 0.23,1.11 0.34,-0.29 0.57,1 -0.63,0.74 -0.29,0 -0.09,-0.51 -0.57,-0.36 0.11,-0.66 -0.4,0.09 -0.37,-0.71 0.09,-1 0.97,-0.37 0.38,0.42 z m -0.38,26.42 0.63,-0.2 0.31,-0.66 0.6,0 0.29,-0.91 -0.09,-0.77 -1.6,-0.43 -0.51,-1.37 1.17,-0.74 -0.77,-0.29 -0.31,-1.17 -0.97,-0.63 -0.52,-0.8 -1.26,1.08 -0.23,2.08 -0.49,0.29 -0.46,-0.06 -1.62000003,0.31 0.23,2.59 0.54000003,2.22 0.71,0.8 1.74,0.51 1.34,-0.37 1.2,-1.28 0.07,-0.2 z m -1.74,-15.58 0.43,-0.37 0.09,-1.48 -0.61,-0.49 -1,0.6 -0.29,1.34 0.23,0.4 1.15,0 z m 17.64,15.61 1.57,0.17 -0.26,0.54 -2.69,2.31 -10.26,-0.29 -2.4,0.38 -1.32,-0.17 -0.4,-0.31 0.49,-0.14 0.31,-1.14 0.54,-0.4 0.34,-0.77 1.54,0.48 1.54,-0.46 0.14,-0.26 -0.09,-1.03 -0.26,1.11 -1.2,0.34 -1.34,-0.74 -0.11,-0.54 0.31,-0.63 -0.4,-1.25 -1.49,-0.4 -0.57,-1 1.03,-0.54 0.14,-0.37 -0.17,-0.31 -0.69,-0.17 -0.17,-1.05 0.69,-0.46 -0.06,-0.17 -0.89,0.54 -1.17,-0.88 -0.11,-0.6 1.06,-0.94 3.23,-1.6 0.43,-0.46 -0.17,-0.48 -0.03,-0.57 0,-0.2 -1.26,-1.25 -0.46,-1.88 0.49,-0.63 0,-0.74 -1.57,-0.54 -0.34,-0.4 0.23,-0.29 1.72,-0.29 1.12,-0.97 0.03,-0.23 -0.26,-0.77 -0.86,-0.6 -0.03,-0.4 1.89,-0.08 0.66,-0.57 -0.09,-1.68 1.23,-0.26 2.23,-0.48 -0.23,1.37 1.14,0.11 0.05,0.46 -0.45,2.45 -0.26,0.11 0.31,0.6 -0.29,2 0.14,0.11 1.69,1.85 0.89,2.22 0.63,6.55 0.34,1.4 0.4,0.29 0.43,1.25 -0.06,0.46 -0.69,0.57 -2.12,-1.14 -0.23,0.29 0.17,0.14 1.37,1.11 0.23,0.17 1.63,-0.34 0.29,-0.54 0.71,-0.29 2.17,1.63 -0.06,0.4 0.52,-0.03 0.11,1.11 -0.67,0.21 z m -19.96,-7.55 2.03,-1.25 0.34,-0.68 0.51,-0.08 2.12,-1.17 0.23,-0.34 1.23,-0.11 0.34,-0.26 -0.03,-0.66 -0.97,-1.05 -0.63,-1.63 0,-0.8 0.54,-1.23 -1.75,-0.65 -0.63,0.11 -0.31,1.42 -0.63,0.52 -0.38,0.05 -1.97,-0.23 -0.26,0.03 -0.2,2 -0.94000003,1.37 -0.41,1.68 0.17,1.08 1.60000003,1.88 z m 95.18,52.67 -0.34,-0.41 -0.38,-0.03 -0.4,0.12 0.01,0.7 -0.41,0.5 -0.98,0.17 0.27,2.51 0.27,0.31 0.45,0.12 0.95,-0.55 -0.29,-1.05 0.83,-0.11 -0.03,-0.68 0.57,-0.28 0.27,-1.08 0.01,-0.02 0.35,-0.77 -0.37,-0.39 -0.22,0.13 0,0.45 -0.06,0.2 -0.5,0.16 z m 69.660004,-165.01 -2.55,1.82 -2.77,0.61 -0.87,1.38 -2.95,2.43 -6.27,3.96 -1.1,2.2 -0.77,10.96 -0.93,2.47 -2.09,1.51 -0.88,2.25 -1.91,2.36 -2.26,1.46 -3.36,0 -1.12,1.02 -2.47,4.17 -1.38,0.56 -3.71,-0.56 -0.44,1.64 2.87,10.49 3.82,2.89 4.98,8.89 -0.68,1.37 -3.26,0.25 -1.39,0.58 -4.04,8.47 -0.11,2.39 2.89,1.37 0.34,1.05 -0.29,0.83 -8.62,8.99 -1.15,6.58 -6.03,7.5 0.22,3.86 -2.77,1.21 -3.71,-1.15 -4.17,6.23 -2.2,4.04 -1.01,2.46 -1.77,2.73 -0.08,3.26 -0.39,1.82 1.42,3.27 -3.73,5.96 -2.040004,4.27 -1.19,1.08 -0.83,4.54 -1.11,4.04 0.45,1.7 2.69,0.27 1.35,1.52 4.580004,-0.89 1.44,-0.54 0.99,0.8 -0.54,2.32 2.06,2.69 -0.93,1.02 -1.13,2.27 -1.08,0.98 -1.46,0.03 -1.05,-0.81 0.14,-0.54 -0.57,-0.34 -1.32,0.63 0.11,0.94 -0.34,0 0.06,0.37 -0.690004,0.88 0.510004,1.2 -0.2,0.48 -0.510004,0.26 -1.06,-0.4 -0.49,-0.54 -0.37,0.14 0.03,0.68 -0.31,0.14 -0.6,-0.46 -0.51,0.08 -0.37,0.26 -0.17,1 -1.14,0.26 -0.2,1.22 -1.72,0.37 -0.14,-0.31 0.37,-1.14 -0.32,-0.34 -0.28,0.28 -0.8,0.17 -0.09,0.14 -0.94,0.63 -0.37,1.48 -0.6,0.06 -0.69,0.8 -0.94,0.37 -1.14,1.34 -1.74,0.34 -0.89,1.11 -0.57,-0.48 -0.89,0.29 -0.8,0.8 0.14,0.88 -0.72,0.23 0.09,0.88 -0.63,0.29 -1.34,-0.46 0.43,1.31 -1.54,0.11 -0.57,0.94 0.23,0.57 -0.97,0.6 -1.09,-0.6 0.23,-0.71 -0.46,-0.77 -1.12,0.11 -0.37,-0.54 0.17,1.4 -0.6,0.26 -0.31,-0.26 0.14,-0.34 -0.37,-0.17 -0.26,-0.71 0.51,-0.4 0.2,-1.71 -0.74,-1.34 0.49,0.11 0.29,-0.4 -1.17,-1 -0.49,-0.11 -0.66,0.34 -0.49,-0.29 -0.86,0.29 -0.23,-0.23 -0.57,0.4 -1.93,-0.04 -0.2,-0.77 -1.23,0 -1,0.97 -0.63,-0.43 0.11,-0.26 -0.77,0.26 -0.31,-0.43 -0.6,-0.08 -1.2,-1.74 -1.86,-1.31 -3.03,-1.57 -1.52,-0.34 -0.46,-0.68 -0.31,0.29 -0.86,0.06 -0.34,-0.34 0,-0.71 -1,-0.11 -1.4,-1.68 -1.2,-0.28 -0.03,-0.48 0.8,-0.71 0.4,-1 -0.23,-3.25 1.31,-2.96 -0.49,-0.97 0.23,-0.54 -1.06,-1.68 -0.11,-1.03 -1.03,-0.85 -0.26,-1.05 -0.83,-0.37 -2.23,-1.37 -0.14,-0.26 -0.77,-0.03 -0.26,-1.45 -1.69,-1.51 -0.03,-1.08 0.54,-0.68 0.4,-1.82 -0.49,-1.45 0.09,-0.54 -0.57,-1.25 -1.86,-1.05 -0.97,-1.94 -0.66,-2.54 0.14,-0.46 -0.29,-1.03 0.17,-0.28 0.17,-1.31 1.29,-1.42 0.92,-0.17 -0.83,-0.51 -0.43,-1.71 0.46,-0.14 1.83,-2.65 -1.12,-0.77 -0.34,0.68 -0.57,-0.14 -1.29,-1.31 0.29,-3.73 -0.17,-0.83 -0.03,-1.11 0.2,-0.8 -0.34,-0.26 -0.72,-1 -0.14,0.66 -1.12,-0.68 -1.09,-1.91 -1.14,-1.03 -0.23,-0.77 -0.26,-0.11 -0.51,0.74 -1.13,-0.95 -0.03,-0.91 0.6,-1.48 0.11,-2 -1.34,-0.31 -0.14,0.68 -0.66,0.8 -3.03,0.71 -1.26,0.97 -2.03,0 -0.43,-1.88 -0.49,-0.8 0.09,-0.48 1.11,-1.31 0.8,-2.31 0.57,-0.83 -0.03,-0.85 0.51,-1.11 -0.27,0.11 -0.66,0.63 0.11,0.37 -0.86,2.05 -0.43,0.34 -0.29,-0.29 -1.17,3.31 1,3.19 0.6,0.37 1.54,0.17 -0.14,1.63 0.23,0.77 1.8,2.68 1.2,2.71 0.74,1 0.03,0.77 -1,1.03 -2.03,0.48 -0.77,-0.77 0,-0.37 -0.57,-0.23 -1.49,-1.65 -2.03,-0.49 -1.86,-1.54 0.26,-0.34 -0.94,-3.42 0.29,-0.2 0.03,-0.34 -0.51,-0.03 -0.39,-1.09 -1.32,-1.99 2.2,-1.05 1.17,-1.28 0.31,-1.74 -1.17,-1.82 1.12,-0.29 0.51,-0.83 0,-0.6 -0.34,0.08 -0.23,0.94 -0.54,0.08 -0.23,0.09 -0.69,0.57 0,0.49 0.63,0.63 0.23,0.77 -0.4,2.14 -0.6,0.37 -2.03,0.34 -1.8,-1.05 0.2,-0.31 -0.51,-0.14 -0.8,-0.57 -0.6,-3.11 0.49,0.2 -0.54,-0.74 0.29,-0.54 1.37,0.34 0.6,-0.11 0.26,-0.51 -0.14,-0.97 0.49,-0.31 0.29,-0.68 -0.86,0.77 -0.09,-0.4 0.55,-1.47 -0.69,0.82 -0.17,0.94 0.31,1.34 -0.28,0.29 -1.04,-0.46 -0.8,-0.03 -0.2,-0.94 -1.12,-0.14 0.4,-1.14 0.46,-0.11 0,-0.26 -2.71,0.62 -0.44,-0.05 -1.4,0.43 0.03,1.57 -0.6,0.66 -1.37,-0.17 -0.23,-0.57 -0.63,-0.34 -0.11,0.23 0.58,0.49 -0.15,1.36 1.12,0.91 -0.51,0.71 -1.17,0.31 -1.4,-1.51 -0.34,-1.34 0.43,-1.25 -0.17,-1.23 0.34,0.2 0.2,1.4 0.34,0.17 0.85,-0.95 -0.09,-0.2 0.23,-1.05 -0.14,-0.43 -0.31,0 0.4,-0.63 -0.77,0.26 -0.23,-0.2 -0.09,-0.43 0.4,-0.54 -0.51,-0.63 -0.43,-0.09 -0.13,0.26 -0.56,0.23 -0.17,-0.26 -0.23,-0.23 -0.74,-0.31 1.06,-2.53 1.1,-1.14 0.61,-0.22 0.66,0.25 0.46,0.94 0.88,0.44 0.94,-0.03 4.02,-2.44 -0.06,-1.61 -0.5,-0.94 -2,-1.9 0.03,-1.58 1.71,-2.08 0.73,-0.48 2.17,-0.27 0.38,-0.5 0.14,-0.73 -0.5,-1.2 0.21,-0.99 0.69,0.04 0.99,-0.69 0.21,-0.4 -0.29,-0.54 1.48,-1.33 0.14,-0.73 1.06,-0.62 0.45,0.04 0.14,-0.35 -0.5,-0.64 -0.97,-0.14 -0.29,-0.57 1.62,-1.61 0.45,-0.12 -0.05,-1.11 1.06,-0.67 -0.22,-0.83 0.75,-1.25 0.49,-1.63 2.24,-1.73 0.14,-1.39 2.19,-0.6 0.94,-0.69 1.06,-1.35 0.79,-2.04 2.38,-3.6 0.11,-8.1 -0.35,-2.81 2.36,-9.16 0.63,-0.62 -0.34,-1.25 0.32,-2.58 -0.5,-1.63 0.18,-1.02 1.86,-2.25 1.07,-4 2.25,-3.29 0.49,-1.59 0.99,-1.02 0.26,-0.83 -0.1,-1.75 -0.41,-1.18 -3.87,-3.79 -1.31,-2.52 -1.64,-0.77 -1.67,-2.31 -0.29,-1.98 0.21,-0.5 0.62,0.9 0.33,0.07 2.44,-3.11 0.75,-1.61 -0.76,-0.87 0.09,-0.5 1.27,-1.09 0.47,-1.37 -0.38,-0.75 -1.26,-0.35 -0.62,-0.64 -0.67,-1.42 1.08,-0.67 1.08,-1.8 2.81,-1.45 1.81,-2.87 0.92,-0.95 1.87,-0.55 3.68,-2.96 2.66,-1.58 14.51,-12.91 1.64,-1.62 1.57,-4.17 1.99,-1.95 2.71,-1.99 1.64,-0.7 3.74,-0.86 2.08,-3.22 2.57,-4.85 1,-1.17 0.54,-0.05 0.26,-0.36 -0.28,-0.78 0.73,0.05 0.52,-0.48 0.41,-2.08 -0.37,-1.21 0.51,-0.48 0.2,-2.01 0.59,-0.57 3.66,1.37 3.87,2.16 1.04,0.14 1.35,-4.68 0.04,-1.74 0.51,-0.42 0.82,-2.75 0.14,-0.59 -0.24,-0.66 0.7,-2.96 0.650004,-0.15 5.73,0.88 1.49,-0.44 4.34,-2.52 0.35,-0.38 -0.34,-1.71 0.18,-1.61 1.29,-2.37 2.54,0.58 1,0.63 0.54,-0.43 1.18,-0.12 0.19,-0.71 1.71,2.19 0.99,-0.43 0.85,0.26 0.35,-0.45 0.62,0.52 1.11,-0.29 3.65,3.51 -0.36,4.73 -1.34,4.07 2.86,3.87 -1.22,9.58 1.22,3.47 -2.55,4.65 -2.24,6.71 -3.93,4.07 -7.66,3.9 -0.23,1.92 0.57,1.78 2.43,3.25 -1.6,3.81 -1.02,1.62 2.03,1.98 3.01,1.5 1.43,2.08 2.97,2.78 3.59,-0.69 1.98,1.57 1.72,2.82 4.09,2.54 7.15,2.09 5.67,2.89 2.19,-2.43 3.67,-1.13 3,1.46 8.66,1.52 2.13,3.23 0.37,2.6 z m -74.320004,165.69 z m -2.27,3.96 1.03,-1.42 1.34,-0.2 -0.36,-0.81 0.23,-1.13 -0.98,0.3 -0.92,0.77 -0.22,1.34 -0.85,0.23 0.42,0.22 0.31,0.7 z m 4.49,-0.91 -0.06,-1.25 -0.95,0.01 -1.16,0.85 -1.06,0.06 -0.34,1.14 -0.43,0.4 -0.66,-0.06 -0.34,-0.63 -0.46,-0.11 -1.29,0.74 -1.26,1.37 -1.63,0.29 -0.2,0.68 0.4,0.94 1.03,0.97 0.37,-0.06 0.06,0.29 0.92,0.48 0.26,0.26 1.17,1.25 1,-0.23 1.09,0.46 0.23,-0.54 0.92,0.17 1,-0.8 -0.31,-0.94 -0.12,-0.17 0,-1.05 1,-0.37 0.43,-0.85 0.83,-0.63 -0.06,-0.91 0.71,-0.97 -1.09,-0.79 z m -57.82,-53.98 -0.83,-2.45 -3.35,-4.39 -0.06,-1.05 0.54,-2.57 -0.23,-1.08 -0.6,1.11 -0.63,0.43 -3.09,0.77 -0.66,0.46 -0.29,1.03 0.26,1.62 2.75,4.13 1.29,0.6 -0.03,0.48 2.29,1.91 0.26,0.51 0.43,-0.11 0.23,1.25 1.89,1.23 0.83,0.14 0.34,-0.23 -0.06,-1.28 -1.28,-2.51 z m 51.5,61.36 -1.12,-1.17 -1.37,-0.54 -1.4,-1.34 -0.94,0.4 -0.37,0.26 -0.43,0.29 -0.17,0.85 -0.43,0.26 -0.11,0.94 1.09,2.08 2.69,2.5 3.09,-3.52 -0.4,-0.14 -0.13,-0.87 z m -54.76,-52.3 -0.46,0.34 -0.03,0.57 -0.31,-0.17 -0.23,0.26 -0.11,1.4 0.31,0 1,-1.03 -0.37,-0.88 0.2,-0.49 z"
	/>
	<path
		id="west"
		name="West"
		d="m 277.19902,683.00543 2.84,1.41 4.54,0.37 3.22,1.23 0.94,2.44 -0.3,2.32 -1.39,1.07 0.09,2.99 -0.38,3.87 0.47,2.18 0.85,1.51 1.71,1.8 0.75,1.51 0.19,1.42 -2.08,4.53 -1.32,2.08 -2.07,1.87 0,0 0,0 0,0 0.61,4.88 -0.82,3.94 0.88,2.05 0.49,6.54 3.67,2.33 -3.49,4.98 -3.25,2.61 -4.26,4.07 0.67,2.52 -1.39,1.81 -0.62,2.19 2.15,7.73 -2.15,7.01 -1.26,0.39 -0.64,1.55 1.94,2.13 -0.7,3.49 -2.54,1.75 -1.69,1.83 -1.36,2.79 -2.96,0.9 -2.59,2.51 0.51,2.44 -0.23,2.69 -0.87,2.79 0.69,2.51 -5.01,1.33 -3.88,5.09 -1.3,6.97 -2.52,9.6 -4.53,3.34 -4.28,-0.69 -6.98,-7.8 -1.77,0.46 -3.42,4.22 -11.16,5.91 -5.73,1.95 -7.55,-1.24 0,0 -4.02,-0.7 -0.64,-2.76 -0.68,-0.8 -1.97,1.13 -1.65,-1.44 -0.74,-4.45 -0.7,-1.36 -2.36,-2.33 -0.58,-2 0.29,-2.86 -0.9,-0.85 -5.02,0.34 -2.68,0.8 -3.22,-1.28 -2.38,-0.3 -1.29,1.72 -0.43,3.86 -5.88,3.43 -2.72,5.44 -0.57,1.86 -2.73,0.14 -2.01,-4.29 -1.96,-0.27 -0.8,-3.19 0,-4.11 -5.89,-2.15 -2.36,-6.46 1.19,-3.39 0.39,-3.9 -2.18,-5.15 -2.66,-2.68 -2.64,0.31 -1.73,-0.19 -2.21,1.92 -1.45,-0.03 -2.03,-0.9 -0.47,-1.56 1.29,-7.21 0,0 2.26,-1.46 1.9,-2.36 0.88,-2.25 2.09,-1.51 0.93,-2.47 0.77,-10.95 1.1,-2.2 6.28,-3.96 2.95,-2.43 0.87,-1.38 2.77,-0.62 2.55,-1.82 -0.37,-2.54 -2.13,-3.23 0,0 2.37,-0.24 5.77,-4.7 7.87,2.53 2.5,2.73 2.08,0.85 2.15,-1.86 0.86,-6.3 5.85,-1.17 3.03,-0.23 7.8,-1.63 11.71,0.27 2.59,-3.4 2.98,-7.97 4.01,-8.64 1.7,-0.95 3.4,0 3.79,0.78 4.25,1.49 2.25,0.27 2.11,-1.88 5.41,-1.59 6.7,-3.91 1.96,-2.29 0.32,-4.89 1.31,-1.64 -0.97,-1.91 -0.57,-4.25 0.76,-0.95 1.13,-0.85 7.76,1.32 3.98,-0.28 1.88,-1.21 1.15,-1.72 0.47,-1.42 0.76,-0.28 z"
	/>
</svg>
