<svg
	xmlns="http://www.w3.org/2000/svg"
	viewBox="0 0 438 516"
	aria-label="Map of Japan"
>
	<path
		id="aichi"
		name="Aichi"
		d="m 260.23993,277.87889 -0.17,-0.35 0.5,-1.77 -0.86,-1.4 0.11,-1.46 0.46,-1.37 -0.25,-0.32 -0.89,0.36 -1.14,-0.35 0,0 -0.97,-1.57 -0.32,-1.21 0,0 0.22,-2.19 1.69,-2.97 1.28,0.15 1.66,-0.5 1.48,-1.13 -0.02,0.57 1.18,0.87 -0.03,0.65 0.5,0.21 -0.09,0.48 0.27,0.32 0.32,0.15 0.3,-0.21 0.94,0.39 0.52,0.71 0.85,-0.17 0.92,-0.73 0.63,-0.01 0.75,0.47 -0.07,0.24 0.84,0.05 -0.02,0.31 0.99,0.5 1.72,-1.4 0.8,-0.08 0,0 -0.32,0.83 0.64,0.81 -0.01,0.51 1.26,-0.26 0.85,-0.55 1.56,0.3 0.22,0.39 0.84,-0.27 0,0 -0.31,0.98 0.52,0.5 -0.58,0.57 0.08,0.47 -0.46,0.24 -1.46,2 -0.03,1.06 -1.28,1.93 -2.75,1.53 -0.43,1.23 0.16,2.32 0,0 -3.41,0.79 -3.43,1.23 -2.03,0.27 -0.26,-0.21 0.8,-1.71 0.49,0.05 0.25,0.57 2.36,-1.02 0.86,-0.53 -0.1,-0.44 0.45,-0.36 0.48,0.15 0.22,-0.19 0.21,-1.14 -0.57,-0.7 -1.69,-0.31 -0.52,0.46 -0.24,0.93 -0.81,-0.57 -2.13,0.25 -1.42,-1.37 0.31,-1.08 -0.44,-0.19 -0.42,0.59 -0.27,2.22 1.02,0.93 0.15,0.88 -1.69,-0.6 -0.77,-0.73 z"
	/>
	<path
		id="akita"
		name="Akita"
		d="m 323.48993,155.40889 -0.69,-2.75 -1.39,-1.62 0.51,-0.81 0.74,0.23 0.6,0.89 0.19,-1.14 -0.26,-0.41 0.4,-0.61 0.19,-1.4 -0.34,-1.41 -1.07,-0.44 -0.45,0.43 -0.54,0.81 -0.61,2.06 0.54,0.42 -0.08,1.26 -0.75,-0.29 -0.89,0.15 -0.19,0.25 0.17,0.85 -2.1,-0.09 -0.96,-1.84 -0.22,-1.3 0.14,-0.73 1.93,1.32 0.67,-0.21 1.48,-1.46 0.87,-1.57 0.8,-2.39 0.6,-3 0.03,-1.67 -1.72,-1.81 0,0 0.51,-0.11 1.13,0.35 0.26,-0.87 0.77,-0.35 0.54,0.32 0.21,0.49 1.48,-0.13 0.81,0.28 1.35,-0.38 0.86,0.18 0.5,-1 1.31,-0.11 0.27,0.84 0.8,0 1.15,1.19 1,-0.84 1.25,0.84 0.79,-0.63 0.76,-0.05 0.72,-0.62 0.71,0.1 0.24,-1.08 1.23,-0.49 -0.16,2.35 2.13,-0.23 0.28,1.84 -0.41,0.27 -0.5,1.22 0.14,1.31 0,0 -0.4,0.57 -0.61,0.22 -0.81,1.11 0.4,0.49 -0.15,1.56 -0.52,0.46 -0.05,2.68 0.62,2.5 -0.56,0.18 -0.49,-0.48 -0.82,0.45 0.07,1.06 1.12,0.66 -0.82,1.47 -0.39,0.14 0.66,1.17 0.13,1.08 -0.51,1.19 -0.27,-0.03 -0.61,0.86 -0.42,0.11 0.21,0.72 -0.43,1.34 -0.78,0.85 0.05,0.81 -0.45,0.12 -0.05,0.65 0.39,0.09 0.6,1.25 -0.15,0.92 0.53,0.75 1.12,0.77 -0.33,1.06 0.85,0.44 -0.6,0.3 -0.47,0.83 0.27,0.22 -0.28,0.97 0.97,0.38 0.14,0.4 -0.79,1.37 0.08,1.15 0,0 -0.71,0.17 -1.64,1.57 -1.76,0.36 -0.27,-0.18 0,0 -0.24,-0.45 -1.52,-0.53 -0.58,-1.8 -1.06,-0.08 -0.35,-0.77 -1.08,0.27 -3.08,-0.94 -0.79,-0.7 -0.71,-0.18 -0.2,-1.17 -0.98,0.24 -0.37,0.46 -2.51,-0.41 0,0 0.68,-1.47 -0.23,-0.93 0.39,-0.78 -0.04,-0.53 0.39,-0.61 0.7,-0.11 0.94,-2.39 0.8,-4.19 0.04,-4.1 z"
	/>
	<path
		id="aomori"
		name="Aomori"
		d="m 344.61993,125.64889 0.92,-0.83 0.58,-1.05 0.57,-1.85 0.23,-2.45 0.59,-1.14 -0.72,-2.06 -0.86,-1.04 -0.79,-0.08 -0.85,1.61 -1.13,0.81 -1.52,-0.42 -0.67,0.65 -1.81,0.34 -0.85,0.87 -0.93,-0.47 0.69,-4.59 0.42,-0.66 0.31,-1.84 1.43,-2.03 -0.22,-0.82 0.3,-0.55 1.72,1.57 1.32,0.11 0.89,0.5 1.57,1.97 1.46,0.85 0.89,0.11 1,-0.37 2.04,-1.67 -1.49,6.85 -0.1,5.09 0.55,5.55 1.37,4.86 1.18,1.09 0.67,-0.39 0.23,0.55 1.91,1.89 0,0 -0.47,0.54 -1.39,0.62 -0.11,0.83 -0.89,0.69 -1.24,-0.77 -0.68,0.09 -1.72,1.1 -0.68,-1.08 -1.96,1.49 -1.52,0.38 -0.74,0.5 -0.04,0.72 -0.46,0.02 -1,0.78 -0.94,-0.01 -0.46,-0.68 0,0 -0.14,-1.31 0.5,-1.22 0.41,-0.27 -0.28,-1.84 -2.13,0.23 0.16,-2.35 -1.23,0.49 -0.24,1.08 -0.71,-0.1 -0.72,0.62 -0.76,0.05 -0.79,0.63 -1.25,-0.84 -1,0.84 -1.15,-1.19 -0.8,0 -0.27,-0.84 -1.31,0.11 -0.5,1 -0.86,-0.18 -1.35,0.38 -0.81,-0.28 -1.48,0.13 -0.21,-0.49 -0.54,-0.32 -0.77,0.35 -0.26,0.87 -1.13,-0.35 -0.51,0.11 0,0 0.26,-1.78 -0.19,-1.44 -0.45,-0.86 -0.96,0.05 -0.15,-0.82 1.78,-1.42 1.02,-1.8 0.65,-0.44 0.61,-0.25 1.23,0.69 1.43,-1.07 0.81,-0.1 0.42,-0.61 1.02,-3.61 0.07,-3.8 -0.69,-0.75 -0.7,-0.08 0.17,-0.39 0.88,0.23 0.38,-0.43 0.4,-2.95 1.09,0.69 0.67,0.99 0.64,0.36 0.67,-0.19 1,-1.01 1.09,0.38 0.65,0.72 -0.11,2.27 0.39,2.52 0.73,3.28 0.93,1.19 1.33,-0.11 1.19,-1.28 0.22,-0.56 -0.22,-1.24 0.33,-1.45 1.49,0.54 0.68,0.96 -0.18,0.55 0.73,-0.01 0.92,0.45 0.53,0.88 0.77,0.21 z"
	/>
	<path
		id="chiba"
		name="Chiba"
		d="m 319.14993,263.11889 0.14,-0.21 0.96,0.42 0.39,-0.47 -0.3,-0.72 0.09,-0.58 1.35,-0.38 -0.12,-0.51 0.28,-0.13 0.24,0.38 1.51,-2.16 0.57,0.45 0.23,-0.35 -0.54,-1.29 -0.76,-0.83 -1.21,-1.19 -0.69,0.29 -0.35,-0.76 0,0 -1.08,-2.26 0,0 0.34,-0.26 0.22,-1.33 -1.68,-3.22 -0.05,-1.04 -0.71,-1.41 0,0 0.42,0.03 0.33,0.84 1.63,2.01 0.72,0.24 0.2,0.71 1.04,0.7 2.46,0.86 0.58,0.72 1.02,-0.41 0.86,0.11 0.59,-0.4 0.8,0.23 0.86,-0.82 2.01,-0.52 1.08,0.52 0.91,-0.04 1.13,0.97 1.23,0.26 1.11,1.53 2.5,1.54 0,0 -0.11,0.65 -0.76,-0.51 -1.5,0.5 -0.8,-0.22 -0.75,0.19 -2.72,2.07 -1.39,1.57 -1.12,2.16 -0.29,2.32 0.47,1.23 -0.61,2.85 -0.67,0.14 -0.47,1.02 -0.28,0.1 -2.15,0.62 -0.23,-0.44 -1.28,0.19 -0.81,1.1 -1.97,1.36 -0.51,1.21 0.1,0.58 -0.45,0.61 -1.04,0.43 -1.17,-0.21 -0.19,-0.72 -1.31,-0.67 0.03,-0.29 0.8,0.11 1.25,-0.56 -0.78,-1.66 0.46,-0.5 -0.36,-0.36 0.29,-0.7 -0.41,-0.57 0.01,-0.83 0.92,-0.71 0.08,-0.52 -0.44,-0.75 0.06,-0.39 -0.75,-0.46 0.54,-1.46 z"
	/>
	<path
		id="ehime"
		name="Ehime"
		d="m 174.06993,312.76889 0.23,-0.43 0.35,-0.26 0.35,0.04 0.02,-0.2 -0.29,-0.13 -0.38,-0.16 -0.47,0.16 -0.28,0.23 -0.44,-0.25 -0.2,0.38 -0.4,-0.13 -0.14,-0.23 -0.46,0 0.13,-0.45 0.17,-0.13 0.14,-0.1 0.31,-0.12 -0.03,-0.17 -0.04,-0.25 -0.3,0.03 -0.22,-0.37 0.35,-0.29 -0.07,-0.36 -0.27,-0.07 0.35,-0.32 0.16,-0.04 0.22,-0.27 0.09,-0.46 -0.23,0.13 -0.4,-0.05 0.17,-0.41 -0.51,0.1 -0.33,-0.36 -0.23,0.06 -0.35,0.29 -0.86,0.6 -0.52,0.14 -0.33,0.37 -1.1,0.33 -0.57,0.53 -0.16,0.31 -0.31,0.28 -0.51,0.06 -0.03,-0.24 0.35,-0.22 0.01,-0.17 -0.51,0.02 -0.85,0.71 -0.51,0.31 -0.25,0.01 2.15,-1.81 0.51,-0.3 0.66,-0.36 0.57,0.08 0.31,-0.33 0.31,-0.14 0.46,-0.04 0.24,-0.14 0.1,-0.18 1.16,-0.52 0.86,-0.64 0.75,-0.4 0.21,-0.5 0.83,-0.99 0.63,-0.46 1.55,-0.56 1.22,-0.91 0.21,-0.24 0.37,-0.98 0.45,-0.4 -0.23,-0.72 -0.01,-0.99 0.2,-1.04 0.24,-0.66 0.43,0.17 0.43,-0.29 0.34,-1.22 0.07,-0.62 1.77,-1.67 1.11,-0.17 -0.06,-0.45 0.26,-0.17 -0.15,-0.56 0.36,-0.6 0.75,0.87 0.98,1.41 0.72,1.48 0.38,0.6 0.13,0.43 0.5,0.36 0.95,-0.32 1.38,-0.34 0.37,-0.1 -0.12,-0.46 1.2,-0.2 0.24,-0.26 0.38,0.05 0.37,0.33 0.7,-0.3 0.68,0.1 0.48,0.1 0.73,0.33 0.5,-0.07 0.69,-0.5 0.2,-0.34 0.14,-0.44 0.16,-0.08 0.4,-0.27 0,0 0.33,0.27 0.95,0.13 0.61,0.34 0,0 -0.29,0.68 0.27,0.49 0,1.04 -0.22,0.61 -0.34,0.29 0,0 -0.41,0.01 -0.65,-0.01 -0.47,0.33 -0.51,-0.34 -0.21,0.04 -0.56,0.77 -0.21,0.27 -0.2,0.16 -2.07,0.07 -0.8,-0.13 -1.47,0.02 -0.2,0.17 -0.22,0.73 -0.18,0.11 -0.52,0.19 -0.34,-0.34 -0.2,0.02 -0.26,0.69 -0.39,0.79 -0.4,0.4 -0.35,0.5 -0.06,0.55 -0.22,0.28 -0.61,0.1 -0.18,0.65 -0.25,0.73 -0.19,0.46 0.29,0.29 0.04,0.52 -0.36,0.27 -0.57,0.88 -0.01,0.27 -1.2,0.34 -0.21,-0.13 -0.66,0.08 -1.3,-0.21 -0.41,0.11 -0.32,0.3 0.35,0.32 0.15,0.94 0.15,0.2 0.2,0 0.23,0.72 0.45,0.14 0.27,0.36 0.04,0.57 -0.08,0.22 -0.8,0.46 -1.21,0.42 -0.31,0.52 -0.18,1.14 -0.43,0.03 -0.17,0.15 -0.14,0.47 -0.71,0.9 -0.19,0.07 -0.95,-0.92 -0.11,-0.27 -0.2,0.07 -0.14,0.29 0.29,0.62 -0.03,0.26 0.47,0.51 0.21,0.05 0.09,0.3 -0.2,0.92 0.3,0.31 0.21,0.94 -0.01,1.33 -0.41,0.1 -0.05,0.38 0,0 -0.32,-0.12 -0.94,0.35 -0.14,-0.27 -0.25,-0.34 -0.09,-0.18 -0.46,0.16 -0.19,0.09 -0.26,0.06 -0.02,0.29 0.02,0.13 -0.19,0.26 -0.35,-0.03 -0.27,0.01 -0.25,-0.04 0.08,-0.37 -0.32,-0.38 0.1,-0.12 0.36,-0.04 0.35,-0.26 -0.63,-0.34 0.28,-0.23 0.24,0.14 0.15,0.04 0.14,-0.1 -0.21,-0.39 0.1,-0.26 -0.3,-0.14 -0.12,-0.04 -0.01,-0.83 -0.28,-0.04 -0.35,0.33 -0.42,-0.24 -0.38,0.17 -0.13,0.08 -0.09,0.21 -0.05,0.29 -0.36,-0.18 0.33,-0.4 0.02,-0.38 0.15,-0.35 0.22,-0.05 0.2,0.11 0.14,0.34 0.33,-0.06 0.57,-0.22 0.13,-0.27 -0.3,-0.12 0.21,-0.39 0.38,-0.6 -0.02,-0.33 -0.39,-0.09 -0.15,0.01 -0.22,0.08 -0.15,0.13 -0.22,-0.14 0.05,-0.25 -0.36,-0.17 0.15,-0.33 0.29,-0.35 -0.52,-0.56 0.51,0.2 0.69,0.34 0.29,0.33 0.35,0.02 -0.08,-0.37 -0.2,-0.41 0.31,-0.27 0.56,0.04 0.23,-0.03 0.09,-0.16 -0.14,-0.34 -0.28,0.04 -0.38,-0.34 0.39,-0.21 0.04,-0.31 -0.8,0.05 -0.49,-0.19 z"
	/>
	<path
		id="fukui"
		name="Fukui"
		d="m 238.25993,258.18889 1.16,0.72 0.07,0.38 0.31,-0.04 0.42,-0.26 -0.65,-0.81 0.2,-0.13 0.54,0.36 0.37,-0.65 -0.58,-0.45 -0.25,-0.84 0.59,0.15 0.43,0.69 0.76,-0.4 0.15,0.35 1.22,-0.36 0.23,-0.43 -0.25,-0.32 0.06,-0.95 -0.43,-0.68 1.24,-0.99 0.39,0.6 -0.23,1.43 0.36,0.54 0.6,-0.11 0.48,-1.52 0.02,-1.28 -0.57,-1.13 -1.52,-1.52 0.08,-1.1 -0.79,-1.19 1.06,-1.27 0.35,-1.49 2.1,-3.09 -0.24,-0.66 0.85,0 1.53,-1.09 0,0 1.68,1.59 0.25,1.25 0.41,0.38 0.9,-0.13 0.65,0.76 0.47,0.05 1.75,-0.42 1.86,1.46 0.24,0.62 1.89,-0.48 0,0 0.21,0.49 -0.49,0.37 -0.25,1.39 0.5,0.37 -0.05,0.53 0.79,0.28 -0.13,0.49 0.64,0.53 0.3,1.22 -0.63,0.46 -0.17,0.78 -1.34,-0.02 -1.13,0.49 -0.42,-0.52 -0.46,0.45 -0.52,-0.17 -0.49,0.44 -0.82,-0.21 -0.56,0.77 -0.3,-0.51 -1.06,0.02 -1.17,-0.42 -0.9,0.48 -0.01,0.97 -0.99,1.64 0,0 -1.81,-0.94 -0.67,0.13 -0.31,0.67 0.83,1.76 -0.13,0.75 -1.1,-0.32 -0.35,1.07 -1.29,0.13 -0.45,0.87 -0.46,0.1 -0.77,-0.77 -1.04,2.77 -0.57,0.28 -0.35,-0.4 -0.66,-0.01 -0.05,0.5 -0.37,0.1 -0.45,0.74 0,0 -1.37,0.26 -1.51,-0.59 -1.73,-0.19 -0.13,-0.87 -1.31,-1.21 0.29,-1 -0.52,-0.42 0.41,-0.9 0,0 0.88,0.17 -0.21,1.09 0.18,0.25 2.58,0.39 1.78,-0.38 0.27,-0.88 -0.65,0.27 -0.03,-0.5 -0.57,-0.11 0.52,-0.59 0.41,-0.08 z"
	/>
	<path
		id="fukuoka"
		name="Fukuoka"
		d="m 133.13993,303.07889 1.24,-1.35 0.14,-0.6 -0.12,-0.36 -0.33,0.01 -0.06,-0.68 0.56,-0.05 0.25,-0.81 0.85,-0.52 -0.08,-0.39 0.78,-0.03 0.25,0.3 1.04,-0.11 0.68,-0.4 0.71,-0.94 1.1,0.45 0.45,-0.34 1.79,0.39 0.43,0.58 0.74,-0.28 0.32,-0.77 1.16,-0.76 0.4,0.31 -0.72,1.35 0.17,0.96 -0.79,0.7 0.22,0.46 0.66,-0.13 0.55,2.53 1.4,2.1 0.56,-0.28 1.08,0.76 0,0 -0.15,0.37 0.3,0.8 -0.39,0.52 0.13,0.46 -1.91,0.11 -0.97,-0.27 -0.93,0.23 -1.61,1.38 -0.3,1.65 -0.49,0.13 -0.47,0.69 0.3,0.16 0.29,0.95 -0.14,0.64 -0.52,0.26 -0.12,0.38 0.36,0.19 -0.03,0.62 0.84,0.73 -0.48,1.38 -0.35,0.25 0,0 -1.53,-0.52 -0.67,-0.61 -0.81,0.04 -0.16,-0.4 -0.53,1.44 -1.5,-0.17 -1.62,1.49 0.18,1.07 -2.14,-0.08 0,0 0.48,-1.1 -0.32,-0.8 -0.74,-0.78 0.03,-0.41 -0.37,-0.19 0,0 0.17,-1.23 0.59,-1.04 1.85,-1.42 0.51,-0.86 0.51,0.03 0.02,-2.25 -0.41,-0.21 -0.74,0.25 -0.99,0.95 -0.62,-0.71 -0.77,-0.17 -1.7,-1.07 -0.48,0.22 -0.86,-0.24 -0.69,0.32 -2.63,-0.08 0,0 0.15,-0.68 1.61,-0.32 0.54,-0.64 0.19,-0.55 -0.42,0.3 -0.15,-0.45 -0.27,-0.16 -0.45,0.24 -0.22,-0.4 1.19,-0.35 0.29,-0.38 -0.12,-0.38 0.85,-0.3 0.15,-0.61 0.59,0.4 -0.25,0.37 0.18,0.42 0.82,0.14 0.11,0.7 0.48,-0.08 0.16,-0.34 0.66,0.07 1.04,-0.49 0.12,-0.84 0.57,-0.23 -0.08,-0.6 -0.59,-0.04 z"
	/>
	<path
		id="fukushima"
		name="Fukushima"
		d="m 341.40993,223.74889 -0.62,0.81 -2.49,1.19 -0.39,0.66 0.04,0.48 0,0 -3.43,-1.04 -0.57,-1.03 -0.34,0.46 0.46,1.3 -1.12,0.49 -1.46,1.4 -0.43,-0.57 -1.14,-0.42 -0.33,-1.16 -0.82,-0.25 -0.76,-1.02 -0.55,-0.03 0,0 -0.33,-0.33 0.16,-1.86 -0.85,0.05 -0.23,-0.94 -1.02,-0.98 -2.39,-1 -2.41,-0.28 -1.36,0.59 -0.18,0.91 -2.79,0.87 -0.26,0.42 -0.79,0.19 -0.23,0.44 -0.63,0.09 -0.92,0.74 -1.36,0.24 -0.71,1.02 -0.94,0.43 0,0 -2.3,-0.72 -0.52,0.2 -0.01,-0.37 0,0 0.24,-0.42 -0.11,-1.34 0.22,-0.78 -0.42,-1.39 0.35,-1.28 -0.47,-0.93 -0.68,-0.16 -0.59,-0.8 0.97,-1.4 0.2,-1.16 0.14,-1.19 -0.67,-0.56 0.57,-0.92 2.15,-0.24 0.55,-0.29 0.68,0.24 0.32,-1.19 0.41,-0.16 0.47,-0.04 0.39,0.32 0.37,-0.24 1.26,0.22 0.48,-0.23 -0.38,-0.82 0.09,-0.81 -0.42,-1.03 0.03,-0.73 1.53,-1.04 -0.13,-0.24 0.71,-1.3 1.58,-1.71 0,0 0.79,-0.18 0.63,0.68 0.94,-0.58 0.61,0.39 0.63,-0.07 0.33,-0.35 0.97,1.68 1.23,-0.46 1.47,1.12 0.74,-0.56 1.3,0.26 1.33,-1.61 -0.55,-0.41 -0.04,-2.01 0.3,-1.71 0,0 1.39,0.66 1.13,-0.57 1.14,0.69 0.37,1.09 2.65,-0.27 0.82,0.28 0.56,0.46 -0.18,1.14 0.28,0.75 0.63,0.5 1.21,0.27 0.15,-0.16 -0.47,-0.39 1.58,0.06 0.13,-0.22 -0.03,-2.17 0.72,-0.27 0.69,0.18 0,0 0.38,1.28 0.71,0.43 0.05,1.28 0.44,0.75 0.55,6.03 0,3.31 -1.4,9.34 z m -3.43,3.16 0,0 0.03,0.01 -0.03,-0.01 z"
	/>
	<path
		id="gifu"
		name="Gifu"
		d="m 251.72993,266.75889 -0.72,-0.69 0.32,-0.21 0.02,-0.93 0.32,-0.52 0.04,-1.34 0.55,-0.44 -0.53,-0.85 0.09,-1 -0.63,-0.64 0.24,-0.89 -0.55,-0.71 -0.31,0.5 -0.78,-0.29 0.12,-1.6 -0.66,-0.07 -0.26,-1.07 0,0 0.98,-1.64 0.01,-0.97 0.9,-0.48 1.17,0.42 1.06,-0.01 0.3,0.51 0.56,-0.77 0.82,0.22 0.48,-0.44 0.52,0.17 0.46,-0.44 0.41,0.52 1.13,-0.49 1.35,0.02 0.17,-0.78 0.62,-0.46 -0.3,-1.22 -0.64,-0.52 0.12,-0.49 -0.79,-0.28 0.05,-0.53 -0.49,-0.37 0.24,-1.39 0.5,-0.37 -0.21,-0.49 0,0 0.5,-1.09 -0.23,-0.74 0.61,-0.23 0.94,-1.67 -0.04,-0.39 -0.76,-0.43 -0.25,-0.58 0,0 0.58,-0.08 0.29,-1.06 0.77,-0.56 0.25,0.59 0.35,-0.36 0.92,0.51 0.34,0.77 -0.26,0.73 0.34,0.08 1.39,-1.22 0.25,-1.15 2.08,-2.02 0.55,-0.02 0.25,0.44 1.46,-0.69 0.59,0.05 0.04,0.88 0.21,0.04 1.35,-0.8 0.28,0.78 1.13,0.35 0.71,-0.34 0.84,0.82 0.94,0.07 0,0 0.13,0.51 1.03,0.66 0.09,0.53 -0.09,0.78 -1.39,1.81 0.38,0.55 -0.05,0.52 -0.75,0.71 -0.01,0.81 0.46,0.5 0.72,0.25 -0.39,1.57 -1,0.76 -0.37,0.92 -0.44,0.1 -0.52,1.06 -0.42,0.07 -0.33,-0.33 -1.15,0.35 -0.35,1.06 -0.59,0.25 -0.11,0.54 0.29,0.39 1.04,0.01 0.05,0.51 1.23,0.37 0.8,1.79 0.78,0.7 -0.43,1.28 0.39,0.45 -0.07,1.1 0.31,0.55 1.07,-0.32 0.57,0.54 0,0.91 -0.65,0.7 0.71,0.98 -0.87,0.29 0.26,1.27 -0.84,0.65 0.01,0.53 0,0 -0.8,0.08 -1.72,1.4 -0.99,-0.49 0.02,-0.32 -0.84,-0.04 0.07,-0.24 -0.75,-0.48 -0.63,0.02 -0.92,0.73 -0.85,0.17 -0.52,-0.71 -0.94,-0.39 -0.3,0.21 -0.32,-0.15 -0.27,-0.32 0.09,-0.49 -0.49,-0.2 0.03,-0.65 -1.18,-0.87 0.02,-0.56 -1.49,1.12 -1.66,0.5 -1.27,-0.15 -1.69,2.98 -0.22,2.19 0,0 -1.08,-0.12 -1.69,-2.5 z"
	/>
	<path
		id="gunma"
		name="Gunma"
		d="m 315.66993,242.52889 -0.31,0.58 -0.49,0.18 -0.52,-0.48 -2.54,0.48 -1.81,-1.34 -0.86,0.21 -0.97,-0.29 -0.6,0.15 -1.69,-0.86 -0.7,-0.05 -1.23,1.97 -0.02,0.93 -0.42,0.76 -1.53,0.07 -0.46,0.78 -1.52,0.4 -0.92,1.01 -1.23,0.02 -0.75,1.01 0,0 -0.36,0.09 -0.36,-0.52 -0.61,-0.19 -0.38,-1.77 0.33,-0.35 -0.28,-0.67 -0.65,-0.08 -0.44,-0.76 0.16,-0.17 0.46,0.33 0.45,-0.48 0.03,-0.81 -0.42,-0.44 -0.23,-1.11 1.03,-0.68 0.07,-1.48 -0.29,-1.15 -0.83,-0.25 -0.7,0.1 -0.44,0.4 -0.88,-0.25 -0.21,0.31 -0.43,-0.07 -1.25,-0.74 -0.06,-1.3 0.6,-1.66 -0.02,-0.99 0.96,-1.18 0.96,-0.16 0.01,-1.09 1.79,-0.36 1.55,-0.83 0,0 0.25,0.17 0.36,-0.63 1.2,0.44 0.79,-0.67 -0.1,-1 0.64,0.03 1.49,-0.62 -0.25,-0.44 0.29,-0.95 0.85,0.11 0.09,-0.26 -0.27,-1.93 1.64,-0.28 0.82,-0.73 0.12,-0.95 1.54,1.55 0.11,0.76 0.92,0.07 0.23,0.34 0,0 0.01,0.37 0.52,-0.2 2.3,0.71 0,0 -0.58,1.54 1.02,0.44 -1.02,1.41 0.28,1.17 -0.59,0.89 -0.18,1.37 1.47,0.74 1.23,-0.07 0.34,0.68 -0.82,0.65 -0.4,1.2 0.33,0.76 -1.19,1.55 -0.18,0.96 1.05,0.78 -0.04,0.58 1.11,0.97 1.01,-0.29 0.71,0.43 1.11,-0.18 0.38,0.24 -0.09,0.28 z"
	/>
	<path
		id="hiroshima"
		name="Hiroshima"
		d="m 177.17993,290.93889 -0.78,-0.7 -1.45,1.75 0.31,0.9 0.76,-0.2 0.32,0.31 -0.15,0.21 -0.7,0.53 -0.28,-0.28 -1.54,0.26 -0.18,-0.59 1.14,-0.63 -0.25,-0.46 0.14,-0.63 0.53,-0.44 0.08,-0.97 -0.71,-1.73 0.15,-0.97 -1.31,-0.65 -2.28,1.04 -0.02,0.37 -1.73,1.61 -0.21,0.51 0.27,0.15 0,0 -0.33,0.19 -1.28,-0.31 -0.5,-1.46 0.08,-0.63 -0.92,-0.78 -0.24,-1.36 0.17,-0.81 -0.3,-0.68 0,0 -0.49,-0.63 0.3,-0.64 0.6,-0.18 0.63,-0.68 0.21,-1.78 0.7,-1.03 -0.55,-0.34 0.3,-0.48 1.45,-0.86 0.31,-1.14 0.79,0.11 0.4,0.48 0.21,-0.44 1.24,-0.13 0.52,0.42 0.51,-0.43 -0.07,-0.25 0.41,-0.14 0.25,0.41 1.63,0.13 1.47,-1.06 1.76,-0.14 -0.01,-0.87 -0.69,-0.21 -0.38,-0.47 0.85,-1 1.19,-0.25 2.4,-3.33 0.4,-0.07 1.15,0.7 0.79,-0.62 0.98,0.79 1.42,-0.42 0.58,0.22 0,0 0,0.26 2.1,-0.32 0.42,0.5 0,0 1.01,1.22 -0.46,1.21 -0.01,1.6 1.6,2 -0.29,1.12 0.41,1.9 -0.01,1.38 1.21,1.65 0.12,1.74 0,0 -0.45,1.24 -0.88,0.09 -0.04,0.9 -0.33,0.31 -2.4,-0.51 -0.04,-0.21 0.57,-0.19 -0.04,-0.6 -0.56,-0.21 0.07,0.43 -0.66,0.3 -1.65,0.67 -0.74,-0.09 -0.23,0.98 -1.26,0.39 -1.28,-0.21 -1.15,0.26 -0.35,0.57 -0.55,0.26 -0.25,-0.56 -0.71,0.08 -0.26,0.86 -0.45,-0.15 -0.04,0.98 -1.16,0.08 -1.31,0.85 z"
	/>
	<path
		id="hokkaido"
		name="Hokkaido"
		d="m 330.00993,71.568887 2.71,-2.13 0.04,-0.59 -1.96,-3.17 -1.38,-0.99 -0.7,-1.16 0.68,-2.54 -0.27,-0.48 1.64,0.11 0.6,-0.42 0.21,-0.54 0.53,-0.21 2.75,2.66 1.93,0.87 1.13,1.28 2.48,-0.47 0.17,-0.42 1.02,-0.32 0.72,0.02 -0.14,1.17 3.04,1.39 2.2,-1.22 1.97,-2.15 0.99,-1.6 0.1,-2.35 -1.38,-2.76 0.54,-1.94 -0.66,-1.44 -0.45,-2.27 1.02,-2.1 1.47,-0.89 0.76,-0.05 2.03,-1.32 0.93,-1.89 0.41,-1.95 -0.35,-7.86 0.5,-0.32 1.64,-3.44 0.21,-2.86 0.38,-0.79 0.13,-1.6 -0.3,-3.27 -0.77,-3.84 -3.04,-7.32 -0.31,-1.1600002 0.07,-0.99 0.86,-1.27 0.79,-1.95 -0.41,-1.4 0.15,-1.28 0.75,0.77 0.13,0.52 0.39,0.16 1.76,-0.28 1.35,-0.94 0.55,-1.99 0.87,-0.31 0.47,0.33 0.56,1.29 0.59,0.34 0.63,1.47 2.32,1.7 2.21,3.12 4.95,5.5600002 3.91,7.23 2.58,2.55 2.44,3.1 5.58,4.4 1.57,0.89 0.33,0.95 1.26,0.96 3.7,1.94 3.24,1.28 5.88,1.69 2.79,0.53 0.44,-0.31 0.29,0.77 -0.06,1.28 0.87,1.55 0.58,0.48 3.21,1.01 3.41,0.21 2.57,-0.32 2.28,-1.99 1.54,-1.92 2.18,-2.04 1.83,-1.26 0.66,-1.45 1.1,-1.16 0.78,-1.38 0.46,0.03 0.45,2.23 -1.21,2.49 -0.91,0.92 -0.6,2.4 -1.73,2.13 -0.94,2.12 0.1,0.83 -0.77,2.05 0.22,1.06 1.35,2.58 1.49,1.97 1.52,5.23 1.49,1.96 -1.16,-0.53 -0.19,-0.53 -1.14,-0.22 -0.24,0.37 0.21,1.26 0.86,-0.67 0.47,0.4 -0.29,0.55 0.37,0.39 0.4,-0.28 2.55,0.62 2.09,-1.7 0.32,-0.6 1.11,-0.71 0.24,-0.5 3.28,0.2 -0.19,0.5 -1.17,0.91 -1.73,0.31 -1.87,1.03 -0.8,2.93 -0.77,-0.36 -1.24,-0.05 -2.71,0.51 -1.51,0.9 -1.26,-0.21 -0.62,0.6 -0.14,1.15 -1.6,2.15 -1.02,0.49 -1.9,-0.1 -0.9,-0.79 0.03,-0.53 0.33,-0.31 -0.55,-0.37 -0.73,0.1 -1.19,1.73 -0.02,0.41 1.15,1.13 -2.01,-0.12 -1.15,-0.35 -3.58,-0.02 -0.69,-0.15 -1.58,-1.27 -3.06,0.54 -2.43,1.18 -3.4,2.53 -5.27,5.27 -4.08,5.8 -1.53,3.31 -0.28,1.67 0.55,1.44 -0.82,3.88 -0.91,1.53 0,1.61 -3.7,-3.72 -4.85,-2.02 -8.09,-4.45 -2.38,-1.67 -1.84,-2.05 -3.21,-0.94 -2.21,-2.05 -1.82,-1.2 -1.83,-0.53 -2.38,-0.04 -3.17,1.04 -2.08,1.29 -2.68,2.28 -1.59,0.89 -2.12,2.45 -0.34,0.75 -1.07,-0.4 -0.33,-0.55 0.38,-0.29 0.59,0.64 0.12,-0.81 -1.35,-0.41 -0.87,-2.37 -0.79,-0.4 -1.07,-1.12 -0.12,-0.58 -1.27,-1.23 -1.24,-0.09 -1.25,0.53 -0.97,-0.59 -1.21,0.03 -1.68,1.81 -1.44,2.75 -0.71,2.55 0.28,1.94 2.32,1.2 2.74,2.35 0.75,0.14 1.37,-0.53 2.04,0.31 1.23,2.21 1.63,1.22 1.08,1.88 3.15,1.36 0.55,0.890003 0.79,0.59 -0.61,0.61 -0.95,0.01 -1.1,1.3 -1.66,0.66 -0.86,-0.79 -2.78,-0.91 -0.93,0.16 -0.28,0.62 -0.41,0.1 -0.18,-0.61 0.68,-0.45 -0.2,-0.67 -0.59,-0.37 -0.86,0.08 -0.41,0.33 -0.43,1.68 -1.44,1.06 -1.29,0.1 -0.35,0.33 -0.31,3.94 -0.4,0.48 -0.94,0.03 -1.96,0.87 -0.9,1.89 -0.39,0.32 -1.02,-0.8 -1.14,0.22 -0.9,-0.71 -1.08,-2.72 -0.09,-0.86 0.41,-1.77 1.35,-3.03 0,-1.05 0.77,0.08 0.29,-0.59 0.31,-2.700003 -0.4,-1.98 -1.9,-2.94 -0.67,-0.36 -1.3,-0.12 -0.51,-1.33 -0.85,-0.88 -1.14,-0.41 -0.39,-0.73 -0.19,-1.39 0.31,-1.12 0.94,-1.03 0.33,-0.95 0.03,-2.65 -0.49,-2.23 0.92,-1.45 1.12,-0.62 2.28,-0.06 0.61,-0.91 1.39,-0.73 0.85,-1.92 0.82,0.57 0.56,0.97 0.89,-0.23 0.09,-1.39 0.82,-0.84 0.85,-1.71 z m 14.72,-61.43 -0.09,-1.2300002 1.28,-1.25 2.07,1.21 0.51,1.8100002 -1.81,1.49 -1.37,-1.07 -0.59,-0.96 z m -31.88,81.17 -0.29,2.22 -0.39,0.63 -0.65,0.23 -0.02,0.36 -0.61,-0.54 0.06,-1.71 -0.42,-1.11 0.74,-1.09 1.91,-0.38 0.46,-0.52 0.03,0.64 -0.82,1.27 z m 30.35,-86.7800002 -0.26,2.59 -0.39,0.13 -0.88,-2.97 0.22,-1.31 -0.61,-0.34 0.09,-0.73 0.65,0.85 0.66,-0.15 -0.02,-0.59 0.34,0.27 0.35,0.78 -0.15,1.47 z"
	/>
	<path
		id="hyogo"
		name="Hyogo"
		d="m 213.21993,277.54889 -1.09,0.9 -1.21,-0.22 0,0 -0.54,-1.37 -1.08,-0.96 -0.18,-0.47 0.7,-1.31 -0.68,-0.85 0.35,-0.32 0.15,-0.91 -0.2,-0.59 0.92,-0.54 0.06,-0.93 0.59,-0.25 0.24,-1.1 0.24,-0.26 0.67,0.07 0.08,-0.78 -0.63,-0.66 0.44,-0.8 0,0 0.58,0.26 1.64,-1.15 -0.26,-1.16 0.15,-0.43 -0.73,-0.96 0.09,-1.08 -0.73,-0.34 -0.49,-1.88 0.12,-1.02 -0.38,-0.77 -0.69,-0.52 0,0 2.13,-0.66 1.22,-0.74 1.2,0.31 0.42,0.47 0.82,-0.67 1.38,0.2 1.28,-0.29 0.45,0.33 0.98,-0.06 0,0 0.02,2.02 0.86,0.8 0.21,0.61 0.72,0.18 1.33,-0.66 0.32,0.54 0,2.63 -0.91,0.52 -1.14,-0.55 -0.37,1 0.02,1.27 1.49,0.61 1.32,1.13 0.76,-0.46 1.02,0.02 0.02,0.78 0.86,0.82 -0.25,0.55 0.55,0.24 0.43,-0.36 0.81,0.04 0.22,0.06 0.04,0.73 0.85,-0.18 0.97,0.49 0.29,1.26 -0.38,0.21 -0.17,0.54 0,0 -0.43,-0.05 -0.29,0.31 0.4,0.24 0.08,0.97 -0.24,0.36 1.4,0.81 0.96,0.14 -0.91,0.51 0.43,0.25 -0.47,2.04 0.74,1.24 0.15,1.43 -0.54,1.21 0,0 -0.44,-0.33 0.14,-0.47 -0.25,-0.52 -0.92,0.32 -0.42,-0.6 -0.97,-0.13 -1.98,0.94 -0.1,0.68 -2.58,0.64 -4.27,-1.72 -1.67,-1.65 -5.72,0.05 z m 9.4,11.08 0.22,0.77 -2.06,0.84 -0.98,0.82 -1.34,0.19 -0.01,-0.45 -0.59,-0.31 0.06,-0.5 -0.43,-0.16 -0.54,-1.01 0.67,-0.96 0.38,0.24 0.47,-0.24 1.33,-2.82 0.4,-0.46 0.41,0.01 0.95,-1.5 0.95,-0.43 0.77,-1.12 0.55,-0.29 0.44,0.83 -0.6,0.72 -0.15,0.77 -1.78,2.33 -0.01,1.54 0.89,1.19 z"
	/>
	<path
		id="ibaraki"
		name="Ibaraki"
		d="m 333.51993,240.30889 -0.1,2.12 0.89,3.27 2.68,5.5 1.63,2.49 0.82,0.47 0.04,0.45 0,0 -2.5,-1.54 -1.11,-1.53 -1.23,-0.26 -1.13,-0.97 -0.91,0.04 -1.08,-0.52 -2.01,0.52 -0.86,0.82 -0.8,-0.23 -0.59,0.4 -0.86,-0.11 -1.02,0.41 -0.58,-0.72 -2.46,-0.86 -1.04,-0.7 -0.2,-0.71 -0.72,-0.24 -1.63,-2.01 -0.33,-0.84 -0.42,-0.03 0,0 -0.39,0.35 -0.39,-0.1 -0.87,-1.96 0.17,-0.89 0,0 0.73,-0.06 1.65,-0.87 0.55,-1.69 1.13,0.28 0.12,-0.88 1,-0.47 0.13,-0.45 1.56,-0.08 0.26,-0.13 0.05,-0.52 0.67,0.24 0.41,-0.46 0.44,-0.02 0.28,0.39 0.67,-0.21 0.21,-1.17 0.92,-1.85 -0.02,-1.81 -0.57,-1.95 0.28,-0.38 0.95,-0.21 0.1,-0.31 -0.63,-1 0.22,-1.3 -0.28,-0.99 0.09,-1.99 0,0 0.55,0.03 0.76,1.02 0.82,0.25 0.33,1.16 1.14,0.42 0.43,0.57 1.46,-1.4 1.12,-0.49 -0.46,-1.3 0.34,-0.46 0.57,1.03 3.43,1.04 0,0 0.04,0.02 0,0 0.03,0.01 0,0 0.18,0.64 -0.63,0.17 -0.49,0.95 -1.18,4 -0.7,1.17 -0.78,2.27 0.16,2.88 -1.04,1.29 z"
	/>
	<path
		id="ishikawa"
		name="Ishikawa"
		d="m 257.72993,221.14889 -0.06,-1.29 -0.32,-0.14 -0.36,0.34 -0.3,-0.28 0.61,-2.33 0.4,-0.35 0,-1.67 0.35,-0.38 1.44,-1.17 1.13,-0.51 1.13,0.28 2.9,-1.48 0.42,-0.58 0.98,-0.48 1.27,-0.17 1.32,-0.71 1.03,0.13 0.47,0.66 -0.24,0.47 0.41,0.81 -0.61,0.29 -1.01,-0.04 -0.53,0.36 -0.28,1.17 0.6,1.05 -0.66,0.98 -1.79,-0.05 -0.89,0.5 -0.57,1.49 -1.16,0.86 -0.56,-0.53 -0.49,-0.08 0.17,-0.61 -0.35,0 -1.46,2.17 0.54,0.23 -0.17,0.62 -0.51,0.12 0.12,0.43 -0.26,0.39 0.56,0.09 0.56,-0.57 1.13,1.11 0.75,-0.65 0.2,-0.68 0.56,0 0.04,3.49 0,0 -1.24,-0.1 -0.72,0.26 -1.4,1.37 -0.6,3.49 -0.55,0.65 -0.16,0.98 0.23,0.46 -0.76,1.23 0.19,1.13 0.46,0.58 -0.75,2.96 0.45,1.88 -0.32,0.42 0.14,0.88 0,0 0.25,0.58 0.76,0.43 0.04,0.39 -0.94,1.68 -0.6,0.23 0.22,0.73 -0.5,1.09 0,0 -1.89,0.48 -0.24,-0.62 -1.86,-1.46 -1.75,0.42 -0.47,-0.05 -0.65,-0.76 -0.9,0.13 -0.41,-0.38 -0.25,-1.25 -1.68,-1.59 0,0 1.1,-1.4 0.92,-0.32 1.41,-1.36 4.47,-6.03 1.09,-1.97 1.33,-3.8 0.04,-2.3 -0.95,-1.48 -0.02,-0.87 z"
	/>
	<path
		id="iwate"
		name="Iwate"
		d="m 359.85993,166.19889 0.42,0.16 0.05,0.45 -0.83,-0.04 0.53,0.53 0.5,-0.01 0.33,0.68 -1.03,0.43 -0.73,-0.03 0.01,0.36 0.49,0.27 0.55,-0.12 0.01,0.24 -0.66,0.53 -0.74,-0.03 -0.26,0.27 1.67,1.04 -0.86,0.3 -1.26,-0.53 0.21,0.97 1.02,0.26 -1.22,0.18 0.74,0.57 -0.27,0.28 -1.09,-0.08 -0.47,0.25 -0.42,-0.47 0.04,-0.57 -0.35,-0.17 0.06,0.61 -0.3,0.44 0.69,0.86 -0.43,0.06 0.11,0.91 -0.47,0.34 -0.72,-0.96 0.25,-0.53 -0.2,-0.19 -0.92,0.09 0.16,0.75 0,0 -1.17,-0.49 -1.44,-0.13 -0.24,0.52 0.11,1.78 -0.68,0.7 0.1,0.51 -0.5,1.94 -2.45,-1 -0.9,0.87 -0.17,0.7 -0.52,0.18 -1.77,-1.01 -0.47,-1.09 0.59,-0.55 -0.25,-0.5 -0.72,-0.2 -2.21,0.25 -0.55,-0.81 -1.44,-0.48 -1.22,-0.91 -0.95,0.14 0,0 -0.08,-1.15 0.79,-1.37 -0.14,-0.4 -0.97,-0.38 0.28,-0.97 -0.27,-0.22 0.47,-0.83 0.6,-0.3 -0.85,-0.44 0.33,-1.06 -1.12,-0.77 -0.53,-0.75 0.15,-0.92 -0.6,-1.25 -0.39,-0.09 0.05,-0.65 0.45,-0.12 -0.05,-0.81 0.78,-0.85 0.43,-1.34 -0.21,-0.72 0.42,-0.11 0.61,-0.86 0.27,0.03 0.51,-1.19 -0.13,-1.08 -0.66,-1.17 0.39,-0.14 0.82,-1.47 -1.12,-0.66 -0.07,-1.06 0.82,-0.45 0.49,0.48 0.56,-0.18 -0.62,-2.5 0.05,-2.68 0.52,-0.46 0.15,-1.56 -0.4,-0.49 0.81,-1.11 0.61,-0.22 0.4,-0.57 0,0 0.46,0.68 0.94,0.01 1,-0.78 0.46,-0.02 0.04,-0.72 0.74,-0.5 1.52,-0.38 1.96,-1.49 0.68,1.08 1.72,-1.1 0.68,-0.09 1.24,0.77 0.89,-0.69 0.11,-0.83 1.39,-0.62 0.47,-0.54 0,0 1.37,2.04 1.54,3.46 -0.98,1.08 1.39,0.6 0.46,0.64 -0.12,0.25 -0.49,0.01 -0.36,0.54 0.11,0.98 0.33,0.48 0.51,0.17 0.49,0.89 0.69,0.12 0.4,0.7 -0.32,1.6 0.72,1.21 0.23,2.98 -0.42,1.69 0.44,0.07 -0.85,2.57 0.25,0 1.33,-1.8 0.02,2.02 0.6,0.08 0.29,0.7 -0.15,0.36 -0.62,0.08 -0.86,1.17 -0.7,0.25 0.43,0.88 1.16,-1.13 0.31,-0.05 0.2,0.37 -0.43,1.33 -1.12,0.26 -0.89,0.6 -0.81,1.19 0.34,0.35 0.79,-0.42 0.44,0.54 -1.7,0.29 0.37,0.39 z"
	/>
	<path
		id="kagawa"
		name="Kagawa"
		d="m 199.67993,288.81889 2.14,-1.22 0.18,-0.96 2.08,0.7 1.61,0.07 1.07,-1.2 0.53,0.38 -0.19,0.96 0.18,0.37 0.36,0.06 0.13,-0.4 0.45,-0.09 1.11,0.23 -0.01,0.41 -0.39,0.31 0.19,0.48 1.13,0.26 0.82,0.63 0.39,-0.06 1.37,1.05 0,0 -0.16,0.96 -0.42,0.22 -1.09,-0.58 -0.28,0.3 -1.63,-0.26 -1.7,0.18 -0.74,0.58 0.06,0.42 -0.32,0.34 -1.24,0.14 -1.17,0.91 -0.47,0 -0.86,-0.97 -1.38,0.25 -0.76,0.29 -0.28,0.5 -0.58,-0.19 -1,0.84 -0.14,0.51 -0.62,0.22 0,0 -1.88,-0.74 0.69,-0.5 0.33,-3.08 -1.51,-1.21 0.07,-0.33 0.31,-0.09 1.59,0.8 0.55,-0.17 1.48,-1.32 z"
	/>
	<path
		id="kagoshima"
		name="Kagoshima"
		d="m 130.42993,355.81889 1.13,-1.89 0.27,-2.34 -0.2,-1.07 -3.09,-3.19 1.13,-2.7 -0.18,-1.09 -0.73,-1.4 0.57,-1.08 -0.72,-0.58 0.21,-0.54 0.84,-0.43 0.52,0.01 0.68,0.46 1.08,-0.1 0.44,-0.96 0,0 0.54,0.26 0.32,0.62 1.04,0.16 0.6,-0.55 0.84,0.01 0.91,-0.41 0.54,-0.76 0.4,0.71 0.57,0.13 0.26,0.49 1.25,0.65 0,0 -0.48,1 0.65,0.23 0.82,0.79 0.42,1.42 1.08,0.35 0.74,0.85 -0.12,1.26 -0.2,0.07 0.17,0.88 0.65,0.1 0.3,0.36 1.08,0.13 -0.18,0.61 0.79,0.19 0.16,1.57 0.55,0.97 0.5,-0.58 0.71,0.64 0.96,-0.11 0.47,0.29 0.3,0.92 -0.25,0.62 0.19,0.84 -0.62,0.66 -0.12,0.72 0,0 -1.17,-0.42 -0.99,0.78 -0.7,1.09 -0.08,0.8 1.77,0.61 0.02,0.43 -0.65,0.71 0.18,0.18 0.79,-0.28 0.12,0.25 -1.27,1.13 -1.01,0.03 -0.21,0.84 -0.79,1.17 -1.76,0.98 -1.44,0.25 -2.74,2.05 0.36,-1.36 -0.51,-0.4 1.8,-1.39 0.44,-1.12 -0.25,-0.72 0.7,-0.89 0.27,-1.93 -0.94,-2.06 -0.46,-0.6 -0.67,-0.28 0.11,-1.94 -1.35,0.03 -0.87,-0.82 0.68,-0.91 1.05,-0.2 0.74,0.62 -0.11,0.83 1.06,0.09 1.13,-2.06 -0.49,-1.1 -2.67,-0.78 -0.84,0.67 -0.22,1.19 -0.93,1.34 0.15,0.54 -0.7,1.47 -0.24,-0.03 -0.16,0.98 0.26,1.32 0.8,2.06 1.07,0.98 0.89,0.23 -0.52,1.76 -1.03,0.74 -0.62,-0.49 -0.76,0.29 -0.24,-0.29 0.06,-0.82 -0.96,-0.85 -2.12,0.02 -0.86,-0.37 -1.86,0.41 -0.18,-1.48 -0.64,-0.23 0.72,-0.55 -1.54,-1.48 0.54,-0.66 0.26,0.48 1.03,0.51 0.76,-0.54 z m 4.64,21.96 1.42,0.63 -0.06,0.33 1.37,0.37 0.67,0.63 -0.38,1.76 -1.31,1.32 -1.24,0.3 -1.69,-0.28 -0.26,-0.79 -0.22,0.18 0.01,-0.69 -0.45,-0.58 -0.27,-1.14 0.04,-0.47 0.94,-0.08 0.74,-0.91 0.01,-0.47 0.55,0.09 0.11,-0.37 0.02,0.17 z m 8.86,-2.67 -0.18,-2.06 0.82,-1.3 0.3,0.01 0.15,-1.34 1.06,-1.27 0.51,1.14 -0.24,0.56 0.16,1.58 -0.51,0.72 0.08,1.15 -0.48,0.63 0.04,0.47 -0.69,0.42 -0.74,1.52 0.14,0.28 -0.22,0.25 0.43,0.52 -0.23,0.47 0.27,0.35 -0.33,0.12 -0.01,0.46 -0.81,-0.01 -1,0.68 -0.3,-0.58 0.17,-0.88 -0.34,-1.35 0.48,0.01 1.47,-2.55 z m -24.13,-24.35 -0.77,0.47 -0.41,-0.29 -0.13,-0.56 0.37,-0.21 0.39,-1.12 1.32,-0.49 0.43,-1.24 0.36,0.17 -0.05,0.49 -0.63,1.15 -0.6,0.18 0.11,0.41 -0.38,0.41 0.26,0.32 -0.27,0.31 z m 2.16,-4.5 -0.32,-0.56 0.35,-0.47 0.54,0.08 0.38,0.49 0.85,-0.19 0.12,0.38 -0.03,0.6 -0.91,0.3 -0.51,-0.27 0.08,-0.33 -0.4,-0.33 -0.15,0.3 z m 7.82,31.36 0.69,0.49 -0.01,0.26 -0.4,-0.07 -0.67,0.39 -0.38,-0.45 0.08,-0.48 -0.5,0.13 -0.53,-0.75 1.72,0.48 z"
	/>
	<path
		id="kanagawa"
		name="Kanagawa"
		d="m 301.02993,262.33889 0.41,-1.13 1.79,-0.83 0.46,-0.65 0.71,-0.1 0.49,-0.52 0.34,-0.7 0.02,-2.61 0,0 0.6,0.13 0.46,0.55 0.61,-0.03 0.59,0.99 0.86,-0.16 2.17,0.71 1.35,1.89 0.3,-0.03 0.19,-2.02 -0.79,-0.62 0.22,-0.23 0.49,0.47 0.76,-0.91 2.68,1.27 0.33,0.67 0.48,0.23 0.01,0.38 0,0 0.64,-0.19 0,0 0.01,0 0,0 0.03,0 0,0 0.02,0 0,0 0.42,0.73 -1.49,0.78 -0.74,-0.06 -0.41,0.41 0.38,0.45 0.4,-0.12 0.4,0.29 -0.41,0.88 -0.35,-0.25 -0.47,0.08 -0.1,0.39 0.49,0.26 0.27,1.32 -0.34,0.7 0.96,0.78 1.07,0.23 -0.43,1.06 -0.71,0.09 -0.65,0.55 0.12,0.59 0.34,0.09 -0.04,0.43 -1.34,-0.03 0.15,-1.18 -0.33,-1.18 -0.63,-0.68 0.06,-0.63 -2.54,-0.62 -2.45,0.34 -2.12,0.66 -1.16,0.93 -0.17,2.09 -0.64,0.35 0,0 -1.52,-0.21 -0.13,-0.68 -0.7,-0.54 -0.24,-1.51 0.57,-0.63 0.27,-0.96 -0.34,-1.53 -0.15,-0.24 -1.53,0.01 z"
	/>
	<path
		id="kochi"
		name="Kochi"
		d="m 186.50993,317.65889 -0.24,1.03 -1.01,-0.35 -0.6,0.44 -0.44,1.59 0.34,1.66 -1.14,0.48 -0.02,1.1 1.03,0.63 0.33,1.48 -0.31,0.05 -1.68,-1.5 -0.77,-0.11 -0.35,0 -1.21,1.04 -0.59,-0.36 -0.28,0.2 -0.91,-1.06 -1.59,0.88 -0.09,-0.84 0.68,-1.01 -0.05,-0.36 1.16,-1.26 -0.24,-0.38 -0.83,0.07 0.05,-0.38 0.41,-0.1 0.01,-1.33 -0.51,-1.25 0.2,-0.92 -0.76,-0.86 -0.27,-0.88 0.34,-0.37 1.05,1.18 0.19,-0.07 0.85,-1.38 0.6,-0.17 0.49,-1.66 1.21,-0.42 0.89,-0.67 -0.04,-0.57 -0.71,-0.51 -1.08,-2.18 0.73,-0.41 2.17,0.26 1.2,-0.34 0.94,-1.42 -0.32,-0.8 0.62,-1.84 0.83,-0.38 0.06,-0.55 0.75,-0.9 0.65,-1.48 0.54,0.33 0.52,-0.19 0.59,-1.01 4.34,0.04 0.97,-1.2 0.71,0.3 0.47,-0.33 1.06,0 0,0 0.37,0.54 1.34,0.52 1.81,-0.17 0.65,0.9 0.79,0.32 0.61,-0.2 0.42,-0.81 0.39,-0.13 0.25,0.46 0.7,-0.17 0.51,1.26 0.1,2 1.97,0.05 0.23,0.8 -0.47,0.54 0.1,0.47 0.78,1.19 2.11,0.22 0,0 -1.88,3.58 -0.65,3.57 -0.74,-1.21 -0.61,0 -0.12,-0.73 -0.98,-1 -0.43,-1.03 -1.41,-0.68 -0.51,-1.08 -3.23,-0.6 -0.45,-0.55 -3.15,0.5 -0.25,0.47 -2.33,1.17 0.02,0.64 -2.19,0.41 -0.55,1.07 -0.25,-0.58 -0.92,0.3 0.08,0.62 -0.27,0.28 0.21,0.44 -0.34,0.8 0.34,-0.09 0.07,0.53 -0.33,0.19 0.19,0.56 -0.9,0.94 0.25,0.73 -0.24,0.15 -0.07,-0.4 -0.44,0.03 -1.52,2.22 z"
	/>
	<path
		id="kumamoto"
		name="Kumamoto"
		d="m 139.62993,340.21889 -1.25,-0.65 -0.26,-0.49 -0.57,-0.13 -0.4,-0.71 -0.54,0.76 -0.91,0.41 -0.84,-0.01 -0.6,0.55 -1.04,-0.16 -0.32,-0.62 -0.54,-0.26 0,0 0.18,-1.08 1.04,-1.13 1.25,-2.63 1.66,-1.67 -0.12,-0.96 -0.38,-0.03 -0.07,-0.45 0.67,0.03 0.13,-0.22 -0.9,-0.55 2.44,-2.42 -0.23,-0.2 -1.11,0.46 -2.62,0.1 0.01,-0.38 2.72,-1.83 -0.02,-1.52 0.23,-0.35 -0.85,-1.16 -0.77,-0.18 -0.13,-0.75 -1.46,-0.68 -0.32,-1.75 -0.57,-0.48 0,0 2.14,0.08 -0.18,-1.07 1.62,-1.49 1.5,0.17 0.53,-1.44 0.16,0.4 0.81,-0.04 0.67,0.61 1.53,0.52 0,0 -0.01,0.29 0.87,0.17 0.6,0.79 0.63,0.05 0.4,0.63 0.38,0.01 0.49,-0.63 0.18,-0.85 -0.83,-1.21 0.13,-0.74 1.02,-0.56 1.41,0.26 1.04,1.09 0.19,1.17 0.86,0.78 0.59,1.62 0.21,2.27 1.4,1.27 0,0 -1.26,0.16 -0.56,1 -0.03,0.9 -0.97,0.64 -0.2,0.93 -0.59,0 -0.36,0.54 -0.25,1.41 -0.46,0.34 -0.71,-0.21 -0.29,0.72 -0.4,0.17 -0.25,1.38 0.25,1.13 0.42,0.68 0.44,0.09 0.19,1.15 0.76,0.68 -0.63,1.03 -0.56,0.03 -0.2,0.59 1.15,1.34 0.17,0.91 -0.88,0.11 -1.11,-0.36 -0.7,1.19 -0.4,0.13 -0.85,-0.35 -1,0.71 -2.57,-0.05 z m -6.02,-9.78 0.47,-0.07 -0.23,1.28 -0.54,0.76 0.28,0.09 -0.56,0.85 -0.83,0.38 -1.19,-0.52 -0.9,0.08 -0.06,-0.38 -0.51,-0.17 -0.39,0.4 0.5,0.4 0.05,0.44 -0.43,0.99 -1.86,1.35 -0.23,0.86 -1.06,0.71 0.05,0.96 -0.47,0.17 -0.66,-1.1 0.25,-0.87 -0.73,-0.21 0.65,-1.42 -0.44,-0.58 -0.02,-0.72 1.19,-2.41 0.18,-1.13 1.39,-0.65 1.41,-0.15 0.24,0.28 -0.15,0.92 0.26,1.03 1.62,-0.81 0.6,-0.72 0.87,-0.27 0.57,0.37 0.68,-0.14 z m -5.17,7.12 -0.08,-0.71 0.58,-0.59 -0.22,0.96 0.66,1.7 -0.46,0.28 -0.47,1.24 -1.02,-0.82 0.08,-0.75 -0.34,-0.36 0.14,-0.87 1.13,-0.08 z m 5.67,-7.95 -0.53,0.27 -0.36,-0.16 -0.22,-0.87 0.96,-0.89 0.33,0.88 -0.32,0.42 0.14,0.35 z"
	/>
	<path
		id="kyoto"
		name="Kyoto"
		d="m 231.14993,270.89889 0.17,-0.53 0.37,-0.21 -0.29,-1.26 -0.97,-0.49 -0.86,0.18 -0.04,-0.74 -0.22,-0.06 -0.81,-0.04 -0.42,0.36 -0.56,-0.24 0.25,-0.55 -0.86,-0.83 -0.02,-0.77 -1.02,-0.03 -0.77,0.47 -1.32,-1.14 -1.49,-0.61 -0.02,-1.26 0.37,-1 1.14,0.55 0.91,-0.52 0.01,-2.63 -0.33,-0.54 -1.33,0.66 -0.72,-0.18 -0.21,-0.61 -0.86,-0.8 -0.02,-2.02 0,0 0.26,0.3 0.97,-0.02 0.59,-0.3 0.45,-0.78 0.81,0.06 1.92,-1.35 1.89,-0.6 1.08,0.68 0.66,1.2 -1.07,1.01 -0.19,0.74 -1.09,1.32 0.06,0.6 0.3,-0.01 0.59,-0.97 0.61,0.34 0.13,0.17 -0.64,0.55 1.35,0.61 0.25,-0.33 0.14,1.38 0.48,-0.48 0.84,0.21 0.05,-0.51 -1.26,-0.79 0.85,-0.68 0.93,-0.11 0.15,-0.58 0.35,-0.01 0.01,0.57 0.41,0.25 0,0 -0.41,0.89 0.52,0.42 -0.29,1.01 1.31,1.21 0.13,0.87 1.73,0.19 1.5,0.59 1.37,-0.26 0,0 1.18,1.84 0.42,-0.01 -0.38,1.44 0.43,2.11 -0.31,1.74 -0.34,0.25 0.29,1.17 0.89,1.51 -0.24,1.07 0.71,0.47 0.73,-0.38 0.13,0.88 0.31,-0.05 0.3,0.37 0.4,-0.15 0.61,0.6 -0.26,0.26 0.15,0.41 0,0 0.45,1.2 0,0 -0.34,0.75 -0.58,-0.08 -0.49,-0.67 -0.99,-0.01 0.08,-0.36 -0.74,1.13 -0.73,0.08 -1.92,-0.52 -0.52,-1.22 0,0 0.28,-0.62 -1.02,-1.15 -0.31,-1.06 -1.24,-1.15 0,-0.62 -0.75,-0.02 -0.26,0.68 0.38,0.42 -0.79,0.26 -0.69,-0.73 -0.25,0.11 -0.07,-1.16 -2.16,-0.6 z"
	/>
	<path
		id="mie"
		name="Mie"
		d="m 257.23993,288.86889 -0.19,0.13 0.66,-1.2 -0.57,-0.33 -0.66,1.41 -1.1,0.74 -0.37,0.05 -0.27,-0.79 -0.28,0.09 -0.23,0.84 -0.09,-0.69 -0.7,-0.01 0.28,0.94 -0.22,0.24 -2.95,0.72 -0.41,-0.11 -0.64,0.55 -0.55,1.01 0.35,0.61 0.42,-0.06 -0.35,0.69 -0.61,0.1 -0.37,-0.54 -0.41,0.11 0.18,0.32 -0.7,0.24 0.18,0.32 0.68,-0.1 0.01,0.68 0.72,0.37 -0.17,1.2 -0.66,0.09 -0.78,1.13 -0.94,0.18 -0.41,0.66 -0.61,-0.03 -1.06,1.88 -0.72,2 0,0 -1.29,-0.27 -1.7,-1.94 0.07,-1.92 0,0 1.1,-1.72 1.21,-0.39 0.83,-1.12 1.62,0.25 -0.14,-1.33 0.24,-0.27 0.12,-1.75 -0.37,-0.68 0.73,-1.36 -0.69,-1.15 0.67,-0.36 -1.16,-1.85 0.5,-0.95 2.18,-0.32 0.39,-0.94 -0.29,-0.96 -0.65,0.26 -0.46,-1.01 -0.82,0.27 -1.04,-0.51 -0.26,-0.41 0.44,-1 -0.05,-0.6 0.38,-0.52 -0.8,-1.57 0,0 -0.45,-1.21 0,0 1.34,-0.55 -0.07,-0.51 0.77,-0.63 -0.08,-0.25 -0.62,-0.05 -0.07,-0.25 0.47,-0.39 0.32,0.38 1.02,-0.02 1.34,0.66 2.33,-1.13 0.21,-0.92 0.79,-1.1 0.04,-1.38 0.73,-2.5 -0.71,-0.73 -0.08,-0.85 0,0 0,0 0,0 2.21,-0.95 1.7,2.49 1.08,0.12 0,0 0.32,1.21 0.97,1.57 0,0 -0.76,0.2 -0.92,0.69 -0.36,1.02 0.26,1.12 -1.93,2.95 -0.56,1.63 0.06,0.66 0.67,0.29 -0.38,1.33 2.1,0.61 0.28,0.68 1.28,0.47 1.08,0.81 1.18,0.03 0.22,0.65 0.56,0.13 -0.21,0.28 0.16,0.28 0.71,-0.13 0.28,0.29 0.08,0.73 -1.13,0.67 0.11,0.33 0.63,0.14 -0.63,0.71 0.29,0.47 -0.46,1.27 -0.97,0.27 -1.37,-0.47 1.08,-0.16 0.54,0.27 0.07,-0.65 -0.48,-0.12 -0.27,0.2 -1.46,-0.34 -0.53,0.36 z"
	/>
	<path
		id="miyagi"
		name="Miyagi"
		d="m 343.28993,189.88889 -0.41,0.71 0.32,0.25 0.34,-0.15 0.18,0.65 -1.26,0.75 -1.71,3.62 -0.4,3.7 0.32,1.95 0,0 -0.69,-0.18 -0.72,0.27 0.03,2.17 -0.13,0.22 -1.58,-0.06 0.47,0.39 -0.15,0.16 -1.21,-0.27 -0.63,-0.5 -0.28,-0.75 0.18,-1.14 -0.56,-0.46 -0.82,-0.28 -2.65,0.27 -0.37,-1.09 -1.14,-0.69 -1.13,0.57 -1.39,-0.66 0,0 -0.06,-1.98 1.72,-0.01 0.99,-0.55 0.19,-1.02 1.11,-1.58 -0.23,-1.23 0.16,-1.02 1.05,-1.32 -0.16,-0.6 1.09,-1.14 0.61,-1.6 -0.2,-0.7 -0.6,-0.39 -0.27,-0.91 0.38,-0.65 -0.03,-0.54 -0.61,-1.37 0.1,-0.23 0.66,0.35 0.4,-0.1 0.43,-1.15 -0.22,-0.97 0.68,-1.1 -0.83,-0.45 -0.19,-1.06 -1.06,-1.02 0.23,-0.35 0,0 0.27,0.18 1.76,-0.36 1.64,-1.57 0.71,-0.17 0,0 0.95,-0.14 1.22,0.91 1.44,0.48 0.55,0.81 2.21,-0.25 0.72,0.2 0.25,0.5 -0.59,0.55 0.47,1.09 1.77,1.01 0.52,-0.18 0.17,-0.7 0.9,-0.87 2.45,1 0.5,-1.94 -0.1,-0.51 0.68,-0.7 -0.11,-1.78 0.24,-0.52 1.44,0.13 1.17,0.49 0,0 0.85,2.85 -0.38,-0.12 -0.51,-0.82 -0.69,0.2 -0.09,1.67 -1.36,0.84 -0.15,0.56 1.02,0.68 -0.05,1.21 -0.71,-0.64 -1.01,0.94 -0.6,0.18 -0.03,0.72 1.72,0.21 -0.12,0.68 -0.72,0.64 -0.47,0.05 0.03,0.49 0.45,0.2 0.16,0.54 0.48,-0.17 0.61,0.36 -0.29,0.95 -0.47,-0.65 -0.36,0.11 0,1.65 -0.93,-0.02 0.36,0.32 0.12,0.94 1.33,-0.16 0.03,0.29 -0.66,0.12 0.69,1.8 -0.34,0.98 -1.46,-1.06 0.26,-0.52 -0.93,-0.27 0.26,-0.45 0.57,-0.22 -0.54,-0.64 -1.13,0.38 -0.17,-0.66 -0.27,-0.11 -0.97,-0.06 -1.56,0.45 -1.25,0.84 0.12,0.92 -0.54,0.17 -0.07,-1.38 -0.92,-0.12 -0.51,0.31 0.02,0.4 z"
	/>
	<path
		id="miyazaki"
		name="Miyazaki"
		d="m 154.90993,341.45889 -1,3.38 -0.15,1.45 0.83,1.17 -0.56,1.56 0.06,2.02 -0.79,0.46 -0.9,2.09 0.24,0.8 -0.55,0.34 0.19,0.96 -0.78,0.73 0.34,0.71 -0.51,0.03 -0.52,-0.46 -0.88,0.08 -0.68,-1.51 -1.05,-0.26 0,0 0.12,-0.72 0.62,-0.66 -0.19,-0.84 0.25,-0.62 -0.3,-0.92 -0.47,-0.29 -0.96,0.11 -0.71,-0.64 -0.5,0.58 -0.55,-0.97 -0.16,-1.57 -0.79,-0.19 0.18,-0.61 -1.08,-0.13 -0.3,-0.36 -0.65,-0.1 -0.17,-0.88 0.2,-0.07 0.12,-1.26 -0.74,-0.85 -1.08,-0.35 -0.42,-1.42 -0.82,-0.79 -0.65,-0.23 0.48,-1 0,0 2.57,0.05 1,-0.71 0.85,0.35 0.4,-0.13 0.7,-1.19 1.11,0.36 0.88,-0.11 -0.17,-0.91 -1.15,-1.34 0.2,-0.59 0.56,-0.03 0.63,-1.03 -0.76,-0.68 -0.19,-1.15 -0.44,-0.09 -0.42,-0.68 -0.25,-1.13 0.25,-1.38 0.4,-0.17 0.29,-0.72 0.71,0.21 0.46,-0.34 0.25,-1.41 0.36,-0.54 0.59,0 0.2,-0.93 0.97,-0.64 0.03,-0.9 0.56,-1 1.26,-0.16 0,0 0.48,0.58 0.38,0.01 2.02,-0.7 0.83,0.86 -0.18,0.47 0.19,0.29 0.9,0.3 0.52,-0.44 2.23,0.02 0.49,-0.58 0.15,-0.74 0.8,-0.15 1.64,0.62 -0.26,1.56 0.56,0.01 0,0 -0.23,0.52 -1.56,0.97 -0.59,1.67 -1.08,0.53 -0.4,0.87 0.23,0.63 0.73,0.53 -0.66,0.54 -0.9,0.17 0.19,0.55 0.59,0.35 -0.92,0.36 -1.17,2.78 -1.55,5.64 z"
	/>
	<path
		id="nagano"
		name="Nagano"
		d="m 274.32993,265.08889 -0.01,-0.53 0.84,-0.65 -0.26,-1.27 0.87,-0.29 -0.71,-0.98 0.65,-0.7 0,-0.91 -0.57,-0.54 -1.07,0.32 -0.31,-0.55 0.07,-1.1 -0.39,-0.45 0.43,-1.28 -0.78,-0.7 -0.8,-1.79 -1.23,-0.37 -0.05,-0.51 -1.04,-0.01 -0.29,-0.39 0.11,-0.54 0.59,-0.25 0.35,-1.06 1.15,-0.35 0.33,0.33 0.42,-0.07 0.52,-1.06 0.44,-0.1 0.37,-0.92 1,-0.76 0.39,-1.57 -0.72,-0.25 -0.46,-0.5 0.01,-0.81 0.75,-0.71 0.05,-0.52 -0.38,-0.55 1.39,-1.81 0.09,-0.78 -0.09,-0.53 -1.03,-0.66 -0.13,-0.51 0,0 0.9,-0.86 0.42,-0.81 -0.02,-0.75 0.39,-0.53 0.61,-0.17 -0.12,-0.49 -0.21,0.04 0.11,-0.77 1.18,-0.7 0.2,-4.18 0,0 1.37,-1.05 0.78,-1.31 -0.08,-1.29 1.01,-0.09 1.86,0.39 0.37,0.56 -0.55,1.3 0.95,0.69 0.93,-1.06 1.24,-0.03 1.01,-0.65 0.85,0.06 0.29,0.62 0.24,-0.04 0.26,-1.65 1.19,-0.53 0.73,-1.57 2.57,-0.81 0.81,0.23 0.42,0.94 0.04,1.55 1.03,1.09 0.98,0.45 -0.14,0.73 0.23,0.45 -0.52,0.86 0.38,0.24 0.12,0.48 0,0 -1.55,0.83 -1.79,0.36 -0.01,1.09 -0.96,0.16 -0.96,1.18 0.02,0.99 -0.6,1.66 0.06,1.3 1.25,0.74 0.43,0.07 0.21,-0.31 0.88,0.25 0.44,-0.4 0.7,-0.1 0.83,0.25 0.29,1.15 -0.07,1.48 -1.03,0.68 0.23,1.11 0.42,0.44 -0.03,0.81 -0.45,0.48 -0.46,-0.33 -0.16,0.17 0.44,0.76 0.65,0.08 0.28,0.67 -0.33,0.35 0.38,1.77 0.61,0.19 0.36,0.52 0.36,-0.09 0,0 -0.1,0.46 0.52,1.05 -0.2,0.52 0,0 -0.4,-0.01 -0.73,0.94 -0.97,0.01 -0.54,-1.14 -1.76,-0.03 -0.22,0.41 -0.48,0.09 -0.48,-0.53 0.01,-0.67 -1.43,-0.58 -1.77,2.71 -0.72,-0.62 -0.2,0.12 -0.97,1.97 0.88,0.86 -1,1.1 0.73,1.77 0,0 -0.58,1.64 -0.36,-0.14 -0.56,0.65 0.33,0.26 -0.41,0.56 0.42,1.31 -0.74,0.26 0,0.67 0.53,0.67 -0.14,0.72 -1.65,0.63 -1.21,1.01 -1.28,0.64 -0.21,0.43 -0.51,0.01 -0.46,0.93 -1.07,0.11 0,0 -0.84,0.26 -0.22,-0.39 -1.55,-0.3 -0.86,0.56 -1.25,0.26 0,-0.51 -0.63,-0.81 z"
	/>
	<path
		id="nagasaki"
		name="Nagasaki"
		d="m 130.35993,322.23889 0.95,-0.14 0.49,0.36 0.88,1.71 0,1.1 -0.61,0.8 0.23,0.31 -0.21,0.49 -1.61,0.6 -0.66,0.85 -1.27,0.47 0.03,-0.68 -0.8,-0.49 0.08,-0.87 1.41,-1.12 0.06,-0.61 -0.47,-0.25 0.19,-0.42 -0.26,-0.29 -1.86,-0.03 -1.08,0.71 -1.53,-0.09 -0.19,0.99 -0.94,1.49 -0.96,0.57 -0.84,1.1 -1.31,0.48 0.24,-0.54 0.59,-0.24 1.01,-3.05 -1.29,-1.53 0.19,-0.45 -0.56,-0.09 -0.18,0.41 -0.9,-0.87 -0.6,-1.76 -0.63,-0.82 -0.07,-0.57 0.46,-0.73 0.23,-1.58 0.97,-0.27 0.56,0.72 -0.15,1.17 0.39,0.09 0.25,-0.42 1.01,0.62 0.02,1.63 -0.38,-0.01 0.15,0.72 -0.32,0.66 0.59,0.06 0.59,0.76 0.97,-1.13 1.63,1.03 0.57,-0.25 -1.53,-1.8 0.39,-1.47 -0.38,-0.94 -1.4,-0.94 -1.56,0.12 -0.83,-0.39 -0.32,-2.01 -0.45,0.09 0.22,0.81 -0.88,0.59 -0.19,-0.72 0.64,-0.08 -0.23,-0.69 -0.82,-0.06 -0.34,-0.68 -0.73,-0.49 -0.55,0.01 0.13,-0.89 0.58,-0.42 -0.26,-1.42 0.4,-1.14 0.59,0.46 0.9,-0.88 0.29,0.27 -0.35,0.53 0.19,0.27 0.75,0.15 0.66,-0.46 0.34,0.32 0.33,-0.45 0.21,0.84 0,0 -0.59,0.99 1.05,1.38 0.03,1.26 1.38,0.58 1.02,-0.1 0.36,0.87 -0.1,0.42 -0.52,0.1 -0.05,0.36 1.15,0.77 1.55,1.65 2.8,0.68 0,0 -0.05,0.6 -0.68,0.34 -0.8,0.93 0.85,0.74 1.74,-0.7 z m -18.32,-34.3 0.35,-1.14 -0.56,0.71 -1.32,-0.05 -0.5,-0.3 0.52,-0.14 0.28,-0.44 0.13,-1.99 0.67,-1.35 0.41,-0.18 -0.02,-0.42 -0.78,-0.11 -0.03,-0.37 0.37,-0.44 0.3,-1.43 1.44,-0.07 0.39,-0.96 0.71,-0.35 0.65,0.29 0.31,0.61 -0.55,1.46 0.07,1.24 -0.76,1.21 -1.3,1.23 0.57,0.97 -0.26,1.12 0.49,0.06 0.11,0.29 -0.88,0.74 0.03,0.4 0.38,0.16 -0.67,0.63 -0.61,-0.13 -0.91,3.46 -1.37,1.09 -0.2,-0.45 -0.72,0.01 0.76,-5.44 0.48,0.3 -0.12,0.61 0.85,-0.28 0.02,-0.39 1.27,-0.16 z m -9.63,37.35 0.14,1.19 0.94,0.82 -0.08,0.33 -1.45,0.1 -0.22,-0.45 -0.74,0.25 -0.15,0.58 0.51,0.27 0.11,0.39 -0.43,0.44 -0.38,-0.13 -0.35,-0.67 -1.600004,0.39 -1.11,-0.51 0.27,-0.82 0.2,0.3 0.96,-0.41 -0.44,-0.67 -0.17,-1.9 0.33,-0.45 0.47,0.04 0.54,0.68 2.000004,-1.13 -0.01,0.47 0.66,0.89 z m 5.18,-7.19 -0.31,1.55 0.65,-0.04 0.87,-0.58 0.32,0.14 0.03,0.57 -1.71,1.49 0.08,1.28 -0.69,-0.06 -0.13,1.09 -0.32,-0.16 0.31,-1.54 -0.46,-1.31 -0.27,0.3 -0.6,-0.27 0.41,-0.77 0.7,0.02 -0.12,-1.21 1.19,-1.24 -0.16,-0.96 0.38,-0.99 0.16,1.34 -0.33,1.35 z m 8.27,-7.75 0.31,0.1 0.06,-0.34 -0.55,0.01 0.15,-0.38 0.63,-0.08 0.16,0.66 -0.19,0.26 0.32,0.31 -0.47,0.21 -0.03,0.42 -0.45,0.1 0.22,0.36 -1.35,2.28 -1.85,1.04 -0.41,-0.28 0.07,-0.54 0.38,0.44 0.44,-0.03 -0.28,-0.88 0.92,-0.52 -0.45,-0.59 0.77,-1.26 1.29,-1.3 0.31,0.01 z m -13.11,12.54 0.83,0.52 -0.43,1.36 -0.75,-0.49 -0.08,-1.28 0.43,-0.11 z m 2.94,-0.38 -0.53,-0.26 -0.4,-0.66 0.71,0.1 -0.37,-0.54 0.2,-0.33 0.9,0.82 -0.11,1.23 -0.4,-0.36 z m 2.64,-10.19 -0.02,0.42 0.32,0.14 -0.56,0.28 0.04,0.24 -1.14,-0.24 -0.06,-0.27 0.44,-0.38 0.58,-0.03 0.05,-0.32 0.35,0.16 z m -3.98,11.59 -0.16,-0.41 -0.35,-0.08 -0.02,-0.42 -0.82,-0.53 0.33,-0.36 0.57,0.16 0.26,0.74 0.37,-0.81 0.18,0.07 0.13,0.43 -0.44,0.54 0.2,0.29 -0.25,0.38 z m 9.2,-13.4 0.55,-1.66 0,2.09 -0.72,-0.1 0.17,-0.33 z m 3.33,-2.56 -0.45,0.29 -1.1,-0.06 1.17,-0.93 0.54,0.35 -0.16,0.35 z m -10.14,6.9 -0.23,0.13 -0.39,-0.31 0.32,-0.54 0.43,0.27 0.59,-0.18 -0.18,0.68 -0.54,-0.05 z"
	/>
	<path
		id="nara"
		name="Nara"
		d="m 244.43993,278.17889 0.8,1.57 -0.38,0.52 0.05,0.59 -0.43,1.01 0.26,0.41 1.03,0.5 0.82,-0.27 0.47,1.01 0.65,-0.27 0.29,0.96 -0.39,0.95 -2.18,0.32 -0.5,0.95 1.15,1.85 -0.66,0.36 0.69,1.16 -0.72,1.36 0.37,0.68 -0.13,1.75 -0.24,0.27 0.14,1.33 -1.62,-0.25 -0.82,1.11 -1.21,0.39 -1.1,1.72 0,0 -2.01,0.34 -0.66,-0.41 -0.66,-0.01 -1.15,0.68 -0.22,-0.57 -0.37,-0.13 0.71,-1.83 -0.28,-0.51 -0.58,-0.21 0.06,-0.52 -1.14,-0.96 0.12,-0.54 1.5,-1.45 0.38,-0.58 -0.01,-0.71 0.54,-0.27 0.81,0.37 0.39,-0.6 -0.21,-0.65 -0.89,-0.5 -0.2,-1.72 -0.4,-0.68 0,0 0.61,-0.37 0.19,-1.1 -0.08,-1.17 -0.53,-1.25 0.57,-0.9 -0.21,-0.45 -0.38,-0.07 0.51,-2.37 0.51,-0.44 0.16,-1.36 0.35,0.06 0,0 0.52,1.22 1.92,0.52 0.73,-0.08 0.74,-1.13 -0.08,0.36 0.99,0.01 0.49,0.67 0.58,0.08 z"
	/>
	<path
		id="niigata"
		name="Niigata"
		d="m 287.08993,219.25889 1.85,-1.22 2.56,-2.64 2.31,-1.3 2.29,-3.85 0.84,-0.58 0.68,-1.18 1.38,-4.61 0.91,-1.1 4.07,-2.93 2.38,-0.63 1.71,-1.11 1.75,-1.88 1.24,-2 0.41,-1.59 0.13,-3.88 1.85,-3.75 0,0 1.81,0.96 1.48,0.32 0.24,0.29 -0.4,1.99 0.8,1.13 1.84,0.48 1.15,1.23 -0.79,1.59 -1.37,0.86 -1.58,-0.22 -0.52,0.82 0.16,1.31 -0.34,0.82 0.35,0.76 -0.69,0.51 -0.59,3.17 0.66,1.16 0.66,0.32 0.45,-0.13 0.45,0.77 0,0 -1.58,1.71 -0.71,1.3 0.13,0.24 -1.53,1.04 -0.03,0.73 0.42,1.03 -0.09,0.81 0.38,0.82 -0.48,0.23 -1.26,-0.22 -0.37,0.24 -0.39,-0.32 -0.47,0.04 -0.41,0.16 -0.32,1.19 -0.68,-0.24 -0.55,0.29 -2.15,0.24 -0.57,0.92 0.67,0.56 -0.14,1.19 -0.2,1.16 -0.97,1.4 0.59,0.8 0.68,0.16 0.47,0.93 -0.35,1.28 0.42,1.39 -0.22,0.78 0.11,1.34 -0.24,0.42 0,0 -0.23,-0.34 -0.92,-0.07 -0.11,-0.76 -1.54,-1.55 -0.12,0.96 -0.82,0.73 -1.63,0.28 0.27,1.93 -0.1,0.25 -0.84,-0.1 -0.29,0.95 0.25,0.44 -1.49,0.62 -0.65,-0.03 0.11,1 -0.79,0.67 -1.2,-0.44 -0.36,0.63 -0.25,-0.16 0,0 -0.12,-0.48 -0.38,-0.25 0.52,-0.85 -0.23,-0.46 0.14,-0.73 -0.98,-0.45 -1.03,-1.09 -0.04,-1.55 -0.42,-0.94 -0.81,-0.23 -2.56,0.81 -0.73,1.56 -1.19,0.53 -0.26,1.65 -0.25,0.04 -0.29,-0.63 -0.85,-0.06 -1.01,0.66 -1.24,0.02 -0.93,1.06 -0.95,-0.69 0.55,-1.29 -0.37,-0.56 -1.86,-0.39 -1.01,0.09 0.08,1.29 -0.78,1.31 -1.37,1.05 0,0 -0.59,-1.68 0,-0.77 -0.39,-0.6 -0.03,-1.19 -0.82,-0.25 -0.7,-0.81 0,0 5.42,-1.98 1.81,-1.33 0.86,-0.3 0.92,-1.1 1.11,0.28 1.2,-0.21 z m 5,-24.77 -0.59,1.26 0.19,1.07 0.7,0.3 1.61,-0.65 0.2,0.25 -1.42,3.93 -2.75,2.23 -1.1,0.06 -1.01,0.61 -0.74,-0.15 -0.21,-0.47 1.31,-0.57 0.34,-0.84 -0.1,-0.85 1.11,-1 0.23,-0.89 -0.25,0.41 -0.52,-0.58 -0.61,-0.1 -0.56,1.05 -0.41,-0.24 0.01,-0.88 -0.23,-0.15 0.35,-0.35 0.03,-1.37 0.98,-1.25 0.7,-1.59 0.78,-0.38 0.68,-0.99 0.71,-0.18 0.46,-1.54 1.09,-0.26 -0.44,3.21 -0.54,0.9 z"
	/>
	<path
		id="oita"
		name="Oita"
		d="m 141.90993,316.82889 0.35,-0.25 0.48,-1.38 -0.84,-0.73 0.03,-0.62 -0.36,-0.19 0.12,-0.38 0.52,-0.26 0.14,-0.64 -0.29,-0.95 -0.3,-0.16 0.47,-0.69 0.49,-0.13 0.3,-1.65 1.61,-1.38 0.93,-0.23 0.97,0.27 1.91,-0.11 -0.13,-0.46 0.39,-0.52 -0.3,-0.8 0.15,-0.37 0,0 0.32,-0.43 1.78,0.91 2.57,0.12 0.09,-0.45 1,-0.9 0.49,-0.96 1.68,-0.5 1.6,0.81 1.25,1.67 0.27,1.08 -0.09,1.79 -0.32,0.15 -0.4,1.21 -1.37,-0.4 -0.18,0.29 0.5,0.65 -0.12,0.22 -0.91,0.1 -0.21,0.59 -0.73,-0.11 -0.24,-0.42 -0.71,0.15 -0.12,0.71 0.35,1.5 1.5,0.51 1.88,-0.81 1.34,0.96 2.96,-0.67 -1.36,2.03 -0.5,1.26 0.7,0.31 1.08,-0.49 0.32,0.28 -0.69,0.34 -0.4,0.68 0.99,0.29 0.3,0.03 0.29,-0.71 0.59,0.84 0.36,-0.17 -0.03,-0.51 0.29,-0.14 0.07,0.8 -0.5,0.36 -1.03,-0.11 -0.75,1.38 0.12,0.28 0.58,0.19 0.25,0.46 0.72,-0.26 0.45,0.37 1.64,0.07 0.07,0.26 -2.11,0.27 0.17,0.77 0.61,-0.02 -0.81,0.76 0.66,0.7 -1.43,1.02 -0.92,-0.47 -0.25,1.53 0,0 -0.56,-0.01 0.26,-1.56 -1.64,-0.62 -0.8,0.15 -0.15,0.74 -0.49,0.58 -2.23,-0.02 -0.52,0.44 -0.9,-0.3 -0.19,-0.29 0.18,-0.47 -0.83,-0.86 -2.02,0.7 -0.38,-0.01 -0.48,-0.58 0,0 -1.4,-1.27 -0.21,-2.27 -0.59,-1.62 -0.86,-0.78 -0.19,-1.17 -1.04,-1.09 -1.41,-0.26 -1.02,0.56 -0.13,0.74 0.83,1.21 -0.18,0.85 -0.49,0.63 -0.38,-0.01 -0.4,-0.63 -0.63,-0.05 -0.6,-0.79 -0.87,-0.17 0.02,-0.31 z"
	/>
	<path
		id="okayama"
		name="Okayama"
		d="m 204.66993,282.20889 -1.41,1.09 -0.47,1.72 -1.96,-0.54 -0.52,0.34 -1.84,-0.34 -0.62,-0.78 -1.6,0.29 -0.27,0.31 0.24,0.22 -2.22,0.76 -0.69,-0.84 0,0 -0.12,-1.74 -1.21,-1.65 0.01,-1.38 -0.41,-1.9 0.29,-1.12 -1.6,-2 0.01,-1.6 0.46,-1.21 -1.01,-1.22 0,0 0.36,-0.25 0.24,-0.84 0.38,0.22 1.81,-0.63 -0.33,-1.19 0.27,-0.38 0.78,0.33 1.21,-0.49 0.21,-0.5 -0.21,-0.48 0.96,-0.25 0.78,-2.43 1.7,0.63 1.27,0.01 1.07,0.74 0.52,0.91 0.66,-0.5 0.2,-0.54 1.16,-0.49 0.03,-0.48 1.5,-0.43 -0.15,0.89 0.19,0.17 0.79,0.21 0.94,-0.17 0.69,0.59 0.22,0.42 -0.12,0.61 0.49,0.31 -0.19,0.71 0.51,0.63 1.48,-0.92 0.54,0.27 0.69,-0.13 1.39,-1.16 0.3,0.23 0,0 -0.44,0.8 0.63,0.66 -0.08,0.78 -0.67,-0.07 -0.24,0.26 -0.24,1.1 -0.59,0.25 -0.06,0.93 -0.92,0.54 0.2,0.59 -0.15,0.91 -0.35,0.32 0.68,0.85 -0.7,1.31 0.18,0.47 1.08,0.96 0.54,1.37 0,0 -0.5,0.33 -0.2,-0.28 -0.66,-0.01 -1.76,1.98 -0.37,0.89 -0.98,0.59 -1.28,0.06 -0.52,0.38 z m 5.26,2.84 -0.37,0.06 0.68,-0.71 -0.86,0.2 -0.67,1.29 -0.23,-0.59 0.37,-0.49 -0.11,-0.24 -0.5,-0.29 -1.17,0.5 -0.21,-0.25 0.45,-0.86 3.68,-1.35 -0.12,0.47 0.3,0.34 -0.4,2.25 -0.4,-0.52 -0.44,0.19 z"
	/>
	<path
		id="okinawa"
		name="Okinawa"
		d="m 82.159926,466.98889 0.83,-0.81 2.11,-0.89 0.38,-0.75 -0.74,-0.6 -1,-0.1 -0.33,-0.83 0.31,-0.35 -0.38,-0.53 0.06,-0.6 0.52,0.27 1.11,-0.17 0.77,0.3 0.19,0.2 -0.34,0.71 0.32,0.48 0.92,-0.11 0.94,-0.6 0.31,-0.9 0.82,-0.39 -0.02,-0.31 1.44,-1.37 0.42,-1 -0.09,-0.59 0.25,-0.12 0.91,0.71 0.39,2.04 -1.76,2.62 -1.76,0.03 0.05,0.69 -0.52,-0.1 0.55,0.79 -1.15,0.72 -1.15,-0.38 0.33,0.67 -1.71,1.16 -0.33,0.67 -1.59,-0.45 -0.75,0.57 0.21,0.58 0.7,0.53 -0.07,0.48 0.99,1.06 -0.05,0.35 -1.01,-0.89 -0.67,0.14 -1.32,2.79 0.2,0.3 0.74,-0.1 0.28,0.56 -1.64,1.05 -0.45,0.63 -0.95,0.34 -0.39,-0.21 -0.39,-2.51 1.4,-1.64 0.96,-0.49 0.05,-0.26 -0.88,-2.1 0.03,-0.64 0.16,-0.15 0.24,0.38 1.55,-0.88 z m 35.080004,-42.13 -1.1,1.43 -1.07,0.4 -0.5,-0.19 -0.28,1.13 0.38,0.75 -1.07,0.74 -0.18,0.6 -0.35,-0.3 -0.29,0.3 0.21,1.01 -1.64,-0.93 0.03,-0.5 -0.45,-0.87 -1.89,-0.3 -0.85,-0.66 1.8,-0.45 0.18,-0.19 -0.38,-0.46 0.97,-0.56 0.76,-0.04 0.72,-0.88 0.53,0.33 0.55,-0.71 1.04,0.12 0.3,-0.74 0.3,0.31 0.56,-0.01 0.23,-0.9 0.49,-0.52 0.51,0.15 1.04,-0.46 0.16,0.95 -0.22,0.26 0.37,0.19 0.72,-1 -0.57,-0.93 0.89,-0.62 0.11,0.91 0.48,0.33 -0.07,1 -1.01,0.73 -1.02,-0.09 -0.39,0.67 z m -111.440004,87.79 -0.22,0.94 -0.5,0.16 0.03,0.73 -0.4,-0.04 -0.11,0.46 -0.85,-0.37 -1.59,-0.15 -0.59,-0.42 -0.12,0.46 -0.75,-0.1 -0.38,-0.54 0.83,-0.91 0.52,0.19 0.27,0.45 0.18,-1.2 -0.19,-0.39 0.66,-0.95 0.71,0.59 1.23,0.16 1.27,0.93 z m 99.160004,-76.37 -0.05,0.87 1.38,1.22 -0.97,2.05 -1.03,0.19 -1.12,-1.37 0.51,-0.9 -0.54,-1.57 0.42,-1.32 1.44,0.04 -0.04,0.79 z m -94.630004,74.41 1.06,-0.13 -0.05,-0.35 0.71,-1.03 0.44,0.28 0.33,-0.74 -0.26,-0.44 0.51,-0.56 0.06,-0.49 0.57,0.1 -0.14,0.79 -0.59,0.52 0.11,0.29 -0.51,0.5 -0.03,0.42 -0.62,0.54 0.16,1.09 -0.36,1.4 -1.69,0.37 -0.24,-0.46 -0.62,-0.29 0.5,-0.46 0.11,-0.58 -0.86,-0.41 -0.3,0.36 -0.31,-0.33 0.14,-0.51 0.83,0.18 -0.01,-0.8 1.06,0.74 z m 21.34,-6.62 0.17,-0.26 0.12,0.38 0.34,-0.03 -0.56,-0.99 0.45,-0.33 0.14,-0.65 -0.56,-1.37 0.18,-0.19 1.38,2.04 0.01,0.52 1.91,0.79 0.4,0.67 -2.86,0.41 -0.93,-0.5 -0.19,-0.49 z m 66.54,-56.89 -0.59,0.55 -0.8,0.23 -0.57,-0.52 -0.14,-0.81 0.21,-0.37 1.23,0.17 1.89,-0.96 0.38,0.04 -1.61,1.67 z m 11.680004,-17.61 0.39,0.18 0.3,-0.52 0.61,1.09 1.12,0.16 0.21,0.33 -0.28,0.58 -0.38,0.18 -0.55,-0.51 -0.18,0.65 -0.71,-0.83 -0.66,0.51 0.1,-1.4 -0.63,-0.38 -0.27,-0.69 0.69,-0.29 0.19,0.22 -0.3,0.23 0.35,0.49 z m -48.320004,40.42 -0.89,-0.5 -0.26,-0.5 1.45,-0.38 0.79,0.92 -0.38,0.49 0.14,0.71 -0.66,-0.3 -0.19,-0.44 z m 64.350004,-45.08 -1.2,1.87 -0.58,0.22 -0.49,-0.38 0.05,-0.73 0.61,-0.07 1.2,-1.14 0.41,0.23 z m -96.490004,77.84 0.01,-0.67 0.31,0.37 0.2,-0.73 0.9,0.39 0.24,0.7 -1.2,0.27 -0.46,-0.33 z m 55.41,-48.5 0.9,-1.03 0.5,-0.09 -0.59,1.1 -1.46,1.17 0.65,-1.15 z m -2.64,6.79 0.24,0.54 -1.3,0.04 -0.26,-0.23 0.21,-0.42 1.11,0.07 z m -9.03,11.13 0.29,0.24 0,0.55 -0.26,0.21 0.09,0.5 -0.45,0.41 -0.06,-0.98 0.39,-0.93 z m 11.43,-16 0.39,0.45 -0.07,0.47 -0.28,0.08 -0.56,-0.59 0.52,-0.41 z m -77.58,58.68 0.56,0.25 -0.31,0.53 -0.47,-0.41 0.22,-0.37 z m 65.24,-43.19 0.42,0.21 -0.48,0.46 -0.49,-0.15 0.55,-0.52 z"
	/>
	<path
		id="osaka"
		name="Osaka"
		d="m 232.13993,283.27889 0.37,-0.8 -0.64,-0.14 -0.03,-0.81 0.3,-0.51 0.74,-0.43 -0.46,-0.23 0,0 0.54,-1.21 -0.15,-1.43 -0.74,-1.24 0.47,-2.04 -0.43,-0.25 0.91,-0.51 -0.96,-0.14 -1.4,-0.81 0.24,-0.36 -0.08,-0.97 -0.4,-0.24 0.29,-0.31 0.43,0.05 0,0 0.19,0.74 2.16,0.6 0.07,1.16 0.25,-0.11 0.69,0.73 0.79,-0.26 -0.38,-0.42 0.26,-0.68 0.75,0.02 0,0.61 1.24,1.15 0.3,1.06 1.03,1.16 -0.29,0.62 0,0 -0.35,-0.06 -0.15,1.36 -0.51,0.44 -0.51,2.37 0.38,0.08 0.21,0.45 -0.57,0.9 0.53,1.26 0.08,1.16 -0.19,1.1 -0.61,0.37 0,0 -1.29,0.18 -1.2,0.8 -1.62,-0.14 -2.06,0.74 -1.63,0.09 -1.23,0.79 -1.04,0.18 -0.43,-0.04 -0.13,-0.88 -0.27,-0.09 0,0 2.57,-0.85 1.84,-1.68 0.97,-1.49 1.15,-1.04 z"
	/>
	<path
		id="saga"
		name="Saga"
		d="m 121.38993,311.53889 0.67,0.96 0.16,-0.92 -0.19,-0.19 0.67,-1.39 -1.75,-1.34 0.48,-0.15 -0.26,-0.34 0.27,-0.32 0.39,0.14 0.35,0.8 0.28,-0.22 -0.56,-1.18 -0.03,-0.32 0.54,-0.03 -0.2,-0.88 0.64,0.48 0.32,-0.04 0.02,-0.27 0.68,-0.03 0.03,0.34 0.74,0.63 -0.63,0.74 0.61,0.54 1.14,0.19 0.28,-0.16 -0.05,-0.33 0,0 2.63,0.08 0.69,-0.32 0.86,0.24 0.47,-0.21 1.7,1.07 0.77,0.17 0.62,0.71 0.99,-0.95 0.74,-0.25 0.41,0.21 -0.02,2.25 -0.51,-0.03 -0.51,0.86 -1.85,1.42 -0.59,1.04 -0.17,1.23 0,0 -1.31,-0.01 -0.2,-0.52 -0.88,-0.58 -0.19,0.66 -1.79,1.44 1.78,3.06 0.04,0.41 -0.42,0.03 0,0 -2.8,-0.68 -1.55,-1.65 -1.15,-0.77 0.05,-0.36 0.52,-0.1 0.1,-0.42 -0.36,-0.87 -1.02,0.1 -1.38,-0.58 -0.03,-1.26 -1.05,-1.38 0.59,-0.99 0,0 0.22,0.24 z m -1.61,-8.98 -0.61,-0.03 -0.39,-1.1 -0.37,0.5 -0.21,-0.74 0.34,-0.5 -0.19,-0.39 1.06,-1.34 1.37,0.5 -0.26,0.85 0.52,0.45 -0.57,0.29 0.78,0.27 -0.17,0.54 -1.09,0.05 -0.21,0.65 z m 0.24,6.65 0.37,-1 0.78,0.95 -0.61,-0.06 -0.08,0.42 -0.48,0.23 -0.3,-0.3 0.32,-0.24 z"
	/>
	<path
		id="saitama"
		name="Saitama"
		d="m 297.31993,250.08889 0.2,-0.52 -0.52,-1.05 0.1,-0.46 0,0 0.75,-1.01 1.23,-0.02 0.92,-1.01 1.52,-0.4 0.46,-0.78 1.53,-0.07 0.42,-0.76 0.02,-0.93 1.23,-1.97 0.7,0.05 1.69,0.86 0.6,-0.15 0.97,0.29 0.86,-0.21 1.81,1.34 2.54,-0.48 0.52,0.48 0.49,-0.18 0.31,-0.58 0,0 0.84,0.41 0,0 -0.17,0.89 0.86,1.96 0.39,0.1 0.39,-0.35 0,0 0.71,1.4 0.06,1.04 1.67,3.22 -0.22,1.33 -0.35,0.27 0,0 -0.92,0.07 -0.17,-0.42 -0.52,0.14 -0.45,-0.28 -0.41,0.74 -1.78,-0.31 -0.67,0.8 -0.55,-0.29 -0.91,0.37 -0.28,-0.87 -1.59,0.75 -1.25,0.03 -0.53,-0.6 -0.78,-0.15 -0.41,-0.87 -2.1,-0.15 -1.03,-0.56 -1.66,-0.28 -0.7,-0.54 -1.39,0.58 -0.18,0.44 0,0 -1.09,0.29 -0.69,-0.53 -1.16,-0.2 -0.29,-0.64 z"
	/>
	<path
		id="shiga"
		name="Shiga"
		d="m 251.72993,266.75889 0.07,0.85 0.71,0.73 -0.73,2.5 -0.04,1.38 -0.78,1.1 -0.21,0.92 -2.34,1.13 -1.33,-0.66 -1.02,0.01 -0.33,-0.38 -0.47,0.39 0.07,0.26 0.62,0.04 0.08,0.26 -0.77,0.62 0.07,0.52 -1.34,0.55 0,0 -0.15,-0.41 0.26,-0.26 -0.61,-0.6 -0.4,0.15 -0.3,-0.37 -0.31,0.05 -0.13,-0.88 -0.73,0.38 -0.71,-0.47 0.24,-1.07 -0.89,-1.51 -0.29,-1.17 0.34,-0.25 0.31,-1.74 -0.43,-2.11 0.38,-1.44 -0.42,0.01 -1.18,-1.84 0,0 0.45,-0.74 0.37,-0.1 0.06,-0.5 0.65,0 0.35,0.4 0.57,-0.28 1.04,-2.76 0.77,0.77 0.46,-0.1 0.46,-0.88 1.29,-0.12 0.35,-1.07 1.1,0.32 0.14,-0.75 -0.83,-1.76 0.31,-0.67 0.67,-0.13 1.81,0.93 0,0 0.26,1.07 0.66,0.07 -0.12,1.6 0.78,0.29 0.31,-0.5 0.55,0.71 -0.24,0.89 0.63,0.64 -0.09,1 0.53,0.85 -0.55,0.44 -0.04,1.34 -0.32,0.52 -0.02,0.93 -0.32,0.21 z"
	/>
	<path
		id="shimane"
		name="Shimane"
		d="m 170.75993,270.55889 0.28,-0.79 1.23,-0.93 0.08,-0.67 0.5,-0.67 2.51,-1.8 1.42,-0.54 0.56,-0.51 0.41,-0.78 0.13,-1.61 -0.96,-0.39 0.1,-0.37 1.12,-0.46 0.5,0.3 0.85,-0.17 0.11,-0.21 -0.62,-0.35 1.44,-0.3 0.24,-0.32 2.13,-0.51 1,0.04 -0.07,-0.65 1.17,0.12 0.41,-0.96 0.93,-0.64 0.91,1.06 1.08,-0.17 0.41,-0.33 2.16,0.32 -1.21,0.3 -0.41,0.51 0.49,0.99 1.14,0.68 0,0 -0.16,2.44 -0.42,0.62 0.27,1.63 -3.1,1.38 0.02,0.29 0.61,0.13 0.23,0.69 -0.89,0.7 -0.17,1.54 0,0 -0.58,-0.22 -1.42,0.42 -0.98,-0.79 -0.79,0.62 -1.15,-0.7 -0.4,0.07 -2.4,3.33 -1.19,0.25 -0.85,1 0.38,0.47 0.69,0.21 0.01,0.87 -1.76,0.14 -1.47,1.06 -1.63,-0.13 -0.25,-0.41 -0.41,0.14 0.07,0.25 -0.51,0.43 -0.52,-0.42 -1.24,0.13 -0.21,0.44 -0.4,-0.48 -0.79,-0.11 -0.31,1.14 -1.45,0.86 -0.3,0.48 0.55,0.34 -0.7,1.03 -0.21,1.78 -0.63,0.68 -0.6,0.18 -0.3,0.64 0.49,0.63 0,0 -0.81,0.45 -0.48,0.71 -0.15,0.31 0.43,0.89 -1.12,1.58 -0.69,-0.63 -0.94,0.7 -1.05,0.1 -0.87,-0.86 -0.17,-0.77 0.55,-1.54 -1.87,0.04 -0.61,-1.65 0.66,-0.64 0.02,-0.82 0.43,-0.16 -0.83,-2.54 0,0 1.15,0.03 1.51,-0.45 1.33,-1.52 1.13,-0.82 0.23,-0.66 0.63,-0.2 1.16,-1.24 0.75,-1.24 2.86,-2.38 1.58,-0.63 z m 18.1,-27.33 -0.39,-0.5 -0.48,-0.07 0.17,-0.81 -0.3,-0.17 0.08,-0.87 0.87,-0.99 1.08,-0.31 0.79,0.33 1.29,1.46 -0.3,1.5 -0.45,0.19 -0.1,-0.56 -0.14,0.45 -0.58,0.09 0.6,0.14 0.11,0.56 -0.26,0.07 -1.79,0.05 0.14,-0.43 -0.34,-0.13 z m -46.02,-33.19 0.32,-0.19 0.21,0.22 -0.22,0.32 0.1,0.97 -0.76,0.88 -1.29,-0.54 -0.34,-0.96 0.61,-0.41 1.37,-0.29 z m 43.06,34.31 0.27,0.09 -0.09,0.33 -0.93,0.46 0.33,0.5 -0.22,0.63 -0.44,-0.06 -0.37,-0.71 -0.35,-0.03 -0.19,0.23 0.43,1.12 -1.03,-0.64 0.63,-1.24 0.71,-0.05 -0.02,-0.46 0.68,0.17 0.59,-0.34 z m 1.14,1.38 -1.32,1.26 0.22,-0.83 -0.31,-0.8 0.26,-0.18 0.26,0.3 0.07,-0.5 0.37,-0.08 0.39,0.22 0.06,0.61 z m -2.59,1.29 1.35,0.53 -0.14,0.35 -1.18,-0.16 -0.03,-0.72 z"
	/>
	<path
		id="shizuoka"
		name="Shizuoka"
		d="m 304.84993,274.99889 -1.07,2.05 -1.23,1.02 -0.48,1.26 0.29,0.76 -0.45,0.17 -0.48,-0.25 -0.41,0.19 -0.2,0.52 -1.26,0.74 -0.38,-0.14 -1.08,-1.02 0.23,-0.29 -0.14,-0.37 -0.73,-0.33 0.01,-0.81 0.74,-0.73 -0.48,-1.08 0.27,-0.2 -0.2,-1.79 0.67,-0.61 -0.54,-1.53 0.49,-1.23 2.05,0.16 0.27,-0.71 -1.78,-1.59 -2.32,-0.51 -2.74,0.82 -0.9,1.57 0.4,0.5 -0.22,0.6 -3.07,1.66 -0.8,1.34 0.18,1 -0.69,1.23 -1.52,1.15 -0.54,1.37 0.01,0.72 0.75,0.71 -0.09,0.22 -4.47,-1.58 -2.06,-0.07 -1.84,0.45 -2.66,-0.61 -3.56,-0.07 0,0 -0.16,-2.32 0.43,-1.23 2.75,-1.54 1.28,-1.92 0.03,-1.06 1.46,-2 0.47,-0.24 -0.08,-0.47 0.57,-0.58 -0.51,-0.5 0.31,-0.98 0,0 1.07,-0.11 0.46,-0.93 0.51,-0.01 0.21,-0.43 1.28,-0.64 1.21,-1.01 1.65,-0.63 0.14,-0.72 -0.53,-0.67 0,-0.67 0.74,-0.26 -0.42,-1.31 0.41,-0.56 -0.33,-0.26 0.56,-0.65 0.36,0.14 0.58,-1.64 0,0 0.94,3.18 -0.38,1.18 0.23,1.07 -0.46,0.93 0.33,1.3 0.68,0.51 0.76,-0.52 0.76,0.36 0.69,2.69 0.69,0.5 1.24,0.12 0.72,-0.63 -0.4,-2.66 0.43,-0.61 -0.05,-1.71 0.99,-0.91 0.57,1.26 1.03,-0.12 0.45,0.97 2.8,-0.47 0.37,-0.27 0.7,0.07 0.67,-0.39 0,0 1.51,-0.03 0.15,0.24 0.35,1.52 -0.28,0.97 -0.57,0.62 0.24,1.52 0.7,0.54 0.13,0.68 1.52,0.21 0,0 -0.67,0.97 -0.14,1.01 0.63,0.25 -0.13,1.33 1.03,0.83 -0.11,1.53 z"
	/>
	<path
		id="tochigi"
		name="Tochigi"
		d="m 327.45993,225.02889 -0.09,1.99 0.27,0.99 -0.22,1.3 0.62,1 -0.09,0.32 -0.95,0.21 -0.28,0.38 0.57,1.95 0.02,1.81 -0.92,1.86 -0.21,1.17 -0.67,0.2 -0.28,-0.39 -0.45,0.02 -0.41,0.47 -0.68,-0.24 -0.05,0.52 -0.26,0.13 -1.56,0.08 -0.13,0.45 -1,0.47 -0.12,0.88 -1.13,-0.28 -0.56,1.69 -1.64,0.87 -0.73,0.06 0,0 -0.84,-0.41 0,0 -0.51,-0.79 0.09,-0.28 -0.38,-0.24 -1.11,0.18 -0.71,-0.43 -1.01,0.29 -1.11,-0.97 0.04,-0.58 -1.05,-0.78 0.18,-0.96 1.19,-1.55 -0.33,-0.76 0.4,-1.2 0.82,-0.65 -0.34,-0.68 -1.23,0.07 -1.47,-0.74 0.18,-1.37 0.59,-0.89 -0.28,-1.17 1.02,-1.41 -1.02,-0.44 0.58,-1.54 0,0 0.94,-0.43 0.71,-1.02 1.35,-0.24 0.92,-0.75 0.63,-0.09 0.23,-0.43 0.79,-0.2 0.26,-0.41 2.8,-0.87 0.18,-0.91 1.36,-0.59 2.42,0.28 2.39,1 1.02,0.98 0.23,0.93 0.85,-0.05 -0.16,1.86 z"
	/>
	<path
		id="tokushima"
		name="Tokushima"
		d="m 218.38993,299.89889 -2.09,0.87 -0.89,0.77 -0.18,0.51 -1.25,0.91 -1.19,0.7 -0.92,0.19 -0.64,1.79 -0.89,-0.04 -0.21,0.47 0.26,0.14 -0.3,0.18 0,0 -2.11,-0.22 -0.78,-1.19 -0.1,-0.47 0.47,-0.54 -0.23,-0.8 -1.97,-0.05 -0.1,-2 -0.51,-1.26 -0.7,0.17 -0.25,-0.46 -0.39,0.13 -0.42,0.81 -0.61,0.2 -0.79,-0.32 -0.65,-0.9 -1.81,0.17 -1.34,-0.52 -0.37,-0.54 0,0 0.56,-0.9 0,-1.04 -0.27,-0.49 0.29,-0.68 0,0 0.62,-0.22 0.14,-0.51 1,-0.84 0.58,0.19 0.28,-0.5 0.76,-0.29 1.38,-0.25 0.86,0.97 0.47,0 1.17,-0.91 1.24,-0.14 0.32,-0.34 -0.06,-0.42 0.74,-0.58 1.7,-0.18 1.63,0.26 0.28,-0.3 1.09,0.58 0.42,-0.22 0.16,-0.96 0,0 2.81,-0.79 0,0.94 0.75,0.49 -0.72,2.96 0.09,1.1 0.48,0.53 0.36,-0.56 0.59,1.07 0.63,0.36 -0.52,0.39 0.7,0.19 -0.14,0.46 -1.29,0.94 -0.09,0.33 0.27,0.21 1.98,0.04 0.14,0.21 -0.44,0.2 z"
	/>
	<path
		id="tokyo"
		name="Tokyo"
		d="m 310.35993,279.40889 -0.68,-0.39 -0.14,-0.41 -0.06,-1.39 0.23,-0.5 1.22,0.43 0.52,0.92 -0.16,1.5 -0.93,-0.16 z m -2.11,6.15 -0.33,2.29 -0.49,-0.4 -0.06,-0.52 0.88,-1.37 z m -1.42,2.19 0.25,0.27 -0.61,0.2 0.36,-0.47 z m 12.32,-31.08 -0.82,-0.06 -0.2,-0.93 -0.5,0.44 -0.3,1.56 0.32,0.75 0.25,-0.15 0.44,0.71 -0.87,-0.2 -0.93,0.29 0,0 -0.01,-0.38 -0.48,-0.23 -0.33,-0.67 -2.68,-1.27 -0.76,0.91 -0.49,-0.47 -0.22,0.23 0.79,0.62 -0.19,2.02 -0.3,0.03 -1.35,-1.89 -2.15,-0.7 -0.86,0.16 -0.59,-0.99 -0.61,0.03 -0.46,-0.55 -0.6,-0.13 0,0 -2.1,-1.16 -1.58,-3.24 0,0 0.19,-0.44 1.38,-0.58 0.71,0.54 1.66,0.29 1.03,0.56 2.1,0.15 0.41,0.87 0.78,0.16 0.53,0.6 1.25,-0.04 1.59,-0.75 0.28,0.87 0.92,-0.37 0.55,0.29 0.67,-0.8 1.78,0.32 0.41,-0.75 0.45,0.28 0.52,-0.14 0.17,0.42 0.93,-0.07 0,0 1.08,2.26 0,0 0.35,0.76 -0.56,0.32 0.4,0.38 -0.83,0.57 -1.17,-0.43 z m -5.62,37.62 0.27,-0.46 -0.03,-0.53 -0.52,-0.53 -0.93,0.11 -0.4,1 0.18,0.63 0.69,0.09 0.74,-0.31 z m 4.5,23.31 0.97,0.6 0.15,-0.7 0.39,-0.09 -0.25,-0.91 -0.55,-0.05 -0.88,-0.9 -0.48,0.01 -0.16,0.72 0.28,0.56 0.42,0.13 0.11,0.63 z m 0,0 0.97,0.6 0.15,-0.7 0.39,-0.09 -0.25,-0.91 -0.55,-0.05 -0.88,-0.9 -0.48,0.01 -0.16,0.72 0.28,0.56 0.42,0.13 0.11,0.63 z"
	/>
	<path
		id="tottori"
		name="Tottori"
		d="m 190.80993,260.73889 1.46,0.29 0.47,-0.16 0.47,-0.86 0.98,-0.5 1.8,-0.38 1.44,0.58 1.8,0.17 3.37,-0.23 0.67,-0.37 1.4,0.17 1.85,-0.2 2.78,-0.74 0.56,-0.77 0.76,-0.05 0.13,-0.39 0.61,-0.13 0,0 0.69,0.52 0.38,0.77 -0.12,1.02 0.49,1.88 0.73,0.34 -0.09,1.08 0.73,0.96 -0.15,0.43 0.26,1.16 -1.64,1.15 -0.58,-0.26 0,0 -0.3,-0.23 -1.39,1.16 -0.69,0.13 -0.54,-0.27 -1.48,0.92 -0.51,-0.63 0.19,-0.71 -0.49,-0.31 0.12,-0.61 -0.22,-0.42 -0.69,-0.59 -0.94,0.17 -0.79,-0.21 -0.19,-0.17 0.15,-0.89 -1.5,0.43 -0.03,0.48 -1.16,0.49 -0.2,0.54 -0.66,0.5 -0.52,-0.91 -1.07,-0.74 -1.27,-0.01 -1.7,-0.63 -0.78,2.43 -0.96,0.25 0.21,0.48 -0.21,0.5 -1.21,0.49 -0.78,-0.33 -0.27,0.38 0.33,1.19 -1.81,0.63 -0.38,-0.22 -0.24,0.84 -0.36,0.25 0,0 -0.42,-0.5 -2.1,0.32 0,-0.26 0,0 0.17,-1.54 0.89,-0.7 -0.23,-0.69 -0.61,-0.13 -0.02,-0.29 3.1,-1.38 -0.27,-1.63 0.42,-0.62 0.16,-2.44 z"
	/>
	<path
		id="toyama"
		name="Toyama"
		d="m 265.53993,228.68889 1.31,0.68 0.98,-0.23 1.94,0.09 1.17,-1.11 0.36,-1.01 -0.03,-1.21 0.37,-0.71 1.34,-0.71 2.78,-0.6 0,0 0.7,0.81 0.82,0.25 0.03,1.2 0.39,0.6 0,0.77 0.59,1.68 0,0 -0.2,4.18 -1.18,0.7 -0.11,0.77 0.21,-0.04 0.12,0.49 -0.61,0.17 -0.39,0.53 0.02,0.75 -0.42,0.81 -0.9,0.86 0,0 -0.94,-0.07 -0.84,-0.82 -0.71,0.34 -1.13,-0.35 -0.28,-0.78 -1.35,0.8 -0.21,-0.04 -0.04,-0.88 -0.59,-0.05 -1.46,0.69 -0.25,-0.44 -0.55,0.02 -2.08,2.02 -0.25,1.15 -1.39,1.22 -0.34,-0.08 0.26,-0.73 -0.34,-0.77 -0.92,-0.51 -0.35,0.36 -0.25,-0.59 -0.77,0.56 -0.29,1.06 -0.58,0.08 0,0 -0.15,-0.89 0.32,-0.42 -0.45,-1.89 0.75,-2.95 -0.46,-0.58 -0.19,-1.13 0.77,-1.23 -0.23,-0.46 0.16,-0.97 0.55,-0.65 0.6,-3.49 1.4,-1.37 0.73,-0.26 1.24,0.1 0,0 -1.33,2.29 1.42,1.56 0.69,0.5 z"
	/>
	<path
		id="wakayama"
		name="Wakayama"
		d="m 240.04993,307.16889 -0.54,0.38 -0.32,0.69 0.09,0.71 -0.48,0.08 -0.25,-0.35 0.32,-0.75 -0.79,0.11 -1.88,-0.75 -2.35,-0.38 -2.02,-1.21 -0.41,-0.74 0.15,-0.79 -1.27,-0.63 0.98,-0.53 0.25,-0.57 -1.44,-1.22 -2.62,-1.21 -0.68,-1.41 -0.77,-0.38 -1.11,0.32 0.21,-2.33 1.57,-0.64 0.49,-0.63 -0.73,-0.76 -1.12,-0.25 0.61,-0.64 0.3,-0.83 0.87,0.07 0.3,-0.35 -0.13,-0.75 -0.75,-0.2 -0.43,-1.22 -1,-1.08 0.13,-0.48 0.36,-0.14 0,0 0.27,0.09 0.13,0.88 0.43,0.04 1.04,-0.18 1.23,-0.79 1.63,-0.09 2.06,-0.74 1.62,0.14 1.2,-0.8 1.29,-0.18 0,0 0.4,0.68 0.2,1.72 0.89,0.5 0.21,0.66 -0.39,0.6 -0.81,-0.37 -0.55,0.27 0.01,0.71 -0.38,0.57 -1.49,1.45 -0.13,0.54 1.14,0.96 -0.06,0.53 0.58,0.21 0.28,0.51 -0.71,1.83 0.38,0.13 0.21,0.57 1.15,-0.68 0.66,0.01 0.66,0.41 2.01,-0.34 0,0 -0.07,1.92 1.7,1.94 1.29,0.27 0,0 -0.33,0.45 -0.15,1.15 -0.96,0.26 -0.23,0.85 0.72,0.28 -0.07,0.35 -2.08,1.46 -0.52,0.09 z"
	/>
	<path
		id="yamagata"
		name="Yamagata"
		d="m 327.89993,199.31889 -0.3,1.71 0.04,2.01 0.55,0.41 -1.33,1.61 -1.3,-0.26 -0.74,0.56 -1.47,-1.12 -1.23,0.46 -0.97,-1.68 -0.33,0.35 -0.63,0.07 -0.61,-0.39 -0.94,0.58 -0.63,-0.68 -0.79,0.18 0,0 -0.45,-0.77 -0.45,0.13 -0.66,-0.32 -0.66,-1.16 0.59,-3.17 0.69,-0.51 -0.35,-0.76 0.34,-0.82 -0.16,-1.31 0.52,-0.82 1.58,0.22 1.37,-0.86 0.79,-1.59 -1.15,-1.23 -1.84,-0.48 -0.8,-1.13 0.4,-1.99 -0.24,-0.29 -1.48,-0.32 -1.81,-0.96 0,0 1.17,-3.08 1.74,-1.51 1.14,-1.5 1.13,-4.08 0.61,-1.04 0.7,-2.64 -0.18,-0.58 0,0 2.51,0.41 0.37,-0.46 0.98,-0.24 0.2,1.17 0.71,0.18 0.79,0.7 3.08,0.94 1.08,-0.27 0.35,0.77 1.06,0.08 0.58,1.8 1.52,0.53 0.24,0.45 0,0 -0.23,0.35 1.06,1.02 0.19,1.06 0.83,0.45 -0.68,1.1 0.22,0.97 -0.43,1.15 -0.4,0.1 -0.66,-0.35 -0.1,0.23 0.61,1.37 0.03,0.54 -0.38,0.65 0.27,0.91 0.6,0.39 0.2,0.7 -0.61,1.6 -1.09,1.14 0.16,0.6 -1.05,1.32 -0.16,1.02 0.23,1.23 -1.11,1.58 -0.19,1.02 -0.99,0.55 -1.72,0.01 0.07,1.99 z"
	/>
	<path
		id="yamaguchi"
		name="Yamaguchi"
		d="m 154.99993,295.15889 -0.59,-0.41 -0.35,0.88 -0.74,0.35 -0.29,-0.2 0.15,-0.59 -0.44,-0.14 -0.77,1.46 -1.72,1.03 -2.18,-0.78 0.08,-0.79 -2.26,-1.28 -0.69,0.38 -0.32,0.88 -1.84,1.78 -0.19,-0.59 0.46,-0.87 -0.03,-1.68 -1.06,-1.52 0.12,-0.61 0.75,-0.13 0.55,-1.11 -0.24,-1.21 -1.07,-1.17 0.3,-0.16 0.38,-1.37 2.64,-0.41 -0.3,-0.48 -1.22,-0.38 0.28,-0.82 0.92,0.74 1.08,-0.34 0.52,0.15 1.09,1.11 2.96,-0.26 0.62,-0.83 1.02,0.03 1.44,-1.68 -0.27,-0.66 0.35,-0.56 0.7,0.14 0.7,-0.71 0.34,-0.42 0.03,-0.86 0.46,-0.11 0.38,-0.88 0.25,-0.23 0.97,0.29 0.47,-0.49 0,0 0.83,2.54 -0.43,0.16 -0.02,0.82 -0.66,0.64 0.61,1.65 1.87,-0.04 -0.55,1.54 0.17,0.77 0.87,0.86 1.05,-0.1 0.94,-0.7 0.69,0.63 1.12,-1.58 -0.43,-0.89 0.15,-0.31 0.48,-0.71 0.81,-0.45 0,0 0.3,0.68 -0.17,0.81 0.24,1.36 0.92,0.78 -0.08,0.63 0.5,1.46 1.28,0.31 0.33,-0.19 0,0 0.24,0.49 -0.29,0.52 0.37,0.47 -0.98,0.91 0.24,2.96 -0.57,0.96 -1.09,0.12 0.01,1.62 0.58,0.68 -0.33,0.63 -0.49,-1.07 -1.43,-0.73 -0.37,0.17 -3.61,-2.76 -0.47,0.6 -0.03,0.55 -0.91,-0.2 1.12,-1.18 -1.25,-0.71 -0.52,-0.08 -1.82,0.55 -2.1,0.96 -0.56,-0.62 z m 15.14,3.62 -0.9,-0.14 -0.52,0.46 -0.58,-0.87 -0.06,-0.79 1.18,-0.95 1.36,1.13 0.98,0.06 1.26,-0.85 1.1,0.06 -1.26,0.96 -0.71,-0.01 -0.19,0.31 0.19,0.83 -0.87,0.1 -0.1,-0.82 -0.44,-0.1 -0.54,0.09 0.1,0.53 z"
	/>
	<path
		id="yamanashi"
		name="Yamanashi"
		d="m 305.23993,255.79889 -0.02,2.61 -0.34,0.7 -0.49,0.52 -0.71,0.1 -0.46,0.65 -1.79,0.83 -0.4,1.13 0,0 -0.67,0.39 -0.7,-0.07 -0.37,0.27 -2.8,0.47 -0.45,-0.97 -1.03,0.12 -0.57,-1.26 -0.99,0.91 0.05,1.71 -0.43,0.61 0.4,2.66 -0.72,0.63 -1.24,-0.12 -0.69,-0.5 -0.69,-2.69 -0.76,-0.36 -0.76,0.52 -0.68,-0.51 -0.33,-1.3 0.46,-0.93 -0.23,-1.07 0.38,-1.18 -0.94,-3.18 0,0 -0.73,-1.77 1,-1.1 -0.88,-0.86 0.97,-1.97 0.2,-0.12 0.72,0.62 1.77,-2.71 1.43,0.58 -0.01,0.67 0.48,0.53 0.48,-0.09 0.22,-0.41 1.76,0.03 0.54,1.14 0.97,-0.01 0.73,-0.94 0.4,0.01 0,0 1.02,0.23 0.29,0.64 1.16,0.2 0.69,0.53 1.09,-0.29 0,0 1.57,3.24 z"
	/>
</svg>
