<svg
	xmlns="http://www.w3.org/2000/svg"
	viewBox="0 0 550 500"
	area-label="Map of Tokyo Special Wards"
>
	<path
		id="adachi"
		name="Adachi"
		d="M370.5,100.6h7.1l3.5,7.1l1.8-10.6l7.1,7.1l3.5-10.6l7.1,1.8
		l10.6-10.6l17.7,5.3l-17.7-35.4l1.8-15.9l-12.4-7.1l-15.9,12.4l-7.1-12.4l5.3-17.7l-5.3-5.3V14l-7.1,5.3l-23,5.3l-23-1.8L306.9,5.2
		l-17.7,7.1l-7.1,7.1l14.1,24.7l-7.1,12.4h-10.6l-12.4,10.6l-3.5,14.1l14.1,8.8l17.7-5.3v7.1l-14.1,10.6l12.4,7.1l37.1,1.8l8.8,5.3
		l-3.5,7.1l5.3,8.8l30.1,3.5l7.1-7.1l-8.8-19.4L370.5,100.6z"
	/>
	<path
		id="arakawa"
		name="Arakawa"
		d="M299.8,150.1l23,8.8l15.9-10.6l24.7,5.3l7.1-17.7l-30.1-3.5
		l-5.3-8.8l3.5-7.1l-8.8-5.3l-37.1-1.8l-8.8,1.8l-1.8,5.3l24.7,15.9l3.5,5.3l-7.1,3.5l-5.3,5.3L299.8,150.1z"
	/>
	<path
		id="bunkyo"
		name="Bunkyo"
		d="M306.9,173.1l-7.1-8.8v-14.1l-1.8-3.5l-12.4-3.5l-3.5,3.5
		l-7.1-5.3l-10.6,10.6v7.1l-15.9-1.8v10.6l-8.8,3.5l1.8,7.1l3.5,1.8l14.1,8.8l14.1-1.8l3.5,8.8l30.1,5.3l3.5-8.8l1.8-5.3l-7.1-1.8
		l-3.5-14.1L306.9,173.1z"
	/>
	<path
		id="chiyoda"
		name="Chiyoda"
		d="M268,242.1l12.4,8.8l14.1,1.8l15.9-21.2l-3.5-10.6l19.4-14.1
		l-15.9-14.1l-3.5,8.8l-30.1-5.3l-19.4,23v12.4L268,242.1z"
	/>
	<path
		id="chuo"
		name="Chuo"
		d="M303.3,281l12.4,12.4l21.2-17.7l-3.5-31.8l7.1-17.7l-3.5-7.1
		l-1.8-7.1v-1.8l-8.8-3.5l-19.4,14.1l3.5,10.6l-15.9,21.2l5.3,5.3l-3.5,10.6l8.8,7.1L303.3,281z"
	/>
	<path
		id="edogawa"
		name="Edogawa"
		d="M398.8,196.1l15.9,12.4l-1.8,63.6h7.1l-1.8,24.7l14.1,5.3l17.7-1.8l14.1-8.8l5.3-17.7l-1.8-26.5l-1.8-1.8l1.8-10.6l28.3-8.8l15.9-23
		l-3.5-15.9l-21.2-23l-5.3-10.6l5.3-23L473,116.5l-1.8-1.8l-12.4,1.8l7.1,7.1l-12.4,14.1h-5.3l-7.1,42.4l-10.6-3.5L420,182
		l-12.4-14.1l-12.4,7.1l8.8,8.8L398.8,196.1z"
	/>
	<path
		id="itabashi"
		name="Itabashi"
		d="M245,116.5l-8.8-15.9L223.8,90l-5.3-28.3l-8.8,1.8l-8.8-7.1
		l8.8-19.4l-51.3-3.5l-15.9,5.3h-7.1l-5.3,10.6l-17.7,17.7v1.8l14.1,17.7l10.6-3.5l35.4,5.3l7.1,15.9l-1.8,23l10.6,1.8v7.1l15.9-7.1
		l8.8,1.8l7.1,10.6l8.8-15.9h12.4L245,116.5z"
	/>
	<path
		id="katsushika"
		name="Katsushika"
		d="M407.6,167.8L420,182l10.6-5.3l10.6,3.5l7.1-42.4h5.3
		l12.4-14.1l-7.1-7.1l12.4-1.8l-14.1-28.3l3.5-7.1l15.9-10.6v-7.1l-23,3.5l-7.1-10.6l7.1-10.6l-3.5-5.3l-21.2,3.5l-3.5,7.1
		l-12.4-10.6l-1.8,15.9L428.9,90l-17.7-5.3l-10.6,10.6l-7.1-1.8l-3.5,10.6l-7.1-7.1l-1.8,10.6l-3.5-7.1h-7.1l-1.8,8.8l8.8,19.4
		L407.6,167.8z"
	/>
	<path
		id="kita"
		name="Kita"
		d="M285.7,143.1l12.4,3.5l5.3-5.3l7.1-3.5l-3.5-5.3l-24.7-15.9
		l1.8-5.3l8.8-1.8l-12.4-7.1l14.1-10.6v-7.1L276.8,90l-14.1-8.8l3.5-14.1V54.7h-17.7l-5.3-5.3l-19.4-1.8L211.4,37h-1.8l-8.8,19.4
		l8.8,7.1l8.8-1.8l5.3,28.3l12.4,10.6l8.8,15.9l-3.5,8.8l7.1,8.8l3.5-7.1l7.1-1.8l1.8,7.1l10.6-1.8L285.7,143.1z"
	/>
	<path
		id="koto"
		name="Koto"
		d="M315.7,293.3l17.7,28.3l7.1-3.5l8.8,12.4l5.3-7.1l-3.5-15.9
		l8.8-1.8v-5.3l37.1-7.1v15.9l-17.7,5.3l26.5-3.5l1.8-33.6l5.3-5.3l1.8-63.6l-15.9-12.4l-23-8.8l1.8,24.7l-10.6,1.8l-3.5,8.8
		l-26.5-3.5l3.5,7.1l-7.1,17.7l3.5,31.8L315.7,293.3z M379.4,302.2v8.8l5.3-1.8v-5.3l10.6-3.5h-10.6l1.8-3.5L379.4,302.2z
		M386.4,316.3l1.8,17.7l5.3-1.8l5.3,14.1l7.1-31.8L386.4,316.3z M326.3,318.1l-14.1,10.6l3.5,5.3l17.7,30.1l7.1-12.4l-15.9-24.7
		l5.3-3.5L326.3,318.1z M331.6,325.1l12.4,19.4l3.5-7.1l-10.6-15.9L331.6,325.1z"
	/>
	<path
		id="meguro"
		name="Meguro"
		d="M209.7,355.2v-10.6l10.6-14.1l-10.6-3.5l26.5-7.1l-3.5-14.1
		l7.1-7.1l-12.4-1.8L197.3,265l-15.9-3.5l12.4,19.4l3.5,21.2l-8.8,23l-24.7-10.6l7.1,23l-5.3,15.9h19.4l3.5,12.4v-5.3l7.1-1.8v-12.4
		L209.7,355.2z"
	/>
	<path
		id="minato"
		name="Minato"
		d="M229.1,258l3.5,12.4l14.1,3.5v15.9l-5.3,8.8l-1.8,10.6h10.6
		l5.3,5.3l7.1,14.1l30.1-1.8l3.5-5.3V311l-8.8-1.8l1.8-7.1l8.8,3.5l-1.8-14.1L298,281h5.3l1.8-5.3l-8.8-7.1l3.5-10.6l-5.3-5.3
		l-14.1-1.8l-12.4-8.8l-10.6-10.6l-14.1,3.5l-5.3,10.6L229.1,258z M312.2,328.7l14.1-10.6l-7.1-10.6l-7.1,5.3l5.3-3.5l3.5,5.3
		l-12.4,8.8L312.2,328.7z"
	/>
	<path
		id="nakano"
		name="Nakano"
		d="M170.8,215.5l-10.6,7.1l7.1,17.7l26.5-26.5L199,189l8.8-7.1
		l-15.9,1.8l-1.8-3.5l-3.5-8.8l-7.1-1.8l5.3-17.7v-1.8l-8.8-5.3L160.2,159h-21.2L123,143.1H116l-3.5,8.8l10.6,21.2l26.5,12.4h8.8
		l3.5,23l8.8,1.8L170.8,215.5z"
	/>
	<path
		id="nerima"
		name="Nerima"
		d="M32.9,166L61.2,182l1.8-14.1l8.8,3.5l14.1-14.1l26.5-5.3
		l3.5-8.8h7.1l15.9,15.9h21.2l15.9-14.1l8.8,5.3l1.8-3.5l1.8-10.6v-7.1l-10.6-1.8l1.8-23l-7.1-15.9L137.2,83l-10.6,3.5l-14.1-17.7
		l-1.8,19.4l-7.1,1.8L100,83l-23,3.5l8.8-8.8l-10.6-5.3v-1.8h-3.5h-7.1L55.9,83l-15.9,8.8v3.5l-10.6,3.5l8.8,19.4L32.9,166z"
	/>
	<path
		id="ota"
		name="Ota"
		d="M315.7,374.6l-8.8,5.3l-7.1-3.5v15.9H291v-7.1l-10.6-1.8
		l-23,5.3l-3.5-12.4l-12.4,5.3l-5.3-14.1l-15.9-1.8l-10.6-10.6l-14.1-8.8v12.4l-7.1,1.8v5.3l-3.5,14.1l-10.6-10.6l-12.4-1.8
		l-10.6,7.1l7.1,3.5l-3.5,5.3l15.9,5.3l19.4,42.4l30.1,15.9l-7.1,14.1l7.1,12.4l19.4-3.5l12.4-8.8l8.8,5.3l8.8-7.1l24.7,1.8
		l54.8,35.4l14.1-28.3l-31.8-51.3l-19.4,1.8L301.6,433l-7.1-7.1l-7.1,3.5l-14.1-12.4V410H245l54.8-5.3l7.1-7.1v7.1h21.2l5.3-3.5
		l-7.1-10.6l-17.7,5.3l10.6-12.4L315.7,374.6z M276.8,415.3l7.1,7.1l8.8-3.5l-5.3-10.6L276.8,415.3z M292.7,415.3l12.4,10.6
		l10.6-15.9h-21.2L292.7,415.3z"
	/>
	<path
		id="setagaya"
		name="Setagaya"
		d="M66.5,330.4v7.1h8.8l30.1,7.1l33.6,26.5l15.9,12.4l3.5-5.3
		l-7.1-3.5l10.6-7.1l12.4,1.8l10.6,10.6l3.5-14.1l-3.5-12.4h-19.4l5.3-15.9l-7.1-23l24.7,10.6l8.8-23l-3.5-21.2l-12.4-19.4l-7.1-14.1
		h-10.6L131.9,258l-19.4-8.8l-17.7-8.8l7.1,10.6H91.2l-3.5-14.1l-15.9-5.3h-3.5h-8.8l3.5,12.4l-7.1,1.8l8.8,7.1v5.3l-3.5,3.5
		l8.8,21.2v8.8h-7.1l-3.5,8.8l12.4,23L66.5,330.4z"
	/>
	<path
		id="shibuya"
		name="Shibuya"
		d="M181.4,261.5l15.9,3.5l30.1,31.8l12.4,1.8h1.8l5.3-8.8v-15.9
		l-14.1-3.5l-3.5-12.4l8.8-12.4l-5.3-1.8l3.5-10.6l-12.4-12.4l-8.8-1.8L199,231.5l-3.5-5.3l-1.8-12.4l-26.5,26.5l-3.5,7.1h10.6
		L181.4,261.5z"
	/>
	<path
		id="shinagawa"
		name="Shinagawa"
		d="M220.3,365.8l15.9,1.8l5.3,14.1l12.4-5.3l3.5,12.4l23-5.3
		l10.6,1.8v7.1h8.8v-15.9l7.1,3.5l8.8-5.3l-19.4-33.6v-19.4l-3.5,5.3l-30.1,1.8l-7.1-14.1l-5.3-5.3h-10.6l1.8-10.6h-1.8l-7.1,7.1
		l3.5,14.1l-26.5,7.1l10.6,3.5l-10.6,14.1v10.6L220.3,365.8z M315.7,334l-3.5-5.3l-3.5-5.3h-1.8l3.5,12.4L315.7,334z"
	/>
	<path
		id="shinjuku"
		name="Shinjuku"
		d="M276.8,196.1l-3.5-8.8l-14.1,1.8l-14.1-8.8l-21.2-1.8
		l-1.8-15.9l-28.3,1.8l-8.8-12.4l-5.3,17.7l7.1,1.8l3.5,8.8l1.8,3.5l15.9-1.8L199,189l-5.3,24.7l1.8,12.4l3.5,5.3l15.9-12.4l8.8,1.8
		l12.4,12.4l-3.5,10.6l5.3,1.8l5.3-10.6l14.1-3.5v-12.4L276.8,196.1z"
	/>
	<path
		id="suginami"
		name="Suginami"
		d="M167.2,240.3l-7.1-17.7l10.6-7.1v-5.3l-8.8-1.8l-3.5-23h-8.8
		L123,173.1l-10.6-21.2l-26.5,5.3l-14.1,14.1l-8.8-3.5L61.2,182l12.4,10.6L61.2,212l10.6,7.1l-5.3,3.5l5.3,8.8l15.9,5.3l3.5,14.1
		h10.6l-7.1-10.6l17.7,8.8l19.4,8.8l31.8-10.6L167.2,240.3z"
	/>
	<path
		id="sumida"
		name="Sumida"
		d="M335.2,212l1.8,7.1l26.5,3.5l3.5-8.8l10.6-1.8l-1.8-24.7
		l23,8.8l5.3-12.4l-8.8-8.8l12.4-7.1l-30.1-38.9l-7.1,7.1l-7.1,17.7l-3.5,15.9l-24.7,40.7V212z"
	/>
	<path
		id="taito"
		name="Taito"
		d="M326.3,206.7l8.8,3.5l24.7-40.7l3.5-15.9l-24.7-5.3L322.8,159
		l-23-8.8v14.1l7.1,8.8l-5.3-1.8l3.5,14.1l7.1,1.8l-1.8,5.3L326.3,206.7z"
	/>
	<path
		id="toshima"
		name="Toshima"
		d="M285.7,143.1l-14.1-12.4l-10.6,1.8l-1.8-7.1l-7.1,1.8
		l-3.5,7.1l-7.1-8.8h-12.4l-8.8,15.9l-7.1-10.6l-8.8-1.8l-15.9,7.1l-1.8,10.6l-1.8,3.5v1.8l8.8,12.4l28.3-1.8l1.8,15.9l21.2,1.8
		l-3.5-1.8l-1.8-7.1l8.8-3.5v-10.6l15.9,1.8v-7.1l10.6-10.6l7.1,5.3L285.7,143.1z"
	/>
</svg>
