<svg
	xmlns="http://www.w3.org/2000/svg"
	viewBox="0 0 919 793"
	aria-label="Map of Greece"
>   
	<path
		id="attica"
		name="Attica"
		d="m 351.60553,674.02283 0.55,-1.11 1.78,1.17 0.88,3.04 -0.14,3.48 -0.69,-1.53 -2.57,-2.02 -1.77,-5.64 1.13,0.67 0.83,1.94 z m -30.15,-55.26 2.9,6.58 5.44,3.31 5.01,5.1 0.1,0.88 -1.16,1.76 -0.95,-0.24 -2.39,0.47 -0.82,4.49 0.19,2.23 0.9,1.11 -0.56,0.1 -0.34,1.79 -1.12,-0.2 -1.12,-1.24 -1.48,0.72 -0.61,-0.95 -0.89,1.57 -1.17,-2.09 -1.3,0.3 -1.85,-0.98 -0.89,-1.8 -2.05,-2.83 0.75,-1.41 -1.44,-2.11 1.3,-1.62 0.54,0.33 0.47,-0.64 -1.11,-2.08 0.83,-2.08 -0.52,-1.77 -2.33,-2.02 1.42,-3.72 1.45,-1.56 -0.15,-1.01 1.48,0.08 1.03,-1.08 0.44,0.61 z m 85.18,-124.26 2.16,1.02 1.17,2.51 -1.8,-0.79 -0.53,-1.29 -1.67,-1.33 0.67,-0.12 z m -37.71,-7.36 -0.69,1.32 0.92,-0.07 -0.3,1.72 0.72,-0.7 0.83,0.38 0.27,1.22 0.77,-0.54 1.09,0.92 -2.31,1.95 -3.42,-0.53 0.17,1.48 -0.97,-0.62 0.48,-0.86 -1,-0.08 -1.09,-1.35 -0.87,0.23 0.14,-1.06 1.96,0.25 2.54,-1.02 -0.25,-2.11 1.01,-0.53 z m -8.83,-9.33 1.56,0.7 1.1,2.44 -0.78,2.41 -1.66,1.48 -0.03,1.86 -1.23,0.71 -0.79,-0.5 4.82,3.75 -0.97,0.96 -2.09,-0.12 0.78,1.21 0.85,-0.31 3.14,0.77 3.54,2.05 0.06,1.16 1.86,0.37 1.77,1.8 -0.25,1.71 0.72,0.4 -2.39,1.68 -6.59,1.29 0,0 0.31,-1.3 2.33,-3.02 -0.06,-1.41 -2.64,-0.83 -1.82,1.42 -3.05,-0.69 -1.93,0.31 -0.38,-1.37 -2.8,0.24 -0.14,-2.39 -0.68,-0.57 -2.41,0.11 -0.63,-0.78 -1.75,-0.17 -1.78,-1.81 -4.59,-0.69 -0.94,-1.14 0.12,-2.08 0.77,-1.37 0.83,-0.22 0.46,-1.05 -0.38,-0.86 1.11,-1.3 0,0 3.95,1.35 1.76,1.44 0.59,1.78 2.89,1.09 1.31,1.6 1.4,0.01 3.19,-2.26 -0.88,-0.82 0.06,-1.75 -1.08,-0.54 0.1,-0.71 -1.33,-1.61 -1.45,-1.26 -1.13,0.03 1.87,-2.29 5.38,-0.91 z m 51.06,-1.82 0.72,1.33 -2.31,-0.34 0.35,-0.98 1.24,-0.01 z m -54.11,-6.17 1.33,0.05 0.62,1.95 -2.22,1.21 -0.65,1.07 -1.47,-0.33 -0.12,-1.09 1.19,-2.35 0.74,-0.72 0.58,0.21 z m 12.43,-6.98 5.63,0.11 1.16,0.23 0.1,0.65 -0.99,2.18 -1.69,0.34 0.56,1.5 -1.8,2.06 0.31,2.04 -4.05,2.07 -2.8,-1.62 0.37,-0.27 -0.48,-0.37 1.78,-0.52 -0.34,-1.21 -0.7,-1.29 -2.03,-0.8 -1.55,-3.82 0.73,-0.62 5.79,-0.66 z m -6.74,-21.9 0.92,0.13 -1.37,-0.19 0.45,0.06 z m 6.92,-4.04 2.53,0.7 1.1,0.96 0.98,-0.85 -1.29,2.49 1.33,1.34 -1.19,-0.53 -0.27,0.92 2.04,0.5 -1.03,0.42 0.41,0.44 3.27,-0.09 -3.65,0.73 -0.21,0.92 0.92,0.78 -1.19,0.48 -0.02,1.12 -1.75,-0.24 0.17,1.96 -1.03,-0.72 -1.35,0.27 -0.45,1.53 -1.24,0 -2.47,1.48 -1.36,-1.69 -2.37,-0.68 0.59,-0.74 -0.37,-1.51 0.64,-0.58 -0.5,-1.1 5.58,0.66 2.92,-4.49 -2.23,0.26 -1.1,0.98 -2.79,-0.59 -0.76,0.63 0.13,-0.71 -0.74,0.06 2.41,-0.75 0.64,-0.83 -3.08,-0.96 1.23,-0.59 2.4,0.91 1.41,-0.32 0.41,-0.78 -0.79,-0.91 2.12,-0.88 z m 21.57,-37.95 0.31,0.4 2.93,-0.79 1.58,1.93 1.92,-0.76 2.23,1.91 3.22,0.46 2.32,1.55 1.14,-0.43 4.2,1.55 4.27,4.71 3.99,2.99 0.36,1.02 2.08,0.93 0.05,0.86 -1.05,0.22 -0.36,0.89 1.97,2.27 -1.65,0.38 0.4,0.97 -0.76,0.52 -0.51,0.41 -1.09,-0.06 -2.39,1.08 -2.85,2.94 0.33,2.28 1.61,2.15 -0.49,1.85 0.32,2.08 0.81,0.81 -0.07,1 0.85,0.02 1.22,2.81 -1.88,1.22 -0.2,2.44 0.88,1.9 -1.63,1.99 2.84,0.31 1.35,2.31 -1.35,1.31 -1.74,-0.31 -0.31,0.43 0.59,0.94 0.93,1.27 0.93,0.27 -0.03,-0.64 0.73,-0.27 -0.3,1.44 1.5,0.63 -0.82,2.35 1.03,0.91 -1.2,0.75 1.55,0.84 -0.12,1.02 1.97,1.05 -0.35,0.71 0.55,1.09 -0.65,2.51 -0.49,0.08 0.62,1.54 -1.41,-0.15 -0.33,0.76 -0.69,0.6 0.05,0.98 0.82,0.2 0.28,0.92 -0.95,0.45 0.98,1.4 0.48,1.78 -0.54,0.75 -1.15,-0.28 -0.16,0.93 -1.62,1.21 -0.22,1.15 -0.6,0.03 -0.32,-0.88 -0.83,0.34 -1.87,-0.83 -0.93,0.67 -0.86,-1.19 -2.89,-0.54 -0.24,-4.1 0.83,-1.48 -0.91,-0.42 -1.02,1.26 -1.2,-0.64 -0.75,-1.65 0,-4.43 -0.88,-0.63 -0.58,0.51 0.32,-0.86 -1.84,-1.24 -0.19,-0.79 -1.57,-0.54 -1.24,-1.44 -0.29,0.9 -0.72,-0.09 -0.79,-1.29 -1.09,0.3 -0.48,2.11 -0.91,0.34 -0.73,-1.84 -0.83,1.73 -0.42,-0.71 0.68,-0.77 -1.53,-0.33 1.16,-0.66 0.08,-1.72 -1.69,-1.72 -0.96,0.12 1,-1.21 -1.6,-1.57 -0.5,0.28 -0.3,-0.8 0.6,0.31 -1.35,-2.1 0.24,-1.22 -1.5,-0.65 0.65,-0.19 -0.44,-0.43 -0.13,0.53 -0.3,-0.98 -1.61,-1.11 0.68,-1.17 -1.42,-0.49 -2,1.2 -0.24,-0.59 -0.37,1.27 -1.08,0.17 -0.83,-0.86 1.4,-0.48 0.31,-1.27 -1.82,1.18 -0.6,-0.49 0.22,-0.68 -0.96,0.16 0.38,-1.54 -1.23,0.54 -0.33,-0.5 -3.48,0.23 -0.26,-2.07 1.72,-1.37 -1.24,-1.11 2.16,0.54 1.71,-1.41 -0.68,-0.61 0.45,0.13 -0.17,-2.4 -1.84,-1.28 -1.85,0.06 -1.19,1.27 -1.79,-1.4 -0.66,0.91 -1.12,-0.19 -1.25,1.51 -3.27,0.09 -2.95,2.86 -0.33,1.32 -2.45,0.88 2.95,1.21 -1.98,0.33 -0.25,-0.75 -3.19,0.07 -0.56,-0.58 -2.57,0.08 -1.74,0.81 -2.6,-0.84 -2.88,0.11 -5.57,2.69 0,0 -1.14,-2.22 -3.57,-1.06 -2.04,-1.37 0.46,-2.1 1.56,-1.39 -1.26,-0.68 0.25,-3.6 0,0 4.61,-1.44 1.19,-1.8 2.87,-1.1 0.12,-2.02 -1.05,-1.06 -0.38,0.42 -1.85,-0.32 -0.4,-2 3.56,-0.06 0.89,-0.78 -0.24,-0.8 -3.45,-1.09 -4.72,0.41 -0.47,-0.53 0,0 7.16,-1.59 1.44,-0.92 1.81,0.68 4.19,-0.14 1.03,-1.57 -1.1,-3.31 0.36,-1.33 1.62,-0.49 1.24,-2.1 3.26,0.26 2.06,-1.08 1.26,1.81 -0.58,2.22 -1.81,0.6 0.54,1.81 1.71,0.03 0.76,0.88 4.58,-0.18 0.67,4.64 0.7,0.96 3.4,0.68 1.05,1.97 4.13,-0.51 1.28,-2.06 1.46,-0.1 2.92,-1.57 -0.05,-1.9 1.35,-1.67 -0.83,-0.69 0.49,-2.65 -0.7,-0.82 0.56,-3.97 1.92,-2.79 0.65,-2.44 2.1,-0.51 0.11,-1.69 0,0 2.08,0.62 1.35,-0.69 0.16,0.54 z"
	/>
	<path
		id="central-greece"
		name="Central Greece"
		d="m 439.16553,435.12283 1.1,0.66 0.46,1.34 -0.52,2.15 -1.15,0.33 -1.28,-0.68 -0.3,0.93 -1.15,-0.32 -0.53,-0.77 1.23,-3.79 0.83,0.12 0.4,-0.74 0.91,0.77 z m 1.88,-2.29 0.71,0.31 -0.22,2.65 -1.43,-0.85 0.12,-1.87 0.82,-0.24 z m 29.47,-82.03 0.93,0.07 -0.06,1.08 -2.82,-0.58 0.57,-1.34 1.38,0.77 z m -9.93,-9.24 -1.43,4.56 -1.05,-1.12 1.9,-3.39 0.58,-0.05 z m -13.5,-1.11 1.56,1.4 -1.5,1.04 -1.23,-1.15 1.17,-1.29 z m 12.25,-14.53 8.03,5.7 -0.95,2.22 0.61,2.8 -0.78,0.75 0.53,0.78 0.55,-0.42 1.36,0.43 1,1.77 0.88,-0.11 4.48,3.43 0.52,1.46 0.89,0.36 0.34,1.77 -0.75,0.47 0.42,1.64 -3.95,0.99 -0.28,-1.15 -1.19,1.39 -1.23,-0.8 -1.18,-2.15 -0.9,-0.13 -1.35,1.01 -0.44,-0.31 0.18,2.66 -1.42,-1.09 0.24,-1.22 -0.94,0.1 0.09,-0.91 -0.85,0.54 -0.44,-0.61 0.21,-1.04 0.63,0.38 0.72,-1.09 1.19,0.17 0.69,-0.66 -0.36,-3.68 -0.82,-0.35 -1.38,0.99 -0.56,-1.72 -0.82,0.54 -0.87,-0.37 -1.07,0.99 0.66,-1.98 -2.66,0.45 -0.42,-2.41 -0.95,0.82 -0.65,-1.49 -0.86,0.55 -1.53,-0.16 -0.15,-0.54 2.04,-1.58 0.12,-1.56 1.2,-0.75 -0.13,-1.64 -1.12,-0.41 -0.39,-1.25 1,-1.71 -0.39,-0.45 1.12,-0.48 0.27,-0.94 0.92,0.02 0.31,-1.09 0.58,1.07 z m -106.57,-7.5 1.47,0.24 1.7,2.51 3.35,0.97 0.22,1.14 -0.67,1.48 1.24,2.47 4.06,0.86 0.37,1.6 -0.81,2.17 0.22,2.15 1.05,1.93 0.83,0.28 -0.96,0.63 1.91,3.62 2.11,1.92 3.03,1.08 0.28,1.48 0.75,-0.14 1.04,1.22 1.99,0.49 1.14,1.8 0.59,-0.88 0.83,0.23 -0.19,2.3 1.49,-0.77 2,1.89 1.26,0.28 0.54,-0.9 1.89,1.08 1.46,-0.26 1.82,-1.81 3.15,4.73 1.14,0.48 -0.26,0.8 0.66,1.11 1.55,0.82 2.73,0.2 4.95,2.9 3.14,-0.82 5.39,2.07 2.36,-1.57 0.04,-0.88 2.47,1.06 -0.04,-0.81 1.55,-0.08 0.31,0.49 1.43,-1.24 0.14,0.56 2.82,0.32 6.87,3.1 -0.02,0.77 -1.35,0.03 -1.54,1.91 0.05,3.64 3.26,3.45 6.48,4.83 -3.97,4.57 0.36,3.63 -0.76,0.55 0.31,1.18 -0.46,0.39 0.33,0.8 1.21,0.16 0.78,2.14 -1.44,-0.26 -0.82,1.81 2.67,1.55 -0.07,1.29 0.68,0.78 -0.3,1.75 -0.91,0.99 1.39,0.74 -0.3,0.47 0.84,1.3 1.08,-0.02 -0.39,1.41 1.88,1.81 -0.3,3.7 0.56,0.76 -1.05,0.76 0.14,1.44 2.16,3.46 2.15,0.47 0.24,0.9 1.5,0.64 1.06,-0.67 0.66,1.19 -0.63,0.98 1.92,1.41 4.17,-1.27 0.58,1.33 2.04,1.12 1.77,-0.17 1.44,0.67 4.07,-0.72 3.8,0.71 3.26,-2.1 0.54,0.34 -0.06,2.15 -1.44,3.59 0.64,1.57 -0.35,1.5 1,1.96 -0.45,4.28 -1.49,1.61 0.44,0.84 -1.42,1.58 0.08,1.03 -1,0.81 -0.65,0.41 -0.79,0.07 -0.38,1.19 -1.18,0.76 -1.71,0.13 -1.96,-1.16 0.42,-1.08 -1.62,-3.45 -3.65,-1.47 -2.37,0.87 0.31,0.91 -0.74,0.16 -0.11,1.18 0.67,0.92 0.83,-0.06 -1.47,0.84 0.03,1.1 -1.11,-0.26 -0.09,-0.76 -3.1,-2.01 -0.56,-2.75 -0.99,-0.5 -0.41,0.54 -1.06,-1.7 0,-0.78 1.53,-1.24 -1.25,-2.86 -1.82,0.15 -0.31,-1.7 -2.25,-1.27 -5.22,0.91 1.16,-4.15 -0.62,-0.5 -1.99,0.42 -0.45,-0.68 1.14,-2.19 1.29,-0.29 0.43,-1.6 -0.35,-1.69 -1.31,-1.01 -0.58,-2.92 -2.31,-1.52 -1.79,0.26 0.86,1.59 -1.45,-0.69 -0.59,1.27 -0.96,-1.45 1.99,-2.26 0.85,-2.48 0.97,-0.61 -0.48,-1.3 -1.35,-0.28 0.18,0.72 -0.85,0.13 -0.62,1.9 -1.05,0.67 -1.05,-1.09 0.68,-0.35 -0.52,-0.5 0.43,-0.78 -1.04,-0.5 0.96,-1.03 0.79,0.08 0.52,-1.73 -1.01,0.3 0.09,-1.82 -2.04,-0.86 -1,0.56 -0.39,-0.89 -1.89,0.56 -2.53,-0.73 0.38,-0.93 0.59,0.42 2.29,-0.87 -0.9,-3.17 0.86,-1.37 -0.82,-1.63 -2.75,0.54 -1.97,-1.64 -2.94,2.11 -6.32,0.25 -3.27,-1.81 -2.95,-0.62 -3.04,1.92 -8.35,-2.87 -2.09,0.25 -1.06,1.39 -1.24,-0.07 -1.58,-3.27 -0.82,-0.43 -0.01,-1.84 -0.99,-0.9 -0.47,0.65 -0.71,-0.42 -0.3,0.82 -0.57,-0.23 0.15,-0.85 -0.02,-0.71 1.29,-1.71 0.87,0.78 1,-0.63 0.33,-2.27 0.67,-1.22 -0.1,-0.78 -0.57,0.07 -0.3,-3.39 -2.08,-2.11 -0.16,-1.06 -2.59,-0.22 -1.16,-1.13 -2.8,0.55 -1.34,-1.05 -1.85,-5.53 -3.79,-1.81 -1.76,-3.82 -3.73,-1.56 -3.44,-3.3 -2.44,-4.17 -2,-0.94 -1.56,0.34 -0.39,-1.15 -3.96,-2.64 -3.26,-3.88 -5.41,-2.05 -5.01,1.54 -3.43,-1.72 -1,-3.26 -3.68,0.29 -2.54,-1.07 -1.2,0.91 -0.1,0.86 2.93,0.32 1.02,1.24 -0.25,1.22 -2.91,1.64 -6.5,-0.25 -5.03,1.57 0.47,-2.79 1.49,-2.42 4.61,-0.79 0.38,-0.8 2.74,-0.78 0.21,-0.68 4.79,-1.7 1.35,0.08 0.49,-0.48 1.97,-1.37 0,-1.29 1.18,-0.8 2.95,0.35 0.97,-4.68 3.4,-2.76 2.49,-0.32 2.09,0.71 2.23,-0.14 2.06,-1.92 2.39,-0.3 2.18,-1.68 2.15,-0.26 z m -171.08,-14.53 4.29,-2.82 -0.05,-1.83 1.45,0.2 0.83,-1.18 2.78,-1.41 0.5,-1.25 1.09,1.3 2.76,1.07 0.88,-0.28 0.71,-1.67 1.18,-0.91 2.67,-0.09 1.63,-1.55 2.11,0.6 2.43,-0.27 1.98,2.63 -1.41,1.68 1.04,3.05 3.84,0.99 -1.49,3.94 0.4,3.22 4.27,1.13 2.75,-1.51 2.59,-3.97 1.9,0.27 1.47,3.15 1.66,0.48 0.88,1.71 2.67,0.53 0.86,2.06 0.55,6.39 0.6,0.56 3.56,-1.64 1.57,0.53 1.09,-1.3 0.84,0.43 1.1,-0.57 0.77,-0.59 -0.84,-0.98 -0.19,-2.05 1.83,-1.07 0.77,-1.48 3.56,0.37 4.13,-2.79 0.3,-1.57 -0.7,-2.84 2.93,-1.71 0.37,-1.83 2.16,-1.91 1.35,-3.4 1.83,-1.2 0.3,-3.12 1.42,-0.04 2.01,4.2 9.35,1.07 1.3,1.36 0.24,2.11 2.75,1.18 1.05,2.48 -0.51,2.88 1.35,0.63 1.47,-0.79 2.34,1.35 -1.07,1.85 0.56,0.85 -0.4,1.39 0.81,0.47 0.13,3.05 -0.87,2.15 4.39,-0.32 2.84,0.7 1.25,-0.42 1.22,0.93 2.4,-1.47 3.46,-0.32 1.73,0.7 -0.18,1.58 2.24,1.96 2.07,0.51 1.29,-0.55 0.86,2.1 8.94,0.01 0.88,-0.76 2.05,3.28 4.17,0.82 3.07,-0.77 2.4,-1.82 0.21,-1.14 2.06,-0.33 0,0 -0.94,3.4 -1.5,1.13 -0.3,2.52 -1.91,-0.93 -1.92,1.79 -1.04,-0.87 -0.41,0.78 0.74,1.02 -1.52,0.36 -0.45,0.78 -5.59,-0.84 -1.64,1.92 0.26,1.85 -0.99,0.62 -2.25,0.22 -1.69,1.1 -1.01,-0.34 -1.43,1.34 -3.02,-0.8 -1.41,-1.45 -1.35,1.11 -2.25,-0.45 -1.83,-2.42 -2.22,-0.31 -0.52,-0.68 -1.32,0.31 -2.48,2.29 -2.44,0.8 -0.1,0.85 0.66,0.34 -2.48,1.53 1.29,0.21 2.22,-1.3 1,0.31 -2.35,1.89 0.56,0.04 -0.39,1.69 1.83,-0.75 0.24,1.81 1.09,-0.07 0.58,-1.43 -0.33,-0.61 0.84,-0.02 -0.3,1.24 0.73,1.34 1.97,-1.79 1.52,0.65 3.59,-1.08 1.1,-1.31 0.92,2.31 1.65,0.88 3.76,4.98 1.06,0.39 0.88,-0.71 1.7,0.21 1.56,-0.96 3.67,4.03 3.06,-2.52 2.05,0.64 1.28,1.95 2.7,0.87 4.76,-0.48 1.32,-0.8 2.74,3.78 -0.12,4.39 1.95,3.65 0.05,1.3 1.05,0.02 0.96,1.88 1.45,-1.44 0.61,0.47 0.46,-1.27 2.2,-0.26 1,-0.05 1.69,-0.43 0.13,-0.67 -2.35,-2.05 2.92,-0.62 4.66,4.02 2.67,-0.61 2.93,0.94 2.11,2.31 0.34,1.83 -1.58,1.59 -1.45,0.37 -1.65,2.01 -0.36,1.93 1.15,-1.69 1.73,-0.06 0.27,1.76 0.68,0.37 0.04,0.98 0.1,0.54 0.62,0.62 0.92,-0.73 2.94,1.43 -0.48,0.54 -3.6,0.37 -0.28,2.22 1.45,-0.01 0.96,-0.69 1.09,-0.64 3.13,0.07 0.73,1.33 4.61,-0.09 1.33,1.4 3.28,0.79 2.13,-3.42 1.26,0.46 3.66,3.92 -0.41,1.11 -1.1,-0.07 -1.03,1.06 0.44,0.84 2.61,0.4 0.13,0.71 -0.6,-0.06 0.94,1.51 -0.75,0.88 1.59,-0.2 1.78,0.87 -0.41,2.25 1.15,2.84 3.26,3 1.18,-0.05 0,0 -0.11,1.69 -2.1,0.51 -0.65,2.44 -1.92,2.79 -0.56,3.97 0.7,0.82 -0.48,2.65 0.83,0.69 -1.35,1.67 0.05,1.9 -2.92,1.57 -1.46,0.1 -1.28,2.06 -4.13,0.51 -1.05,-1.96 -3.4,-0.68 -0.7,-0.95 -0.67,-4.64 -4.58,0.18 -0.76,-0.87 -1.71,-0.03 -0.54,-1.81 1.81,-0.6 0.58,-2.22 -1.26,-1.81 -2.06,1.08 -3.26,-0.26 -1.24,2.11 -1.62,0.49 -0.36,1.33 1.1,3.31 -1.03,1.57 -4.19,0.14 -1.81,-0.68 -1.44,0.92 -7.16,1.59 0,0 1.52,-1.65 -2.75,-2.81 -4.05,4.15 -0.78,-0.95 -2.67,0.01 2.09,-1.73 -2.15,-1.31 -0.28,-0.9 -4.75,-0.08 -0.91,-0.03 -0.89,-1 -1.15,0.94 -1.18,-0.23 -0.61,1.67 1.16,0.44 0.53,-0.99 0.74,-0.04 1.3,0.74 0.79,1.46 -2.57,0.57 -2.41,-1.44 -1.67,-4.58 -0.76,0.03 -0.34,1.52 -1.51,-1.18 -2.35,0.84 -3.09,-0.93 -1.2,-0.23 -1.26,0.13 -1.4,-1.52 1.22,-1.32 0.62,-0.68 1.26,-0.49 -0.01,-0.74 -3.85,-1.24 -0.38,-1.17 -5.11,-2.25 -1.17,-2.98 0.82,-0.59 -0.36,-1.8 -2.45,-2.47 -2.64,1.23 1.72,1.01 -1.01,1.93 -1.04,-0.33 -0.47,-1.32 -0.94,0.93 -0.55,-0.35 -0.75,0.68 -0.82,3.01 1.94,1.04 -1.68,1.33 -0.02,1.95 -0.42,1.04 -2.84,-0.41 0.02,-1.25 -1.33,-2.42 -1.72,-1.41 0.3,-0.73 1.54,-0.15 -0.05,-0.89 -2.23,-1.95 -0.75,-2.38 -1.95,-1.56 -2.51,-3.68 -3.35,-0.5 -0.05,-1.39 -0.85,0.09 -0.61,-0.73 -0.25,1.88 0.7,0.49 0.26,1.63 0.66,0.22 -1.26,0.49 -0.7,-0.42 -1.94,2.35 1.24,1.9 0.92,-0.51 0.4,1.64 -1.65,0.05 -0.39,2.01 0.49,-0.63 0.93,0.44 -1.41,0.96 -0.17,0.81 -1.7,-0.42 -0.02,-1.41 -3.15,0.57 -2.21,-1.39 0.03,0.99 -1.12,1.04 -3.21,-2.8 -0.75,1.21 -1.07,-0.82 -3.13,2.4 -0.91,1.96 -2.46,-3.22 -0.59,0.71 -1.26,-0.57 0.42,-0.16 -0.35,-1.01 -0.88,-0.18 -0.19,-0.82 -1.16,0.21 -0.41,-0.59 -0.39,0.42 -3.38,-1.77 -1.35,-1.44 -4.25,0.54 -0.95,-1.08 -3.2,-0.66 -2.06,-0.11 -3.45,4.1 -1.9,0.25 -2.02,-0.69 -0.13,-0.74 0,0 2,-2.57 0.85,-7.49 8.11,-3.64 2.05,-1.7 -0.77,-3.04 1.79,-4.79 -0.34,-0.82 -3.71,-1.41 0.94,-1.63 2.05,-0.54 0.17,-1.41 -1.45,-1.58 -0.13,-2.5 0.68,-1.36 -0.64,-1.42 0.98,-2.4 2.35,-1.2 0.04,-1.69 -2.43,-3.49 -2.31,0.44 -0.9,-1.04 -1.71,-0.11 0.26,4.42 -0.43,0.44 -3.88,1.42 -1.62,-1.04 -4.01,0 -1.88,5.72 -3.2,1.03 -0.47,-0.11 -0.09,-3.54 -0.51,-0.71 -0.6,-0.22 -1.92,1.31 -3.37,0.11 -2.01,-1.42 -2.73,0.05 -4.18,-1.2 -1.88,-1.25 -1.45,-6.05 -0.85,-1.15 1.54,-1.96 0.68,-3.38 3.76,-0.38 0.73,-0.44 -0.04,-1.42 -0.85,-1.59 -8.2,-2.51 -2.35,-3.88 -0.94,-4.65 -5.72,-2.13 -3.84,-2.52 -0.34,-1.7 1.92,-3.07 1.11,-0.22 2.01,-5.31 -3.03,-3.67 -0.03,-3.51 0,0 0.01,-0.06 z"
	/>
	<path
		id="central-macedonia"
		name="Central Macedonia"
		d="m 360.00553,190.79283 0.98,-0.07 2.05,1.63 2.06,2.89 1.01,3.32 3.58,4.34 9.37,4.73 5.65,1.91 0.56,-0.35 1.24,1 -0.3,1.28 0.8,0.41 0.58,2.75 1.72,0.71 3.1,-0.69 0.4,2.16 -3.06,0.96 -2.6,-1.05 -2.9,0.34 -5.48,-0.77 -1.3,-1.24 -2.25,-0.45 -8.16,-4.08 -1.9,-0.07 -2.3,1.22 -3.57,-0.33 -1.98,0.93 1.9,-3.32 0.55,-2.3 -1.7,-2.42 -2.06,-5.05 -2.29,-1.4 -0.14,-2.25 -0.75,-0.19 1.63,-3.13 -0.44,-1.95 0.83,-4.36 -0.42,-1.79 1.11,-0.08 1.3,1.79 1,3.59 2.18,1.38 z m 47.83,-23.13 0.67,0.34 -0.09,1.71 1.24,0.21 0.92,0.97 -2.56,-0.42 -0.76,-1.08 -0.42,0.33 -2.03,-1.23 2.78,-1.43 0.25,0.6 z m -39.2,-125.529999 4.1,-0.65 2.01,2.07 2.68,-0.37 1.64,1.51 2.78,0.13 0,0 0.71,6.78 5.57,0.85 1.67,1.19 0.13,2.46 -1.73,3.48 0.71,2.89 1.67,1.78 -0.83,1.95 0.45,0.68 2.5,0.42 4.29,5.26 5.38,1.95 7.3,5.42 1.22,-0.34 2.75,-3.22 4.8,3.13 0.32,1.1 -0.7,2.79 7.49,6 -0.83,2.79 0.51,2.2 -1.79,3.13 0.51,2.03 -0.58,0.34 -1.28,-0.93 -1.47,0.08 -0.13,3.169999 -2.62,0.08 -3.33,2.95 -1.09,2.62 -3.91,2.95 -1.22,0.67 -3.01,-0.25 -1.41,1.1 -0.9,1.1 0.43,2.18 0,0 -3.15,-0.56 -4.44,1.65 -1.97,1.6 -2.21,0.25 -3.11,5.32 -0.77,4.46 4.2,1.86 3.63,4.81 0.34,2.68 1.12,-0.06 0.51,1.41 1.53,0.06 1.14,2.64 1.95,-0.28 2.36,0.85 0.37,-0.72 1.06,0.64 -0.2,1.01 2.27,1.31 -0.73,1.15 -1.41,0.51 -5.57,0.17 -0.91,1.5 -0.31,2.32 0.9,3.92 0.79,1.43 0.61,-0.1 1.61,3.09 2.39,2.27 3.58,1.57 2.75,-0.13 1.05,0.65 3.28,-1.22 0,0 0.85,5.67 -1.07,3.03 0,0 -2.28,-1.2 -1.56,-2.59 -2.16,-1.35 -3.16,-1.01 -1.42,0.65 -3.24,-1.21 -4.07,1.78 -2.21,2.11 -4.19,-1.89 -0.89,2.45 -1.64,-0.1 -1.13,3.39 -0.06,2.21 1.26,3.17 1.38,0.75 1.25,2.65 0.32,-1.05 0.65,0.2 1.12,0.81 -0.26,1.87 1.49,2.62 1.45,0.49 1.57,-0.78 1.53,1.64 7.97,2.6 1.79,2.28 3.7,1.47 0.4,1.08 1.45,1.03 -1.43,0.77 -0.14,1.89 2.15,2.27 0.51,1.39 -1.61,0.36 -0.5,0.82 0.4,0.92 2.66,-0.15 0.31,3.44 -1.05,1.14 -1.3,0.13 0.43,0.71 -0.86,-0.04 -0.33,0.62 1.28,1.72 -3.17,0.76 1.04,0.79 1.48,0.07 -0.35,0.98 -2.72,0.07 -1.26,1.18 -1.53,0.11 0.35,-1.14 -1.21,-0.1 -0.3,-1.24 0.85,-0.16 -0.16,-0.7 -0.68,-0.62 0.22,0.96 -1.57,0.22 -0.3,-1.15 0.52,-1.34 -1.35,-1.57 -1.44,0.02 -0.47,-1.34 -2.76,-1.92 -0.92,0.05 0.22,1.76 -0.58,0.27 -0.42,-0.64 0.46,-0.93 -1.35,-2.04 0.34,-0.71 -1.88,-1.52 -0.41,-1.13 0.48,-2.6 -1.61,-0.85 -0.1,-2.5 -1.06,-1.47 -2.45,-1.46 -1.63,-4.05 -1.44,-1.68 -1.02,0.04 -0.75,-0.72 -0.3,-1.39 -1.98,-1.77 -3.39,-0.54 -2.85,0.34 -2.76,-1.24 -1.16,0.21 -3.92,-2.81 -8.65,-2.39 -4.38,4.25 -1.58,2.88 -0.01,2.31 -1.04,0.02 -0.82,-2.89 -1.78,-1.6 -1.54,-0.05 -0.67,-0.77 -4.54,-1.56 -1.95,-0.08 -1.87,-1.58 -2.92,-0.42 -3.54,-2.85 -7.47,-3 -0.52,-2.43 -2.78,-2.64 -2.12,-0.33 -0.83,-1.04 -1.35,-0.22 -4.12,0.93 1.28,-2.87 -1.81,-3.17 -1.61,-0.96 0.02,-1.6 -1.06,-2.37 -3.43,-1.22 0.18,-2.78 1.58,-0.71 4.61,0.67 3.75,-1 3.85,-2.63 0.87,-1.98 -4.1,-3.55 1.27,-1.98 -0.2,-3.67 -3.06,-1.4 -0.14,-0.24 -1.73,-0.34 -2.74,2.21 -1.26,-0.48 -1.23,1.31 2.11,0.56 0,2.13 -2.23,2.28 -4.05,1.74 -1.32,-0.93 -1,0.37 -1.62,0.78 0.05,2.26 -0.05,0.75 -0.37,0.45 0.43,0.59 0.27,0.66 -0.47,0.79 -0.47,0.56 -0.99,0.72 -0.87,-0.11 -0.99,-1.99 -1.29,0.02 0.75,-1.16 -1.55,-0.08 -3.12,1.54 0.53,0.46 0.75,2.29 1.41,1.01 -1.79,-0.04 -0.54,0.74 -0.78,-0.55 0,1.21 -1.03,0.19 -0.82,-0.8 0.57,-0.27 -0.76,-0.13 -0.45,1.2 -1.09,-0.47 -1.43,1.27 1.85,2.54 0.48,4.16 1.51,3.32 2.72,1.38 0.33,0.79 -5.21,9.41 -1.62,6.03 0.39,2.28 -3.18,4.64 -0.61,3.03 1.82,5.45 0.29,4.91 1.11,1.42 1,3.63 3.83,3.33 3.1,1.38 0,0 1.52,1.27 -2.06,1.84 -1.28,-2.21 -2.68,-0.76 -1.95,1.6 -6.66,1.12 -1.11,-1.22 -0.88,-0.07 -0.58,-1.17 -1.03,-4.87 -3.73,-1.98 -1.29,-1.61 -1.84,0.75 -1.09,-1.69 -1.78,1.13 -0.27,-1.11 -1.07,-0.54 -0.28,-1.47 -1.26,-0.31 1.67,-3.38 0.62,-4.85 -1.39,-0.09 -0.84,1.23 -0.21,-1.43 0.77,-1.95 -2.73,-2.71 -3.2,0.91 -1.7,1.74 -0.4,2.19 -2.09,3.11 -2.14,0.91 -1.1,-2.82 0.27,-2.44 -1.68,0.18 0.36,-1.75 1.95,-1.77 -0.59,-1.25 -1.01,-0.7 -7.1,0.56 0,0 -0.64,0.02 0,0 -0.86,-1.22 0.84,-1.15 5.18,-2.77 1.05,-4.64 1.4,-1.38 -0.19,-1.61 -3.13,-0.37 -0.68,-1.48 -2.12,-0.95 0.06,-1.97 2.04,-1.51 0.08,-0.71 -2.52,0.22 -1.24,-1.92 -1.69,-1.06 1.14,-5.75 -3.23,-1.15 -3.93,0.52 -0.46,-0.66 0.66,-0.69 -3.86,-3.69 -4.83,-1.02 -0.43,-3.31 -2.64,-3.74 0,-1.2 1.74,-1.71 -2.64,-2.45 0.31,-2.02 -0.72,-1.55 0.56,-1 -0.4,-1.21 2.06,-1.28 -0.03,-3.26 -4,-1.35 -1.25,-1.66 -0.94,1.11 -1.42,0.17 -0.75,-3.5 -2.88,-2.04 1.67,-3.73 -1.88,-0.6 -2.53,0.64 -1.31,-0.93 0.68,-1.58 -0.79,-1.43 0.8,-0.96 -2.84,-4.38 1.61,-0.71 0.39,0.69 1.08,-1.18 2.72,-0.63 2.53,-1.38 0.39,-0.93 1.97,-1.32 -0.28,-0.83 -1.82,-0.13 -1.62,-2.799999 0,0 1.4,-1.51 -0.2,-3.75 4.12,-2.46 0.18,-1.48 3,-2.27 -0.04,-1.41 1.37,0.19 1.49,-1.26 -0.9,-2.32 0.54,-2.85 3.76,-2.05 2.1,-2.23 1.42,0.39 3.36,-0.96 2.78,-2.11 0.19,-1.16 1.27,0.74 0.84,1.89 2.3,0.67 1.5,1.21 1.81,-0.57 2.2,-3.45 2.9,-0.49 1.07,-1.02 1.89,0.84 2.63,-0.11 0.74,1.12 2.73,1.02 1.51,-0.62 0.55,3.58 0.4,-0.84 1.71,-0.82 0.89,0.31 0.71,-0.66 1.36,0.69 1.23,-0.7 0.32,1.14 1.53,1.16 2.89,-0.36 1.26,0.56 4.18,-1.22 4.32,-0.4 1.39,1.46 1.26,0.05 2.41,-1.89 1.79,-2.42 0.84,-2.92 1.61,-0.84 4.21,5.45 2.12,-1.13 1.09,-1.72 0.85,-13.28 0.7,-1.82 -0.56,-2.22 0.68,-1.67 2.17,-0.54 0.82,-1.56 0.87,0.42 0.33,-0.68 1.42,1.08 3.23,-0.7 6.41,0 6.36,1.44 1.89,-0.62 5.08,2.42 4.85,0.12 6.08,-1.36 2.17,-2.89 -0.39,-2.23 0.56,-1.01 2.23,-0.81 2.29,-2.14 3.48,0.06 1.77,4.03 5.67,-4.44 1.32,0.36 1.68,-0.83 3.78,0.83 z"
	/>
	<path
		id="crete"
		name="Crete"
		d="m 421.45553,784.46283 4.7,1.32 0.25,0.72 -0.96,0.99 -0.19,1.48 1.66,2.79 -0.82,0.38 -6.46,-4.21 -1.17,-1.72 2.11,-0.08 0.31,-1.53 0.57,-0.14 z m 190.21,-50.18 0.02,0.74 -1,0.62 -2.04,-0.2 -0.32,-0.56 3.34,-0.6 z m -0.3,-2.52 0.54,0.61 -0.51,0.95 -1.49,0.09 -0.01,-1.2 1.47,-0.45 z m -86.69,-12.21 2.58,1.69 -0.79,0.59 0.07,2.4 -1.11,-0.62 -0.65,-0.57 -0.83,0.13 -2.47,-1.02 0.01,-0.55 1.8,-1.02 0.6,-0.84 0.79,-0.19 z m -132.95,-24.83 3.27,2.6 -1.12,1.85 0.47,2.02 0.96,3.82 0.11,5.79 4.24,1.54 1.98,0.73 7.45,0.53 1.56,0.75 3.79,0.42 2.11,-1.04 1.63,0.26 1.38,-0.72 0.39,-3.16 0.6,-0.36 0.81,0.85 1.72,-0.7 -1.55,-3.17 1.08,-1.19 1.44,0.44 0.2,-0.83 2.06,-0.45 4.65,1.63 2.38,5.23 -1.49,2.04 -0.26,1.94 -0.97,-0.15 -0.64,0.51 0.22,0.6 -0.8,0.02 -4.57,-1.56 -2.16,-0.09 -1.79,1.08 -0.02,0.79 1.43,0.01 3.62,2.36 2.93,-0.08 1.08,1.33 2.23,1.12 1.28,-0.05 0.53,-1.39 1.12,0.3 1.92,-1.71 1.4,2.35 -0.35,2.57 0.81,0.58 -0.21,6.52 1.97,1.03 5.56,0.54 1.6,-0.2 1.25,-1.05 3.02,0.22 0.87,-1.04 2.58,0.01 0.82,0.57 0.87,-0.25 1.75,0 5,-0.79 6.08,-2 3.43,-2.99 3.72,0.09 0.94,-0.95 3.26,0.27 2.85,1.04 1.48,-0.44 1,0.73 1.98,0.5 1.39,0.1 3.62,-0.26 0.23,-1.19 0.92,-0.15 2.82,2 1.85,-0.42 1.53,0.54 0.84,-0.61 0.79,-1.62 1.45,1.1 1.08,-0.83 1.55,0.13 -0.04,1.55 0.77,0.75 1.53,-0.68 0.42,1.29 -1.06,2.07 0.22,1.74 1.15,1.79 3.62,0.47 5.25,-0.56 0.16,-0.57 2.9,0.37 0.61,1.42 2.77,-0.39 1.12,0.55 12.26,-0.98 1.18,0.21 0.24,1.42 1.25,1.52 3.46,1.99 4.18,-0.47 3.81,-1.49 1.61,-1.35 2.34,0.25 1.49,-1.18 6.29,-1.77 2.66,1.29 3.43,-0.46 2.38,0.47 1.64,-0.61 -1.02,2.61 -2.98,1.53 0.26,1.35 -0.75,2.99 1.11,0.81 -0.21,1.41 0.72,1.25 -2.32,1.33 -0.13,2.34 0.82,0.95 -1.37,1.55 1.46,2.35 0.27,2.69 0.67,0.35 1.04,0.16 1.21,-0.57 0.92,0.96 3.29,1.27 1.71,-1.08 2.06,-3.96 0.72,-0.39 0.65,0.85 2.72,-2.11 0.17,-1.77 1.97,0.86 2.53,-0.21 1.6,-2.13 0.93,0.65 2.3,-0.45 0.72,-0.68 -0.29,-0.7 1.92,-1.85 3.04,-0.14 0.68,1.02 1.5,0.31 2.45,-1.17 0.5,0.53 -0.86,1.64 0.31,0.5 2.37,0.91 2.73,-0.59 1.68,-1.25 -0.46,-1.48 1.71,-0.35 0.77,-0.71 0.64,-0.3 0.92,-1.56 -0.36,-1.48 0.86,-0.86 0.33,-0.52 0.87,-0.34 0.16,0.93 0.67,0.19 0.85,-1.06 1.07,-0.79 -0.29,-0.75 1.46,-0.42 -0.7,-0.53 -0.09,-0.54 2.41,-0.7 0.23,0.95 -0.97,0.55 0.47,0.85 -1.26,0.23 -0.36,1.66 -2.05,1.25 1.09,3.6 -0.63,2.62 1.91,2.01 1.14,0.2 1.19,-1.15 0.05,1.86 -0.84,0.94 -2.36,0.43 -0.39,1.88 0.84,1.62 -0.36,2.37 -1.47,1.79 0.71,1.07 -2.26,2.63 -1.32,3.33 -1.1,-0.26 -0.99,1.51 -1.31,0.73 -3.26,0.06 -1.22,1.36 -2.8,0.89 -1.62,-0.21 0.15,-1.18 -0.88,-1.12 -2.1,-0.38 -2.53,0.27 -0.73,0.64 -0.87,-0.82 -1.44,0.22 -0.35,-1.18 -2,-0.95 -1.36,0.82 -2.49,-0.32 -7.86,2.04 -2.77,1.79 -3.7,-0.15 -2.32,-0.99 -1.02,0.65 -4.21,-1.19 -2.4,1.09 -6.02,-0.23 -4.47,2 -1.94,-0.29 -1.9,0.97 -4.55,-1.03 -3.23,0.49 -3.7,-1.32 -4.2,1.82 -4.15,-0.2 -0.9,1.64 -2.31,1.27 -0.54,-0.31 -4.29,1.54 -0.59,-0.9 -4.37,0.04 -3.83,2.28 -0.46,-0.74 -2.98,-0.36 -1.1,-0.04 -1.36,1.03 -1.15,0.43 -3.01,-0.47 -1.35,0.26 -1.27,-0.15 -1.23,0.03 -1.79,0.78 -7.13,-1.69 -2.53,0.43 -1.63,1.47 -1.74,0.09 -1.54,0.2 -0.85,-0.44 -1.29,0.4 -0.05,-1.2 1.47,-0.78 0.55,-1.26 -0.34,-1.07 -0.09,-0.85 -0.57,-2.51 0.43,-1.35 1.08,-0.77 -0.63,-4.66 -1.35,-3.08 -3.92,-1.84 -0.42,0.51 -7.4,-0.64 -1.51,0.38 -1.39,-0.9 -1.47,0.51 -0.46,-1.63 -3.06,-3.07 -3.74,-1.06 -1.98,0.37 -3.11,-1.48 -0.43,-1.14 -1.48,-0.96 -1.11,-1.18 -2.06,0.15 -1.16,1.07 -2.49,-0.81 -3.57,1.61 -3.16,-0.87 -1.66,0.23 -2.98,-2.22 -3.88,1.04 -1.37,-0.36 -0.49,-0.84 -3.09,0.45 -1.12,-0.54 -1.22,1.16 -1.98,-0.13 -1.7,-0.23 -1.41,-0.7 -1.57,-2.37 -1.16,-0.62 -2.92,-0.03 -2.68,0.84 -3.46,-1.78 -1.44,0.31 -3.72,-1.39 -1.64,0.16 -0.73,0.93 -1.19,0.6 -2.02,0.5 -0.72,-1.14 -4.88,-0.03 -2.2,0.85 -1.12,-0.69 -1.93,0.2 -0.82,0.25 -1.61,0.33 -1.91,-0.55 -0.55,0.48 -1.02,-0.79 0.05,-2.47 -3.31,-1.04 -0.86,-1.6 -1.3,-0.31 -0.38,-1.83 1,-0.79 0.5,-0.62 1.62,-0.46 -0.07,-0.74 -1.61,-1.04 0.79,-1.18 -0.61,-1.31 0.62,-1.68 -0.62,-0.51 1.71,-1.49 -0.46,-1.71 2.09,-1.63 0.1,-2.39 -0.93,-0.12 -0.43,-1.13 0.12,-1.07 0.81,-0.28 1.41,-2.49 -0.32,-1.23 -1,-0.72 0.23,-1.45 0.57,-2.72 0.92,-1.54 -0.3,-1.48 -0.3,-0.9 -0.06,-0.76 1.26,0.69 0.67,-2.85 -0.28,-1.98 1.29,2.98 -0.77,1.09 0.33,2.58 0.71,0.59 0.05,4.91 1.39,0.65 0.92,0.68 1.35,0.86 3.06,-0.12 2.6,-0.9 1,-4.14 -0.44,-2.78 -1.44,-2.81 0.76,-2.32 -0.87,-2.82 0.25,-1.58 2.43,-3.96 z"
	/>
	<path
		id="east-macedonia-thrace"
		name="East Macedonia and Thrace"
		d="m 557.76553,147.89283 6.07,1.38 3.76,3.27 -0.29,5.19 -8.43,3.24 -3.79,-0.21 -1.6,-2.09 -3,-1.33 -4.39,-3.85 -1.43,-2.16 2.21,0.44 2.29,-2.65 2.83,-1.21 3.63,-0.67 2.14,0.65 z m -83.54,-34.03 0.92,1.22 2.29,0.83 2,-1 1.28,1.09 -0.36,0.81 1.05,1.53 1.26,1.1 1.92,-0.07 1.05,1.32 -0.26,0.78 -1.62,-0.32 -0.56,1.27 0.23,1.55 1.95,0.42 -0.51,0.68 0.6,1.53 -1.85,1.46 0.61,3.37 0.78,0.34 -0.36,1.48 0.93,0.44 -0.74,2.24 -1.17,-1.35 -1.99,2.17 -2.11,0.58 -2.21,0.33 -2.13,1.12 0.21,0.8 -1.74,0.19 -0.57,0.73 -0.36,-1.68 -1.69,-0.14 -1.61,-1.21 0.37,-1.66 -1.64,-1.64 -1.37,-0.49 -4.15,0.6 -0.29,-1.71 -1.11,-0.29 -0.09,-2.85 1.84,-6.06 2.26,-3.3 0.25,-2.36 2.15,-0.18 0.95,-1.69 1.36,-0.28 3.49,-2.44 0.74,0.74 z m 139.62,-111.6799989 1.43,-0.87 2.02,2.16 3.34,1.38 1.89,0.2 1.7,-0.75 2.71,0.44 1.75,1.68 4.93,1.8 0.96,-0.35 1.07,1.36 1.38,0.56 1.53,-0.25 0.74,0.8399999 -0.77,1.29 3.68,3.77 3.47,1.41 2.17,0.08 0.57,2.86 -1.05,1.71 0.8,3.07 -0.39,2.33 1.06,3.08 -0.12,3.03 0.95,1.78 -0.1,4.14 1.53,0.82 0.61,3.97 -0.52,4.43 -3.14,2.67 -1.63,0.36 -2.95,-2.12 -2.23,0.3 -0.55,1.21 -1.41,0.14 -0.93,2.61 -2,0.64 -0.39,2.02 -2.1,0.38 -2.96,3.13 -4.23,0.43 -1.26,-1.21 -1.79,0.83 -0.46,1.96 1.1,2.01 -0.92,1.93 0.31,2.11 -1.09,0.34 -0.39,0.88 0.68,1.69 2.06,2.04 -1.36,1.12 0.07,1.2 -1.74,1.4 0.46,0.55 2.26,-0.14 -0.38,1.53 -1.69,1.59 0.07,1.14 1.57,2.57 -0.24,1.17 1.06,0.17 2.53,2.32 -0.82,2.51 -2.89,1.66 3.04,4.64 -3.43,0.66 -1.61,1.57 -1.37,-0.48 -0.12,1.17 1.26,2.179999 -0.71,0.98 -1.52,0.11 -1.21,-2.489999 -0.88,1.369999 -0.22,2.54 -1.36,-0.46 -0.36,-0.53 -0.55,0.01 0,2.74 -1.56,0.19 0.77,1.32 -0.85,0 0,0.85 1.02,0.28 -0.61,1.71 -0.73,-0.09 -0.75,0.33 -2.39,1.97 -1,-0.01 -2.49,4.64 -0.33,3.39 -4.48,1.75 -3.39,-0.29 -0.37,-1.13 -0.02,-0.83 0.31,-1.36 0.15,-0.84 -0.35,-0.9 -0.12,-0.59 -0.97,-2.11 0.48,-0.35 1.25,-0.18 0.04,-1.07 1.97,-1.22 -1.28,-1.11 0,0.74 -2.83,-0.6 -0.41,1.71 -1.21,0.64 -0.85,-1.44 -3.11,-2.17 -0.61,-0.32 -3.36,-0.52 -3.82,0.67 -7.21,-1.1 -5.13,0.7 -12.61,-2.76 -2.33,1.28 -1.19,-0.24 -3.84,-1.65 -0.14,-0.9 -4.82,-1.93 -6.69,-1.47 -1.52,-2.909999 -1.29,-0.59 -4.02,-0.58 -2.83,1.52 -0.61,1.05 -0.73,-0.13 0.08,-0.92 -0.65,-0.52 -6.78,-0.52 -0.92,-1.06 -3.09,-0.71 -0.44,-0.72 0.33,-0.9 1.07,-2.23 0.92,0 1.62,-1.28 -1.28,-0.43 -1.52,-0.97 -1.65,0.49 0.38,0.56 -3.58,-0.65 -2.7,0.69 0.11,0.56 -4.85,4.24 -1,3.66 -3.32,-0.18 -6.52,2.519999 -6.73,7.4 -0.69,-0.05 -3.01,-1.3 -4.32,0.71 -1.98,-0.28 -0.48,-0.32 1.25,0.06 0.32,-1 -0.73,-0.06 -3.22,-0.7 -2.92,1.49 -2.67,-5.32 -0.8,-0.2 -0.28,-0.789999 0.66,-0.87 -1.7,-0.18 -0.62,-1.5 -0.26,-0.3 0.69,-0.65 -0.77,-1.08 -0.63,-0.17 -1.08,-0.3 -3.13,-0.4 -3.38,0.82 -0.26,1.09 -3.78,-0.08 -1.26,1.63 -0.45,-0.67 -1.22,0.1 -1.44,2.849999 -1.08,0.2 -0.61,1.08 -1.47,-0.15 -1.18,2.23 -0.79,-0.22 -0.52,0.67 0.04,1.23 1.84,1 -0.51,1.75 -1.1,-0.84 -0.94,0.53 -0.22,2.07 0.72,0.63 1.64,-0.8 0.69,0.6 -5.23,1.89 -12.76,8.46 -4.57,1.9 -3.73,0.43 -4,-1.32 -7.92,-3.11 -4.08,-2.79 0,0 -0.43,-2.18 0.9,-1.1 1.41,-1.1 3.01,0.25 1.22,-0.67 3.91,-2.95 1.09,-2.61 3.33,-2.95 2.63,-0.08 0.13,-3.169999 1.47,-0.08 1.28,0.93 0.58,-0.34 -0.51,-2.03 1.79,-3.12 -0.51,-2.2 0.83,-2.79 -7.49,-6 0.71,-2.79 -0.32,-1.1 -4.8,-3.13 -2.75,3.22 -1.22,0.34 -7.3,-5.42 -5.38,-1.95 -4.29,-5.25 -2.5,-0.42 -0.45,-0.68 0.83,-1.95 -1.67,-1.78 -0.7,-2.88 1.73,-3.48 -0.13,-2.46 -1.67,-1.19 -5.57,-0.85 -0.7,-6.78 0,0 1.56,-0.38 0.3,-1.82 2.25,-1.81 1.8,0.7 3.19,-0.42 2.66,0.64 0.66,0.7 2,-2.28 1.01,-2.55 4.54,-0.4 0.56,-1.12 2,-0.5 1.11,0.41 1.35,-0.94 0.6,-2.66 1.59,0.95 1.12,2.67 2.63,1.43 3.99,-3.51 0.75,1.59 2.09,0.18 2.17,-1.71 -1.11,-2.33 0.04,-4.43 1.13,-0.9 0.4,-1.27 2.17,-1 1.36,1.23 1.24,-0.11 0.26,0.81 2.23,-0.27 0.21,0.92 1.14,0.8 -0.14,0.63 1.04,0.23 2.34,-4.27 1.79,0.25 0.98,-1.7 1.92,-1.22 1.12,0.66 -0.39,1.15 2.84,2.4 -0.5,1.39 0.69,1.81 3.12,-1.8 2.43,1.1 1.65,-2.31 1.86,-0.37 0.9,1.18 2.18,0.11 1.08,0.84 0.95,-0.74 0.11,-1.86 1.02,-0.96 4.6,-1.97 0.75,0.4 0.02,1.03 0.8,-0.18 0.92,0.86 -0.64,1.19 1.45,2.81 -0.24,1.67 1.18,3.2 2.12,1.38 0.09,2.74 1.4,2 3.72,-1.25 0.72,0.43 -0.38,1.72 2.22,-0.93 0.98,0.73 3.13,0.36 1.52,4.09 5.21,4.16 1.09,-1.02 0.58,-3.78 -0.35,-1.66 4.94,1.11 0.73,-0.11 1.1,-1.6 1.92,-0.23 2.39,2.53 3.3,1.26 6.77,1.3 2.14,2.81 1.74,0.81 1.88,-0.58 1.34,1.87 4.11,1.56 0.19,1.19 3.58,2.27 1.04,3.95 2.87,0.32 1.71,1.09 1.39,-1.24 3.23,0.51 2.93,-2.21 1.41,0.39 2.82,-1.12 1.12,0.15 0.36,-1.14 3.95,-1.55 2.44,0.17 2.53,1.08 1.21,-3.65 1.53,-1.09 4.68,1.57 4.02,-1.18 2.44,0.94 1.99,1.74 1.17,-3.12 2.31,0.26 1.4,-1.07 1.53,0.38 1,-1.37 2.43,-0.49 0.63,-1.18 2.69,2.29 1.61,-0.07 -0.18,1.77 1.14,0.95 1.97,-0.25 2.91,-1.52 2.86,0.25 2.62,-0.86 0.81,-2.08 2.52,-0.85 4.67,0.45 0.95,-1.18 2.92,0.1 0.54,-2.35 1.07,-0.33 0.93,-1.63 0.44,-1.95 -0.5,-1.52 1.02,-1.37 2.77,-0.35 -2.26,-3.41 -1.51,-0.67 -0.43,-1.32 0.06,-0.81 1.45,-0.69 0.16,-1.55 1.17,-1.49 -0.72,-4.17 -2.68,-0.3 0.53,-5.95 -1.39,-1.12 -0.1,-2.15 -1.25,0.25 -0.41,0.86 -2.19,-0.45 -0.33,-1.68 -1.23,-0.26 -0.69,-0.88 -0.83,-4.5799999 0.83,-2.54 1.35,-0.8 2.4,0.42 0.8,-1.9 3.97,-2.31 0.81,-0.1 1.61,1.57 1.91,0.35 z"
	/>
	<path
		id="epirus"
		name="Epirus"
		d="m 126.21553,166.31283 3.24,1.34 2.56,-0.67 1.37,1.38 1.37,-0.36 4.05,4.2 1.63,2.58 0.25,1.9 1.55,1.01 1.08,3.4 2.06,1.9 -1.15,1.54 1.85,0.25 -0.26,2.06 0.63,2.34 -4.24,2.43 2.86,3.59 0.01,2.13 1.94,3.29 2.06,-0.27 1.79,-1.1 2.87,1.27 -0.35,4.54 -1,2.04 -1.33,0.84 -1.84,-1 -0.74,0.82 2.27,3.41 2.28,1.9 0.61,1.48 -0.43,1.28 1.07,1.66 -0.73,1.31 1.12,0.56 0.04,1.98 6.21,2.21 1.44,-2.44 1.84,0.14 2.67,-1.3 2.31,1.54 1.59,-0.16 1.88,2.38 0,0 -0.55,0.63 -1.32,-0.48 -1.18,0.38 0.2,1.76 -0.3,1.55 -1.19,1.42 0.38,0.69 -1.98,-0.29 -0.28,0.49 0.22,1.99 -0.5,0.4 1.03,3.52 -0.76,1.69 1.41,1.07 1.24,2.67 -0.55,1.21 -1.32,0.55 -3.11,-2.96 -1.52,0.72 -1.55,-0.63 -0.58,1.89 -1.26,0.29 -0.16,1.13 -1.98,1.17 0.51,1.49 2.49,1.92 -0.15,3.56 2.39,0.15 0.4,0.78 1.58,9.34 -2.05,3.29 0.33,0.51 2.86,-0.29 0.08,2.21 -1.93,0.68 0.4,1.1 2.73,3.53 3.37,2.17 1.05,2.39 -0.58,2.04 2.01,0.65 0.31,0.96 1.36,0.75 5.99,-0.21 1.61,1.61 0.4,1.75 0.77,0.17 -0.07,2.89 1.83,0.89 -1.21,3.64 -1.26,0.52 -0.83,1.79 -0.84,-0.25 -1.52,1.41 -0.22,1.37 -1.35,1.52 0.21,2.11 1.68,1.43 0,0 -4.23,2.2 0.04,1.54 -5.03,3.19 -3.44,-1.62 -1.89,1.19 -1.52,-1.82 -1.49,1.39 -1.35,-0.32 -1.38,0.81 -2.43,0.21 -1.83,2.25 1.09,1.64 -2.25,0.85 1.36,1.65 0.53,1.93 0,0 -2.27,0.37 -1.38,0.18 -0.6,0.66 0.27,0.67 -1.34,0.59 -1.01,0.63 0.09,1.2 1.01,0.95 -3.89,-1.33 -1.47,0.91 -0.77,-2 -0.62,0.07 -0.49,-1.56 -1.01,-0.04 -0.7,0.25 -1.26,-1.77 0.32,-0.59 -0.94,-0.83 -0.52,0.23 0.14,-2.54 -1.21,-0.34 -1.67,1.16 0.32,2.05 -1.44,-0.56 -0.84,0.69 -0.42,1.54 1.25,0.62 -0.42,0.66 -1.03,-0.23 -0.04,-1.45 0.21,-1.89 -1.25,0.13 -0.39,0.39 -0.79,-1.23 0.32,-0.86 -1.35,0.3 -0.04,0.74 -1,-1.06 1.53,-0.17 1.05,-1.74 -2.77,-2.79 -0.01,-0.79 -1.73,0.67 0.48,0.35 -0.4,0.51 1.9,0.62 -1.02,0.4 -0.4,0.6 -1.53,-0.96 -0.71,0.37 1.59,1.16 -1.55,0.99 1.65,-0.04 -0.26,0.45 0.09,0.54 0.06,1.27 -0.75,0.71 0.41,0.48 -1.92,1.82 -0.9,2.54 -0.46,-0.45 -0.93,0.45 2.25,2.33 1.17,0.07 2.93,2.52 1.58,0.38 0.29,1.15 -1.02,0.59 -0.18,-1.48 -1.13,0.95 -1.39,-1.37 -2.85,-0.09 0.09,2.39 -1.7,0.63 -1.06,-0.6 -2.48,-5.31 0.11,-0.61 0.84,0.03 0.43,-1.49 -0.77,-3.59 -3.75,-4.59 -1.46,-1.06 -1,0.16 -5.29,-5.06 -3.88,-5.76 -5.359998,-3.56 -0.12,-1.94 -0.21,-0.91 0.47,-0.77 -0.56,-1.58 0.51,-1.57 -0.91,-0.3 -0.43,1.06 -1.86,-1.4 -0.76,0.97 -3.41,-1.35 -0.73,0.88 -4.16,-0.69 -0.52,-1.19 -4.23,-3.71 -0.1,-2.7 -0.93,-1.8 0.47,-1.56 -1.6,-2.03 -1.14,-0.46 -0.31,0.64 -1.38,-0.72 0.7,-0.84 -2.32,-4.25 5.43,-0.18 -0.04,-0.94 -2.76,-2.1 -0.57,0.28 -2.06,-2.37 1.24,-0.66 2.55,1.32 0.59,-2.6 -2.61,-1.42 -2.06,0.35 -0.62,-0.05 -2.68,0.41 -1.52,-1.24 1.68,0.66 0.67,-0.18 1.55,-0.05 -2.97,-1.85 -0.22,0.44 -0.58,0.57 -1.95,-0.19 1.35,-2.15 0.96,-0.47 0.33,-0.16 0.68,-3.18 -0.52,-1.55 1.78,-1.57 -0.07,-2.02 -2.14,-1.58 -1.9,0.1 -2.44,-2.55 -0.71,-0.06 -0.41,1.1 -1.43,-1.44 -1.61,-0.85 -0.61,-1.31 -1.26,-0.25 -1.86,0.85 -1.24,-1.28 -0.12,-0.35 1.87,-1.06 0.58,1.03 2.49,0.27 1.01,0.98 1.29,-0.12 3.38,3.1 5.49,1.16 3.28,-0.35 -0.72,-2.01 1.18,-2.22 1.24,0.21 1.71,1.41 0.14,-2.81 1.47,-1.82 1.43,-0.45 2.08,-1.92 -2.69,-3.8 1.32,-2.12 -1.56,-2.69 1.32,-1.31 4.22,1.58 2.72,2.06 2.91,-3.64 0.18,-2.85 -2.41,-3.13 -0.65,-2.42 -0.88,-0.52 -0.79,-1.94 -2.2,-1.63 0.64,-2.66 -2.95,-5.13 5.31,0.21 1.97,-0.77 0.41,-2.46 1.5,-2.58 -0.28,-1.51 0.83,-1.18 2.79,-1.49 1.01,-0.1 2.339998,1.27 2.04,-2.27 3.31,2.15 2.11,-0.07 2.56,-0.54 2.28,-2.46 4.65,-0.54 -0.15,-3.66 1.6,-2.83 -1.67,-1.61 0.27,-2.82 2.52,-1.18 1.63,-2.98 -0.24,-3.31 -1,-0.83 -0.06,-1.84 2.42,-4.11 1.54,-0.25 0.91,-0.91 -0.48,-1.71 1.55,-1.63 z"
	/>
	<path
		id="ionian-islands"
		name="Ionian Islands"
		d="m 120.06553,447.47283 0.48,2.16 0.84,1.11 0.74,-0.19 0.12,1.32 2.39,2.58 1.46,0.63 1.22,-0.8 2.89,1.02 7.39,3.79 -0.29,3.43 3.53,1.62 0.86,1.79 1.24,0.84 2.61,1.01 -0.39,2.58 -2.34,-1.51 -1.42,-0.19 -2.64,-1.8 -1.41,0.09 -3.09,1.32 -2.32,3.02 -0.51,1.72 1.88,1.61 -0.04,1.72 -2.37,1.07 -0.35,-0.7 -1.96,-0.54 -0.17,-1.72 -2.88,-1.64 -1.17,-2.68 -1.56,-0.53 -0.37,-0.81 -2.13,-0.54 -1.78,-2.1 0.41,-1.98 -2.08,-0.61 -0.32,-0.92 0.89,-0.94 -0.18,-0.81 -2.76,-0.77 -0.38,-0.46 -1.19,-1.52 -0.4,-0.81 0.52,-1.35 -1.03,-1.79 0.59,-0.95 -0.12,-0.34 -0.35,-0.85 0.59,-0.21 0.07,-1.31 1.13,-0.95 -0.06,-0.69 5.27,-4.27 1.04,1.21 -0.1,1.64 z m -13.17,-64.09 1.74,0.82 0.04,0.55 -0.61,-0.11 0.99,1.73 0.04,2.05 0.84,0.83 -0.11,1.78 1.44,0.45 0.51,2.62 -0.42,0.58 1.25,2.81 0.19,2.75 -0.33,1.07 -2.22,1.57 2.28,4.66 0.71,0.83 1.02,0 1.69,-1.64 0.18,-1.1 1.09,-0.39 -0.38,2.09 1.29,-0.61 0.72,0.43 0.02,1.15 1.37,1.4 -0.05,1.66 4.94,6.27 0.62,1.97 0.58,0.68 0.7,-0.16 0.51,2.03 2.02,1.82 -1.6,5.69 -0.93,0.91 -1.95,-1.37 -2.04,0.93 -3.82,-1.01 -5.43,-4.63 -2.04,-0.77 -0.97,-0.03 -1.76,1.57 -1.42,0.32 -0.39,1.34 -3.03,-1.67 -1.87,0.32 -0.27,-0.96 -1.96,-1.16 0.73,-1.57 -1.919998,-2.72 0.61,-1.54 -1.14,-2.28 0.96,-0.03 2.129998,3.06 0.62,-0.57 -1.21,-0.9 -0.09,-1.56 -1.339998,-1.43 -2.52,-6.78 -0.03,-1.58 -0.65,-0.32 -0.94,0.01 -1,1.38 0.91,1.45 -0.3,1.43 0.88,1.9 0.08,7.46 -2.52,0.14 -2.7,1.3 -0.54,-2.02 -3.35,-1.47 -0.17,-1.23 0.03,-1.24 1.13,-0.5 0.75,-2.33 0.04,-4.14 1.61,0.1 0.26,-1.26 0.92,-0.72 -0.21,-2.13 1.2,-3.23 -0.06,-3.36 1,2.28 0.92,-1.8 1.9,-0.59 0.58,3.43 0.76,0.52 1.22,-0.36 0.63,1.72 2.399998,-1.33 1.79,-2.49 0.89,0.09 -0.15,-1.18 0.97,-0.08 0.36,-1.06 -0.39,-1.29 -1.52,-0.8 -0.03,-0.76 0.98,0.11 0.17,0.98 0.91,-0.89 -0.91,-2.95 0.66,-0.36 -0.08,-1.12 -0.91,-0.73 0.7,-2.41 -0.55,-1.92 0.47,-0.51 1.88,0.11 z m 7.87,-3.37 2.52,1.45 -0.69,0.97 0.22,1.5 -0.86,0.91 1.75,0.56 0.78,-0.83 0.5,1.11 -0.71,0.31 1.09,0.23 0.7,1.35 -1.11,1.28 0.32,0.74 -2.33,4.07 -0.04,1.85 2.48,-0.95 -0.02,-0.73 0.42,-0.79 0.71,0.62 0.8,-0.31 -0.73,-0.89 1.87,0.58 0.89,1.01 -0.37,0.7 -0.48,0.78 1.05,1.36 -0.86,1.57 0.57,0.18 -0.15,1.09 2.16,1.05 -3.48,1.75 -0.56,0.39 -1.6,-0.75 -1.16,-1.54 -0.54,-3.26 -1.46,-0.89 -0.59,-3.52 -1.88,-3.67 0.03,-2.22 -0.87,0.05 -1.49,-2.85 0.29,-1.65 2.17,1.27 0.48,-0.27 0.18,-3.61 z m 11.7,-19.72 0.86,-0.31 -0.15,1.39 1.31,-0.94 0.41,0.44 -0.04,1.08 -0.31,0.82 -2.09,1.26 -1.44,-0.54 -0.91,2.28 5.09,4.28 -4.09,-2.58 -2.74,-3.27 0.43,-3.25 2.12,1.06 -0.05,-0.93 0.72,-0.47 0.88,-0.32 z m -7.8,-20.42 2.31,0.48 -1.1,1.77 1.65,2.98 -0.59,1.04 -0.12,4.08 1.24,2.42 -0.01,1.31 -3.03,4.42 -0.13,1.35 0.97,0.1 0.63,-3.07 0.88,1.1 -0.14,2.34 -0.35,0.48 -0.7,-0.28 1.28,4.78 -1.01,1.1 -1.67,-1.99 0.46,2.46 -0.67,0.22 -0.58,0.96 -1.19,0.61 -1.58,-0.91 -1.15,1.42 0.49,1.85 -0.7,0.31 -0.73,-1.02 0.14,-1.57 -1.65,0.3 -0.86,-2.15 0.21,-1.15 -1.08,-0.5 -2.31,5.09 -2.53,3 0.75,-1.92 -0.79,-1.02 0.72,-0.82 -0.28,-1.06 0.63,-0.56 0.4,-2.73 -0.29,-5.58 1.88,-3.77 2.15,-7.68 0.88,-1.2 1.05,-0.17 2.33,-4.63 2.32,0.14 1.12,-2.29 0.75,0 z m -41.949998,-35.09 2.84,3.08 -1.01,0.19 -1.45,-1.4 -0.93,0.12 -0.66,-1.13 1.21,-0.86 z m -8.26,-9.93 3.26,1.93 -0.17,0.97 1.97,1.46 -0.29,1.1 1.58,0.93 0.26,1.41 -2.92,-0.17 -1.33,-0.73 -0.68,-0.93 -1.33,-0.9 0.05,-1.35 -0.64,-1.16 -0.88,-0.27 0.05,-2.15 0.54,-0.25 0.53,0.11 z m -25.06,-66.74 1.71,0.42 1.22,2.09 2.23,1.13 0.58,-0.87 1.71,1.85 0.52,-0.96 1.1,1.44 -0.89,2.44 -0.49,1.27 -0.97,1.03 -5.19,1.79 -2.38,1.43 -0.67,1.35 0.89,0.96 -0.64,1.27 1.88,1.38 -0.92,0.78 -0.86,-0.22 0.64,1.37 0.79,-0.28 0.7,1.2 3.33,1.45 2.77,0.33 -1.11,0.95 0.57,0.7 -0.08,1.6 -1.06,1 -0.39,2.31 1.71,9.66 0.77,1.49 2.96,1.42 2.57,0.19 1.6,2.82 3.27,-1.12 1.59,-2.21 2.93,7.75 1.58,1.8 -0.92,2.15 -1.31,-0.74 -1.1,0.22 -5.27,-3.18 -2.3,-0.6 -1.02,-1.38 -2.62,-1.56 -2.5,-0.95 -1.81,0.22 -3.48,-2.78 -1.98,-4.79 -0.02,-2.64 -0.74,-1.3 0.66,-1.92 -1.75,-3.2 -2.3,-2.28 -2.69,-0.95 0.18,-1.12 -3.1,-1.5 -0.68,-2.6 -1.18,-0.85 0.67,-2.37 -1.33,0.35 -1.25,-0.21 -2.4,-0.84 0.83,-3.79 -1.49,-1.07 -1.12,1.33 0.16,-2.66 -0.98,-1.67 -0.18,-0.82 2.75,-5.22 0.49,0.56 1.78,-0.28 1.48,0.92 3.13,-1.09 0.86,0.57 1.59,-0.55 1.63,0.92 2.14,-1.07 2.47,-2.57 0.73,0.3 z m -40.8199999,-4.64 1.99,-0.84 0.92,0.48 -2.04,2.72 -0.58,-0.37 -0.29,0.62 -1.08,0.13 -1.06000004,-0.65 -0.18,-1.88 0.59,-1.22 1.73000004,1.01 z"
	/>
	<path
		id="mount-athos"
		name="Mount Athos"
		d="m 415.82553,170.32283 1.08,-3.03 -0.86,-5.66 0,0 -1.09,-3.75 -0.06,-1.53 0.56,-0.43 -0.98,-0.21 1.49,-1.61 2.39,6.24 0.8,0.19 2.2,3.48 2.44,0.22 0.71,0.65 1.93,-0.19 1.43,1 1.41,-0.67 3.24,1.86 -0.32,1.86 0.94,0.99 2.57,0.04 1.82,1.12 0.45,1.37 1.62,0.99 -0.45,0.96 1.84,3.82 3.92,2.97 1.16,2 2.5,1.11 1.13,1.34 1.52,5.07 -8.5,3.21 -1.4,-1.69 0.04,-1.81 -0.89,-2.06 -2.94,-2.86 -1.38,-0.23 -1.05,-1.13 0.06,-2.41 -2.7,-2.78 -2.63,-4.54 -3.23,-1.03 -3.15,0.25 -2.72,-0.88 -1.83,0.15 z"
	/>
	<path
		id="north-aegean"
		name="North Aegean"
		d="m 634.53553,482.37283 0.96,0.12 0.34,2.21 -0.77,1.57 -1.33,-0.16 0.45,-1.33 -0.8,-0.25 -3.09,0.46 1.22,-1.42 1.35,0.22 0.96,-1.83 0.71,0.41 z m 6.23,-6.38 1.92,1.57 -0.67,1.2 0.21,1.22 0.81,-0.58 0.75,0.55 -1.34,2.65 -0.91,0.51 0.15,0.6 -2.54,1.16 0.73,1 -0.18,0.97 1.13,0.92 -0.56,0.76 0.44,1.54 -0.3,0.4 -0.59,0.07 -0.7,-0.74 -0.37,-0.58 -0.49,-0.98 -0.56,-0.9 0.22,-1.09 -0.9,-0.86 0.74,-0.7 -0.58,-0.72 0.65,-1.05 -0.65,-1 0.94,-0.29 1,2.6 0.96,-0.77 -0.25,-0.73 1.41,-0.18 -0.64,-1.81 0.36,-1.13 -1.7,-0.42 0.14,-2.03 1.37,-1.16 z m -13.38,-3.52 -0.38,1.29 -1.43,0.62 -1.96,4.31 -0.74,0.05 -1.92,2.39 -6.35,4.36 -2.17,0.99 -7.22,0.59 -3.86,4.07 -1.4,0.69 -2.33,-0.35 -3.76,1.12 -1.04,-0.28 -0.3,-2.03 2.96,-5.3 4.2,-5.03 2.5,-1.87 1.36,0.67 4.53,-0.95 0.91,0.82 1.76,-0.23 1.74,0.84 8.92,-6.01 3.1,-0.14 2.64,-1.08 0.24,0.46 z m 35.58,-14.2 8.07,0.66 2.81,3.04 1,-0.27 3.18,1.11 3.34,2.75 1.08,-0.87 -2.62,-3.3 0.39,-0.35 2.66,0.98 -0.39,-1.54 1.25,-0.37 -0.34,1.37 1.07,0.71 2.9,0.45 3.11,-0.61 -1.4,1.37 -1.84,0.51 -0.46,1.19 1.53,1.48 -0.53,1.1 2.41,0.09 0.65,1.36 -0.62,0.82 -0.56,-0.47 -0.62,0.86 -0.52,-0.38 -0.59,0.6 -5.11,-0.33 -2.56,2.18 -1.66,-0.21 -1.87,0.71 -2.78,2.22 -0.22,2.51 -1.84,0.56 -5.41,-0.56 -4.19,-6.26 -2.93,-1.56 -6.85,0.81 -1.09,1.11 0.17,0.52 -0.91,0.06 0.04,0.91 -0.65,-0.4 -1,0.7 -0.39,-0.53 -0.86,0.93 -1.16,-1.94 0.58,-1.6 -1.65,-2.87 2.69,-3.48 1.17,-0.85 2.58,-0.19 1.79,-2.19 1.42,-0.71 1.71,-0.08 3.54,-1.64 2.48,-0.11 z m -42.8,-79.99 1.04,1.53 -0.25,0.91 -1.33,-0.27 -0.27,-2.84 0.81,0.67 z m -8.61,-3.09 1.97,0.09 0.29,0.82 0.93,-0.49 1.19,0.55 0.03,0.78 3.06,0.5 -0.27,1.35 -0.75,-0.51 -0.3,1.22 -0.72,0.18 -0.87,-0.48 -0.77,-0.97 -0.91,0.34 -1.36,-0.21 -0.58,-1.84 -1.44,-1.6 0.5,0.27 z m -59.81,-0.84 0.56,0.08 -0.67,1.07 0.5,1.12 -2.79,-0.23 1.39,-2.26 1.01,0.22 z m 43.78,-6.23 3.05,1.73 1.82,-0.48 1.94,4.2 1.86,0.06 0.99,0.07 0.87,0.04 0.84,-1.3 1.19,1.44 0.89,0.11 0.3,1.85 -1.05,1.53 0.18,3.03 -0.79,0.83 -1.49,-0.05 -0.34,1.4 1.66,0.06 0.15,0.82 0.6,0.46 0.3,0.78 -1.78,4.38 -0.02,1.62 0.88,4 0.02,1.03 -0.16,2.52 1.71,1.25 -0.63,1.09 0.57,0.98 -5.14,4.53 0.13,3.03 1.04,1.38 -1.52,2.74 -5.41,1.15 -1.35,2.18 0.08,2.16 -1.09,1.58 -1.28,-0.81 -0.36,-1.06 -2.32,-0.37 -1.68,-2.18 0.13,-1 -2.2,0.27 -0.03,-1.59 -0.59,0.3 -0.89,-0.8 -0.64,-0.69 -1.35,0.2 -0.17,-3.32 -1.94,0.08 1.09,-3.41 1.12,-0.15 2.68,-2.78 0.63,-0.12 0.49,0.05 1.06,0.21 0.92,0.58 1.06,-0.23 0.74,-1.65 -0.56,-0.87 0.55,-1.23 1.1,-0.26 0.07,-1.53 0.8,0.32 -0.12,-2.05 -0.07,-0.58 0.08,-0.93 -0.67,-0.71 -0.25,-0.82 -0.91,-1.66 -1.27,-0.3 -0.24,-4.44 -1,-0.54 -0.3,-1.49 -2.91,-1.57 -1.72,-0.14 -2.48,-1.96 -2.89,-6.07 2.35,-3.92 3,-0.99 4.25,0.13 6.42,-2.12 z m -38.62,-0.32 1.26,-0.06 1.36,1.82 1.22,0.35 0.26,1.82 -0.82,0.67 -0.5,3.9 -2.07,0.06 -1.5,-1.25 -0.6,1.41 -0.64,-1.93 0.84,-1.67 -3.16,-3.45 0.56,-1.01 1.52,0.65 0.84,-0.94 1.43,-0.37 z m 69.59,-88.43 0.91,-0.12 0.14,0.51 -1.5,2.21 0.56,0.95 0.77,-0.09 0.57,0.94 2.63,-0.43 2.24,1.17 -1.47,1.53 0.7,0.39 -1.65,1.09 -1.69,3.67 8.57,5.79 0.06,1.12 0.96,0.22 1.37,3.78 3.54,1.45 -0.86,0.73 -0.05,2.33 1.57,0.31 0.56,2.81 0.22,0.91 0.1,1.13 3.27,3.04 1.6,2.81 0.35,2.15 -0.82,2 -1.37,0.07 -2.57,-1.17 -0.64,0.61 -0.99,-0.55 -0.96,-1.22 -1.17,-1.08 -0.84,-1.3 0.67,-1.47 1.21,-0.09 -0.31,-2.12 -2.4,-3.28 -1.94,-1.02 -3.09,1.27 -0.37,0.88 0.73,2.1 1.55,1.7 1.98,0.74 3.64,4.57 0.53,2.43 0.02,0.95 0.63,0.47 -2.31,1.95 -3.71,0.07 -7.02,0.87 -3.2,-1.57 -3.25,-0.04 -3.79,-2.85 -4.58,-1.68 -4.38,-0.07 -1.37,1.35 -0.12,-0.93 -1.99,-1.51 -2.19,-3.98 -1.57,-1.29 -1.65,-0.13 -0.02,-0.7 1.09,-0.31 0.75,-1.4 0.96,-0.37 1.79,1.08 2.84,-1.43 1.84,-2.94 1.92,-0.94 1.15,0.32 2.38,-1.39 0.39,-0.85 2.51,-0.52 1.27,-3.23 -0.35,-1 -2.56,-1.29 -5.45,-0.47 -3.01,1.15 -1.11,1.61 -0.09,2.67 -1.12,0.66 -0.65,1.67 -1.09,0.13 -1.01,3.87 -0.61,-1.28 -0.74,0.4 -0.89,0.97 -0.25,1.66 -0.7,0.36 -5.82,-2.1 -5.07,0.12 -0.96,-2.41 -6.27,-2.9 -0.33,-1.87 -2.49,-0.91 -0.85,-1.09 -0.08,-0.66 1.79,0.89 -0.34,-3.47 0.22,-1.34 -0.49,-0.65 1.42,-1.43 -0.56,-1.59 2.02,-1.62 0.91,-0.83 1.45,-0.8 -0.03,-1.33 1.68,-0.05 -0.3,1.37 0.66,0.5 1.04,-0.5 1.51,1 0.79,-1 1.1,-0.23 1.71,0.83 0.91,-1.28 1.18,-0.44 0.54,0.65 1.93,-0.59 1.44,-0.21 2.89,-1.22 1.9,-0.2 3.31,-1.96 1.44,-0.09 1.17,-1.36 -0.95,-0.94 0.43,-1.78 -0.7,-1.18 1.57,-0.97 1.07,0.61 3.3,-1.01 7.31,1.1 2.33,-1.9 1.15,1.33 z m -119.99,-20.37 3.62,2.97 -2.85,3.82 -1.14,0.25 -1.41,1.42 -0.97,2.04 -1.29,-3.77 0.32,-3.83 1.59,-2.07 0.46,-1.95 1.67,1.12 z m 37.6,-53.26 -0.01,0.54 0.73,2.96 -2.78,1.5 -0.61,1.68 -1.49,0.98 -0.61,2.33 0.5,1.73 -1.61,-0.42 -0.95,0.44 -0.21,2.34 1.18,0.08 -2.69,1.49 0.24,1.33 1.2,0.9 -1.26,0.71 0.24,1.84 2.56,2.85 -1.87,1.18 0.28,2.23 -4.85,-1.29 -1.17,-1.67 0.52,-1.7 -2.6,-0.95 -0.19,-1.07 -1.35,-1.38 -1.23,0.27 0.75,-1.29 1.36,0.09 1.02,-0.79 -0.69,-0.97 1.48,-2.48 -1.38,-0.73 0.27,-0.66 -0.91,-0.55 -2.07,0.23 -3.82,3.13 2.04,-0.22 1.63,0.93 -2.63,0.16 -1.85,3.19 0.41,0.61 0.92,-0.71 0.56,0.86 0.64,0.26 -0.08,2.48 2.47,2.82 -3.27,-0.64 -3.09,0.51 -1.04,-1.38 -1.48,0.64 2.22,-5.05 0.96,0 0.17,-0.73 -0.57,-0.35 -1.41,0.45 -0.49,1.34 -1.1,0.75 -0.59,-0.17 0.37,-1.05 -1.21,-0.8 -3.09,1.32 -0.74,-0.24 -2.18,1.22 -0.55,-0.23 0.13,-0.9 1.61,-1.28 -0.43,-0.83 -0.92,0.63 -0.23,-0.49 1.06,-1.71 -0.78,-0.55 1,-0.92 -0.76,-0.42 1.18,-1.12 0.46,-2.34 -0.79,-1.28 -1.44,-0.47 0.39,-1.33 -0.71,-1.44 0.52,-2.28 -0.32,-0.83 -1.12,-0.02 0.52,-0.55 1.01,0.53 2.41,-1 2.23,0.23 3.4,-2.03 1.1,0.69 -0.08,1.4 1.29,-0.42 0.47,0.43 2.12,-0.82 0.09,-0.7 1.71,0.58 1.6,-1 1.39,2.04 1.62,0.46 0.74,-0.58 0.09,0.72 -1.08,0.96 0.55,0.84 -0.36,0.61 2.27,0.98 -1.34,0.91 1.44,0.83 1.36,-1.01 -0.09,-0.85 0.92,-0.42 0.15,-0.85 1.3,-0.35 0,0.72 -0.87,0.33 0.43,0.53 1.81,-1.07 0.15,-0.69 -1.09,-0.65 3.06,-2.99 -0.04,-1.27 -0.53,-0.23 0.45,-0.47 2.9,1.52 1.47,-2 2.5,-1.53 -0.13,1.12 -1.13,0.88 0.34,0.9 z"
	/>
	<path
		id="peloponnese"
		name="Peloponnese"
		d="m 323.20553,604.37283 0.51,-0.13 0.45,1.76 -0.28,1.99 0.86,0.61 -0.3,1.71 -0.61,-1.2 -1.26,-1.11 -1.78,0.33 -1.34,1.4 -0.61,-0.77 0.62,-2.14 0.9,-0.19 0.33,-1.42 1.05,-0.73 1.46,-0.11 z m -107.8,-26.46 1.4,0.29 -1.31,3.69 0.43,1.35 -1.44,-0.86 0.52,-1.09 -1.47,0.44 -0.26,-1.24 0.92,-3.68 1.21,1.1 z m -5.34,-4.55 1.27,0.42 -0.89,0.58 0.35,1.47 -1.73,0.8 0.41,1.33 -0.3,1.03 -0.63,0.09 -0.54,-1.66 0.68,-0.76 -0.28,-2.82 0.81,-1.3 0.85,0.82 z m -13.98,-29.28 0.31,0.8 -0.78,1.14 0.18,-1.78 -1.06,-0.16 -0.18,-0.78 1.65,-0.97 -0.12,1.75 z m 139.84,-25.96 2.48,0.75 1.93,1.73 -0.18,2.14 -2.4,0.56 -1.97,-1.48 0.34,-0.76 -0.73,-0.04 -1.61,-2.42 2.14,-0.48 z m 21.03,-7.5 0.98,0.8 -0.4,1 -2.52,1.21 -2.49,0.14 -1.64,-1.39 0.1,-0.82 1.7,0.11 1.91,-0.91 0.91,1.34 0.9,-0.85 -0.04,-0.85 0.59,0.22 z m 18.92,-2.54 0.58,0.69 1.18,-0.01 -1.26,1.09 -2.48,0.29 -1.64,1.18 -1.62,-0.01 0.1,2.76 -5.1,0.12 -1.25,1.46 -1.2,0 -2.11,1.26 -0.21,-0.97 -1.56,0.6 -1.27,-0.36 1.18,-0.49 0.73,-1.39 2.73,-1 4.35,-3.07 2.03,-0.17 -0.13,-0.42 3.1,-1.54 1.65,0.97 0.52,-0.87 1.68,-0.12 z m -53.41,-80.07 1.2,0.82 0.94,-0.22 0.92,1.48 2.13,0.85 0.36,-0.92 0.91,-0.11 0.38,0.91 1.09,0.34 1.94,-0.78 3.79,-0.24 0,0 -0.25,3.6 1.26,0.68 -1.56,1.4 -0.46,2.1 2.04,1.37 3.57,1.07 1.14,2.22 0,0 -1.58,0.47 -2.55,3.05 -3.64,0.63 -0.66,-0.38 -1.47,0.69 -1.28,0.02 -0.6,-1.09 -1.7,0.49 -1.37,-0.71 -0.59,0.71 -4.66,-4.06 1.3,-1.73 -0.03,-1.44 -1.47,-0.57 -3.91,-3.42 -3.16,-0.86 1.36,-0.23 0,-0.68 -1.54,-0.06 0.09,0.82 -0.52,0.18 -1.77,-0.55 3,-2.03 0.15,-0.85 1.79,0.03 1.35,-1.6 1.57,0.13 0.24,-1.07 2.25,-0.46 z m -53.14,-7.15 3.6,1.3 1.52,-0.61 1.84,0.69 3.53,-0.65 4.57,3.28 8.76,3.3 1.97,1.86 5.91,2.97 1.35,1.92 2.75,2.09 1.74,3.42 5.6,3.59 3.84,0.69 3.24,-1.53 0.58,0.75 1.61,-1.5 5.05,5.03 0.31,1.01 -2.3,2.2 1.05,1.34 -0.6,0.62 0.86,1.71 0.86,0.49 2.73,-0.46 1.79,0.46 3.88,-0.61 0.69,0.26 0.93,1.21 1.26,0.27 2.2,3.15 1.07,0.14 0.18,2.96 -2.54,2.35 -2.04,-0.1 -0.92,1.18 -0.01,1.81 3.71,2.13 1.37,-0.27 -0.21,1.57 -1.84,2.61 1.69,4.06 -1.06,0.18 -0.06,0.55 -0.21,1.37 0.48,0.91 3.45,2.09 0,0 -1.11,1.3 0.38,0.86 -0.46,1.05 -0.83,0.23 -0.77,1.38 -0.12,2.09 0.94,1.14 4.59,0.69 1.78,1.81 1.75,0.17 0.63,0.78 2.41,-0.11 0.68,0.57 0.14,2.39 2.8,-0.24 0.38,1.37 1.93,-0.31 3.05,0.69 1.82,-1.42 2.64,0.83 0.06,1.41 -2.33,3.02 -0.3,1.31 0,0 -1.23,0.79 -5.74,-1.43 -2.41,1.51 -0.86,-0.56 -0.74,0.37 0.42,0.5 0.38,0.81 -1.77,-0.2 -0.91,-1.12 -0.92,-0.15 -0.76,0.68 0.02,1.18 -0.04,0.68 -3,0.19 -0.31,0.75 0.78,1.43 0.64,-0.85 1.71,0.35 -1.19,1.26 1.89,0.06 0.85,1.06 -7.55,0.6 -1.25,2.05 1.87,1.95 -0.06,1.49 -1.44,-0.37 -0.25,0.91 -1.05,0.1 -0.5,-1.09 -1.64,-0.26 -0.73,-1.24 0.83,-0.92 0.93,0 -0.3,-0.97 -0.8,-0.25 -0.27,1.1 -1.18,0.47 -1.49,-2.12 2.36,0.73 -1.24,-1.85 -1.48,-1.01 -3.6,-0.18 0.71,-2.64 -0.96,-1.69 1.98,0.48 1.37,-0.36 0.92,-1.08 -0.03,-2.5 1.93,1.44 1,-0.58 -1.12,-0.7 0.07,-1.88 -1.08,-0.44 0.17,-0.99 -2.78,-0.46 -3.1,0.46 -1.16,-0.79 0.99,-0.84 -0.87,-1.72 -3.7,2.32 0.05,-1.43 -0.98,-0.98 -1.04,-3.38 -0.82,-0.73 -3.97,-0.7 -2.87,-1.02 -2.55,0.63 -1.35,1.66 -1.99,-1.84 -0.93,0.11 -0.36,-0.64 0.5,-1.24 -0.99,-0.25 -1.07,-1.8 0.15,-1.25 -2.06,-1.83 -3.25,0.96 -2.06,1.85 0.37,2.78 1.44,2.73 -1.02,3.44 1.96,2.54 -0.05,2.51 2.12,1.95 -1.66,3.45 1.79,0.63 2.23,3.04 0.59,2.16 0.29,0.89 0.83,1.19 0.29,0.85 0.79,0.67 0.36,1.67 0.87,0.34 -0.47,1.26 2.21,1.24 -0.66,1.7 0.72,0.97 1.1,0.11 1.57,2.83 0.22,2.12 1.52,1.2 -1.13,1.55 -0.62,3.54 0.48,2.9 1.94,1.14 0.89,-1.22 1.32,0.45 0.94,-0.43 0.51,1.19 -0.5,1.05 0.53,0.82 2.09,0.82 0,1.38 -1.7,0.17 3.47,5.18 -0.7,0.69 0.28,1.65 0.65,2.11 -0.83,-0.06 -0.48,1.27 0.88,0.81 0.75,-0.26 -0.44,1.38 1.26,1.13 -0.74,0.76 1.97,3.62 0.37,2.58 1.26,2.44 -1.02,0.32 0.4,0.97 0.73,1.37 1.85,0.87 0.43,1.26 0.55,0.96 0.56,2.62 0.64,-0.02 0.2,1.06 1,0.47 -2.31,1.57 0.64,2.36 -0.4,0.94 -1.69,-0.64 -0.89,-1.15 -0.94,0.31 -0.18,1.42 -0.97,-0.46 -0.6,0.52 -0.41,1.75 1.2,1.25 -0.3,1.25 0.44,0.53 0.06,1.2 -1.11,1.47 0.51,3.98 1.16,0.86 0.87,0.9 0.5,1.94 1.53,1.7 2.93,2.01 1.6,0.09 0.48,1.92 1.78,0.58 -1.29,1 0.36,1.59 -1.19,1.73 0.92,0.27 0.29,0.89 1.89,0.39 0.25,1.88 0.98,-0.23 1.55,0.92 0.51,2.08 -0.37,0.64 -4.72,-0.65 -1.3,1.42 -2.15,-1.43 -1.84,0.2 0.16,-0.54 -2.22,-3.21 0.62,-1.01 -0.76,-0.56 0.67,-1.34 -2.72,-2.73 -1.78,-0.42 -2.85,0.85 -1.63,0.2 -1.31,-3.61 -1.52,-0.82 0.69,-1.31 -0.63,-1.22 -3.64,-2.9 -1.05,-0.11 -1.48,-2.15 0.99,-0.01 0.23,-2.08 -1.57,-2.31 -1.13,-0.52 -0.53,-1.39 -1.56,-0.27 -0.52,3.59 -0.5,0.07 0.12,-0.86 -1.34,-2.22 0.79,-0.76 -0.24,-0.99 0.94,-0.51 0.05,-1.3 -0.83,-2.6 -1.14,-1.24 -0.37,-3.46 -0.89,-2.05 -3.81,-0.8 -10.58,-0.03 -0.85,1.05 -2.8,0.86 -1.51,1.33 -0.35,0.94 0.66,1.7 0,0.95 0.52,1.26 -3.43,1.29 -1.42,1.66 0.77,1.02 -0.94,1.5 0.38,0.79 1.19,-0.19 0.91,0.79 -0.26,1.75 0.5,-0.02 -0.02,0.71 -1.01,0.33 -0.61,-1.57 -1.62,-0.68 -1.42,0.9 2.63,4.83 -1.69,1.57 -1.23,-1.93 -1.72,0.61 -0.36,2.49 0.87,4.04 -0.88,2.95 1.62,2.13 0.19,1.42 0.79,0.02 0.2,1.15 -0.04,2.77 -0.83,0.17 0.68,1.83 -1.75,1.14 1.25,0.84 0.07,1.78 0.42,0.78 -0.97,0.51 -0.96,0.08 -0.98,-0.85 -0.07,-2.08 0.69,-0.75 -1.78,-1.12 0.19,-1.23 -3.47,-1.3 -1.82,-1.89 -0.74,1.07 -2.04,-0.69 -1.79,-3.81 -0.02,-1.74 0.65,0.35 1.06,-1.07 2.13,-0.83 -0.81,-1.55 0.41,-2.3 -1.28,-0.2 0.11,-1.11 1.18,-0.6 -2.08,-1.01 0.05,-0.95 1.1,-0.73 -0.8,-0.42 -0.4,-2.07 1.62,0.06 0.2,-0.48 -1.52,-1 -0.43,-1.38 0.37,-1.54 1.11,-0.27 1.04,-1.46 -0.54,-0.47 -2.48,0.37 -0.69,-0.69 -0.75,-1.11 -2.28,-6.72 -0.4,-0.73 -1.18,-4.08 -1.56,-1.02 -0.13,-1.15 -1.74,-0.67 -0.06,-1.98 -1,-0.3 -0.91,-1.6 0.34,-0.77 -1.16,-1.46 -1.35,-0.16 -0.89,-1.21 -1.23,1.22 -0.59,0.55 -0.85,0.03 -4.11,-2.76 0.49,-1.56 0.92,-0.11 0.39,-0.99 -0.56,-2.98 1.26,-3.38 -0.42,-2.45 -5.98,-1.2 -3.31,0.14 -4.56,1.5 -5.76,3.52 -0.32,2.11 0.81,0.55 -0.11,2.88 -1.15,7.66 1.5,6.1 2.56,1.73 -2.79,1.48 -0.27,2.53 -1.2,0.42 -1.21,0.9 -2.65,3.03 -1.26,-3.52 -1.38,-0.68 -1.55,-2.22 -0.58,-3.01 -1.33,-0.45 -2.89,1.27 -1.4,1.05 -0.77,-1.51 -2.17,-0.04 -2.11,-1.4 -1.3,-3.18 -0.96,-5.15 0.93,-2.86 1.64,-1.22 0.28,-2.18 -2.49,-1.52 -2.24,0.74 -0.34,-1.02 0.8,-0.58 -1.97,-4.37 -1.93,-1.04 -1.49,-3 -2.57,-2.17 0.69,-3.71 -1.39,-6.24 -0.04,-1.79 1.27,-3.68 6.23,-6.04 1.85,-0.65 2.16,-4.34 0.14,-4.24 -1.62,-5.63 0,0 1.51,-1.26 6.81,-0.57 7.05,0.77 3.8,-1.34 0.05,-1.4 -1.07,-2.37 0.21,-1.31 0.88,-0.23 0.72,-1.61 3.63,-2.1 2.38,-0.2 2.08,-1.67 -4.51,-5.09 -2.29,-0.74 -2.51,-3.29 -0.77,-2.21 -3.44,-0.27 -3.74,1.78 -1,-0.87 0.16,-4.8 1.55,-5.75 -0.29,-3.06 -1.28,-3.12 0.16,-6.08 1.47,-2.45 6.77,-5.11 0.8,2.9 2.88,2.46 1.82,-0.27 3.6,2.76 6.25,1.82 1.28,-1.98 2.8,-2.35 2,-0.27 0.74,1.45 3.5,1.18 3.31,-3.26 2.86,-1.38 1.98,-0.1 -3.6,-5.76 2.19,-2.9 -0.48,-4.21 4.64,-1.25 1.02,-2.51 1.82,-0.2 3.5,-4.35 1.39,-6.55 -0.31,-6.75 0,0 -0.08,-0.11 z"
	/>
	<path
		id="south-aegean"
		name="South Aegean"
		d="m 684.68553,723.29283 1.06,-0.12 -1.08,0.65 -0.12,1.86 -2.48,1.94 -1.38,-0.2 -2.09,2.05 -0.3,1.23 -0.89,-0.4 -1.44,0.59 -2.02,2.47 -1.02,-0.88 -0.28,0.75 -1.37,-1.14 -0.1,-0.32 -0.78,-0.59 0.53,-1.37 3.52,-3.3 1.31,-2.1 2.61,0.56 5.3,-1.83 1.02,0.15 z m 19.3,-43.7 1.19,-0.03 0.26,1.95 -0.22,1.48 -1.88,2.94 0.7,4.92 -2.4,3.18 0.21,1.81 -2.83,2.86 -0.1,2.48 0.14,1.07 -1.12,0.89 0.84,1.49 1.66,0.4 0.08,1.31 2.23,1.53 -0.04,1.73 1.31,0.93 -0.69,1.56 -1.01,0.45 0.44,1.99 2.31,0.37 1.03,1.46 -1.13,2.46 -0.65,-0.89 -1.56,-0.08 -1.05,2.07 -1.63,0.03 -1.59,2.19 -0.46,1.91 1.65,0.3 -3.06,2.73 -0.14,-0.57 1,-0.61 -1.07,-1.96 -1.31,-0.32 -0.64,0.45 -0.91,-1.35 -1.94,-0.78 2.92,-2.85 -0.78,-0.62 1.05,-0.09 0.39,-1.11 -1.28,-2.72 -0.09,-2.52 0.65,-1.55 -0.92,-1.25 -2.04,-0.94 0.09,-1.55 -1.01,-0.37 -0.42,-1.25 0.58,-1.02 1.68,-0.77 0.22,-1.42 2.75,-1.88 -0.23,-0.85 0.68,-1.27 -0.88,0.13 -0.13,-0.5 0.71,-2.31 1.16,-0.93 0.21,-1.61 2.25,-1.56 0.06,-8.66 0.86,-0.42 1.27,0.54 1.41,-1.98 0.29,-0.43 0.93,-0.59 z m 1.23,-8.18 0.92,0.15 -0.9,3.07 0.88,2.47 -0.13,2.39 -0.47,0.09 -0.33,-1.15 -1.78,0.39 -0.84,-0.6 -0.14,-1.07 -1.26,-0.96 0.21,-0.46 1.32,0.18 0.05,-0.84 1.2,-0.77 0.09,-2.58 1.18,-0.31 z m 204.94,-27.93 -0.74,0.73 -1.13,-0.2 0.33,-0.62 1.54,0.09 z m 7.42,-0.94 0.53,0.33 -1.02,1.43 0.42,-0.25 0.92,1.03 -2.71,2.12 -1.17,0.18 1.1,-3.37 1.93,-1.47 z m -179.05,-8.83 1.94,0.56 0.37,1.85 -1.11,0.37 -0.84,0.08 -1.68,0.69 -0.36,1.11 -0.39,-0.74 0.41,-0.44 -2.4,-0.27 -3.35,1.33 0.19,-3.63 1.29,0.22 1.64,-0.73 0.41,0.52 3.88,-0.92 z m 10.87,-4.06 0.08,1.54 -1.92,2.89 -0.7,-1.52 1.06,0.03 0.32,-1.23 -2.31,0.86 0.1,-1.02 1.39,-1.62 1.98,0.07 z m -94.11,-8.73 1.96,1.86 -1.21,2.07 -0.54,-1.37 -0.34,0.92 -1.14,-0.75 0.18,-0.75 -0.73,-1.41 1.82,-0.57 z m -81.1,-4.32 4.89,3.15 0.48,1.32 2.34,0.28 0.1,0.58 -1.27,0.84 -1.96,-1.05 -3.76,1.23 -3.72,-1.02 -0.96,-1.7 3.51,-4.15 0.35,0.52 z m -34.14,-1.47 1.69,0.44 -0.36,1.34 -0.93,0.42 -0.91,-1.06 0.51,-1.14 z m 254.26,-4.12 0.08,-0.42 0.24,0.93 0.35,-0.49 0.45,1.22 -1,3.84 1.66,1.86 -3.44,4.08 -0.31,1.19 0.92,1.22 -0.22,0.79 -2.12,1.84 -1.45,2.86 -0.63,1.84 0.66,1.34 -0.7,0.09 -0.76,1.81 -1,0.67 -0.97,4.63 -1.11,-0.36 -1.73,0.69 -0.36,1.72 -1.08,0.44 -1.27,2.62 -0.48,3.57 2.85,0.43 -1.23,0.82 0.62,0.29 -0.28,1.53 -1.34,0.65 1.01,2.3 -3.16,-1.12 -0.37,-1.29 -1.95,-0.17 -2.84,1.03 -2.34,2.19 -1.33,0.19 -2.93,4.2 -2.24,5.32 -1.3,0.92 -1.32,2.56 -1.29,0.38 -0.27,1.21 -1.74,-0.09 -0.72,1.36 -1.76,1.28 -2.27,0.35 -1.09,1.19 -0.91,-0.16 0.05,-0.79 1.66,-0.19 0.05,-0.67 -3.18,-2.45 0.13,-0.76 -1.56,-2.14 3.17,-8 0.19,-9.06 -0.78,-1.23 -3.18,-0.34 0.27,-2.54 -0.69,-1.19 -1.67,0.02 -0.3,-1.1 3.83,-1.31 2.14,-2.64 1.17,-0.08 1.89,-3.43 0.18,-2.6 1.41,-3.16 0.69,-0.49 1.2,0.27 1.36,-0.9 3.24,-4.52 1.79,-1.25 5.6,-2.13 8.39,-4.94 5.82,-2.43 3.14,-0.56 2.86,0.38 3.03,-3.96 0.57,0.84 z m -257.22,1.23 -1.09,0.73 0.57,2.65 -2.54,-1.14 1.17,-4.24 0.52,-0.19 0.09,0.79 0.98,0.27 0.3,1.13 z m 6.39,-2.35 5.3,6.18 -0.59,3.92 0.39,1.05 -3.93,3.18 -2.1,-1.6 -3.1,0.03 -1.04,-1.08 -0.79,0.39 -0.95,-0.6 1.06,-0.99 4.33,0.47 1.83,-3.51 -0.69,-1.1 -0.13,-2.39 -0.95,-0.63 0.82,-1.56 -0.44,-1 -0.7,-0.7 -3.53,0.24 -0.27,-1.61 1.77,-1.1 2.93,0.83 0.78,1.58 z m 173.26,-2.27 3.02,5.21 -0.76,1.74 0.39,0.6 0.68,0.28 1.02,-0.99 1.63,1.84 0.91,-1.62 1.14,1.05 -1.36,1.72 -2.29,1.24 -0.55,-0.57 -1.12,1.12 -1.02,-0.31 0.25,-1.19 -0.88,-1.45 -0.96,1.08 -0.82,-4.37 -1.04,0 -0.63,1.28 -0.86,-0.25 -0.53,0.83 -0.61,0.33 -0.07,-1.29 -1.37,0.26 -0.35,-0.65 0.66,-2.84 -0.55,-1.27 0.48,-0.72 0.87,-0.37 -0.26,0.99 2.09,0.82 0.62,-0.34 0.4,-1.97 0.92,-0.62 0.95,0.43 z m 45.46,-5.48 0.94,0.82 -1.8,0.52 -0.05,-1.18 0.91,-0.16 z m -62.3,-9.92 1.51,-0.08 2.3,3.74 -1.89,3.17 -4.84,-0.62 -0.41,-1.06 -1.08,0.05 0.5,-0.49 0.28,-3.9 3.63,-0.81 z m 59.7,-2.48 -1.33,0.95 -0.56,1.33 1.66,-0.24 0.31,0.97 3.08,-1.85 -0.21,1.48 -1.26,0.46 1.97,-0.46 0.33,0.98 -0.1,0.99 -0.78,0.21 0.61,1.18 -1.62,0.59 1.62,0.59 -0.42,1.12 -0.96,-0.02 1.44,1.15 -0.7,0.39 0.59,0.51 -2.88,1.44 -1.47,-0.51 0.44,-1.01 1.24,0.09 0.23,-1.21 -2.21,-1.38 -0.89,0.86 -0.19,-0.52 -1.54,0.46 -0.01,-0.63 0.78,-0.04 -0.25,-0.53 1.1,-0.5 -0.06,-0.86 -1.14,-0.03 -0.29,0.66 -1.7,-0.72 -0.92,0.3 0.52,-1.4 -0.74,-0.29 0.6,-0.92 0.22,0.8 0.91,0.13 -0.08,-0.78 1.25,-0.37 0.04,-1.09 -0.65,-0.01 0.52,-0.75 3.5,-1.52 z m -129.43,-0.27 0.41,0.16 3.21,2.6 0.25,0.27 0.48,0.92 0.91,0.13 1.8,2.97 -2.38,0.02 0.66,-0.3 -0.81,-0.88 -1.36,0.57 -0.18,1 -0.88,0.45 -1.12,-0.53 -0.67,0.07 -1.2,-0.01 -0.04,0.6 -1.75,-0.74 -0.17,1.15 -0.91,0.29 0.65,0.89 -0.21,1.46 -1.59,0.49 1.44,1.25 0.95,2.11 -1.44,0.17 -1.08,-0.67 -1.27,0.86 -1.87,-1.62 -0.21,0.69 -1.07,-0.27 -1,-3.62 -1.44,-0.74 0.98,-0.68 -1.14,-2.14 0.46,-2.12 1,0.27 0,1.3 0.58,-0.15 0.29,-1.18 0.52,-0.02 1.27,0.36 1.21,1.23 1.58,0.36 0.23,1.19 1.44,-0.07 0.56,-1.86 1.31,-0.01 0.34,-0.77 1.83,1.23 -0.84,-1.97 0.4,-0.49 -0.62,-0.5 -0.63,-0.33 -0.35,-0.5 -0.68,-1.99 0.43,-0.9 1.72,0 z m 131.34,-2.21 0.7,1.2 -0.5,0.8 -2.58,0 0.06,-1.24 2.32,-0.76 z m -268.41,-0.1 3.47,3.2 1.08,0.3 0.79,-0.51 1.49,1.1 0.79,1.19 -0.51,0.32 1.12,1.25 -1.1,1.06 -2.7,-0.48 -1.95,-1.95 -0.13,-1.8 -2.96,-0.14 -2.12,-3.11 1.88,-0.86 0.85,0.43 z m 204.1,-1.28 0.18,0.87 -1.81,0.23 -0.87,3.14 -0.86,-1.52 0,-1.67 1.5,-0.08 0.96,-1.75 0.9,0.78 z m -177.17,-4.43 1.39,0.36 -0.68,0.5 0.24,0.95 -2.02,1.57 -0.28,1.16 -0.87,-0.07 -1.2,1.78 -4.4,2.65 -1.86,-0.04 0.75,-2 1.36,-1.24 0.9,-2.98 4.01,-2.48 2.66,-0.16 z m -66.11,-6.42 -0.3,1.51 3.83,1.85 3.34,-1.69 0.37,-1.23 0.82,0.46 0.48,-0.56 0.3,0.8 1.51,0.47 -1.26,1.78 0.71,0.58 -0.23,1.07 1,2.82 -0.7,2.16 -1.12,1.45 -1,-0.57 -0.62,0.65 -1,-0.12 -0.48,0.81 -1.15,-0.28 -0.72,0.85 -0.84,-1.15 -1.61,-0.22 -0.89,1.18 -0.59,-0.36 -1.43,0.81 -0.74,-0.39 -5.78,0.67 -1.61,0.81 -0.35,-2.2 1.3,-1.53 -0.69,-1.21 1.15,-1.69 -1.04,-1.18 1.35,-0.75 -0.47,-0.81 0.72,-0.88 -0.49,-0.26 1.4,-1.22 1.63,2.22 2.12,-0.67 0.26,1.32 -0.65,1.34 0.95,1.3 2.1,-0.02 0.89,1.28 2.83,-1.06 0.29,-0.76 -1.15,-1.89 -1.95,0.3 -2.61,-3.45 0.6,-0.35 -0.19,-1.8 1.71,-0.19 z m 17.47,-1.67 3.16,0.88 0.52,2.84 -0.77,0.74 -1.08,0.46 -2.63,-1.29 -0.98,-2.9 0.77,-0.83 1.01,0.1 z m 61.36,-0.15 2.09,2.56 -0.56,1.35 1.02,0.01 1.15,1.06 1.08,-0.22 0.12,1.1 1.98,0.68 1.47,1.96 -1.36,0.66 -0.65,1.3 0.71,0.86 0.45,1.9 -0.26,0.98 -0.46,1.08 -1.65,-0.78 -0.99,1.95 -1.46,-1.54 -0.38,-1.59 -0.79,-0.13 -0.51,-0.58 -2.77,-3.25 0.3,-0.97 -2.48,0.26 -0.56,-0.28 -0.27,-1.33 0.66,-2.17 -0.41,-2.58 1.15,-1.84 3.38,-0.45 z m -95.44,-1.52 0.69,-0.03 0.29,1.23 -1.16,2.63 -1.06,-1.42 -0.77,-0.03 -0.24,-2.11 1.7,-0.62 0.55,0.35 z m 128.26,-3.92 -0.71,0.78 -0.82,-1.36 0.75,-0.31 0.78,0.89 z m -99.93,-0.57 0.66,-0.01 0.48,1.45 1.35,0 0.22,-0.94 1.24,1.34 -0.91,0.44 -0.52,3.39 -1.21,1.44 -3.21,0.76 -0.99,-1.35 0.28,-0.96 -1.07,-0.75 -0.04,-2.32 1.06,-0.24 1.39,-2.03 1.27,-0.22 z m 100.7,-0.58 0.82,0.39 -0.32,0.61 -1.51,-0.23 0.02,-0.7 0.99,-0.07 z m -18.69,-1.67 -0.28,1.4 0.73,-0.02 -0.4,2.81 -1.16,-0.01 -0.98,0.84 -3.19,-0.86 0.15,-1.03 1.26,0.14 0.24,-1.66 1.51,-0.38 1,-1.74 1.02,-0.3 0.1,0.81 z m 39.12,-2.91 1,0.55 -0.94,0.69 -2.35,-0.91 2.29,-0.33 z m -34.51,-0.15 0.63,2.86 0.23,0.42 0.62,0.49 -0.49,0.56 -1.07,-0.67 -0.18,-0.35 -0.68,0.13 -0.55,-1.34 -0.67,0.55 -0.3,-0.75 0.55,-1.08 0.36,-0.51 1.55,-0.31 z m 11.06,-1.7 1.93,0.7 0.08,1.37 0.97,0.09 -0.18,1.5 -2.48,-0.57 -0.29,0.54 -1.6,-1.1 -2.29,0.61 -0.05,-1.23 0.67,-0.64 1.39,0.06 0.93,-1.42 0.92,0.09 z m 147.02,1.12 2.51,1.1 2.06,-0.49 1.43,3.51 -2.87,1.54 -13.91,4.32 -5.04,5.41 -6.33,-1.05 -5.24,1.73 -1.11,1.18 1.26,2.6 -1.68,1.43 0.66,3.64 -1.87,-0.41 -2.57,-3.16 -0.7,-1.59 0.55,-5.11 3.64,-1.24 3.16,0.34 2.74,-4.32 4.14,-4.26 2.8,-0.93 5.6,-3.44 6.17,-0.77 3.85,-2.39 0.75,2.36 z m -151.7,-2.81 -0.26,0.81 -1.35,0.4 -0.67,1.7 -0.47,-0.56 -1.29,0.06 1.56,-1.64 1.01,0 1.2,-1.17 0.27,0.4 z m 36.71,-1.84 7.21,4.69 -2.04,0.35 -1.32,-0.85 -3.92,0.75 -1.49,1.46 -0.61,-0.28 -2.79,2.95 -1.39,0.38 -0.8,1.56 -1.42,0.78 -0.69,2.03 -3.45,3.02 -2.52,0.56 -0.91,-0.37 -2.35,2.13 -2.43,-0.18 -2.4,-1.49 -0.52,-1.62 1.41,0.83 1.41,-2.24 0.72,0.28 0.34,-0.85 1.7,0.78 0.47,-0.72 1.87,0.7 1.07,-0.96 0.48,0.64 0.57,-0.75 -0.55,-1.21 1.71,-0.18 -2.46,-0.77 0.56,-1.63 0.76,-0.15 0.71,-0.55 0.32,-0.03 0.89,0.07 0.8,-0.8 2.31,-0.28 3.25,-1.96 2.82,-2.1 -2.01,-0.75 0.4,-0.98 1.3,-1.09 0.28,0.42 0.55,-0.57 1.67,0.17 -0.22,-1.12 0.71,-0.07 z m -34.95,-1.31 0.87,0.38 -0.58,0.23 0.31,0.94 -1.39,0.82 -1.29,-0.17 -0.51,-1.1 0.54,-0.94 2.05,-0.16 z m 135.85,-1 0.76,0.15 0.07,0.9 1.21,-1.08 1.6,0.74 -1.95,1.89 1.89,0.9 0.34,0.96 -1.49,-0.73 -1.37,0.68 -1.02,-0.32 0.06,-1.14 -0.84,-0.16 -1.49,-2.48 2.23,-0.31 z m -191.89,-1.56 0.74,0.53 1.35,-0.6 1.62,1.13 -1.54,1.05 -0.68,-0.41 -1.58,0.78 -1.4,-1.49 1.02,-1.44 0.47,0.45 z m 172.11,-4.95 1.26,1.15 -0.68,1.8 -0.44,-1.11 -2.48,-1.36 2.34,-0.48 z m -40.19,0.58 2.59,0.59 0.49,1.01 -2.7,0.06 -0.43,-0.36 -0.01,-0.52 -1.6,0.59 0.6,0.76 -2.98,-0.07 0.26,-0.58 1.01,0.37 -0.76,-0.96 0.38,-0.99 1.23,0.6 -0.02,-0.56 0.58,-0.25 0.69,0.35 0.67,-0.04 z m -163.45,-3.35 2.04,0.57 1.08,1.19 1.91,-0.1 0.99,0.63 1.03,2.24 1.61,1.29 2.38,3.77 0.07,0.66 -0.88,1.15 -0.45,-0.6 -0.97,1.92 -1.09,-0.4 0.18,1.13 -2.16,2.03 -1.82,-2.7 0.66,-0.61 -1.03,-0.02 -0.48,-2.18 0.52,-0.47 -0.57,-0.91 -0.76,0.16 0.28,-1.05 -1.06,-0.79 1.9,-1.5 -2.08,-0.5 0.75,-1.01 -1,-0.64 0.27,-1.25 -1.73,-0.46 0.2,-0.86 0.21,-0.69 z m 39.24,-0.78 1.1,0.45 -1.06,1.35 -0.45,5.52 -1.28,1.47 1.45,2.58 -0.42,0.91 -1.44,-1.98 -0.58,0 -0.57,-1.59 -1.57,-0.39 -0.88,-1.13 0.91,-0.18 -0.45,-2.71 2.28,-1.14 0.72,-1.89 1.89,-0.41 -0.15,-0.73 0.5,-0.13 z m 180.01,-1.78 1.97,0.73 -1.36,0.33 -1.91,-0.84 1.3,-0.22 z m -16.95,-1.25 1.19,0.62 0.72,-0.39 2.7,0.85 0.91,0.21 2.74,1.87 0.66,1.11 -1.87,-0.44 2.84,2.8 -0.04,1.51 1.15,-1.23 1.57,0.05 1.55,2.06 -0.74,0.14 -0.43,2.05 0.54,0.58 -1.43,1.29 0.54,0.44 0.82,-0.37 0.75,1.4 -6.01,-0.63 -0.33,2.98 -1.8,-0.1 -1.42,-0.41 -0.42,0.43 -1.07,-2.27 -1.5,-0.25 -0.35,-0.55 2.16,-1.83 -0.73,-1.88 1.33,-1.86 0.02,-2.06 2.53,0.58 -2.45,-3.15 -1.19,-0.29 -0.57,0.38 0.39,0.38 -1.06,0.23 0.42,-1.82 -3.4,-2.22 0.78,-0.79 0.5,0.58 z m -95.54,-6.07 -1.13,0.62 1.01,1.44 1,0.13 -1.03,2.54 -1.68,-0.2 -0.59,-0.86 -0.6,0.74 -1.87,-3.73 1.7,1.21 0.92,-0.49 0.51,-1.88 0.66,0.56 0.98,-0.65 0.12,0.57 z m -54.29,-2.35 0.87,0.75 -0.26,0.39 -0.59,-0.24 -0.5,1.28 -0.91,0.5 0.96,0.84 1.71,-0.87 2.02,0.3 -0.16,-0.91 0.63,0.19 0.07,-0.83 -1.14,-0.3 0.61,-1.28 0.22,0.75 1.32,-0.68 1.15,0.85 -1.44,1.32 0.66,0.73 -1.29,1.45 -0.6,1.71 0.43,0.52 -1.24,1.44 2.06,2.17 -1.24,0.48 1.06,0.78 -1.91,1.88 -0.82,2.8 -0.88,-0.07 -1.42,1.99 -0.85,-0.27 -2.3,1.95 -1.96,-0.33 -0.49,-0.79 -1.3,0.19 -1,-1.58 -1.19,0.76 -1.79,-2.9 -0.04,-1.84 0.9,-1.05 -0.08,-2.26 4.38,-2.89 -0.26,-0.61 -0.52,0.36 -0.67,-0.62 -0.58,0.73 -0.23,-0.44 2.4,-2.98 3.63,-1.53 0.64,-1.03 1.27,-0.22 -0.03,-0.44 0.53,-0.64 0.17,0.49 z m 27.99,-5.53 0.68,0.46 0.22,1.48 1.01,0.19 0.41,1.15 0.68,0.09 1.44,2.73 0.97,3.26 -0.67,3.25 1.45,0.3 -2,1.19 -0.62,5.83 -0.81,0.81 -1.73,6.5 -0.73,0.48 -0.33,-0.59 -2.68,0.4 -0.04,0.5 -1.6,0.35 -0.5,1.8 -1.26,-0.6 -1.96,2.25 -1.53,-0.65 0.27,-0.57 -0.98,-0.56 0.04,-3.97 -1.56,-0.3 -0.89,-0.88 -0.99,0.22 0.48,-2.07 -2.52,-3.39 0.67,-0.23 0.62,-1.57 -2.2,-2.56 -0.25,-1.13 -1.53,-0.29 0.96,-1.84 1.53,0.68 0.92,-0.46 0.33,-1.61 -0.43,-0.48 2.15,-0.86 1.65,-2.08 2.3,-0.22 2.2,-1.35 2.84,-4.42 3.56,-1.59 0.43,0.35 z m 114.22,-0.19 1.16,0.49 3.05,1 0.11,1.1 -1.89,1.69 0.58,0.63 1.51,-0.57 1.37,0.79 -1.32,0.64 -0.11,0.64 2.71,2.94 -0.18,2.27 -1.04,0.11 -3.03,-0.18 -1.08,-1.37 2.6,-0.93 -0.06,-1.2 -2.04,0.72 -1.22,1.27 -1.45,-2.48 0.68,-0.01 1.4,-1.89 -1.21,-0.54 -1.69,0.58 -0.21,-1.42 -2.03,-0.25 -0.8,-0.86 1.2,-2.4 2.13,0.37 -0.62,-1.05 1.48,-0.09 z m -207.5,-0.5 1.48,-0.17 -0.07,0.56 1.69,0.88 0.2,1 -0.05,0.66 -0.96,2.06 1.03,0.47 -0.05,2.93 -0.77,-0.18 -0.35,-1.59 -0.6,0.09 0.05,2.94 -2,1.19 -0.08,-0.47 -0.74,0.17 0.83,-1.39 -3.09,0.1 0.11,-1.64 -0.76,0.14 -0.39,1.08 -1.09,-0.03 -1.09,-0.15 -0.88,0.76 -0.04,-1.14 1.52,-0.93 -0.99,-1.94 1.54,-0.54 -0.75,-0.99 1.26,-0.76 -0.18,-0.99 1.13,-0.4 0.71,-1.3 1.41,0.52 -0.06,-1.08 0.86,-0.07 0.73,-0.31 0.44,0.52 z m 204.92,-0.87 0.44,0.89 -0.66,0 -0.94,1.46 -0.37,-1.05 1.17,-0.68 -0.62,-0.44 0.98,-0.18 z m -194.34,-4.51 z m 222.06,-5.83 0.58,0.48 -0.98,1.11 1.39,1.28 -1.45,0.6 -0.66,-0.72 -0.04,-1.67 0.52,-1.07 0.64,-0.01 z m -32.79,-2.57 1.07,0.12 0.68,0.96 -0.33,0.6 1.61,0.81 2.65,-0.28 0.4,2.12 -0.79,0.46 0.02,1.05 -0.6,-0.83 -0.87,0.82 -0.32,-0.38 -0.52,-1.46 0.7,0.11 -0.27,-0.8 -1.37,0.83 -1.02,-1.06 -1.75,-0.2 -0.53,-1.94 1.19,0.16 -0.47,-0.64 0.52,-0.45 z m -14.15,-5.78 0.83,0.32 -0.11,1.09 1.76,0.33 0.21,1.66 1.44,1.05 -1.04,0.53 -0.4,-0.79 -2.78,-1.01 0.16,0.89 -1.13,0.19 0.43,1.72 -0.71,0.34 1.93,2.23 -1.1,0.1 -0.22,1.11 1.19,1.19 0.04,1.43 -1.4,0.08 -1.48,-0.9 1.25,-1.67 -1.03,-0.33 -0.49,0.73 -1.03,-0.03 0.54,-1.03 -0.29,-2.03 0.23,-1.55 0.1,-2.35 0.63,-0.63 -0.7,-0.79 0,-1.45 0.51,-0.21 1.19,1.27 1,-0.34 0.47,-1.15 z m 14.37,-2.1 0.69,0.09 0.11,0.89 2.05,1.8 -0.67,-0.08 -0.72,1.36 -0.2,-1.51 -0.88,0.2 -0.22,-0.61 -0.48,-1.18 -0.71,0.11 0.04,-0.95 -0.63,-0.42 0.58,-1.16 1.04,1.46 z m -130.12,-1.08 -0.1,3.22 -1,0.82 -0.25,-2.89 0.52,-1.51 0.46,0.37 0.42,-0.48 -0.05,0.47 z m -5.13,-3.54 1.7,2.18 -0.56,2.31 0.36,0.82 1.54,-0.94 0.19,0.97 -0.49,1.89 -0.92,-0.35 -0.08,-0.72 -0.62,1.32 -1.35,0.71 -0.27,-0.82 1.69,-2.28 -0.69,-0.98 -1.03,0.53 -0.17,-1.68 -1.21,-0.76 -0.12,-1.31 0.79,-0.13 0.14,0.72 0.84,0.2 0.26,-1.68 z m 24.21,-2.12 -0.03,1.86 -0.67,0.08 -0.44,-1.25 1.14,-0.69 z m 133.66,-1.94 2.24,1.37 0.19,1 -0.93,-0.03 -0.56,-1.18 -0.52,0.72 0.44,0.5 -1,0.12 -0.13,0.82 -0.72,-0.21 0.28,-0.53 -0.63,-0.7 -0.44,1.55 -0.83,0.01 -0.97,-1.54 0.46,-0.1 -0.48,-1.49 -1.35,-0.34 4.95,0.03 z m -228.07,-0.63 -1.15,4.37 1.55,0.2 -0.23,1.35 2.43,0.11 1.41,2.36 0.01,1.19 -1.06,0.93 -0.27,-1.23 -0.55,0.65 -0.56,-0.45 0.1,2.09 -1.39,2.44 0.07,1.14 -1.04,-0.01 -0.08,1.34 -1.05,0.24 0.06,0.67 -1.51,0.84 -0.45,1.21 -2.88,0.84 -0.25,-1.3 1.06,-0.01 -0.61,-2.29 0.96,-0.26 0,-1.91 0.4,-0.61 1.49,-1 -1.09,-1.31 0.21,-1.68 0.07,-0.73 0.74,-0.09 -0.84,-1.11 0.68,-0.4 -1.39,-0.25 -0.11,0.53 -1.26,0.07 -0.13,-1.3 3.19,-4.59 2.24,-1.88 1.23,-0.16 z m 81.46,-2.11 1.27,0.51 0.05,2.19 1.3,1.62 0.75,-0.79 -0.37,-2.62 0.65,-0.49 1.55,0.1 0.63,1.7 1.71,-0.25 -0.02,1.27 2.88,-0.39 -0.21,3.31 -3.26,0.38 0.26,0.93 -0.66,0.01 0.13,0.47 -1.4,-0.31 -0.46,2.13 -1.15,-1.03 -0.79,1.1 -0.82,-0.28 -0.05,0.85 -1.19,-0.22 -0.52,0.7 -0.24,-1.01 -0.75,-0.34 -0.11,0.66 -0.52,-0.11 -0.8,-1.33 -0.52,1.87 -0.94,0.42 0.53,-2.02 -1.09,-1.32 0.59,-0.97 1.47,1.49 0.59,-2.42 -0.2,-1.81 -1.61,-0.77 -0.12,-1.41 0.34,-0.92 3.1,-0.9 z m -41.38,-1.66 0.48,0.62 3.54,0.77 1.35,1.86 0.48,3.22 -0.7,1.63 -0.6,1.13 0.34,0.47 1.14,-0.25 1.76,3.34 -1.66,0.74 -0.55,1.23 -0.88,-0.07 -1.97,0.33 -3.49,2.06 0.5,-1.71 -0.74,-1.02 0.69,0.02 0.17,-0.69 -0.39,-0.52 -2.27,0.07 0.55,-2.07 1.48,-0.69 -1.34,-0.8 1.89,-0.45 0.54,-1.5 0.95,0 -0.1,-1.4 -0.39,-0.44 -0.18,-1.11 0.78,-0.03 -0.66,-0.78 0.58,-1.54 -0.73,-0.79 -0.73,0.23 -0.74,-1.45 0.9,-0.41 z m -13.24,-13.35 0.51,0.17 -0.74,3.27 0.81,1.22 -5.34,-1.75 1.77,-1.38 0.14,-1.31 2.85,-0.22 z m 22.92,-4.74 0.56,1.22 0.48,-1.4 0.99,0.64 1.16,-0.66 0.48,0.91 1.27,-0.84 0.59,0.4 -0.12,1 0.71,0.29 -1.06,0.99 0.82,0.6 1.36,-0.17 0.88,0.27 0.78,-0.27 2.2,-0.41 1.06,1.41 0.63,-0.26 0.75,0.95 0.6,0.07 -0.18,-1.02 1.97,0.73 1.13,-0.53 4.24,2.61 0.66,0.77 1.39,-0.04 0.12,2.01 -2.21,4.24 0.28,1.98 -1.11,0.85 -0.67,-0.29 -2.37,0.98 -0.98,-0.77 -1.26,0.07 -2,-2.3 -2.35,0.23 -0.62,-0.65 0.52,-1.62 -0.94,-0.29 -0.01,-0.82 -1.51,-0.12 -0.04,-0.69 -0.97,-0.08 -1.06,-0.64 -1.79,-2.49 -1.12,-0.01 -0.06,-0.79 -1.3,-0.42 -3.8,-3.72 0.07,-1.47 0.9,-0.81 0.93,0.36 z m -57.8,-1.07 -0.05,1.06 1.06,-1.15 2.72,1.13 1.71,2.35 -0.06,0.97 -0.84,-0.03 0.28,0.87 -0.83,2.37 -3.35,4.92 -3.03,2.3 -1.41,2.38 -2.67,1.15 -0.39,-3.42 0.73,-2.85 -1.4,-0.51 0.31,-1.67 0.72,-0.29 -0.85,-0.99 1.19,-1.69 -0.27,-0.51 0.29,-0.56 0.77,-0.73 0.5,-2.26 0.92,-0.42 0.95,0.53 1.08,-0.97 -1.29,-0.01 1.09,-1.63 1.3,0.05 0.91,-0.78 -0.09,0.39 z m -17.88,-6.35 0.1,2.2 -1.33,0.98 -0.12,1.63 -0.93,1.17 0.32,0.59 -1.99,4.27 -0.08,-4.19 3.02,-8.36 0.4,-0.12 0.61,1.83 z m 57.52,-29.01 -0.66,1.71 0.77,0.65 -0.07,0.81 3.5,0.98 -0.48,2.66 1.08,1.55 0.13,1.55 2.84,0.09 0.98,0.92 5.45,-0.4 1.25,0.75 0.05,0.76 -0.03,2.33 -0.73,0.5 0.11,0.83 -0.91,0.34 -0.44,1.53 0.86,0.01 -0.04,0.69 0.34,0.24 1.19,0.01 -0.1,1.27 0.97,-0.44 0.14,1.14 0.77,0.26 -1.43,2.05 0.77,0.48 -1.28,0.75 -0.57,1.72 1.03,0.2 1.18,-0.7 2.12,0.44 -2.41,5.68 -1.01,0.65 -0.18,0.95 -0.73,0.08 0.8,2.53 -0.91,-0.01 -1.83,-1.5 -1.84,-2.46 0.29,-0.84 -2.25,-4.57 -1.56,-0.02 -0.8,-1.21 -1.07,0.11 -0.41,-1.94 -1.73,-0.42 -0.01,-1.75 -0.9,-0.9 -1.18,-0.18 -0.7,0.59 0.32,-1.81 -0.94,-0.87 -0.93,-1.39 -1.01,-2.5 -0.98,0.35 -0.78,-1.08 -1.2,0.32 -0.55,0.33 -1.62,0.32 0.23,-1.21 -0.71,-0.38 0.64,-1.07 -1.34,-0.83 -0.51,-2.35 0.3,-1.09 -0.85,-1.93 0.43,-1.29 3.72,-1.92 -0.01,-0.68 1.56,-0.88 3.87,-0.51 z"
	/>
	<path
		id="thessaly"
		name="Thessaly"
		d="m 425.89553,311.48283 -0.4,2.78 1.04,0.38 -0.5,0.43 0.54,0.33 -0.39,0.66 -0.83,0.21 -0.07,-0.46 -0.8,-1.5 0.22,-1.27 -0.52,-0.74 1.05,-1.19 0.66,0.37 z m -93.67,-7.45 1.78,-0.39 -0.39,1.12 -2.16,0.77 0.77,-1.5 z m 34.82,-5.06 1.71,0.24 2.74,2.16 0.2,2.06 -0.61,1.27 -0.7,-0.02 0.16,-1.22 -1.19,1.2 -0.96,-0.28 -1.71,2.34 0.54,0.54 -0.35,0.94 -1.07,-0.25 -0.39,-1.37 -1.59,0.61 -1.97,-1.36 -1.23,0.85 -0.3,-2.08 1.04,-1.19 0.93,0.23 2.96,-1.46 -0.03,-2.01 1.82,-1.2 z m 12.75,-0.35 0.79,0.4 0.23,1.3 1.64,0.48 0.14,1.05 1.28,1.36 6.62,3.02 0.41,1.06 -0.51,0.71 0.8,1.24 0.77,-0.16 0.35,-1.07 3.44,0.08 0.94,0.82 -2.33,3.9 -1.22,0.69 -0.63,-0.47 -2.26,2 -1.26,-0.58 0.34,-1.13 -1.12,-0.69 -3.52,0.01 -0.31,-2.1 -0.36,-0.53 0.25,-1.16 -1,-1.81 -1.5,-0.85 -0.65,-2.06 -2.58,-3.81 -0.16,-0.88 1.41,-0.82 z m 33.34,-2.12 0.48,-0.15 -0.09,2.48 1.03,-0.4 -0.46,2.09 -0.02,1.15 -0.22,2.27 -1.43,0.12 0.05,-0.85 -1.26,0.86 -0.57,-0.44 -0.48,-0.52 -0.39,-1.05 3.54,-1.45 -1.42,-2.93 0.57,-0.35 0.24,-2.04 0.43,1.21 z m -2.06,-6.76 0.38,0.81 0.01,0.69 2.32,1 -4.68,6.96 -0.46,2.53 -0.79,1.2 -1.59,0.46 0.65,0.88 -1.36,0.53 -0.59,-0.43 -0.56,0.78 0.35,0.51 -1.58,0.77 -0.12,0.9 -1.09,0.56 -0.68,-1.12 -1.29,0.2 0.1,-1.67 1.02,-0.62 0.74,0.27 0.75,-1.62 0.83,0.28 1.1,-0.96 -0.78,-0.92 0.37,-1.49 -0.71,-0.6 1.21,-0.77 0.32,-1.36 0.78,0.14 1.59,-1.26 0.77,-2.95 0.88,-0.51 0.69,-2.03 1.48,-1.71 -0.06,0.55 z m 10.81,-9.3 0.25,1.38 0.66,0.64 0.69,-0.53 0.68,0.8 -0.53,4.7 -2.25,1.62 -1.78,-1.17 1.56,-1.37 -0.88,-0.91 -1.19,0.65 -0.2,-0.53 0.4,-1.04 -0.14,-0.58 0.75,-1.91 1.98,-1.75 z m 23.18,-0.03 -0.46,3.88 -0.94,0.06 0.19,-2.98 0.49,-0.99 0.72,0.03 z m -13.8,-4.41 0.81,0.47 -0.08,0.81 -2.81,3.92 0.04,-1.02 -1.93,-0.12 1.98,-1.33 0.41,-1.55 -0.53,-0.44 1.19,-1.04 0.92,0.3 z m -184.81,-91.19 7.1,-0.56 1.01,0.7 0.59,1.25 -1.95,1.77 -0.36,1.75 1.68,-0.17 -0.27,2.45 0.93,2.7 2.14,-0.91 2.09,-3.11 0.4,-2.19 1.71,-1.74 3.2,-0.91 2.73,2.71 -0.77,1.95 0.21,1.43 0.84,-1.23 1.39,0.09 -0.62,4.85 -1.67,3.38 1.26,0.32 0.28,1.47 1.07,0.54 0.27,1.11 1.78,-1.13 1.1,1.69 1.84,-0.75 1.29,1.61 3.73,1.98 1.03,4.88 0.58,1.17 0.88,0.07 1.11,1.22 6.66,-1.12 1.95,-1.6 2.68,0.76 1.28,2.22 2.06,-1.84 -1.52,-1.27 0,0 3.35,2.41 0.66,1.62 -0.56,2.88 2.28,5.18 2.83,1.44 3.99,4.55 3.54,1.84 1.37,8.75 2,5.37 0.58,4.24 3.45,8.07 3.57,1.54 0.8,1.25 1.77,-0.31 1.45,2.6 2.57,0.07 4.13,3.19 1.88,4.56 4.92,6.21 0.91,0.08 0.75,0.95 1.66,3.97 2.33,2.66 2.16,0.92 1.38,1.9 0.38,2.63 0.81,0.76 0.02,2.02 2.8,2.91 -0.06,1.02 1.46,1.35 0.03,1.52 1.61,2.7 -1.33,3.17 -2.68,2.27 -2.98,0.09 -2.2,1.71 -1.78,-0.02 -0.43,-0.69 -1.12,0.66 -0.37,1.04 1.74,0.74 -2.08,0.97 0.1,0.83 -1.4,-0.99 -1.94,0.42 -0.32,0.98 -2.86,-0.24 -0.82,1.14 -3.02,-0.54 -1.36,0.44 -0.23,-0.86 -1.76,-0.47 1.46,-2.41 0.22,-2.57 1.01,-0.82 1.19,0.5 1.29,-2 0.16,2.62 1.06,0.2 -2.06,2.52 -0.53,1.89 1.35,-0.34 2.97,-2.37 1.33,0.18 0.37,-0.74 1.5,-0.16 -0.25,-2.44 0.72,-1.27 0.56,0.59 1.13,1.21 1.02,-0.32 0.56,-4.73 -2.59,-2.36 -0.32,-1.68 -0.83,-0.62 0.4,-2.54 -1.35,-1.37 -0.23,-1.14 -3.53,-2.89 -0.26,-0.84 -4.27,-1.21 -1.64,0.43 -3.12,-0.47 -0.89,-2.73 -1.03,-0.28 -0.65,-1.11 -2.12,0.24 -2.5,-1.46 -0.22,0.59 -0.75,-0.45 -0.46,1.24 1.1,0.06 0.33,0.64 -1.34,2.84 0.95,0.45 0.91,1.68 -0.82,0.58 -2.85,0.01 -0.9,0.87 -1.63,-0.66 -1,0.8 -0.62,-0.27 -3.42,1.31 -0.61,3.99 0.48,3.12 3.18,7.55 0.53,0.23 0.89,-2.37 0.8,-0.13 -0.83,-1.86 1.87,-0.32 -0.3,2.32 1.22,-0.25 1,1.65 -0.01,2.78 0.92,2.25 0.7,0.42 1,-0.44 -0.97,-1.39 0.33,-0.77 0.93,1.43 1.67,-0.01 0.32,1.29 1.37,1.09 -0.56,1.14 0.56,1.5 1.59,1.02 -1.08,1.55 0.71,0.55 -0.62,0.71 0.62,0.78 -1.54,-0.1 -0.42,0.87 -1.12,-0.31 -0.11,3.03 3.51,-1.35 0.8,-1.1 0.75,0.32 1.53,-1.5 2.94,-0.18 -0.92,2.7 -2.31,-0.17 -0.88,1.28 0,0 -2.06,0.33 -0.21,1.14 -2.4,1.82 -3.07,0.77 -4.17,-0.82 -2.04,-3.28 -0.88,0.76 -8.94,-0.01 -0.86,-2.1 -1.29,0.55 -2.07,-0.51 -2.24,-1.95 0.18,-1.58 -1.73,-0.7 -3.45,0.32 -2.4,1.47 -1.22,-0.93 -1.25,0.43 -2.84,-0.7 -4.39,0.32 0.87,-2.15 -0.13,-3.05 -0.81,-0.47 0.4,-1.39 -0.56,-0.85 1.07,-1.85 -2.34,-1.35 -1.47,0.8 -1.35,-0.63 0.51,-2.88 -1.05,-2.48 -2.75,-1.18 -0.24,-2.11 -1.3,-1.36 -9.35,-1.07 -2.01,-4.2 -1.42,0.04 -0.3,3.12 -1.83,1.2 -1.35,3.4 -2.16,1.91 -0.37,1.83 -2.92,1.71 0.7,2.84 -0.3,1.58 -4.13,2.8 -3.55,-0.37 -0.77,1.48 -1.82,1.07 0.19,2.05 0.85,0.98 -0.77,0.59 -1.1,0.57 -0.84,-0.43 -1.09,1.3 -1.57,-0.53 -3.56,1.65 -0.6,-0.56 -0.55,-6.39 -0.86,-2.06 -2.67,-0.53 -0.88,-1.71 -1.65,-0.48 -1.47,-3.15 -1.89,-0.27 -2.59,3.98 -2.75,1.51 -4.27,-1.13 -0.4,-3.22 1.5,-3.94 -3.84,-0.99 -1.04,-3.05 1.42,-1.68 -1.97,-2.63 -2.43,0.27 -2.11,-0.6 -1.63,1.55 -2.66,0.09 -1.18,0.91 -0.71,1.67 -0.88,0.28 -2.76,-1.07 -1.09,-1.3 -0.5,1.25 -2.78,1.41 -0.83,1.18 -1.45,-0.2 0.05,1.83 -4.29,2.82 0,0 -0.11,-0.09 0,0 -2.25,-1.44 0,0 -1.68,-1.43 -0.21,-2.11 1.36,-1.52 0.22,-1.37 1.52,-1.41 0.84,0.25 0.83,-1.79 1.26,-0.52 1.21,-3.64 -1.83,-0.89 0.07,-2.89 -0.77,-0.17 -0.4,-1.74 -1.61,-1.61 -5.99,0.21 -1.36,-0.75 -0.31,-0.96 -2.01,-0.65 0.58,-2.03 -1.05,-2.39 -3.37,-2.17 -2.73,-3.53 -0.39,-1.1 1.93,-0.68 -0.08,-2.21 -2.86,0.29 -0.33,-0.51 2.05,-3.29 -1.58,-9.34 -0.4,-0.78 -2.39,-0.15 0.15,-3.56 -2.49,-1.92 -0.51,-1.49 1.98,-1.17 0.16,-1.13 1.26,-0.29 0.58,-1.89 1.55,0.63 1.52,-0.72 3.11,2.96 1.32,-0.55 0.55,-1.21 -1.24,-2.67 -1.41,-1.07 0.76,-1.69 -1.03,-3.52 0.5,-0.4 -0.21,-1.99 0.28,-0.49 1.98,0.29 -0.38,-0.69 1.19,-1.42 0.3,-1.55 -0.2,-1.76 1.18,-0.38 1.32,0.48 0.55,-0.63 0,0 1.84,-1.32 0.4,1.63 2.06,1.07 0.45,1.02 1.72,-0.19 0.5,0.78 0.81,-0.06 0.56,-1.29 1.13,0.28 1.77,-1.29 0.48,-2.48 -1.56,-0.24 1.62,-2.32 1.29,0.41 1.68,-1.02 1.29,0.08 0.75,1.27 1.11,-0.87 1.62,0.7 2.03,-0.65 2.52,0.97 1.72,-0.8 1.83,2.04 0.4,1.9 1.14,0.9 3.45,-2.2 2.49,1.83 2.69,-1.59 1.32,0.06 1.17,0.79 0.05,0.76 1.82,-0.05 1.95,1.22 3.93,-1.9 3.82,0.52 1.03,0.8 1.79,-0.1 0.54,0.84 0.79,-1.61 -1.45,-4.97 0.52,-1.94 -3.76,-4.43 1.44,0.13 1.66,-1.1 0.73,-2.23 1.81,0.18 1.43,-1.03 2.42,-4.5 2.01,-1.53 -0.3,-1.97 2.25,-0.21 0.56,-1.8 4.24,-3.98 0.91,-2.17 1.59,-1.51 0.6,-0.98 -1.3,-2.17 0.67,-0.84 1.64,1.07 0.27,-1.6 -0.58,-1.1 0,0 0.38,-0.22 z"
	/>
	<path
		id="west-greece"
		name="West Greece"
		d="m 156.64553,401.35283 0,1.3 -1.37,0.8 0.22,1.48 -0.71,0.16 -0.43,-1.93 1.18,-0.32 -0.45,-0.73 0.36,-0.99 1.2,0.23 z m 65.81,-2.65 1.33,0.15 1.09,1.31 6.04,-0.48 3.68,1.99 2.27,-0.26 1.23,1.31 0.2,1.91 1.37,1.03 0.85,-0.28 1.35,0.8 1.08,2 2.75,-1.4 3.52,4.28 -0.09,1.15 2.5,2.01 1.88,-0.03 1.51,2.23 2.3,-0.04 2.74,1.19 5.84,-0.59 1.19,2.43 2.18,1.39 0,0 0.31,6.75 -1.39,6.55 -3.5,4.35 -1.81,0.2 -1.02,2.52 -4.64,1.25 0.48,4.21 -2.19,2.9 3.6,5.76 -1.97,0.1 -2.85,1.38 -3.31,3.26 -3.5,-1.18 -0.74,-1.45 -2,0.27 -2.8,2.35 -1.28,1.98 -6.24,-1.81 -3.6,-2.76 -1.81,0.27 -2.88,-2.46 -0.8,-2.89 -6.77,5.11 -1.47,2.46 -0.16,6.09 1.28,3.13 0.29,3.06 -1.55,5.75 -0.16,4.8 1,0.87 3.74,-1.78 3.44,0.27 0.77,2.21 2.51,3.29 2.3,0.74 4.51,5.09 -2.08,1.67 -2.37,0.2 -3.63,2.1 -0.72,1.61 -0.88,0.23 -0.21,1.31 1.07,2.38 -0.05,1.41 -3.8,1.34 -7.04,-0.77 -6.8,0.57 -1.51,1.26 0,0 -5.4,-11.36 -7.48,-9.31 -7.66,-4.96 -5.34,-4.74 -2.18,-0.96 -3.57,0.01 -1.32,3.25 -0.69,-1.35 0.61,-2.22 -0.64,-0.17 -0.12,-1.56 1.4,-1.43 0.2,-1.19 -1.22,-2.71 -0.54,-3.95 -2.61,-2.78 -4.23,-2.69 -10.13,-3.64 -0.49,-0.94 0.3,-3.46 1.66,-6.44 1.13,-0.61 2.33,1.82 2.74,-1.02 5.03,-4.06 4.39,-5.68 2.84,-5.67 0.79,-3.13 1.25,-0.59 0.88,-1.79 -0.26,-6.69 0.99,-2.05 -0.39,-2.17 1.65,0.28 1.88,2.69 3.84,-0.85 6.92,4.98 1.42,-0.25 5.38,1.48 6,-2.81 0.46,-1.77 3.47,-3.09 2.75,-8.04 1.27,-0.43 1.81,-3.2 0.79,0.46 2.28,-1.04 1.03,0.27 1.92,-2.68 0.28,0.19 z m -68.1,-9.72 1.32,0.71 -0.6,2.7 -1.51,-2.12 -0.18,-2.69 0.97,1.4 z m -6.16,-7.07 0.38,1.51 -1.26,-0.27 -0.69,-1.11 0.75,-0.06 0.22,-0.72 0.6,0.65 z m -7.49,-12.9 -0.74,0.33 -2.3,4.49 -0.56,0.01 0.68,1.63 -0.73,-0.49 -0.32,0.45 0.14,-2.87 0.55,0.33 2.55,-4.49 0.65,-0.13 0.08,0.74 z m 1.88,-5.67 -0.57,1.42 -1.7,0.96 -0.69,1.27 -2.42,0.52 -1.35,1.06 0.56,0.5 -0.22,0.72 -1.66,1.5 -0.19,-2.57 1.02,-0.78 -0.35,-0.64 2.32,-3.81 2.98,-0.16 1.42,-0.73 0.85,0.74 z m 36.74,-60.98 2.25,1.44 0,0 0.06,0.05 0,0 0.03,3.51 3.03,3.67 -2.01,5.31 -1.11,0.22 -1.92,3.07 0.34,1.7 3.84,2.52 5.72,2.13 0.94,4.65 2.35,3.88 8.2,2.51 0.85,1.6 0.04,1.42 -0.73,0.44 -3.76,0.38 -0.68,3.38 -1.54,1.96 0.85,1.15 1.45,6.05 1.88,1.25 4.18,1.2 2.73,-0.05 2.01,1.42 3.37,-0.11 1.92,-1.31 0.6,0.22 0.51,0.71 0.09,3.54 0.47,0.11 3.2,-1.03 1.88,-5.72 4.01,0 1.62,1.04 3.89,-1.42 0.43,-0.44 -0.26,-4.42 1.71,0.11 0.9,1.04 2.31,-0.44 2.43,3.49 -0.04,1.69 -2.35,1.2 -0.98,2.4 0.64,1.42 -0.68,1.36 0.13,2.51 1.45,1.58 -0.17,1.42 -2.05,0.54 -0.94,1.63 3.71,1.42 0.34,0.82 -1.79,4.79 0.77,3.04 -2.05,1.7 -8.11,3.64 -0.85,7.49 -2,2.57 0,0 -1.67,-1.34 -1.16,1.32 -2.89,0.86 -1.98,5.32 -3.07,-0.84 -2.63,-1.81 -2.06,0.58 -3.56,-1.25 -1.83,1.73 -2.8,-0.19 -0.94,1.83 -2.65,0.62 -3.8,3.05 -2.32,-0.41 -2.92,-2.5 -2.67,-0.74 0.31,-0.61 1.35,0.51 0.73,-0.39 1.18,1.62 0.6,-0.38 1.89,1.77 -0.39,-2.92 -0.62,-0.17 -0.21,-0.93 0.57,0.1 0.65,-1.91 -1.61,0.3 -0.26,-0.81 0.98,-0.3 -0.71,-0.69 -2.29,0.05 -1.47,1.17 -1.28,-0.77 1.39,-1.29 -1.2,-1.83 -0.68,1.93 -2.99,-2.22 -0.63,-1.16 0.75,-1.06 -1.06,-0.41 0.25,-1.7 -1.26,-0.42 0.79,-0.26 0.2,-0.91 -1.63,-3.38 -2.24,-2.57 -1.51,2.16 4.35,4.93 -0.34,0.84 -0.73,-0.09 0.56,1.51 -0.74,1.93 0.15,1.79 -1.23,-0.08 -1.04,1.31 -1.87,0.09 -0.01,1.55 0,0.73 -0.17,0.52 -0.09,0.68 -0.58,0.55 -0.46,-0.69 -0.82,0.6 -2.81,0.91 0.14,0.72 -0.79,0.75 -0.53,-0.23 -0.58,-0.4 -0.54,1.08 1.71,1 2.39,0.07 -2.06,0.62 -2.82,-0.64 -2.71,0.69 -1.46,-0.1 -1.49,-0.7 -0.62,-3.44 -2.9,0.26 -0.19,-1.16 0.61,0.03 0.31,-1.87 -0.9,-1.07 -0.63,0.54 0.59,-2.14 0.6,-0.17 -0.05,1.87 1.92,-3 -0.33,-0.22 0.15,-2.1 1.59,0.78 0.74,0.3 0.59,-0.89 -4.21,-0.72 1.14,-0.84 -0.65,-1.54 -0.38,-0.48 -1.08,-2.58 0.51,-1.29 -0.34,-0.34 -0.97,0.38 -0.41,-0.75 -0.99,0.09 0.71,-0.6 0.99,0.75 0.68,-0.44 -0.2,-0.58 -1.27,-0.11 1.28,-4.28 -1.7,-0.38 -3.08,3.46 -1.02,0.31 -0.58,-0.31 -0.25,-2.63 -1.35,-0.95 0.21,-1.26 0.54,-0.76 0.57,-5.99 -3.04,-4.67 -0.04,-2.8 -2.22,-0.51 -1.79,0.84 -0.99,-1.3 -0.93,0.89 -0.71,-0.37 -1.86,-4.03 0.01,-2.69 -1.39,-3.53 -0.48,-3.43 -2.27,-0.21 -1.26,0.69 -2.72,3.46 -0.2,-0.95 -1.2,0.37 -0.74,1.2 -0.81,-0.11 -0.82,-0.25 -0.2,-2.36 -0.86,-1.41 -1.34,-1 -0.73,-1.91 0.38,-1.66 0.9,-0.49 -0.63,-1.64 0.58,-0.77 2.38,-1.15 1.78,0.04 0.34,-0.67 -0.65,-0.31 -2.61,-3.82 -0.61,-1.95 1.09,-1.26 0.51,-2.75 1.97,3.71 1.92,0.82 2.76,-0.3 0.05,-0.78 0.42,-1.11 1.33,-0.26 0.31,-1.99 0.55,0.82 -0.39,0.69 -0.29,2.84 3.98,-0.39 0.34,-1.21 1.13,-0.75 -0.32,-1.16 2,1.88 3.2,-1.44 0.9,0.59 0.8,2.24 2.63,-1.12 0.48,2.1 -1,1.47 4.32,2.43 1.05,1.44 0.41,0.06 -0.34,-1.25 1.1,-0.36 -0.34,-2.65 0.94,-1.34 1.44,0.03 -0.26,0.87 1.31,0.13 -0.1,0.78 2.19,0.37 1.45,3.39 0.9,-0.53 -0.78,-4.05 -2.39,-2.15 0.14,-4.4 1.13,-1.76 -0.08,-1.77 -3.16,-5.62 -1.18,-0.68 0,0 -0.53,-1.93 -1.35,-1.65 2.25,-0.85 -1.08,-1.63 1.83,-2.25 2.43,-0.21 1.38,-0.81 1.35,0.32 1.49,-1.39 1.52,1.82 1.89,-1.19 3.45,1.62 5.03,-3.19 -0.04,-1.54 4.17,-2.22 z"
	/>
	<path
		id="west-macedonia"
		name="West Macedonia"
		d="m 209.84553,96.592831 4.14,1.85 2.85,-0.83 0,0 1.62,2.799999 1.82,0.13 0.28,0.83 -1.96,1.32 -0.39,0.94 -2.53,1.38 -2.72,0.63 -1.07,1.18 -0.39,-0.69 -1.61,0.71 2.85,4.38 -0.8,0.96 0.79,1.43 -0.68,1.58 1.31,0.93 2.53,-0.63 1.88,0.6 -1.67,3.73 2.88,2.04 0.76,3.5 1.41,-0.17 0.95,-1.1 1.24,1.66 4,1.35 0.03,3.27 -2.06,1.28 0.4,1.21 -0.55,1 0.71,1.56 -0.31,2.02 2.64,2.45 -1.74,1.71 0,1.2 2.63,3.74 0.43,3.31 4.83,1.02 3.86,3.69 -0.66,0.69 0.46,0.66 3.93,-0.51 3.23,1.15 -1.14,5.75 1.69,1.05 1.24,1.93 2.52,-0.23 -0.08,0.72 -2.04,1.51 -0.06,1.97 2.12,0.95 0.68,1.49 3.14,0.37 0.19,1.61 -1.4,1.38 -1.05,4.64 -5.18,2.77 -0.84,1.15 0.86,1.22 0,0 0.16,-0.01 0,0 0.58,1.1 -0.26,1.6 -1.64,-1.07 -0.67,0.85 1.3,2.17 -0.6,0.98 -1.59,1.51 -0.91,2.17 -4.24,3.99 -0.57,1.8 -2.25,0.21 0.31,1.97 -2.01,1.53 -2.42,4.5 -1.43,1.03 -1.81,-0.18 -0.73,2.23 -1.66,1.1 -1.44,-0.13 3.76,4.43 -0.52,1.94 1.46,4.98 -0.79,1.6 -0.54,-0.84 -1.79,0.11 -1.03,-0.8 -3.82,-0.53 -3.93,1.9 -1.95,-1.22 -1.82,0.04 -0.05,-0.75 -1.17,-0.79 -1.32,-0.06 -2.69,1.59 -2.48,-1.83 -3.45,2.2 -1.14,-0.89 -0.4,-1.9 -1.83,-2.04 -1.73,0.81 -2.52,-0.97 -2.03,0.65 -1.62,-0.7 -1.11,0.88 -0.76,-1.27 -1.29,-0.08 -1.68,1.02 -1.29,-0.41 -1.62,2.32 1.56,0.24 -0.48,2.48 -1.76,1.3 -1.13,-0.28 -0.56,1.29 -0.81,0.06 -0.5,-0.78 -1.72,0.18 -0.45,-1.02 -2.06,-1.07 -0.41,-1.63 -1.84,1.31 0,0 -1.88,-2.37 -1.59,0.16 -2.31,-1.54 -2.66,1.31 -1.84,-0.14 -1.44,2.44 -6.2,-2.21 -0.04,-1.98 -1.12,-0.56 0.73,-1.3 -1.06,-1.66 0.43,-1.28 -0.61,-1.48 -2.28,-1.9 -2.27,-3.4 0.73,-0.82 1.84,1 1.33,-0.84 1,-2.04 0.35,-4.54 -2.87,-1.27 -1.8,1.09 -2.05,0.27 -1.94,-3.29 -0.01,-2.13 -2.86,-3.58 4.23,-2.44 -0.62,-2.33 0.25,-2.06 -1.84,-0.25 1.15,-1.54 -2.06,-1.9 -1.08,-3.39 -1.55,-1.01 -0.25,-1.9 -1.63,-2.58 -4.05,-4.19 -1.37,0.36 -1.37,-1.38 -2.56,0.67 -3.24,-1.34 0,0 -0.24,-0.86 1.26,-0.78 0.23,-2.41 -0.63,-5.1 2.32,-1.67 0.92,0.11 1.87,-4.68 2.69,1.02 3.1,-0.57 1.86,1.57 2.5,-0.8 -0.22,-0.64 1.4,-1.84 0.08,-3.5 2.6,-1.66 0.76,-2.31 3.2,-0.55 -0.13,-3.96 0.44,-2.53 0.91,-1.04 0.04,-5.17 -3.01,-5.14 -3.55,-3.29 -0.08,-2.92 -2.35,-0.97 2.49,-2.55 -0.12,-7.49 15.48,-0.11 2.12,-2.24 2.77,-1.05 2.95,1.24 1.53,1.74 8.96,-2.24 5.14,-4.519999 2.19,0.04 2.05,1.099999 2.36,-0.709999 3.2,0.259999 2.27,3.38 1.08,0.56 0.42,1.33 2.3,-0.03 2.29,-2.57 0.99,0.03 0.62,-1.17 3.02,-0.1 -0.38,-1.969999 0.56,-1.41 1.18,-1.59 z"
	/>
</svg>
