<svg
	xmlns="http://www.w3.org/2000/svg"
	viewBox="0 0 295 793"
	aria-label="Map of Israel"
>
	<path
		id="golan-heights"
		name="Golan Heights"
		d="m 290.6293,111.87855 -3.12,5.45 -2.53,5.56 -2.8,3 -4.23,7.59 -5.38,6.25 -0.16,-0.68 -1.09,-0.62 -3.76,1.55 -1.79,0.22 -0.86,0.73 -0.67,1.52 -0.7,2.77 -3.93,0.54 -2.48,2.51 -2.74,1.94 -1.71,0.52 -1.23,0.8 -4.27,0.3 -2.06,1.33 0,0 -0.09,-1.28 -0.49,-0.54 -3.3,-1.49 -1.25,-0.89 0.05,-0.4 3.27,-3.32 1.93,-4.04 0.53,-3.58 0.31,-7.42 1.21,-4.61 0.33,-3.08 -0.47,-3.25 -0.75,-1.94 -2.24,-4.39 -1.52,-1.63 -0.72,-1.24 -1.29,0.56 -0.79,-0.44 -0.36,-0.87 0.05,-1.06 1,-2.21 0.35,-1.75 0.76,-10.480002 -0.29,-4.73 -1.99,-3.74 -0.06,-0.96 2.83,-2.83 1.78,-3.4 0.81,-0.94 1.85,-0.56 0.5,0.58 0.06,-5.32 0.47,-4.48 2.57,-6.86 0.64,-2.49 0.01,-1.38 -0.83,-3.57 -0.31,-2.73 0.12,-4.47 0.84,-3.21 1.48,-3.42 -0.16,-0.53 -0.99,-0.58 -2.17,-0.29 -1.03,0.13 -2.26,1.21 -1.29,0.33 -1.28,-0.31 -1.44,-1.35 0,0 0.65,-1.63 0.81,-1.06 5,-2.35 5.27,-3.16 1.78,-1.71 2.56,-4.09 1.43,-1.3 1.07,-0.42 4.33,0.37 2.62,-0.45 3.46,-1.44 3.2,-2.61 1.01,-1.38 0.54,-1.62 0.8,-5.2299999 1.48,-2.36 2.62,-1.91 9.49,-5.26 0.89,0.69 0.24,1.47 -0.62,2.62 -1.8,2.98 -3.43,3.9099999 -1.47,3.82 -0.53,3.71 0.83,8.33 -0.26,1.4 -1.98,3.38 1.28,1.54 2.54,2.17 1.12,1.56 0.57,0.99 1.16,4.17 0.22,2.41 -0.34,1.63 -0.65,1.67 -1.54,1.68 -0.55,1.1 0.33,2.22 1.43,0.51 2.36,0.25 1.31,0.61 3.64,5.26 -0.41,5.37 -2.76,2.44 -0.32,0.85 0.39,1.12 1.95,2.21 0.2,0.88 -0.25,0.5 -0.92,0.55 -1.94,0.23 -3.43,-0.91 -0.73,0.59 -0.41,1.07 0.87,3.58 -0.51,6.44 0.9,2.93 1.48,13.610002 3,4.16 0.59,1.43 0.01,1.13 -0.79,2.18 z"
	/>
	<path
		id="hadarom"
		name="Hadarom"
		d="m 215.1393,399.42855 -0.07,10.29 -0.61,4.04 -2.84,8.1 -6.52,11.71 -1.99,4.04 -1.85,3.27 -0.89,4.04 1.97,4.28 7.69,10.35 1.37,2.94 0.86,4.18 0.18,3.13 -1.17,5.13 -1.06,3.67 -6.6,10.17 -0.7,4.08 0.41,3.26 1.41,3.9 -0.01,4.12 -2.99,2.75 -6.48,4.25 -4.6,10.16 -0.06,3.62 0.87,3.29 -0.88,4.03 -3.3,1.19 -2.57,3.11 -1.52,4.16 -0.02,8.14 -2.43,5.67 -4.23,7.72 -0.91,4.43 -2.56,2.38 -5.09,9.82 -0.41,3.28 -3.9,18.08 -1.19,3.56 -2.38,3.42 -0.68,2.69 5.96,11.21 0.91,3.1 -0.55,2.37 -3.83,4.24 -1.1,3.42 0.59,3.96 -3.28,7.28 5.4,23.89 -13.34,19.14 -3.59,14.26 0.54,15.48 -5.08,10.16 -0.77,3.72 0.5,2.95 -0.5,3.99 -2.94,12.23 0,6.66 0.46,4.16 0.04,3.85 -2.26,2.77 -3.08,2.26 -2.62,3.04 -1.85,3.71 -1.68,4.72 -0.34,-0.11 -0.72,0.05 -0.43,-0.44 -0.38,0 -0.14,0.55 -0.2,0.06 -0.09,0.54 -0.24,0.28 -0.05,0.27 -0.43,0 -0.09,0.27 -0.44,0.17 -0.19,0.38 -0.14,0.82 -0.43,0.72 -0.38,0 0,0.16 -0.53,0.6 -0.62,0.38 -0.15,0.55 -0.67,0.66 0,0.82 -0.43,0.27 -0.62,0.88 -0.34,0.27 0,0.5 -0.76,0.87 -0.72,0.33 -4.35,-5.04 -2.27,-4.29 -0.82,-3.3 -0.69,-5.75 1.62,-5.38 0.81,-5.39 -0.78,-3.71 -3.09,-5.39 0.12,-9.51 -17.629996,-49.49 0.35,-2.99 -5.58,-15.43 -14.85,-41.99 -3.51,-13.2 -12.03,-7.87 -0.44,-6.11 3.57,-10.06 -7.48,-8.77 0.5,-10.87 -4.99,-20.76 -15.18,-31.89 -9.84,-28.81 -14.2200002,-47.2 7.7600002,-5.82 7.67,-6.62 1.9,-3.49 -0.04,-5.41 -0.43,-5.79 1.51,-5.04 5.74,-7.38 17.3,-16.76 5.02,-1.2 1.53,-2.71 -0.02,-3.87 -2.35,-3.47 -7.49,-7 4.16,-6.77 0.72,-0.45 0.34,-0.5 -0.05,-0.11 -0.29,-0.06 0.05,-0.5 -0.15,-0.06 0,-0.16 0.58,-0.68 0,0.23 -0.43,0.5 0.48,0.11 0.09,0.17 0.15,-0.05 2.63,-4.37 0.34,-1.18 0.62,-0.44 0.96,-1.24 0.38,-0.78 -0.05,-0.28 0.53,-0.67 0.28,-0.73 0.24,-0.17 0.1,0.23 0.19,0 2.92,-5.21 0.53,-0.73 1.34,-2.69 0.76,-0.95 0.39,-1.12 1.91,-3.31 1.73,-3.7 0.86,-1.45 0.86,-2.08 0.29,-0.5 0.14,-0.06 -0.05,-0.17 0.48,-0.89 0.48,-1.35 0.62,-1.12 0.72,-1.68 -0.52,-0.56 -0.29,-0.96 0.05,-0.78 0.47,-1.18 0.15,0 0,0.39 -0.19,0.12 -0.29,0.67 0,0.95 0.62,1.07 0.39,0 0.09,-0.28 -0.48,-0.28 0,-0.17 0.19,-0.11 -0.04,-0.56 0.14,-0.17 0.05,-0.45 0,-0.17 -0.19,-0.11 0,-0.23 0.43,0 0.19,0.23 1.1,0 0.1,-0.28 0.38,-0.39 0.09,-0.23 -0.24,-0.11 -0.04,-0.28 0.04,-1.46 0.15,-0.11 0.05,0.22 0.14,0 0,-0.11 0.38,-0.22 1.43,-3.6 1.11,-2.38 0,0 0.65,0 0.67,-0.28 0.48,-0.45 0.86,-0.11 1.05,1.29 1.2,0.11 1.67,-0.61 0.63,0.33 0.33,0.56 -0.14,0.73 -1.34,1.41 -0.1,0.39 0.34,1.51 -0.43,1.41 0.04,2.18 -0.48,0.4 -0.91,0.05 -0.76,-0.11 -1.73,-0.62 -0.43,0.06 -0.62,0.33 -0.48,0.9 0,0.79 0.43,1.01 1.78,0.95 0.62,0.78 0.14,0.79 -0.33,0.62 -0.48,0.45 -1.3,0.56 -0.81,0.56 -0.38,0.56 0,0.5 0.24,0.67 0.81,0.62 1.92,0.11 1.05,0.28 1.05,0.84 0.43,0.06 1.58,-0.28 0.48,-0.5 0.05,-1.29 0.34,-0.12 1.1,0.28 0.43,-0.05 0.43,-0.51 -0.05,-0.44 -0.96,-0.9 -0.33,-1.07 -1.34,-0.56 -0.15,-0.56 0.82,-0.17 1.63,0.23 0.71,-0.11 0.53,-0.4 1.1,-1.23 0.39,0.06 2.96,1.68 0.96,0.84 0.77,1.12 0.43,0.95 1.24,3.87 0.96,1.35 0.57,0.39 1.11,-0.28 0.52,-0.39 0.91,-0.96 1.729996,-2.41 1.1,-1.23 0.53,-0.39 0.39,0 0,0 0.27,0 0.96,0.95 1.1,1.63 0.72,1.62 0.77,2.52 0.38,0.51 0.58,0.33 1.53,-0.33 0.86,0.11 0.62,0.22 0.86,1.07 0,0.73 -0.91,1.9 0.1,0.73 0.77,2.07 0.09,0.84 -0.09,1.29 -0.48,0.95 -0.15,0.79 0.24,3.02 -0.14,1.63 0.43,1.4 0,1.39 -0.29,1.57 0.43,1.01 2.64,1.51 2.49,1.68 2.34,1.29 0.77,0.67 0.96,1.34 2.68,0.67 0.57,0.28 3.75,2.91 0,0 -2.67,3.98 -1.52,7.57 0.75,8.2 -0.64,3.5 -3.45,6.55 -3.82,4.93 -3.35,6.73 0.47,4 1.93,3.13 2.77,2.29 4.28,1.15 7.83,-1.03 7.22,-1.8 7.05,0.59 9.94,0.64 3.64,-1.89 2.39,0.55 3.73,-0.64 3.23,-0.28 4.14,-0.78 2.53,-1.52 5.03,-5.15 4.29,-4.83 5.58,-2.48 5.73,-4.18 6.09,-5.38 2.72,-0.96 11.39,0.17 z"
	/>
	<path
		id="hamerkaz"
		name="Hamerkaz"
		d="m 76.419304,318.03855 1.58,-3.95 0.19,-0.85 0.53,-1.12 0,-0.22 0.19,-0.23 0.24,-1.23 0.29,-0.56 0.04,-0.68 0.2,-0.05 0.04,-0.23 0.15,-0.05 0,-0.4 0.09,-0.17 0.15,0 0,-0.28 0.09,0 0.39,-0.67 0.24,-0.11 0.04,-0.34 1.44,-2.13 1.24,-3.04 1.2,-3.14 2.11,-7.28 0,0 1.41,0.23 0.81,0.62 1.15,0.22 3.07,-0.05 1.48,0.84 1.2,0.17 2.68,-0.17 1.439996,-0.4 1.19,-1.12 2.3,-2.81 1.15,-0.67 0.86,0 0.96,0.39 0.86,1.46 0.67,0.28 0.96,-0.39 0.19,-0.34 0.53,-0.33 1.15,-0.29 1.67,0.17 0.67,-0.67 0.05,-0.9 -0.24,-0.67 -0.72,-0.74 -1.91,-0.84 -0.91,-5.51 -0.24,-0.67 -0.67,-0.73 -1.68,-1.13 -0.57,-0.79 -0.14,-0.78 0.14,-1.13 0.24,-0.67 0.05,-1.75 0.24,-1.57 1.48,-1.8 1.15,-2.08 0.53,-1.3 0.04,-1.74 -0.48,-1.35 0.34,-1.07 0.1,-2.65 -0.29,-0.67 -1.49,-0.79 -0.52,-0.9 -0.91,-0.45 -1.29,-1.13 -1.35,-0.51 -3.68,-0.45 -1.269996,-0.04 0,0 0.29,-0.77 0,-0.28 -0.15,-0.17 0.05,-0.29 0.53,-1.23 0.239996,-0.23 -0.05,-0.45 0.43,-0.79 0.05,-0.67 0.52,-0.79 0.1,-0.79 0.24,-0.56 -0.1,-0.57 0.39,-0.39 0,-0.9 0.33,-1.47 0.29,-0.45 0.48,-1.3 -0.05,-0.67 0.19,-0.28 0.24,-0.79 -0.05,-0.17 0.54,-1.41 0.04,-0.84 -0.15,0 0,-0.17 0.34,-0.57 0.1,-1.29 0.52,-1.02 0.1,-0.56 0.43,-0.96 -0.05,-0.68 0.19,0.12 0.15,-0.06 -0.1,-0.96 0.19,-1.01 0.19,-0.17 -0.04,-0.4 0.71,-3.21 0,-0.23 -0.24,-0.17 -0.04,-0.28 0.62,-0.34 0.05,-0.17 0.33,-1.91 0.19,-0.51 0,-0.68 0.29,-0.56 0.81,-3.73 0,-0.67 0.24,-1.24 -0.28,0 0,-0.12 0.52,-0.5 0.15,-0.34 0.09,-0.79 -0.09,-0.68 0.28,-1.13 -0.33,-0.22 0.24,-0.51 0.19,-0.12 0.38,-1.01 0.15,-0.06 0.14,-0.84 0,0 2.23,-0.09 1.58,0.28 1.96,0.85 0.77,0.17 1.24,-0.06 2.06,-0.79 1.68,-0.22 2.63,0.17 2.63,0.62 4.12,0 0.72,0.22 0.57,0.4 0.86,0.96 0.63,1.24 1.19,0.68 1.2,1.58 0.77,0.17 1.24,0 4.8,-1.52 0.79,0.05 0,0 -0.36,2.62 -1.2,1.17 -4.48,2.01 -1.15,1.45 -1.83,3.44 -0.19,5.47 0.81,5.81 -0.57,1.5 -1.46,1.04 -2.37,3.43 -3.11,7.05 -0.3,2.37 0.08,2.35 2.35,3.52 0.93,1.95 1.31,5.78 0.21,2.6 -0.55,2.12 -1.4,2.65 -0.2,1.61 0.54,1.35 1.8,1.92 1.98,3.77 0.57,2.33 -0.4,2.99 -1.38,3.01 0.04,1.36 0.33,1.09 -0.76,0.62 0.75,2 -2.36,5.04 0.42,4.58 2.64,3.56 3.94,3.14 0.83,3.24 -1.52,4.72 -8.61,1.54 -0.15,0.23 0,0 -4.43,-0.19 -2.67,-0.33 -1.55,0.17 -1.27,0.99 -1.55,4.46 -1.83,1.15 -5.5,1.16 -2.82,0.99 -3.52,3.46 -0.76,1.96 0,0 -0.39,0 -0.53,0.39 -1.1,1.23 -1.729996,2.41 -0.91,0.96 -0.52,0.39 -1.11,0.28 -0.57,-0.39 -0.96,-1.35 -1.24,-3.87 -0.43,-0.95 -0.77,-1.12 -0.96,-0.84 -2.96,-1.68 -0.39,-0.06 -1.1,1.23 -0.53,0.4 -0.71,0.11 -1.63,-0.23 -0.82,0.17 0.15,0.56 1.34,0.56 0.33,1.07 0.96,0.9 0.05,0.44 -0.43,0.51 -0.43,0.05 -1.1,-0.28 -0.34,0.12 -0.05,1.29 -0.48,0.5 -1.58,0.28 -0.43,-0.06 -1.05,-0.84 -1.05,-0.28 -1.92,-0.11 -0.81,-0.62 -0.24,-0.67 0,-0.5 0.38,-0.56 0.81,-0.56 1.3,-0.56 0.48,-0.45 0.33,-0.62 -0.14,-0.79 -0.62,-0.78 -1.78,-0.95 -0.43,-1.01 0,-0.79 0.48,-0.9 0.62,-0.33 0.43,-0.06 1.73,0.62 0.76,0.11 0.91,-0.05 0.48,-0.4 -0.04,-2.18 0.43,-1.41 -0.34,-1.51 0.1,-0.39 1.34,-1.41 0.14,-0.73 -0.33,-0.56 -0.63,-0.33 -1.67,0.61 -1.2,-0.11 -1.05,-1.29 -0.86,0.11 -0.48,0.45 -0.67,0.28 z"
	/>
	<path
		id="hazafon"
		name="Hazafon"
		d="m 209.7393,209.61855 -1.14,-1.01 0.05,-1.03 -1.22,-1.58 -1,-2.94 0.21,-4.06 -0.54,-4.36 -2.8,-4.74 -2.79,-2.08 -1.46,-0.36 -3.31,-0.06 -8.43,1.55 -2.01,-0.01 -1.37,-0.36 -2.71,-1.34 -2.64,-1.94 -3.08,-3.19 -2.38,-1.3 -1.67,0.25 -0.92,0.46 -0.96,1.09 0,0 -0.91,-1.54 -0.43,-0.45 -2.01,-0.79 -0.57,-0.4 -1.3,-2.43 -0.48,-0.45 -0.62,-0.28 -1,0.39 -1.25,2.04 -1.87,0.9 -0.52,0.45 -0.29,1.53 -0.38,0.57 -1.11,0.34 -1.14,2.09 -0.72,0.62 -1.05,0.39 -0.48,0 -2.83,-0.9 -2.68,0 -0.72,-0.23 -0.62,-0.73 -0.43,-1.02 -0.67,-0.28 -0.29,0.22 -0.77,0.06 -0.52,-1.35 -0.53,-0.4 -1.05,-0.34 -0.34,-1.08 0.53,-1.75 0.09,-1.35 -0.43,-0.51 -0.95,-0.4 -0.43,-0.96 -0.34,-0.17 -0.81,0.06 -0.48,-0.46 -0.29,-1.07 0,-1.7 -0.67,-0.73 -0.33,-0.12 -0.49,-0.45 -0.14,-0.79 0.39,-0.57 0.67,-0.22 1.29,0 1.34,0.56 0.81,0.12 1.06,-0.23 0.14,-0.74 -0.38,-0.56 -2.59,-0.68 -0.57,-0.79 -0.1,-0.85 0.19,-1.19 0.67,-1.19 0.48,-0.51 0.96,-0.39 0.86,0 1.05,0.28 1.92,0.96 0.77,0 0.52,-0.45 0.53,-0.85 1.24,-2.94 0.58,-0.8 3.02,-1.69 0.47,-0.46 0.29,-0.62 -0.05,-1.24 -0.57,-0.8 -0.82,-0.62 -0.28,-0.68 0.09,-2.04 0.24,-0.68 0.43,-0.45 0.43,-0.06 0.48,0.46 0.87,1.47 0.33,0.17 0.62,-0.23 1.1,-1.24 0.29,-0.63 0.15,-0.79 0,-0.45 -0.39,-1.02 1.63,-1.19 0.38,-0.51 0.1,-0.4 -0.77,-2.04 -0.09,-0.85 0.09,-0.39 2.54,-4.03 0.1,-1.19 0.33,-1.08 -0.05,-0.9 -0.33,-0.96 -0.91,-1.42 -1.25,-3.06 -0.04,-1.25 0.67,-2.61 -0.15,-0.79 -1.1,-0.8 -3.21,-0.96 -1.77,-1.53 -1.53,-0.8 0,-0.74 0.57,-2.21 0.05,-0.9 -0.38,-0.52 -0.91,-0.51 -0.67,-0.73 -0.38,-1.02 -0.15,-1.25 -0.32,-0.08 0.51,-3.73 -0.69,-2.03 -1.2,0.17 0,0 -0.33,-0.49 -0.39,-0.29 -0.57,-0.05 -0.19,0.17 0,0.45 -0.34,-0.11 -0.43,0.05 0,-0.45 0.77,-2.04 0.09,-1.48 0.67,-2.780002 0.05,-1.65 0.15,-0.34 -0.05,-0.68 0.09,-0.06 0,-0.57 0.2,-0.68 -0.05,-0.28 0.43,-1.08 0,-0.51 0.29,-0.12 0,-1.53 0.19,-0.17 0.14,-0.85 0.67,-1.25 -0.05,-0.8 -0.14,-0.28 0.14,-0.12 0,-0.74 0.24,-0.45 -0.04,-0.57 0.28,-0.62 -0.05,-0.17 0.24,-0.12 -0.09,-0.57 0.33,-0.68 0.15,-0.85 0.24,-0.46 0.09,-0.85 0.48,-0.85 -0.19,-0.11 0,-0.46 0.48,-0.4 -0.1,-0.11 0.15,-0.46 -0.1,-0.28 0.34,-0.51 -0.1,-0.57 0.14,0 -0.04,-0.62 0.23,-0.18 0.05,-1.3 0.19,-0.4 0.1,-1.88 0.19,-0.34 0,-0.62 -0.14,-0.18 0,-1.94 7.69,-0.11 5.43,-0.46 6.11,1.06 0.6,-0.26 0.99,-1.07 1.99,-0.65 6.38,-0.21 6.64,-0.93 3.41,0.81 2.9,5.51 1.62,1.86 2.6,1.54 1,0.29 4.38,-1.95 4.73,-0.38 1.25,-0.66 2.94,-2.83 0.85,-1.16 1.41,-1.04 0.75,-0.08 3.04,0.73 2.91,-1.1 0.41,-0.49 0.23,-2.59 0.39,-0.86 3.28,-1.39 0.86,-2.05 0.35,-4.48 1.08,-4.97 1.11,-1.93 0.85,-2.28 -0.14,-2.49 -0.62,-2.8 0.08,-1.6 1.47,-3.35 1,-0.84 1.62,-2.13 1.65,-3.64 0.41,-0.43 1.21,0.99 4.08,5.82 0.67,0.21 0.63,-0.61 0,0 1.44,1.35 1.28,0.31 1.29,-0.33 2.26,-1.21 1.03,-0.13 2.17,0.29 0.99,0.58 0.16,0.53 -1.48,3.42 -0.84,3.21 -0.12,4.47 0.31,2.73 0.83,3.57 -0.01,1.38 -0.64,2.49 -2.57,6.86 -0.47,4.48 -0.06,5.32 -0.5,-0.58 -1.85,0.56 -0.81,0.94 -1.78,3.4 -2.83,2.83 0.06,0.96 1.99,3.74 0.29,4.73 -0.76,10.480002 -0.35,1.75 -1,2.21 -0.05,1.06 0.36,0.87 0.79,0.44 1.29,-0.56 0.72,1.24 1.52,1.63 2.24,4.39 0.75,1.94 0.47,3.25 -0.33,3.08 -1.21,4.61 -0.31,7.42 -0.53,3.58 -1.93,4.04 -3.27,3.32 -0.05,0.4 1.25,0.89 3.3,1.49 0.49,0.54 0.09,1.28 0,0 -4.86,2.12 -1.12,1.28 0.32,2.87 -1.95,0.77 0.08,1.24 -0.42,0.49 -1.52,0.43 -2.49,1.89 -0.23,2.09 0.54,0.63 -0.25,3.03 0.39,0.94 1.28,0.7 0.34,1.27 -0.82,1.9 -0.12,1.91 1.77,3.67 -0.17,0.42 -1.72,-0.02 -0.31,1.92 -0.79,-0.02 -1,-0.66 -0.37,0.2 0.11,1.21 1.16,1.88 -0.38,0.64 -1.74,0.37 -0.92,1.29 0.82,0.62 1.11,-0.03 1.1,2.51 1.29,0.52 0.33,0.55 -0.21,1.04 -2.13,3.83 -0.15,1.03 0.27,0.92 1.43,0.7 0.35,0.68 -0.43,1 -0.84,0.03 -0.58,0.53 0.42,2.69 -2.02,0.63 0.5,4.6 -0.3,0.75 -1.29,0.38 -0.18,0.33 1.65,2.78 -1.41,-0.14 -4,-1.15 -5.08,-2.37 -2.16,-0.66 -3.92,-0.17 -2.58,0.75 z"
	/>
	<path
		id="hefa"
		name="Hefa"
		d="m 110.0793,209.62855 -0.1,-0.17 0.2,-0.46 0.33,-0.16 0.14,-0.46 0,-0.11 -0.47,0 0.28,-0.39 0,-0.29 0.24,-0.45 0.39,-0.17 -0.05,-0.17 0.09,-0.05 0.72,-3.5 0.1,-1.64 0.52,-1.58 0.29,-1.53 -0.38,-1.01 -2.11,0 0,-0.29 1.87,-0.05 0.14,-0.12 0.1,-0.45 0.19,0.17 0.05,0.4 0.57,0 0.05,-0.12 -0.33,0 -0.15,-0.16 0,-0.23 0.19,-0.06 0.1,-0.39 0,-0.23 -0.19,-0.06 0,-0.16 0.19,-0.06 0.05,0.17 0.14,0 0.24,-0.17 -0.1,-0.17 0.05,-0.62 0.53,-0.91 -0.1,-0.28 -0.28,0.11 -0.05,-0.79 0.19,-0.11 0,-0.45 0.19,-0.34 -0.1,-0.23 0.34,-0.39 0,-0.4 -0.19,-0.17 0.09,-0.67 0.39,-0.29 0.05,-0.79 0.47,-0.62 -0.47,-0.06 -0.05,-0.28 0.24,0 0.28,-0.62 0.39,-1.7 0.19,-0.28 0.05,-0.73 0.24,-0.46 -0.05,-0.73 -0.29,-0.06 -0.14,-0.17 0,-0.56 0.24,-0.74 0.38,-0.39 0.34,0.05 0.28,-0.56 -0.05,-0.23 -0.33,-0.05 0,-0.34 -0.24,-0.17 0.57,-1.08 -0.14,-0.28 0.05,-0.45 0.29,-0.34 0.38,-1.41 0.19,0.11 0.1,-0.23 -0.1,-0.39 0.38,-0.74 -0.09,-0.45 -0.34,-0.34 0,-0.34 0.34,-0.34 0.14,-0.79 -0.19,-0.11 0,-0.29 0.29,-0.84 0.28,-0.4 -0.14,-0.23 0.14,-0.39 -0.04,-0.96 0.19,-0.4 0,-0.51 -0.15,-0.11 0.2,-0.57 0.19,-1.81 0.24,-0.06 0.24,-0.56 0.09,-1.64 0.29,-1.25 0.33,-0.56 -0.28,-0.17 0.24,-1.25 -0.05,-0.9 0.43,-0.4 0.05,-0.23 0.05,-1.81 0.28,-1.87 -0.05,-1.69 0.2,-0.4 0,-0.17 -0.2,-0.17 0,-0.28 0.1,-0.12 -0.05,-0.39 0.29,-0.23 -0.05,-0.34 -0.24,-0.17 0,-0.45 0.29,-0.85 0,-0.45 0.53,-0.63 0,-0.28 0.38,-0.4 0.67,0.06 0.48,-0.62 0.33,-0.74 0.2,-0.85 -0.15,-0.51 0.34,-0.4 0.19,-2.09 0.38,-0.91 0.34,-3.96 0.19,-0.74 0,-1.76 0.09,-0.79 0.2,-0.45 0.23,-2.89 -0.19,-0.91 0.24,0 0.05,-0.11 0.14,-1.36 -0.04,-0.69 -0.24,-0.45 0.14,0 0.1,-0.17 0.14,0.17 0.14,-0.06 0,-0.17 -0.14,-0.05 0.14,-0.46 -0.19,-0.17 -0.14,-0.51 0,-1.81 0.24,-0.28 -0.19,-0.34 0.28,-0.34 0.43,0.11 1.06,-1.02 0.52,-0.12 0.63,0.06 0.86,-0.45 0.19,-0.34 0.14,-0.12 0.15,0.06 0.14,-0.23 0.43,0 0.63,0.29 0.43,0.79 0.43,0 0.24,0.23 0.86,0.34 0.52,0.05 0,0.17 0.24,0.29 1.3,0.06 1.24,-0.35 0,0.18 -0.57,0.22 -0.1,-0.11 -0.38,0.28 -0.19,0 -1.2,-0.11 -0.72,-0.23 -0.86,-0.62 -0.38,0.11 0.24,0.06 0.09,0.22 0.19,0.06 -0.04,0.23 1,0.51 0.14,0.28 0.2,0.06 0.28,0.34 0.1,0.4 0.19,-0.12 0,-0.56 0.19,0 0.1,0.51 0.24,0 0.09,-0.34 -0.24,-0.23 0,-0.23 0.05,-0.11 0.29,0.06 0.38,0.56 0.15,1.08 0.33,0.11 0.19,0.46 0.62,0 0.24,-0.17 0.53,-0.06 -0.14,-0.4 0.19,-0.05 0.76,0.51 0.15,0.9 0.96,-0.28 0.04,-0.17 -0.14,-0.23 -0.48,-0.05 -0.09,-0.57 -0.39,0.06 -0.28,-0.17 0.76,-0.23 1.53,-1.02 0.34,-0.06 0.19,-0.39 0.29,-0.06 0,-0.23 0.33,-0.17 0,-0.28 0.24,-0.23 0.29,-0.62 0.67,-0.63 1.01,-1.47 1.72,-4.03 0.29,-0.11 -0.1,-0.4 0.43,-1.42 0.19,-0.11 -0.05,-0.23 0.39,-1.08 0.24,-0.17 -0.1,-0.22 0.48,-1.65 -0.05,-0.23 0.43,-2.21 0.05,-2.5 -0.48,-0.98 0,0 1.2,-0.17 0.69,2.03 -0.51,3.73 0.32,0.08 0.15,1.25 0.38,1.02 0.67,0.73 0.91,0.51 0.38,0.52 -0.05,0.9 -0.57,2.21 0,0.74 1.53,0.8 1.77,1.53 3.21,0.96 1.1,0.8 0.15,0.79 -0.67,2.61 0.04,1.25 1.25,3.06 0.91,1.42 0.33,0.96 0.05,0.9 -0.33,1.08 -0.1,1.19 -2.54,4.03 -0.09,0.39 0.09,0.85 0.77,2.04 -0.1,0.4 -0.38,0.51 -1.63,1.19 0.39,1.02 0,0.45 -0.15,0.79 -0.29,0.63 -1.1,1.24 -0.62,0.23 -0.33,-0.17 -0.87,-1.47 -0.48,-0.46 -0.43,0.06 -0.43,0.45 -0.24,0.68 -0.09,2.04 0.28,0.68 0.82,0.62 0.57,0.8 0.05,1.24 -0.29,0.62 -0.47,0.46 -3.02,1.69 -0.58,0.8 -1.24,2.94 -0.53,0.85 -0.52,0.45 -0.77,0 -1.92,-0.96 -1.05,-0.28 -0.86,0 -0.96,0.39 -0.48,0.51 -0.67,1.19 -0.19,1.19 0.1,0.85 0.57,0.79 2.59,0.68 0.38,0.56 -0.14,0.74 -1.06,0.23 -0.81,-0.12 -1.34,-0.56 -1.29,0 -0.67,0.22 -0.39,0.57 0.14,0.79 0.49,0.45 0.33,0.12 0.67,0.73 0,1.7 0.29,1.07 0.48,0.46 0.81,-0.06 0.34,0.17 0.43,0.96 0.95,0.4 0.43,0.51 -0.09,1.35 -0.53,1.75 0.34,1.08 1.05,0.34 0.53,0.4 0.52,1.35 0.77,-0.06 0.29,-0.22 0.67,0.28 0.43,1.02 0.62,0.73 0.72,0.23 2.68,0 2.83,0.9 0.48,0 1.05,-0.39 0.72,-0.62 1.14,-2.09 1.11,-0.34 0.38,-0.57 0.29,-1.53 0.52,-0.45 1.87,-0.9 1.25,-2.04 1,-0.39 0.62,0.28 0.48,0.45 1.3,2.43 0.57,0.4 2.01,0.79 0.43,0.45 0.91,1.54 0,0 -2.2,2.49 -0.6,1.24 -2.07,2 -3.39,2.47 -4.3,2.19 -6.93,2.62 -1.31,0.99 -1.6,3 -0.76,2.83 -0.81,5.21 -1.5,4.16 -0.35,2.53 0,0 -0.79,-0.05 -4.8,1.52 -1.24,0 -0.77,-0.17 -1.2,-1.58 -1.19,-0.68 -0.63,-1.24 -0.86,-0.96 -0.57,-0.4 -0.72,-0.22 -4.12,0 -2.63,-0.62 -2.63,-0.17 -1.68,0.22 -2.06,0.79 -1.24,0.06 -0.77,-0.17 -1.96,-0.85 -1.58,-0.28 z"
	/>
	<path
		id="jerusalem"
		name="Jerusalem"
		d="m 170.9293,345.68855 -0.24,0.38 -8.69,0.22 -7.34,3.01 -9.01,8.91 -8.08,3.88 -2.86,2.5 -5.26,5.68 -1.57,2.62 0,0 -3.75,-2.91 -0.57,-0.28 -2.68,-0.67 -0.96,-1.34 -0.77,-0.67 -2.34,-1.29 -2.49,-1.68 -2.64,-1.51 -0.43,-1.01 0.29,-1.57 0,-1.39 -0.43,-1.4 0.14,-1.63 -0.24,-3.02 0.15,-0.79 0.48,-0.95 0.09,-1.29 -0.09,-0.84 -0.77,-2.07 -0.1,-0.73 0.91,-1.9 0,-0.73 -0.86,-1.07 -0.62,-0.22 -0.86,-0.11 -1.53,0.33 -0.58,-0.33 -0.38,-0.51 -0.77,-2.52 -0.72,-1.62 -1.1,-1.63 -0.96,-0.95 -0.27,0 0,0 0.76,-1.96 3.52,-3.46 2.82,-0.99 5.5,-1.16 1.83,-1.15 1.55,-4.46 1.27,-0.99 1.55,-0.17 2.67,0.33 4.43,0.19 0,0 -1.97,2.91 1.44,5.41 3.33,1.43 4.76,0.68 4.39,-1.57 3.24,-3.52 3.28,-1.94 3.8,3.51 3.46,1.66 7.45,3 7.99,-0.04 3.14,3.28 -0.51,7.3 z"
	/>
	<path
		id="palestine"
		name="Palestine"
		d="m 54.949304,385.00855 0.02,3.87 -1.53,2.72 -4.99,1.19 -15.95,15.44 -1.38,1.33 -5.75,7.39 -0.68,2.26 -0.83,2.78 0.43,5.79 0.04,5.41 -1.9,3.49 -6.37,5.5 -1.31,1.13 -7.7600002,5.82 -6.69999995,-22.25 0.38,-0.29 5.11999995,-5.01 5.8900002,-6.31 1.87,-1.67 1.58,-1.45 3.21,-3.35 2.54,-2.79 4.07,-4.91 1.01,-1.4 1.34,-1.56 3.78,-4.19 7.85,-10.13 4.32,-6.24 1.86,-3 7.5,6.96 2.34,3.47 z m 177.239996,-136.33 -0.48,-1.61 -0.17,-3.25 -0.67,-2.9 0.62,-4.49 -1.18,-2.93 0.04,-1.44 0.84,-2.36 -1.35,-3.62 0.13,-1.63 0.55,-1.42 0.49,-3.04 -0.42,-1.19 -1.27,-1.58 0.33,-3.64 -4,-1.15 -5.08,-2.37 -2.17,-0.66 -3.92,-0.17 -2.58,0.75 -2.18,-0.35 -1.14,-1.01 0.05,-1.03 -1.23,-1.58 -1,-2.94 0.21,-4.06 -0.54,-4.36 -2.8,-4.74 -2.79,-2.08 -1.46,-0.36 -3.32,-0.05 -8.43,1.55 -2.01,-0.01 -1.37,-0.36 -2.71,-1.34 -2.65,-1.94 -3.07,-3.19 -2.39,-1.3 -1.67,0.26 -0.91,0.46 -3.17,3.58 -0.6,1.24 -2.06,2 -3.4,2.47 -4.29,2.19 -6.93,2.62 -1.31,0.99 -1.03,1.93 -0.57,1.08 -0.76,2.83 -0.8,5.21 -1.5,4.16 -0.71,5.15 -1.21,1.17 -4.48,2.01 -1.15,1.45 -1.83,3.44 -0.19,5.47 0.81,5.81 -0.57,1.51 -0.36,0.26 -1.09,0.78 -2.37,3.43 -3.12,7.05 -0.29,2.37 0.08,2.35 2.35,3.52 0.93,1.95 1.31,5.78 0.21,2.6 -0.55,2.12 -1.4,2.65 -0.1,0.81 -0.1,0.8 0.54,1.34 1.8,1.92 0.24,0.45 1.74,3.32 0.57,2.33 -0.4,2.98 -1.39,3.01 0.04,1.36 0.33,1.09 -0.76,0.62 0.76,2 -2.36,5.05 0.42,4.58 2.64,3.56 3.94,3.14 0.83,3.24 -1.53,4.72 -8.6,1.54 -2.13,3.15 1.44,5.41 3.33,1.43 4.76,0.69 4.39,-1.58 3.24,-3.52 2.35,-1.39 0.94,-0.55 3.79,3.51 3.47,1.66 7.44,3 8,-0.04 3.14,3.28 -0.52,7.3 -1.8,2.81 -0.24,0.37 -8.69,0.23 -7.35,3 -7.45,7.37 -1.56,1.54 -8.08,3.88 -2.86,2.5 -5.26,5.68 -1.57,2.62 -2.67,3.98 -1.52,7.56 0.75,8.2 -0.64,3.5 -3.45,6.55 -3.82,4.93 -3.35,6.73 0.47,4 1.94,3.13 2.76,2.29 4.28,1.14 7.82,-1.03 7.23,-1.8 7.04,0.59 9.94,0.64 3.64,-1.89 2.39,0.55 3.73,-0.64 3.22,-0.27 4.15,-0.78 2.53,-1.52 5.03,-5.15 4.29,-4.83 5.58,-2.48 5.72,-4.18 1.67,-1.47 4.43,-3.91 2.72,-0.96 11.39,0.16 0.12,-8.34 0.35,-8.99 3.64,-12.49 3.74,-11.77 1.59,-5.01 0.2,-0.36 4.17,-7.48 -2.13,-11.79 1.36,-3.83 -1.79,-2.87 1.68,-3.32 -3,-1.91 -1.68,-8.51 3.11,-3 1.09,-7.22 -2.88,-6.34 1.61,-2.34 -0.28,-1.38 -1.89,-2.18 -0.38,-8.72 0.49,-0.98 0.93,-1.86 0.56,-3.59 2.43,-3.29 0.66,-2.25 0.49,-5.4 1.11,-5.06 1.49,-2.94 0.42,-1.73 -0.12,-2.34 z"
	/>
	<path
		id="tel-aviv"
		name="Tel Aviv"
		d="m 86.859304,291.30855 0.38,-1.49 0.38,-0.89 0.15,-1.3 0.38,-0.5 -0.24,-0.17 0.34,-1.13 0.28,-0.45 0,-0.33 0.2,-0.45 0.24,-0.28 0.14,-1.24 0.57,-0.45 0,-0.51 -0.19,-0.16 0.53,-0.51 0.33,0 0.43,-0.34 0.53,-0.84 0.34,-1.07 0.24,-0.34 0.04,-0.5 -0.09,-0.12 0.29,-0.11 -0.2,-0.28 0.15,-0.17 -0.1,-0.05 0.1,-0.4 0.72,-1.68 0.04,-0.51 0.21,-0.11 0.13,-0.34 -0.24,-0.68 0,-0.56 0.38,-0.28 0.19,0.06 0.29,-0.9 0.43,-0.85 -0.24,-0.45 0.05,-0.33 0.14,0 0.1,0.28 0.19,0 0.53,-1.63 0.33,-1.69 0.43,-0.57 0.15,-0.39 -0.05,-0.22 0.14,-0.12 0.48,-1.85 0,-0.85 0.58,-1.46 -0.1,-0.62 0.53,-0.28 -0.05,-0.45 -0.34,-0.23 0.1,-1.29 0.19,-0.17 0.29,0.11 0.09,-0.17 0.68,-2.25 0.47,-2.53 0.34,-0.58 0,0 1.269996,0.04 3.68,0.45 1.35,0.51 1.29,1.13 0.91,0.45 0.52,0.9 1.49,0.79 0.29,0.67 -0.1,2.65 -0.34,1.07 0.48,1.35 -0.04,1.74 -0.53,1.3 -1.15,2.08 -1.48,1.8 -0.24,1.57 -0.05,1.75 -0.24,0.67 -0.14,1.13 0.14,0.78 0.57,0.79 1.68,1.13 0.67,0.73 0.24,0.67 0.91,5.51 1.91,0.84 0.72,0.74 0.24,0.67 -0.05,0.9 -0.67,0.67 -1.67,-0.17 -1.15,0.29 -0.53,0.33 -0.19,0.34 -0.96,0.39 -0.67,-0.28 -0.86,-1.46 -0.96,-0.39 -0.86,0 -1.15,0.67 -2.3,2.81 -1.19,1.12 -1.439996,0.4 -2.68,0.17 -1.2,-0.17 -1.48,-0.84 -3.07,0.05 -1.15,-0.22 -0.81,-0.62 z"
	/>
</svg>
