<svg
	xmlns="http://www.w3.org/2000/svg"
	viewBox="0 0 999.99999 481.22919"
	aria-label="Map of Islas de la Bahía"
>
	<path
		id="roatan" 
		name="Roatán"
		d="m 441.00819,474.84452 h -0.47281 v -0.94661 h 0.23641 v -0.4732 h 0.2364 v -0.2366 h 0.24221 v -0.47321 h 0.46799 v -0.2366 h 0.47341 v 1.89302 h -0.9414 v 0.2366 h -0.24221 v 0.2366 m -22.95451,-5.67947 v 0.23661 h 0.24221 v 0.4732 h 0.71 v 1.18321 h 0.2312 v 0.94661 h 0.24181 v 0.94661 h 0.2364 v 0.78353 0.39968 h 0.2364 v 0.2366 h 0.2364 v 0.39447 0.0781 h 0.24221 v 0.71001 h 0.2316 v 0.9466 h 0.23099 v 0.468 h -0.23099 v 0.24307 h -0.2316 v 0.23139 h -0.24221 v 0.71522 h -0.2364 v 0.2366 h -0.2364 v 0.47341 h -0.2364 v 0.70459 h -0.47281 v 0.95202 h -0.2364 v 0.7046 h -0.4734 v -0.2314 h -0.24221 v -0.2366 h -1.178 v 0.468 h -0.71001 v -0.2314 h -0.4734 v -0.2366 h -0.468 v -0.4732 h -0.24161 v -0.47341 h -0.4734 v -0.47841 h -0.23641 v -0.23139 h -0.4728 v -0.2366 h -1.4146 v -0.23661 h -0.24181 v -0.2366 h -0.2316 v -0.2366 h -0.95201 v -0.24201 h -0.2312 v -0.4734 h 0.2312 v -0.2314 h 0.24221 v -0.24201 h 0.23159 v -0.7046 h -0.23159 v -0.7098 h 1.18341 v 0.23139 h 0.9414 v 0.24201 h 0.24181 v 0.47321 h 0.46799 v -0.23661 h 0.47281 v -0.2366 h 0.24221 v -0.4732 h 0.4734 v -0.24201 h 0.2316 v -0.4682 h 0.2364 v -0.4732 h 0.2364 v -0.70981 h 0.2364 v -0.2366 h 0.71001 v -0.2366 h 0.2364 v -0.2366 h 0.2364 v -0.2366 h -0.2364 v -0.23661 h 0.2364 v -0.4732 h 0.24221 v -0.2366 h 0.23119 v -1.65642 h -0.23119 v -0.2366 h -0.24221 v -0.71 h 0.7048 m 18.93149,-13.25215 v 0.2366 h 0.24222 v 0.2366 h 0.46799 v 0.2366 h 0.94661 v 0.24201 h 1.18341 v 0.2314 h 0.4734 v 0.24201 h 0.70981 v 0.2366 h 0.4734 v 0.23139 h 0.47341 v 0.2366 h 0.71 v 0.23661 h 0.2364 v 0.2366 h 0.23641 v 0.2366 h 0.2364 v 0.4734 h 0.237 v 1.18321 h 0.468 v 0.71001 h -0.2316 v 0.4732 h -0.2364 v 0.47321 h -0.237 v 0.4732 h -0.47341 v 0.2366 h -0.2364 v 0.47321 h -0.23159 v 0.4734 h -0.24221 v 0.2366 h -0.2364 v 0.2366 h -0.23641 v 0.23661 h -0.2364 v 0.4732 h -0.23159 v 0.4732 h -0.24221 v 0.23661 h -0.2364 v 0.2366 h -0.23641 v 0.71 h 0.23641 v 0.23661 h 0.2364 v 1.18321 h -0.2364 v 0.7098 h -0.23641 v 0.2366 h -0.2364 v 0.47321 h -0.2364 v 0.2366 h -0.46799 v 0.4732 h -0.24221 v 0.2366 h -0.23641 v 0.23661 h -0.2364 v 0.2366 h -0.2364 v 0.2366 h -0.4734 v 0.2366 h -0.47341 v -0.2366 h -0.2364 v -0.2366 h -0.23159 v -0.47321 h -0.24221 v -0.7098 h -0.2312 v -0.2366 h -0.24221 v -0.23661 h -0.46799 v -0.2366 h -0.24221 v -0.2366 h -0.2316 v -0.2366 h -0.24161 v -0.2366 h -1.18301 v -0.47321 h 0.24221 v -0.2366 h 0.2312 v -0.2366 h 0.237 v -1.42001 h -0.237 v -0.47321 h 0.237 v -0.71 h 0.2364 v -1.65642 h -0.2364 v -0.2366 h -0.237 v -0.2366 h -0.2312 v -0.2366 h -2.13494 v 0.2366 h -1.88801 v 0.2366 h -0.24161 v -0.2366 h -0.4728 v -0.2366 h -0.23641 v -0.2366 h -0.23159 v -0.23661 h -0.24221 v -0.71 h 0.24221 v -0.47321 h 0.23159 v -0.2366 h 0.23641 v -0.2366 h 0.24181 v -0.2366 h 0.4728 v -0.23139 h 0.4734 v -0.24201 h 1.41461 v 0.24201 h 0.2364 v -0.24201 h 0.24221 v 0.24201 h 0.23159 v 0.23139 h 0.47341 v -0.23139 h 0.47861 v -0.24201 h 0.9414 v -0.23661 h 0.71481 v -0.4734 h 0.2312 v -0.2366 h 0.24221 v -0.2366 h 0.23159 v -0.23661 h 0.2364 v -0.46779 h 0.24221 v -0.47861 h -0.24221 v -0.47321 h -0.2364 v -0.4734 h 0.2364 v -0.2366 h 0.47341 M 331.69861,213.40766 h -1.178 v -0.23662 h -0.2364 v -0.23669 H 330.042 v -0.7099 h -0.2316 v -0.94659 h 0.2316 v -0.23662 h 0.24221 v -0.23662 h 0.2364 v -0.70993 h 0.2364 v -0.23662 h 0.2364 v -0.47331 h 0.2316 v -0.23668 h 0.24221 v -0.94663 h 0.23159 v -0.23668 h 0.24161 v -0.23668 h 0.2364 v -0.23666 h 0.2316 v -0.23662 h 0.24221 v -1.8932 h 0.23159 v -0.4733 h -0.23159 v -1.6565 h -0.24221 v -0.23672 h -0.2316 v -0.70994 h -0.2364 v -0.23669 h -0.24161 v -0.23668 h 0.24161 v -0.23668 h 0.2364 v -0.46805 h 0.2316 v -0.47854 h 0.24221 v -0.4733 h 0.23159 v -0.23668 h 0.24161 v -0.47331 h 0.2364 v -0.47324 h 0.2316 v -0.23668 h 0.24221 v -0.23669 h 0.23119 v -0.94662 h 0.24221 v -0.47289 h 0.2316 v -0.46805 h 0.24121 v -0.24197 h 0.2364 v -0.94659 h 0.23159 v -0.70991 h 0.24161 v -0.46805 h 0.2316 v -0.94663 h 0.24221 v -0.47855 h -0.24221 v -0.23132 h 0.24221 v -1.42512 h 0.2364 v -0.23131 h 0.23159 v -1.41991 h 0.24161 v -1.18321 h 0.2316 v -0.94663 h -0.2316 v -0.4733 h -0.24161 v -0.23668 h -0.23159 v -1.41984 h 0.23159 v -0.23662 h 0.24161 l -0.022,-0.29975 0.25223,0.0631 v -0.14204 -0.33134 h 0.24221 v -2.60306 h -0.24221 v -0.4733 h -0.23159 v -0.47331 h -0.4734 v -0.23672 h -0.23641 v -0.4733 h 0.71001 v 0.23668 h 0.9414 v -0.23668 h 0.24161 v -0.23668 h 0.23159 v -0.47325 h 0.24221 v -0.70994 h -0.4734 v -0.23669 h -0.71001 v -0.23665 h -0.71581 v -0.23668 h -0.2316 v -0.94639 h 0.2316 v -0.4733 h 0.24221 v -0.23668 h 0.23159 v -0.47331 h 0.24161 v -0.4733 h 0.2316 v -0.23668 h 0.47861 v -0.23668 h 0.9414 v 0.4733 h 0.24221 v 1.65659 h 0.23119 v 0.23669 h 0.24221 v 0.23668 h 0.2316 v 0.23668 h 0.2364 v 0.23668 h 0.2364 v 0.23662 h 0.2364 v 0.23669 h 0.24221 v 0.23662 h 0.2312 v -0.23662 h 0.24221 v -1.41988 h -0.24221 v -0.4733 h -0.2312 v -2.36647 h -0.24221 v -0.4733 h -0.2364 v -0.23668 h -0.2364 v -0.23668 h -0.2364 v -0.23666 h 0.2364 v -0.23662 h 0.2364 v -0.23662 h 0.2364 v -0.23672 h 0.24221 v -0.23669 h 0.2312 v -0.23672 h 0.24221 v -0.23662 h 0.46799 v 0.23668 h 0.47341 v 0.23672 h 0.4734 v -0.23672 h 0.47341 v -0.70994 h -0.23641 v -0.46806 h -0.2364 v -0.47855 h 0.2364 v -0.23132 h 0.47341 v 0.23132 h 0.24161 v 0.47855 h 0.23159 v 0.46806 h 0.2364 v 0.4733 h 0.2364 v 0.23668 h 0.23701 v 0.23672 h 0.24161 v 0.94657 h 0.70439 v 0.23668 h 0.47341 v -0.23668 h 0.2364 v -0.23668 h 0.24221 v -0.23668 h 0.23119 v -0.23672 h 0.23701 v -0.23663 h 0.2364 v -0.23672 h 0.2364 v -0.7098 h -0.2364 v -0.23144 h -0.2364 v -0.23668 h -0.23701 v -0.24187 h -0.23119 v -0.46794 h -0.47861 v -0.24203 h -0.2364 v -0.23662 h -0.2364 v -0.23143 h 0.2364 v -0.23668 h 1.18341 v -0.23663 h 0.4734 v -0.23668 h 0.24221 v -0.24191 h 0.2312 v -0.23668 h 0.23159 v -0.23668 h 0.24221 v -0.23656 h 0.2364 v -0.23144 h 0.2364 v -0.47855 h 0.468 v -0.23137 h 0.47861 v -0.23673 h 0.2364 v -0.23662 h 0.70981 v -0.24197 h 0.4734 v -0.23137 h 0.47341 v -0.23668 h 0.46799 v -0.23667 h 0.24221 v -0.4733 h 0.2364 v -0.47308 h 0.47341 v -0.23669 h 0.23159 v -0.23672 h 0.24161 v -0.70994 h 0.2316 v -0.23669 h 0.24221 v -0.23672 h 1.18341 v -0.23668 h 0.941 v -0.94663 h -0.941 v -0.23662 h -0.47341 v -0.94659 h 0.2316 v -0.23668 h 0.47861 v -0.23656 h 0.7044 v 1.41987 h 0.4734 v -0.2367 h 0.47861 v -0.23668 h 0.47341 v -0.23669 h 0.23159 v -0.2365 h 0.24161 v -0.23672 h 0.2364 v -0.23668 h 0.2316 v -0.23668 h 0.4734 v -0.2363 h 0.24161 v -0.23669 h 0.468 v -0.23672 h 0.24161 v -0.23662 h 0.4734 v -0.23672 h 0.23159 v -0.23668 h 0.47862 v -0.47319 h 0.23119 v -0.23662 h 0.24161 v -0.4733 h 0.23159 v -0.23673 h 0.24221 v -0.23137 h 0.468 v -0.47871 h 0.24161 v -0.23672 h 0.4734 v -0.23663 h 0.468 v -0.23668 h 0.24221 v -0.23656 h 0.23119 v -0.23688 h 0.24221 v -0.2364 h 0.2316 v -0.23669 h 0.2364 v -0.23668 h 0.2364 v -0.23662 h 0.71001 v -0.23662 h 0.4734 v -0.23672 h 0.47821 v -0.23669 h 0.2316 v -0.23672 h 0.24221 v -0.23662 h 0.46799 v -0.23668 h 0.47341 v -0.23662 h 0.4734 v -0.23669 h 0.47341 v -0.23668 h 0.47861 v -0.23662 h 0.23159 v -0.23668 h 0.2364 v -0.23662 h 0.47341 v -0.23673 h 0.4734 v -0.4733 h 0.2316 v -0.23662 h 0.47821 v -0.23662 h 0.2364 v -0.23673 h 0.47861 v -0.23662 h 0.7046 v -0.23646 h 0.9414 v -0.23668 h 0.47861 v -0.23144 h 0.47341 v -0.24197 h 0.23119 v -0.23672 h 0.24221 v -0.23137 h 0.4734 v -0.23668 h 0.468 v -0.24193 h 0.4734 v -0.23144 h 0.24161 v -0.24187 h 0.2364 v -0.23121 h 0.23641 v -0.23668 h 0.237 v -0.24193 h 0.4734 v -0.23142 h 0.9414 v -0.23662 h 0.47341 v -0.23662 h 0.24161 v -0.23662 h 3.07624 v 0.23662 h 0.47341 v 0.23662 h 0.94139 v -0.23662 h 0.24222 v -0.23662 h 0.23119 v -0.23668 h 0.24221 v -0.24178 h 0.23159 v -0.46793 h 0.23641 v -0.24197 h -0.23641 v -0.468 h -0.4734 v -0.4733 h 0.24161 v -0.23668 h 1.4146 v -0.24197 h 2.36634 v 0.24197 h 1.89322 v -0.24197 h 0.4734 v -0.23144 h 0.24221 v -0.23668 h 0.2316 v -0.23668 h 0.2364 v -0.23662 h 0.4734 v -0.23672 h 0.47281 v -0.23629 h 0.9466 v -0.23672 h 0.23641 v -0.23662 h 0.24161 v -0.23672 h 0.23159 v -0.71005 h 0.2364 v -0.23662 h 0.237 v -0.23672 h 0.23641 v -0.23682 h 0.2364 v -0.23673 h 0.46799 v -0.23668 h 0.47861 v -0.7099 h 0.23641 v -0.70997 h 0.7098 v 0.70997 h 0.237 v 0.23662 h -0.237 v 0.23662 h -0.4734 v 0.23672 h -0.237 v 0.70995 h 0.237 v 0.23672 h 0.23099 v 0.23662 h 0.24221 v 0.23668 h 0.2364 v 0.47331 h 0.2364 v 0.4733 h 0.23641 v 0.47331 h 0.23159 v 0.94658 h 0.4734 v 0.23144 h 0.95182 v -0.23144 h 0.23159 v -0.23668 h 0.24181 v -0.23662 h -0.24181 v -1.41989 h 0.24181 v -0.47331 h 0.23701 v -0.23668 h 0.2364 v -0.23662 h 0.46799 v -0.23672 h 0.24181 v -0.70973 h 0.2316 v -0.4733 h 0.24221 v -0.23662 h 0.2364 v -0.23673 h -0.2364 v -0.4725 h -0.4734 v -0.4733 h 0.23159 v -0.23668 h 0.47861 v -0.23669 h 0.7048 v -0.23668 h 0.24221 v -0.23662 h 0.2364 v -0.23668 h 0.4728 v -0.23662 h 0.7048 v -0.23673 h 0.24161 v -0.23662 h 0.468 v -0.23672 h 0.4734 v -0.23662 h 0.24221 v -0.23668 h 0.468 v -0.23665 h 0.4734 v 0.47331 h -0.23159 v 0.4733 h -0.24221 v 0.47331 h -0.468 v 0.23662 h -0.24161 v 0.23668 h -0.4734 v 0.23668 h -0.468 v 0.23668 h -0.475 v 0.94659 h -0.24222 v 0.4733 h 0.24222 v 0.70995 h 0.23159 v 0.23668 h 0.24161 v 0.23668 h 0.46799 v 0.23673 h 1.42523 v 0.23662 h 0.70459 v -0.23662 h 0.2364 v -0.23668 h 0.24222 v -0.47331 h 0.23119 v -0.23662 h 0.4734 v -0.23668 h 0.70961 v -0.23673 h 0.4734 v -0.23668 h 0.24221 v -0.23672 h 0.468 v -0.23662 h 0.4734 v 0.23662 h 0.95202 v -0.23662 h 0.23119 v -0.23672 h 0.24221 v -0.23673 h 0.2316 v -0.23668 h 0.2364 v -0.23668 h 0.2364 v -0.2364 h 0.2364 v -0.23668 h 0.24221 v -0.23662 h 0.2316 v -0.23673 h 0.4728 v -0.23662 h 0.71001 v 0.23668 h 0.4734 v 0.23673 h 0.71001 v -0.23673 h 0.24181 v -0.23668 h 0.23159 v -0.23672 h 0.2364 v -0.4733 h 0.237 v -0.23669 h 0.23641 v -0.23652 h 0.24161 v -0.23662 h 0.46278 v 0.23668 h 0.71522 v -0.23668 h 0.46799 v -0.23662 h 0.24161 v -0.23668 h 0.2364 v -0.23663 h 0.23641 v -0.23668 h 0.237 v -0.23668 h 0.24161 V 131.78 h 0.23159 v -0.70992 h -0.23159 v -0.47329 h -0.24161 v -0.70995 h 0.24161 v -0.70996 h 0.23159 v -0.47329 h 0.23159 v -0.23668 h 0.24162 v -0.23667 h 0.71 v -0.23668 h 0.47341 v 0.23668 h 0.4734 v -0.23668 h 0.70981 v -0.23662 h 0.4734 v 0.23662 h 1.18301 v 0.23668 h 0.71 v 0.23667 h 0.47341 v 0.23668 h 0.23159 v 0.23662 h 0.24181 v 0.23662 h 0.2364 v 0.23673 h 0.2316 v 0.23662 h 0.71541 v 0.23673 h 0.70981 v -0.23673 h 0.9414 v -0.23662 h 0.24161 v -0.23673 h 0.23119 v -0.4733 h 0.24161 v -0.23667 h 0.47341 v -0.23662 h 0.71 v -0.23673 h 0.47341 v -0.23662 h 0.23159 v -0.23673 h 0.71001 v -0.23662 h 0.95181 v -0.23673 h 1.1782 v -0.23662 h 0.47822 v -0.23662 h 0.23119 v -0.23668 h 0.4734 v -0.23143 h 0.2364 v -0.24197 h 0.24222 v -0.23662 h 0.23119 v -0.23668 h 0.24221 v -0.23137 h 0.23159 v -0.24198 h 0.47341 v -0.23665 h 0.2364 v -0.23667 h 0.4734 v -0.23143 h 1.18341 v -0.24198 h 0.71001 v -0.23667 h 0.71481 v -0.23668 h 0.468 v -0.23142 h 0.2364 v -0.24193 h 0.2364 v -0.46768 h 0.24221 v -0.23667 h 0.2316 v -0.24197 h 0.4734 v -0.23138 h 0.4734 v -0.24197 h 0.468 v -0.23663 h 0.24181 v -0.23667 h 0.71001 v -0.23673 h 0.4734 v -0.23138 h 0.2364 v -0.23667 h 0.2364 v -0.24197 h 0.23641 v -0.23143 h 0.23159 v -0.23662 h 0.24161 v -0.24198 h 0.23159 v -0.23667 h 0.71542 v -0.23143 h 0.46799 v -0.24192 h 0.47862 v -0.23133 h 1.42001 v -0.23672 h 0.46799 v -0.23668 h 0.24221 v -0.23667 h 0.2316 v -0.23668 h 0.7096 v 0.23668 h 0.47341 v 0.23667 h 0.24221 v 0.23668 h 0.23119 v 0.23672 h 1.66202 v 0.23133 h 0.47341 v 0.24192 h 0.23119 v -0.24192 h 0.95182 v 0.24192 h 0.23159 v 0.70995 h 0.4728 v 0.23663 h 0.23641 v 0.23142 h 0.24221 v 0.47855 h 2.12991 v -0.23668 h 0.9414 v -0.24197 h 0.70981 v -0.23138 h 0.71541 v -0.23667 h 0.7044 v -0.24123 h 1.18341 v -0.23668 h 1.42001 v -0.23142 h 0.47341 v -0.24187 h 0.4734 v -0.23138 h 0.47341 v -0.23673 h 0.4734 v -0.23662 h 0.70961 v 0.23662 h 0.71 v -0.23662 h 0.2364 v -0.23667 h 0.2364 v -0.47855 h 1.18321 v -0.23148 h 0.2316 v -0.23667 h 0.24181 v -2.1298 h 0.2364 v -0.23668 h 0.237 v -0.23662 h 0.16829 l -0.97826,12.77365 1.81969,-0.38912 6.65737,0.7678 2.46661,-1.10961 1.6512,-4.20179 10.27584,-2.51374 2.91314,-2.85025 1.56206,-4.84864 9.18165,-2.48741 3.18147,-5.38503 4.91212,-1.82483 5.00633,-4.943249 2.22962,-0.136812 2.77151,2.224485 3.68105,-1.267385 12.30048,1.703864 3.53384,3.807397 4.68033,-0.65211 4.31735,-5.232519 v 0.241869 h 0.47862 v 0.231427 h 0.23159 v 0.951841 h -0.23159 v 0.468049 h -0.24222 v 2.129823 h 0.24222 v 0.70993 h 0.23159 v 0.70992 h 0.24161 v 0.70995 h 0.23159 v 0.23668 h 0.2364 v 0.23672 h 0.47341 v 0.23668 h 0.24221 v 0.23662 h 0.23119 v 0.23673 h 0.47341 v 1.41986 h -0.2364 v 0.23673 h -1.18321 v -0.47282 h -0.468 v -0.23673 h -0.4734 v -0.23662 h -0.47862 v -0.23668 h -0.4734 v -0.59425 l 0.2947,-0.26816 0.0841,-0.11047 0.20515,-0.11572 0.32596,-0.10522 0.49464,-0.17884 -0.0381,-0.12101 -0.0781,-0.16309 -0.24221,-0.20519 -0.60483,-0.0207 -0.44155,0.13681 v -0.14725 h -0.94621 v 0.23662 h -0.2364 l -0.32074,0.0525 -0.40489,-0.0525 -0.16228,-0.0472 -0.40489,-0.0159 -0.0901,0.31555 0.0421,0.15781 0.2316,0.12625 0.27887,0.13151 0.12621,0.0419 v 0.47329 h 0.2316 v 0.4733 h 0.24221 v 0.23668 h -0.24221 v 0.47335 h -0.2316 v 0.23667 h -1.18341 v 0.23673 h -2.60855 v 0.23668 h -0.23119 v 0.23672 h 0.23119 v 0.4733 h -0.23119 v 0.23673 h -0.24161 v 0.23662 h -0.46799 v 0.23668 h -1.65662 v -0.23668 h -0.4734 v -0.23725 h -0.47341 v -0.23673 h -0.2364 v -0.23662 h -0.24181 V 107.174 h -0.23159 v -0.47329 h -0.2364 v -0.23673 h -0.23701 v -0.71013 h 0.23701 v -0.4733 h 0.2364 v -0.47288 h 0.23159 v -1.89312 h -0.23159 v -0.23143 h -0.2364 v -0.24187 h -0.47341 v 0.24187 h -0.71541 v 0.46805 h 0.24181 v 1.18324 h -0.24181 v 0.4733 h 0.24181 v 1.18325 h -0.24181 v 0.70996 h 0.24181 v 0.23662 h 0.23159 v 0.70995 h 0.24221 v 0.4733 h -0.24221 v 0.70995 h -0.23159 v 0.23662 h -0.24181 v 0.4733 h -0.2312 v 0.23662 h -0.2364 v 0.23662 h -0.46278 v 0.23668 h -0.47341 v 0.23673 h -0.2364 v 0.23667 h -0.2364 v 0.23668 h -0.47861 v 0.23669 h -1.17821 v -0.23668 h -0.46799 v -0.47329 h -0.24221 v -0.23668 h -0.2364 v -0.23667 h -0.71522 v 0.23667 h -0.23119 v 0.23668 h -0.23159 v 0.23667 h -0.24222 v 0.23673 h -1.18381 v -0.47325 h -0.4734 v -0.23667 h -0.468 l 0.25223,-0.35758 0.3526,-0.35239 0.25804,-0.31025 0.0159,-0.35758 0.14224,-0.31031 -0.46279,-0.0159 -0.38425,0.11047 -0.30472,0.1894 -0.2947,-0.005 -0.28949,0.0106 v -1.91428 h 0.24181 v -0.94658 h -0.24181 v -0.47299 h -0.2364 v -0.70997 h -0.2316 v -0.23697 h -0.24221 v -0.23673 h -0.23159 v -0.4733 h -0.47861 v 2.60311 h -0.2364 v 3.31307 h -0.23641 v 0.23667 h -0.4734 v 0.23668 h -0.23159 v 0.23667 h -0.71001 v 0.23668 h -0.24161 v 0.23667 h -0.23159 v 0.23663 h -0.24221 v 0.23662 h -0.468 v -0.23662 h -0.4734 v -0.23664 h -0.47341 v 0.23667 h -0.2364 v 0.4733 h 0.2364 v 0.4733 h 0.2316 v 0.47335 h -0.2316 v 0.47329 h -0.2364 v 0.4733 h -0.24161 v 0.4733 h -0.94661 v -0.23662 h -0.2364 v -0.23673 h -0.23119 v -0.70996 h -0.24221 v -0.94667 h -0.2316 v -0.23662 h 0.2316 v -0.47325 h -0.2316 v -0.23667 h 0.2316 v -0.47341 h 0.24221 v -0.47329 h -0.24221 v -0.23668 h -0.2316 v -0.23662 h -0.24181 v -0.23662 h -0.23159 v -0.23673 h -0.2364 v -0.4733 h 0.2364 v -0.23667 h 0.4734 v -0.23673 h -0.71 v -0.23673 h -0.47341 v -0.4733 h -0.24181 v -0.70985 h -0.23159 v -0.4733 h -0.2364 v -0.23673 h -0.24221 v -0.23662 h -0.231 v 0.23662 h -0.24221 v 0.23673 h 0.24221 v 0.4733 h 0.231 v 0.70991 h 0.24221 v 0.4733 h -0.24221 v 0.23667 h -0.47341 v 0.4733 h -0.7048 v -0.23662 h -0.2364 v -0.23673 h -0.4734 v -0.23673 h -0.24181 v -0.47329 h -0.2316 v -0.23663 h -0.2364 v -0.23667 h -0.24221 v 0.23667 h -0.23119 v 0.23663 h 0.23119 v 0.47329 h 0.24221 v 0.4733 h 0.2364 v 0.4733 h 0.2316 v 0.23662 h 0.24181 v 0.23673 h 0.23159 v 0.23662 h 0.47862 v 0.4733 h 0.2364 v 0.23667 h 0.2364 v 0.23673 h 0.23159 v 1.1832 h 0.24221 v 0.23663 H 522.169 v 0.47329 h 0.24221 v 0.4733 h 0.23119 v 0.23667 h 0.24221 v 0.23673 h 0.468 v 0.23662 h 0.24221 v 0.23668 h 0.23119 v 0.94661 h -0.23119 v 0.23668 h -0.4734 v 0.23667 h -0.47862 v 0.23673 h -0.23159 v 0.23662 h -0.71001 v -0.23662 h -0.4734 v 0.23662 h -1.18301 v 0.23673 h -0.4734 v 0.23668 h -0.24181 v 0.23667 h -0.2316 v 1.41987 h -0.2364 v 0.23673 h -0.2364 v 0.23662 h -0.94661 v -0.47329 h -0.2364 v -0.47855 h -0.2364 v -0.46805 h -0.24221 v -0.23667 h -0.2316 v -0.4733 h -0.2364 v -0.70999 h -0.2364 v -0.2367 h -0.2364 v -0.23663 h -0.2364 v -0.23662 h -0.47862 v -0.23667 h -0.23159 v -1.18324 h -0.2364 v -0.47335 h -1.41961 v 0.23673 h -0.47341 v 0.23667 h -0.2364 v 0.23668 h -0.23159 v 0.23672 h -0.24221 v 1.89319 h 0.24221 v 0.4733 h 0.23159 v 0.23667 h 0.2364 v 0.47324 h 0.23641 v 0.46805 h 0.2364 v 0.24187 h 0.2364 v 0.4733 h 0.237 v 0.23667 h 0.23119 v 0.23668 h 0.47862 v 0.4733 h 0.2364 v 1.4199 h -0.2364 v 0.46805 h -0.23701 v 0.23667 h -0.24181 v 0.23663 h -0.46799 v 0.47854 h -0.2364 v 1.41986 h -0.2364 v 0.23143 h -0.23641 v 0.23662 h -0.2364 v 0.23668 h -0.23159 v 0.24197 h -0.24221 v 0.23138 h -0.2364 v 0.23662 h -0.23641 v 1.42513 h -0.46799 v 0.23137 h -0.24221 v 0.23668 h -0.2364 v 0.23662 h -0.23641 v 0.4733 h -0.2364 v 0.23667 h -0.4734 v 0.47335 h -0.4728 v 0.23673 h -0.23641 v 0.23668 h -1.888 v -0.94675 h -0.24221 v -0.23667 h -0.9414 v -0.23673 h -0.24161 v -0.4733 h -0.2316 v -0.23662 h -0.48021 v -0.4733 h -0.7048 v -0.23667 h -0.24161 v -0.23673 h -0.23159 v -0.23137 h -0.24161 v -0.24198 h -0.23701 v -0.47329 h -0.70479 v 0.23662 h -0.24222 v 0.47854 h -0.46799 v 0.23143 h -0.94681 v -0.23143 h -0.71 v 0.23143 h -0.24222 v 0.47335 h 0.24222 v 0.24192 h 0.4734 v 0.23143 h 1.6514 v 0.23668 h 0.24222 v 0.94657 h -0.24222 v 0.47335 h -2.36658 v 0.23667 h -0.4734 v 0.23662 h -0.46799 v 0.23663 h -0.71482 v -0.23668 h -1.18321 v 0.23668 h -0.9414 v 0.23667 h -2.13046 v -0.94659 h 0.23641 v -0.94695 h -0.23641 v -0.4733 h -0.2364 v -0.70992 h -0.71481 v 0.24193 h -0.2316 v 0.46804 h -0.4734 v 0.23668 h -0.47861 v -0.23668 h -0.468 v 0.23668 h -0.2364 v 0.70991 h 0.2364 v 0.47335 h 0.237 v 0.23667 h 0.2312 v 0.4733 h 0.47861 v 0.23667 h 0.2364 v 1.18324 h -0.2364 v 0.70992 h -0.47861 v 0.4733 h -0.2312 v 0.23668 h -0.237 v 0.23662 h -0.2364 v 0.23672 h -0.2364 v 0.23662 h -0.2364 v 0.70995 h -0.468 v 0.23672 h -1.18341 v 0.23662 h -2.37163 v -0.23662 h -0.2364 v -0.47329 h -0.23159 v -0.9466 h 0.23159 v -0.23663 h 0.2364 v -0.23668 h 0.47341 v -0.23662 h 0.24161 v -0.23673 h 0.23159 v -0.47329 h 0.2364 v -0.94661 h 0.23641 v -0.4733 h -0.23641 v -0.4733 h -0.2364 v -1.65658 h -0.23159 v -0.23663 h -0.47861 v -0.23672 h -0.23641 v -0.23142 h -0.46799 v -0.24193 h -0.24161 v 0.24198 h -0.2364 v 0.46805 h -0.23701 v 0.23662 h 0.23701 v 0.70991 h 0.2364 v 0.70996 h -0.47341 v 0.23662 h -0.2364 v 1.1832 h 0.2364 v 0.70996 h -0.2364 v 0.23662 h -0.23159 v 2.36645 h 0.23159 v 0.4733 h 0.2364 v 0.47331 h -0.2364 v 0.23668 h -1.65661 v -0.23668 h -1.4144 v 0.23668 h -0.47341 v 0.23662 h -0.24221 v -0.23662 h -0.2364 v 0.23662 h -0.4734 v 0.23672 h -0.2316 v 0.23673 h -0.24161 v 0.23668 h -0.9414 v 0.23672 h -2.60835 v -0.47331 h -1.18321 v 0.23668 h -0.9416 v -0.23668 h -0.475 v -0.47334 h -0.24181 v -0.47331 h 0.24181 v -0.23662 h 0.4734 V 132.964 h 0.2364 v -0.70995 h 0.23159 v -0.4733 h 0.24182 v -0.23673 h -0.47341 v -0.23668 h -0.95202 v 0.23668 h -0.23159 v 0.23673 h -0.71001 v -0.23673 h -0.24221 v -0.23668 h -0.23099 v 0.23668 h -0.24221 v 0.94657 h -1.4142 v 0.47331 h -0.2364 v 0.23668 h -0.94661 v 0.23668 h -0.2364 v 0.23668 h -0.47341 v 0.23668 h -0.24221 v 0.23673 h -0.46799 v 0.23662 h -0.47341 v 0.23662 h 0.237 v 0.4733 h 0.23641 v 0.23673 h 0.2364 v 0.4733 h -0.2364 v 0.23662 h -0.23641 v 0.23668 h -0.237 v 0.23669 h -1.41961 v 0.23668 h -0.47861 v 0.23668 h -0.7048 v 0.23662 h -0.4734 v 0.23672 h -0.94821 v -0.23672 h -0.7046 v 0.23672 h -0.47341 v 0.23663 h -0.24221 v 0.23672 h -0.2364 v 0.23668 h -0.2364 v 0.23662 h -0.46759 v 0.23668 h -0.24222 v 0.23663 h -1.18321 v 0.23672 h -0.94139 v -0.23672 h -0.24161 v -0.23663 h -0.47341 v -0.23668 h -0.2364 v -0.23662 h -0.23159 v 0.23662 h -0.24222 v 0.23668 h -0.4734 v 0.23663 h 0.24221 v 0.4733 h 0.23119 v 0.70995 h 0.24222 v 0.4733 h 0.23159 v 1.18325 h -0.23159 v 0.23668 h -0.47341 v 0.23662 h -0.71521 v 0.23669 h -0.70961 v 0.23143 h -1.18722 v -0.23143 h -0.70479 v 0.23143 h -0.237 v 0.24197 h -0.24162 v 0.23662 h -0.23159 v 0.47331 h -0.24181 v 0.23668 h -0.23159 v 0.23143 h -0.47862 v 0.24197 h -0.70459 v 0.23138 h -0.47341 v -0.23138 h -0.47821 v -0.24197 h -0.23159 v -0.46805 h -0.24221 v -1.18325 h 0.24221 v -0.23669 h 0.23159 v -0.23662 h 0.24221 v -0.23662 h 0.2364 v -0.23672 h 0.2316 v -0.23662 h -0.2316 v -0.23673 h -0.2364 v 0.23673 h -0.24221 v 0.23662 h -0.23159 v 0.23672 h -0.24221 v 0.23662 h -0.2312 v 0.23662 h -0.95181 v 0.46806 h -0.2312 v 0.24197 h -0.4734 v 0.23668 h -0.47861 v 0.23668 h -0.2316 v 0.23663 h -0.2364 v 0.46805 h -0.2364 v 0.70995 h -0.2364 v 0.47853 h -0.47341 v 0.23668 h -0.4728 v 0.23662 h -0.7096 v 0.23673 h -0.47341 v 0.23143 h -0.2364 v 0.24197 h -0.237 v 0.94132 h -0.47862 v 0.47855 h -0.46827 v 0.23138 h -0.4734 v 0.23672 h -0.47341 v 0.4733 h -0.23159 v 0.23662 h -0.71542 v 0.23669 h -0.2364 v 0.23672 h -0.4734 v 0.23668 h -0.2364 v 0.23652 h -0.23641 v 0.23662 h -0.237 v 0.24197 h -0.2364 v 0.23132 h -1.18321 v 0.23668 h -0.2364 v 0.70994 h 0.4734 v 0.23663 h 0.23701 v 0.23668 h 0.24161 v 0.23662 h -0.24161 v 0.4733 h -0.23701 v 0.23669 h -0.2364 v 0.4733 h -0.94661 v -0.4736 h -0.2364 v -0.23673 h 0.2364 v -0.70994 h -0.2364 v -0.23668 h -0.2364 v 0.23668 h -0.23159 v 0.23668 h -0.24221 v 0.4733 h -0.231 v 0.23663 h -0.24221 v 0.23668 h -0.46799 v -0.2368 h -0.24242 v 0.23668 h -0.7096 v 0.23666 h -0.237 v 0.23668 h -0.468 v 0.23668 h -0.95182 v -0.23668 h -0.9466 v -0.23668 h -0.468 v 0.23668 h -0.94661 v 0.23668 h -0.47861 v 0.23669 h -0.7044 v 0.23662 h -0.47861 v 0.4733 h -0.23159 v 0.23668 h -0.24221 v 1.1885 h 0.24221 v 0.23144 h 1.18301 v 0.23668 h 1.4146 v 0.23668 h 0.24221 v 0.4733 h 0.2316 v 0.23663 h 0.2364 v 0.23672 h 0.24221 v 0.94659 h -0.24221 v 0.23668 h -0.468 v 0.23662 h -1.18321 v 0.23668 h -0.24221 v 0.47331 h -0.23159 v 0.4733 h 0.23159 v 0.23668 h 0.24221 v 0.23662 h 0.2364 v 0.47331 h -0.2364 v 0.4733 h -0.24221 v 0.23672 h -0.23159 v 0.70991 h -0.24161 v 0.94663 h -0.2312 v 0.7099 h -0.47861 v 0.23144 h -0.7048 v 0.24193 h -0.4734 v 0.23662 h -0.47861 v 0.23668 h -1.18341 v 0.23137 h -0.7046 v -0.23137 h -0.4734 v -0.23668 h -0.95162 v 0.23668 H 423.739 v 0.23137 h -0.23159 v 0.24198 h -0.24161 v 0.23662 h -0.7048 v -0.23662 h -0.2364 v -0.94661 h -0.24221 v -0.24193 h -0.468 v 0.24193 h -0.2364 v 0.23672 h 0.2364 v 0.94659 h 0.23641 v 0.23668 h 0.4734 v 0.23143 h 0.2364 v 0.24197 h 0.47341 v 0.23673 h 0.23159 v 0.46805 h -1.18341 v -0.23672 h -0.468 v -0.23137 h -0.71541 v -0.23673 h -0.23119 v -0.24187 h -0.2316 v -0.46805 h -0.24221 v -1.18339 h -0.2364 v -0.47331 h -0.4734 v -0.47388 h 0.2364 v -1.41987 h -0.2364 v -0.94659 h -0.24181 v -0.47367 h 0.24181 v -0.47346 h 0.2364 v -0.70991 h 0.2364 v -0.70996 h 0.2364 v -0.47331 h -0.71001 v 0.23663 h -0.7098 v 0.23668 h -0.47341 v 0.23672 h -0.4734 v 0.23662 h -0.23159 v 0.47331 h -0.24201 v 0.23668 h -0.23641 v 0.23662 h -0.237 v 0.23668 h -0.2364 v 0.47331 h -0.23159 v 0.4733 h -0.24161 v 0.94659 h 0.24161 v 0.94661 h -0.24161 v 0.23662 h -0.23641 v 0.23668 h -0.2364 v 0.23662 h -0.9414 v -0.23676 h -0.71481 v 0.23662 h -0.2364 v 0.23143 h -0.23159 v 0.24194 h -0.95182 v -0.24194 h -0.7046 v 0.24194 h -0.24181 v 1.65176 h -0.2364 v 0.24197 h -0.4734 v 0.23668 h -1.41481 v -0.121 -0.1158 h -0.4734 v 0.10518 0.13142 h -0.47821 v 0.23144 h -0.2316 v -0.23121 h -0.24161 v -0.23668 l -0.23159,0.0206 v -0.49434 h -0.47861 v -0.23669 h -0.47341 v 0.46806 l -0.20515,-0.0264 -0.026,0.97292 h -0.24221 v 0.4733 h -0.71001 v -0.23675 h -0.23159 v 0.23672 h -0.95182 v 0.24193 h -0.23159 v 0.23669 h -0.24221 v 0.23672 h -0.47341 v 0.23662 h -1.4144 v 0.23143 h -0.2364 v 0.23668 h -0.47341 v 0.24204 h -0.24221 v 0.23131 h -0.70459 v 0.23672 h -0.71001 v 0.24187 h -0.2364 v 0.23668 h -0.2364 v 0.23144 h -0.23701 v 0.24197 h -0.24161 v 0.23143 h -0.4734 v 0.23668 h -0.4676 v 0.23673 h -0.4734 v 0.23668 h -1.65661 v 0.23672 h -0.71001 v 0.23668 h -0.94601 v 0.23668 h -0.4722 v 0.23663 h -0.94621 v 0.23668 h -0.237 v 0.4733 h -1.18341 v 0.23668 h -0.4734 v 0.23669 h -0.237 v 0.23668 h -0.47341 v -0.70997 h 0.24181 v -0.4733 h 0.468 v -0.23662 h -0.468 v -0.23669 h -1.90604 v -0.23672 h -0.2364 v -0.2363 h -0.9462 v 0.23668 h -0.23641 v 0.23668 h -0.4734 v 0.23669 h -0.23159 v 0.23662 h -0.47341 v 0.23668 h -1.18341 v -0.23668 h -1.65661 V 172.711 h -0.237 v -0.7099 h -1.18822 v 0.23662 h -0.468 v 0.23672 h -0.71521 v 0.23668 h -0.468 v 0.23668 h -0.24161 v 0.70993 h -0.23159 v 0.4733 h -0.47341 v 0.23669 h -0.4742 v -1.18329 h -0.237 v -0.23669 h -0.24181 v -0.23668 h -0.2316 v -0.23668 h -0.95141 v 0.23668 h -0.231 v 0.23668 h -0.24221 v 0.23669 h -0.23159 v 0.23668 h -0.71001 v 0.23668 h -0.4734 v 0.23668 h -0.47341 v -0.23668 h -0.9466 v 0.70995 h -0.23641 v 0.70994 h -0.2364 v 0.23668 h -0.2364 v 0.47331 h -0.46799 v 0.4733 h -0.24221 v 0.47331 h -0.23641 v 0.23668 h -0.2364 v 0.23662 h -0.7096 v 0.23668 h -0.2364 v 0.23662 h -0.23641 v 0.70993 h -0.237 v 0.23668 h 0.237 v 1.18323 h -0.237 v 0.23668 h -0.2364 v 0.23663 h -0.2364 v 0.23662 h -0.2316 v 0.23668 h -0.24181 v 0.23668 h -0.2364 v 0.23668 h -0.237 v 0.47331 h -0.4681 v 0.23668 h -0.24182 v 0.23668 h -0.4734 v 0.23668 h -0.2364 v 0.23663 h -0.23159 v 0.23672 h -0.24222 v 0.4733 h -0.23119 v 0.70987 h -0.24221 v -0.23669 h -0.4728 v 0.23669 h -0.467 v 0.23662 h 0.2312 v 0.23668 h -0.47341 v 0.47276 h -0.4734 v 0.23669 h -0.2364 v 0.4733 h -0.2316 v 0.23668 h -0.24221 v 0.23668 h -0.23159 v 0.23663 h -0.47862 v 0.23668 h -0.70459 v 0.23662 h -0.24181 v 0.23668 h -0.23701 v 1.18325 h -0.4734 v 0.23662 h -0.23119 v 0.23673 h -0.47281 v 0.23668 h -0.47861 v 0.23143 h -0.94661 v 0.24197 h -0.2364 v 0.23668 h -0.23159 v 0.23669 h -0.24221 v 0.23133 h -0.7042 v 0.24203 h -0.95202 v 1.18319 h 0.24161 v 0.46805 h -0.24161 v 0.24198 h -0.23159 v 0.23672 h -0.2364 v 0.23137 h -0.24221 v 0.24197 h -0.2316 v 0.23668 h -0.9462 v 0.23144 h -0.47862 v 0.47855 h -0.23119 v 0.4733 h -0.24221 v 0.23144 h -0.23159 v 0.47855 h -0.2364 v 0.23131 h -0.47281 v 0.23669 h -0.24221 v 0.47855 h -0.23119 v 0.23147 h -0.237 v 0.24197 h -0.47341 v 0.23144 h -0.24161 v 0.23668 h -0.23159 v 0.23668 h -0.47341 v 0.23668 h -1.41961 v -0.23692 h -0.71521 v -0.23668 h -0.468 v 0.23668 h -0.4734 v 0.70992 h 1.18341 v 1.41992 h -0.24221 v 0.71046 h -0.2312 v 0.23669 h -0.4734 v 0.23668 h -0.47861 v 0.23668 h -0.46279 v 0.24145 h -0.47861 v 0.23143 h -0.2364 v 0.23668 h -0.468 v 0.23669 h -0.47861 v 0.23668 h -0.2364 v 0.23668 h -0.23701 v 0.4733 h -0.24161 v 0.23669 h -0.23119 v 0.4733 h -0.23119 v 0.23668 h -0.24221 v 0.23669 h -0.47341 v 0.4733 h -0.2364 v 0.23662 h -0.4734 v 0.23668 h -0.2364 v 0.23662 h -0.23641 v 0.23669 h -0.9414 v 0.23668 h -0.48081 v 0.4733 h -0.2316 v 0.47331 h -0.24181 v 0.23668 h -0.23159 v 0.23668 h -0.47861 v 0.23662 h -0.47341 v 0.23668 h -0.23159 v 0.23669 h -0.24161 v 0.23668 h -0.4734 v 0.23668 h -0.23641 v 0.23668 h -0.4734 v 0.23652 h -0.23159 v 0.23669 h -0.24221 v 0.23662 h -0.23641 v 0.23672 h -0.23159 v 0.23668 h -0.24161 v 0.23668 h -0.23159 v 0.23669 h -0.47341 v 0.23668 h -0.47861 v 0.23662 h -0.23159 v 0.23668 h -0.24222 v 0.23668 h -0.23119 v 0.23663 h -0.2364 v 0.23672 h -0.24161 v 0.4733 h -0.94661 v 0.23669 h -0.23159 v 0.46805 h -0.2364 v 0.24197 h -0.71522 v 0.23668 h -0.71 v 0.23669 m 117.58725,-70.03192 v 0.47331 h 0.24221 v 0.23143 h 0.2316 v 0.24193 h 0.24221 v 0.94659 h -0.47341 v 0.23668 h -0.24161 v 0.23668 h -0.46799 v 0.23669 h -0.47341 v -0.94767 h -0.24221 v -0.952 h 0.24221 v -0.23137 h 0.23641 v -0.23669 h 0.4734 v -0.23662 h 0.23159 m 21.53478,-7.5727 v 0.23662 h -1.18341 v -0.23662 h -0.4734 v -0.47331 h 0.2364 v -0.23672 h 0.2364 v -0.23662 h 0.237 v -0.23672 h 0.47341 v -0.23668 h 0.71 v -0.23663 h 0.94661 v 0.23663 h -0.24181 v 0.70994 h -0.23159 v 0.47331 h -0.24181 v 0.23668 h -0.468 m -57.25229,30.98964 v 0.24197 h 0.9412 v 0.23668 h 0.47341 v 0.23137 h 0.24181 v 0.47309 h -0.24181 v 0.23668 h -0.2316 v 0.24197 h -0.24221 v 0.23662 h -0.9412 v -0.23695 h -0.24181 v -0.24197 h -0.237 v -0.23668 h -0.47341 V 167.741 h -0.23119 v -0.46806 h 0.23119 v -0.23668 h 0.47341 v -0.24197 h 0.47861 m -26.97776,7.33604 v 0.23669 h 0.237 v 1.18327 h -0.237 v 0.70992 h -0.231 v 0.23668 h -0.71521 v 0.23663 h -0.2364 v 0.4733 h -0.2316 v -0.23668 h -0.24181 v -1.89316 h 0.24181 v -0.23668 h 0.2316 v -0.23662 h 0.2364 v -0.47335 h 0.94661 m 79.4919,-34.30325 v 0.23669 h 0.47862 v 0.7095 h -0.2364 v 0.23668 h -0.24222 v -0.23668 h -0.94139 v 0.23668 h -0.23641 v 0.23669 h -0.2364 v 0.23668 h -0.23159 v 0.23672 h -0.24221 v 0.23662 h -0.2364 v -0.23662 h -0.23641 v -0.71007 h -0.2364 v -0.47324 h 0.2364 v -0.4733 h 1.89843 v -0.23663 h 0.46278 m -28.85531,14.4302 v 0.23662 h 0.7048 v 0.23668 h 0.2364 v 0.23669 h 0.71001 v 0.23668 h 0.2364 v 0.4733 h -0.2364 v 0.23672 h -0.23641 v 0.23669 h -0.23159 v 0.24197 h -1.18341 v -0.24197 h -0.95122 v -0.23669 h -0.23159 v -0.23672 h -0.24221 v -0.23672 h -0.23159 v -0.47331 h 0.4734 v -0.23668 h 0.468 v -0.23668 h 0.4734 v -0.23668 h 0.24181 m 7.33099,-5.67426 v 0.23144 h 0.2364 v 0.70994 h -0.2364 v 0.23668 h -0.2364 v 0.23663 h -0.24221 v 0.70994 h -0.23159 v 0.23668 h -0.2364 v 0.23663 h -0.23641 v 0.23668 h -0.2364 v 0.23668 h -1.88801 v -0.23668 h -0.24221 v -0.23668 h 0.47341 v -0.47331 h 0.2364 v -0.23137 h 0.2364 v -0.24197 h 0.237 v -0.23662 h 0.24181 v -0.23669 h 0.2316 v -0.23668 h 0.2364 v -0.23662 h 0.2364 v -0.47333 h 0.4734 v -0.23143 h 0.94661"
	/>
	<path
		id="guanaja" 
		name="Guanaja"
		d="m 991.3272,40.929323 v 0.236622 h 0.7044 v 0.236702 h 0.2412 v 0.473304 h -0.2412 v 0.236642 h -0.2306 v 0.236622 h -0.2358 v 0.236702 h -1.1784 v 0.236622 h -0.4786 v -0.236622 h -0.2358 v -0.236702 h 0.2358 v -0.236622 h 0.2358 v -0.473304 h 0.2412 v -0.236622 h 0.2332 v -0.236722 h 0.2306 v -0.236682 h 0.4786 m -18.6893,21.529581 v 0.236622 h 0.2306 v 0.709926 h 0.2412 v 0.473304 h -0.2412 v 0.236722 h -0.2306 V 64.3521 h -0.2412 v 0.236682 h -0.2306 v 0.236682 h -0.2386 v 0.236682 h -0.2413 v 0.236682 h -0.4734 v 0.231433 h -0.468 v 0.241971 h -0.7146 V 65.530261 H 969.8 v -0.231433 h 0.2306 v -0.236682 h 0.4782 v -0.236682 h 0.2358 v -0.236682 h 0.2387 V 64.3521 h 0.2305 v -0.236682 h 0.2413 v -0.236722 h 0.2305 v -0.236622 h 0.2413 v -0.236622 h 0.2386 v -0.709906 h 0.2306 v -0.236622 h 0.2412 m -32.65244,0.236622 v 0.473304 h 0.2358 v 0.473304 h 0.2358 v 1.18323 h 0.2358 v 0.704657 h -0.2358 v 0.241931 h -0.2358 v 0.236622 h -1.18361 v -0.236622 h -0.4728 v -0.241931 h -0.2306 v -0.467995 h -0.24121 v -0.473304 h -0.2358 V 64.35206 h -0.2358 v -0.236622 h -0.7102 v -0.473304 h -0.23059 V 63.16883 h 0.23059 v -0.236622 h 0.24121 v -0.236682 h 2.83373 m 3.54959,29.338904 v 0.236674 h 0.2358 v 0.709946 h 0.2332 v 0.473298 h -0.2332 v 0.709914 h -0.2358 v 0.473298 h -0.2358 v 0.236728 h -0.2358 v 0.236622 h -0.23861 v 0.236674 h -0.2358 v 0.236676 h -0.4734 v 0.231427 h -0.2358 v 0.236622 h -0.23861 v 0.241923 h -0.71 v 0.236674 h -0.94701 v -0.236674 h -0.2358 v -0.478545 h 0.2358 V 95.58426 h 0.4734 v -0.236622 h 0.47381 V 95.11091 h 0.4734 v -0.47335 h 0.2358 v -0.473244 h 0.23861 v -0.709908 h 0.2358 v -0.47325 h 0.24121 v -0.236622 h 0.23059 v -0.236728 h 0.2358 v -0.236674 h 0.4728 v -0.236676 h 0.2358 M 988.4832,48.502029 v 0.231393 h 0.2358 v 0.478552 h 0.2358 v 0.231434 h 0.2306 v -0.231434 h 0.7142 v 0.231434 h 0.2358 v 0.241931 h -0.2358 v 0.236621 h -0.2358 v 0.231454 h -0.4776 v 0.241911 h -0.468 v 0.231473 h -0.2358 v 0.473304 h -0.2358 v 0.236622 h -0.2386 v 0.236682 h -0.4684 v 0.24189 h -0.2413 v -0.24189 h -0.2358 v 0.473304 h -0.2358 v 0.709925 h -0.2358 v 0.473324 h -0.2305 v 0.709906 h -0.2413 v 0.241971 h -0.2358 v 0.231433 h -0.2386 v 0.236622 h -0.71 v 0.473304 h -0.2306 v 0.236722 h -0.2412 v 0.473304 h -0.2358 v 0.473304 h -0.2358 v 0.236682 h -0.468 v 0.236682 h -0.2412 v 0.241971 h -0.2358 v 0.231434 h -0.2358 v 0.236682 h -0.2358 v 0.236622 h -0.2306 v 0.236621 h -0.2412 v 0.236683 h -0.4734 v -0.236683 h -0.2386 v -0.236621 h 0.2386 v -0.236622 h -0.2386 v -0.468095 h -0.2306 V 56.77995 h 0.2306 v -0.236682 h 0.4792 v 0.236682 h 0.2306 v 0.241931 h 0.2412 V 56.77995 h 0.2306 v -0.236682 h 0.2358 v -0.468096 h 0.2358 v -0.24181 h 0.2358 V 55.59664 h 0.4734 v -0.236622 h 0.2358 v -0.236722 h 0.2358 v -0.473304 h 0.2358 v -0.468055 h 0.2412 v -0.242132 h 0.2306 v -0.236622 h 0.2412 v -0.236722 h 0.468 v -0.473344 h 0.2386 v -0.709926 h 0.2358 v -0.468115 h 0.2412 v -0.715195 h 0.2306 v -0.236702 h 0.7102 v -0.709926 h -0.7102 V 49.92178 h -0.7098 v -0.236622 h -0.2358 v -0.241951 h 0.2358 v -0.231433 h 1.42 v -0.236562 h 0.2413 v -0.241931 h 0.2305 v -0.231373 h 0.7103 m -91.79918,25.315946 h 0.23861 v -0.478552 h 0.23059 v -0.704637 h 0.24121 v -1.893156 h -0.24121 v -0.473304 h -1.88701 v -0.236622 h -0.2358 v -0.473304 h 0.2358 v -0.709946 h 0.2358 v -0.709926 h 0.23861 v -0.236622 h 0.23059 v -0.473304 h 0.47701 v -0.473304 h 0.2358 v -0.236682 h 0.23861 v -0.236682 h 0.23059 v -1.18325 h 0.24121 v -0.709945 h 0.2358 v -0.236683 h 0.2358 v -0.236621 h 0.71021 v -0.236723 h 0.23059 V 63.64197 h 0.24121 v -0.473304 h 0.2358 v -0.236682 h 0.2358 v -0.709926 h 0.2358 v -0.709926 h 0.4734 v -0.473244 h 0.2358 v -0.473244 h 0.2358 v -0.236722 h 0.23581 v -1.18317 h -0.23581 v -0.473304 h -0.2358 v -1.419812 h 0.2358 v -0.231433 h 0.23581 v -0.241977 h 0.23319 v -0.236682 h 0.4722 v -0.236682 h 0.47822 v -0.231373 h 0.23319 v -0.951736 h -0.46859 v -0.236622 h -0.24121 v -0.473304 h 0.24121 v -0.473304 h 0.2358 v -0.241871 l 1.66783,0.0053 v 0.236622 h 0.23059 v -0.236622 h 0.95222 V 53.46623 h 0.23059 v -0.236621 h 0.24121 v -0.236722 h 0.23059 v -0.236642 h 0.24121 v -0.231433 h 2.36542 v 0.231433 h 0.46799 v 0.473324 h 0.24121 v 0.473304 h 0.2306 v 0.236622 h 0.24121 v 0.241931 h 0.23059 v 0.231433 h 0.4734 v 0.236622 h 0.70981 v 0.236682 h 1.65561 v 0.473344 h 0.4734 v 0.236622 h 0.2358 v 0.478553 h 0.71021 v -0.241811 h 0.4734 v -0.236722 h 0.24121 v -0.236622 h 0.47341 v -0.473344 h 0.23059 v -0.236722 h 0.23861 v -1.419852 h 0.2358 v -0.473324 h 0.2356 v -0.709926 h -0.2358 v -0.473304 h -0.23581 v -0.473284 h -0.2386 v -0.473224 h 0.2386 V 49.92185 h 0.23581 v -0.236622 h -0.23581 v -0.951857 h -0.46799 v -0.709925 h 0.23059 v -0.231434 h 0.23861 V 47.55531 h 0.2358 v -1.183229 h -0.2358 v -0.946548 h -0.23861 v -1.419872 h 0.23861 v -0.709946 h 0.2358 v -0.473244 h 0.2358 v -1.18323 h 0.4734 v -0.236622 h 0.70901 v -0.236722 h 0.24121 v -0.236622 h 0.46278 v -0.236722 h 0.24121 v -0.709966 h 0.2358 v -0.709906 h 0.2358 v -0.236702 h 0.2358 v -0.236722 h 0.2306 v -0.236722 h 0.24121 v -0.236682 h 0.2358 v -0.236702 h 0.2358 v -0.236642 h 0.2386 v -0.236622 h 0.24121 v -0.236682 h 0.23059 v -0.236702 h 0.47341 v -0.236702 h 0.4734 v -0.236622 h 0.468 v -0.473284 h 0.24121 v -0.236622 h 0.2358 v -0.236702 h 0.2358 v -0.236622 h 0.2358 v -0.236722 h 0.23059 v -0.236682 h 0.24121 v -1.656534 h -0.24121 v -1.420012 h 0.24121 v -0.473184 h -0.47341 v -0.236622 h -0.2358 v -0.236722 h -0.4728 v -0.231433 h -0.24121 v -0.478372 h 0.24121 v -0.236682 h 0.2358 v 0.236682 h 0.2358 v 0.236642 h 0.468 v 0.241931 h 0.24121 v 0.231373 h 1.65701 v -0.231373 h 0.71021 v -0.241931 h 0.70479 v -0.236642 h 0.71001 v -0.236682 h 0.95102 v -0.236682 h 0.23059 v -0.473184 h 0.24121 v -0.231433 h 0.23059 v -0.478553 h 0.24121 v -0.231393 h 0.46799 v -0.241951 h 0.24121 v -0.236682 h 0.2306 v -0.704677 h 0.4734 v -0.478353 h 0.2358 v -0.467594 h 0.24121 v -0.241911 h 0.23059 v -0.236642 h 0.24121 v -0.704697 h 0.23059 V 24.84259 h 0.47341 v -0.473304 h 0.2358 v -0.236642 h 0.24121 V 23.65934 h 0.23059 v -0.236642 h 0.24101 v -0.236642 h 0.46799 v -0.473304 h 0.24121 V 22.47611 h 0.23059 v -0.236642 h 0.24121 v -0.946587 h 0.2306 v -0.709946 h 0.4734 v -0.236642 h 0.2358 v -1.656534 h 0.24121 v -0.473284 h 0.23059 v -0.236642 h 0.2358 v -1.18323 l 0.2358,-0.0105 v -0.462766 h 0.47862 v -0.473284 h 0.4734 v -0.236642 h 0.23059 v -0.236638 h 0.23861 v -0.236642 h 0.4728 v -0.236642 h 0.24121 v -0.236642 h 0.2332 v -0.236642 h 0.2358 v -0.473304 h 0.2358 v -0.236642 h 0.47861 v -0.473304 h 0.2332 v -0.236641 h 0.4734 v -0.236662 h 0.4734 V 12.53701 h 0.23861 v -0.226125 l 0.23059,-0.01055 v -0.236641 h 0.71522 v -0.236642 h 0.47861 v -0.236662 h 0.46699 V 11.35375 h 0.71021 v -0.236642 h 0.46799 v -0.236642 h 0.71502 v -0.236642 h 0.94701 v 0.236642 h 0.4734 v -0.236642 h 0.94661 v 0.236642 h 0.4734 v 0.236642 h 0.94581 v 0.236642 h 0.7044 v 0.236642 h 0.4734 v 0.236642 h 0.71021 v 0.236642 h 0.4734 v 0.236642 h 0.95222 v 0.236642 h 0.4728 v 0.236642 H 952.48 v 0.236642 l 0.49464,-0.04207 -0.026,0.278713 h 0.23059 v 0.236642 h 0.47341 v 0.236642 h 0.24121 v 0.473284 h 0.23575 v 0.236642 h 0.2306 v 0.236642 h 0.2412 v 0.236642 h 0.2306 v 0.236642 h 0.2412 v -0.236643 h 0.2306 v -0.236642 h 0.2386 v -0.594209 -0.115797 h 0.2412 v -0.236642 h 0.2306 v -0.236642 h 0.2412 v -0.236642 h 0.2306 v -0.236642 h 0.2386 v -0.236642 h 0.2412 v -0.236642 h 0.2306 v -0.473324 h 0.2412 v -0.473304 h -0.2412 V 10.17038 h 0.2412 V 8.0406981 h -0.2412 v -0.236642 h -0.2306 v -0.231393 h -0.2412 v -0.236642 h -0.468 V 7.0941302 h -0.2412 v -0.704697 h 0.4734 V 6.1475223 h 1.1834 v -0.236642 h 0.4734 v -0.231393 h 0.2358 V 5.2009344 h 0.2412 v -0.231393 h 0.2306 v -0.241911 h 0.2412 V 4.4910085 h 0.2306 v -0.231393 h 0.2358 V 4.0177246 h 0.4728 V 3.7863315 h 0.2412 V 3.5496896 h 0.2306 V 3.3077987 h 0.2358 V 3.0764056 h 0.2358 V 2.8397637 h 0.4793 V 2.5978528 h 0.4679 V 2.3664597 h 0.2361 V 2.1298178 h 0.2358 v -0.241911 h 0.2358 v -0.468035 h 0.2358 V 0.4732839 h 0.7092 V 0.236642 h 0.4734 V 0 h 1.8878 v 0.236642 h 0.4786 v 0.4732839 h 0.2386 v 0.236642 h 0.2358 v 0.2366419 h 0.4734 v 0.236642 h 1.1835 V 0.7099059 h 0.2332 v -0.236642 h 0.2412 v 0.236642 h 0.2358 v 0.2366419 h 0.2358 v 0.473284 h 0.2358 v 0.2366419 h 0.2332 v 0.2313931 h 0.7148 V 1.6564737 h 0.2386 V 0.9465278 h 0.2306 v -0.236642 h 0.4734 v 0.236642 h 3.5498 v 0.236642 h 0.7148 v 0.2366419 h 0.468 v 0.236642 h 0.2412 v 0.231393 h 0.2306 v 0.2419109 h 0.2412 v 0.236642 h 0.2306 v 0.2313931 h 0.2358 v 0.2419109 h 0.2412 v 0.7099459 h 0.2306 v 0.468035 h 0.2412 v 0.473304 h 0.2332 v 0.236642 h -0.2332 v 1.4198718 h -0.2412 v 0.2418908 h -1.8886 v 0.2313931 h -0.7098 v 0.236642 h -0.71 v 0.2366419 h -0.4734 V 7.572623 h -0.2412 v 0.2313931 h -0.2306 V 8.040658 h -0.2358 V 8.2773 h -0.2358 v 0.236642 h -0.4786 v 0.2366419 h -0.2306 v 0.4732839 0.236642 h 0.2306 v 0.236642 l 0.7154,-0.052489 V 9.4605499 h 0.9406 v 0.2366419 h 0.7102 V 9.4605499 h 0.2412 v -0.236642 h 0.2306 v -0.236642 h 0.71 V 8.750624 h 0.947 v 1.1832298 h 0.4786 v 0.2366422 h 0.7048 V 9.9338538 h 0.7091 V 9.6972119 h 1.1836 v -0.236642 h 0.9464 v 0.236642 h 0.4792 v 0.2366419 h 0.4734 v 0.2366422 h 0.705 V 9.9338538 h 0.2358 v 0.2366422 h 0.4728 v 0.236642 h 0.2386 V 10.6438 h 0.2358 v 0.236642 h 0.2358 v 0.236642 h 0.2412 v 0.236642 h 0.705 v 0.236642 h 0.4728 v 0.236662 h 1.1834 v -0.236662 h 0.4792 v -0.236622 h 0.2306 v -0.473284 h 0.2358 v -0.709946 h 0.2386 V 9.9338739 h 0.2358 v -0.236642 h 0.2358 v -0.236642 h 0.468 v -0.236662 h 0.4776 V 8.987286 h 0.2358 V 8.750644 h 0.2358 V 8.5140021 h 0.2412 v -0.236642 h 0.4634 v -0.236662 h 0.4782 v -0.236642 h 0.2386 v -0.231393 h 0.4676 V 7.0941102 H 992.2 v -0.236642 h 0.7102 V 6.6208263 h 0.705 v 0.2366419 h 0.71 v 0.236642 h 0.2412 v 0.7099459 h -0.2412 v 0.473284 h -0.2306 v 1.6565338 h 0.2306 v 0.2366421 h 0.2412 v 0.709946 h -0.2412 v 0.473284 h -0.2306 v 0.709946 h 0.2306 v 0.473284 h 0.4728 v 0.236642 h 0.4786 v 0.473304 h 0.2358 v 0.236642 h 0.2358 v 0.236641 h 0.2332 v 0.236642 h 0.715 v -0.236642 h 0.4676 v -0.236642 h 0.2412 v -0.236642 h 0.7102 v 0.236642 h 0.4734 v 0.236642 h 0.2306 v 0.473284 h 0.2412 v 0.473284 h 0.2306 v 0.236642 h 0.4782 v 0.236642 H 1000 v 1.419892 h -0.2306 v 0.473284 h -0.2412 v 0.236642 h -0.2358 v 0.236642 h -0.2306 v 0.236642 h -0.2412 v 0.473284 H 998.59 v 0.236642 h -0.2412 v 0.946588 h -0.2306 v 0.473304 h -0.2386 v 0.941319 h -0.2412 v 0.24189 h -0.2306 v 0.236642 h -0.2412 v 0.236642 h -0.4676 v 0.473284 h -1.6568 v 0.236642 h -0.2412 v 0.236642 h -0.7042 v 0.236642 h -0.7095 v 0.236642 h -0.4734 V 22.71268 h -0.7102 v 0.236642 h -0.4728 v 0.236642 h -0.2358 v 0.236642 h -0.2386 v 0.236642 h -0.2358 v 0.231393 h -0.2412 v 0.241911 h -0.2306 v 0.236642 h -0.2332 v 0.236642 h -0.2412 v 0.236642 h -0.2358 v 0.236662 h -0.2358 v 0.231393 h -0.2358 v 0.241911 h -0.9466 v 0.231393 h -0.4734 v 0.236642 h -0.468 v 0.241911 h -0.2412 v 0.236642 h -0.2358 v 0.231433 h -0.4734 v 0.241911 h -1.8882 v -0.241911 h -0.4776 v -0.231433 h -1.1834 V 26.26239 h -1.4204 v 0.236642 h -0.468 v 0.231433 h -0.4734 v 0.241911 h -0.4789 v 0.236702 h -0.4734 v 0.231433 h -0.2306 v 0.236682 h -0.2412 v 0.236702 h -0.2306 v 0.236622 h -1.1834 v -0.236622 h -0.2412 v 0.236622 h -0.468 v 0.241931 h -1.1836 v -0.241931 h -0.2412 v -0.236622 h -0.2306 v 0.236622 h -0.71 v 0.241931 h -0.9458 v -0.241931 h -0.2358 v -0.236622 h -0.2358 v -0.236702 h -0.71 v -0.236682 h -1.657 v -0.231433 h -0.71 v -0.236702 h -0.2412 v -0.241911 h -0.2306 v -0.231433 h -0.5259 -0.6567 v 0.2945 0.646839 h 0.4728 v 0.236722 h 0.2358 v 0.236702 h 0.2358 v 0.709946 h 0.2386 v 0.478553 h 0.4728 v 0.231393 h 0.4728 v 0.236702 h 0.2386 v 0.236642 h 0.2306 v 0.236702 h 0.2412 v 0.236682 h 0.2306 v 0.478553 h 0.2412 v 0.468035 h 0.2358 v 0.478553 h -0.2358 v 1.414623 h -0.2412 v 0.236702 h -0.2306 v 0.473304 h -0.2412 v 1.419871 h -0.2306 v 0.473284 h -0.2386 v 2.83976 h 0.2386 v 0.473224 h 0.2306 v 0.236682 h 0.2412 v 0.236622 h 0.2306 v 0.473304 h 0.2412 v 0.473284 h 0.2358 v 0.236622 h 0.4734 v 0.236722 h 0.2306 v 0.236622 h 0.2412 v 0.236722 h -0.2412 v 0.473284 h -0.2306 v 0.236642 h -0.2412 v 0.236702 h -0.2306 v 0.236682 h -0.2386 v 0.236622 h -0.2412 v 0.231433 h -0.4734 v 0.478453 h -0.468 v 0.236621 h -0.2358 v 0.946588 h -0.2358 v 0.473284 h -0.2412 v 0.236622 h -0.2306 v 0.236702 h -0.2358 v 0.236622 h -0.4734 v 0.236702 h -0.4728 v 0.236642 h -0.2358 v 0.236682 h -0.2358 v 0.236642 h -0.2358 v 0.709946 h -0.2358 v 0.236682 h -0.2386 v 0.231393 h -0.2412 v 0.478553 h -0.2306 v 0.473304 h -0.2358 v 0.468035 h -0.2358 v 0.241931 h -0.2386 v 0.236622 h -0.2413 v 0.473304 h -0.2305 v 0.231433 h -0.2358 v 0.236622 h -0.4728 v 0.236702 h -0.2358 v 0.473284 h -0.2358 v 0.241951 h -0.2306 v 0.231433 h -0.2412 v 0.478553 h -0.2358 v 0.231433 h -0.2359 v 0.473324 h -0.2358 v 0.473304 h -0.4734 v 0.236682 h -0.2358 v 0.241971 h -0.2358 v 0.231373 h -0.2358 v 0.236682 h -0.2358 v 0.236622 h -0.2386 v 0.236722 h -0.8576 -0.2841 -1.9299 v 0.236722 h -1.8976 V 55.12369 h -0.468 v -0.473304 h 0.468 v -0.236622 h 1.1886 V 53.94046 h -0.9466 v -0.236682 h -0.2412 v -0.236682 h -0.2358 v -0.473264 h -0.2332 V 52.75719 h -0.2412 v -0.231433 h -0.4734 v -0.478392 h -0.2386 v -0.231594 h -0.2306 V 51.57384 h -0.2412 v -0.236682 h -0.4728 v -0.236622 h -0.71079 v 0.236622 h -0.23059 v -0.236622 h -0.24121 v 0.236622 h -0.70921 v -0.473284 h -0.23319 v -0.236642 h -0.71502 v 0.236642 h -0.46799 v 0.709946 h -0.47341 v 0.241971 h -0.4734 v 0.231433 h -0.71021 v 0.236622 h -0.7098 v 0.241951 h -0.47341 v 0.231433 h -1.42421 v 0.236622 h -0.2306 v 0.236723 h -0.71 v 0.236621 h -0.47341 v 0.236723 h -0.4734 v 0.236621 h -0.2358 v 0.241971 h -0.23861 v 0.231434 h -0.2358 v 0.236622 h -0.24121 v 0.236682 h -0.23059 v 0.236622 h -0.4734 v -0.236622 h -0.2358 v 0.236622 h -0.704 v 0.236722 h -0.47861 v 0.236622 h -0.2358 v 0.236722 l -0.0741,0.02063 -0.16428,-0.02063 v 0.24187 h -0.24121 v 0.231434 h -0.23059 v 0.236622 h -0.2358 l 0.0421,0.446999 -0.27887,0.03185 v 0.231433 h -0.71021 v 0.236682 h -1.89321 v 0.236622 h -0.47221 v 0.236682 h -0.23319 v 0.473308 h -0.24121 v 0.236682 h -0.23059 v 0.236622 h -0.24121 v 0.473244 h -0.2358 v 0.236622 h -0.47341 v 0.236682 h -0.4734 v 0.709946 h -0.2358 v 0.236682 h 0.2358 v 0.946608 h -0.2358 v 0.236682 h -0.23861 v 0.236622 h -0.2358 v 0.236682 h -0.23059 v 0.236622 h -0.4734 v 0.236682 h -0.47822 v 0.236622 h -1.65561 v 0.473304 h -0.4734 v 0.236621 h -0.23059 V 63.643743 H 930.485 V 63.40702 h -0.23319 v 0.236723 h -0.24121 v 0.473303 h -0.9416 v 0.236683 h -0.24121 v -0.236683 h -0.23059 v -0.236682 h -0.24121 v -0.236621 h -0.468 v -0.236682 h -0.71421 v -0.236622 h -0.71001 v 0.236622 h -0.23319 v 0.236682 h -0.94641 v 0.236621 h -0.23861 v 0.236682 h 0.23861 v 0.236683 h 0.23059 v 0.236682 h 0.4734 v 0.236682 h 0.24121 v 0.236622 h 0.9416 v -0.236622 h 1.65562 v 0.236622 h 0.2412 v 0.236621 h 0.2306 v 0.231373 h 0.2358 v 0.241911 h 0.4734 v 0.236622 h 0.47341 v 0.473304 h 0.2358 v 0.473304 h -0.2358 v 0.473024 h -0.2332 v 0.236622 h -0.4735 v 0.236682 h -0.71021 V 68.1398 h -0.47341 v 0.236722 h -0.24121 v 0.236622 h -0.23059 v 0.473304 h -0.47821 v 0.473304 h 0.24121 v 0.236722 h -0.71421 v 0.236682 h -0.468 v 0.236622 h -0.24121 v 0.236682 h -0.23319 v 0.236622 h -0.47281 v 0.236622 h -0.4734 v 0.236722 h -0.47861 v 0.236622 h -0.47341 v 0.236722 h -0.23059 v 0.236622 h -0.71021 v 0.236722 h -0.71 v 0.236622 h -0.2358 v 0.236722 h -0.70901 v 0.236622 h -0.71 v 0.236622 h -0.24121 v 0.231433 h -0.46339 v 0.241871 h -0.71561 v 0.236722 h -1.18362 v 0.231313 h -0.47861 v 0.241971 h -0.46278 v 0.236622 H 917.235 v 0.231473 h -0.47181 v 0.241971 h -0.2358 V 75.2397 h -0.23059 v 0.231433 h -0.24121 v 0.241811 h -0.2358 v 0.231473 h -0.2358 v 0.236622 H 915.116 v 0.236722 h -0.47341 v 0.236622 h -0.24121 v 0.236722 h -0.4738 v 0.241871 h -0.2358 v 0.236682 h -0.23059 v 0.236722 h -0.24121 v 0.236622 h -0.23861 v 0.468055 h -0.2358 v 0.709946 h -0.2358 v 0.473304 h -0.23059 v 0.236722 h -0.47341 v 0.473304 h -0.24121 v 0.236622 h -0.2358 v 0.236722 h -0.23059 v 0.709926 h -0.24121 v 0.473304 h -0.23059 v 0.236622 h -0.95202 v 0.236722 h -0.94701 v 0.236622 h -0.71 v 0.236621 h -0.23059 v 0.236723 h -0.47862 v 0.236621 h -0.70439 v -0.236621 h -1.65541 v 0.236621 h -0.23581 v 0.236683 h -0.2412 v 0.473344 h -0.2332 v 0.236802 h -0.24261 v 0.236682 h -0.705 v 0.236682 h -0.2358 v 0.236622 h -0.24121 v 0.236682 h -0.23059 v 0.236682 h -0.24121 v 0.236682 h -0.2332 v 0.236622 h -0.2358 v 0.473304 h -0.24121 v 0.236682 h -0.23059 v 0.236622 h -0.24121 v 0.236682 h -0.23059 v 0.236722 h -0.2358 v 0.236622 h -0.2358 v 0.236722 h -0.2358 v 0.946087 h 0.2358 v 1.419872 h -0.2358 v 0.236622 h -0.24121 v 0.236722 h -0.2332 v 0.236682 h -0.4734 v 0.236676 h -0.71021 v 0.236674 h -1.65701 v 0.236676 h -0.23861 v 0.236676 h -0.2358 v 0.236622 h -0.2358 v 0.236674 h -0.24121 v 0.236622 h -0.23059 v 0.47335 h -0.47341 v 0.236676 h -0.4728 v 0.236622 h -0.71021 v 0.236728 h -0.4734 v 0.231375 h -0.23861 v 0.241923 h -0.2412 v 0.236674 h -0.2306 v 0.236676 h -0.2358 v 0.236728 h -0.4734 v 0.236622 h -0.2358 v 0.236674 h -0.2358 v 0.236622 h -0.23059 v 0.468049 h -0.24121 v 0.241923 h -0.47221 V 96.5336 h -0.9466 v -0.236676 h -1.178 V 96.5336 h -0.24121 v 0.231427 H 888.158 v 0.241975 h -0.2386 v 0.236674 h -0.71001 v 0.231427 h -0.4734 v 0.236676 h -0.71001 v 0.241869 h -1.4136 v -1.420797 h 0.23059 V 95.81779 h 0.24121 v -0.231427 h 0.2306 v -0.236622 h 0.2358 v -0.236674 h 0.24121 v -0.47335 h 0.23319 v -2.129921 h 0.24121 v -0.946572 h 0.23059 v -0.710587 h 0.2358 v -0.710246 h 0.2358 v -0.709946 h 0.23861 v -0.478553 h 0.24121 l -0.026,-0.49434 0.25703,0.02644 v -0.268155 -0.205189 l 0.2358,-0.0106 v -0.463006 h 0.2358 v -0.473304 h 0.23861 v -0.473299 h 0.24121 v -0.236622 h 0.23059 v -0.709946 h 0.24121 v -0.709966 h 0.2332 v -0.236682 h 0.2358 v -0.236682 h 0.2358 v -0.236682 h 0.2358 v -0.473304 h 0.24121 V 83.27857 h 0.23319 v -0.473304 h 0.2358 v -0.236622 h 0.2358 V 82.09534 h 0.2358 v -0.236622 h 0.24121 V 80.91215 h 0.2306 v -0.473304 h 0.2358 v -0.473143 h 0.2358 v -0.236622 h 0.2358 v -0.236722 h 0.2358 v -0.473304 h 0.2386 v -0.473304 h 0.23059 v -0.236682 h 0.24121 v -0.468055 h 0.23581 V 77.36771 h 0.2386 v -0.236682 h 0.2358 v -0.241871 h 0.47341 v -0.236722 h 0.2358 v -0.236622 h 0.2386 v -0.236682 h 0.2358 v -0.468055 h 0.2358 v -0.241811 h 0.2358 v -0.231433 h 0.2332 v -0.478493 h 0.24121 v -0.231433 h 0.2358 v -0.478553 h 0.2358 V 73.81798"
	/>
	<path
		id="jose-santos-guardiola" 
		name="José Santos Guardiola"
		d="m 551.4962,103.86155 v 0.23667 h -0.23159 v 0.23663 H 551.023 v 0.23675 h -0.23159 l -0.12622,-0.0419 -0.27887,-0.13151 -0.23159,-0.12625 -0.0421,-0.15781 0.0902,-0.31555 0.40489,0.0159 0.16427,0.0472 0.40489,0.0525 0.32075,-0.0525 m 1.18281,1.06229 v -0.58899 h 0.237 v -0.4733 h -0.237 v -0.0894 l 0.44155,-0.13681 0.60482,0.0207 0.24221,0.20519 0.0781,0.16309 0.0381,0.12101 -0.49444,0.17884 -0.32595,0.10522 -0.20515,0.11578 -0.0841,0.11046 -0.2947,0.26817 m -20.10964,3.92835 0.28949,-0.0106 0.2947,0.005 0.30472,-0.1894 0.38425,-0.11047 0.46279,0.0159 -0.14224,0.3103 -0.0159,0.35759 -0.25824,0.31024 -0.3524,0.35234 -0.25243,0.35758 v -0.47329 h -0.24221 v -0.47325 h -0.23159 v -0.23672 h -0.24161 v -0.21563 M 668.14406,85.408455 v 0.236682 h 0.9412 v 0.236682 h 0.95202 v 0.473304 h 0.23059 v 0.236722 h 0.24121 v 0.236682 h 0.23059 v 0.236622 h 0.24121 v 0.236682 h 0.2306 v 1.18325 h -0.2306 v 0.236621 h -0.24121 v 0.473304 h -0.23059 v 0.236622 h -0.4738 v 0.236682 h -1.66183 v -0.236682 h -0.23059 v -0.236622 h -0.24121 v -0.473304 h -0.23059 v -0.236621 h -0.4734 v -0.236622 h -0.2358 v -0.709966 h 0.2358 v -0.236682 h 0.23059 v -0.709926 h -0.23059 v -0.236622 h -0.2358 v -0.709986 h 0.46799 v -0.236682 h 0.71462 m -70.03208,9.465869 v 0.236674 h 0.46799 v 0.236676 h 0.24181 v 0.236622 h 0.47341 v 0.231427 h 0.23159 v 0.236674 h 0.47861 v 0.241869 h 0.2316 v 0.236728 h 0.4734 v 0.231321 h 0.24221 V 96.53108 h 0.2312 v -0.236728 h 0.237 v -0.241869 h 0.24161 v -0.236676 h 1.18341 v 0.236676 h 0.4734 v 0.241869 h 0.2316 v 0.236728 h 0.2364 v 0.70995 h -0.2364 v 0.231427 h -0.231 v 0.236674 h -0.4734 v 0.241923 h -0.47861 v 0.231427 h -1.18321 v 0.241923 h -0.7048 v -0.241923 h -0.4734 v -0.231427 h -0.24222 v -0.241923 h -0.2364 V 97.472457 H 599.297 v -0.468156 h -0.24221 v -0.241975 h -0.23159 v -0.467997 h -0.95182 v 0.236729 h -1.4148 v -0.715209 h 0.23159 V 95.3478 h 0.24221 v -0.236674 h 0.46799 v -0.236622 h 0.71522 m 87.06477,-26.025872 v 0.236622 h 0.94661 v 0.236622 h 0.2358 v 0.236722 h 0.2358 v 0.236682 h 0.2358 v 0.473304 h 0.23059 v 0.473344 h -0.23059 v 0.946588 h -0.2358 v 0.709905 h -0.2358 v 0.473344 h -0.2358 v 0.709906 h 0.2358 v 1.656554 h -0.2358 v 0.941319 h -0.94661 v -0.236622 h -0.47381 v -0.231433 h -0.48035 v -0.241811 h -0.23059 v -0.231433 h -1.41941 v 0.231433 h -0.47341 v 0.241811 h -0.4738 v 0.231433 h -0.47341 v 0.236622 h -0.2358 v 0.236722 h -0.2386 v -0.236722 h -0.2358 v -0.468055 h -0.24121 v -3.313148 h 0.24121 v -0.236622 h -0.24121 v -0.709986 h 0.24121 v -0.236622 h 0.4738 v -0.236722 h 0.94661 v -0.236682 h 0.2358 v -0.236622 h 0.4734 v -0.236682 h 0.2358 v -0.236622 h 0.2332 v -0.236722 h 0.24121 v -0.236622 h 0.2358 v -0.236722 h 0.2358 v -0.236622 h 0.468 v -0.236622 h 0.95181 m 35.96029,-9.702527 v 0.236622 h 0.24121 v 0.473304 h 1.4148 v -0.236682 h 0.2358 v -0.236682 h 0.2358 v 0.236682 h 0.71021 v 0.546889 0.163077 h -0.2306 v 0.236622 h 0.47341 v 0.236682 h -0.24121 v 0.236622 h 0.24121 v 0.236682 h 0.46799 v 0.473304 h 2.12876 v -0.236622 h 0.23059 v -0.236622 h 0.47861 V 61.03914 h 0.32075 0.38425 v -0.236682 h 0.95222 v 0.236682 h 0.24121 v 0.236682 h 3.30179 V 61.03914 h 1.18341 v -0.236682 h 0.95222 v -0.236682 h 0.4734 v -0.236622 h 0.2332 v 0.236622 h 0.24121 v 0.473304 h 1.6512 v -0.236622 h 0.24121 v -0.236722 h 0.9414 v 0.236722 h 0.24121 v 1.419892 h -0.24121 v 0.709926 h -0.2358 v 0.236622 h -0.23059 v 0.473304 h -0.24121 v 0.473344 h -0.23059 v 0.236622 h -0.70961 v 0.236682 h -0.24121 v 0.236622 h -0.23059 v 0.473304 h -0.24121 v 0.473304 h -0.23059 v 0.236622 h -0.47862 v 0.236682 h -0.94039 v 0.236622 h -0.47341 v 0.236682 h -0.24121 v 0.236622 h -0.23059 v 0.236622 h -0.24121 v 0.236722 h -0.46799 v 0.236622 h -0.24121 v 0.236682 h -0.47341 v 0.236622 h -0.46759 v 0.236722 h -0.2358 v 0.236622 h -0.2358 v 0.236682 h -0.24121 v 0.236682 h -0.23059 v 0.236622 h -0.95122 v 0.236722 h -0.23059 v 0.236622 h -0.47341 v 0.236682 h -0.2386 v 0.473304 h -0.71522 v 0.236682 h -0.46799 v 0.236622 h -0.2358 v 0.236722 h -0.2358 v 0.236622 h -0.47381 v 0.473304 h -0.23059 v 0.236722 h -0.71541 v 0.473304 h -0.23861 V 72.8719 h -0.4734 v 0.236622 h -0.9406 v 0.231473 h -0.95222 v 0.709906 h -0.2358 v 0.241971 h -0.2358 v -0.241971 h -0.4738 v -0.468055 h -0.2358 v -0.473342 h -0.23593 V 72.6352 h -0.2358 v -0.236722 h -0.23319 v -0.236622 h -0.24121 v -0.236723 h -0.23059 v -0.236621 h -0.24121 v -0.236723 h -0.2358 v -0.236621 h -0.47341 v -0.236723 h -0.4722 v -0.236622 h -0.46799 v -0.236621 h -0.24141 v -0.236723 h -0.2306 v -0.236621 h -0.24121 v -0.236723 h -0.4734 v -0.236622 h -0.468 v -0.163077 -0.07372 h -2.36702 v 0.241971 l -0.4724,-0.0053 v 0.236622 h -0.24121 v 0.236722 h -3.30868 v 0.236622 h -0.4728 v 0.236722 h -0.24121 v 0.236622 h -0.23059 v 0.236622 h -0.2358 v 0.236722 h -0.2358 v 0.236622 h -0.2358 v 0.473304 h -0.47341 v 0.236722 h -0.2358 v 0.236622 h -0.4734 v 0.236722 h -0.47341 v 0.236682 h -0.71 v 0.236622 h -0.2358 v 0.231433 h -0.71021 v 0.241931 h -0.70921 v 0.236722 h -0.2412 v 0.231373 h -0.2306 v 0.241971 h -0.2358 v -0.241971 h -0.2358 v -0.231373 h -0.2358 v 0.231373 h -0.2386 v 0.241971 h -0.2358 v 0.236622 h -0.47341 v 0.231434 h -0.2386 v 0.24193 h -0.2364 v 0.468056 h -0.23581 v 0.24187 h -0.23059 v 0.231433 h -0.71521 v -0.231433 h -0.71001 v -0.24187 h -0.23059 v -0.23148 h -0.24121 v -0.236622 h -0.2358 v -0.473404 h -0.2358 v -0.709906 h 0.2358 v -0.236722 h -0.2358 v -0.24181 h -0.23861 v -0.136833 -0.09476 l 0.23861,0.0053 v -0.241913 h 0.2358 v -0.946628 h 0.2358 v -0.236622 h 0.24121 v -0.473304 h 0.23059 v -0.473504 h 0.2358 v -0.946608 h 0.47341 v -0.236622 h 0.2358 v -0.236682 h 0.94681 v -0.236622 h 0.2358 v -0.236622 h 0.2386 v -0.236682 h 0.24121 v -0.473344 h 0.23059 v -0.236622 h 0.2358 v -0.236682 h 0.2358 v -0.236622 h 0.23861 v -0.236682 h 0.4734 v -0.236682 h 0.47341 v -0.236622 h 0.2358 v -0.236722 h 0.4728 v -0.236622 h 0.2332 v -0.473304 h 0.24121 v -0.241971 h 0.2358 l -0.0261,-0.231433 h 0.25704 v -0.157868 -0.315496 h 0.2358 v -0.236682 h 0.2358 v -0.236722 h 0.2358 v -0.236622 h 0.23059 v -0.236722 h 0.47862 v -0.236622 h 0.2386 v -0.236682 h 0.2358 v -0.236682 h 1.414 v -0.236622 h 0.47341 v 0.236622 h 0.7096 v 0.236682 h 0.24121 v -0.236682 h 0.23059 v -0.236622 h 0.71001 v -0.236682 h 0.24121 v -0.236682 h 0.23059 v -0.236722 h 0.47341 v -0.236622 h 0.24121 v -0.236682 h 1.6508 v -0.236622 h 2.84008 v -0.236722 h 0.24121 v -0.709926 h 0.2306 v -0.709926 h 0.24121 v -0.236622 h 0.23319 v -0.236722 h 0.95102 v -0.236622 h 0.9416 m -167.98254,38.562907 -4.3174,5.23252 -4.68029,0.6521 -3.53374,-3.807388 -12.30057,-1.703864 -3.6811,1.267384 -2.7715,-2.224484 -2.22957,0.136812 -5.00632,4.94325 -4.91215,1.82482 -3.18146,5.38504 -9.18172,2.48741 -1.56185,4.84864 -2.91321,2.85025 -10.27581,2.51375 -1.65121,4.20178 -2.46663,1.10961 -6.65737,-0.7678 -1.81969,0.38912 0.97826,-12.77365 h 0.54172 v -0.23667 h 0.47341 v -0.23663 h 0.237 v -0.23672 h 2.12966 v -0.23663 h 0.71 v -0.23662 h 0.7048 v -0.23653 h 0.24221 v -0.23662 h 0.2364 v -0.23673 h 0.2316 v -0.23668 h 0.24181 v -0.23667 h 0.23159 v -0.23652 h 0.24221 v -0.47329 h 0.2312 v -0.47325 h 0.237 v -0.23662 h 0.24161 v -0.23673 h 0.23159 v -0.47329 h 0.24181 v -0.23668 h 0.47341 v -0.23662 h 0.2364 v -0.70971 h 0.23159 v -0.47329 h 0.71522 v 0.23667 h 1.18341 v -0.23667 h 0.23099 v -0.23663 h 0.95182 v -0.23667 h 1.4144 v 0.23667 h 0.4734 v 0.47335 h 0.2364 v 0.23663 h 0.47341 v 0.23672 h 0.24181 v -0.23672 h 0.23159 v -0.23663 h 0.2364 v -0.23672 h 0.23641 v -0.23663 h 0.2364 v -0.23667 h 0.24221 v -1.42 h 0.23159 v -0.23673 h 0.47341 v -0.23673 h 0.2364 v -0.23662 h 0.4734 v -0.23668 h 0.70961 v -0.23667 h 0.2364 v -0.23667 h 0.2364 v -0.23663 h 1.89322 v -0.23667 h 3.3129 v -0.23668 h 0.94661 v -0.23667 h 0.47341 v -0.23647 h 0.46799 v -0.23667 h 0.4734 v -0.23673 h 0.47862 v -0.23668 h 0.4734 V 102.441 h 0.2316 v -0.7099 h 0.24181 v -0.47335 h 0.237 v -0.46804 h 0.23119 v -0.4785 h -1.18341 v 0.24193 h -0.23159 v -0.24193 h -0.2364 v -0.467993 h 0.2364 v -0.241975 h 1.18341 v -0.236674 h 0.23159 v -0.231481 h 0.24161 v -0.236728 h 0.23119 v -0.241923 h 0.47341 v -0.23148 h 0.47861 v -0.241868 h 0.23159 V 97.94966 h 0.47341 v -0.241868 h 0.71001 v -0.236674 h 0.4734 v -0.468049 h 0.24161 v -0.473244 h 0.23159 v -0.236676 h 0.2364 v -0.241923 h 0.24222 v -0.236622 h 0.23159 v -0.231427 h 0.24181 v -0.236622 h 0.46799 v -0.236674 h 0.94621 V 96.0512 h -0.23159 v 0.478545 h -0.24181 v 0.231375 h -0.2316 v 0.241975 h -0.24221 v 0.468049 h 0.24221 v 0.236622 h 0.47281 v 0.241922 h 1.65661 v -0.241922 h 0.2316 v 0.241922 h 0.95201 v 0.231428 h 0.2316 v -0.231428 h 0.4734 v -0.241922 h 0.2364 v -0.236622 h 0.24181 v -0.468049 h 0.2316 V 96.76112 h 0.2364 v -0.231375 h 0.4734 v -0.478551 h 0.24181 v -0.704618 h 0.2316 V 95.1099 h 0.2364 v -0.236622 h 0.2364 v -0.236726 h 0.71 v -0.236676 h 0.24161 v -0.236729 h 0.2316 v -0.241868 h 0.2364 v -0.231428 h 0.2364 v -0.236409 h 0.47861 v 0.236676 h 0.2316 v 0.231427 h 1.18341 v -0.231427 h 0.23159 v -0.236676 h 0.24221 v -0.236676 h 0.70961 v -0.236674 h 0.4734 v -0.236674 h 0.237 V 92.50669 h 0.94681 v 0.236728 h 1.65662 V 92.50669 h 0.2364 v -0.236622 h 0.4734 V 92.03334 h 0.47341 v -0.236676 h 0.4734 V 91.55999 h 0.4676 v -0.236676 h 0.24181 v -0.236622 h 0.4734 v -0.236674 h 1.65661 v -0.236682 h 0.468 v -0.236682 h 0.24221 v -0.236682 h 0.71001 V 89.90383 h 0.23159 v -0.236682 h 0.24161 v -0.236622 h 0.23159 v -0.236682 h 0.24222 v -0.241971 h 0.46759 V 88.7205 h 0.4734 v -0.236682 h 0.24161 v -0.236622 h 0.47341 v -0.236722 h 0.2364 v -0.236622 h 0.23159 V 87.53713 h 0.24221 v -0.236622 h 0.47341 v -0.236722 h 0.46799 v 0.236722 h 0.71522 v -0.236722 h 0.23159 v -0.236622 h 0.2364 v -0.236682 h 0.94661 V 86.35386 h 0.2364 v 0.236622 h 0.71542 v 0.236682 h 1.4146 v -0.236682 h 0.47341 V 86.35386 h 0.2364 v -0.236722 h 0.237 v -0.236682 h 0.2364 v -0.236622 h 0.4734 v -0.236682 h 0.47341 V 85.17053 h 0.2364 v -0.236722 h 1.89822 v -0.236622 h 1.18342 v 0.236622 h 1.178 v -0.236622 h 0.46799 v -0.236722 h 0.24221 v -0.236682 h 0.71001 V 83.98716 h 0.23119 v -0.946608 h 0.24221 V 82.80387 h 0.2312 v -0.236622 h 0.24221 v -0.236622 h 0.2364 v -0.236722 h 0.4734 v -0.236301 h 0.47341 v 0.236622 h 0.237 v 0.473304 h 0.2364 v 0.236622 h 0.2364 v 0.236722 h 0.2316 v 0.236622 h 0.24181 v 0.236682 h 0.23159 v 0.236622 h 0.24221 v 0.236722 h 0.2364 v 0.236622 h 0.2316 v 0.473304 h 0.24181 v 0.473304 h 1.65621 v -0.236682 h 0.23159 v -0.236622 h 0.24181 v -0.236622 h 0.23641 v -0.473304 h 0.23164 v -0.236722 h 0.4734 v -0.236682 h 0.24221 v -0.236682 h 0.23641 v -0.236622 h 1.888 v -0.473304 h 0.24221 v -0.709906 h 0.2316 v -0.236722 h 0.2364 v -0.236682 h 0.24161 v -0.236722 h 0.4734 v -0.236622 h 0.468 v 0.236622 h 1.18862 v 0.236722 h 1.18321 v 0.236682 h 0.23159 v -0.236682 h 0.95182 v -0.236722 h 0.23159 v -0.236622 h 0.95142 v 0.236622 h 0.23159 v 0.236722 h 0.94661 v -0.236722 h 0.2364 v -0.236622 h 1.42522 v -0.236622 h 0.468 v -0.236682 h 0.237 v -0.236622 h 0.2364 v -0.236722 h 0.4734 v -0.236622 h 0.70961 v -0.236722 h 0.7048 v -0.23666 h 0.47861 v 0.236682 h 0.71001 v 0.236722 h 0.2364 v -0.236722 h 0.71 v -0.236682 h 0.47341 v -0.236682 h 0.4734 v -0.236302 h 1.89282 v -0.236622 h 0.70479 v -0.236682 h 0.47862 v -0.236622 h 1.65661 V 77.83986 h 0.47341 v -0.236622 h 0.4734 v -0.236722 h 1.89302 v -0.236622 h 0.4734 v -2.129765 h -0.24161 v -0.241931 h -0.23159 v -0.231433 h 0.23159 v -0.236622 h 0.4734 v 0.236622 h 0.24161 v 0.231433 h 0.2364 v 0.241931 h 0.94661 v -0.241931 h 0.2312 v 0.241931 h 0.2364 v 0.236622 h 0.24221 v 0.941319 h 0.4734 v 0.236722 h 1.41441 v 0.236622 h 0.4722 v 0.236722 h 0.47861 v 0.24181 h 0.23159 v 0.236622 h 0.24161 v -0.236622 h 0.2316 v -0.24181 h 0.2364 v -0.236722 h 0.2364 v -0.236522 h 0.237 v -0.473304 h 0.24161 v -0.231433 h 0.2316 v -0.241871 h 0.4734 v -0.231433 h 0.2364 v -0.236622 h 0.24221 v -0.241971 h 0.468 v 0.241971 h 1.89281 V 74.758258 H 585.58 v 0.241971 h 1.18341 v -0.241971 h 1.89322 v 0.241971 h 0.70439 v -0.241971 h 0.71522 v -0.231433 h 0.71 v -0.236622 h 2.13002 v 0.236622 h 0.9414 v 0.231433 h 0.70961 v 0.241971 h 0.24221 v 0.236622 h 0.94681 v -0.236622 h 0.46799 v -0.241971 h 0.24161 v -0.231433 h 0.71001 v 0.231433 h 0.94681 v -0.231433 h 0.71 v -0.236622 h 0.47341 v -0.241971 h 0.23159 v -0.231433 h 0.47821 v -0.236722 h 0.23159 v 0.236722 h 2.3666 v -0.236722 h 1.18321 v 0.236722 h 0.47341 v -0.236722 h 0.94641 v -0.241971 h 0.71 v -0.231434 h 0.38906 0.55755 v -0.236621 h 0.47861 v 0.236621 h 1.88801 v 0.231434 h 0.4734 v 0.241971 h 0.23641 v 0.468055 h 0.7096 v -0.231373 h 0.2364 v -0.236462 h 0.23701 v -0.241871 h 1.1832 v 0.241871 h 0.47341 v 0.236722 h 0.23119 v 0.231433 h 0.24221 v 0.241971 h 0.2364 v 0.468095 h 0.23641 v 0.241871 h 0.2364 v 0.236682 h 0.4734 v 0.231433 h 0.47341 v 0.241931 h 0.7096 v 0.231433 h 0.23159 v 0.236622 h 0.47862 v 0.473304 h 0.23119 v 0.236722 h 0.94661 v -0.236722 h 1.18341 v 0.236722 h 0.47861 v 0.241811 h 0.47341 v 0.236682 h 0.70479 v 0.236722 h 0.2364 v 0.142042 0.09476 h 1.18261 v 0.231434 h 1.41981 v -0.231434 h 0.47862 v -0.236621 h 0.9414 v -0.236723 h 3.55461 v -0.236621 h 1.18342 v -0.241811 h 0.46799 v -0.236722 h 0.71542 v -0.236622 h 0.70499 v -0.236682 h 0.4718 v -0.236622 h 1.66243 v 0.236622 h 0.705 v -0.236622 h 2.83898 v -0.231433 h 0.7102 v 0.231433 h 1.18361 v 0.236622 h 0.94661 v 0.236682 h 0.9416 v 0.236622 h 0.24121 v -0.236622 h 0.2358 v -0.236682 h 0.7048 v -0.236622 h 0.47701 v 0.236622 h 2.1306 v -0.236622 h 0.71 v 0.236622 h 1.41521 v 0.236682 h 0.4734 v 0.236622 h 0.24121 v 0.236722 h 0.23059 v 0.241811 h 0.2358 v 0.236621 h 0.24121 v 0.236723 h 1.88841 v -0.236723 h 0.95222 v 0.236723 h 0.4734 v 0.468055 h 0.2306 v 0.236622 h 0.2358 v 0.236682 h 0.2358 v 0.236621 h 1.66062 v -0.236621 h 0.4738 v -0.236682 h 0.468 v -0.236622 h 0.2358 v -0.231434 h 0.47861 v -0.236621 h 0.23059 v -0.236723 h 0.2358 v -0.236722 h 1.65722 v -0.24181 h 0.2358 v -0.236722 h 0.7098 v 0.236722 h 0.2358 v 0.24181 h 0.47341 v 0.236722 h 1.18341 v -0.236722 h 0.4738 v -0.24181 h 0.71001 v -0.236722 l 1.1786,-0.03185 v -0.205128 h 1.18201 v -0.236722 h 1.42562 v -0.236622 h 1.18341 V 75.71018 h 0.23059 v 0.231433 h 0.24041 v 0.236622 h 0.4686 v -0.236622 h 0.24121 V 75.71018 h 0.93979 v -0.241871 h 0.24121 v 0.241871 h 0.7052 v -0.241871 h 0.54172 0.17029 v -0.231433 h 1.18341 v -0.236627 h 2.12954 v -0.241931 h 0.2358 v -0.231433 h 0.4734 v -0.236622 h 0.24121 v -0.241971 h 0.468 v 0.478553 h 0.2358 v 0.473344 h 0.2358 v 0.236622 h 0.24121 v 0.231473 h 0.70439 v 0.241811 h 0.71021 v 0.231433 h 0.24121 v 0.236622 h 1.18261 v -0.236622 h 0.23059 v 0.236622 h 0.2358 v 0.236722 h 0.2358 v 0.715175 h 0.2358 v 0.236722 h 0.2358 v 0.473304 h 0.23861 v 0.231373 h 0.23059 v 0.473304 h 0.24121 v 0.236622 h 0.2358 v 0.236682 h 0.2358 v 0.236682 h 0.2358 v 0.709946 h 0.24121 v 0.709966 h -0.24121 v 0.236622 h -0.2358 v 0.236762 h -0.4734 v 0.236722 h -0.24121 v -0.236722 h -0.468 V 80.91135 h -0.2358 v -0.236622 h -0.7096 v -0.236682 h -0.47281 v -0.236622 h -0.2358 v -0.236722 h -0.70499 V 79.72802 h -0.47862 v -0.236722 h -0.4738 v -0.236622 h -1.88841 v -0.236682 h -3.08061 v 0.236682 h -1.65702 v 0.236622 h -0.2358 v 0.236722 h -0.4738 v 0.236682 h -0.23059 v 0.236722 h -0.24121 v 0.236622 h -0.2358 v 0.236682 h -0.2306 v 0.236622 h -0.24121 v 0.473304 h -0.4734 v 0.473304 h -0.468 v 0.236621 h -0.24121 v 0.473184 h -0.23059 v 0.473304 h -0.24121 v 0.236622 h -0.23059 v 0.236682 h -0.2386 v 0.236622 h -0.94641 v -0.236622 h -1.18381 v 0.236622 h -0.47281 v 0.236722 h -0.2358 v -0.236722 h -0.71461 v 0.236722 h -0.23059 v 0.236622 h -0.47381 v 0.236722 h -0.47861 v 0.473304 h -0.23059 v 0.946588 h 0.23059 v 0.473304 h -0.46799 v 0.236622 h -0.47341 v 0.473304 h -0.4734 v 0.473304 h -0.47381 v 0.236682 h -0.4734 v -0.236682 h -0.47861 v 0.236682 h -0.2306 v 0.236622 h -0.4718 v 0.941319 h -0.2358 v 0.241971 h -0.24121 v 0.236622 h -0.46278 v 0.236722 h -0.24121 v 0.236682 h -0.23861 v 0.236682 h -0.472 v 0.236622 h -0.23059 v 0.236682 h -0.24121 v 0.236622 h -0.2358 v 0.236676 h -0.47341 v 0.236622 h -0.70499 v 0.236728 h -0.71542 v 0.236674 h -1.41901 v 0.236728 h -0.7048 v 0.236676 h -0.24121 v 0.236622 h -0.71 v -0.236622 h -0.23059 v -0.473298 h -0.24121 v -0.236303 h 0.24121 V 90.61448 h 0.23059 v -1.18325 h -0.23059 v -0.478553 h -0.24121 v -0.468055 h -0.2358 v -0.473304 h -0.2306 v -0.473304 h -0.24121 v -0.709806 h -0.23059 v -0.709906 h -0.24121 v -0.473344 h -0.23059 v -0.226184 l -0.24642,-0.0106 v -0.236622 h -0.93979 V 84.93487 h -0.47862 v -0.236682 h -0.23059 v -0.236722 h -0.4734 v -0.236622 h -0.47381 V 83.988162 H 644.7219 V 83.75138 h -0.23059 v -0.236622 h -0.47341 v -0.236722 h -0.47861 v -0.236562 h -0.705 v -0.236682 h -0.71 V 82.56817 h -0.71382 v -0.236622 h -1.415 v -0.236722 h -0.4738 v 0.236722 h -0.70981 v 0.236622 h -0.4736 v 0.236622 h -0.47862 v 0.236682 h -0.23159 v 0.236622 h -0.4734 v 0.236722 h -0.95062 v -0.236722 h -0.705 v 0.236722 h -1.89361 V 83.7515 h -0.71021 v -0.236682 h -0.237 v -0.236722 h -0.237 v -0.236622 h -0.47341 v 0.236622 h -0.237 v 0.236722 H 631.239 V 83.7515 h -0.47341 v 0.236682 h -0.94701 V 83.7515 h -1.18341 v 0.236682 h -0.237 v 0.236622 h -0.23159 v 0.236682 h -0.47341 v 0.236722 h -0.24221 v 0.236622 h -0.237 v 0.236682 h -2.60246 v 0.236622 h -1.42001 v 0.473304 h -0.2316 v 0.236722 h -0.24221 v 0.236682 h -0.22678 v 0.236622 h -0.47281 v 0.236682 h -0.7096 v 0.236622 h -0.24221 v 0.236722 h -0.2316 v 0.236682 h -0.47821 v 0.236682 h -0.23159 v 0.236722 h -0.24161 v 0.709946 h -0.2316 v 0.709926 h -0.4734 v 0.236722 h -0.47861 v -0.236722 h -0.47341 v -0.478653 h -0.23119 v -0.704717 h 0.23119 v -0.236722 h 0.24221 v -0.236622 h 0.2316 v -0.236722 h 0.24221 V 87.30133 h 0.2364 v -0.236682 h 0.47341 v -0.236682 h 0.23159 v -0.473404 h 0.24221 v -0.08935 -0.14725 h 0.23119 V 85.88124 h 0.23701 v -0.236622 h 0.24181 v -0.236722 h 0.23159 v -0.236622 h -0.941 v -0.236105 h -0.4734 v -0.236723 h -0.47341 v -0.236621 h -0.2364 v -0.236682 h -0.24221 v -0.236622 h -0.4734 v -0.236723 h -0.2316 v -0.236722 h -0.2364 v -0.236918 h -0.47316 v -0.236622 h -1.42542 v -0.236682 h -0.941 v 0.236682 h -0.24221 v 0.236622 h -0.2316 v 0.236682 h -0.24221 v 0.473344 h -0.46799 v 0.236622 h -0.71522 v 0.236722 h -0.46799 v 0.473304 h -0.23641 v 0.473304 h -0.237 v 0.383872 0.799358 h 0.237 v 0.236722 h -0.237 v 0.236622 h 0.237 v 0.709926 h -0.237 v 0.236622 h -0.4734 v 0.236722 h -0.24181 v 0.236682 h -0.2316 v 0.236622 h -0.2364 v 0.709926 h -0.237 v 0.236682 h -0.2364 v 0.236622 h -0.24181 v 0.236682 h -0.468 v 0.946578 h 0.94641 v 0.236621 h 0.4734 v 0.473298 h 0.2316 v 0.236674 h 0.24221 v 0.236676 h -0.24221 v 0.236622 h -0.468 v 0.236728 h -0.71501 v -0.236728 h -0.9414 v -0.236622 h -0.24181 v -0.236676 h -0.23159 v -0.473296 h -0.2316 v -0.236676 h -0.24221 v -0.473243 h -0.4734 V 90.61447 h -0.23641 v -0.236682 h -0.23159 v -0.236622 h -0.47861 v -0.236622 h -0.2364 V 89.667922 H 606.163 V 89.4312 h -0.71 v -0.236622 h -0.47341 V 88.952607 H 604.512 v -0.231373 h -0.71522 v 0.231373 h -1.18321 v -0.231373 h -0.2364 v -0.236682 h -0.475 V 88.24787 h -0.71021 v -0.236723 h -1.178 v -0.236682 h -1.18301 v -0.236682 h -0.71001 v -0.236622 h -1.18341 v -0.236682 h -0.24221 v 0.236682 h -0.4734 v 0.236622 h -2.59742 v -0.236622 h -0.7098 v -0.236682 h -0.71522 v 0.236682 h -0.46799 v -0.236682 h -0.2364 v 0.236682 h -0.71001 v 0.236622 h -0.71 v 0.236682 h -0.24222 v 0.473344 h -0.23159 v 0.236622 h -0.24161 v 0.468055 h -0.23159 v 1.188499 h -0.2364 v 1.656512 h 0.2364 v 0.473298 h -0.2364 v 0.70995 h -0.23641 v 0.473298 h -0.2364 v 0.236674 h -0.71 v 0.231481 h -0.23641 v -0.231481 h -0.9466 v 0.231481 h -0.23641 v 0.241923 h -0.2364 v 0.709966 h -0.2364 v 0.236674 h -0.46799 v 0.236674 h -3.55524 v -0.236674 h -3.54959 v 0.236674 h -0.47341 v 0.236622 h -0.71 v 0.231427 h -0.71001 v 0.236622 h -0.49143 v 0.241975 h -1.65662 v -0.241975 h -0.71 v 0.241975 h -0.2316 v 0.236674 h -0.4728 v 0.231375 h -0.24221 v 0.241975 h -0.23159 v 0.236622 h -0.23645 v 0.231375 h -0.24181 v 0.951831 h 0.24181 v 0.473298 h -0.24181 v 1.656529 h -0.23159 v 0.46805 h -0.24221 v 0.47335 h 0.24221 v 0.70991 h -0.24221 v 0.23673 h -0.71001 v 0.24192 h -0.23159 v 1.65127 h -0.24161 v 0.23673 h -0.468 v 0.23662 h -0.2364 v 0.23673 h -0.71 v 0.23662 h -0.71001 v 0.23668 h -2.60288 v 0.23662 h -1.18341 v 0.23668 h -0.95182 v 0.23672 h -3.54604 v -0.23672 h -1.42001 v -0.23668 h -0.2364 v -0.23662 h -0.23641 v -0.23668 h -0.9462 v -0.23662 h -0.2364 v -0.23673 h -0.2316 v -0.47329 h 0.2316 v -0.4733 h 0.2364 v -0.23667 h 0.237 v -1.41992 h -0.237 v -0.70991 h -0.2364 v -0.70473 h -0.2316 v -0.47849 h -0.24161 v -0.468045 h -0.2364 V 99.36544 h -0.2364 v -0.231427 h -0.237 V 97.70899 h -0.7048 v -1.177983 h 0.23159 v -0.352336 -0.594263 h 0.24161 v -0.709976 h 0.2316 v -0.710085 h 0.2364 v -0.241922 h 0.2364 v -1.887919 h -0.47341 v 0.236674 h -0.23119 v 1.183226 h -0.4734 v 0.236728 h -0.95182 v 1.419895 h -0.23099 v 0.473296 h -0.24221 v 0.231428 h -0.2364 v 0.236621 h -0.23641 v 0.478545 h -0.46799 v 0.231321 h 0.9414 v 0.69944 0.247224 h -0.237"
	/>
	<path
		id="utila" 
		name="Utila"
		d="m 22.233005,385.17126 v 0.24201 h 0.242212 v 0.71001 h -0.242212 v 0.23139 h -0.704396 v 0.2366 h -0.710006 v 0.24201 h -0.473404 v 0.23661 h -2.135207 v -0.23661 h -0.231594 v -0.47841 h 0.231594 v -0.23139 h 0.478613 v -0.24201 h 0.236401 v -0.2366 h 0.236402 v -0.2314 h 0.473404 v 0.2314 h 0.231593 v -0.2314 h 0.242212 v -0.24201 h 2.124348 m 10.654358,-5.67424 h -0.242211 v 0.2366 h -0.709606 v 0.23661 h -0.473404 v 0.23139 h -0.473404 v 0.24201 h -0.236402 v 0.2366 h -0.473404 l 0.0053,0.2366 h -0.478624 v 0.10017 0.13624 h -0.467995 v 0.2366 h -0.24161 v 0.2366 h -0.941399 v -0.2366 h -1.425021 v 0.2366 h -0.946608 v -0.26826 l -0.378442,0.005 -1.03596,0.026 0.0053,-0.27888 -1.667232,0.0421 v -0.2366 h -0.704797 l 0.0106,-0.2366 h -1.666631 v 0.2366 h -0.710006 v -0.2366 h -0.241611 v -0.2366 h -0.231593 v -0.4732 h -0.236395 v -0.47321 h -0.236401 v -0.23572 h -0.236402 v -0.78874 -0.15827 l -0.242211,-0.0621 v -0.1743 l -0.231594,-0.0381 v -0.43675 h -0.473404 v -0.7096 h -0.236401 v -0.2366 h -0.241611 v -0.2366 H 16.796551 V 376.183 h -0.236402 v -0.24201 H 16.323748 V 375.473 h -0.709806 v -0.24201 H 15.382349 V 375.473 H 15.1772 14.903736 l 0.0106,-0.24722 -0.725633,0.005 v -0.2314 h -0.231192 v -0.2366 h -0.473405 v -0.2366 h -0.941399 v -0.2366 h -0.478613 v -0.2366 h -1.419611 v 0.2366 h -0.467995 v -0.2366 H 9.934277 v -0.23661 H 9.702683 v -0.2366 H 9.224068 v -0.2366 H 8.750664 v -0.2366 h -1.18321 v -0.2366 H 6.862857 v -0.23661 H 6.152851 v -0.2366 H 5.437837 v -0.2366 H 4.728031 v -0.2366 H 4.023234 v -0.2366 H 3.071417 v 0.2366 H 2.598013 v -0.2366 H 0.704597 v -0.2366 H 0.473404 v -0.23661 H 0.231193 v -0.2366 H 0 v -0.89412 -0.76249 h 0.231193 v -0.2366 h 0.242211 v -0.47321 h 0.231193 v -0.7098 h 0.242211 v -0.47341 H 0.704597 v -0.2366 H 0.473404 v -1.18321 H 0.231193 v -0.4732 H 0 v -2.36644 h 0.231193 v -1.178 h 0.242211 v -0.47862 h 0.231193 v -0.2366 h 0.242211 v -0.46799 H 1.18321 v -0.24202 h 0.231593 v -0.2366 h 0.242212 v -0.23139 h 0.231192 v -0.24201 h 0.242212 v -0.2366 H 2.36682 v -0.2314 h 0.473404 v -0.24201 h 0.231594 v -0.23139 h 0.473404 v -0.2366 h 0.236402 v -0.24201 h 0.24161 v -0.2314 h 0.231593 v -0.2366 h 0.473404 v -0.2366 h 0.242212 v -0.2366 h 0.231193 v -0.2362 h 0.237002 v -0.47341 h 0.241611 v -0.2366 h 0.231593 v -0.2366 h 0.24161 v -0.2366 h 0.231594 v -0.2366 h 0.478613 v -0.23661 l 0.231593,-0.022 v -0.21577 h 0.242212 v -0.2366 h 0.231593 v -0.2366 h 0.236402 v -0.23661 h 0.473404 v -0.2366 h 0.24161 v -0.2366 h 0.941599 v -0.2366 h 0.715215 v -0.2366 h 0.704798 v 0.2366 h 0.236401 v 0.2366 h 0.24161 v 0.2366 h 0.467995 v 0.2366 h 0.473405 v 0.23661 h 1.420012 v -0.0681 -0.16829 l 1.662023,-0.022 v -0.21577 h 0.231593 v -0.2366 h 0.236402 v -0.47321 h 0.236401 v -0.2366 h 0.237003 v -0.4732 h 0.236401 v -0.94661 H 16.32493 v -0.94661 h 1.183009 v 0.2366 h 0.473404 v -0.2366 h 0.231594 v -0.2366 h 0.478613 v -0.2366 h 0.946608 v 0.2366 h 0.231192 v 0.2366 h 0.951817 v -0.2366 h 0.231594 v -0.4734 h 0.478613 v -0.23661 h 0.236401 v -0.24201 h 0.467594 v -0.23139 h 0.715215 v -0.2366 h 0.710006 v -0.2366 h 0.941399 v -0.23661 h 0.473405 v -0.2366 h 0.24161 v -0.2366 h 0.941399 v -0.2366 h 0.472963 v -0.2366 h 0.478213 v -0.2366 h 0.231593 v -0.23661 h 0.473404 v -0.2366 h 0.951817 v 0.2366 h 0.231193 v 0.94661 h -0.231193 v 0.71001 h 0.231193 v 0.4734 h 0.242211 v 0.23139 h 0.467995 v 0.22639 l 0.473404,0.0481 v 0.20515 H 30.7546 v 0.2366 h 2.134787 v -0.2366 h 0.152258 0.104177 1.157166 v -0.2366 h 0.946608 v -0.24201 h 0.710006 v -0.2314 h 0.231593 v -0.2366 h 0.24161 v -0.2366 h 0.236402 v -0.2366 h 0.715415 v -0.2366 h 0.704196 v -0.23661 h 0.9414 v -0.2366 h 0.24161 v -0.2366 h 0.236401 v -0.2366 h 0.237003 v -0.2366 h 0.236402 v -0.23661 h 0.231593 v -0.2366 h 0.24161 v -0.4724 h 0.236402 v -0.4734 h 0.236402 v -0.71001 h 0.237002 v -0.71001 h 0.231193 v -0.7098 h -0.231193 v -1.18301 h -0.237002 v -0.468 h -0.473405 v -0.24201 h -0.599618 -0.583792 v -0.2366 h -0.242211 v -0.2366 h 0.242211 v -0.23139 h 0.236402 v -0.24202 h 0.473404 v -0.2366 l 0.473404,-0.0521 v -0.18431 h 0.284083 1.372731 v 0.2366 h 0.940999 v -0.2366 h 0.24161 v -0.94621 h -0.24161 v -0.4732 h 0.24161 v -0.2366 h 0.236402 v -0.23139 h 0.237002 v -0.24202 h 0.236402 v -0.2366 h 0.231593 v -0.23139 h 0.241611 v -0.24201 h 0.231593 v -0.2366 h 0.24161 v -0.2314 h 0.467995 v -0.24201 h 0.951817 v -0.2366 h 0.473404 v -0.23139 h 1.18321 v -0.24201 h 1.18301 v 0.24201 h 1.251726 1.109685 v -0.24201 h 0.478613 v 0.24201 h 0.704797 v 0.23139 h 0.473404 v 0.2366 h 1.183005 v 0.24201 h 0.23641 v 0.468 h -0.23641 v 0.95181 h 0.23641 v 0.2314 h 0.4734 v 0.2366 h 0.24161 v 0.2366 h 0.23159 v 0.2366 h 0.47341 v 0.23661 h 0.237 v 0.24201 h 0.4734 v 0.2366 h 0.71001 v 0.23139 h 0.94661 v 0.2366 h 1.89301 v 0.23661 h 0.47341 v 0.15225 0.0902 h 0.35781 1.5356 v 0.23139 h 0.94661 v 0.2366 h 1.65642 v 0.2366 h 0.9414 v 0.24202 h 0.95181 v -0.24202 h 0.47341 v -0.2366 h 0.4734 v -0.2366 h 0.9414 v -0.23139 h 0.47821 v -0.24201 h 0.2364 v -0.23661 h 0.2364 v -0.2366 h 0.2316 v -0.23139 h 0.24161 v -0.4103 -0.0681 l 0.24221,0.0421 -0.0106,-0.51548 h -0.23159 v -0.94661 h 0.71 v 0.24202 h 0.2316 v 1.1201 0.29971 h 0.24161 v 0.2366 h 0.23159 v 0.23139 h 0.47861 v 0.2366 h 0.47341 v -0.2366 h 0.23159 v -0.94661 h -0.23159 l -0.022,-0.28388 -0.21036,0.0842 -0.0106,-0.51007 h -0.2312 v -0.23119 h -0.237 v -0.95182 h 0.468 v -0.2366 h 0.4734 v -0.2314 h 0.95182 v -0.24201 h 1.4142 v -0.2366 h 0.4734 v -0.23139 h 0.71001 v -0.24201 h 0.24161 v -0.2314 h 0.4734 v -0.2366 h 0.468 v -0.24201 h 0.4734 v -0.23139 h 0.94661 v -0.2366 h 0.71001 v -0.24201 h 1.65621 v 0.24201 h 0.2364 v -0.24201 h 0.47341 v -0.2314 h 0.24221 v 0.2314 h 0.77832 0.86767 v -0.2314 h 1.66143 v 0.2314 h 3.31334 v 0.24201 h 0.94601 v 0.2366 h 1.18301 v 0.23139 l 1.23049,-0.0481 -0.0481,0.28929 h 0.23159 v 0.2366 h 0.40489 0.30532 l -0.022,0.25263 0.26285,-0.022 v -0.23139 h 0.71 v 0.23139 h 0.7046 v 0.24202 h 0.4734 v 0.23139 h 0.47822 v 0.2366 h 0.70459 v 0.24201 h 0.24221 v 0.23139 h 0.468 v 0.23661 h 0.24221 v 0.24201 h 0.23159 v 0.23139 h 0.47341 v 0.2366 h 0.237 v 0.24201 h 0.24161 v 0.468 h 0.23159 v 0.2366 h 0.24222 v 0.2366 h 0.23119 v 0.2366 h 0.2364 v 0.47862 h 0.242212 v 0.94661 h -0.242212 v 0.46799 h -0.2364 v 0.2366 h -0.23119 v 0.24201 h 0.23119 v 1.178 h 0.2364 v 0.23661 h 0.242212 v 1.18321 h -0.242212 v 0.24201 h -0.2364 v 1.4148 h -0.23119 v 0.2366 h -0.24222 v 0.2366 h -0.23159 v 0.23661 h -0.24161 v 0.71 h -0.237 v 0.47341 h -0.47341 v 0.2366 h -0.23159 v 0.2366 h -0.24221 v 0.2366 h -0.23159 v 0.2366 h -0.23641 v 0.23661 h -0.4734 v 0.23139 h -0.4734 v 0.24201 h -0.47822 v 0.2366 h -0.23159 v 0.2366 h -0.4734 v 0.23661 h -0.24141 v 0.2366 h -0.2316 v 0.2366 h -0.47861 v 0.2366 h -0.4734 v 0.23139 h -0.2316 v 0.24202 h -0.2364 v 0.2366 h -0.24221 v 0.2366 h -0.23159 v 0.23139 h -0.24222 v 0.24201 h -0.23159 v 0.47341 h -0.2364 v 0.4734 h -0.2364 v 0.2366 h -0.2364 v 0.47341 h -0.24221 v 1.41981 h 0.24221 v 0.71 h -0.24221 v 0.94661 h 0.47861 v 0.2366 h 0.2364 v 0.23661 h 0.2364 v 0.4732 h 0.23159 v 0.4682 h 0.24162 v 0.24201 h 0.19433 l 0.0381,0.46799 h -0.23159 v 0.24201 h -0.0741 -1.10968 v 0.2314 h -0.24161 v 0.71 l 0.95181,0.022 v 0.93078 h -0.2364 v 0.23139 h -0.2364 v 0.23661 h -0.2364 v 0.24201 h -0.20034 -0.98307 v 0.23139 h -0.24221 v 0.2366 h -0.2316 v 0.2366 h -0.24161 v 0.24201 h -0.23159 v 0.468 h -0.2364 v 0.4732 h -0.2364 v 0.23661 h -0.47862 v 0.2366 h -0.46799 v 0.2366 h -0.2364 v 0.2366 h -0.47433 v 0.2366 h -0.7048 v 0.24201 l -0.2364,-0.005 v 0.23661 h -1.18301 v -0.12021 -0.11619 h -0.48402 -0.23159 l -0.0159,-0.23661 h -0.21577 l -0.026,-0.2366 h -0.68376 v 0.2366 h -0.94661 v -0.4734 h 0.24161 v -0.4732 h 0.23159 v -0.23661 l 0.21577,0.022 0.022,-0.49424 h 0.237 v -0.2366 h 0.2364 v -0.4732 h -0.2364 v -1.65642 h -0.237 v -0.71 h -0.2364 v -0.2314 h -0.2312 v -0.47861 h -0.24221 v -0.4732 h -0.2364 v -0.23661 h -0.4734 v -0.23139 h -0.47341 v -0.24201 h -0.23253 v -0.23139 h -0.24221 v -0.2366 h -0.23641 v -0.24202 h -0.23159 v -0.23139 h -0.24161 v -0.2366 h -1.4148 v -0.2366 h -0.47341 v 0.2366 h -1.42522 v -0.2366 h -0.2364 v 0.2366 h -0.7048 v 0.2366 h -0.4734 v 0.23139 h -0.70961 v 0.24202 h -1.18341 v -0.94681 h -2.13008 v -0.23661 h -1.18341 v 0.23661 h -0.4734 v 0.2366 h -0.94621 v 0.2366 h -0.2364 v -0.2366 h -1.18341 v 0.2366 h -1.18321 v 0.23139 h -0.2364 v 0.47862 h 0.2364 v 0.4734 h 0.2316 v 0.23139 h 0.47861 v 0.23661 h 0.2364 v -0.23661 h 0.46799 v -0.23139 h 0.24222 v -0.24201 h 1.4148 v 0.24201 h 1.42482 v -0.24201 h 1.18321 v 0.24201 h 0.9414 v 0.468 h -0.23159 v 0.4732 h -0.47862 v 0.2366 h -0.23159 v 0.24201 h -0.24161 v 0.2314 h -0.2316 v 0.2366 h -0.2364 v 0.2366 h -0.24221 v 0.47861 h -0.4734 v 0.2314 h -0.2316 v 0.2366 h -0.4734 v 0.24201 h -0.2364 v 0.23139 h -0.24161 v 0.2366 h -0.2316 v 0.23661 h -0.2364 v 0.4732 h -0.71541 v 0.2366 h -0.7048 v 0.2366 h -0.2364 v 0.2366 h -1.18341 v -0.473 h 0.71001 v -0.2366 h 0.2364 v -0.23139 h 0.2364 v -0.24201 h 0.237 v -0.23661 h 0.23119 v -0.2366 h 0.24222 v -0.23139 h 0.4734 v -0.47861 h 0.2364 v -0.2314 h -0.2364 v -0.71521 h -0.4734 v -0.2366 h -0.94661 v 0.2366 h -0.71001 v 0.2366 h -0.71 v 0.2366 h -0.24222 v 0.24201 h -0.23159 v 0.2314 h -0.4734 v 0.2366 h -0.47281 v 0.24201 h -0.71 v 0.23139 h -0.47341 v 0.2366 h -0.71 v 0.23661 h -1.41461 v 0.24201 h -0.47861 v 0.23139 h -0.2364 v 0.2366 h -0.2364 v 0.2366 h -0.2316 v 0.23661 h -0.24161 v 0.2366 h -0.2364 v 0.4734 h -0.23734 v 0.70981 h 0.237 v 0.2366 h 0.47821 v 0.2366 h 1.65141 v -0.2366 h 0.2364 v -0.47321 h 0.9414 v -0.2366 h 1.42522 v 0.2366 h 0.2364 v 0.94661 h -0.2364 v 0.2366 h -0.23119 v 0.23661 h -0.24221 v 0.2366 h -0.2364 v 0.2366 h -0.23641 v 0.2366 h -0.237 v 0.2366 h -0.4734 v 0.23661 h -0.2364 v 0.20034 l -0.22579,0.0741 -0.0106,0.20034 -0.48923,-0.032 0.0159,0.26825 h -0.2364 v 0.23661 h -0.2316 v 0.2366 h -0.24161 v 0.2366 h -0.237 v -0.2366 h -0.4734 v 0.2366 h -0.70961 v 0.2366 h -0.237 v 0.2366 h -0.468 v 0.23661 h -0.4734 v 0.2366 h -1.42522 v 0.2366 h -0.4734 v 0.2366 h -0.468 v 0.2366 h -0.4734 v 0.2366 h -0.47862 v 0.23661 h -1.182204 v 0.2366 H 51.57116 l 0.01591,-0.20034 -0.489231,-0.0381 v 0.20034 l -0.710006,0.0381 v 0.20034 l -0.220976,0.0741 -0.0106,0.20034 h -0.242211 v 0.23661 h -0.472803 v 0.2366 h -0.231715 v 0.2366 h -0.236401 v 0.2366 h -0.242212 v 0.2366 h -0.472803 v 0.23661 h -0.467995 v 0.4732 h -0.24161 v 0.2366 H 46.84391 v 0.2366 H 45.6605 v 0.2314 h -1.18341 v -0.2314 h -1.992785 -0.846638 l 0.0106,0.27347 -0.957226,-0.0421 v 0.24201 h -0.478613 v 0.2366 h -0.467995 v 0.23139 h -0.236402 v 0.24201 h -0.710006 v 0.23661 h -0.472803 v 0.2366 h -0.236404 v 0.2366 h -0.704396 v 0.23139 h -0.478613 v 0.24201 h -0.473404 v 0.23661 h -0.473404 v 0.2366 h -0.473404 v 0.2366 h -0.236402 v 0.2366 h -0.473404 v 0.2366 h -0.473404 v 0.23661 h -0.941399 v 0.2366 h -0.242212 v 0.2366 h -0.231593 v 0.2366"
	/>
</svg>
