<svg xmlns="http://www.w3.org/2000/svg" viewbox="0 0 1000 705" aria-label="Map of Romania">
	<path d="M373.8 546.1l0.8 3.5 0.1 1.2 0.5 1.3 0.8 1.1 1.9 1.1 1.6 0.7 3.5 2.2 1 0.9 1 1.3 2.1 7.3 1.3 2.3 1.7 2.6 3 3.1-4 4.7-1.4 2.6-0.1 2.2 0.4 1.1 0.9 1 4.2 2.5 1.2 1.2 2.8 4 0.8 1 2.3 0.6 1.3 0.7 1.5 1.6 1.4 2.9 1.2 1.9 1.3 1.4 2.4 1.9 1 1.2 1.8 3.9 1.1 1.6 1.1 1.3 3.8 2.5 2.7 1 1.2 0.9 2 2.1 0.6 1.4 0 1.2-0.9 2.1-0.2 1.9 0.2 2.2 0.8 3.6 2.2 4 0 0.9-0.7 0.3-3.6-0.7-1 0.1-1.1 1.1-0.1 2.5-1.1 5 0.2 0.9 0.6 0.9 1.8 0.7 3.3 0.2 1.4 0.3 1.4 1.2 0.5 1.4 0.2 1.5-0.2 1.3-0.4 0.9-2 1.2-1 0.7-0.5 1.3 0.2 1.2 1.5 2.5 0.3 1.2-0.2 1-1.3 4-0.6 1-1.5 1.1-0.3 0.7-0.3 1.7-0.5 0.8-1.9 1.5-0.7 1.1-5.8 12.3-36.9-9.3-6-3.6-2.4-0.4-8.9 2-4.6-0.8-11.4-6.3-16.8-0.9-9.6 1.4-3.9 2.1-3.7 0.8-3.2 1.4-22.4 2-3.3-0.8-2.6-2.3-1.3-2.8-0.1-3.3 2.6-11 1.1-3.3 2.1-1.4 2.2-0.3 4.2-1.4 2.3-0.3 3.7-2.1 1.8-4.5-1-4.5-2.3-1.1 8.6-9.1 3.3-0.9 1.1 0.2 0.8-0.5 0.4-1.8 0-1.7-0.3-1.8-0.7-2.4-0.2-1.9 0.3-1.7 2.2-4.8 0.3-1.2 0.5-3.7 0.5-2.6 0.6-1.9 0.9-1.3 5.6-3.2 1.4-0.2 2.1 0.4 0.6-0.2 0.2-1-0.3-0.8-1.4-1.1-3.3-0.4-1.2-0.3-0.8-0.6-0.4-1 0-1 0.8-3.2 0.2-1.2 0.4-0.8 0.8-0.8 2.1-0.7 1.6-0.8 1.4-1.6 1.4-2.1 2.3-2 0-0.6-2.4-0.9 0.4-0.5 1.4-0.7 6.6-0.4 1.3-0.9 1.7-0.7 2.6-0.6 5.8 0.3 1.5-1.7 9.7-6.8 10-3.2 5-0.3 0.9-0.6 0.5-0.8 0-2.2-0.4-2.7 0.4-2.2 0.1-1.7-0.5-3.8 0.3-2.2 0.5-0.6 1.3-0.1 1.4 0.6 1 1.1z" id="dj" name="Dolj">
	</path>
	<path d="M373.8 546.1l-1-1.1-1.4-0.6-1.3 0.1-0.5 0.6-0.3 2.2 0.5 3.8-0.1 1.7-0.4 2.2 0.4 2.7 0 2.2-0.5 0.8-0.9 0.6-5 0.3-10 3.2-9.7 6.8-1.7-3.6-1.1-1.5-5.9-5.9-6.8-4.7-2.5-1.1-18.3-5.3-2-1-2.4-1.7-8.1-7.7-9.4-10.7-0.7-1.7-0.3-1.6-0.4-3.2-1-4-0.2-2.7 0.5-2.5 0.5-1.3 0-1.3-0.5-1.3-1.3-1.3-2.7-1.7-1.7-1.6-1.2-1.4-0.8-1.3-1-1-1.3-0.6-2-0.3-5 0.6-1.6-0.4-1.9-1-4.6-5.9-4.1-1.9 0.6-3.2-0.6-1.2-0.7-0.9-1-0.3-4-0.2-1.3-0.5-0.9-0.7-0.4-1.2 0.2-1.5 0.9-2.1 3-4 7.2-6.4 22.4-8.2 1.1-0.2 1.4 0.7 0.7 1 1 0.8 1.2 0.4 4.6 0.3 0.9 0.4 1.7 1.6 1.1 0.4 1.6-0.1 6.8-2.9 2.6-0.2 1.6 0.2 3.2 1.5 1.3 0 1.7-0.4 5.7-3.5 1.7-0.6 4.7-1 3.6-1.8 2-0.6 2.7 0.1 1.6 0.4 1.5 0.8 1.9 1.4 0.9 0.1 1.1-0.4 1.8-1.5 6-3.3 6.6-2.2 3.2 1 5.1 0 1.2 0.4 2 1.1 1.6 0.3 1.9 0.1 6.5-0.7 1.8 0.4 1.8 1.4 0.8 1.2 0.5 1.7-1.4 5.8-0.2 2.9 0.8 4.1 1.1 2.7 0.5 2.1-0.2 1.8-1.7 5-0.4 2.2 0.4 5.1-0.1 2-2.9 11.7-1.2 3.3-0.5 2-0.2 2.9 1.5 17.1-0.4 7.9-1.5 8.6z" id="gj" name="Gorj">
	</path>
	<path d="M343.6 571.6l-1.5 1.7-5.8-0.3-2.6 0.6-1.7 0.7-1.3 0.9-6.6 0.4-1.4 0.7-0.4 0.5 2.4 0.9 0 0.6-2.3 2-1.4 2.1-1.4 1.6-1.6 0.8-2.1 0.7-0.8 0.8-0.4 0.8-0.2 1.2-0.8 3.2 0 1 0.4 1 0.8 0.6 1.2 0.3 3.3 0.4 1.4 1.1 0.3 0.8-0.2 1-0.6 0.2-2.1-0.4-1.4 0.2-5.6 3.2-0.9 1.3-0.6 1.9-0.5 2.6-0.5 3.7-0.3 1.2-2.2 4.8-0.3 1.7 0.2 1.9 0.7 2.4 0.3 1.8 0 1.7-0.4 1.8-0.8 0.5-1.1-0.2-3.3 0.9-8.6 9.1-2.2-0.9-4.8-0.7-3.8-1.7-22.8-15.6-0.5-2.1 0.4-7.1-0.8-2-2-1-4.4-0.6-4.1-1.8-3.5-3.1-2.8-3.8-1.9-4.3-0.1-1.1 0.3-2.4-0.1-1.1-0.5-1-2.2-2.1-0.3-1.2 0-1.9 0.3-2 0.4-1.4 0.8-0.6 0.9-0.3 3.8-0.2 1.3-0.6 0.9-1.5 0.3-2.5 0.6-2.5 1.6-1.5 2.1-0.6 2.2 0 2.2 0.9 3.8 2.6 2.3 0.6 2.1-0.4 2.3-1.1 1.9-1.9 0.6-2.7-5.3-5.9-1.6-1.2-8.3-1-3.6-1.7-3.6-3-7.3-8.1-1.6-0.9-1.9-0.5-2.6-0.1-1.1 0.9-3.7 4.1-2 1.2-4.4 1-1.6 1.2-0.6 2.3-12 21.8-1.4 1.4-2.5 0.7-2.3-0.3-2.4-1-1.8-1.8-1.1-4.3-1-1-1.2-0.7-1.1-1.1-0.6-1.1-0.5-2.9 5.7-1 1.4 0.2 2.6 0.7 2.5-0.1 1.1-0.6 0.9-1 0.5-1.9-0.1-1.8-0.5-2.1-0.8-2.5-0.1-1.9 0.2-1.9 0.4-1.8 0.7-2.2 1.1-2.5 2.4-4.1 0.9-2.4 0.6-2 0-1.2 0.3-1 0.6-0.8 1.6-0.3 1.1 0.2 1 0.5 3.6 3.7 1.5 0.9 1.1 0.1 3.4-0.1 0.9 0.2 1.5 1.1 1.2 2.3 0.8 0.4 1.1 0.1 1.6-0.3 1.1-0.9 1.1-1.7 1-3.3 1.6-7.1 2.6-6.7 4.5-7.4 1.1-3.5 0.6-2.4 0.5-3.5 0.4-1.8 0.8-2.2 3.4-5.4 4.5-4.8 4.1 1.9 4.6 5.9 1.9 1 1.6 0.4 5-0.6 2 0.3 1.3 0.6 1 1 0.8 1.3 1.2 1.4 1.7 1.6 2.7 1.7 1.3 1.3 0.5 1.3 0 1.3-0.5 1.3-0.5 2.5 0.2 2.7 1 4 0.4 3.2 0.3 1.6 0.7 1.7 9.4 10.7 8.1 7.7 2.4 1.7 2 1 18.3 5.3 2.5 1.1 6.8 4.7 5.9 5.9 1.1 1.5 1.7 3.6z" id="mh" name="Mehedinți">
	</path>
	<path d="M443.7 527.1l1.2 3.6 0.7 0.6 1 0.3 0.9-0.4 4.3-3.6 0.7-0.9 1.4-3.6 1.2-1.7 0.9-0.6 1 0.2 0.5 0.8 0.3 1.2-0.3 2.7 0.1 1.7 0.8 2 4.7 9.9 1.2 1.6 2.1 2.1 1.7 0.5 1.7 0 1.6-0.4 1.9 0.2 0.8 0.6 0.5 0.8-0.6 0.9-1.9 0.8-0.9 0.7-0.9 1.6 0.3 1.4 2.6 4.3 0.8 2.3 0.5 3.3 0.2 1.8 1.1 3.8 1 6.7-0.1 1-0.6 1.9-0.1 2.6 1.3 4.9 0.4 6.5 0.6 2.3 0.7 1.2 1 0.7 5.1 0.4 2.3 1.6-1.4 3.4-0.2 3.8 0.9 6.5 0.3 7-0.3 3.3-1.2 5-0.1 3.9 0.2 2.5 0.5 2.2 0.2 2.8-0.7 1.3-1.3 0.9-3.6 0.7-1.4 0.5-1.2 0.9-3.1 3.4-1.1 0.6-1.5 0.4-1.8 0.1-1.8 0.6-1.9 1-2.2 3-0.6 2.1 0.1 2.8 3.2 8.4 3.8 7.6 4.5 7.6 0.6 2.2-0.2 1.1-0.9 0.8-3 1.5-1.4 1-1.2 1.2-2.3 3.1-17-6.4-3.6-0.5-3.7 1.2-5.9 4.5-1.8 0.5-21 1.1-1-0.3 5.8-12.3 0.7-1.1 1.9-1.5 0.5-0.8 0.3-1.7 0.3-0.7 1.5-1.1 0.6-1 1.3-4 0.2-1-0.3-1.2-1.5-2.5-0.2-1.2 0.5-1.3 1-0.7 2-1.2 0.4-0.9 0.2-1.3-0.2-1.5-0.5-1.4-1.4-1.2-1.4-0.3-3.3-0.2-1.8-0.7-0.6-0.9-0.2-0.9 1.1-5 0.1-2.5 1.1-1.1 1-0.1 3.6 0.7 0.7-0.3 0-0.9-2.2-4-0.8-3.6-0.2-2.2 0.2-1.9 0.9-2.1 0-1.2-0.6-1.4-2-2.1-1.2-0.9-2.7-1-3.8-2.5-1.1-1.3-1.1-1.6-1.8-3.9-1-1.2-2.4-1.9-1.3-1.4-1.2-1.9-1.4-2.9-1.5-1.6-1.3-0.7-2.3-0.6-0.8-1-2.8-4-1.2-1.2-4.2-2.5-0.9-1-0.4-1.1 0.1-2.2 1.4-2.6 4-4.7 4-2.5 2.5-0.6 1.2 0.2 2.1 1.2 0.8 1.1 1 1.7 0.8 0.7 0.8 0.1 1.3-0.6 3.3-4.8 1.1-1.2 1.3-0.7 1.1-0.2 1.4 0 2.5 0.7 2.1-0.2 3.1-1.8 0.8-1.1 0.7-3.1 0.5-1.3 1.3-1 1 0 0.9 0.9-0.2 2.5 0.8 2 0.8 1 1 0.5 1.6-1.4-0.3-2.7-0.8-3.4-1.2-2.8-1.2-1.9 0.4-2.5-1.4-6.4-0.5-3.2 0-1.3 2-2.1 1.7-2.6 0.9-1.9 0.6-1.6 0.8-3.3 0.2-2 0.9-3.5 3-5.3 1.6-2 1.1-0.6 1-0.1 1.1 0.3 1.3 2.3-0.2 6.9z" id="ot" name="Olt">
	</path>
	<path d="M557.2 578.2l2.3 1.8 0.2 1 0 1.2-1.9 3.2-2.2 5.6-0.5 1.9 0.4 1.2 1.8 3.4 1.4 4 1.1 1.7 1.3 1.1 9.3 1.2 1.5 0.5 3 2.8 2.1 1.5 0.9 1 0.6 1.6 0.4 2.3 0.1 3.8-0.3 2.2 0.5 4.2 0 2.2-0.2 1.7-0.9 0.7-3.1 0.9-1 0.7-0.4 1.2-0.5 3.1-0.5 1.5-1.2 2.7-0.6 1.8-0.2 2 0 2.3 0.9 8.4 2.7 15.3 1.3 3.6 2.5 3.6 0.6 1.9 1.8 15-6.5 0.2-1.9 1.3-1.6 1.6-2.3 1.4-2.4 1-2 0.5-1.9 1-2.4 0.3-4.8-0.3-2.2 0.4-4.4 2-2.4 0.6-4.6-0.6-3.9-2.3-3.6-2.8-3.8-2.3-4.4-1-13.6-1.1-12.5-4.4-22.3 1.5-4.9-0.7-4.7-1.7 2.3-3.1 1.2-1.2 1.4-1 3-1.5 0.9-0.8 0.2-1.1-0.6-2.2-4.5-7.6-3.8-7.6-3.2-8.4-0.1-2.8 0.6-2.1 2.2-3 1.9-1 1.8-0.6 1.8-0.1 1.5-0.4 1.1-0.6 3.1-3.4 1.2-0.9 1.4-0.5 3.6-0.7 1.3-0.9 0.7-1.3-0.2-2.8-0.5-2.2-0.2-2.5 0.1-3.9 1.2-5 0.3-3.3-0.3-7-0.9-6.5 0.2-3.8 1.4-3.4 4.5-1.2 5.7 1.5 1.9-0.1 1.6-0.4 1.9-1.3 1.3-1.6 1.1-0.8 1-0.2 3.3 0.5 2.6-0.7 1.5-0.6 2.3-2.3 2.2-1.3 4.8-0.9 2.4 0 1.8 0.2 1.7 0.5 3.4 1.7 2.3 0.9 1.2-0.1 1.8-0.6 2.1-2 1.1-1.6 1.6-2.8 2.1-2.6 0.5-0.8 0-0.9-0.8-1.5-0.1-0.9 0.6-0.5 1.5-0.3 2.4 0.5 5.9 2.8 2.6 0.2z" id="tr" name="Teleorman">
	</path>
	<path d="M630.8 588.8l-1.6 4.7-5-1.6-0.8 2.3 3.3 8.1-2.8 2.5-5.1-6.7-5.8-1.3-7-7.5 0-4.7 7-0.6 0-4.7-5.6-2.4 5.1-8.9 7.1-2.6 0.9 9.9 8.3 2-2.6 7.6 4.6 3.9z" id="b" name="Bucharest">
	</path>
	<path d="M822 600.6l-3 7.4-2.8 3.5-3.5 2.2-15.3 3.8-3.8 3.1-2.1 1.3-4.4 0.8-8.8-0.1-4.1 1.4-5.6 3.4-1 1.1-0.8 1.4-1.8 1.5-2.2 1.1-1.7 0.6-16.1-2.6-2.9 2.5-1.3 1.9-2.8 0.2-2.2-1.3-11.1-2.2-7.7-4.8-2.7 1.7-12.4 1.3-10 6-3.8 1.1-4.7 0-1.2 0.3-2.1 1.3-1.1 0.3-2.1 0.3-3.5 1.2-20.9 3.1-0.2-2.1 0.3-1.5 0.8-1.8 3-4.4 0.7-2 0.3-2.4-0.3-3.6-0.9-3.2-1.4-2.9-2.4-2.6-9.4-5.6-4.9-5.8 1.2-3.9 2.7-4.3 2.7-3.6 1.8-1.8 2-1.4 6.3-3 1.2-1.3 1.2-2.4-0.1-0.8-0.6-0.6-2-0.7-1.5-0.9-1-1.1 0.1-1.9 0.4-0.9 1.9-1.3 8.4-4.4 1.7-0.3 1.5 0.4 1.5 0.8 3.3 2.5 1.3 0.5 1.5 0.2 1.8-0.3 2.6-0.9 1.9-1.4 1.6-2.1 0.7-0.6 1-0.3 0.9 0.4 3.4 3.4 1.8 1.1 2 0.6 2.6 0 1.7-0.3 1.6-0.1 1.2 0.4 3.1 1.8 2 0.4 6.1-1.1 2.1 0.2 2.4 0.5 7.8 3.3 2.5 0.6 3.2-0.1 6.1-1.1 18.8 0.4 1.9-0.5 3-1.2 2.7-0.4 3.2 0.1 14.7 2.8 3 1.5 5.9 1.3 1.3 0.6 1.7 1.5 2.2 2.5 4.3 3 9.7 4.1 15.9 5.2z" id="cl" name="Călărași">
	</path>
	<path d="M611.6 543.8l-2.6 3.1-1.3 1-0.7 1.5-0.4 1.5-0.6 1-2.3 1.7-0.4 0.9 0 0.9 0.4 0.9 3.6 1.2 0.4 1.2-0.5 1.3-1 1.4-5 6-2.4 1.9-32.5 2-3 0.8-2.1 1.1-1.1 1.3-2.9 3.7-2.6-0.2-5.9-2.8-2.4-0.5-1.5 0.3-0.6 0.5 0.1 0.9 0.8 1.5 0 0.9-0.5 0.8-2.1 2.6-1.6 2.8-1.1 1.6-2.1 2-1.8 0.6-1.2 0.1-2.3-0.9 2.3-4.2 0.3-2.7-1-3.7-0.1-2 0.6-1.5 1.9-3.6 0.1-1.3-0.4-1.1-1.8-1.1-2.4-0.4-1.1-0.4-0.9-0.6-2.9-2.9-1.1-1.5-2.7-5.3-0.3-1.8 0.4-1.2 2.4-1.5 0.4-0.7-2.1-2-1.5-1.8-0.2-1.7 0.3-1.7 1.6-2.9 0.5-1.3 0.2-1.6 0.9-12.2-0.3-2.3-1.7-8.1-0.2-2.9 0.2-2.5 0.6-1.3 3-3.5 0.5-1.3 0-1.4-0.5-1.9-1.2-2.9-3.3-3.8-1.5-2.5-1.1-5.9 0.1-2.9 0.5-2 0.5-0.9 1.1-2.7 1.1-1.1 0.7 0.1 0.7 0.7 1.2 2 0.8 0.7 0.9 0.3 1-0.2 0.9-0.7 1-1.1 0.8-1.6 1-2.4 0.8-3.1 0.2-3.5 0.5-2.4 0.6-2 0.8-1.6 1.6-2.7 0.7-1.6 0.5-2.5 0-1.8-0.4-1.5-0.6-1.4-1.6-2.9 6.4-1.7 2-2.5 0.5-1.6 0.9-1.9 0.8-0.9 2.1-1 1.9 9.4 0.7 6.7 0.5 1.8 0.7 1.3 3.2 2.4 1.1 1.2 1.2 2 0.7 1.8 0.3 1.5-0.3 4.1 0.1 2.1 1.6 2.8 2.1 2.3 1.2 1.8 5.8 11.3 4.4 4.9 0.9 1.6 0.4 1.6 0.7 6.4 0.8 3.7 0.8 1.9 0.9 1.6 1.1 1 2.3 1 1.2 0 2.9-0.8 0.8 0.4 1.1 1.2 1.4 2.4 0.5 2.1 0.1 2.1-0.6 4.3 0.4 2.7 0.8 1.4 1.2 0.9 5 0.7 1.6 0.6 1.8 1 7.3 9 1.3 1.1 2.1 1.1 1.2 0.4z" id="db" name="Dâmbovița">
	</path>
	<path d="M638.1 605.5l4.9 5.8 9.4 5.6 2.4 2.6 1.4 2.9 0.9 3.2 0.3 3.6-0.3 2.4-0.7 2-3 4.4-0.8 1.8-0.3 1.5 0.2 2.1-11.2 1.7-8.3 3.7-8.5 2.2-3.7 2-3.9 4.3-1.8 2.9-0.8 2.2-12.7 9.4-1 1.7-0.8 2.1-5 6.4-3.2 1.8-3.5 3.6-0.2 0.6-2.4 4-4.4 1.9-0.7 0.1-1.8-15-0.6-1.9-2.5-3.6-1.3-3.6-2.7-15.3-0.9-8.4 0-2.3 0.2-2 0.6-1.8 1.2-2.7 0.5-1.5 0.5-3.1 0.4-1.2 1-0.7 3.1-0.9 0.9-0.7 0.2-1.7 0-2.2-0.5-4.2 0.3-2.2-0.1-3.8-0.4-2.3-0.6-1.6-0.9-1-2.1-1.5-3-2.8-1.5-0.5-9.3-1.2-1.3-1.1-1.1-1.7-1.4-4-1.8-3.4-0.4-1.2 0.5-1.9 2.2-5.6 1.9-3.2 0-1.2-0.2-1-2.3-1.8 2.9-3.7 1.1-1.3 2.1-1.1 3-0.8 32.5-2 2.6 5.7-0.4 4.3-0.5 1.6-1.7 3.3-1 2.9-1 6.7 0.7 2.8 1.1 1.8 2.8 1.4 2 0.7 1.5 1 0.8 1.8 0.8 0.8 0.9 0.3 2.4 0 1.2 0.6 8 7.2 1.8 1.1 1.6 0.8 1.7 0.4 1.6 0.3 1.4-0.1 1.4-0.3 1.3-0.8 2.6-2.1 5.7-6z" id="gr" name="Giurgiu">
	</path>
	<path d="M735.3 531.7l8.7 3.6 1.7 0.2 2.1-0.1 2.4-1.2 1.8-0.6 1.4 0.2 1.3 0.7 3 1.2 28.8 0.8 4.1-0.9 2.4-0.8 1.8-1 2.4-0.8 4.9-0.5 2.2 0.4 1.9 1.2 0.8 1.1 3.2 3-1.7 1-1.1 1.6-0.8 2.1 0.8 2.7 1.5 2.6 1.9 2.1 2 0.8 2.6 0.4 1.9 1 5.6 6.3 0.4 0.9-0.1 1.3-0.6 3.5-0.7 1.6 0 5.2-0.7 1.4-1.1 0.5 0.3 1.2 1.4 1.4 2.3 1.3 2.6 0.9 2 0.4 0.8 1.2 0.9 2.7 0.7 3 0.2 2.3-1.2 1.8-4.4 3.6-1 1.1-2.7 6.5-15.9-5.2-9.7-4.1-4.3-3-2.2-2.5-1.7-1.5-1.3-0.6-5.9-1.3-3-1.5-14.7-2.8-3.2-0.1-2.7 0.4-3 1.2-1.9 0.5-18.8-0.4-6.1 1.1-3.2 0.1-2.5-0.6-7.8-3.3-2.4-0.5-2.1-0.2-6.1 1.1-2-0.4-3.1-1.8-1.2-0.4-1.6 0.1-1.7 0.3-2.6 0-2-0.6-1.8-1.1-3.4-3.4-0.9-0.4-1 0.3-0.7 0.6-1.6 2.1-1.9 1.4-2.6 0.9-1.8 0.3-1.5-0.2-1.3-0.5-3.3-2.5-1.5-0.8-1.5-0.4-1.7 0.3-8.4 4.4-2.5-1.9-3.3-1.7-0.9-1.3-0.3-1.2 0.5-2.5 1.2-2.3 0.9-1 4.1-2.9 0.7-0.8 0.5-1.2-0.3-1-0.9-1.1-6.5-3.6-1.1-1.4-0.2-2.4-0.3-1.2-0.8-1.5-0.3-1.2 0-2.5-0.6-0.7-1.1-0.4-4.2-0.6-2-0.6 3.8-3.6 3.6-1.7 1.5-0.1 1.2 0.3 2.5 1.4 2.3 0.2 1.2-0.5 1.8-2.1 1.5-1.2 1.4-0.3 5.7 0.5 1.5-0.4 1.4-0.8 1.9-1.6 1.3-2.4 2.7-3.4 2.4 1.2 3.5 3.1 1.9 0.5 2.5 0.2 7-0.5 6.3 1.1 2.4 0.8 1.5 0 3.7-0.7 2.1 0.1 2.5 0.9 3.1 2 1.4 0.6 1.5 0 1.5-0.9 1.1-1.2 1.3-0.8 1.6-0.2 2.5 0.7 1.7 0.9 1.4 0.9 1 1 0.6 1 0.1 1.1-0.2 1.9 0.1 1.5 0.4 0.4 1.5-0.1 3-1.2 2.4-0.6 1-0.5 0.5-0.7-0.5-0.8-1.9-1.5-0.7-0.7 0.5-1.5 2.3-1.2z" id="il" name="Ialomița">
	</path>
	<path d="M902.5 552.5l-0.4 2.1 0.3 2.4 0.9 0.6 5.6-1 2.5-1.5 2.3-2.3 2.2-2.8-1.5-3.1 7.3 2.4 1.7 1.2 0.5 2.6-0.9 3-1.8 2.3-2.5 0.8 1.9-2.5 1.7-2.8 0.3-2.5-2.4-1.4 0 1.1 0.7 1-0.2 0.5-2 0.5-1.5-1-1.1 0.3-1 1.7-2 1.6-3.3 3.5-7 3.7-1.5 1.3 1.9-3.5 0.3-1.5-1.6-0.2-1.3 0.3-1 1-0.4 1.9 1.4 0-0.7 1.5 0.4 1.2 1.1 0.8 1.4 0.6-4.2 1.3-1.6 1.4 0 2.3 1.5-2 1.5 0.9 1.3 1.1-0.9 2-1.2 3.8-0.9 4 0.5 2.9 0.9 0.2 0.8-1.1 0.6-1.6 0.7-3.5 1-1.2 2.1-1.4 3.2-4.3 1.8-2 1.9-0.9 2-0.5 1.5-1.6 0.9-2 0.4 0-1 2.5-6.9 13.4-5 3.8-9.5 12.9-1.1 3.3-0.3 1.8-1.4-1-1.6 0.7-1.4 1.2-1.1 1.7-0.6 1.8-0.3 2.1-0.2 5.6 0.5 1.8 1.7 3.2 1.4 4.6 0.4 2.2-0.4 1.3-2 0.5-1 1.1-0.6 1.5 0.7 2.7 1.8 11.9 1.8 7.6-0.2 2.1-1 1.4-0.5 2.7-1.5 4.2-0.4 2-2.5 5.1-0.4 1.4-1.7 8-0.6 1.4-0.4 1.4 0.5 1.4-0.4 1.3-0.4 3 0.2 1.6-0.5 1.4-15.2 0.9-22.5-3.9-21.8-10-3.6-2.8-4.7-16.9-2.5-4.2-5.9 0.7-7.3 4.1-6.9 1.7-4.8-6.6-2.1-4.4-2.4-0.9-6.3 2-20.1 0.2-1.1-0.9-2.1-3.6-1.2-1.1-6-2.9-2.2-2.5 0.5-3.3-1.7-1.4 1.3-1.9 2.9-2.5 16.1 2.6 1.7-0.6 2.2-1.1 1.8-1.5 0.8-1.4 1-1.1 5.6-3.4 4.1-1.4 8.8 0.1 4.4-0.8 2.1-1.3 3.8-3.1 15.3-3.8 3.5-2.2 2.8-3.5 3-7.4 2.7-6.5 1-1.1 4.4-3.6 1.2-1.8-0.2-2.3-0.7-3-0.9-2.7-0.8-1.2-2-0.4-2.6-0.9-2.3-1.3-1.4-1.4-0.3-1.2 1.1-0.5 0.7-1.4 0-5.2 0.7-1.6 0.6-3.5 0.1-1.3-0.4-0.9-5.6-6.3-1.9-1-2.6-0.4-2-0.8-1.9-2.1-1.5-2.6-0.8-2.7 0.8-2.1 1.1-1.6 1.7-1 1.7-0.3 2-0.1 2.1 0.5 3.1 2.1 2 0.4 2.2-0.8 2.1-2 9.6-0.8 5.3 2.1 9.1 8.6 4.6-1.1 2.2-6.4 6.1 0 5.3 6.4 7.6 3.2 8.4 0 6.8-2.1 6.1 3.2 6 1.4z" id="ct" name="Constanța">
	</path>
	<path d="M261 297.9l5.1 5.3-6.9 5.2-1.8 4-1 2.5-2.4 4-2.2 2-2 1.1-2.5 0.4-2-0.2-5.9-1.4-1.9 0.2-1.4 0.9-2.5 2.2-0.9 1.5-0.5 1.7 0.3 5-0.2 2.2-0.5 2.3-1.5 3.1-0.6 1.9-0.3 1.5 1.1 3.6 0.3 1.5-0.1 1.9-0.7 2.5-1.2 2.6-4.9 6.4-1.9 0.9-0.9 1.1-0.7 2.2-1.1 0.9-1.8 0.1-3.9 1-0.9 0.4-2.1 2-0.9 0-2.6-1.5-1.5-0.3-2.1 0.3-1.6 0-1.6-0.4-2.7-2.6-1.8-0.8-0.8-0.6-0.7-1.8-0.6-0.8-1.1-0.6-4.1-0.3-1.9-0.6-1.3-1.2-0.9-1.1-1.1-0.8-1.6-0.5-2.5 0-1.3 0.3-0.8 0.4-0.7 1.7-0.7 3.4-1 1.3-3.2 0.2-1-0.4-1.7-1.4-0.6 0-0.5 0.9-0.2 2.3 0.1 2.1-0.1 0.8-1.1-0.1-0.9-1.1-1.3-2.1-2.1-1.7-3.4-1.6-1.5 0-0.9 0.5-0.8 1-1.4 2.5-1.1 2.4-0.6 0.8-0.8 0.1-2-2.7-1.8-1.5-0.1-0.6 0.7-2.4-0.4-1.1-0.9-1.2-2.2-1.8-2.3-2.5-1.1-0.6-1.2-0.2-2.9 0.4-1-0.4-0.8-1.1-0.2-1.2-0.1-2.2-0.9-0.9-1.6-0.5-3.5-0.4-1.8 0.2-1.1 0.6-0.2 0.8-0.2 2.1-0.4 1-0.6 0.7-2.8 2.3-2.4 2.4-1.4 0.1-1.5-1.8-1.1-0.6-1.8 0-1.5 0.3-1.2 0.5-2.4 2.1-1.5 0-1.8-1-2.8-2.8-0.8-1.8-0.4-2-0.8-0.3-1.6 0.2-1 0.6-1 0.9-0.6 1.7-0.1 1.7-0.6 1.6-0.7 0.4-1.1 0.1-1.6-0.3-1.4-0.7-1.3-1.9-0.3-1 0.3-1.8-0.5-0.7-1.1-0.7-2.2-0.6-1.3 0.1-2 0.5-0.9 0-6.6-1.2-1.5-0.5-1.3-0.9-1.4-2.1-1.1-3-3.7-3.8-15-10.5-1.5-0.6 0.1-1.9 0.5-1.1 0.8-0.3 2 0.5 0.9-0.8 0-1.3-1-3.4-0.1-1.4 0.5-0.8 4.1-3.5 2.2-1.1 2.2-0.7 2.1 0.1 1 0.5 1.9 1.7 0.8 0.4 1.1-0.1 2.2-1.1 1.9 0.4 4 1.7 2.1-0.1 0.9-0.4 0.9 0 0.8 0.4 0.8 0.9 2 1.8 1.9-0.7 5.1-6.2 0.7-0.3 3 0 1.1-0.8 1.2-2.3 0.9-3 0.4-6.8 1.1-3.3 1.8-2.1 2-0.7 4.5-0.2 2.4-1.9-0.6-3.4-3.1-5.9 0.2-3.1 1.5-2.4 1.8-2.4 1.4-2.8 0.4-5.9 0.6-2.9 1.6-1.9 2.2-0.6 3.9 0.3 2.3-1.2 2.2-2.9 0.7-2 2.3 0.8 4.9 1.2 35.3-2 2.7 0.5 1.5 1.8 1.5 0.8 1.3 0.1 2 0 1.4 0.4 1.7 0.9 1.4 1.4 2.6 1 9.3 0.4 2.8 0.6 2 0.9 1.1 1.1 2.4 1.7 0.8 1 0.8 1.8 2.3 6.2 1.2 2.5 1.6 2 2.1 1.4 2.7 0.9 1.7 0.7 5 4.4 7.9 3 0.9 1 0.8 2.9 1.2 1.7 1.6 0.9 1.6 0.4 9.6 0.2 8 1.7 5 0.4 4.4-0.3z" id="ar" name="Arad">
	</path>
	<path d="M247.7 150.9l-1.1 4.3-0.6 1.3-1.2 1.9-0.5 1.3-0.3 2.6-0.3 1.2-0.6 1.2-2.7 4-1.8 1.9 0.1 2.1 1.3 3.3 4.5 7.1 3.1 6.1 0.4 1.3 0.8 1.2 1.1 1.3 6.6 3.8 4.1 4.1 1.8 3.1-0.8 2.1-2.3 4.5-0.4 1.5 0.2 1 0.9 0.7 5.3 2.1 1.4 1.1 0.5 1.6-0.4 2.9-1.1 3.5-1.3 2.3-0.9 0.7-3.9 1.8-1.2 0.8-0.9 1.1-0.6 1.1-0.2 1.3 0.3 1.4 1.3 1.8 4.2 3.8 1.4 2.2 1.4 3.2 1.8 7.2 1 1.9 2.1 1.7 1 0.9 0.5 1.3-0.5 3.8 0 5.8-1.6-1-2.4-0.6-2.7 0.3-1.2 0.7-1.3 1.6-1.4 2.8-1.1 3.9-0.6 3.6 0.2 9.4 1.9 8.1-4.4 0.3-5-0.4-8-1.7-9.6-0.2-1.6-0.4-1.6-0.9-1.2-1.7-0.8-2.9-0.9-1-7.9-3-5-4.4-1.7-0.7-2.7-0.9-2.1-1.4-1.6-2-1.2-2.5-2.3-6.2-0.8-1.8-0.8-1-2.4-1.7-1.1-1.1-2-0.9-2.8-0.6-9.3-0.4-2.6-1-1.4-1.4-1.7-0.9-1.4-0.4-2 0-1.3-0.1-1.5-0.8-1.5-1.8-2.7-0.5-35.3 2-4.9-1.2-2.3-0.8 1.3-2.4 2.9-0.5 2.1-1.2 2-2.9 0.3-3-2.8-2-0.8-1.1 0.3-1.8 0.8-1.5 2.3-6.3 1.3-2.5 2.2-2 3.9-1.1 1.1-0.9 0.9-2-0.1-1.7-0.3-1.6-0.1-1.9 0.1-1.8 0.6-0.6 4.9-4 0.8-1.1 2.1-7.7 0.4-0.1-1.1-2-0.7-0.6-1.9-0.6-0.4-1.4 4.1-4.9 2.4-2.3 5.2-3.4 2.1-2.1 0.7-1.4 0.5-2.8 0.5-1.4 1-1.4 2.3-2.3 0.9-1.2 0.7-1.9-0.3-2.9 0-1.8 0.5-1.7 1.2-2.3 0.5-1.4 1.3-5.6 0.6-1.8 4.1-6 1.9-2.2 1.9-1.1 4.7-1.4 2.1-4.3-0.1-5.2-1-5.4-0.2-4.9 2-3.8 3.1-3.5 6.5-4.9 5.2-1.3 1.4-1.1 0.6-1.3 2.7 4.1 1.3 3.1 0.9 1.5 1.2 1.2 4.3 3.3 1.6 2.2 1.7 3.1 3 4.7 0.9 1.8 1.2 3.3 0.6 1.2 1 0.7 1.8 0.4 1.9-0.5 1.9 0 1.6 0.3 1-0.2 2.5-1.4 1.1-0.3 1.1 0.3 1.5 1 1.7 1.5 3.1 1.8 1.3 1.1 1 1.8 0.7 3.9 1 2.8z" id="bh" name="Bihor">
	</path>
	<path d="M257.1 468.8l-7.2 6.4-3 4-0.9 2.1-0.2 1.5 0.4 1.2 0.9 0.7 1.3 0.5 4 0.2 1 0.3 0.7 0.9 0.6 1.2-0.6 3.2-4.5 4.8-3.4 5.4-0.8 2.2-0.4 1.8-0.5 3.5-0.6 2.4-1.1 3.5-4.5 7.4-2.6 6.7-1.6 7.1-1 3.3-1.1 1.7-1.1 0.9-1.6 0.3-1.1-0.1-0.8-0.4-1.2-2.3-1.5-1.1-0.9-0.2-3.4 0.1-1.1-0.1-1.5-0.9-3.6-3.7-1-0.5-1.1-0.2-1.6 0.3-0.6 0.8-0.3 1 0 1.2-0.6 2-0.9 2.4-2.4 4.1-1.1 2.5-0.7 2.2-0.4 1.8-0.2 1.9 0.1 1.9 0.8 2.5 0.5 2.1 0.1 1.8-0.5 1.9-0.9 1-1.1 0.6-2.5 0.1-2.6-0.7-1.4-0.2-5.7 1-0.3-1-2.9-7.2-1.1-1-3.3-0.6-9.6-5-1.7-0.3-1.8 0.5-3.9 1.6-4.7 1-5.5 0-5.1-1.5-3.9-3.9-1-2.7-0.6-2.7-0.9-2.4-1.9-1.7-2.1-0.6-6.4 0.5-9-1-1.7-0.8-1.8-3.9-1.9-1.5-1.9-0.8 0.4-2 0.9-1.6 1.4-1.3 2.8-1 6.2 0.3 2.9-0.4 4.3-1.3 1.5-1.2 0.3-2.9-0.9-2.4-1.5-1.4-3.7-1.4-2.6-1.3-5.1-0.9-2.4-1.7 0.2-1.8-0.4-0.7-1.8-0.1-1.4-0.4-0.2-1.3 0.5-1.5 0.8-1.2 1-0.5 2.7-0.2 1.1-0.4 1.3-1.1 0.8-3.9 1.5-2.3 0.1-1.9-0.2-1.1 0.8-1.2 0.9-1 1.1-0.5 1.3-0.1 1.4-1.2 0.3-1.8-0.4-2-1-1.2 2.1-1.1 1.9-2.6 1.1-2.6 0-1.5-0.6-4.1 0-1.6 0.3-1.2 2.1-2.6 0.5-1.8-0.4-2.3 0-2-0.9-2.1-0.8-1-2.1-1.7-3.6-3.8-0.7-1.1-0.4-2.6 0.3-1.2 1.1-2.1 0.4-1.4 0-1.3-0.2-2.8 1-1.4 1.9-1.6 4.5-2.5 1.4-1.6 0.8-1.5 0.2-3.2 0.5-1.6 1-1.6 1.8-1.2 3-1.1 3.3 0 1.7 0.5 2 1.2 2.4 0.7 2.3 1.3 1.3 1.7 0.8 0.7 1.9 0 2.6-0.7 4.8-2.2 3.8-2.4 1-0.2 1.6 0.5 1 0.8 0.8 1.2 1 2.5 1.3 2.2 0.9 0.7 1.1 0.6 1.4 0.2 2.1-0.3 2.1-0.8 2.6-1.9 0.7-0.9-0.1-0.6-1.4-0.1-1-0.5-0.2-0.7-0.5-2.8 0.2-0.8 0.6-0.5 3.7 0 2.5-0.4 2.2-0.8 2.6-1.7 2.7-2.4 1.1-0.5 1.4 0.3 0.8 0.6 1.3 1.5 1.6 0.6 1.5-0.2 2.6 0.3 0.7-0.5 2.9-6.1 3.9-2.8 11.6-2.2 0.9 3.5 3.2 4.3 1.4 1 1.5 0.5 2.8 0.6 0.5 0.7-0.2 2.2 0.2 1.2 0.6 0.4 1.8-0.2 1.1 0.3 0.7 0.7 0.7 1.2 1.3 1.1 2 1.3 3.5 2.7 1.6 2.1 1 2.1 1.3 4.4 0.3 1.8 0.1 3.3 0.4 2.5-0.2 1.4-0.5 1.5-1.3 2-0.4 0.9 0.2 1.4 0.8 1.4 1.4 2 0.6 1.6 0.3 1.4-0.2 2.3-0.6 1.3-2.3 3.4-0.8 2.4 0 2.9z" id="cs" name="Caraș-Severin">
	</path>
	<path d="M49.7 328.5l1.5 0.6 15 10.5 3.7 3.8 1.1 3 1.4 2.1 1.3 0.9 1.5 0.5 6.6 1.2 0.9 0 2-0.5 1.3-0.1 2.2 0.6 1.1 0.7 0.5 0.7-0.3 1.8 0.3 1 1.3 1.9 1.4 0.7 1.6 0.3 1.1-0.1 0.7-0.4 0.6-1.6 0.1-1.7 0.6-1.7 1-0.9 1-0.6 1.6-0.2 0.8 0.3 0.4 2 0.8 1.8 2.8 2.8 1.8 1 1.5 0 2.4-2.1 1.2-0.5 1.5-0.3 1.8 0 1.1 0.6 1.5 1.8 1.4-0.1 2.4-2.4 2.8-2.3 0.6-0.7 0.4-1 0.2-2.1 0.2-0.8 1.1-0.6 1.8-0.2 3.5 0.4 1.6 0.5 0.9 0.9 0.1 2.2 0.2 1.2 0.8 1.1 1 0.4 2.9-0.4 1.2 0.2 1.1 0.6 2.3 2.5 2.2 1.8 0.9 1.2 0.4 1.1-0.7 2.4 0.1 0.6 1.8 1.5 2 2.7 0.8-0.1 0.6-0.8 1.1-2.4 1.4-2.5 0.8-1 0.9-0.5 1.5 0 3.4 1.6 2.1 1.7 1.3 2.1 0.9 1.1 1.1 0.1 0.1-0.8-0.1-2.1 0.2-2.3 0.5-0.9 0.6 0 1.7 1.4 1 0.4 3.2-0.2 1-1.3 0.7-3.4 0.7-1.7 0.8-0.4 1.3-0.3 2.5 0 1.6 0.5 1.1 0.8 0.9 1.1 1.3 1.2 1.9 0.6 4.1 0.3 1.1 0.6 0.6 0.8 0.7 1.8 0.8 0.6 1.8 0.8 2.7 2.6 1.6 0.4 1.6 0 2.1-0.3 1.5 0.3 2.6 1.5 0.9 0 2.1-2 0.9-0.4 3.9-1 1.8-0.1 1.1-0.9 0.7-2.2 0.9-1.1 1.9-0.9 3.6 3.8 1 2.5 0.3 2.8 1.2 4.1 1 1.5 2.9 2.3 0.8 1 1.1 1.9 1.9 4.9 0.9 1.3 0.9 0.5 1.3-0.7 1.6-0.2 1.1 0.7 0.3 1-0.3 1.1-0.8 1.2-4.3 3.9-1.2 1.3-0.8 1.6-0.5 1.4-0.8 3.9-0.8 1.2-0.9 0.4-11.6 2.2-3.9 2.8-2.9 6.1-0.7 0.5-2.6-0.3-1.5 0.2-1.6-0.6-1.3-1.5-0.8-0.6-1.4-0.3-1.1 0.5-2.7 2.4-2.6 1.7-2.2 0.8-2.5 0.4-3.7 0-0.6 0.5-0.2 0.8 0.5 2.8 0.2 0.7 1 0.5 1.4 0.1 0.1 0.6-0.7 0.9-2.6 1.9-2.1 0.8-2.1 0.3-1.4-0.2-1.1-0.6-0.9-0.7-1.3-2.2-1-2.5-0.8-1.2-1-0.8-1.6-0.5-1 0.2-3.8 2.4-4.8 2.2-2.6 0.7-1.9 0-0.8-0.7-1.3-1.7-2.3-1.3-2.4-0.7-2-1.2-1.7-0.5-3.3 0-3 1.1-1.8 1.2-1 1.6-0.5 1.6-0.2 3.2-0.8 1.5-1.4 1.6-4.5 2.5-1.9 1.6-1 1.4 0.2 2.8 0 1.3-0.4 1.4-1.1 2.1-0.3 1.2 0.4 2.6 0.7 1.1 3.6 3.8 2.1 1.7 0.8 1 0.9 2.1 0 2 0.4 2.3-0.5 1.8-2.1 2.6-0.3 1.2 0 1.6 0.6 4.1 0 1.5-1.1 2.6-1.9 2.6-2.1 1.1-2.6-3.2-2.7-2.2-3-1.6-11.2-3.5-4.5-0.2-1.8-0.8-3.5-2.4-1.8-2.1-3.6-5.3-1.7-1.3-1.1 0.3-1.7 1.9-1 0.4-1.2-0.3-1.9-1.8-1-0.9-8.7-4-1.7-1.3-4-5.4-6.8-6.2-3.5-5.1-1.5-1.5-1.8-0.9-1.8-0.6-1.6-1-0.6-2.1 2.3-1.9 1.5-1.6 0.3-2.1-1.3-3.5-3.1-5.4-0.4-2.4 0.8-3.8 1.2-2.8 0.4-1.3 0.3-2.1-0.1-7.9 0.7-3 0-1.3-0.9-1.5-1.3-0.7-1.1 0.5-1 1.3-0.6 1.7-1.3 1.1-1.4 0.5-1.4-0.3-1.3-1.2-1-2.1-2.4-3.1-1.1-1.7-0.3-1.5-0.3-3.1-0.3-1.2-0.8-1-1.8-1.2-0.7-0.7-3.5-6.3-1.7-1.6-1.9-0.8-4.1-0.5-1.9-0.9-5.5-5.2-2-1.3-4.2-1.9-1.8-1.3-1.6-2.5-2.2-6.9-1.3-2.3-6.6-8.3 4.3-5.4 16.9-0.5 2.6-4.2 4.3 1 4.2 1.8 3.1 2.8 1 0.7 1.3 0.5 0.8 0 5.9-1.2 2.1-1.1 1.6-1.8 0.6-1.8z" id="tm" name="Timiș">
	</path>
	<path d="M759.6 111.6l-5.8 2.8-4.3-0.1-1.7-0.4-1.3 0.1-1.2 0.8-1.8 2-1.8 2-0.6 1.1-0.4 2.7-0.9 1.1-1.2 0.7-2.9 0-1.4-0.4-1.8-1-1.9-0.8-3-0.6-1.7-1.4-0.8-0.3-1.2 0.2-1.2 0.9-0.7 1.1-0.4 1.1 0.2 1.4 1.9 4.2 0.1 1.3-0.5 1.1-1.1 0.9-2.2 0.8-1.6 0.3-2-0.6-1.3-1-1.1-1.2-1.6-2-1.8-1.4-1-0.4-17.7 0-1.7-0.4-3.1-2.1-1.1-0.1-0.9 0.5-0.7 0.9-0.6 1.7-1.5 3.2-4.2 4.1-4.4-0.6-2.6-2.1-2.6-3.7-0.6-1.6-0.2-1.8 0.3-4.1-0.1-1.9-1.7-8.2-0.9-3.4-1.1-1.9-3.4-3.5-1.3-2.2-7-8.7-2-3.5-12-15.4-2.5-2.5-5.4-3-4.3-3.7-2.8-1.8-1.6-1.5-0.7-1.8-1.8-9.6 2.4 0 5-2.3 1.1-1.6 2.3-5.4 1.3-1.7 2.7-2.4 1.3-1.4 1.6-3.4 1.8-4.9 1.1-5-0.2-3.6 0.8-5.2 0.9 0.3 1.9 0.2 1.8-0.6 3.5-1.7 1.8-0.5 5-0.2 15.1-3.5 8.2-3.9 2.4-0.1 2.5 2.1 1.1 0.3 1.1-1.8 1.2 2.5 2.1 0.4 4.3-0.9 1.8 0.9 2.4 3.1 1.2-0.7 4.4 4.5 0.7 1.2 0.4 2.7 1-0.5 1.2-1.8 1-0.9 1.3 1.2 0.5 1.8 0.8 1.7 3.7 1.4 0 1.3-1.2 1.2-2.1 0.1 0 1 2.9 1.8 1.9 0.6 1.4-1.1 0.9 0.5 1.5 1.6-0.1 0.9-1.1 1.4-0.3 0.9 0.8 3.9 1.9 3 2.5 2.3 2.7 1.6 0 1.2-2.1 1 0.7 2.2 2.7-1.2 1.4 2 1 2.2 1.4-0.9 1.2 1.5 0.1 1.4-0.7 1.4-1.3 1.1 2.3 1.8 0.6 0.4 0 1-1.8 2.5 1.1 1.5 2.4 1.3 1.9 2.3-0.1 0.7 0.2 4.9-0.1 0.9 1.1 0.9 2.4 0.9 0.8 1.4-3.6 2.2 1.3 1.1 1.4 2.2 2.1 4.4 2.4 2 0.4 1.5-0.1 1.7 0.5 1.1 0 1-2.4 0.5 1 3.5 2.4 4.1 6.9 9.1 2.9 3.1 3.3 1.2 0.3 1.3z" id="bt" name="Botoșani">
	</path>
	<path d="M271.2 269.1l3.2 2.8 14.8 0.4 2.4 0.7 1.5 1 1.5 3 1 1 2.2 1.8 0.5 0.8 0.4 2.8 0.7 1.1 0.7 0.1 0.8-0.4 1.2-1.7 0.8-0.8 4.3-2.7 1-0.3 2-0.1 4.8 1.6 1.8 0.2 1.3-0.2 1-0.6 1.1-1 3.8-2.9 10.6-2.1 1.8 0.5 1.5 0.8 5.9 4.3 5.2 2.2 2.3 0.4 1.9 0.1 3.4-0.3 1.2 0.4 0.7 0.9 0 1.2-1.7 2.8-0.5 1.2 0.1 1.3 0.8 1.5 2.2 1.5 1.7 0.6 1.5 0.1 0.7-0.5 0.2-0.9-0.4-2 0-1 0.6-0.7 1.2-0.3 5-0.1 1.2-0.2 2-1 1.1-0.3 4.7 0.2 1.6-0.2 3.9-1 2.1 0.3 6.6 2.1 1.4 0 1.7-0.8 0.8-1.2 3.3 0.2 1.6 1.1 1.2 1.4 0.6 1.8-0.4 1.4-0.8 1.2-1.3 1.2-0.9 1.1-0.5 1.8 0.5 1.2 3.3 3.6 1 0.7 5.8 2.5 2.2 1.8 1.1 2.3 0.8 4.8 1.6 2.2 1.7 1.1 0.5 10.1-0.1 1.6-0.4 1.2-1.2 1.2-2.1 1.3-1.6 1.8-2.3 2.1-8.8 9.5-1.2 1.9-0.7 2.2-0.5 2.8-0.4 0.8-0.9 0.4-0.9-0.2-0.9-0.7-1.9-1.9-1.9-1.2-1.2 0-7.3 1.6-1.3 0.9-0.7 1.4-0.1 2.5 0.5 1.5 0.7 1.4 0.4 1.4-0.3 1.8-1.6 2-1.4 1.2-1.6 1-1.3 0.2-2.5-0.1-1.7 0.5-1-0.2-2.9-1.7-2-0.2-0.8 0.4-0.5 0.8 0.5 5 0.7 1 1 0.5 2.7 0.7 1.2 0.7 0.7 0.8-0.2 1.3-3.6 5.6-1.4 2.7-1.4 1.4-1 0.1-2.4-0.3-1.5 0.9-1.5 2-0.7 1.6-2.4 7.7-0.3 2.7 0.7 3.9 0.8 2.2 0.7 2.5 0.2 2.8-0.9 4.5-0.8 2.6-0.3 2.4 1.1 3.3 2.6 4.5 0.4 2 0.1 1.4-2.9 4.3-4.4 0.7 0.2-5-0.6-2.6-0.7-0.9-5.2-5.1-2.3-2.6-1.8-1.3-4.1-2-2.5-2-1.3-1.9-1.1-2.6-0.4-1.5-0.1-1.3 1-3.3-0.4-1.4-2.2-2.7-0.6-1.1-0.2-1.3 0.3-2.8-0.4-2.3-0.9-3.2-2.3-6.3-2.7-11.7-0.9-1.7-2.8-3.4-1.7-2.8-4.1-10.7-1.2-1-2.1-0.3-2.5-1.2-10.2-13.5-1-2.3 0.6-1.1 0.7-0.2 1.5 0.5 0.5-0.6-0.1-1.5-1.7-4.5-1.3-2.4-1.4-1.9-1.1-0.8-1.3-0.6-4.8-0.7-1.2-0.5-0.7-0.9-1.8-6.7-1.7-4.4-1.1-2.2-1-1.3-1-0.3-9.7 1-0.9-0.3-5.2-3.3-5.1-5.3-1.9-8.1-0.2-9.4 0.6-3.6 1.1-3.9 1.4-2.8 1.3-1.6 1.2-0.7 2.7-0.3 2.4 0.6 1.6 1z" id="ab" name="Alba">
	</path>
	<path d="M498.4 110.1l1.2 1.4 8.3 6.8 2.8 3.3 1.2 2.4 0.6 1.6 0.1 1.8-0.7 2.2-1.2 1.3-2.7 1.5-0.8 0.7-0.2 0.8 1.4 2.3 0.1 1-0.3 1.4-1.1 0.7-1.6-0.2-1 0.1-0.7 0.6-0.5 0.9 0.2 1.1 0.9 1.7 2.1 2.7 0.8 1.3 1.3 2.8 0.4 1.5 0.1 1.8-0.8 2.7-1.4 2.4-0.8 2.1-0.1 1.6 1.2 1.6 1.2 0.3 2-0.2 0.5 0.3 0.2 0.9-0.4 2.4-0.4 1.6-0.6 4.7 0.6 10.8-8.2 3.3-6.9 1.3-2.8 1-3.4 2.3-5.4 4.7-0.8 1.1-1.4 3.8-0.6 1.2-2.6 4-0.9 1.9-0.6 2.1-0.8 4.4-0.7 1.2-1.3 0.6-1.9-0.2-1.7-0.8-3.1-2-1.3-0.5-1.2-0.3-1.3 0.2-1.9 0.9-2.6 2.1-2.2 2.9-1 1.8-1 2.9-0.6 1.1-2 2.5-0.7 1.3-0.8 4.9-0.6 1.2-1.4 1-2.1 0.7-3.7 0.5-4.8 2-1.7 0.3-2.3-0.1-7-1.8-8.7-4.3 2.3-4.7 0.6-1.9 0.7-6.4 0.6-2.2 0.2-2.5-0.5-2.1-2-2.1-3.7-2.1-1.3-1-0.7-1.3-0.2-1.8 0.4-2.3-0.2-1-1.8-1.3-0.9-1 0.1-2.3 0.3-2 0.5-1.9 0.1-2-0.4-1.9-1.5-2.2-1.5-1.1-2.5-1.2-1.1-0.7-2.2-2.1-1.6-1-6-1.7-1.3-0.7-1.2-1.3-0.7-1.6-0.5-1.9-1.1-8.6-0.4-1.6 0-1.9 0.6-1.5 3.4-2.9 1.4-1.6 1.1-1.8 1-4.4 4.1-4 6.4-9.5 0.7-1.5 0.4-1.5 0.4-3.3 0.5-0.8 1.5-0.7 8.9-1.9 2.2-1.4 1-1.3 2.1-4.8 0.8-1.4 1.5-1.2 7.3-3.3 1.9-0.5 19.8 4.7 19.8-0.7 2.2-0.7 1.7-1.2 4.3-4.1 3.6-1.3 9 0.1z" id="bn" name="Bistrița-Năsăud">
	</path>
	<path d="M398.3 150.4l-1 4.4-1.1 1.8-1.4 1.6-3.4 2.9-0.6 1.5 0 1.9 0.4 1.6 1.1 8.6 0.5 1.9 0.7 1.6 1.2 1.3 1.3 0.7 6 1.7 1.6 1 2.2 2.1 1.1 0.7 2.5 1.2 1.5 1.1 1.5 2.2 0.4 1.9-0.1 2-0.5 1.9-0.3 2-0.1 2.3 0.9 1 1.8 1.3 0.2 1-0.4 2.3 0.2 1.8 0.7 1.3 1.3 1 3.7 2.1 2 2.1 0.5 2.1-0.2 2.5-0.6 2.2-0.7 6.4-0.6 1.9-2.3 4.7-3.2 0.4-2.1 2.5-4 7.6-0.4 1.7 0 1.4 1.5 2.3 0.7 1.5 0.2 2.6-0.7 1.7-1.1 1-3.8 0.7-1.3 0.6-1.8 1.7-1 2.2-1.1 3.2-0.2 1.8 0.2 1.4 0.9 2.5-0.1 1.7-0.7 0.9-2.3 1.4-1.4 1.5-2.1 3.2-0.4 1.9 0.5 1.7 2.4 2.4-0.8 1.2-1.7 0.8-1.4 0-6.6-2.1-2.1-0.3-3.9 1-1.6 0.2-4.7-0.2-1.1 0.3-2 1-1.2 0.2-5 0.1-1.2 0.3-0.6 0.7 0 1 0.4 2-0.2 0.9-0.7 0.5-1.5-0.1-1.7-0.6-2.2-1.5-0.8-1.5-0.1-1.3 0.5-1.2 1.7-2.8 0-1.2-0.7-0.9-1.2-0.4-3.4 0.3-1.9-0.1-2.3-0.4-5.2-2.2-5.9-4.3-1.5-0.8-1.8-0.5-10.6 2.1-3.8 2.9-1.1 1-1 0.6-1.3 0.2-1.8-0.2-4.8-1.6-2 0.1-1 0.3-4.3 2.7-0.8 0.8-1.2 1.7-0.8 0.4-0.7-0.1-0.7-1.1-0.4-2.8-0.5-0.8-2.2-1.8-1-1-1.5-3-1.5-1-2.4-0.7-14.8-0.4-3.2-2.8 0-5.8 0.5-3.8-0.5-1.3-1-0.9-2.1-1.7-1-1.9-1.8-7.2-1.4-3.2-1.4-2.2-4.2-3.8-1.3-1.8-0.3-1.4 0.2-1.3 0.6-1.1 0.9-1.1 1.2-0.8 3.9-1.8 0.9-0.7 1.3-2.3 1.1-3.5 0.4-2.9-0.5-1.6-1.4-1.1-5.3-2.1-0.9-0.7-0.2-1 0.4-1.5 2.3-4.5 0.8-2.1 1.2 0.4 12.6 0.3 1.9 0.3 1.1 0.6 1.1 0.9 0.8 1.5 1.8 4.6 1.1 2 1.1 1.3 1.3 0.5 3.9 0.4 1 0.4 0.8 0.6 1 1.6 0.8 0.6 1 0 2.3-0.4 1.3-0.1 3.9 1.1 1.8-0.3 2.1-0.8 1.5-0.3 1.2 0.2 2.4 0.9 1.3-0.1 1-0.6 0.3-1.3-0.2-2.5 0.3-1.1 1.5-2.8 0.7-1.1 1.2-0.2 0.9 0.6 0.7 1.2 0.7 2.3 0.6 0.7 0.9 0.3 2.2-0.8 1.1 0 0.9 0.3 2.1 2.4 1-0.1 1-0.7 0.9-2.2 0-1.4-0.5-1.4-2-2.3-0.4-1.4 0.5-1 1.5-0.7 1.1 0 1.8 0.7 0.6-0.3 0.4-2 0.5-0.9 1.2-0.7 1.3-0.2 2.3 0.1 1.4-0.2 1.6-0.4 1-0.9 0.4-1.5-0.1-1.2-1-3.4-0.5-1.1-1.4-1.8-0.4-1 0.1-1 0.6-0.8 2.2-0.6 0.6-0.5 0.9-2.6 0.8-1.4 0.4-2.6 0.3-1 4.9-2 2.4-1.6 1.3-0.4 1.2 0.1 1.1 0.5 1 0 0.9-0.7 0.7-1.9 1-1.9 1.6-1.9 3.7-2 3.5-1.1 6.2-0.7 1.6-0.6 0.9-1.4-0.1-3 0.5-3 0.5-1.8 0.7-1.4 0.1-2.2-1.6-2.5 3-2.6 17.5 1.4z" id="cj" name="Cluj">
	</path>
	<path d="M353.6 437.7l-0.3 2.3 0.2 1.4 1.5 4.5 0.3 1.7-1.5 4.4-6.6 2.2-6 3.3-1.8 1.5-1.1 0.4-0.9-0.1-1.9-1.4-1.5-0.8-1.6-0.4-2.7-0.1-2 0.6-3.6 1.8-4.7 1-1.7 0.6-5.7 3.5-1.7 0.4-1.3 0-3.2-1.5-1.6-0.2-2.6 0.2-6.8 2.9-1.6 0.1-1.1-0.4-1.7-1.6-0.9-0.4-4.6-0.3-1.2-0.4-1-0.8-0.7-1-1.4-0.7-1.1 0.2-22.4 8.2 0-2.9 0.8-2.4 2.3-3.4 0.6-1.3 0.2-2.3-0.3-1.4-0.6-1.6-1.4-2-0.8-1.4-0.2-1.4 0.4-0.9 1.3-2 0.5-1.5 0.2-1.4-0.4-2.5-0.1-3.3-0.3-1.8-1.3-4.4-1-2.1-1.6-2.1-3.5-2.7-2-1.3-1.3-1.1-0.7-1.2-0.7-0.7-1.1-0.3-1.8 0.2-0.6-0.4-0.2-1.2 0.2-2.2-0.5-0.7-2.8-0.6-1.5-0.5-1.4-1-3.2-4.3-0.9-3.5 0.9-0.4 0.8-1.2 0.8-3.9 0.5-1.4 0.8-1.6 1.2-1.3 4.3-3.9 0.8-1.2 0.3-1.1-0.3-1-1.1-0.7-1.6 0.2-1.3 0.7-0.9-0.5-0.9-1.3-1.9-4.9-1.1-1.9-0.8-1-2.9-2.3-1-1.5-1.2-4.1-0.3-2.8-1-2.5-3.6-3.8 4.9-6.4 1.2-2.6 0.7-2.5 0.1-1.9-0.3-1.5-1.1-3.6 0.3-1.5 0.6-1.9 1.5-3.1 0.5-2.3 0.2-2.2-0.3-5 0.5-1.7 0.9-1.5 2.5-2.2 1.4-0.9 1.9-0.2 5.9 1.4 2 0.2 2.5-0.4 2-1.1 2.2-2 2.4-4 1-2.5 1.8-4 6.9-5.2 5.2 3.3 0.9 0.3 9.7-1 1 0.3 1 1.3 1.1 2.2 1.7 4.4 1.8 6.7 0.7 0.9 1.2 0.5 4.8 0.7 1.3 0.6 1.1 0.8 1.4 1.9 1.3 2.4 1.7 4.5 0.1 1.5-0.5 0.6-1.5-0.5-0.7 0.2-0.6 1.1 1 2.3 10.2 13.5 2.5 1.2 2.1 0.3 1.2 1 4.1 10.7 1.7 2.8 2.8 3.4 0.9 1.7 2.7 11.7 2.3 6.3 0.9 3.2 0.4 2.3-0.3 2.8 0.2 1.3 0.6 1.1 2.2 2.7 0.4 1.4-1 3.3 0.1 1.3 0.4 1.5 1.1 2.6 1.3 1.9 2.5 2 4.1 2 1.8 1.3 2.3 2.6 5.2 5.1 0.7 0.9 0.6 2.6-0.2 5z" id="hd" name="Hunedoara">
	</path>
	<path d="M497 89.2l1.3 4.3 2.5 4 4.5 4.8 0.9 1.4 0.2 1.7-0.8 1.5-0.9 1-6.3 2.2-9-0.1-3.6 1.3-4.3 4.1-1.7 1.2-2.2 0.7-19.8 0.7-19.8-4.7-1.9 0.5-7.3 3.3-1.5 1.2-0.8 1.4-2.1 4.8-1 1.3-2.2 1.4-8.9 1.9-1.5 0.7-0.5 0.8-0.4 3.3-0.4 1.5-0.7 1.5-6.4 9.5-4.1 4-17.5-1.4-3 2.6-2.7 1.4-1.2 0.4-1.5 0-1.3-0.3-1.4-0.9-1.8-1.8-1.3-0.8-2.1-1-1-1.2-0.6-1.2-0.2-1.2-1.4-0.9-2.5-0.4-16.2 0.7-2.4-0.4-13.2-4.5-4.2-2.2-2.1-0.8-2.8-0.5-11.1 0-5.3 1.9-9.7-1.8-1.8-1-1.4-1.3-0.2-1.1 0.3-1 0.8-0.9 3.9-2.6 1.8-2 0.6-1.1 1.4-4.7 0.9-1.5 6.2-7.9 1-0.6 1 0 0.8 0.5 1.8 2.3 1.2 1.1 4.8 3.2 1.6 0.7 1.8 0 2-1.2 1.6-1.8 1.9-2.8 2.3-2.7 1.8-4 0.7-2 1.3-3 0.4-1.9-0.2-2.1-0.8-1.2-1.2-1.2-1.6-0.9-7.2-2-1.2-0.8-0.7-1.1-0.1-1.3 0.4-2.2 1.2-1.3 1.8-0.8 7.5 0.1 4.1 1.3 1.6 0.8 1.8 0.5 1.8 0.1 2.4-0.5 2.6-1.3 15-11.5 0.9-1.7 0.1-1.7-1.1-2-1.4-1.4-3.5-2.2-1.5-1.2-1-1.2-5.1-7.2-1.7-6.3 0.9-1 1-1.9 1.2-1 1.1-0.3 4-0.7 2 0.6 6.8 0.8 4.3 1.5 2.5 0.3 7.3-0.4 1.7 0.9 5.5 5.1 0.7 2.4 2.3 0 10.6-4.4 3.3 0.2 1.8 1.3 5.2 1.4 2.1 1 3.8 3.7 2.1 0.2 6.2 2.4 2.3 0.1 7-3.6 5.2-0.1 4.2-3.6 2.4-1.4 2 0 6.1 1.4 5.9-0.1 2.1 0.6 4.9 2.9 2.7 2.1 1.6 2.1 0.7 2.5 0.1 2.1 0.5 1.9 1.9 2.2 3.5 2.2 8.6 3.4 1.5 1.3 1.3 1.9 3.6 6.4 2.4 3.8 2 1.4 4.9-0.9z" id="mm" name="Maramureș">
	</path>
	<path d="M524.6 188.9l0.7 5.9 1.5 3 2.4 2.4 1 1.4 0.7 1.9 0.4 2.4 0.3 9.4-1.7 10.4 0.6 3.5 2.3 6.4 0.8 2.5-0.1 2.1-0.6 3.4-0.3 2.9 0.3 4.1-0.2 1.5-0.9 1.5-4.6 3.8-1.5 1.7-3.8 5.9-1.3 1.4-1.8 1.2-4.5 1.9-1.4 0.9-6.2 6.5-0.8 1.4-0.5 1.7-0.5 5.8-0.5 1.2-1.1 1.1-6.6 2.7-0.8 1 0 1 2.9 2.1 0.8 1 0 1.6-0.6 1.1-1.2 0.6-2.6 0.6-2.6 2-2.3 1-0.8 0.8-0.1 1 0.6 1.3 8.4 10.2 1.9 1.8 2 0.7 5-0.2 1.7 0.7 5.6 4.3 8.3 8.9-5.3 1.2-9.7 0.4-1.5 0.5-1.5 0.8-2.3 2-1.1 1.2-1 2.9 0.6 3.2-5-2.9-1.1-1-1.7-1.2-1.4-0.6-2.3-0.3-1.5 0.2-3.4 0.9-3.3 0.2-0.8 0.3-1.2 1-0.8 0.4-2.4 0-1.2 0.4-1.4 0-1.4-0.7-1.9-2.3-1.1-3.4-0.6-3.9-0.5-8.8-0.7-4.1 0.1-1.4 0.5-1.3 0.7-1 0.3-0.9-0.4-0.5-0.9-0.1-2.1 1.1-1.5 0.4-2-0.2-2.8-0.9-1.4 0-1.3 0.9-1.5 1.8-1.3 0.7-2.1 0.1-7.4-0.5-3.3 0.7-1.7 0.7-2.1 0.5-2-0.3-5.8-2.4-3.8 0.8-7.8 0-1.7-1.1-1.6-2.2-0.8-4.8-1.1-2.3-2.2-1.8-5.8-2.5-1-0.7-3.3-3.6-0.5-1.2 0.5-1.8 0.9-1.1 1.3-1.2 0.8-1.2 0.4-1.4-0.6-1.8-1.2-1.4-1.6-1.1-3.3-0.2-2.4-2.4-0.5-1.7 0.4-1.9 2.1-3.2 1.4-1.5 2.3-1.4 0.7-0.9 0.1-1.7-0.9-2.5-0.2-1.4 0.2-1.8 1.1-3.2 1-2.2 1.8-1.7 1.3-0.6 3.8-0.7 1.1-1 0.7-1.7-0.2-2.6-0.7-1.5-1.5-2.3 0-1.4 0.4-1.7 4-7.6 2.1-2.5 3.2-0.4 8.7 4.3 7 1.8 2.3 0.1 1.7-0.3 4.8-2 3.7-0.5 2.1-0.7 1.4-1 0.6-1.2 0.8-4.9 0.7-1.3 2-2.5 0.6-1.1 1-2.9 1-1.8 2.2-2.9 2.6-2.1 1.9-0.9 1.3-0.2 1.2 0.3 1.3 0.5 3.1 2 1.7 0.8 1.9 0.2 1.3-0.6 0.7-1.2 0.8-4.4 0.6-2.1 0.9-1.9 2.6-4 0.6-1.2 1.4-3.8 0.8-1.1 5.4-4.7 3.4-2.3 2.8-1 6.9-1.3 8.2-3.3 9.5 1.8 4.8 2.3z" id="ms" name="Mureș">
	</path>
	<path d="M377.8 151.6l1.6 2.5-0.1 2.2-0.7 1.4-0.5 1.8-0.5 3 0.1 3-0.9 1.4-1.6 0.6-6.2 0.7-3.5 1.1-3.7 2-1.6 1.9-1 1.9-0.7 1.9-0.9 0.7-1 0-1.1-0.5-1.2-0.1-1.3 0.4-2.4 1.6-4.9 2-0.3 1-0.4 2.6-0.8 1.4-0.9 2.6-0.6 0.5-2.2 0.6-0.6 0.8-0.1 1 0.4 1 1.4 1.8 0.5 1.1 1 3.4 0.1 1.2-0.4 1.5-1 0.9-1.6 0.4-1.4 0.2-2.3-0.1-1.3 0.2-1.2 0.7-0.5 0.9-0.4 2-0.6 0.3-1.8-0.7-1.1 0-1.5 0.7-0.5 1 0.4 1.4 2 2.3 0.5 1.4 0 1.4-0.9 2.2-1 0.7-1 0.1-2.1-2.4-0.9-0.3-1.1 0-2.2 0.8-0.9-0.3-0.6-0.7-0.7-2.3-0.7-1.2-0.9-0.6-1.2 0.2-0.7 1.1-1.5 2.8-0.3 1.1 0.2 2.5-0.3 1.3-1 0.6-1.3 0.1-2.4-0.9-1.2-0.2-1.5 0.3-2.1 0.8-1.8 0.3-3.9-1.1-1.3 0.1-2.3 0.4-1 0-0.8-0.6-1-1.6-0.8-0.6-1-0.4-3.9-0.4-1.3-0.5-1.1-1.3-1.1-2-1.8-4.6-0.8-1.5-1.1-0.9-1.1-0.6-1.9-0.3-12.6-0.3-1.2-0.4-1.8-3.1-4.1-4.1-6.6-3.8-1.1-1.3-0.8-1.2-0.4-1.3-3.1-6.1-4.5-7.1-1.3-3.3-0.1-2.1 1.8-1.9 2.7-4 0.6-1.2 0.3-1.2 0.3-2.6 0.5-1.3 1.2-1.9 0.6-1.3 1.1-4.3 4.5-3.7 13.9-6.7 2.9-0.8 2.1 0 11.6 3.3 1.4 0.9 2.5 2.5 1.6 0.9 4.4 1.1 1.1 0.6 1.8 2.1 1.3 0.9 0.6-0.3 0.9-1.8 0.7-0.9 4.1-3.4 0.5-1 0.2-1.2-0.2-1.2-0.9-2.1-1.2-2.2 5.3-1.9 11.1 0 2.8 0.5 2.1 0.8 4.2 2.2 13.2 4.5 2.4 0.4 16.2-0.7 2.5 0.4 1.4 0.9 0.2 1.2 0.6 1.2 1 1.2 2.1 1 1.3 0.8 1.8 1.8 1.4 0.9 1.3 0.3 1.5 0 1.2-0.4 2.7-1.4z" id="sj" name="Sălaj">
	</path>
	<path d="M343.2 48.5l1.7 6.3 5.1 7.2 1 1.2 1.5 1.2 3.5 2.2 1.4 1.4 1.1 2-0.1 1.7-0.9 1.7-15 11.5-2.6 1.3-2.4 0.5-1.8-0.1-1.8-0.5-1.6-0.8-4.1-1.3-7.5-0.1-1.8 0.8-1.2 1.3-0.4 2.2 0.1 1.3 0.7 1.1 1.2 0.8 7.2 2 1.6 0.9 1.2 1.2 0.8 1.2 0.2 2.1-0.4 1.9-1.3 3-0.7 2-1.8 4-2.3 2.7-1.9 2.8-1.6 1.8-2 1.2-1.8 0-1.6-0.7-4.8-3.2-1.2-1.1-1.8-2.3-0.8-0.5-1 0-1 0.6-6.2 7.9-0.9 1.5-1.4 4.7-0.6 1.1-1.8 2-3.9 2.6-0.8 0.9-0.3 1 0.2 1.1 1.4 1.3 1.8 1 9.7 1.8 1.2 2.2 0.9 2.1 0.2 1.2-0.2 1.2-0.5 1-4.1 3.4-0.7 0.9-0.9 1.8-0.6 0.3-1.3-0.9-1.8-2.1-1.1-0.6-4.4-1.1-1.6-0.9-2.5-2.5-1.4-0.9-11.6-3.3-2.1 0-2.9 0.8-13.9 6.7-4.5 3.7-1-2.8-0.7-3.9-1-1.8-1.3-1.1-3.1-1.8-1.7-1.5-1.5-1-1.1-0.3-1.1 0.3-2.5 1.4-1 0.2-1.6-0.3-1.9 0-1.9 0.5-1.8-0.4-1-0.7-0.6-1.2-1.2-3.3-0.9-1.8-3-4.7-1.7-3.1-1.6-2.2-4.3-3.3-1.2-1.2-0.9-1.5-1.3-3.1-2.7-4.1 0.3-2.2 0.3-1.1 2.6-3.7 0.3-1.4 0.4-2.8 0.4-1.2 0.8-1 1.7-1.3 0.8-0.8 2.4-3.5 1.2-1.3 1.9-1 1.9-0.7 1.3-0.2 4.9 0.8 1.5-0.1 1.4-0.6 1.2-1.2 1.8-6.2 3.2-0.7 7.8 4.1 3.7 0.6 4-0.6 3.8-1.7 3.1-2.7 2.6-3.4 1.3-1 2.2-1 2.2-0.3 0.7-0.4 0.9-1.7-0.2-1.2-0.6-1 0-1.4 1.1-2.1 1.7-1.2 4.2-1.5 1.8-1.6 2.6-5 1.8-2 2.1-0.7 1.9-1.3 0.9-2.1-0.9-3.2 0.9-1.9 1.6-0.1 1.8 0.9 3.3 2.1 1.7 0.6 1.7-0.3 4.5-3.6 1.5-2.7 2.3-7.4 2.1-3.2 2.2-1 2.3 0.3 7.4 2.6 1.8 1.3 4.4 5.2 5 4.4 2.4 2.8 0.7 0.3 1.6 0 1.5-0.3 6.8 3.4 2.2-0.1 0.4-0.4z" id="sm" name="Satu Mare">
	</path>
	<path d="M535.7 446.6l1.6 2.9 0.6 1.4 0.4 1.5 0 1.8-0.5 2.5-0.7 1.6-1.6 2.7-0.8 1.6-0.6 2-0.5 2.4-0.2 3.5-0.8 3.1-1 2.4-0.8 1.6-1 1.1-0.9 0.7-1 0.2-0.9-0.3-0.8-0.7-1.2-2-0.7-0.7-0.7-0.1-1.1 1.1-1.1 2.7-0.5 0.9-0.5 2-0.1 2.9 1.1 5.9 1.5 2.5 3.3 3.8 1.2 2.9 0.5 1.9 0 1.4-0.5 1.3-3 3.5-0.6 1.3-0.2 2.5 0.2 2.9 1.7 8.1 0.3 2.3-0.9 12.2-0.2 1.6-0.5 1.3-1.6 2.9-0.3 1.7 0.2 1.7 1.5 1.8 2.1 2-0.4 0.7-2.4 1.5-0.4 1.2 0.3 1.8 2.7 5.3 1.1 1.5 2.9 2.9 0.9 0.6 1.1 0.4 2.4 0.4 1.8 1.1 0.4 1.1-0.1 1.3-1.9 3.6-0.6 1.5 0.1 2 1 3.7-0.3 2.7-2.3 4.2-3.4-1.7-1.7-0.5-1.8-0.2-2.4 0-4.8 0.9-2.2 1.3-2.3 2.3-1.5 0.6-2.6 0.7-3.3-0.5-1 0.2-1.1 0.8-1.3 1.6-1.9 1.3-1.6 0.4-1.9 0.1-5.7-1.5-4.5 1.2-2.3-1.6-5.1-0.4-1-0.7-0.7-1.2-0.6-2.3-0.4-6.5-1.3-4.9 0.1-2.6 0.6-1.9 0.1-1-1-6.7-1.1-3.8-0.2-1.8-0.5-3.3-0.8-2.3-2.6-4.3-0.3-1.4 0.9-1.6 0.9-0.7 1.9-0.8 0.6-0.9-0.5-0.8-0.8-0.6-1.9-0.2-1.6 0.4-1.7 0-1.7-0.5-2.1-2.1-1.2-1.6-4.7-9.9-0.8-2-0.1-1.7 0.3-2.7-0.3-1.2-0.5-0.8-1-0.2-0.9 0.6-1.2 1.7-1.4 3.6-0.7 0.9-4.3 3.6-0.9 0.4-1-0.3-0.7-0.6-1.2-3.6 2.7-2 4.1-5 0.7-1.3 0.3-1.2-0.1-1.3-0.7-1.8-1.6-2.6-0.1-1.2 0.8-3.1 1.2-9.1 3.2-14.1-0.2-3.5-0.6-2.2-0.8-1.8-0.7-1-1.6-1.9-0.5-1.5-0.2-1.9 0.4-3.1 0.3-3.7-1-3.6-0.1-1.6 0.2-1.4 0.6-1.2 1.7-2.2 0.3-1.4-0.2-1.8-2.2-9.4 0-1.7 0.3-1.6 3.1-6 1.4-6.6-1.3-4.8 19.2-5.6 6.7-0.6 1.6 0.4 1.4 0.8 1.7 1.8 1.5 2.5 0.8 0.5 1.3-0.4 1.9-1.2 1.2-0.5 1.3-0.1 3.1 0.2 6.5-0.6 11.8 1.6 2.5 1.5 4 3.5 1.8 1.2 1.7 0.6 1.7 1.2 1.5 2 5.9 13.1 3.5 4.2z" id="ag" name="Argeș">
	</path>
	<path d="M501.1 344.5l-2.2 3-6.3 5.2-5.9 3.2-0.6 0.7-0.3 1 0.7 2 0.1 1.1-0.3 1.5-0.9 0.5-0.7-0.1-1.7-0.7-1.2 0.2-1.8 1-1.6 1.7-4.7 2.5-0.7 0.9-0.1 1.2 0.4 0.9 1.5 1.7 0.4 1.2-0.2 2.9 0.3 1 0.6 0.8 1.5 0.9 0.3 1-0.6 1.6-1.4 1.1-1.8 0.8-2 0.5-3.8 1.6-1.6 1.3-0.5 1.3 0.1 1.5 3.3 7 1.1 3.7 0.9 5 0.4 4.3 0.3 2.3 0.2 3.1-19.2 5.6-21.6-0.2-14.7 3.4-1.5 0.5-10.6 6.1-2 0.1-1.6-0.3-3.7-1.7-4-0.5-17.6 0.7-1.7 0.5-1.7 2-1 0.8-1.3 0.3-1.8 0.1-1.4 0.5-3.3 2.6-2.1 1.3-1.3 0.5-2.2-0.2 2.9-4.3-0.1-1.4-0.4-2-2.6-4.5-1.1-3.3 0.3-2.4 0.8-2.6 0.9-4.5-0.2-2.8-0.7-2.5-0.8-2.2-0.7-3.9 0.3-2.7 2.4-7.7 0.7-1.6 1.5-2 1.5-0.9 2.4 0.3 1-0.1 1.4-1.4 1.4-2.7 3.6-5.6 0.2-1.3-0.7-0.8-1.2-0.7-2.7-0.7-1-0.5-0.7-1-0.5-5 0.5-0.8 0.8-0.4 2 0.2 2.9 1.7 1 0.2 1.7-0.5 2.5 0.1 1.3-0.2 1.6-1 1.4-1.2 1.6-2 0.3-1.8-0.4-1.4-0.7-1.4-0.5-1.5 0.1-2.5 0.7-1.4 1.3-0.9 7.3-1.6 1.2 0 1.9 1.2 1.9 1.9 0.9 0.7 0.9 0.2 0.9-0.4 0.4-0.8 0.5-2.8 0.7-2.2 1.2-1.9 8.8-9.5 2.3-2.1 1.6-1.8 2.1-1.3 1.2-1.2 0.4-1.2 0.1-1.6-0.5-10.1 7.8 0 3.8-0.8 5.8 2.4 2 0.3 2.1-0.5 1.7-0.7 3.3-0.7 7.4 0.5 2.1-0.1 1.3-0.7 1.5-1.8 1.3-0.9 1.4 0 2.8 0.9 2 0.2 1.5-0.4 2.1-1.1 0.9 0.1 0.4 0.5-0.3 0.9-0.7 1-0.5 1.3-0.1 1.4 0.7 4.1 0.5 8.8 0.6 3.9 1.1 3.4 1.9 2.3 1.4 0.7 1.4 0 1.2-0.4 2.4 0 0.8-0.4 1.2-1 0.8-0.3 3.3-0.2 3.4-0.9 1.5-0.2 2.3 0.3 1.4 0.6 1.7 1.2 1.1 1 5 2.9z" id="sb" name="Sibiu">
	</path>
	<path d="M453.1 420.5l1.3 4.8-1.4 6.6-3.1 6-0.3 1.6 0 1.7 2.2 9.4 0.2 1.8-0.3 1.4-1.7 2.2-0.6 1.2-0.2 1.4 0.1 1.6 1 3.6-0.3 3.7-0.4 3.1 0.2 1.9 0.5 1.5 1.6 1.9 0.7 1 0.8 1.8 0.6 2.2 0.2 3.5-3.2 14.1-1.2 9.1-0.8 3.1 0.1 1.2 1.6 2.6 0.7 1.8 0.1 1.3-0.3 1.2-0.7 1.3-4.1 5-2.7 2 0.2-6.9-1.3-2.3-1.1-0.3-1 0.1-1.1 0.6-1.6 2-3 5.3-0.9 3.5-0.2 2-0.8 3.3-0.6 1.6-0.9 1.9-1.7 2.6-2 2.1 0 1.3 0.5 3.2 1.4 6.4-0.4 2.5 1.2 1.9 1.2 2.8 0.8 3.4 0.3 2.7-1.6 1.4-1-0.5-0.8-1-0.8-2 0.2-2.5-0.9-0.9-1 0-1.3 1-0.5 1.3-0.7 3.1-0.8 1.1-3.1 1.8-2.1 0.2-2.5-0.7-1.4 0-1.1 0.2-1.3 0.7-1.1 1.2-3.3 4.8-1.3 0.6-0.8-0.1-0.8-0.7-1-1.7-0.8-1.1-2.1-1.2-1.2-0.2-2.5 0.6-4 2.5-3-3.1-1.7-2.6-1.3-2.3-2.1-7.3-1-1.3-1-0.9-3.5-2.2-1.6-0.7-1.9-1.1-0.8-1.1-0.5-1.3-0.1-1.2-0.8-3.5 1.5-8.6 0.4-7.9-1.5-17.1 0.2-2.9 0.5-2 1.2-3.3 2.9-11.7 0.1-2-0.4-5.1 0.4-2.2 1.7-5 0.2-1.8-0.5-2.1-1.1-2.7-0.8-4.1 0.2-2.9 1.4-5.8-0.5-1.7-0.8-1.2-1.8-1.4-1.8-0.4-6.5 0.7-1.9-0.1-1.6-0.3-2-1.1-1.2-0.4-5.1 0-3.2-1 1.5-4.4-0.3-1.7-1.5-4.5-0.2-1.4 0.3-2.3 4.4-0.7 2.2 0.2 1.3-0.5 2.1-1.3 3.3-2.6 1.4-0.5 1.8-0.1 1.3-0.3 1-0.8 1.7-2 1.7-0.5 17.6-0.7 4 0.5 3.7 1.7 1.6 0.3 2-0.1 10.6-6.1 1.5-0.5 14.7-3.4 21.6 0.2z" id="vl" name="Vâlcea">
	</path>
	<path d="M551 338l-0.7 2.1 0.4 1.4 0.9 1.6 3.4 2.6 1.4 1.9 0.9-0.9 2.1-0.1 2.2 0.6 1.3 1 0.4 2.7-1.3 5.1 0.3 2.6-0.7 2.1-0.2 3.3 0.1 9.9 0.4 2.3 1 2.1 7.4 5 3.3 3.4 0.3 5.1 1.9 0 1.6-1.1 1.5 1 1.5-0.1 1.5-0.6 1.6-0.3 0.7-1 1.6 2.5 1.9 1 9.8 3.7 2.6 1.9 3.1 3.2 1.7 2.6 1.6 3.3 1.1 0.9 2 0.9 2 1.1 2.1 1.8 3.2 5.1 2.3 2.4-5.8 12.4-4.9-1-5.6-3.3-2.3-0.3-1.4 0.6-0.9 1.2-0.7 3.4-0.5 1.9-1 1.8-2 1.8-1.8 0.5-1.5-0.3-0.9-0.8-1.4-2.4-0.7-1-1.3-0.8-1.4 0.1-2.9 1-1.5-0.3-4.5-1.7-4.5-0.9-2.4 0.1-17.8 3.2-1.4 0.5-1.7 1.2-2.1 1-0.8 0.9-0.9 1.9-0.5 1.6-2 2.5-6.4 1.7-3.5-4.2-5.9-13.1-1.5-2-1.7-1.2-1.7-0.6-1.8-1.2-4-3.5-2.5-1.5-11.8-1.6-6.5 0.6-3.1-0.2-1.3 0.1-1.2 0.5-1.9 1.2-1.3 0.4-0.8-0.5-1.5-2.5-1.7-1.8-1.4-0.8-1.6-0.4-6.7 0.6-0.2-3.1-0.3-2.3-0.4-4.3-0.9-5-1.1-3.7-3.3-7-0.1-1.5 0.5-1.3 1.6-1.3 3.8-1.6 2-0.5 1.8-0.8 1.4-1.1 0.6-1.6-0.3-1-1.5-0.9-0.6-0.8-0.3-1 0.2-2.9-0.4-1.2-1.5-1.7-0.4-0.9 0.1-1.2 0.7-0.9 4.7-2.5 1.6-1.7 1.8-1 1.2-0.2 1.7 0.7 0.7 0.1 0.9-0.5 0.3-1.5-0.1-1.1-0.7-2 0.3-1 0.6-0.7 5.9-3.2 6.3-5.2 2.2-3-0.6-3.2 1-2.9 1.1-1.2 2.3-2 1.5-0.8 1.5-0.5 9.7-0.4 5.3-1.2 5.6-0.9 5.8-2.7 1.8 0 1.8 0.4 2.2 1.1 1.7 1.7 1.6 1.2 4.7 1.7 2.9 3.2z" id="bv" name="Brașov">
	</path>
	<path d="M635.1 331.3l4.4-1.5 3.4-3 0.9-0.1 0.8 0.4 1.5 1.8 0.8 0.8 3.9 2.4 1 1.3 0.6 1.3-0.3 1-1.4 1.6-0.3 1.1 0.6 1.4 2 1 1.2 0.9 0.9 1.1 0.5 1.3 1 3.3 1.4 2.6 1.7 0.9-6.7 10.8-1.7 5-0.2 2.2-1.5 7.7-0.9 7.4 1 3.2 0.5 1.4 0.3 1.7-0.2 1.8-2 4.2-0.4 1.8-0.2 1.7-0.4 2-0.9 2-1.7 2.6-0.6 2.1-0.8 3.5-1 1.4-1.9 1-1.8-0.1-1.2-0.6-1.9-1.9-1.1-0.7-1.1-0.2-1 0.4-1 1.6-0.4 1.5-0.4 2.8-0.7 0.9-1.3 0.5-5.2 0.2-4.1 1.3-2.3-2.4-3.2-5.1-2.1-1.8-2-1.1-2-0.9-1.1-0.9-1.6-3.3-1.7-2.6-3.1-3.2-2.6-1.9-9.8-3.7-1.9-1-1.6-2.5-0.7 1-1.6 0.3-1.5 0.6-1.5 0.1-1.5-1-1.6 1.1-1.9 0-0.3-5.1-3.3-3.4-7.4-5-1-2.1-0.4-2.3-0.1-9.9 0.2-3.3 0.7-2.1-0.3-2.6 1.3-5.1-0.4-2.7-1.3-1-2.2-0.6-2.1 0.1-0.9 0.9-1.4-1.9-3.4-2.6-0.9-1.6-0.4-1.4 0.7-2.1 2.6-5.2 1.6-1.5-0.1-1.4 0.4-0.9 3.8-4.2 2.2-1.6 1.6-1.8 3.8-5.5 1.7-1.6 3.5-2.3 1.3-1.3 1.2-0.9 1.4-0.3 1.6 0.9 2.8 2.5 1.2 1.2 0.7 1.3 0.8 4.4 3.9 7.6 4.2 3.4 1 1.2 0.9 1.5 1.8 1.5 3 1.5 9.8 0.8 27.4-6z" id="cv" name="Covasna">
	</path>
	<path d="M573.9 191.8l2.4 0.6 2.9 1.3 1.6 1 1.4 1.8 1.3 2.3 1.8 4.6 1.3 2.6 1.9 2.5 3.5 2.7 1.5 1.5 0.9 1.5 0.6 2.6-0.1 1.2-0.4 0.7-0.7 0.1-1.9-0.4-1.1 0.1-1.3 1.1-0.2 1.3-0.1 1.6 1.2 25.6 0.5 1.9 0.9 1.7 1.6 1.9 3.5 3.5 1.2 0.7 1.1 0.1 0.4-0.9-0.1-1.4-0.7-3.3 0-1.4 1.1-0.7 1-0.3 8.6 2.1 0.3 11.4 1.8 7 1.4 2.5 1.5 2.3 1.4 2.8 0.1 1.8-1.1 1-1.4 0.6-1.5 1.3-0.9 2-0.5 4.3 0.6 2.2 1.5 1.4 4.3 1.2 5.6 0.8 1.5 0.9 1.6 1.7 0.5 1.8 0.1 1.8-0.8 3.6-0.1 2.1 0.9 1 1.5 0 2.7-0.8 4.2-2.3 1.5-0.3 1.5 0.2 1.8 1.1 0.6 1.3 0.2 1.4-1.5 4-0.2 1.3-0.5 6.2-0.4 1.6-1.3 2.7-0.5 1.6-0.8 5.8-27.4 6-9.8-0.8-3-1.5-1.8-1.5-0.9-1.5-1-1.2-4.2-3.4-3.9-7.6-0.8-4.4-0.7-1.3-1.2-1.2-2.8-2.5-1.6-0.9-1.4 0.3-1.2 0.9-1.3 1.3-3.5 2.3-1.7 1.6-3.8 5.5-1.6 1.8-2.2 1.6-3.8 4.2-0.4 0.9 0.1 1.4-1.6 1.5-2.6 5.2-2.9-3.2-4.7-1.7-1.6-1.2-1.7-1.7-2.2-1.1-1.8-0.4-1.8 0-5.8 2.7-5.6 0.9-8.3-8.9-5.6-4.3-1.7-0.7-5 0.2-2-0.7-1.9-1.8-8.4-10.2-0.6-1.3 0.1-1 0.8-0.8 2.3-1 2.6-2 2.6-0.6 1.2-0.6 0.6-1.1 0-1.6-0.8-1-2.9-2.1 0-1 0.8-1 6.6-2.7 1.1-1.1 0.5-1.2 0.5-5.8 0.5-1.7 0.8-1.4 6.2-6.5 1.4-0.9 4.5-1.9 1.8-1.2 1.3-1.4 3.8-5.9 1.5-1.7 4.6-3.8 0.9-1.5 0.2-1.5-0.3-4.1 0.3-2.9 0.6-3.4 0.1-2.1-0.8-2.5-2.3-6.4-0.6-3.5 1.7-10.4-0.3-9.4-0.4-2.4-0.7-1.9-1-1.4-2.4-2.4-1.5-3-0.7-5.9 4 1.6 2.9 0 1.4-0.6 0.9-1 0.6-1.3 0.2-2.7 0.3-1.4 1-1.8 1.8-1.2 2.1-0.9 2.6-0.6 1.8 0.1 1.8 0.8 11.8 8.1 1.2 1.2 1 1.5 1.3 1.4 1.7 1.1 1.6 0.2 2.2-0.3 1.5-0.5 5.6-0.8z" id="hr" name="Harghita">
	</path>
	<path d="M832.6 225.1l-0.8 0.5-5.4 0.7-1.8 1.1-1.7 1.3-1.2 0-1.3-0.6-1.9-1.5-0.9-0.1-1.3 0.8-0.4 1-0.9 0.7-1.5 0-3.9-1.3-3.4-2.2-1.1-0.3-1.7 0.2-1.4-0.1-1.1-0.9-0.1-1.1 1.7-5.6 0.1-1.7-0.4-1.5-0.9-0.9-1.3-0.2-1.4 1-0.5 1.4 0 2.9-0.3 0.9-0.7 0-1.2-0.8-4-5.3-2.9-3-6.3-5-1.4-0.7-1.2 0-0.8 1-0.2 1.1 0.8 2.3 0.1 2.5-0.5 2.3 0.2 0.7 0.7 0.5 1.2 0.1 1.9-0.3 1 0.7-0.2 1.8-0.5 1-1.3 0.7-2.1 0.3-3.9-0.7-1.9-0.8-1.5 0-0.7 1-1.2 2.4-1.1 1-3.9 1.3-1.9 0.1-2.6-0.6-1.9-0.7-2-0.6-2 0-7.9 1.4-12.2-0.8-0.5-2.1-0.6-1.3-1.9-3.3-2.2-3-1.2-1.9-0.1-1.6 0.7-1.5 1.4-1.4 1.8-1 1.9-0.8 3.1-0.8 0.9-0.7 0.4-1.1-0.6-1.3-1.4-1.7-2.4-2.1-1.3-1.5-1-1.5-0.8-2.9-0.9-1.2-1.3-0.7-2.4-0.2-1.7 0.4-1.4 0.8-3.6 4.3-1.1 1-1.3 0.5-1.9-0.2-5-1.1-1.5 0.3-0.9 0.9-0.9 2.6-0.6 1-0.9 0.5-1.6 0.1-4.3-1-2.7-1.5-6.2-4.8-4.1-2.3-3-0.8-2.4-0.1-2 0.3-1.8-0.1-1.4-0.8-0.9-2.1-0.8-2.4-3.1-7.9-5.4-7.9-7.3-7.2 8.1-1.9 1.1-0.8 0.9-1.2-0.6-1.1-6.5-6-1.1-2.6 0.4-1.4 1.8-0.5 11 1.3 2.3-0.4 0.9-0.9 0.5-1.4 0.1-1.9 1.1-2.9 0.4-1.7-0.3-1.4-1.5-2.2 4.2-4.1 1.5-3.2 0.6-1.7 0.7-0.9 0.9-0.5 1.1 0.1 3.1 2.1 1.7 0.4 17.7 0 1 0.4 1.8 1.4 1.6 2 1.1 1.2 1.3 1 2 0.6 1.6-0.3 2.2-0.8 1.1-0.9 0.5-1.1-0.1-1.3-1.9-4.2-0.2-1.4 0.4-1.1 0.7-1.1 1.2-0.9 1.2-0.2 0.8 0.3 1.7 1.4 3 0.6 1.9 0.8 1.8 1 1.4 0.4 2.9 0 1.2-0.7 0.9-1.1 0.4-2.7 0.6-1.1 1.8-2 1.8-2 1.2-0.8 1.3-0.1 1.7 0.4 4.3 0.1 5.8-2.8 1 3.6-0.1 1.4 0.7 0.9 1.4 0.3 0.8 4.2 0.6 2.3 1.2 1 0.9 0.1 1.5 1 2.8 0.1 1.6 0.5 1.5 0.9 1.4 1.3 0.7 1.5-0.8 0.7-0.6 1.2-0.7 3.4 1.8 1.7-0.8 4.8 1.5 1 1.4 1.2 2.6 6.1 1.3 2.3 0.8 0.5 2.9 0.6 2.8 1.9 2.6 0.7 1.1 1.2 2.1 3.7-0.1 2 1.1 1.9 2.7 3.5 1.3 4.2 0.7 2.3-0.1 0.6-1.2 0.4 1.2 1.7 4.6 2.5 0 1.1-0.6 1.1 2.4 1.5 3.2 3.6 3 2 1.3 1.2 0.1 2.2 2.5 0.5 2.5 1.6 2.3 1.1 2.1-1 0.9 2.5 3.4 4.3 1.5 2.7 2 5.6 0.4 2.7-0.9 2.3 1.7 1.2 0.1 1.8-0.1 1.8 1.2 1.5-0.2 3z" id="is" name="Iași">
	</path>
	<path d="M659.5 161.4l7.3 7.2 5.4 7.9 3.1 7.9 0.8 2.4 0.9 2.1 1.4 0.8 1.8 0.1 2-0.3 2.4 0.1 3 0.8 4.1 2.3 6.2 4.8 2.7 1.5 4.3 1 1.6-0.1 0.9-0.5 0.6-1 0.9-2.6 0.9-0.9 1.5-0.3 5 1.1 1.9 0.2 1.3-0.5 1.1-1 3.6-4.3 1.4-0.8 1.7-0.4 2.4 0.2 1.3 0.7 0.9 1.2 0.8 2.9 1 1.5 1.3 1.5 2.4 2.1 1.4 1.7 0.6 1.3-0.4 1.1-0.9 0.7-3.1 0.8-1.9 0.8-1.8 1-1.4 1.4-0.7 1.5 0.1 1.6 1.2 1.9 2.2 3 1.9 3.3 0.6 1.3 0.5 2.1 0.6 4.8 2.4 6.5 0.4 2.5 0 1.7-1.2 2.5-4.2 2.1-3-0.9-1.1-0.6-8.5-2-2.6 0.1-7.4 1.1-2.1-1.5-1.5-1.6-0.6-1.5 0.1-2.1-0.1-1.1-0.6-1.3-2.2-1.6-1.1-0.1-0.6 0.6 0.2 2.3-0.2 1.3-0.7 1-2.8 2.4-0.5 1-0.1 1.2 0.2 1.3 0 1.2-0.6 1.2-1.2 1-1.7 0.8-1.7 0-1.3-0.7-3.2-2.4-2.8-1-2 0.2-1.3 0.8-0.9 2.1-0.9 1.1-6.5 2.8-1.5 1-2 2.6-0.9 0.8-1.4 0.2-4.3-0.9-3.8 0.9-4 0-1.1 0.4-1 0.9-1.8 2.6-1 0.9-1.8 0.2-8.4 0.1-1.2-0.3-0.3-0.6 0.5-3-0.3-1.1-1.3-2.2-1.2-2.4-0.7-0.8-1.5-0.6-1.3 0.2-1.2 0.7-6.5 4.7-2.7 1.2-2 0.3-1.4-0.3-3.1-1.7-2.4-0.7-1.4 0.1-3.9 1.1-8.6-2.1-1 0.3-1.1 0.7 0 1.4 0.7 3.3 0.1 1.4-0.4 0.9-1.1-0.1-1.2-0.7-3.5-3.5-1.6-1.9-0.9-1.7-0.5-1.9-1.2-25.6 0.1-1.6 0.2-1.3 1.3-1.1 1.1-0.1 1.9 0.4 0.7-0.1 0.4-0.7 0.1-1.2-0.6-2.6-0.9-1.5-1.5-1.5-3.5-2.7-1.9-2.5-1.3-2.6-1.8-4.6-1.3-2.3-1.4-1.8-1.6-1-2.9-1.3-2.4-0.6 0.1-3.4 1.2-4 1.3-2.7 4.7-5.7 1.6-1.5 4.1-2.7 1.8-1.6 0.8-1.5 0.2-1.5-0.2-1.3-0.8-1.1-2.1-2-1.8-2.6-0.3-1.1 0.4-0.9 0.8-0.5 1.2-0.1 1.3 0.5 1.4 1 4.8 4.5 1.3 1 1.4 0.2 1.9-0.3 7.7-3.7 1.5-0.1 1.5 0.5 1.3 0.9 1.8 0.6 2 0.1 5.4-1.5 11.9 0.1 3.8-1 9.9-5.2 2.4-0.6 2.1 0.1 2.1 0.4 1.8 0.8 1.6 1.2 3.7 4.3z" id="nt" name="Neamț">
	</path>
	<path d="M613.4 432.5l6.4 7.6 4.3 3.2 1.4 1.4 1.4 2.2 3.7 7.9 0.5 2.3-0.1 1.4-0.7 1-0.2 1.3 0.5 1.6 3 3.1 1.1 1.5 0.4 3 0.4 1.1 0.7 1 1.5 0.9 1.5 0.3 4.6-0.4 1.2 0.4 1.1 0.9 0.5 1.9 1.1 1 0.9 0.2 2.5-2.2 0.9-0.3 0.5 0.3 0.1 1.1-0.4 2.7 0.3 1.7 1.5 1.7 2.5 2 0.9 1.4 0.7 1.5 0.7 4.4 0.2 5.7 0.5 2.2 0.7 1.6 1.8 1 2.9 0.9 0.9 0.4 2.4 2.3 0.8 1.1 0.6 1.3-0.2 2.1-0.9 1.2-1.9 1.9-0.7 1.1 0 1.4 0.4 1.5 4 4 2 3.6-2.7 3.4-1.3 2.4-1.9 1.6-1.4 0.8-1.5 0.4-5.7-0.5-1.4 0.3-1.5 1.2-1.8 2.1-1.2 0.5-2.3-0.2-2.5-1.4-1.2-0.3-1.5 0.1-3.6 1.7-3.8 3.6-4.4-0.3-1.5 0.2-2.8-1.1-2.4-0.1-6.4 2.1-6.5 0.1-0.8 1.7-0.6 0.6-1.2-0.4-2.1-1.1-1.3-1.1-7.3-9-1.8-1-1.6-0.6-5-0.7-1.2-0.9-0.8-1.4-0.4-2.7 0.6-4.3-0.1-2.1-0.5-2.1-1.4-2.4-1.1-1.2-0.8-0.4-2.9 0.8-1.2 0-2.3-1-1.1-1-0.9-1.6-0.8-1.9-0.8-3.7-0.7-6.4-0.4-1.6-0.9-1.6-4.4-4.9-5.8-11.3-1.2-1.8-2.1-2.3-1.6-2.8-0.1-2.1 0.3-4.1-0.3-1.5-0.7-1.8-1.2-2-1.1-1.2-3.2-2.4-0.7-1.3-0.5-1.8-0.7-6.7-1.9-9.4 1.7-1.2 1.4-0.5 17.8-3.2 2.4-0.1 4.5 0.9 4.5 1.7 1.5 0.3 2.9-1 1.4-0.1 1.3 0.8 0.7 1 1.4 2.4 0.9 0.8 1.5 0.3 1.8-0.5 2-1.8 1-1.8 0.5-1.9 0.7-3.4 0.9-1.2 1.4-0.6 2.3 0.3 5.6 3.3 4.9 1z" id="ph" name="Prahova">
	</path>
	<path d="M678.1 134.4l1.5 2.2 0.3 1.4-0.4 1.7-1.1 2.9-0.1 1.9-0.5 1.4-0.9 0.9-2.3 0.4-11-1.3-1.8 0.5-0.4 1.4 1.1 2.6 6.5 6 0.6 1.1-0.9 1.2-1.1 0.8-8.1 1.9-3.7-4.3-1.6-1.2-1.8-0.8-2.1-0.4-2.1-0.1-2.4 0.6-9.9 5.2-3.8 1-11.9-0.1-5.4 1.5-2-0.1-1.8-0.6-1.3-0.9-1.5-0.5-1.5 0.1-7.7 3.7-1.9 0.3-1.4-0.2-1.3-1-4.8-4.5-1.4-1-1.3-0.5-1.2 0.1-0.8 0.5-0.4 0.9 0.3 1.1 1.8 2.6 2.1 2 0.8 1.1 0.2 1.3-0.2 1.5-0.8 1.5-1.8 1.6-4.1 2.7-1.6 1.5-4.7 5.7-1.3 2.7-1.2 4-0.1 3.4-5.6 0.8-1.5 0.5-2.2 0.3-1.6-0.2-1.7-1.1-1.3-1.4-1-1.5-1.2-1.2-11.8-8.1-1.8-0.8-1.8-0.1-2.6 0.6-2.1 0.9-1.8 1.2-1 1.8-0.3 1.4-0.2 2.7-0.6 1.3-0.9 1-1.4 0.6-2.9 0-4-1.6-4.8-2.3-9.5-1.8-0.6-10.8 0.6-4.7 0.4-1.6 0.4-2.4-0.2-0.9-0.5-0.3-2 0.2-1.2-0.3-1.2-1.6 0.1-1.6 0.8-2.1 1.4-2.4 0.8-2.7-0.1-1.8-0.4-1.5-1.3-2.8-0.8-1.3-2.1-2.7-0.9-1.7-0.2-1.1 0.5-0.9 0.7-0.6 1-0.1 1.6 0.2 1.1-0.7 0.3-1.4-0.1-1-1.4-2.3 0.2-0.8 0.8-0.7 2.7-1.5 1.2-1.3 0.7-2.2-0.1-1.8-0.6-1.6-1.2-2.4-2.8-3.3-8.3-6.8-1.2-1.4 6.3-2.2 0.9-1 0.8-1.5-0.2-1.7-0.9-1.4-4.5-4.8-2.5-4-1.3-4.3 7.9-1.4 6.6-2.9 4.4-4.3 10.2-17 4.6-3.1 51.8-5.7 6.9-2.8 5.6-0.7 3.2-1.5 1.7-0.3 5.1 0.5 6.7-2 7.7-0.1 1.8 9.6 0.7 1.8 1.6 1.5 2.8 1.8 4.3 3.7 5.4 3 2.5 2.5 12 15.4 2 3.5 7 8.7 1.3 2.2 3.4 3.5 1.1 1.9 0.9 3.4 1.7 8.2 0.1 1.9-0.3 4.1 0.2 1.8 0.6 1.6 2.6 3.7 2.6 2.1 4.4 0.6z" id="sv" name="Suceava">
	</path>
	<path d="M737.9 240.5l2.1 2.9 1.5 1.6 4.8 4.1 2 2.2 1.2 2.7 0.1 3.8-0.3 3.5 0.4 3.5 11 19.3 4 9.4 2.4 9.5 1.1 7.1 0.8 19.3-3.2-0.4-3.7-1.1-1 0.1-1.4 1.9-0.8 0.8-1.2 0.3-1.9-0.2-4.5-2.8-2.1-0.4-2.7 0.1-7.8 1.6-2.6 1.5-1.2 1.3-1.8 2.5-1.1 1.1-2.9 1.9-1 1.2-1.2 2.3-0.9 0.7-1.4 0.3-5.5-2-1.4-0.3-1.6 0.2-1.8 0.9-0.9 1-0.8 2.2-0.4 0.6-1 0.2-4.1-1.7-1.6-0.2-1.8 0-2.1 0.5-1.7-0.2-2.6-0.7-4.6-0.2-3.2-0.6-10.2 0.7-1.7 0.5-1.2 1.1-0.7 1.3-0.3 1.4-0.3 4.4-3.2 1.5-12.2-1.8-1.7-0.9-1.4-2.6-1-3.3-0.5-1.3-0.9-1.1-1.2-0.9-2-1-0.6-1.4 0.3-1.1 1.4-1.6 0.3-1-0.6-1.3-1-1.3-3.9-2.4-0.8-0.8-1.5-1.8-0.8-0.4-0.9 0.1-3.4 3-4.4 1.5 0.8-5.8 0.5-1.6 1.3-2.7 0.4-1.6 0.5-6.2 0.2-1.3 1.5-4-0.2-1.4-0.6-1.3-1.8-1.1-1.5-0.2-1.5 0.3-4.2 2.3-2.7 0.8-1.5 0-0.9-1 0.1-2.1 0.8-3.6-0.1-1.8-0.5-1.8-1.6-1.7-1.5-0.9-5.6-0.8-4.3-1.2-1.5-1.4-0.6-2.2 0.5-4.3 0.9-2 1.5-1.3 1.4-0.6 1.1-1-0.1-1.8-1.4-2.8-1.5-2.3-1.4-2.5-1.8-7-0.3-11.4 3.9-1.1 1.4-0.1 2.4 0.7 3.1 1.7 1.4 0.3 2-0.3 2.7-1.2 6.5-4.7 1.2-0.7 1.3-0.2 1.5 0.6 0.7 0.8 1.2 2.4 1.3 2.2 0.3 1.1-0.5 3 0.3 0.6 1.2 0.3 8.4-0.1 1.8-0.2 1-0.9 1.8-2.6 1-0.9 1.1-0.4 4 0 3.8-0.9 4.3 0.9 1.4-0.2 0.9-0.8 2-2.6 1.5-1 6.5-2.8 0.9-1.1 0.9-2.1 1.3-0.8 2-0.2 2.8 1 3.2 2.4 1.3 0.7 1.7 0 1.7-0.8 1.2-1 0.6-1.2 0-1.2-0.2-1.3 0.1-1.2 0.5-1 2.8-2.4 0.7-1 0.2-1.3-0.2-2.3 0.6-0.6 1.1 0.1 2.2 1.6 0.6 1.3 0.1 1.1-0.1 2.1 0.6 1.5 1.5 1.6 2.1 1.5 7.4-1.1 2.6-0.1 8.5 2 1.1 0.6 3 0.9 4.2-2.1z" id="bc" name="Bacău">
	</path>
	<path d="M822.8 445.5l-0.6 2.7-0.3 4.4-0.2 1.1-1.1 1.9-0.5 2.3-1.9 3.1 5.8 5.1 3.6 1.5 3.7-1.5 1.3 1.3 0.8 1.8-1.3 2-1.6 3.1-0.5 2.9 1.6 1.3 2 0.6 2.1 1.6 1.8 2 0.9 1.9-0.4 2-1.2 2-1.6 1.5-1.4 0.7-0.3 0.7 0.7 4.8 0.6 1.2-0.1 1.8-1 1.6-0.3 1.1 1.1 5.4 0.1 3.4-1.5 1.5-0.4 0.7 0.1 7.9-0.8 1.5-2.8 3.8-1.1 2.3-0.4 3.6-0.7 3.1-1.6 2.8-2.1 2-2.2 0.8-2-0.4-3.1-2.1-2.1-0.5-2 0.1-1.7 0.3-3.2-3-0.8-1.1-1.9-1.2-2.2-0.4-4.9 0.5-2.4 0.8-1.8 1-2.4 0.8-4.1 0.9-28.8-0.8-3-1.2-1.3-0.7-1.4-0.2-1.8 0.6-2.4 1.2-2.1 0.1-1.7-0.2-8.7-3.6-0.4-1.1 0.7-6.9-0.7-1.8-2.1-2.2-0.3-1.4 0.4-1.4 1.4-1.3 1.1-0.6 3.8-1 0.9-1.4 0.8-2.6 1.1-5.5 0.5-3.2 0.1-2.4-0.2-1.4-0.5-0.9-1-0.4-2.5 0.1-1.4-0.2-0.8-0.5-0.4-1.1 0.1-4.2-0.1-1.5-0.7-1.2-0.8-0.7-2.3-0.9-0.6-1-0.1-1.6 0.1-3-0.1-1.3-0.4-1.1-0.7-0.8-0.9-0.5-1-0.1-0.9 0.4-0.7 0.6-0.1 2-0.3 1-1 0.9-1.2 0.3-1-0.3-0.7-0.6-1.6-4.1 0.1-2.2 0.9-1.2 1.5-1.3 8.4-2.9 5 0.7 1.3 0 4.2-1.3 1.4 0 2.7 1.1 0.6-0.6 0.4-2.2-0.5-3.4 0-1.6 0.7-1.2 2-0.9 1.6 0 1.6 0.3 1.3-0.3 1-1.2 0.8-3.4 0.7-2.1 1.9-3.3 0.4-2.9 1-3.1 2.6-4.1 2.7-3.5 1.9-1.7 2.1-1.4 6.2-2.3 6.1 2.7 3.7-0.2 1.9-0.4 1.3 0.3 0.9 0.9 2.1 2.6 3.6 3.1 5.8 3.2 3.7 0.7 6.9-0.3 2.5 0.4 2.6 0.9 6.4 0.8z" id="br" name="Brăila">
	</path>
	<path d="M758.8 446.9l-0.4 2.9-1.9 3.3-0.7 2.1-0.8 3.4-1 1.2-1.3 0.3-1.6-0.3-1.6 0-2 0.9-0.7 1.2 0 1.6 0.5 3.4-0.4 2.2-0.6 0.6-2.7-1.1-1.4 0-4.2 1.3-1.3 0-5-0.7-8.4 2.9-1.5 1.3-0.9 1.2-0.1 2.2 1.6 4.1 0.7 0.6 1 0.3 1.2-0.3 1-0.9 0.3-1 0.1-2 0.7-0.6 0.9-0.4 1 0.1 0.9 0.5 0.7 0.8 0.4 1.1 0.1 1.3-0.1 3 0.1 1.6 0.6 1 2.3 0.9 0.8 0.7 0.7 1.2 0.1 1.5-0.1 4.2 0.4 1.1 0.8 0.5 1.4 0.2 2.5-0.1 1 0.4 0.5 0.9 0.2 1.4-0.1 2.4-0.5 3.2-1.1 5.5-0.8 2.6-0.9 1.4-3.8 1-1.1 0.6-1.4 1.3-0.4 1.4 0.3 1.4 2.1 2.2 0.7 1.8-0.7 6.9 0.4 1.1-2.3 1.2-0.5 1.5 0.7 0.7 1.9 1.5 0.5 0.8-0.5 0.7-1 0.5-2.4 0.6-3 1.2-1.5 0.1-0.4-0.4-0.1-1.5 0.2-1.9-0.1-1.1-0.6-1-1-1-1.4-0.9-1.7-0.9-2.5-0.7-1.6 0.2-1.3 0.8-1.1 1.2-1.5 0.9-1.5 0-1.4-0.6-3.1-2-2.5-0.9-2.1-0.1-3.7 0.7-1.5 0-2.4-0.8-6.3-1.1-7 0.5-2.5-0.2-1.9-0.5-3.5-3.1-2.4-1.2-2-3.6-4-4-0.4-1.5 0-1.4 0.7-1.1 1.9-1.9 0.9-1.2 0.2-2.1-0.6-1.3-0.8-1.1-2.4-2.3-0.9-0.4-2.9-0.9-1.8-1-0.7-1.6-0.5-2.2-0.2-5.7-0.7-4.4-0.7-1.5-0.9-1.4-2.5-2-1.5-1.7-0.3-1.7 0.4-2.7-0.1-1.1-0.5-0.3-0.9 0.3-2.5 2.2-0.9-0.2-1.1-1-0.5-1.9-1.1-0.9-1.2-0.4-4.6 0.4-1.5-0.3-1.5-0.9-0.7-1-0.4-1.1-0.4-3-1.1-1.5-3-3.1-0.5-1.6 0.2-1.3 0.7-1 0.1-1.4-0.5-2.3-3.7-7.9-1.4-2.2-1.4-1.4-4.3-3.2-6.4-7.6 5.8-12.4 4.1-1.3 5.2-0.2 1.3-0.5 0.7-0.9 0.4-2.8 0.4-1.5 1-1.6 1-0.4 1.1 0.2 1.1 0.7 1.9 1.9 1.2 0.6 1.8 0.1 1.9-1 1-1.4 0.8-3.5 0.6-2.1 1.7-2.6 0.9-2 0.4-2 0.2-1.7 0.4-1.8 2-4.2 0.2-1.8-0.3-1.7-0.5-1.4-1-3.2 4.7 4.5 4.4 6.4 6.9 12.2 2.1 2.4 1.8 1.5 3 0.4 1.5-0.1 2.4-0.8 1.3 0 2.4 1 6.7 5.8 2.3 2.9 3.6 2.7 4.5 2.6 1.3 0.5 2.1 0.3 1.5 0.6 1.8 0.1 0.7-1.6-0.4-1.3 1-1.1 1.6-0.1 2.5 0.5 3.2 1.4 1.8 1.4 0.6 1.3 0 3.1 0.8 1.9 2.7 2.9 1.9 1.3 1.4 0.5 1.4-0.1 1.2-0.5 2.6-1.5 1.2-0.4 1.5-0.1 0.6 0.6 0.2 1-0.3 2.7 0.4 1.4 0.9 0.2 1-0.4 1.8-1.9 1-0.8 1-0.3 1.7 0.3 1.2 0.7 1 1 0.9 0.3 1.8-0.1 1.3 0.3 0.8 0.7 0.4 1 0.4 2.4 0.7 1.1 1.1 0.6 5 1.4 2.4 0.3 4.8-0.2z" id="bz" name="Buzău">
	</path>
	<path d="M831 339.5l-0.7 2.2-0.9 0.5-0.2 1.6 0.6 0.4 0.1 0.9-1.3 5.3-0.2 1.5 0.3 2.2 2.6 7.6 0.5 2.6 1 2.2-0.6 2.3-0.2 1.2 0.3 1.2 1.2 2.5-0.3 0.7-1.4 1-0.5 0.8 0.3 4.4 1.6 4.6 1.9 3.6 0.9 1.5 0.9 15.1-0.2 2.5 0.7 1.9-1.5 0.8-3.5-0.1-1.4 0.5-1.7 1.3-1.8 1.7-1.3 1.7 5.9 3.1 2.4 1.9 2.6 4.8 0 5.1 0.8 1.5 4.2 5.2 0.2 0-1.6 2-0.9 3-1 0.6-1.1-0.2-3-1.5-1.9-0.6-2.1 0.2-4.6 1.6-1.1 0.2-0.7 0.5-1.5 2.4-6.4-0.8-2.6-0.9-2.5-0.4-6.9 0.3-3.7-0.7-5.8-3.2-3.6-3.1-2.1-2.6-0.9-0.9-1.3-0.3-1.9 0.4-3.7 0.2-6.1-2.7-2.8-3.1-1-1.7-1.9-5.3-0.4-1.1 0-3.2-0.8-3.3-0.9-2.1-1.1-1.8-2.2-2.2-1.8-3.1-1.1-0.7-2.9-1.5-1-1-2.7-3.9-1.4-3.3-0.6-2.2-11.2-28.4-1-4.1 0.1-3.3 0.3-1.7 0.8-1.5 0.9-1.2 1.5-1.6 2.6-3.3 2.3-2 1.9-1.2 3-0.6 3.7-0.2 1.7-0.5 1.8-1.6 1-1.4 2.2-1.9 6.1-0.4 3.6 5 1.3 2.6 1 4.4 1.3 3.8 0.9 1.7 1.1 0.8 1.3-0.6 0.6-1.6 0-2.3 0.6-4.1 0-1.4-0.9-2.8-2.1-4.1-0.2-1.2 0.4-1 1.4-0.9 18.1 2.3 1.7 0.6 0.8 0.9 0.3 2.3 0.7 0.9 1.1 0 0.9-0.6 1.7-3.1 0.8-1.3 1-0.8 1.7-0.8 1.5 0 7.9 2.6 3.9 2.1 2.7 0.7 1.6 0.1 3.5-0.9 0.4-0.2z" id="gl" name="Galați">
	</path>
	<path d="M832.6 225.1l-0.1 1.3 1.7 4.3 4.2 7.3 0 2.9 5.9 11.9 1.1 4.2 0.3 2.2 0 2.1-0.7 1.7-1 1.9-0.6 2.2 0.9 2.5-0.9 0.7-0.4 1.2-0.2 5.7 0.2 1.2 1.3 2.8 1.3 0.4 0.1 1.2 0 4.8-0.1 1.3-0.6 1.1-1.5 0.8 0.8 2.1-0.5 0.8-1 0.4-0.7 0.8-0.6 4.6-0.5 0.7-1.3 0.4-0.2 1.1 0.4 3.1 0.1 1.9-1.6 3.7-1.3 1.3-3.2 1.4-0.4 1.1 0.3 2.6-0.2 0.8-2.5 0.9 0.3 1.3 1.9 3.2 1.3 1.9 0.3 1.3-1.2 3.6-0.6 3.7-2.1 6-0.4 0.2-3.5 0.9-1.6-0.1-2.7-0.7-3.9-2.1-7.9-2.6-1.5 0-1.7 0.8-1 0.8-0.8 1.3-1.7 3.1-0.9 0.6-1.1 0-0.7-0.9-0.3-2.3-0.8-0.9-1.7-0.6-18.1-2.3-1.4 0.9-0.4 1 0.2 1.2 2.1 4.1 0.9 2.8 0 1.4-0.6 4.1 0 2.3-0.6 1.6-1.3 0.6-1.1-0.8-0.9-1.7-1.3-3.8-1-4.4-1.3-2.6-3.6-5-1.4-7-0.8-19.3-1.1-7.1-2.4-9.5-4-9.4-11-19.3-0.4-3.5 0.3-3.5-0.1-3.8-1.2-2.7-2-2.2-4.8-4.1-1.5-1.6-2.1-2.9 1.2-2.5 0-1.7-0.4-2.5-2.4-6.5-0.6-4.8 12.2 0.8 7.9-1.4 2 0 2 0.6 1.9 0.7 2.6 0.6 1.9-0.1 3.9-1.3 1.1-1 1.2-2.4 0.7-1 1.5 0 1.9 0.8 3.9 0.7 2.1-0.3 1.3-0.7 0.5-1 0.2-1.8-1-0.7-1.9 0.3-1.2-0.1-0.7-0.5-0.2-0.7 0.5-2.3-0.1-2.5-0.8-2.3 0.2-1.1 0.8-1 1.2 0 1.4 0.7 6.3 5 2.9 3 4 5.3 1.2 0.8 0.7 0 0.3-0.9 0-2.9 0.5-1.4 1.4-1 1.3 0.2 0.9 0.9 0.4 1.5-0.1 1.7-1.7 5.6 0.1 1.1 1.1 0.9 1.4 0.1 1.7-0.2 1.1 0.3 3.4 2.2 3.9 1.3 1.5 0 0.9-0.7 0.4-1 1.3-0.8 0.9 0.1 1.9 1.5 1.3 0.6 1.2 0 1.7-1.3 1.8-1.1 5.4-0.7 0.8-0.5z" id="vs" name="Vaslui">
	</path>
	<path d="M769 329.4l1.4 7-6.1 0.4-2.2 1.9-1 1.4-1.8 1.6-1.7 0.5-3.7 0.2-3 0.6-1.9 1.2-2.3 2-2.6 3.3-1.5 1.6-0.9 1.2-0.8 1.5-0.3 1.7-0.1 3.3 1 4.1 11.2 28.4 0.6 2.2 1.4 3.3 2.7 3.9 1 1 2.9 1.5 1.1 0.7 1.8 3.1 2.2 2.2 1.1 1.8 0.9 2.1 0.8 3.3 0 3.2 0.4 1.1 1.9 5.3 1 1.7 2.8 3.1-6.2 2.3-2.1 1.4-1.9 1.7-2.7 3.5-2.6 4.1-1 3.1-4.8 0.2-2.4-0.3-5-1.4-1.1-0.6-0.7-1.1-0.4-2.4-0.4-1-0.8-0.7-1.3-0.3-1.8 0.1-0.9-0.3-1-1-1.2-0.7-1.7-0.3-1 0.3-1 0.8-1.8 1.9-1 0.4-0.9-0.2-0.4-1.4 0.3-2.7-0.2-1-0.6-0.6-1.5 0.1-1.2 0.4-2.6 1.5-1.2 0.5-1.4 0.1-1.4-0.5-1.9-1.3-2.7-2.9-0.8-1.9 0-3.1-0.6-1.3-1.8-1.4-3.2-1.4-2.5-0.5-1.6 0.1-1 1.1 0.4 1.3-0.7 1.6-1.8-0.1-1.5-0.6-2.1-0.3-1.3-0.5-4.5-2.6-3.6-2.7-2.3-2.9-6.7-5.8-2.4-1-1.3 0-2.4 0.8-1.5 0.1-3-0.4-1.8-1.5-2.1-2.4-6.9-12.2-4.4-6.4-4.7-4.5 0.9-7.4 1.5-7.7 0.2-2.2 1.7-5 6.7-10.8 12.2 1.8 3.2-1.5 0.3-4.4 0.3-1.4 0.7-1.3 1.2-1.1 1.7-0.5 10.2-0.7 3.2 0.6 4.6 0.2 2.6 0.7 1.7 0.2 2.1-0.5 1.8 0 1.6 0.2 4.1 1.7 1-0.2 0.4-0.6 0.8-2.2 0.9-1 1.8-0.9 1.6-0.2 1.4 0.3 5.5 2 1.4-0.3 0.9-0.7 1.2-2.3 1-1.2 2.9-1.9 1.1-1.1 1.8-2.5 1.2-1.3 2.6-1.5 7.8-1.6 2.7-0.1 2.1 0.4 4.5 2.8 1.9 0.2 1.2-0.3 0.8-0.8 1.4-1.9 1-0.1 3.7 1.1 3.2 0.4z" id="vn" name="Vrancea">
	</path>
	<path d="M637 540.6l2 0.6 4.2 0.6 1.1 0.4 0.6 0.7 0 2.5 0.3 1.2 0.8 1.5 0.3 1.2 0.2 2.4 1.1 1.4 6.5 3.6 0.9 1.1 0.3 1-0.5 1.2-0.7 0.8-4.1 2.9-0.9 1-1.2 2.3-0.5 2.5 0.3 1.2 0.9 1.3 3.3 1.7 2.5 1.9-1.9 1.3-0.4 0.9-0.1 1.9 1 1.1 1.5 0.9 2 0.7 0.6 0.6 0.1 0.8-1.2 2.4-1.2 1.3-6.3 3-2 1.4-1.8 1.8-2.7 3.6-2.7 4.3-1.2 3.9-5.7 6-2.6 2.1-1.3 0.8-1.4 0.3-1.4 0.1-1.6-0.3-1.7-0.4-1.6-0.8-1.8-1.1-8-7.2-1.2-0.6-2.4 0-0.9-0.3-0.8-0.8-0.8-1.8-1.5-1-2-0.7-2.8-1.4-1.1-1.8-0.7-2.8 1-6.7 1-2.9 1.7-3.3 0.5-1.6 0.4-4.3-2.6-5.7 2.4-1.9 5-6 1-1.4 0.5-1.3-0.4-1.2-3.6-1.2-0.4-0.9 0-0.9 0.4-0.9 2.3-1.7 0.6-1 0.4-1.5 0.7-1.5 1.3-1 2.6-3.1 0.6-0.6 0.8-1.7 6.5-0.1 6.4-2.1 2.4 0.1 2.8 1.1 1.5-0.2 4.4 0.3z m-6.2 48.2l-4.6-3.9 2.6-7.6-8.3-2-0.9-9.9-7.1 2.6-5.1 8.9 5.6 2.4 0 4.7-7 0.6 0 4.7 7 7.5 5.8 1.3 5.1 6.7 2.8-2.5-3.3-8.1 0.8-2.3 5 1.6 1.6-4.7z" id="if" name="Ilfov">
	</path>
	<path d="M902.5 552.5l-6-1.4-6.1-3.2-6.8 2.1-8.4 0-7.6-3.2-5.3-6.4-6.1 0-2.2 6.4-4.6 1.1-9.1-8.6-5.3-2.1-9.6 0.8 1.6-2.8 0.7-3.1 0.4-3.6 1.1-2.3 2.8-3.8 0.8-1.5-0.1-7.9 0.4-0.7 1.5-1.5-0.1-3.4-1.1-5.4 0.3-1.1 1-1.6 0.1-1.8-0.6-1.2-0.7-4.8 0.3-0.7 1.4-0.7 1.6-1.5 1.2-2 0.4-2-0.9-1.9-1.8-2-2.1-1.6-2-0.6-1.6-1.3 0.5-2.9 1.6-3.1 1.3-2-0.8-1.8-1.3-1.3-3.7 1.5-3.6-1.5-5.8-5.1 1.9-3.1 0.5-2.3 1.1-1.9 0.2-1.1 0.3-4.4 0.6-2.7 1.5-2.4 0.7-0.5 1.1-0.2 4.6-1.6 2.1-0.2 1.9 0.6 3 1.5 1.1 0.2 1-0.6 0.9-3 1.6-2 2.4-0.3 3.1 1.7 2.1 2.9-0.6 3 3.1 8.1 2.1 3.7 2.4 1.6 1.8 0.5 3.7 2.1 9.4 2.4 8.7 4.6 14.1 3.2 3.9-0.5 3.3-0.1 1.4-0.6 1.1-1.4-2.9-1.3-0.8-0.7-0.8-2.5 0.2-1.1 3-1.6-0.1-2.2 0.1-2.2 2.8-0.7 1.6 0.6 2.8 2 2.4 0.4 1.3 1 1.8 1.9 2.1 1.2 2.4-0.9 0.5-1 0.3-2.9 0.6-1.3 1.7-0.9 2.4-0.1 1.4-0.7 5.4-4.5 4.3-1.2 1.8-0.8 1.5-1.6 0.9-0.4 2.6-0.2 0.5-0.4 0.4-1.1 0.9-1.1 1.6-1.4 2.3-1.2 1.7-0.1 1.7 0.3 2.2 0 1.9-1 1.4-1.6 1-0.7 1.1 0.3 2.2 0.9 8.1 0.9 14.7 5.3 4.9 4.4 1.3 0.7 2.3 2.2 1.8 5.2 0.5 5.8-1.4 4.3 0.7 1 0.1 1.1-0.8 2.2-0.9-0.2-2.8 0.1 0 0.9 1.6 2.2 1.1 2.7 1.9 2 3.4 0.4-2.4 2.5-1.3 4.2-0.9 13.1-0.6 2.6-1.3 4.2-0.3 2.1-0.2 2.4-0.2 2.2-0.8 1.4 0.7 3.2-2.7 4.2 1.4 2.7-0.7 1.8-0.9 0.6-1 0.2-1 0.6-1.5 2.3-0.8 0.7-2.1-1.2-1.2 0.3-2.1 0.8-20.6 3.3-13.1 0.8-3.8 1.3-10.5 7.3-3.1 3.1-2.7 3.8-0.8-1.1 0.1-2.2-1.4-2.7-0.7-2.3 2.4-1 2.5-0.5 3.9-2 4.2-1.1 2.4-1.6 1.9-2.6 0.6-3.4-0.6-1.9-1.3-1.9-3.2-3.4 0.6 2.4 0.2 2.8-1.6-0.4-1.6 1.1-1.4 0.5-1.2-2.2-0.5-2.8-0.2-8.9 1.1-2.9 4.9-1.8 1.2-2-0.9-1.5-4.6-3.1-1.4-0.6-3.2 0-3.3-1.1-1.1 0.2-0.7 2.2-0.6 1.3-1.2 0.6-2.3 0.2-1.1 0.4-3.9 3.7-1.1 1.7-0.6 3.2 0.1 0.8 1 0.8 0.3 1-0.3 0.8-1.1 1.1 0.3 1.4 0.7 1.1 0.9 0.8 2.3 1 5.2 5.4-1.4 1.5-1.5 0.5 1.4 1 0 1.2-1.3 0.8-0.1 1.4 0.8 1.5 1.4 1.2-1 0.8-1.4 0.4-4.7 0.1-1.1 0.5-6.3 3.9-1.1 1-1 2.1-0.2 1.9 0.7 0.8 1.5-1.2-0.4 1.8-2 0.7z" id="tl" name="Tulcea">
	</path>
</svg>
