<svg
	xmlns="http://www.w3.org/2000/svg" 
	viewBox="-35.5 -10.0 200 252.9" 
	aria-label="Map of Portugal"
>
 <path id="PT-01" name="Aveiro" d="m27.01002,47.89l1.23,-0.41l0.14,0.72l1.4,-0.29l0.91,-1.04l0.42,1.03l0.65,0.22l0.09,-0.5l0.79,-0.33l-0.82,-0.39l0.2,-0.55l0.93,0.43l0.25,-0.46l0.59,1.29l1.29,0.88l0.19,-0.9l-0.55,-0.38l0.06,-0.84l1.62,0.49l1.68,-1.65l0.95,0.6l0,0l0.85,0.34l0.2,1.26l-0.32,0.09l0.2,0.56l0.96,0.07l-0.28,0.67l0.59,-0.17l1.92,0.82l1.09,-1.45l0.25,0.19l0.06,0.89l-1.37,1.65l0.15,2.07l0.79,1.3l-0.84,0.75l-1.19,-0.72l-0.73,0.83l-1.28,-0.77l-0.76,0.37l0.57,1.27l-1.13,2.85l-1.88,0.71l0.19,1.19l0.92,0.75l0.08,2.41l1.55,0.78l-1.99,0.83l0.74,2.38l1.1,1.16l-2.7,1.04l0.57,1.85l-1.18,1.34l-0.04,1.72l0,0l-0.05,0.82l-0.55,0.25l-0.94,-0.44l-0.14,1.16l-1.24,0.26l-0.18,1.58l-1.07,-0.54l-1.12,0.07l-0.2,-1.04l1.42,0.01l0.12,-2.9l-0.74,-0.59l0,-0.92l-2.14,0.91l-0.07,-2.67l-0.29,-0.59l-0.98,-0.27l-0.53,0.82l-0.11,1.63l-0.88,-0.09l0,0l-1.23,-1.27l0,0l-2.6,-2.53l0,0l1.01,-4.22l0.07,-0.74l-0.44,-0.14l2.58,-8.59l1.19,-6.92z"/>
  <path id="PT-02" name="Beja" d="m42.18002,158.08l0.39,-0.38l0.66,0.66l2.4,-0.62l1.44,1.16l0.89,-0.75l4.5,2.66l2.52,0.21l2.83,1.85l1.09,-0.37l1.44,0.23l0.7,0.6l2.19,0.01l0.06,-0.73l1.01,-0.41l0,0l0.82,-1.04l0,0l0.18,-0.7l0.73,-0.27l0.39,-0.92l-0.31,-0.33l1.61,-0.04l0.59,-0.86l1.57,-0.41l1.36,2.72l1.71,0.67l-0.28,0.9l1.24,2.57l0.3,0.12l-0.06,-0.67l0.69,0.08l0,0l0.71,-0.66l0,0l0,0l0,0l0.74,0.75l0.57,-0.69l0.22,0.35l0.97,-0.19l0.55,-0.88l0.97,-0.27l0.27,0.37l1.14,-0.72l0.06,0.73l-1.11,1.42l0.53,0.55l-0.58,1.68l-0.54,0.34l-0.45,3.18l-1.41,0.33l-1.64,-1.18l-0.94,0.57l0.24,0.99l-1.66,0.47l-0.91,-0.42l-1.91,0.94l0.45,1l-0.21,1.28l-0.86,1l-0.04,1.14l-1.29,2.12l-2.28,2.06l-0.78,0.2l-0.84,2.45l0.14,1.3l-0.39,0.1l0.04,0.62l-0.4,-0.12l-0.68,1.81l-0.48,-0.04l-0.09,1.91l-0.5,0.04l0.32,1.17l0,0l-1.95,-0.11l-1.39,1.47l-1.81,-0.55l-2.47,1.03l-0.36,-0.31l0.06,0.34l-1.55,0.92l-0.33,-0.25l-0.32,0.55l-0.63,-0.03l-0.1,0.46l-1.12,0.11l0.02,0.77l-0.36,-0.09l-0.17,0.52l-0.53,-0.37l-0.48,0.4l-1.34,-0.13l-0.78,1.17l0.51,0.57l-1.16,0.32l-1.21,1.42l-3.88,-0.9l-1.9,-1.71l-0.83,-0.08l0.32,-0.82l-0.4,-0.69l-1.34,-0.54l-0.29,0.61l-0.24,-0.38l-2.57,0.54l-0.12,1l-0.92,0.69l-2.02,-0.08l-1.74,-1.29l-1.45,0.37l-0.74,1.04l-0.78,-1l-2.19,0.22l-0.51,-1.45l-1.47,-0.44l0,0l0.33,-3.56l-1.07,-2.64l1.06,-4.55l-0.84,-1.39l0.62,-2.81l0,0l0.53,0.58l1.29,-0.39l1.64,2.44l0.71,-0.6l1.38,0.76l0.33,-0.43l0.62,0.13l0.11,-1.69l0.55,-0.77l0.54,0.11l-0.07,-1.25l0.44,-0.24l3.06,-0.27l0.19,-0.43l3.28,0.95l-0.14,-0.77l1.13,-1.3l-0.31,-0.5l0.49,-3.26l-0.8,-1.31l-1.42,0.17l-1.44,-2.03l0.66,-1.69l0.8,0.45l0.24,-1.39l0.55,-0.1l0.15,-0.57l0.72,0.69l0.62,-0.04l0.21,-1.9l1.41,0.29l0.61,-0.93l2.86,-0.86l0.01,-1.69l-1.1,-2.15z"/>
  <path id="PT-03" name="Braga" d="m45.76002,14.18l-0.34,2.48l-0.83,2.02l-0.99,0.99l2.6,-0.49l1.52,0.67l-0.26,3.43l3.66,0.65l0.96,-1.14l1.27,1.76l-0.31,0.72l-0.59,0.12l0.07,0.71l-0.85,0.5l0.08,0.53l-1.01,-0.07l-0.29,1.02l-1.12,0.48l-0.1,1.98l-1.26,1.5l0.43,0.12l-0.21,0.71l0,0l-0.46,1.17l-1.33,1.19l-1.09,-1.02l-0.67,0.58l-1.05,-0.58l-0.84,-0.72l0.21,-0.73l-0.6,-0.14l-0.22,-0.81l-1.51,-0.48l-0.28,0.77l-0.75,-0.03l-1,1.04l-0.3,1.19l-0.92,-0.43l-0.3,-1.07l-2.15,0.63l0.31,-0.8l-0.48,-0.14l-1.01,0.89l-0.77,-0.53l-1.44,0.3l-0.54,0.95l-2.91,0.2l0,0l-0.4,-1.75l0.41,-0.36l0,0l0.62,-0.37l-0.46,-0.52l-1.42,-0.3l-0.62,-1.07l-0.98,0.13l-1.42,-1.11l-0.93,-0.11l0,0l-1.09,-5.93l0,0l1.67,-0.09l1.9,-1.11l1.03,-0.07l0.41,0.47l0.25,-0.98l1.23,0.85l0.85,-0.36l0.46,0.81l0.7,-0.32l-0.21,-1.35l0.81,-0.68l0.1,-1.96l0.53,-0.53l0.46,-0.05l0.04,0.53l0.77,-0.22l1.17,-1.05l1.56,-0.55l0.77,0.44l1.39,-0.06l0.39,-0.83l0.71,0.41l2.39,-1.74l0.91,0.21l0.07,-0.45l0,0l2.25,0.43l1.35,-0.48z"/>
  <path id="PT-04" name="Bragança" d="m85.27002,7l0.99,0.22l0.57,1.71l0.76,0.28l3.32,-0.12l1.05,-1.17l1.22,0.97l-0.68,2.58l1.75,0.5l-0.88,3.94l-0.8,1.47l0.41,0.26l0.45,2.4l1.33,0.98l1.33,-0.4l0.41,-0.77l4.49,0.97l1.51,1.22l0.59,1.09l1.08,0.52l0.39,0.84l-1.51,2.24l-0.66,0.31l0.22,0.58l-0.47,0.08l0.13,0.49l-0.71,0.32l-0.67,1.23l0.17,0.88l-1.05,0.77l0.49,1.04l-1.1,0.31l-0.44,-0.64l-0.73,0.37l-0.12,0.62l0.52,0.44l-1.21,0.48l-0.71,1.79l-1.55,0.58l0.27,0.65l-0.57,0.41l-0.83,-0.4l-1.54,1.53l-0.64,-0.68l-0.26,0.49l-1.53,-0.17l-1.36,1.59l-0.56,1.55l-1.86,1.58l0.44,1.28l-1.73,2.82l-1.88,0.4l-1.51,-0.48l-0.48,0.38l0,0l-1.19,-0.29l-0.72,0.47l-0.19,-0.49l-1.44,-0.31l-0.47,-0.78l-1.37,-0.73l-0.02,-1.01l0.59,-0.89l-1.47,-0.49l0.49,-0.55l-0.08,-1.19l-1.47,2.22l-2.71,-0.79l-1.73,0.23l0,0l-1.68,-0.35l-1.04,-1.98l-1.31,-0.65l0,0l0.56,-1.57l0.85,0.16l-0.13,-1.73l0.93,-0.76l-0.42,-0.44l0.61,-0.7l1.31,-0.3l-1.48,-1.11l0.28,-0.49l-0.45,-1.62l0,0l0.05,-1.06l0,0l2.11,-1.01l-0.1,-0.97l0.56,-1.18l1.73,-0.3l-0.93,-1.7l-0.01,-1.18l1.58,-5.09l1.16,-1.37l0.03,-1.06l-0.72,-0.52l0,0l-0.52,-1.34l0,0l0.31,-2.77l0,0l0.86,-1.67l-0.51,-0.95l0.13,-1.3l1.39,-0.78l1.7,0.73l0.49,1l2.08,-0.03l0.85,-0.99l0.68,0.21l0.42,1.03l1.65,0.2l2.23,-0.26l0.32,-1.97l0.36,0.14z"/>
  <path id="PT-05" name="Castelo Branco" d="m54.25002,80.47l1.53,-0.29l0.76,-0.99l1.7,-0.53l1.17,-1.07l0.32,-0.99l0.87,0.51l1.39,-0.27l0.7,-2.1l0.88,-1.08l0.8,-0.29l0.46,0.62l0.68,-0.21l0.99,0.46l1.1,-0.48l0.46,0.44l0.55,-1.2l0.66,0.31l0.43,-0.53l0.71,0.34l-0.1,2.5l-1.04,1.79l-0.82,0.42l0.43,0.54l2.49,0.92l0.87,-1.14l1.62,0.72l0.8,-0.59l0.17,-1.21l0.59,-0.51l0.89,1.9l1.67,0.01l0.53,-0.49l1.98,1.35l0,0l-0.38,0.79l-1.56,0.53l-0.54,1.61l0.42,0.41l-0.15,1.34l0.89,1.29l1.65,0l0.75,1.91l0.78,0.24l0.9,1.98l-0.72,1.34l0.06,1.59l-0.69,0.69l0.1,2.18l-1.42,1.77l-1.22,0.71l0.33,1.54l-1.23,4.17l-4.29,0.71l-3.16,-0.56l-2.59,1.06l-3.85,-0.88l-2.72,-0.05l0,0l-1.29,0.25l-1.74,1.42l-1.08,-1.07l-1,0.51l-0.6,1.77l-1.03,0.2l-0.47,0.98l-1.74,1.1l0,0l0.46,-1.35l0,0l-0.38,-0.76l0,0l-1.33,-2.01l-0.87,-0.21l-0.71,-1.03l-1.36,0.29l0.13,-2.26l-0.52,-1.17l-0.64,0.69l-0.51,-0.62l-0.97,-0.17l-0.55,0.49l-0.11,2.61l-0.6,0.54l0.69,1.69l-2.51,0.25l-3.21,-1.38l0.23,-4.42l-0.44,-1.05l-0.71,0.41l-0.62,-1.07l0,0l0,-0.03l0,0l-0.25,-0.53l0.66,-0.44l-0.1,-0.94l1.51,-0.56l0.55,0.21l0.75,-1.25l0.56,0.25l0.61,-0.41l0.96,-2l0,0l0.12,-0.6l1.02,0.07l-0.11,-0.75l0.64,0.44l0.3,-0.62l0.74,0.37l0.05,-0.99l0.45,0.56l0.38,-0.06l-0.27,-0.69l0.51,0.46l0.64,-0.45l0.44,0.49l0.33,-1.04l1.61,-0.01l-0.44,-1.23l1.63,-1.04l1.24,0.3l0.53,0.62l0.06,-1.42l0,0l0.31,-0.29l-0.66,0.03l0,0l0.96,-0.38l0.43,0.89l0.96,-1.15l-0.27,-0.32l0.62,-0.25l-0.14,-0.76l-1.9,-1.52l-0.4,-0.84l0.85,-1.98z"/>
  <path id="PT-06" name="Coimbra" d="m22.61002,68.47l2.6,2.53l0,0l1.23,1.27l0,0l0.88,0.09l0.11,-1.63l0.53,-0.82l0.97,0.27l0.29,0.59l0.08,2.67l2.13,-0.91l0,0.92l0.74,0.59l-0.11,2.9l-1.42,-0.01l0.2,1.04l1.12,-0.07l1.06,0.54l0.18,-1.58l1.24,-0.27l0.14,-1.16l0.94,0.44l0.55,-0.25l0.05,-0.82l0,0l0.42,-0.11l0.44,0.63l0.93,-0.14l1.54,1.44l1.83,-0.83l0.25,0.4l0.45,-0.47l1.16,0.49l2.89,-2.16l2.17,-0.81l2.83,-2.81l1.76,-1.05l0,0l0.04,0.69l0.96,1.01l-0.44,0.74l-1.18,0.44l0.09,0.61l0.58,0.45l0.94,-0.08l-0.25,2.3l1.48,0.73l-0.23,0.63l-1.23,0.36l-0.68,1.73l1.38,1.48l0,0l-0.85,1.98l0.4,0.84l1.9,1.52l0.14,0.76l-0.62,0.25l0.27,0.32l-0.96,1.15l-0.43,-0.89l-0.96,0.38l0,0l0.66,-0.03l-0.31,0.29l0,0l-0.06,1.42l-0.53,-0.62l-1.24,-0.3l-1.63,1.04l0.44,1.23l-1.61,0.01l-0.33,1.04l-0.44,-0.49l-0.64,0.45l-0.51,-0.46l0.27,0.69l-0.38,0.06l-0.45,-0.56l-0.05,0.99l-0.74,-0.37l-0.3,0.62l-0.64,-0.44l0.11,0.75l-1.02,-0.07l-0.12,0.6l0,0l-0.43,-0.24l0.71,-1.3l-1.45,-2.07l0.38,-2.09l-1.11,-0.69l-0.97,1.54l-1.03,-0.62l-1.06,0.9l-0.7,1.48l0.87,0.83l-0.28,1.22l-1.09,-1.2l-1.89,2.66l-1.11,-0.33l0.92,-0.97l-1.46,-2.92l-0.34,0.44l0.31,0.75l-0.96,-0.83l-1.05,1.3l-1,0.07l-0.52,1.46l-0.73,-3.25l-0.94,0.02l-0.74,1.45l-0.88,0.08l0.06,-0.85l-1.09,-0.78l-2.87,-0.45l-1.08,1.17l-1.23,-0.66l-0.92,0.21l-0.8,-0.86l0,0l1.02,-3.83l-1.51,-2.06l2.05,-5.9l1.91,-7.84z"/>
  <path id="PT-07" name=" Évora" d="m40.18002,131.2l0.29,0.37l1.38,-1.72l0.36,0.23l0.36,-0.48l0.61,0.6l0.06,-0.44l0.85,0.01l0.17,0.4l-0.69,0.36l0.55,1.41l0.5,-0.29l0.03,-1.21l0.5,-0.39l1.79,1.39l-0.27,1.64l1.12,-0.14l1.96,-1.23l0.94,1.75l0.57,0.21l0.03,0.72l2.72,0.51l0.14,-0.46l1.05,-0.04l0.61,-1.25l1.1,1.08l0.46,-0.69l1.45,0.73l1.05,-1.71l1.25,0.05l0.71,-0.63l-0.34,-0.99l0.62,-0.64l0.65,0.91l0.87,-0.08l-0.09,0.5l1.11,0.45l-0.42,1.55l1.37,0.91l-0.15,1.07l0.73,1.14l-0.62,0.03l0.6,0.45l0.43,1.43l0.73,-0.4l0.42,0.55l0.85,-0.25l0.08,-0.86l0.6,-0.21l0,0l0.38,-0.41l0,0l0.47,0.52l1.1,-0.81l0.58,0.77l0.6,-0.1l-0.79,1.96l0.91,1.26l0,0l-1.77,1.12l-0.4,3.43l0.91,0.58l-2.24,4.43l-0.22,1.43l0.67,-0.18l0.05,0.53l-1.17,1.36l0.59,-0.18l1.18,0.83l0.26,1l3.21,4.63l0.61,0.14l1.35,3.51l0,0l0,0l0,0l-0.71,0.66l0,0l-0.69,-0.08l0.06,0.67l-0.3,-0.12l-1.24,-2.57l0.28,-0.9l-1.71,-0.67l-1.36,-2.72l-1.57,0.41l-0.59,0.86l-1.61,0.04l0.31,0.33l-0.39,0.92l-0.73,0.27l-0.18,0.7l0,0l-0.82,1.04l0,0l-1.01,0.41l-0.06,0.73l-2.19,-0.01l-0.7,-0.6l-1.44,-0.23l-1.09,0.37l-2.83,-1.85l-2.52,-0.21l-4.5,-2.66l-0.89,0.75l-1.44,-1.16l-2.4,0.62l-0.66,-0.66l-0.39,0.38l0,0l-1.05,-0.91l-2.26,-0.44l-0.25,-0.72l-1.43,-0.03l1.22,-1.6l-0.57,-0.49l0.57,-0.06l-0.24,-0.53l-1,0.09l0.4,-0.87l-1.85,-3.51l-1.71,1l-0.71,-0.26l-0.96,0.43l-0.9,-1.24l-0.49,0.19l0.44,0.95l-0.71,0.32l-0.12,-0.68l-1.27,-0.14l-0.08,-0.66l-2.02,-0.06l-0.45,-2.52l4.81,-4.16l-0.31,-0.82l0.63,-1.03l-1.76,-0.09l0,0l1.46,-1.77l0.95,0.5l1.27,-1.58l0.35,-0.14l0.32,0.59l0.99,-1.35l1.14,0.71l0.64,-0.82l0.35,0.58l0.29,-0.93l1.28,0.99l-0.21,0.33l0.51,0.67l0.9,-0.44l0.79,0.87l-0.24,0.35l0.99,-0.07l-0.13,0.51l1.14,0.62l0.51,-1.23l-0.79,-0.66l-0.3,0.53l-0.2,-0.87l-0.67,-0.37l0.91,-1.17l-0.73,-0.53l-0.82,0.2l-0.08,-0.41l-1.95,-0.92l0.93,-1.24l0,-1.43l0.47,-0.56z"/>
  <path id="PT-08" name="Faro" d="m52.89002,210.34l0.55,0.1l-1.95,1.54l0.45,-1.02l0.95,-0.62zm-3.7,-0.07l2.27,1.68l-1.73,-0.23l-1.68,-1.24l1.14,-0.21zm3.92,-0.63l0.37,0.36l-1.61,0.47l1.24,-0.83zm-13.05,-2.4l-2.1,0.43l-2.13,-1.16l-2.25,0.64l-3.12,-1.28l-2.55,-0.2l-1.53,0.64l-0.09,1.1l-1.87,-0.3l-1.93,0.93l-1.64,0.09l-0.75,0.73l-0.96,-0.02l-1.69,1.93l-0.5,-1.25l-1.05,0.11l2.95,-5.64l-0.47,-1.23l0.71,-0.4l1.12,-2.47l-0.56,-2.06l1.05,-1.23l1.53,-3.6l0,0l1.47,0.44l0.51,1.45l2.19,-0.22l0.78,1l0.74,-1.04l1.45,-0.37l1.73,1.29l2.02,0.09l0.92,-0.69l0.12,-1l2.57,-0.54l0.24,0.38l0.29,-0.61l1.33,0.54l0.41,0.69l-0.32,0.82l0.83,0.08l1.91,1.71l3.87,0.89l1.21,-1.41l1.16,-0.33l-0.51,-0.57l0.78,-1.17l1.35,0.13l0.47,-0.4l0.53,0.38l0.17,-0.52l0.37,0.09l-0.02,-0.77l1.13,-0.11l0.09,-0.46l0.64,0.03l0.32,-0.55l0.33,0.26l1.55,-0.92l-0.06,-0.34l0.36,0.31l2.48,-1.03l1.8,0.56l1.4,-1.48l1.95,0.11l0,0l0.64,0.16l0.25,0.95l0.64,0.44l-0.16,0.74l0.74,1.95l-0.54,0.41l0.7,0.71l-0.05,3.15l0.65,1.48l-0.38,0.94l0.64,0.98l0.19,2.12l-1.64,-0.22l-3.2,1.01l-7.37,5.39l-1.02,-0.48l-1.39,0.82l0.01,0.84l-0.46,0.15l-1.78,-1.13l-1.33,0.25l-4.04,-2.62l-2.27,-0.8l-1.56,0.28z"/>
  <path id="PT-09" name="Guarda" d="m65.76002,51.81l1.23,0.85l-0.62,0.88l-1.01,-0.59l0.4,-1.14zm3.58,-9.08l1.74,-0.23l2.7,0.79l1.47,-2.22l0.09,1.19l-0.49,0.55l1.46,0.49l-0.59,0.89l0.02,1.02l1.37,0.72l0.47,0.78l1.44,0.32l0.19,0.49l0.73,-0.47l1.19,0.29l0,0l0.31,1.12l1.97,2.2l0.32,1.96l1.27,0.85l0.23,0.9l0,0.63l-0.79,0.22l0.32,1.8l-0.45,1.84l1.17,3.8l-1.62,3.95l1.41,0.65l0.18,1.61l-1.72,2.48l0.48,1.81l1.69,1.78l-0.41,1.49l-2.12,1.19l-0.3,1.53l-2.54,0.2l0,0l-1.98,-1.34l-0.52,0.49l-1.68,-0.01l-0.89,-1.9l-0.6,0.51l-0.17,1.21l-0.8,0.59l-1.61,-0.72l-0.87,1.14l-2.49,-0.92l-0.43,-0.55l0.82,-0.42l1.04,-1.79l0.1,-2.5l-0.71,-0.33l-0.44,0.52l-0.66,-0.3l-0.55,1.19l-0.46,-0.43l-1.1,0.48l-0.98,-0.47l-0.68,0.21l-0.45,-0.62l-0.8,0.29l-0.88,1.07l-0.7,2.1l-1.39,0.27l-0.87,-0.51l-0.31,0.98l-1.18,1.08l-1.7,0.53l-0.76,0.99l-1.54,0.29l0,0l-1.37,-1.48l0.68,-1.72l1.23,-0.36l0.23,-0.63l-1.48,-0.72l0.25,-2.3l-0.94,0.08l-0.58,-0.45l-0.1,-0.61l1.18,-0.43l0.44,-0.75l-0.96,-1.01l-0.03,-0.69l0,0l5.14,-2.53l2.67,-0.57l-0.26,-0.5l0.73,-2.48l0.75,-0.58l-0.29,-0.73l0.51,-0.55l-1.76,-0.98l-0.18,-0.62l0.82,-0.85l-1.81,-1.34l1.33,-2.96l0.79,-0.82l1.49,0.12l1.91,2.37l1.59,-2.75l0.74,0.41l0.18,-1.82l0,0l1.2,-0.9l0,0l0.35,-1.58l-1.69,-0.8l-0.01,-0.92l1.31,-0.04l-0.26,-1.34l1.25,-3.92z"/>
  <path id="PT-10" name="Leiria" d="m25.70002,107.16l0,0l0,0l0.48,0.63l-0.77,1.27l-0.6,0.47l-0.61,-0.63l-0.4,0.3l0.55,1.99l-2.31,-0.12l-3.19,0.69l-1.33,3.05l-0.72,-0.13l-0.7,0.72l-0.11,3.25l0,0l-1.01,0.14l-0.41,-0.69l-0.85,0.02l-0.18,0.42l0,0l-1.15,0.95l0,0l-1.08,1.9l-1.11,0.72l-0.77,-1.47l0.49,-0.86l-0.42,-1.36l-1.42,-0.1l-0.32,-0.52l-1.3,1.39l-1.4,-0.34l0,0l-0.76,-2.32l-1.39,-0.44l0.39,-0.44l1.59,0.29l3.33,-2.53l0.93,0.76l-0.36,0.26l1.25,-0.04l-0.55,-0.07l-0.83,-1.33l1.77,-2.64l1.08,-0.15l-0.26,-0.7l2.19,-2.7l0.05,-0.59l-0.39,-0.08l1.14,-4.73l4.95,-13.29l0,0l0.8,0.86l0.92,-0.21l1.24,0.66l1.07,-1.16l2.87,0.44l1.09,0.78l-0.05,0.85l0.88,-0.08l0.74,-1.45l0.94,-0.01l0.72,3.25l0.52,-1.46l1,-0.06l1.05,-1.3l0.96,0.83l-0.31,-0.75l0.34,-0.44l1.46,2.92l-0.91,0.97l1.11,0.33l1.89,-2.66l1.09,1.2l0.28,-1.21l-0.86,-0.83l0.7,-1.48l1.06,-0.9l1.03,0.63l0.97,-1.55l1.12,0.7l-0.39,2.09l1.45,2.07l-0.71,1.3l0.44,0.24l0,0l-0.96,2l-0.61,0.42l-0.56,-0.25l-0.75,1.25l-0.55,-0.21l-1.51,0.56l0.1,0.94l-0.66,0.44l0.25,0.53l0,0l0,0l0,0l-1.49,-0.28l0.11,1.67l-0.5,-0.51l-1.1,0.92l-0.76,-0.34l-1.54,1.2l-0.77,-4.39l-0.91,0.94l-0.43,-0.53l-0.69,1.08l-1.62,1.02l-1.33,-0.53l-1.31,0.66l-0.13,1.11l0.52,0.89l-0.47,0.66l1.43,0.6l-0.49,1.37l-1.67,0.92l0.4,2.34z"/>
  <path id="PT-11" name="Lisboa" d="m11.22002,142.6l-2.24,0.55l-2.05,-0.29l-1.35,1.03l-2.16,-1.16l-1.09,0.51l-1.88,-0.76l0.45,-1.68l-0.9,-1.24l2.6,-6.54l0.25,0.18l-0.55,-2.59l0.18,-2.93l2.41,-5.21l0.14,-3.6l0,0l1.4,0.34l1.31,-1.39l0.32,0.52l1.42,0.11l0.43,1.36l-0.48,0.86l0.77,1.47l1.11,-0.72l1.08,-1.9l0,0l1.15,-0.95l0,0l0.19,-0.42l0.85,-0.02l0.41,0.69l1.01,-0.14l0,0l0.61,0.39l-0.19,1.52l0.59,-0.23l1.61,0.83l1.15,-0.64l0.42,0.83l0.93,0.29l0.2,1.51l-1.7,-0.02l-1.03,0.59l1.44,1.77l2.19,1.3l0.51,1.54l-1.32,1.23l-1.16,-0.03l0.6,0.48l-1.13,1.9l0.84,0.29l-1.28,0.74l-0.63,2.27l-1.82,2.5l0,0l-0.66,-1.03l0.36,-0.62l-0.52,-0.66l-0.02,-2.33l-0.77,2.15l-2.05,2.76l-0.57,3.53l-1.38,1.06z"/>
  <path id="PT-12" name="Portalegre" d="m61.99002,103.79l1.19,2.93l1.21,0.69l0.98,1.56l1.25,0.2l0.27,1.57l0.62,0.4l0.46,-0.27l1.69,1.27l-0.9,3.07l0.48,1.84l2.4,2.35l-0.52,1.01l0.21,1.84l1.06,0.85l2.31,0.65l-0.29,2.54l1.22,0.38l2.29,-0.73l1.64,1.19l0.67,1.35l-0.26,0.61l0.53,0.64l-3.19,4.72l0.6,1.14l-0.2,0.57l-0.92,0.42l-0.88,1.55l-1.39,0.4l-2,2.2l0,0l-0.91,-1.26l0.79,-1.96l-0.6,0.1l-0.58,-0.77l-1.1,0.81l-0.47,-0.52l0,0l-0.38,0.41l0,0l-0.6,0.21l-0.08,0.86l-0.85,0.25l-0.42,-0.55l-0.73,0.4l-0.43,-1.43l-0.6,-0.45l0.62,-0.03l-0.73,-1.14l0.15,-1.07l-1.37,-0.91l0.42,-1.55l-1.11,-0.45l0.09,-0.5l-0.87,0.08l-0.65,-0.91l-0.62,0.64l0.34,0.99l-0.71,0.63l-1.25,-0.05l-1.05,1.71l-1.45,-0.73l-0.46,0.69l-1.1,-1.08l-0.61,1.25l-1.05,0.04l-0.14,0.46l-2.72,-0.51l-0.03,-0.72l-0.57,-0.21l-0.94,-1.75l-1.96,1.23l-1.12,0.14l0.27,-1.64l-1.79,-1.39l-0.5,0.39l-0.03,1.21l-0.5,0.29l-0.55,-1.41l0.69,-0.36l-0.17,-0.4l-0.85,-0.01l-0.06,0.44l-0.61,-0.6l-0.36,0.48l-0.36,-0.23l-1.38,1.72l-0.29,-0.37l0,0l0.03,-0.7l-0.71,0.05l-0.58,-1.92l-0.73,-0.32l0,-0.88l-1.38,-0.59l-0.28,-0.6l1.42,-2.16l1.9,-0.74l1.65,-1.5l1.1,-1.29l-0.14,-0.7l0.64,-0.78l1.79,0.35l1.65,-2.59l-0.11,-0.91l1.94,-0.76l0.92,-1.11l-1.71,-1.54l-0.49,-1.04l1.69,-3.72l3.29,2.19l0.83,-1.08l0,0l1.74,-1.1l0.47,-0.98l1.03,-0.2l0.6,-1.77l1,-0.51l1.08,1.07l1.74,-1.42l1.29,-0.25l0,0l0.14,0.09z"/>
  <path id="PT-13" name="Porto" d="m25.57002,41.49l-0.84,-1.46l-0.7,-5.37l-1.5,-3.47l0.37,-2.35l0,0l0.93,0.11l1.42,1.11l0.97,-0.13l0.63,1.08l1.42,0.29l0.46,0.53l-0.62,0.37l0,0l-0.41,0.36l0.4,1.75l0,0l2.91,-0.19l0.54,-0.95l1.45,-0.3l0.76,0.53l1.01,-0.89l0.48,0.14l-0.31,0.8l2.15,-0.63l0.3,1.07l0.92,0.43l0.3,-1.19l1,-1.04l0.75,0.03l0.28,-0.77l1.5,0.48l0.22,0.8l0.61,0.15l-0.22,0.73l0.85,0.72l1.05,0.58l0.67,-0.58l1.09,1.02l1.34,-1.19l0.46,-1.17l0,0l0.05,0.62l0.8,0.32l-0.52,0.97l1.78,1.13l-0.43,0.5l0.16,0.75l1.28,1.28l-1.15,5.11l0,0l-1.26,-0.12l-3.19,1.38l-1.36,-0.46l-1.25,0.71l-2.18,-0.43l-1.88,1.18l0,0l-0.95,-0.59l-1.68,1.65l-1.62,-0.49l-0.06,0.84l0.55,0.39l-0.19,0.9l-1.29,-0.88l-0.59,-1.29l-0.25,0.46l-0.93,-0.43l-0.2,0.55l0.82,0.39l-0.79,0.33l-0.09,0.5l-0.65,-0.22l-0.41,-1.03l-0.91,1.04l-1.4,0.29l-0.14,-0.72l-1.23,0.41l0,0l-0.73,-5.16l-0.75,-1.28z"/>
  <path id="PT-14" name="Santarém" d="m15.97002,118.65l0.11,-3.25l0.7,-0.72l0.72,0.13l1.34,-3.05l3.19,-0.69l2.31,0.12l-0.54,-2l0.4,-0.29l0.61,0.63l1.36,-1.71l-0.97,-3.08l1.67,-0.92l0.49,-1.37l-1.43,-0.6l0.47,-0.66l-0.52,-0.89l0.13,-1.11l1.31,-0.65l1.34,0.53l1.62,-1.02l0.69,-1.08l0.43,0.53l0.91,-0.94l0.77,4.39l1.54,-1.2l0.76,0.34l1.1,-0.92l0.5,0.51l-0.1,-1.67l1.5,0.28l0,0l0.01,0.04l0,0l0.61,1.07l0.72,-0.42l0.44,1.06l-0.23,4.42l3.21,1.38l2.51,-0.24l-0.69,-1.7l0.6,-0.53l0.1,-2.61l0.55,-0.49l0.98,0.17l0.5,0.62l0.64,-0.69l0.53,1.17l-0.13,2.27l1.36,-0.29l0.71,1.02l0.87,0.21l1.33,2.01l0,0l0.38,0.75l0,0l-0.46,1.35l0,0l-0.83,1.08l-3.29,-2.19l-1.69,3.72l0.49,1.04l1.71,1.53l-0.92,1.11l-1.94,0.76l0.11,0.92l-1.65,2.58l-1.79,-0.34l-0.63,0.78l0.14,0.7l-1.1,1.28l-1.65,1.51l-1.89,0.73l-1.43,2.16l0.29,0.61l1.37,0.59l0.01,0.88l0.73,0.32l0.58,1.92l0.71,-0.05l-0.03,0.7l0,0l-0.46,0.56l-0.01,1.42l-0.93,1.25l1.96,0.92l0.08,0.42l0.83,-0.2l0.73,0.53l-0.91,1.17l0.67,0.37l0.2,0.88l0.3,-0.54l0.79,0.66l-0.51,1.23l-1.15,-0.62l0.14,-0.51l-0.99,0.07l0.24,-0.35l-0.8,-0.87l-0.9,0.45l-0.51,-0.67l0.21,-0.33l-1.28,-0.99l-0.29,0.93l-0.35,-0.58l-0.64,0.82l-1.14,-0.71l-1,1.35l-0.32,-0.59l-0.35,0.14l-1.27,1.59l-0.95,-0.5l-1.47,1.78l0,0l-2.09,-0.79l0.53,-2.33l-1.04,0.41l-0.31,0.86l-2.17,-1.45l-1.44,4.14l-1.2,0.35l-1.5,-1.11l-1.69,0.83l-0.37,-0.22l-0.11,0.43l-0.58,-0.95l0,0l-0.6,-0.74l0.45,-0.27l-0.14,-0.77l-1.06,-0.91l0,0l1.82,-2.5l0.63,-2.27l1.28,-0.73l-0.84,-0.29l1.14,-1.9l-0.6,-0.48l1.16,0.03l1.32,-1.23l-0.51,-1.54l-2.19,-1.3l-1.44,-1.77l1.03,-0.59l1.71,0.02l-0.2,-1.51l-0.93,-0.29l-0.42,-0.83l-1.15,0.64l-1.6,-0.83l-0.59,0.23l0.2,-1.52l-0.67,-0.45z"/>
  <path id="PT-15" name="Setúbal" d="m22.75002,154l3.4,0.11l-0.89,-0.95l-0.67,0.05l0,-2.97l-0.57,-0.31l-0.09,-1.48l-0.66,1.32l-0.81,-0.64l0.22,1.13l-0.92,0.22l1.7,0.16l0.06,0.75l-0.77,0.58l-0.59,0.14l0.12,-0.69l-3.29,-1.38l-0.96,0.47l-0.16,0.81l-1.48,0.37l-1.51,1.33l-1.12,0.45l-1.39,-0.33l-0.82,0.55l-1.1,-0.02l-0.86,0.81l-0.85,-0.18l1.3,-3.69l1.19,-0.74l-1.2,0.31l-0.93,-3.58l-1.62,-2.32l3.69,-1.03l-0.01,0.91l1.46,0.68l-0.85,-0.13l0.67,1.27l-0.04,-0.88l0.77,-0.08l1.02,1.63l-0.47,-1.8l-0.82,-0.44l1.57,-0.78l0.11,0.71l0.55,-0.36l0.82,0.77l-0.46,-1.27l1.28,-0.69l-1.98,-0.02l-0.54,0.44l0.14,-1.04l2.6,-1.67l1.16,-0.11l0,0l0.58,0.95l0.11,-0.43l0.37,0.23l1.69,-0.82l1.5,1.11l1.2,-0.35l1.44,-4.14l2.17,1.46l0.31,-0.86l1.04,-0.41l-0.53,2.33l2.09,0.79l0,0l1.76,0.09l-0.63,1.03l0.31,0.82l-4.81,4.16l0.45,2.53l2.02,0.06l0.08,0.66l1.27,0.14l0.12,0.68l0.71,-0.32l-0.44,-0.95l0.49,-0.18l0.9,1.24l0.96,-0.43l0.71,0.26l1.71,-1l1.86,3.51l-0.4,0.87l1,-0.09l0.24,0.53l-0.57,0.06l0.57,0.49l-1.23,1.6l1.43,0.03l0.26,0.72l2.26,0.44l1.05,0.91l0,0l1.1,2.15l0,1.7l-2.86,0.86l-0.61,0.92l-1.4,-0.29l-0.22,1.9l-0.65,0.01l-0.72,-0.68l-0.14,0.56l-0.55,0.11l-0.25,1.38l-0.8,-0.45l-0.66,1.69l1.45,2.03l1.42,-0.17l0.8,1.31l-0.49,3.26l0.31,0.5l-1.13,1.3l0.14,0.78l-3.28,-0.95l-0.19,0.43l-3.06,0.26l-0.44,0.24l0.07,1.25l-0.54,-0.11l-0.56,0.77l-0.1,1.69l-0.62,-0.13l-0.33,0.43l-1.38,-0.75l-0.71,0.6l-1.64,-2.45l-1.29,0.39l-0.53,-0.58l0,0l-0.48,-4.31l-1.41,-0.32l-0.45,-0.73l-0.66,0.08l1.58,-2.76l1.56,-4.99l0.44,-3.72l-0.32,-3.94l-1.31,-3.37l-2.55,-2.86l2.59,1.92l0.82,2.23l-0.26,-2.13l0.86,0.83z"/>
  <path id="PT-16" name="Viana do Castelo" d="m41.33002,0.5l0.29,3.29l2.01,-0.73l0.69,0.42l0.44,1.87l-0.33,0.7l-1.09,0.26l-1.11,0.97l-1.7,2.93l0.53,1.67l0.97,-0.11l0.13,2.46l0,0l-0.07,0.45l-0.91,-0.21l-2.39,1.74l-0.71,-0.41l-0.39,0.83l-1.39,0.06l-0.77,-0.44l-1.56,0.55l-1.17,1.05l-0.77,0.22l-0.04,-0.53l-0.46,0.05l-0.53,0.53l-0.1,1.96l-0.81,0.68l0.21,1.35l-0.7,0.32l-0.46,-0.81l-0.85,0.36l-1.23,-0.85l-0.25,0.98l-0.41,-0.47l-1.03,0.07l-1.9,1.11l-1.67,0.09l0,0l-0.51,-2.47l-0.44,-0.54l-0.15,0.43l-1.13,-3.22l0.18,-2.01l0.46,-0.54l-0.45,-0.45l0.04,-2.08l1.73,-1.73l1.96,-0.93l0.38,-1.38l2.59,-1.55l0.15,-1.17l0.68,-0.75l2.84,-0.27l0.83,-1.08l2.42,-0.12l0.45,0.43l1.49,-0.17l0.59,-0.6l0.98,0.28l0.47,-0.87l1.85,-0.73l0.15,-0.64l0.94,0.14l0.8,-0.89l0.23,0.5z"/>
  <path id="PT-17" name="Vila Real" d="m50.35002,9.63l0.67,0.12l-0.24,2.74l0.61,0.61l0.99,-0.91l-0.12,-0.62l1.68,-0.08l0.9,-0.67l0.95,0.28l1.03,-0.65l1.48,1.12l2.15,-0.03l-0.81,2.23l2.85,-0.54l0.6,-1.16l1.57,0.18l0.28,1.09l0.57,0.38l-0.08,0.97l1.97,-1.92l0.3,0.52l1.3,-0.09l3.62,-1.56l0,0l-0.31,2.77l0,0l0.52,1.34l0,0l0.72,0.52l-0.03,1.06l-1.16,1.37l-1.58,5.09l0.01,1.18l0.93,1.7l-1.73,0.3l-0.56,1.18l0.1,0.97l-2.11,1.01l0,0l-0.05,1.06l0,0l0.45,1.62l-0.28,0.49l1.48,1.11l-1.31,0.3l-0.61,0.7l0.42,0.44l-0.93,0.76l0.13,1.73l-0.85,-0.16l-0.56,1.57l0,0l-2.24,0.48l-0.65,0.82l-0.77,-0.36l-1.33,1.34l-2.36,-0.27l-1.05,0.89l-3.13,-0.85l-0.53,0.67l-1.9,-0.47l-1.19,1.55l0,0l1.14,-5.11l-1.28,-1.28l-0.16,-0.75l0.43,-0.5l-1.78,-1.13l0.53,-0.97l-0.8,-0.32l-0.05,-0.62l0,0l0.21,-0.71l-0.43,-0.12l1.26,-1.5l0.1,-1.98l1.12,-0.48l0.29,-1.02l1.01,0.07l-0.08,-0.53l0.85,-0.5l-0.07,-0.71l0.59,-0.12l0.31,-0.72l-1.27,-1.76l-0.96,1.14l-3.66,-0.65l0.26,-3.43l-1.52,-0.67l-2.6,0.49l0.99,-0.99l0.83,-2.02l0.34,-2.48l0,0l1.2,-0.43l1.22,-1.93l1.68,-0.11l0.49,-2.08z"/>
  <path id="PT-18" name="Viseu" d="m65.31002,39.75l1.31,0.65l1.04,1.98l1.67,0.35l0,0l-1.3,3.89l0.26,1.34l-1.31,0.04l0.01,0.92l1.69,0.8l-0.34,1.58l0,0l-1.2,0.9l0,0l-0.18,1.82l-0.73,-0.41l-1.59,2.75l-1.91,-2.37l-1.49,-0.12l-0.79,0.82l-1.33,2.96l1.81,1.34l-0.82,0.85l0.18,0.62l1.77,0.98l-0.51,0.55l0.29,0.73l-0.75,0.58l-0.73,2.48l0.26,0.5l-2.67,0.57l-5.14,2.53l0,0l-1.77,1.05l-2.83,2.81l-2.17,0.81l-2.89,2.16l-1.16,-0.49l-0.45,0.47l-0.25,-0.4l-1.83,0.83l-1.54,-1.44l-0.93,0.14l-0.44,-0.62l-0.42,0.11l0,0l0.04,-1.72l1.18,-1.34l-0.57,-1.85l2.7,-1.04l-1.1,-1.16l-0.74,-2.37l1.99,-0.83l-1.55,-0.78l-0.08,-2.41l-0.92,-0.75l-0.19,-1.19l1.88,-0.71l1.13,-2.85l-0.57,-1.27l0.76,-0.37l1.28,0.77l0.73,-0.83l1.19,0.72l0.84,-0.75l-0.79,-1.3l-0.15,-2.07l1.37,-1.65l-0.06,-0.89l-0.25,-0.19l-1.08,1.45l-1.92,-0.82l-0.59,0.17l0.28,-0.67l-0.96,-0.07l-0.2,-0.56l0.32,-0.09l-0.2,-1.26l-0.85,-0.34l0,0l1.88,-1.18l2.18,0.43l1.25,-0.71l1.36,0.47l3.19,-1.38l1.26,0.12l0,0l1.2,-1.55l1.9,0.47l0.53,-0.67l3.13,0.85l1.05,-0.89l2.35,0.27l1.33,-1.34l0.77,0.36l0.65,-0.83l2.23,-0.46zm0.05,13.2l1.01,0.59l0.62,-0.88l-1.23,-0.85l-0.4,1.14z"/>
</svg>