<svg
	xmlns="http://www.w3.org/2000/svg"
	viewBox="-20930,-28870 44568,55664"
	aria-label="County Map of Utah"
>
	<path
		id="beaver"
		name="Beaver County"
		d="M -7094,9336 l -36,65 41,106 -26,50 -16,30 10,51 21,55 -11,65 10,66 -20,45 -42,60 36,106 -5,30 -1,106 62,76 -88,115 46,76 15,30 15,20 67,61 5,75 25,30 26,41 15,-10 103,30 61,46 36,55 102,76 41,56 0,70 36,86 25,60 36,56 30,25 67,-10 31,-20 21,-35 41,-75 41,-56 113,56 25,76 21,25 -31,30 -52,40 92,172 31,25 56,30 77,26 41,95 82,61 -6,70 31,56 31,15 102,-5 46,86 36,66 -31,95 -16,50 5,56 0,70 -78,121 21,60 0,65 -62,106 -98,130 -52,146 -41,35 -26,45 0,36 61,75 56,46 67,55 -21,76 -20,40 -21,30 -36,25 -51,30 -98,20 -62,45 -26,75 -41,0 -87,55 -52,65 -72,60 5,46 -5,35 -10,45 -16,10 -31,20 -41,50 5,151 -159,-5 -185,-1 0,25 -46,0 -287,-6 -149,-6 -46,-5 -113,0 -164,-6 -159,0 -159,-6 -52,0 -159,4 -272,-1 -164,0 -190,-1 -154,-6 -25,5 -164,-10 -293,-2 -164,-5 -174,-1 -154,-1 -36,0 -159,-5 -293,4 -159,-6 -164,-1 -190,0 -164,-1 -292,-6 -159,-1 -180,-1 -184,-5 -159,-1 -318,-11 -165,-6 -159,4 -159,-5 -159,-6 -164,-6 -31,0 -615,-7 -164,-1 -164,-11 -211,-6 -108,0 -143,-6 -154,-5 -200,-1 -282,-12 -159,-5 -169,-1 -165,-6 -30,0 -159,-6 -288,-1 -66,-5 -98,-1 -179,-5 -165,-6 -153,-1 -180,-6 -144,0 -164,-6 -154,-1 -164,0 -174,-6 -303,-7 -159,-5 -174,-1 -149,-6 -174,-6 -324,-6 -159,-6 -154,-1 -148,-5 -31,5 -159,-6 -298,-7 -164,-5 -149,-1 -174,-1 -42,-5 7,-252 14,-548 101,-3889 840,19 164,6 180,10 461,13 170,0 159,1 774,19 108,5 51,0 805,19 164,1 642,18 159,6 164,5 184,1 606,13 159,5 820,14 159,6 770,3 169,6 667,7 174,6 149,-4 174,0 323,17 344,1 139,6 338,11 482,2 164,6 370,16 461,7 165,1 646,-3 149,-4 323,-9 569,-3 z"
	/>
	<path
		id="box_elder"
		name="Box Elder County"
		d="M -10797,-28749 l 307,-1 65,0 84,1 680,9 768,5 128,1 819,5 794,3 130,1 501,3 536,2 942,0 201,1 419,-1 271,3 87,2 11,0 144,-2 122,108 25,56 10,116 31,75 45,66 62,5 71,202 35,117 26,95 50,66 41,56 26,10 46,71 66,20 61,46 62,65 30,107 81,96 15,111 87,50 51,117 -10,50 20,106 45,81 26,60 56,96 -6,61 41,76 46,40 72,51 10,91 -26,100 -82,20 -1,1 -3,1 -91,116 10,120 -8,87 -98,149 20,287 -75,64 59,196 124,59 29,120 58,77 36,71 14,91 -7,45 14,110 51,57 4,107 16,87 -33,128 12,56 28,123 17,95 16,55 13,147 121,267 91,-103 217,-115 73,31 67,154 97,-20 88,462 193,16 120,129 -92,130 -286,42 -31,43 9,52 135,75 1,62 58,37 42,39 67,10 -35,151 -10,11 -69,54 -14,6 -99,28 -61,32 -31,33 -146,-50 -5,-1 -121,-120 -54,-79 -47,93 -75,61 8,70 31,47 -5,136 1,44 -72,95 15,39 -4,52 77,95 22,32 -60,15 -67,57 -120,54 -22,41 -65,19 -21,45 -138,30 -46,55 -1772,-11 -124,181 -499,654 -793,1080 -252,322 -499,643 -2554,811 -251,14 -241,9 -164,0 -307,-7 -323,-1 -169,-1 -164,-5 -128,-1 -518,-17 -179,-6 -159,-1 -322,-6 -3924,-124 -481,-12 -164,-6 -825,-9 -164,4 -784,-14 -158,4 -364,-6 -164,-1 -159,-1 -164,-6 -159,4 -29,-5 6,-102 0,-49 4,-118 5,-141 4,-166 4,-171 3,-157 1,-43 4,-128 1,-59 3,-108 0,-53 5,-88 -1,-73 5,-103 4,-166 5,-162 1,-38 5,-128 0,-48 4,-118 4,-142 4,-176 4,-162 4,-161 5,-171 4,-162 3,-131 5,-186 4,-162 4,-161 1,-27 5,-144 1,-33 4,-114 1,-42 3,-94 1,-67 5,-114 5,-162 4,-166 1,-32 0,-140 2,-31 5,-130 1,-52 4,-84 0,-77 3,-100 6,-161 5,-166 1,-37 3,-135 1,-26 0,-51 1,-84 0,-21 4,-131 1,-31 4,-135 4,-166 13,-495 4,-162 12,-469 5,-186 4,-167 11,-474 8,-327 8,-328 4,-152 8,-312 12,-495 8,-312 4,-178 6,-150 1,-17 6,-221 219,11 196,11 153,8 164,8 30,2 164,6 153,7 302,14 26,2 148,10 5,0 164,-2 568,1 169,-1 77,0 92,2 174,1 373,1 307,1 98,0 87,-1 261,6 471,4 338,3 40,0 114,2 203,0 2049,21 159,2 34,1 27,2 594,0 159,-1 z"
	/>
	<path
		id="cache"
		name="Cache County"
		d="M -3390,-28675 l 112,1 1229,-7 1865,-31 1142,-22 9,0 532,15 56,2 44,-2 -7,161 77,25 24,63 61,50 56,106 66,339 25,116 -36,90 0,81 -77,0 -138,-21 -77,66 91,111 -5,86 51,25 31,5 25,15 26,0 10,41 -51,45 -52,70 -30,56 -11,116 0,55 153,157 189,222 -11,61 77,66 20,156 -16,126 51,96 20,96 15,60 5,96 0,81 30,71 15,80 154,51 5,91 20,25 -15,96 -42,60 -41,61 -5,91 35,75 52,10 20,41 25,55 11,36 51,10 25,76 -10,65 -47,71 -46,85 10,46 10,30 -10,25 -31,30 -25,25 -57,35 -15,51 25,86 -11,60 16,76 -16,65 15,56 -5,55 -21,86 -5,75 -47,142 -15,30 -41,10 -26,35 36,66 -26,80 -41,30 -56,5 -6,106 -61,55 -72,101 -11,91 0,75 -57,61 -20,100 -57,61 -67,75 -41,91 25,75 -108,267 -58,32 -9,46 -107,34 -55,35 -31,56 -72,-90 -32,-112 -72,11 -107,-49 -84,109 -116,-32 -105,-10 -59,-2 -44,38 -136,43 -38,101 -54,-19 -124,-236 -104,13 -84,95 -60,20 -97,-92 -119,-27 -19,47 44,88 103,24 3,91 -175,216 16,103 -86,5 0,1 -144,75 -56,10 -143,-96 -56,-51 -31,-66 -46,-40 -46,10 -118,35 -46,-31 -138,25 -87,-50 -97,-31 -70,-37 -36,-7 -62,-78 3,-55 -47,-47 86,-74 -107,-56 35,-151 -67,-10 -42,-39 -58,-37 -1,-62 -135,-75 -9,-52 31,-43 286,-42 92,-130 -120,-129 -193,-16 -88,-462 -97,20 -67,-154 -73,-31 -217,115 -91,103 -121,-267 -13,-147 -16,-55 -17,-95 -28,-123 -12,-56 33,-128 -16,-87 -4,-107 -51,-57 -14,-110 7,-45 -14,-91 -36,-71 -58,-77 -29,-120 -124,-59 -59,-196 75,-64 -20,-287 98,-149 8,-87 -10,-120 91,-116 3,-1 1,-1 82,-20 26,-100 -10,-91 -72,-51 -46,-40 -41,-76 6,-61 -56,-96 -26,-60 -45,-81 -20,-106 10,-50 -51,-117 -87,-50 -15,-111 -81,-96 -30,-107 -62,-65 -61,-46 -66,-20 -46,-71 -26,-10 -41,-56 -50,-66 -26,-95 -35,-117 -71,-202 -62,-5 -45,-66 -31,-75 -10,-116 -25,-56 -122,-108 65,1 66,40 257,0 z"
	/>
	<path
		id="carbon"
		name="Carbon County"
		d="M 7228,-4464 l 948,13 733,-9 585,7 164,5 164,-5 154,1 159,5 0,61 164,0 235,-5 82,1 164,-5 165,5 153,-4 221,-10 164,0 318,-4 164,-5 149,-5 169,1 159,0 307,-4 175,-5 148,0 144,-5 159,1 261,-5 62,0 159,-4 328,0 159,-5 328,6 159,0 174,1 159,-5 369,-4 0,90 107,121 -30,30 -67,-40 -51,-41 -169,10 -16,-45 -46,-35 -61,-6 -21,51 5,80 56,51 10,60 -36,121 -15,86 5,80 -26,30 -185,5 5,70 0,46 10,100 41,36 5,40 -41,30 -20,5 -31,-20 -46,-86 -20,-166 -113,-5 -97,30 -21,5 -31,60 51,91 67,56 15,70 41,25 36,41 -1,50 -66,-5 -118,10 -26,75 -21,55 -72,41 46,55 77,-20 57,30 30,71 -20,80 -6,96 -46,75 -10,41 -36,35 -88,-15 -35,35 -11,55 20,55 36,21 41,20 36,30 10,40 -46,20 -72,0 -15,91 -36,35 -62,65 -41,61 5,50 15,35 21,36 46,15 -1,70 -41,30 -71,36 -52,65 15,96 36,45 31,40 10,111 -21,65 -46,36 -88,9 16,56 35,50 47,20 87,16 5,95 15,71 5,60 20,41 36,70 5,66 -46,45 -26,85 -1,38 -9064,112 0,23 -37,2 72,-275 -92,-152 -25,-201 -102,-106 -82,-71 -25,-121 -51,-50 26,-166 -57,-40 -40,-116 -31,-121 -10,-45 -5,-76 -56,-106 -87,85 -21,76 -77,25 -61,-25 -97,-167 -98,-50 -20,-116 -35,-91 -62,-81 1,-120 -97,-101 -77,-96 -15,-186 -66,-31 -21,-65 -128,-71 -6,-1198 328,6 159,0 415,-4 26,0 159,-4 369,-4 0,-20 410,6 697,2 446,-9 195,5 z"
	/>
	<path
		id="daggett"
		name="Daggett County"
		d="M 14303,-17708 l 489,-11 469,-10 635,-15 687,-15 338,-9 164,-4 117,-2 103,-2 143,-3 298,-6 20,0 671,-19 31,-1 288,-8 19,-1 220,-7 1742,-64 132,-5 7,0 189,-3 656,-10 132,-2 180,-6 271,-1 19,579 5,234 8,179 1,78 6,189 6,310 4,149 0,22 4,215 12,450 4,156 6,197 17,630 11,320 2,128 -156,15 -313,5 -138,-1 -36,-332 -148,5 -123,5 -10,-136 -15,-318 -5,-161 -25,-348 -20,-166 -318,0 -25,-454 -4,-337 -164,5 -471,14 -144,5 -338,10 -502,4 34,786 -118,30 -97,36 -98,85 -66,131 -206,111 -77,70 -82,65 -179,-35 -77,-66 -15,-156 -5,-131 11,-96 15,-70 -20,-91 -15,-116 -26,-40 -46,-76 -41,-30 -87,-45 -225,110 -164,65 -113,25 -190,10 -102,15 -159,141 -180,60 -169,-86 -220,35 -87,-20 -190,-20 -77,80 -108,191 -169,-15 -92,35 -87,15 -123,25 -31,101 -169,30 -139,20 -87,-106 -76,10 -26,-51 -25,-40 -57,-5 -92,-5 -77,-91 -41,-40 -128,-6 -184,-101 -112,-55 -36,0 -98,5 -97,-36 -3,-892 -9,-584 z"
	/>
	<path
		id="davis"
		name="Davis County"
		d="M -1322,-19092 l 55,262 -20,80 20,91 10,111 35,116 -31,55 15,71 26,45 36,56 25,81 25,45 16,66 -31,70 5,45 -1,76 82,10 36,36 36,55 25,66 36,10 20,15 36,71 56,75 66,76 26,66 35,91 72,111 -52,35 -46,-10 -30,-41 -41,40 -21,-15 -56,0 -46,-5 -41,10 5,40 30,51 21,20 40,55 21,46 46,35 10,30 5,51 -11,55 0,46 10,45 46,15 52,46 40,80 -26,76 77,50 41,46 -5,35 15,36 15,65 10,20 10,15 108,16 87,96 -77,20 -31,70 -139,45 -113,70 -61,-5 -113,65 -82,5 -87,45 -62,10 -97,10 -128,65 -134,35 -107,-1 -72,5 -174,4 -190,20 -20,-61 -51,-70 -20,-51 0,-55 -62,-51 -56,-5 -41,-60 11,-76 10,-91 -66,-80 11,-106 92,-141 1,-247 -430,-11 -421,311 -684,511 -539,416 -15,5 -494,407 -1135,-2010 -356,-611 -316,-555 -127,-232 713,-234 164,-50 1410,-459 267,-84 333,1 732,2 349,12 235,0 87,1 113,5 102,51 92,101 154,51 148,-10 108,-4 82,-10 z"
	/>
	<path
		id="duchesne"
		name="Duchesne County"
		d="M 14560,-15572 l 0,30 43,1259 3,907 14,685 18,791 14,720 0,161 5,161 9,398 13,967 0,161 4,166 9,514 5,176 0,227 -1,55 5,318 0,45 14,498 5,161 18,796 5,151 18,816 5,186 24,785 -118,0 -328,-6 -159,5 -328,0 -159,4 -62,0 -261,5 -159,-1 -144,5 -148,0 -175,5 -307,4 -159,0 -169,-1 -149,5 -164,5 -318,4 -164,0 -221,10 -153,4 -165,-5 -164,5 -82,-1 -235,5 -164,0 0,-61 -159,-5 -154,-1 -164,5 -164,-5 -585,-7 -733,9 -948,-13 -19,-624 1,-322 -272,-6 1,-392 -23,-801 -5,-156 -8,-609 -21,-46 -14,-312 -26,-3555 -67,-5 1,-307 1,-166 -5,-171 -13,-826 4,-1280 61,-15 16,-25 -6,-20 -15,-20 -5,-40 -5,-16 -25,-55 -10,-66 -11,-75 47,-45 25,-25 47,-46 -36,-30 -15,-71 61,-9 41,-5 21,-5 97,45 31,10 61,26 56,-35 47,25 61,45 46,31 77,60 20,-15 118,-95 139,-106 41,-25 21,-15 41,-25 118,-65 56,-20 15,-20 26,-10 26,10 35,5 42,-20 30,-10 36,-5 72,0 36,-20 36,-25 36,-10 51,15 31,15 40,16 47,40 56,30 10,0 67,11 51,-31 36,-10 46,16 31,0 51,-50 77,-121 88,-106 25,-20 16,0 35,5 62,36 36,25 61,40 128,-30 57,6 71,10 77,15 62,-50 51,-45 26,-51 61,-35 41,15 26,21 36,50 0,10 61,41 87,-41 67,-15 61,-50 83,-80 30,10 36,20 41,15 36,0 31,-25 41,-30 46,-55 31,10 77,25 51,-20 15,-15 46,-40 21,-25 21,-10 30,20 36,15 41,5 31,15 41,1 36,-21 61,-4 87,-15 82,-20 41,-15 26,-41 -5,-30 41,-30 21,-60 0,-61 21,-70 66,-76 72,46 77,5 118,-30 143,-40 129,-55 61,-20 87,-25 36,-5 41,10 61,25 47,5 51,25 61,11 21,5 51,-5 41,-10 118,50 61,-5 103,31 112,81 31,0 164,-15 112,5 41,5 36,5 57,5 20,6 10,0 51,35 31,20 77,-35 57,-25 128,0 30,10 57,5 30,-10 57,-40 46,-45 16,-10 51,25 143,31 128,45 97,36 98,-5 z"
	/>
	<path
		id="emery"
		name="Emery County"
		d="M 14426,-716 l 11,88 45,141 -41,65 5,91 10,45 0,41 -10,70 51,25 36,5 46,81 -67,96 -47,110 36,116 -62,60 15,81 26,75 -26,51 0,65 -82,50 -21,101 -98,141 -102,-26 20,121 -36,111 97,30 -62,106 -77,25 -41,60 -21,76 -24,44 70,82 77,34 -21,184 92,215 -60,69 -61,-14 -39,-40 -47,40 50,256 -71,108 -108,8 -23,24 -12,1 -82,105 10,61 46,100 10,10 -20,26 -67,15 -52,40 0,85 51,51 57,25 19,19 16,42 -42,48 -62,28 -24,70 2,11 -13,54 21,75 -21,50 -5,56 -6,70 -20,30 -52,55 -56,26 -92,9 5,76 -21,10 -5,20 41,81 5,30 -21,85 -21,61 -36,125 5,66 46,116 0,15 -88,65 -15,45 15,20 39,18 1,4 78,18 29,29 7,26 -52,35 -83,-6 -19,48 52,99 -12,16 -15,46 5,65 31,45 46,51 30,45 31,30 -10,16 -11,15 -113,45 -5,30 46,30 72,66 20,40 21,40 0,10 10,31 -5,35 -11,20 -26,20 -61,10 -149,-21 -46,-5 -20,5 -47,35 -15,31 0,25 -5,35 10,25 0,15 -11,25 0,16 5,15 46,30 77,50 21,26 15,20 5,25 -5,35 -5,45 -16,106 0,81 15,65 36,25 25,-10 67,-75 31,-15 10,0 21,10 15,15 10,25 0,20 -31,101 -41,111 0,25 20,50 16,20 30,15 21,0 36,1 82,-5 20,10 11,15 5,20 -5,10 -16,20 -41,45 10,20 36,16 77,30 36,40 15,51 10,30 0,20 -5,30 -16,15 -41,25 -20,10 -41,35 -6,16 0,25 10,35 11,25 20,30 26,21 56,45 108,30 97,162 10,25 -5,10 0,20 -21,15 -21,10 -61,25 -41,10 -21,15 -15,15 -5,15 -11,35 -5,16 -31,35 -26,30 -15,30 0,20 10,20 36,86 20,55 -15,15 -57,15 -46,10 -26,15 0,10 36,41 21,5 36,-5 25,-10 108,-70 21,-5 25,0 16,5 25,30 10,25 -5,15 -20,20 -83,96 -5,10 0,25 36,65 46,41 41,30 5,30 -62,55 -31,26 16,55 30,15 31,-5 67,-85 46,-10 51,20 6,15 -1,15 -51,111 31,35 102,-70 16,10 -16,111 31,55 20,5 31,-40 16,-76 10,-35 26,-10 36,15 15,26 5,55 -26,45 -41,35 -26,61 0,10 -5,20 56,151 0,40 -21,15 -66,-5 -103,-20 -26,10 -15,25 5,30 15,30 10,15 47,31 87,0 108,-40 128,-10 15,-15 21,-101 21,-30 41,-5 51,15 61,71 31,121 10,131 -108,70 -52,5 -35,-51 -77,-141 -25,-15 -52,5 -56,60 -26,26 -82,95 -31,60 -1,35 16,21 31,5 41,0 25,5 62,60 56,-15 31,-30 21,-5 35,20 21,36 5,70 20,41 36,10 46,-20 36,-36 57,-35 56,16 21,30 -1,50 -61,60 -83,71 -15,50 0,60 30,51 21,15 61,30 10,10 6,30 -6,20 -25,11 -82,-1 -47,0 -25,20 0,51 -6,20 0,10 -25,15 -16,5 -20,0 -31,-15 -118,-56 -31,20 -20,30 -11,30 0,31 16,30 25,10 128,51 16,10 10,10 -11178,124 0,-116 -25,-1805 78,2 -5,-3837 -22,0 -3,-160 -9,-242 2,-705 3,-986 3,-976 -27,-1173 -8,-750 472,-14 -16,-1354 -2,-1298 128,71 21,65 66,31 15,186 77,96 97,101 -1,120 62,81 35,91 20,116 98,50 97,167 61,25 77,-25 21,-76 87,-85 56,106 5,76 10,45 31,121 40,116 57,40 -26,166 51,50 25,121 82,71 102,106 25,201 92,152 -72,275 37,-2 0,-23 z"
	/>
	<path
		id="garfield"
		name="Garfield County"
		d="M -1251,14030 l 190,5 261,-4 216,1 164,5 20,0 124,-4 210,0 118,1 297,1 180,0 349,-4 318,6 231,1 261,-4 421,1 272,6 97,0 1,-40 241,1 1051,8 318,0 165,-4 225,6 93,0 487,1 46,0 134,1 77,5 82,-5 159,1 46,0 400,-4 41,5 72,-5 154,0 92,1 159,0 482,1 36,0 139,1 25,0 134,-5 164,0 477,2 190,0 164,1 159,0 477,-9 164,-5 165,-4 159,0 477,-4 174,-4 164,-5 159,-5 349,1 128,0 160,-4 148,0 159,-5 488,-4 174,1 318,-10 303,-4 164,0 180,1 164,0 159,-5 159,-4 549,1 287,-10 128,1 488,-4 605,-14 5,45 -21,50 -5,10 -51,41 -67,30 -56,20 -36,25 -31,30 -36,75 -16,30 -15,30 -83,46 -30,15 -26,25 -52,80 -25,5 -31,-5 -46,-35 -51,-46 -31,-15 -31,10 -46,35 -52,76 -139,211 -36,70 -10,25 5,71 10,100 -37,81 -112,25 -36,35 -57,141 -31,100 -11,55 15,71 5,60 -5,25 -31,61 -51,45 -41,5 -36,-20 -21,-15 -36,-31 -46,-45 -61,-51 -46,-10 -98,5 -56,35 -21,10 -31,40 -10,26 -15,45 -6,10 -31,40 -46,45 -51,50 -11,11 -15,40 -5,45 -21,45 -26,45 -67,56 -113,85 -87,65 -36,40 -21,36 -10,45 20,80 36,106 15,65 -47,71 5,60 -10,50 -16,26 -41,25 -51,5 -67,-21 -66,-10 -52,10 -133,-30 -67,-6 -56,15 -46,30 -16,36 -21,70 -5,50 20,116 -31,30 -46,15 -36,-10 -10,-5 -5,-15 -25,-81 -21,-80 -10,-35 -30,-31 -31,-5 -93,15 -51,-5 -46,-5 -128,-5 -129,-6 -102,15 -129,20 -138,45 -57,60 10,101 20,55 5,81 -36,85 -149,105 -57,61 -15,95 -16,191 -21,26 -41,15 -46,-11 -46,-35 -31,-5 -154,50 -31,50 -5,76 15,65 20,65 51,96 21,35 41,21 46,-10 36,-15 77,-45 56,-25 31,0 31,25 -5,45 -21,30 -103,65 -36,51 -20,60 -6,91 0,110 -149,85 -42,71 0,121 -57,50 -87,40 0,50 15,30 26,96 -6,65 -72,111 -21,70 -10,40 -5,106 -16,10 -41,-45 -46,-51 -51,5 -36,30 -16,25 -31,41 -10,40 -21,70 -36,35 -51,15 -51,-15 -67,-35 -41,-36 -36,10 -20,21 -16,45 5,55 -5,65 -11,91 -41,45 -139,30 -92,35 -46,35 -26,50 5,76 10,55 20,66 5,70 -26,65 -36,31 -97,30 -93,70 -77,85 -41,50 -42,81 -138,-1 -811,13 -374,0 -524,8 -1134,22 -1262,2 -600,3 -210,0 -165,-1 -266,5 -165,-1 -164,0 -128,4 -31,0 -56,-5 -159,5 -272,-1 -159,-1 -72,0 -46,5 -36,0 -159,-6 -226,0 -257,9 -195,0 -92,-1 -241,0 -164,-1 -236,4 -164,0 -123,4 -278,0 -159,-6 -210,-1 -241,0 -92,-6 -159,5 -98,0 -159,-1 -164,5 -62,-1 -164,0 -169,-1 10,46 -149,-1 -164,0 -323,4 -170,-6 -190,0 -107,-1 -482,-1 -324,-7 -159,-5 -980,-13 -323,-2 -133,-5 -185,-1 -303,-1 -405,-11 -221,4 1,-65 -318,-1 -339,-7 -282,-1 -154,-5 -539,-7 -374,-2 -411,-11 -426,-7 1,-322 -4,-1605 -26,0 1,-377 6,-252 6,-347 318,-9 67,-9 190,5 287,22 118,10 7,-362 1,-498 -82,-1 0,-85 252,6 323,-4 10,0 149,1 159,0 6,-166 154,6 6,-322 5,-126 1,-191 11,-171 -118,-1 5,-65 7,-473 6,-161 0,-171 6,-95 6,-227 0,-317 6,-161 0,-95 1,-106 46,0 0,-25 185,1 159,5 410,-8 272,6 313,6 139,0 174,-4 210,1 134,5 287,1 364,6 113,1 169,-5 693,8 0,35 169,0 195,1 113,-5 51,6 144,-5 154,0 149,1 -5,-55 174,0 652,-8 z"
	/>
	<path
		id="grand"
		name="Grand County"
		d="M 14437,-628 l 88,-1 7702,-193 112,-6 -13,-73 80,-22 -8,-105 88,-119 82,1 38,-105 43,40 82,-41 36,20 7,244 8,282 26,927 1,45 24,810 4,161 24,805 4,161 2,76 20,734 4,156 21,811 4,161 4,142 5,351 4,92 -1,69 2,102 1,49 2,141 43,2838 19,700 1,55 10,483 3,161 3,116 13,413 -8402,198 -10,-10 -16,-10 -128,-51 -25,-10 -16,-30 0,-31 11,-30 20,-30 31,-20 118,56 31,15 20,0 16,-5 25,-15 0,-10 6,-20 0,-51 25,-20 47,0 82,1 25,-11 6,-20 -6,-30 -10,-10 -61,-30 -21,-15 -30,-51 0,-60 15,-50 83,-71 61,-60 1,-50 -21,-30 -56,-16 -57,35 -36,36 -46,20 -36,-10 -20,-41 -5,-70 -21,-36 -35,-20 -21,5 -31,30 -56,15 -62,-60 -25,-5 -41,0 -31,-5 -16,-21 1,-35 31,-60 82,-95 26,-26 56,-60 52,-5 25,15 77,141 35,51 52,-5 108,-70 -10,-131 -31,-121 -61,-71 -51,-15 -41,5 -21,30 -21,101 -15,15 -128,10 -108,40 -87,0 -47,-31 -10,-15 -15,-30 -5,-30 15,-25 26,-10 103,20 66,5 21,-15 0,-40 -56,-151 5,-20 0,-10 26,-61 41,-35 26,-45 -5,-55 -15,-26 -36,-15 -26,10 -10,35 -16,76 -31,40 -20,-5 -31,-55 16,-111 -16,-10 -102,70 -31,-35 51,-111 1,-15 -6,-15 -51,-20 -46,10 -67,85 -31,5 -30,-15 -16,-55 31,-26 62,-55 -5,-30 -41,-30 -46,-41 -36,-65 0,-25 5,-10 83,-96 20,-20 5,-15 -10,-25 -25,-30 -16,-5 -25,0 -21,5 -108,70 -25,10 -36,5 -21,-5 -36,-41 0,-10 26,-15 46,-10 57,-15 15,-15 -20,-55 -36,-86 -10,-20 0,-20 15,-30 26,-30 31,-35 5,-16 11,-35 5,-15 15,-15 21,-15 41,-10 61,-25 21,-10 21,-15 0,-20 5,-10 -10,-25 -97,-162 -108,-30 -56,-45 -26,-21 -20,-30 -11,-25 -10,-35 0,-25 6,-16 41,-35 20,-10 41,-25 16,-15 5,-30 0,-20 -10,-30 -15,-51 -36,-40 -77,-30 -36,-16 -10,-20 41,-45 16,-20 5,-10 -5,-20 -11,-15 -20,-10 -82,5 -36,-1 -21,0 -30,-15 -16,-20 -20,-50 0,-25 41,-111 31,-101 0,-20 -10,-25 -15,-15 -21,-10 -10,0 -31,15 -67,75 -25,10 -36,-25 -15,-65 0,-81 16,-106 5,-45 5,-35 -5,-25 -15,-20 -21,-26 -77,-50 -46,-30 -5,-15 0,-16 11,-25 0,-15 -10,-25 5,-35 0,-25 15,-31 47,-35 20,-5 46,5 149,21 61,-10 26,-20 11,-20 5,-35 -10,-31 0,-10 -21,-40 -20,-40 -72,-66 -46,-30 5,-30 113,-45 11,-15 10,-16 -31,-30 -30,-45 -46,-51 -31,-45 -5,-65 15,-46 12,-16 -52,-99 19,-48 83,6 52,-35 -7,-26 -29,-29 -78,-18 -1,-4 -39,-18 -15,-20 15,-45 88,-65 0,-15 -46,-116 -5,-66 36,-125 21,-61 21,-85 -5,-30 -41,-81 5,-20 21,-10 -5,-76 92,-9 56,-26 52,-55 20,-30 6,-70 5,-56 21,-50 -21,-75 13,-54 -2,-11 24,-70 62,-28 42,-48 -16,-42 -19,-19 -57,-25 -51,-51 0,-85 52,-40 67,-15 20,-26 -10,-10 -46,-100 -10,-61 82,-105 12,-1 23,-24 108,-8 71,-108 -50,-256 47,-40 39,40 61,14 60,-69 -92,-215 21,-184 -77,-34 -70,-82 24,-44 21,-76 41,-60 77,-25 62,-106 -97,-30 36,-111 -20,-121 102,26 98,-141 21,-101 82,-50 0,-65 26,-51 -26,-75 -15,-81 62,-60 -36,-116 47,-110 67,-96 -46,-81 -36,-5 -51,-25 10,-70 0,-41 -10,-45 -5,-91 41,-65 z"
	/>
	<path
		id="iron"
		name="Iron County"
		d="M -6843,14061 l -1,106 0,95 -6,161 0,317 -6,227 -6,95 0,171 -6,161 -7,473 -5,65 118,1 -11,171 -1,191 -5,126 -6,322 -154,-6 -6,166 -159,0 -149,-1 -10,0 -323,4 -252,-6 0,85 82,1 -1,498 -7,362 -118,-10 -287,-22 -190,-5 -67,9 -318,9 -6,347 -6,252 -1,377 26,0 4,1605 -1,322 -677,-2 -272,-6 -338,-7 -180,0 -456,-7 -2,327 0,166 -359,-6 -852,-14 -1,292 -359,-6 -600,-13 0,-60 -467,-12 -87,-1 -46,0 -380,-11 6,-151 0,-186 6,-222 -154,0 -159,-6 -174,4 -1431,-21 7,-714 1,-262 -318,-11 -159,-6 -26,0 -164,-6 -333,-6 -6,146 -159,-6 -975,-29 -174,-1 -144,-6 -31,0 -297,-6 -169,-11 -493,-12 -164,-1 -149,-1 -169,-6 -1154,-35 9,-395 0,-18 7,-236 16,-498 5,-166 21,-697 1,-17 38,-1261 1,-22 61,-1386 1,-23 34,-1303 42,5 174,1 149,1 164,5 298,7 159,6 31,-5 148,5 154,1 159,6 324,6 174,6 149,6 174,1 159,5 303,7 174,6 164,0 154,1 164,6 144,0 180,6 153,1 165,6 179,5 98,1 66,5 288,1 159,6 30,0 165,6 169,1 159,5 282,12 200,1 154,5 143,6 108,0 211,6 164,11 164,1 615,7 31,0 164,6 159,6 159,5 159,-4 165,6 318,11 159,1 184,5 180,1 159,1 292,6 164,1 190,0 164,1 159,6 293,-4 159,5 36,0 154,1 174,1 164,5 293,2 164,10 25,-5 154,6 190,1 164,0 272,1 159,-4 52,0 159,6 159,0 164,6 113,0 46,5 149,6 z"
	/>
	<path
		id="juab"
		name="Juab County"
		d="M -4075,-6611 l 71,25 47,25 25,1 46,45 10,40 204,273 169,21 64,81 71,126 -84,89 -19,80 22,101 26,19 31,-14 31,-11 71,53 46,152 37,6 46,18 46,36 56,131 46,61 -52,25 -51,110 -50,81 -93,46 -2,132 17,3 42,54 -18,97 51,45 46,81 -37,85 5,61 -25,40 -52,45 15,91 -5,15 -45,52 -46,30 -29,99 157,35 55,0 82,11 61,5 72,-75 36,25 46,15 56,-20 52,-60 72,-40 51,-25 42,-111 25,-45 47,0 15,-10 36,-25 71,71 31,-20 72,-80 31,-41 21,-40 10,-55 0,-55 26,-51 16,-30 41,-55 15,-45 47,-71 10,-20 36,-35 31,-40 31,-60 30,-22 35,-112 61,-66 26,-107 88,-38 77,7 12,-36 51,-28 26,-42 111,10 29,7 61,-100 67,-25 46,-50 16,-27 89,4 6,-116 -7,-23 12,-33 30,-97 35,6 28,99 82,-13 183,147 24,64 -24,60 11,70 37,26 -3,27 58,66 62,-1 43,33 22,36 46,34 -40,66 36,90 60,47 16,1 24,27 52,35 44,128 -15,23 -11,6 -31,-2 -23,0 -17,6 -10,16 -4,49 -23,45 6,34 6,52 -64,63 -41,69 -50,119 84,-12 159,-3 118,0 706,-11 0,166 168,-3 -4,160 160,4 174,-5 -8,490 -499,-1 -2,149 0,13 -160,1 1,85 -163,0 2,83 -76,0 -2,163 -247,3 19,1422 32,1187 -303,9 -2,680 -3,157 -1507,26 2,148 -311,-1 -1,342 -495,9 -7,81 -4,176 -482,-11 5,-156 -164,-6 -154,0 -179,-1 -154,0 -72,-6 -348,4 61,-80 -20,-81 0,-70 16,-141 -30,-81 5,-80 -5,-71 -41,-40 -107,-66 108,-70 66,-20 -10,-70 16,-61 -10,-85 -15,-46 21,-115 -20,-106 -87,-187 108,-100 -15,-55 41,-131 -51,-5 -67,-5 -25,-146 -45,-142 -77,-25 67,-65 113,-20 31,-35 10,-60 -36,-146 -56,9 -97,-101 -179,0 -165,-1 -153,0 -646,-3 -334,-1 -323,4 -159,-6 -164,0 -154,-1 -174,0 -308,-2 -164,0 -179,-1 -164,0 -169,-6 -308,-1 -318,-2 -154,-5 -164,-1 -328,-1 -164,-6 -159,0 -169,-1 -159,-6 -313,-1 -164,-6 -159,5 -164,-6 -21,5 -164,-6 -159,0 -138,-1 -159,-1 -164,0 -154,-6 -159,-1 -328,-6 -159,-1 -164,-5 -164,-6 -144,-1 -333,-6 -164,-6 -154,-1 -159,-5 -159,-1 -56,-5 -282,-1 -103,-6 -61,0 -149,-1 -159,-1 -159,-5 -323,-7 -67,0 -97,-5 -159,-1 -159,-6 -164,-1 -318,-6 -82,0 -77,-1 -164,-6 -154,0 -169,-6 -318,-2 -159,-5 -164,-6 -159,-1 -164,-1 -323,-6 -159,-1 -200,-6 5,86 -159,-6 -164,-1 -318,-6 -164,-6 -82,-1 -82,0 -159,-1 -169,-6 -103,0 -210,-6 -164,-1 -219,-6 34,-1148 26,-1116 7,-327 33,-1431 59,5 36,1 307,6 477,7 169,6 154,6 159,6 205,1 277,6 174,6 154,1 46,5 118,1 297,6 344,7 169,6 195,1 282,6 164,6 164,5 282,7 261,1 164,6 728,13 92,0 385,12 318,7 323,6 158,6 185,1 144,0 71,1 93,0 323,6 159,6 158,6 134,-5 118,6 46,0 318,6 164,1 159,6 159,0 164,6 328,1 159,6 153,1 159,0 159,6 103,6 220,5 169,1 164,6 426,2 210,5 159,1 36,0 128,1 159,0 159,1 102,5 226,-4 154,1 169,5 159,1 164,1 323,6 323,-4 646,2 169,6 159,-4 41,10 10,-20 -20,-56 31,-30 26,-80 5,-61 -30,-201 66,-93 69,92 51,-19 9,0 56,91 61,16 93,-45 118,0 82,-5 46,0 77,-115 62,-15 113,-50 -5,-50 -15,-76 72,-85 62,-136 51,-115 83,-25 z"
	/>
	<path
		id="kane"
		name="Kane County"
		d="M -8728,20730 l 426,7 411,11 374,2 539,7 154,5 282,1 339,7 318,1 -1,65 221,-4 405,11 303,1 185,1 133,5 323,2 980,13 159,5 324,7 482,1 107,1 190,0 170,6 323,-4 164,0 149,1 -10,-46 169,1 164,0 62,1 164,-5 159,1 98,0 159,-5 92,6 241,0 210,1 159,6 278,0 123,-4 164,0 236,-4 164,1 241,0 92,1 195,0 257,-9 226,0 159,6 36,0 46,-5 72,0 159,1 272,1 159,-5 56,5 31,0 128,-4 164,0 165,1 266,-5 165,1 210,0 600,-3 1262,-2 1134,-22 524,-8 374,0 811,-13 138,1 -61,70 -47,70 -31,146 -26,126 -16,30 0,60 87,16 93,10 51,15 15,35 -5,36 -26,20 -164,55 -87,-6 -118,-10 -129,-10 -77,15 -92,35 -47,80 5,45 -10,61 -36,30 -36,5 -61,-41 -46,5 -16,45 41,81 51,55 66,66 67,40 41,-4 82,-5 36,5 31,30 -1,101 -15,50 -47,85 -67,91 -56,25 -108,-61 -82,-10 -61,40 -16,35 15,81 46,60 62,41 66,45 51,71 10,45 -61,85 -37,166 -21,20 -25,15 -36,-20 -10,-40 -21,-35 -41,15 -41,135 -31,51 -77,60 -41,45 -57,25 -154,15 -333,-172 -112,-86 -67,-46 -51,-5 -67,35 -26,56 5,80 41,66 148,55 67,21 31,40 30,116 -21,100 -41,40 -72,30 -123,20 -62,50 5,81 36,101 82,55 5,56 -26,40 -103,25 -67,-6 -56,25 -11,71 57,60 20,61 5,35 15,50 -46,51 -57,20 -41,20 -26,40 0,40 51,81 16,40 -21,90 -93,81 41,136 -87,20 -128,-76 -52,30 15,141 5,80 -21,45 -72,41 -56,-21 -62,-5 -30,5 -31,35 5,61 61,115 -36,61 -62,35 -118,-36 -51,5 -36,35 -16,56 -15,50 -26,15 -72,0 -51,-11 -113,0 -118,15 -77,15 -98,145 -41,-10 -31,-20 -30,-20 -82,-31 -52,10 -61,5 -26,0 -26,5 -61,0 -82,-10 -93,-21 -61,0 -119,181 -92,10 -26,-15 -46,-36 -92,-146 -72,0 -92,95 -42,101 -82,125 -72,146 -47,75 -56,45 -41,-5 -26,-25 -20,-75 -51,-41 -62,5 -26,55 -31,76 5,50 15,45 82,41 57,20 0,71 -31,60 -83,65 -46,10 -15,-50 -41,-111 -71,-121 -67,-66 -92,-35 -51,-26 -97,-85 -42,15 -41,30 -20,30 15,95 35,66 83,10 56,5 20,31 -10,50 -51,40 -88,40 -41,25 -5,61 20,45 5,50 -31,35 -36,-10 -66,-71 -57,-15 -61,20 -36,35 -62,50 -62,15 -71,15 -119,10 -143,0 -77,-1 -36,5 -46,20 -170,0 -164,4 -744,1 -667,4 -195,1 -159,2 -190,2 -148,-3 -98,-1 -149,2 -20,0 -375,-3 -138,1 -652,3 -69,0 -90,1 -1288,0 -241,-1 -41,0 -404,-3 -32,0 -159,-1 -185,-2 -118,0 -492,-4 -159,-2 -190,-2 -134,-1 -1056,-10 -739,-5 -457,-4 -410,-3 -719,-7 -733,-7 -349,-6 -698,-5 -415,-3 -303,-3 11,-307 -5,-40 6,-161 0,-136 5,-35 1,-40 5,-196 1,-282 1,-232 5,-80 -5,-71 1,-90 6,-242 -5,-226 16,-226 -4,-86 6,-478 1,-176 -21,0 1,-186 7,-629 0,-91 1,-85 5,-156 6,-161 0,-166 11,-141 1,-166 5,-166 2,-473 0,-166 2,-327 456,7 180,0 338,7 272,6 z"
	/>
	<path
		id="millard"
		name="Millard County"
		d="M -2732,1144 l -1,141 -1,237 0,191 -1,242 4,196 0,282 -3,820 -1,166 5,196 -2,473 0,166 -1,106 -41,5 -5,156 -6,161 -144,-6 -241,0 -1,387 -605,28 4,237 -144,-1 -11,322 -149,5 -1,296 -164,5 -16,156 -308,9 5,302 -47,0 -6,261 4,559 87,-10 -1,407 -139,5 -180,231 -118,-6 -103,50 -6,166 -77,-10 0,40 -148,5 -11,75 -410,-6 -10,-91 -395,29 -390,9 -6,70 -169,4 0,166 -77,0 -6,151 -77,5 -7,503 -138,-6 -7,322 -97,-15 -31,-5 -569,3 -323,9 -149,4 -646,3 -165,-1 -461,-7 -370,-16 -164,-6 -482,-2 -338,-11 -139,-6 -344,-1 -323,-17 -174,0 -149,4 -174,-6 -667,-7 -169,-6 -770,-3 -159,-6 -820,-14 -159,-5 -606,-13 -184,-1 -164,-5 -159,-6 -642,-18 -164,-1 -805,-19 -51,0 -108,-5 -774,-19 -159,-1 -170,0 -461,-13 -180,-10 -164,-6 -840,-19 5,-197 4,-135 22,-830 9,-403 13,-499 1,-70 9,-307 12,-478 1,-15 2,-206 2,-151 7,-629 4,-327 6,-476 0,-12 5,-73 6,-166 26,-737 14,-358 40,-1079 0,-13 21,-694 5,-146 16,-526 8,-284 6,-166 9,-280 17,-536 5,-161 24,-815 219,6 164,1 210,6 103,0 169,6 159,1 82,0 82,1 164,6 318,6 164,1 159,6 -5,-86 200,6 159,1 323,6 164,1 159,1 164,6 159,5 318,2 169,6 154,0 164,6 77,1 82,0 318,6 164,1 159,6 159,1 97,5 67,0 323,7 159,5 159,1 149,1 61,0 103,6 282,1 56,5 159,1 159,5 154,1 164,6 333,6 144,1 164,6 164,5 159,1 328,6 159,1 154,6 164,0 159,1 138,1 159,0 164,6 21,-5 164,6 159,-5 164,6 313,1 159,6 169,1 159,0 164,6 328,1 164,1 154,5 318,2 308,1 169,6 164,0 179,1 164,0 308,2 174,0 154,1 164,0 159,6 323,-4 334,1 646,3 153,0 165,1 179,0 97,101 56,-9 36,146 -10,60 -31,35 -113,20 -67,65 77,25 45,142 25,146 67,5 51,5 -41,131 15,55 -108,100 87,187 20,106 -21,115 15,46 10,85 -16,61 10,70 -66,20 -108,70 107,66 41,40 5,71 -5,80 30,81 -16,141 0,70 20,81 -61,80 348,-4 72,6 154,0 179,1 154,0 164,6 -5,156 z"
	/>
	<path
		id="morgan"
		name="Morgan County"
		d="M 3652,-19194 l -154,0 -66,15 -144,75 -195,-31 -25,31 -36,40 -41,40 -67,-10 -128,9 -5,71 -31,101 -26,50 46,126 -31,55 -62,66 -92,45 -108,55 -26,25 -82,-20 -61,-46 -184,0 -88,80 -77,35 -56,60 -72,20 -31,10 -71,-20 -103,35 -92,45 -113,60 -77,75 -83,126 -25,81 -11,136 -144,145 -118,65 -67,86 51,121 20,161 36,71 25,-30 154,0 77,66 46,-20 56,0 31,-5 51,-10 15,10 16,51 15,80 -11,106 0,35 -51,81 -1,70 77,1 36,-25 57,40 4,96 51,141 56,46 31,121 71,90 5,131 -41,71 -88,136 0,126 -82,60 -47,70 0,56 31,55 -16,65 -21,91 -56,60 -36,46 -241,54 -236,-121 -45,-106 -82,-81 -87,-51 -56,15 -175,126 -67,50 27,-267 -31,-30 -51,-41 -56,-30 -77,-86 77,-101 -10,-25 -41,-35 -51,-41 -51,-20 -61,-25 -139,-36 -25,55 -57,40 -82,-35 -46,15 -102,-86 -87,-96 -108,-16 -10,-15 -10,-20 -15,-65 -15,-36 5,-35 -41,-46 -77,-50 26,-76 -40,-80 -52,-46 -46,-15 -10,-45 0,-46 11,-55 -5,-51 -10,-30 -46,-35 -21,-46 -40,-55 -21,-20 -30,-51 -5,-40 41,-10 46,5 56,0 21,15 41,-40 30,41 46,10 52,-35 -72,-111 -35,-91 -26,-66 -66,-76 -56,-75 -36,-71 -20,-15 -36,-10 -25,-66 -36,-55 -36,-36 -82,-10 1,-76 -5,-45 31,-70 -16,-66 -25,-45 -25,-81 -36,-56 -26,-45 -15,-71 31,-55 -35,-116 -10,-111 -20,-91 20,-80 -55,-262 31,-56 -15,-70 36,-66 -46,-50 -97,-81 -51,-46 72,-141 -46,-75 72,-25 62,-86 143,-4 103,-50 92,-10 51,-40 36,-66 57,-20 210,-39 112,111 41,-25 11,-36 30,-4 41,20 10,80 251,203 86,61 103,-10 102,20 118,-60 175,-65 72,-75 138,-70 51,-25 36,-86 16,-106 21,-80 128,-101 67,11 56,10 62,-5 158,11 72,-10 107,66 47,25 46,-5 51,5 113,-10 31,-105 133,-101 57,-60 36,-76 77,-110 66,-25 42,-66 -16,-50 37,-75 20,-36 -20,-75 -26,-56 -30,-86 46,-80 16,-40 10,-131 47,-41 15,-15 41,-10 10,-35 0,-45 -9,-91 61,-30 62,-60 71,-15 57,-51 36,-50 66,-5 41,26 51,70 67,81 77,5 35,0 41,-4 36,30 31,35 71,11 41,75 31,51 56,25 46,51 41,45 56,25 46,51 15,55 36,76 117,91 41,56 10,35 16,51 -16,141 -57,146 -36,75 20,45 -5,111 61,71 112,116 26,21 10,20 230,81 36,40 -51,56 -21,60 -10,35 -6,56 46,50 -25,41 -52,55 21,70 -26,41 -52,65 -82,116 -108,130 z"
	/>
	<path
		id="piute"
		name="Piute County"
		d="M -574,10156 l -46,47 -440,430 -46,174 -75,75 -3,90 -75,-2 -39,26 0,100 5,61 3,624 5,161 37,1253 -3,835 -128,-1 -652,8 -174,0 5,55 -149,-1 -154,0 -144,5 -51,-6 -113,5 -195,-1 -169,0 0,-35 -693,-8 -169,5 -113,-1 -364,-6 -287,-1 -134,-5 -210,-1 -174,4 -139,0 -313,-6 -272,-6 -410,8 -5,-151 41,-50 31,-20 16,-10 10,-45 5,-35 -5,-46 72,-60 52,-65 87,-55 41,0 26,-75 62,-45 98,-20 51,-30 36,-25 21,-30 20,-40 21,-76 -67,-55 -56,-46 -61,-75 0,-36 26,-45 41,-35 52,-146 98,-130 62,-106 0,-65 -21,-60 78,-121 0,-70 -5,-56 16,-50 31,-95 -36,-66 -46,-86 -102,5 -31,-15 -31,-56 6,-70 -82,-61 -41,-95 -77,-26 -56,-30 -31,-25 -92,-172 52,-40 31,-30 -21,-25 -25,-76 -113,-56 -41,56 -41,75 -21,35 -31,20 -67,10 -30,-25 -36,-56 -25,-60 -36,-86 0,-70 -41,-56 -102,-76 -36,-55 -61,-46 -103,-30 -15,10 -26,-41 -25,-30 -5,-75 -67,-61 -15,-20 -15,-30 -46,-76 88,-115 -62,-76 1,-106 5,-30 1990,2 1324,10 184,-5 462,2 5,116 246,6 667,2 400,-4 390,-4 154,1 z"
	/>
	<path
		id="rich"
		name="Rich County"
		d="M 1599,-28719 l 490,16 91,0 3238,-9 4,710 6,822 2,323 2,308 5,812 16,1715 3,438 9,973 2,313 2,161 1,156 2,172 2,327 2,161 1,157 7,771 -77,-26 -41,10 -97,41 -31,40 -31,50 -57,81 -46,85 -41,86 -51,45 -308,226 -103,131 -52,55 -66,10 -57,45 -102,40 -93,40 -76,25 -134,96 -21,65 -51,40 -56,20 -57,-15 -92,5 -92,4 10,-10 108,-130 82,-116 52,-65 26,-41 -21,-70 52,-55 25,-41 -46,-50 6,-56 10,-35 21,-60 51,-56 -36,-40 -230,-81 -10,-20 -26,-21 -112,-116 -61,-71 5,-111 -20,-45 36,-75 57,-146 16,-141 -16,-51 -10,-35 -41,-56 -117,-91 -36,-76 -15,-55 -46,-51 -56,-25 -41,-45 -46,-51 -56,-25 -31,-51 -41,-75 -71,-11 -31,-35 -36,-30 -41,4 -35,0 -77,-5 -67,-81 -51,-70 -41,-26 -66,5 -36,50 -57,51 -71,15 -62,60 -46,-30 -20,-41 -57,-25 -56,-21 -46,5 -56,-25 -56,-20 -67,-41 -66,-56 0,-90 26,-40 -26,-41 -20,-15 -21,-10 -30,-15 -57,-31 -61,-25 -36,-46 -71,-121 108,-267 -25,-75 41,-91 67,-75 57,-61 20,-100 57,-61 0,-75 11,-91 72,-101 61,-55 6,-106 56,-5 41,-30 26,-80 -36,-66 26,-35 41,-10 15,-30 47,-142 5,-75 21,-86 5,-55 -15,-56 16,-65 -16,-76 11,-60 -25,-86 15,-51 57,-35 25,-25 31,-30 10,-25 -10,-30 -10,-46 46,-85 47,-71 10,-65 -25,-76 -51,-10 -11,-36 -25,-55 -20,-41 -52,-10 -35,-75 5,-91 41,-61 42,-60 15,-96 -20,-25 -5,-91 -154,-51 -15,-80 -30,-71 0,-81 -5,-96 -15,-60 -20,-96 -51,-96 16,-126 -20,-156 -77,-66 11,-61 -189,-222 -153,-157 0,-55 11,-116 30,-56 52,-70 51,-45 -10,-41 -26,0 -25,-15 -31,-5 -51,-25 5,-86 -91,-111 77,-66 138,21 77,0 0,-81 36,-90 -25,-116 -66,-339 -56,-106 -61,-50 -24,-63 -77,-25 z"
	/>
	<path
		id="salt_lake"
		name="Salt Lake County"
		d="M 479,-15308 l -5,30 36,61 -36,25 30,60 -56,50 36,21 25,30 15,10 31,20 26,21 46,35 10,25 10,15 10,41 10,55 5,81 5,55 5,61 25,30 36,30 36,36 10,40 15,35 26,31 36,25 41,55 25,36 0,50 -62,55 -15,45 25,111 -6,121 10,81 21,91 112,91 36,60 15,66 41,15 30,65 52,61 30,51 46,15 5,45 -31,20 -15,15 -31,25 0,36 5,70 0,35 -47,91 -66,15 -62,10 -154,55 -10,-5 -47,145 -76,-10 -77,0 -77,-5 -31,-31 -56,101 -47,45 -46,15 -36,25 -36,111 -51,25 -108,90 -62,-15 -56,-10 -87,-6 -77,40 -62,61 -112,-46 -31,50 -88,10 -122,-26 -77,45 -93,96 -46,65 5,20 -37,126 -15,5 -72,5 -82,50 -128,65 -57,35 -56,81 -26,-16 -31,-10 -46,81 -31,25 -36,-21 -51,-30 -36,-55 -97,55 -57,35 -41,30 -36,20 -56,55 -159,70 81,121 -56,40 -67,35 -31,20 -108,70 -66,51 -16,10 -25,15 -57,9 -31,16 -31,20 -41,10 -20,-11 -128,-86 -97,-30 -87,-91 -61,-61 -41,-106 -20,-90 -31,-76 -87,45 -15,45 -72,20 -46,30 -47,35 -46,30 -51,-15 -72,5 -72,-5 -66,25 -31,30 -67,35 -15,-46 5,-30 0,-65 -41,-21 -20,-10 -46,-70 -25,-31 -52,-35 -71,-51 -67,25 -15,20 -57,50 -72,-20 -46,-35 26,-51 -46,-106 26,-35 -117,-131 56,-60 -55,-137 72,-70 5,-105 -30,-111 -10,-36 41,-125 10,-21 -46,-60 11,-66 -26,-60 37,-60 41,-81 -31,-96 11,-85 26,-20 -51,-56 0,-45 -67,-26 -40,-90 -6,-11 -5,-20 11,-136 0,-15 -36,-40 -5,-56 -40,-55 16,-126 10,-91 -30,-65 31,-106 31,-50 -15,-76 -21,-55 -5,-35 -20,-41 -189,-167 -296,-494 494,-407 15,-5 539,-416 684,-511 421,-311 430,11 -1,247 -92,141 -11,106 66,80 -10,91 -11,76 41,60 56,5 62,51 0,55 20,51 51,70 20,61 190,-20 174,-4 72,-5 107,1 134,-35 128,-65 97,-10 62,-10 87,-45 82,-5 113,-65 61,5 113,-70 139,-45 31,-70 77,-20 102,86 46,-15 82,35 57,-40 25,-55 139,36 61,25 51,20 51,41 41,35 10,25 -77,101 77,86 56,30 51,41 31,30 z"
	/>
	<path
		id="san_juan"
		name="San Juan County"
		d="M 14623,10051 l 8402,-198 1,10 9,382 3,91 10,398 4,161 8,302 8,286 7,242 18,594 210,1288 2,80 28,1264 4,161 11,488 5,226 3,96 1,71 17,725 30,1227 4,176 22,681 4,130 1,50 12,499 3,130 4,146 1,26 3,125 17,719 6,227 10,333 2,76 2,69 19,694 4,157 8,306 7,239 4,166 9,307 9,322 9,327 74,2649 -3822,100 -411,10 -1637,35 -2042,40 -600,10 -2904,46 -1191,16 -97,1 -61,-47 -10,0 -529,3 -631,4 -1031,12 -230,3 -1192,13 -1513,14 -724,8 -51,1 -36,1 -15,1 -31,-3 -15,-1 -734,8 -57,0 -189,-2 -36,0 -93,2 -164,-1 -154,0 -87,-1 -195,0 -115,4 -8,0 -400,4 46,-20 36,-5 77,1 143,0 119,-10 71,-15 62,-15 62,-50 36,-35 61,-20 57,15 66,71 36,10 31,-35 -5,-50 -20,-45 5,-61 41,-25 88,-40 51,-40 10,-50 -20,-31 -56,-5 -83,-10 -35,-66 -15,-95 20,-30 41,-30 42,-15 97,85 51,26 92,35 67,66 71,121 41,111 15,50 46,-10 83,-65 31,-60 0,-71 -57,-20 -82,-41 -15,-45 -5,-50 31,-76 26,-55 62,-5 51,41 20,75 26,25 41,5 56,-45 47,-75 72,-146 82,-125 42,-101 92,-95 72,0 92,146 46,36 26,15 92,-10 119,-181 61,0 93,21 82,10 61,0 26,-5 26,0 61,-5 52,-10 82,31 30,20 31,20 41,10 98,-145 77,-15 118,-15 113,0 51,11 72,0 26,-15 15,-50 16,-56 36,-35 51,-5 118,36 62,-35 36,-61 -61,-115 -5,-61 31,-35 30,-5 62,5 56,21 72,-41 21,-45 -5,-80 -15,-141 52,-30 128,76 87,-20 -41,-136 93,-81 21,-90 -16,-40 -51,-81 0,-40 26,-40 41,-20 57,-20 46,-51 -15,-50 -5,-35 -20,-61 -57,-60 11,-71 56,-25 67,6 103,-25 26,-40 -5,-56 -82,-55 -36,-101 -5,-81 62,-50 123,-20 72,-30 41,-40 21,-100 -30,-116 -31,-40 -67,-21 -148,-55 -41,-66 -5,-80 26,-56 67,-35 51,5 67,46 112,86 333,172 154,-15 57,-25 41,-45 77,-60 31,-51 41,-135 41,-15 21,35 10,40 36,20 25,-15 21,-20 37,-166 61,-85 -10,-45 -51,-71 -66,-45 -62,-41 -46,-60 -15,-81 16,-35 61,-40 82,10 108,61 56,-25 67,-91 47,-85 15,-50 1,-101 -31,-30 -36,-5 -82,5 -41,4 -67,-40 -66,-66 -51,-55 -41,-81 16,-45 46,-5 61,41 36,-5 36,-30 10,-61 -5,-45 47,-80 92,-35 77,-15 129,10 118,10 87,6 164,-55 26,-20 5,-36 -15,-35 -51,-15 -93,-10 -87,-16 0,-60 16,-30 26,-126 31,-146 47,-70 61,-70 42,-81 41,-50 77,-85 93,-70 97,-30 36,-31 26,-65 -5,-70 -20,-66 -10,-55 -5,-76 26,-50 46,-35 92,-35 139,-30 41,-45 11,-91 5,-65 -5,-55 16,-45 20,-21 36,-10 41,36 67,35 51,15 51,-15 36,-35 21,-70 10,-40 31,-41 16,-25 36,-30 51,-5 46,51 41,45 16,-10 5,-106 10,-40 21,-70 72,-111 6,-65 -26,-96 -15,-30 0,-50 87,-40 57,-50 0,-121 42,-71 149,-85 0,-110 6,-91 20,-60 36,-51 103,-65 21,-30 5,-45 -31,-25 -31,0 -56,25 -77,45 -36,15 -46,10 -41,-21 -21,-35 -51,-96 -20,-65 -15,-65 5,-76 31,-50 154,-50 31,5 46,35 46,11 41,-15 21,-26 16,-191 15,-95 57,-61 149,-105 36,-85 -5,-81 -20,-55 -10,-101 57,-60 138,-45 129,-20 102,-15 129,6 128,5 46,5 51,5 93,-15 31,5 30,31 10,35 21,80 25,81 5,15 10,5 36,10 46,-15 31,-30 -20,-116 5,-50 21,-70 16,-36 46,-30 56,-15 67,6 133,30 52,-10 66,10 67,21 51,-5 41,-25 16,-26 10,-50 -5,-60 47,-71 -15,-65 -36,-106 -20,-80 10,-45 21,-36 36,-40 87,-65 113,-85 67,-56 26,-45 21,-45 5,-45 15,-40 11,-11 51,-50 46,-45 31,-40 6,-10 15,-45 10,-26 31,-40 21,-10 56,-35 98,-5 46,10 61,51 46,45 36,31 21,15 36,20 41,-5 51,-45 31,-61 5,-25 -5,-60 -15,-71 11,-55 31,-100 57,-141 36,-35 112,-25 37,-81 -10,-100 -5,-71 10,-25 36,-70 139,-211 52,-76 46,-35 31,-10 31,15 51,46 46,35 31,5 25,-5 52,-80 26,-25 30,-15 83,-46 15,-30 16,-30 36,-75 31,-30 36,-25 56,-20 67,-30 51,-41 5,-10 21,-50 -5,-45 -25,-71 10,-35 108,-95 57,-66 61,-55 119,-55 10,-10 26,-81 -144,30 -20,-5 -6,-15 -10,-15 11,-35 30,-35 108,-81 -5,-30 -30,-5 -62,0 -118,-45 -46,-36 -20,-25 -10,-25 0,-30 5,-25 26,-26 35,-10 57,-5 144,-4 10,-20 -51,-76 -41,-55 -10,-5 -72,40 -31,10 -21,-10 -10,-10 -15,-26 5,-20 26,-35 20,-15 57,-30 15,-30 1,-91 -16,-45 -46,-25 -36,0 -46,40 -72,75 -67,-15 -15,-51 11,-45 56,-115 -30,-36 -87,-55 -77,-41 -10,-45 15,-75 21,-36 5,-20 -15,-50 -128,-86 -26,-30 -10,-20 0,-45 11,-31 36,-30 92,-40 15,-15 31,-60 37,-76 -11,-30 -20,-20 -46,-10 -21,15 -5,25 -26,91 -31,40 -31,10 -25,0 -36,-20 -41,-41 -66,-75 -41,-46 41,-95 62,-151 10,-30 0,-30 -25,-36 -16,-5 -20,-10 -36,10 -10,10 -26,35 -36,56 -52,75 -46,60 -15,20 -41,25 -11,0 -25,-10 -5,-10 30,-55 6,-25 5,-15 -5,-15 5,-21 -10,-20 -26,-20 -15,-5 -62,-5 -15,-5 -21,-5 -15,-15 -10,-5 -21,-51 -15,-20 0,-10 98,-70 15,-10 -5,-10 5,-10 0,-30 26,-26 67,-35 41,-45 -25,-85 -26,-71 -66,-86 -21,-35 -41,-75 -10,-16 -15,-5 -108,15 -10,-10 -21,-10 -5,-15 -10,-15 -5,-15 0,-35 10,-21 11,-10 10,-10 21,0 10,-10 36,5 30,21 46,50 16,20 5,25 20,16 36,5 31,-10 21,-36 0,-50 -10,-70 25,-31 16,-45 26,-45 -5,-65 -10,-81 -26,-25 -31,-10 -25,-20 -72,-81 z"
	/>
	<path
		id="sanpete"
		name="Sanpete County"
		d="M 3880,-4437 l 6,1198 2,1298 16,1354 -472,14 8,750 27,1173 -3,976 -3,986 -2,705 9,242 -1882,-6 -87,-1 -277,5 -780,-3 -328,4 -318,-1 -149,0 -179,4 -159,0 -318,-1 -313,-1 1,-89 22,-12 34,-4 -5,-19 -32,-13 -19,-4 -1411,-13 0,-17 2,-473 -5,-196 1,-166 3,-820 0,-282 -4,-196 1,-242 0,-191 1,-237 1,-141 4,-176 7,-81 495,-9 1,-342 311,1 -2,-148 1507,-26 3,-157 2,-680 303,-9 -32,-1187 -19,-1422 247,-3 2,-163 76,0 -2,-83 163,0 -1,-85 160,-1 0,-13 2,-149 499,1 8,-490 -174,5 -160,-4 4,-160 -168,3 0,-166 494,0 421,-4 56,0 308,-4 635,-13 26,5 908,-18 z"
	/>
	<path
		id="sevier"
		name="Sevier County"
		d="M 3468,4259 l 3,160 22,0 5,3837 -78,-2 25,1805 -821,3 -1000,7 -431,4 -826,2 -549,-1 -318,-1 -74,83 -731,5 -154,-1 -390,4 -400,4 -667,-2 -246,-6 -5,-116 -462,-2 -184,5 -1324,-10 -1990,-2 -36,-106 42,-60 20,-45 -10,-66 11,-65 -21,-55 -10,-51 16,-30 26,-50 -41,-106 36,-65 97,15 7,-322 138,6 7,-503 77,-5 6,-151 77,0 0,-166 169,-4 6,-70 390,-9 395,-29 10,91 410,6 11,-75 148,-5 0,-40 77,10 6,-166 103,-50 118,6 180,-231 139,-5 1,-407 -87,10 -4,-559 6,-261 47,0 -5,-302 308,-9 16,-156 164,-5 1,-296 149,-5 11,-322 144,1 -4,-237 605,-28 1,-387 241,0 144,6 6,-161 5,-156 41,-5 1,-106 0,-149 1411,13 19,4 32,13 5,19 -34,4 -22,12 -1,89 313,1 318,1 159,0 179,-4 149,0 318,1 328,-4 780,3 277,-5 87,1 z"
	/>
	<path
		id="summit"
		name="Summit County"
		d="M 3652,-19194 l 92,-4 92,-5 57,15 56,-20 51,-40 21,-65 134,-96 76,-25 93,-40 102,-40 57,-45 66,-10 52,-55 103,-131 308,-226 51,-45 41,-86 46,-85 57,-81 31,-50 31,-40 97,-41 41,-10 77,26 0,98 23,2719 1921,-16 354,-3 1122,-9 164,-1 159,-2 167,-1 2,0 41,-1 41,0 72,-1 151,-1 8,0 159,-2 158,-1 124,-2 41,0 1788,-19 34,-1 457,-18 194,-6 288,-9 870,-25 74,-2 407,-12 14,629 9,584 3,892 -128,-45 -143,-31 -51,-25 -16,10 -46,45 -57,40 -30,10 -57,-5 -30,-10 -128,0 -57,25 -77,35 -31,-20 -51,-35 -10,0 -20,-6 -57,-5 -36,-5 -41,-5 -112,-5 -164,15 -31,0 -112,-81 -103,-31 -61,5 -118,-50 -41,10 -51,5 -21,-5 -61,-11 -51,-25 -47,-5 -61,-25 -41,-10 -36,5 -87,25 -61,20 -129,55 -143,40 -118,30 -77,-5 -72,-46 -66,76 -21,70 0,61 -21,60 -41,30 5,30 -26,41 -41,15 -82,20 -87,15 -61,4 -36,21 -41,-1 -31,-15 -41,-5 -36,-15 -30,-20 -21,10 -21,25 -46,40 -15,15 -51,20 -77,-25 -31,-10 -46,55 -41,30 -31,25 -36,0 -41,-15 -36,-20 -30,-10 -83,80 -61,50 -67,15 -87,41 -61,-41 0,-10 -36,-50 -26,-21 -41,-15 -61,35 -26,51 -51,45 -62,50 -77,-15 -71,-10 -57,-6 -128,30 -61,-40 -36,-25 -62,-36 -35,-5 -16,0 -25,20 -88,106 -77,121 -51,50 -31,0 -46,-16 -36,10 -51,31 -67,-11 -10,0 -56,-30 -47,-40 -40,-16 -31,-15 -51,-15 -36,10 -36,25 -36,20 -72,0 -36,5 -30,10 -42,20 -35,-5 -26,-10 -26,10 -15,20 -56,20 -118,65 -41,25 -21,15 -41,25 -139,106 -118,95 -20,15 -77,-60 -46,-31 -61,-45 -47,-25 -56,35 -61,-26 -31,-10 -97,-45 -21,5 -41,5 -61,9 15,71 36,30 -47,46 -25,25 -47,45 11,75 10,66 25,55 5,16 5,40 15,20 6,20 -16,25 -61,15 -83,20 -143,10 -97,35 -21,30 -11,181 -51,151 -26,71 -21,35 -67,121 -5,136 -6,70 -41,41 -15,65 -118,20 -133,-36 -62,15 -72,30 -118,136 -61,-31 -72,-10 -82,-25 -61,-25 -62,-51 -56,-51 -97,25 -82,-25 -77,20 -36,10 -92,15 -37,90 -61,66 -42,125 -20,106 -57,65 -123,-25 -56,-51 -108,-35 -76,-51 -123,-60 -41,-26 -97,-40 -205,-41 -92,-46 -169,-111 -128,-81 -302,-217 -174,-41 -77,-41 -71,-5 -72,-15 -5,-51 -15,-90 -128,-207 -9,-202 -10,-75 0,-25 -41,-1 -15,11 -83,95 -123,-15 -66,-1 -11,217 -11,15 -153,90 -72,50 -6,10 -77,61 -25,80 -47,126 -57,50 46,101 -67,126 -76,-61 -72,-15 -102,-16 -103,-15 -36,-46 -51,-20 -77,30 -5,-45 -46,-15 -30,-51 -52,-61 -30,-65 -41,-15 -15,-66 -36,-60 -112,-91 -21,-91 -10,-81 6,-121 -25,-111 15,-45 62,-55 0,-50 -25,-36 -41,-55 -36,-25 -26,-31 -15,-35 -10,-40 -36,-36 -36,-30 -25,-30 -5,-61 -5,-55 -5,-81 -10,-55 -10,-41 -10,-15 -10,-25 -46,-35 -26,-21 -31,-20 -15,-10 -25,-30 -36,-21 56,-50 -30,-60 36,-25 -36,-61 5,-30 67,-50 175,-126 56,-15 87,51 82,81 45,106 236,121 241,-54 36,-46 56,-60 21,-91 16,-65 -31,-55 0,-56 47,-70 82,-60 0,-126 88,-136 41,-71 -5,-131 -71,-90 -31,-121 -56,-46 -51,-141 -4,-96 -57,-40 -36,25 -77,-1 1,-70 51,-81 0,-35 11,-106 -15,-80 -16,-51 -15,-10 -51,10 -31,5 -56,0 -46,20 -77,-66 -154,0 -25,30 -36,-71 -20,-161 -51,-121 67,-86 118,-65 144,-145 11,-136 25,-81 83,-126 77,-75 113,-60 92,-45 103,-35 71,20 31,-10 72,-20 56,-60 77,-35 88,-80 184,0 61,46 82,20 26,-25 108,-55 92,-45 62,-66 31,-55 -46,-126 26,-50 31,-101 5,-71 128,-9 67,10 41,-40 36,-40 25,-31 195,31 144,-75 66,-15 z"
	/>
	<path
		id="tooele"
		name="Tooele County"
		d="M -6672,-18456 l 127,232 316,555 356,611 1135,2010 296,494 189,167 20,41 5,35 21,55 15,76 -31,50 -31,106 30,65 -10,91 -16,126 40,55 5,56 36,40 0,15 -11,136 5,20 6,11 40,90 67,26 0,45 51,56 -26,20 -11,85 31,96 -41,81 -37,60 26,60 -11,66 46,60 -10,21 -41,125 10,36 30,111 -5,105 -72,70 55,137 -56,60 117,131 -26,35 46,106 -26,51 -71,-11 -46,-5 -113,95 -98,15 -10,40 5,116 30,61 10,50 26,46 71,101 10,100 -21,86 -21,111 -5,45 0,50 46,86 61,51 -42,130 21,61 56,96 40,75 11,61 -114,100 -41,86 -31,75 51,86 31,60 9,116 5,111 -36,111 -5,25 30,50 31,51 0,35 30,50 36,81 -5,40 -1,56 26,35 15,30 21,46 40,55 88,-4 30,75 -72,161 77,0 35,86 10,176 -77,55 -21,30 -31,51 -108,60 56,121 -46,65 -26,50 5,56 10,10 46,45 41,96 97,96 -67,221 -118,35 -11,66 5,50 15,60 -66,20 -11,126 56,101 15,61 5,60 -11,96 -41,181 -241,105 -83,25 -51,115 -62,136 -72,85 15,76 5,50 -113,50 -62,15 -77,115 -46,0 -82,5 -118,0 -93,45 -61,-16 -56,-91 -9,0 -51,19 -69,-92 -66,93 30,201 -5,61 -26,80 -31,30 20,56 -10,20 -41,-10 -159,4 -169,-6 -646,-2 -323,4 -323,-6 -164,-1 -159,-1 -169,-5 -154,-1 -226,4 -102,-5 -159,-1 -159,0 -128,-1 -36,0 -159,-1 -210,-5 -426,-2 -164,-6 -169,-1 -220,-5 -103,-6 -159,-6 -159,0 -153,-1 -159,-6 -328,-1 -164,-6 -159,0 -159,-6 -164,-1 -318,-6 -46,0 -118,-6 -134,5 -158,-6 -159,-6 -323,-6 -93,0 -71,-1 -144,0 -185,-1 -158,-6 -323,-6 -318,-7 -385,-12 -92,0 -728,-13 -164,-6 -261,-1 -282,-7 -164,-5 -164,-6 -282,-6 -195,-1 -169,-6 -344,-7 -297,-6 -118,-1 -46,-5 -154,-1 -174,-6 -277,-6 -205,-1 -159,-6 -154,-6 -169,-6 -477,-7 -307,-6 -36,-1 -59,-5 21,-851 33,-1517 12,-552 14,-531 82,-2359 52,-1392 21,-542 9,-248 2,-70 32,-820 11,-289 8,-215 13,-297 7,-182 2,-31 40,-1396 5,-161 7,-230 3,-77 3,-162 3,-161 1,-69 29,5 159,-4 164,6 159,1 164,1 364,6 158,-4 784,14 164,-4 825,9 164,6 481,12 3924,124 322,6 159,1 179,6 518,17 128,1 164,5 169,1 323,1 307,7 164,0 241,-9 251,-14 z"
	/>
	<path
		id="uintah"
		name="Uintah County"
		d="M 22409,-14076 l 1,34 14,465 6,181 4,155 1,21 13,508 12,428 2,183 2,59 3,85 6,162 8,333 5,167 5,185 9,322 11,419 8,317 2,85 3,101 4,161 16,422 25,1009 1,41 4,120 9,327 16,535 19,649 4,141 44,1611 5,167 9,327 15,564 3,70 16,584 23,816 4,161 20,720 6,209 -36,-20 -82,41 -43,-40 -38,105 -82,-1 -88,119 8,105 -80,22 13,73 -112,6 -7702,193 -88,1 -11,-88 1,-38 26,-85 46,-45 -5,-66 -36,-70 -20,-41 -5,-60 -15,-71 -5,-95 -87,-16 -47,-20 -35,-50 -16,-56 88,-9 46,-36 21,-65 -10,-111 -31,-40 -36,-45 -15,-96 52,-65 71,-36 41,-30 1,-70 -46,-15 -21,-36 -15,-35 -5,-50 41,-61 62,-65 36,-35 15,-91 72,0 46,-20 -10,-40 -36,-30 -41,-20 -36,-21 -20,-55 11,-55 35,-35 88,15 36,-35 10,-41 46,-75 6,-96 20,-80 -30,-71 -57,-30 -77,20 -46,-55 72,-41 21,-55 26,-75 118,-10 66,5 1,-50 -36,-41 -41,-25 -15,-70 -67,-56 -51,-91 31,-60 21,-5 97,-30 113,5 20,166 46,86 31,20 20,-5 41,-30 -5,-40 -41,-36 -10,-100 0,-46 -5,-70 185,-5 26,-30 -5,-80 15,-86 36,-121 -10,-60 -56,-51 -5,-80 21,-51 61,6 46,35 16,45 169,-10 51,41 67,40 30,-30 -107,-121 0,-90 -369,4 -159,5 -174,-1 -41,0 -24,-785 -5,-186 -18,-816 -5,-151 -18,-796 -5,-161 -14,-498 0,-45 -5,-318 1,-55 0,-227 -5,-176 -9,-514 -4,-166 0,-161 -13,-967 -9,-398 -5,-161 0,-161 -14,-720 -18,-791 -14,-685 -3,-907 -43,-1259 0,-30 112,55 184,101 128,6 41,40 77,91 92,5 57,5 25,40 26,51 76,-10 87,106 139,-20 169,-30 31,-101 123,-25 87,-15 92,-35 169,15 108,-191 77,-80 190,20 87,20 220,-35 169,86 180,-60 159,-141 102,-15 190,-10 113,-25 164,-65 225,-110 87,45 41,30 46,76 26,40 15,116 20,91 -15,70 -11,96 5,131 15,156 77,66 179,35 82,-65 77,-70 206,-111 66,-131 98,-85 97,-36 118,-30 -34,-786 502,-4 338,-10 144,-5 471,-14 164,-5 4,337 25,454 318,0 20,166 25,348 5,161 15,318 10,136 123,-5 148,-5 36,332 138,1 313,-5 z"
	/>
	<path
		id="utah"
		name="Utah County"
		d="M 871,-12899 l 41,15 92,91 82,101 51,126 -78,347 -26,166 50,121 -92,146 -67,95 -134,20 -82,136 25,171 92,41 103,55 30,86 56,76 72,76 4,161 62,86 30,120 71,162 164,-5 113,-4 200,15 123,6 97,136 82,-5 5,76 72,5 4,70 52,51 66,86 -16,80 -67,91 -46,65 15,15 10,66 67,35 61,0 26,-20 41,31 51,40 51,-25 57,-75 67,-5 41,35 61,-60 113,10 72,66 82,10 92,21 174,60 46,-55 87,-10 21,56 10,30 -21,55 92,26 51,81 46,0 67,106 10,40 67,25 56,111 -67,40 10,192 61,85 10,46 51,55 5,61 123,126 40,45 16,91 66,56 -16,90 21,91 -36,15 25,91 61,95 -10,71 -26,100 -31,111 -47,50 -10,81 -57,90 67,66 -36,50 10,56 -26,50 -62,136 92,196 61,31 123,-50 108,-101 41,101 15,86 72,75 25,56 113,20 66,61 -36,75 26,141 102,36 31,30 46,-5 61,41 82,106 71,30 31,60 -5,56 -16,35 -77,65 26,51 71,35 385,1 14,483 313,6 246,-9 394,1 47,5 158,0 395,-9 272,6 -1,322 19,624 -144,5 -195,-5 -446,9 -697,-2 -410,-6 0,20 -369,4 -159,4 -26,0 -415,4 -159,0 -328,-6 -528,3 -908,18 -26,-5 -635,13 -308,4 -56,0 -421,4 -494,0 -706,11 -118,0 -159,3 -84,12 50,-119 41,-69 64,-63 -6,-52 -6,-34 23,-45 4,-49 10,-16 17,-6 23,0 31,2 11,-6 15,-23 -44,-128 -52,-35 -24,-27 -16,-1 -60,-47 -36,-90 40,-66 -46,-34 -22,-36 -43,-33 -62,1 -58,-66 3,-27 -37,-26 -11,-70 24,-60 -24,-64 -183,-147 -82,13 -28,-99 -35,-6 -30,97 -12,33 7,23 -6,116 -89,-4 -16,27 -46,50 -67,25 -61,100 -29,-7 -111,-10 -26,42 -51,28 -12,36 -77,-7 -88,38 -26,107 -61,66 -35,112 -30,22 -31,60 -31,40 -36,35 -10,20 -47,71 -15,45 -41,55 -16,30 -26,51 0,55 -10,55 -21,40 -31,41 -72,80 -31,20 -71,-71 -36,25 -15,10 -47,0 -25,45 -42,111 -51,25 -72,40 -52,60 -56,20 -46,-15 -36,-25 -72,75 -61,-5 -82,-11 -55,0 -157,-35 29,-99 46,-30 45,-52 5,-15 -15,-91 52,-45 25,-40 -5,-61 37,-85 -46,-81 -51,-45 18,-97 -42,-54 -17,-3 2,-132 93,-46 50,-81 51,-110 52,-25 -46,-61 -56,-131 -46,-36 -46,-18 -37,-6 -46,-152 -71,-53 -31,11 -31,14 -26,-19 -22,-101 19,-80 84,-89 -71,-126 -64,-81 -169,-21 -204,-273 -10,-40 -46,-45 -25,-1 -47,-25 -71,-25 41,-181 11,-96 -5,-60 -15,-61 -56,-101 11,-126 66,-20 -15,-60 -5,-50 11,-66 118,-35 67,-221 -97,-96 -41,-96 -46,-45 -10,-10 -5,-56 26,-50 46,-65 -56,-121 108,-60 31,-51 21,-30 77,-55 -10,-176 -35,-86 -77,0 72,-161 -30,-75 -88,4 -40,-55 -21,-46 -15,-30 -26,-35 1,-56 5,-40 -36,-81 -30,-50 0,-35 -31,-51 -30,-50 5,-25 36,-111 -5,-111 -9,-116 -31,-60 -51,-86 31,-75 41,-86 114,-100 -11,-61 -40,-75 -56,-96 -21,-61 42,-130 -61,-51 -46,-86 0,-50 5,-45 21,-111 21,-86 -10,-100 -71,-101 -26,-46 -10,-50 -30,-61 -5,-116 10,-40 98,-15 113,-95 46,5 71,11 46,35 72,20 57,-50 15,-20 67,-25 71,51 52,35 25,31 46,70 20,10 41,21 0,65 -5,30 15,46 67,-35 31,-30 66,-25 72,5 72,-5 51,15 46,-30 47,-35 46,-30 72,-20 15,-45 87,-45 31,76 20,90 41,106 61,61 87,91 97,30 128,86 20,11 41,-10 31,-20 31,-16 57,-9 25,-15 16,-10 66,-51 108,-70 31,-20 67,-35 56,-40 -81,-121 159,-70 56,-55 36,-20 41,-30 57,-35 97,-55 36,55 51,30 36,21 31,-25 46,-81 31,10 26,16 56,-81 57,-35 128,-65 82,-50 72,-5 15,-5 37,-126 -5,-20 46,-65 93,-96 77,-45 122,26 88,-10 31,-50 112,46 62,-61 77,-40 87,6 56,10 62,15 108,-90 51,-25 36,-111 36,-25 46,-15 47,-45 56,-101 31,31 77,5 77,0 76,10 47,-145 z"
	/>
	<path
		id="wasatch"
		name="Wasatch County"
		d="M 871,-12899 l 154,-55 62,-10 66,-15 47,-91 0,-35 -5,-70 0,-36 31,-25 15,-15 31,-20 77,-30 51,20 36,46 103,15 102,16 72,15 76,61 67,-126 -46,-101 57,-50 47,-126 25,-80 77,-61 6,-10 72,-50 153,-90 11,-15 11,-217 66,1 123,15 83,-95 15,-11 41,1 0,25 10,75 9,202 128,207 15,90 5,51 72,15 71,5 77,41 174,41 302,217 128,81 169,111 92,46 205,41 97,40 41,26 123,60 76,51 108,35 56,51 123,25 57,-65 20,-106 42,-125 61,-66 37,-90 92,-15 36,-10 77,-20 82,25 97,-25 56,51 62,51 61,25 82,25 72,10 61,31 118,-136 72,-30 62,-15 133,36 118,-20 15,-65 41,-41 6,-70 5,-136 67,-121 21,-35 26,-71 51,-151 11,-181 21,-30 97,-35 143,-10 83,-20 -4,1280 13,826 5,171 -1,166 -1,307 67,5 26,3555 14,312 21,46 8,609 5,156 23,801 -1,392 -395,9 -158,0 -47,-5 -394,-1 -246,9 -313,-6 -14,-483 -385,-1 -71,-35 -26,-51 77,-65 16,-35 5,-56 -31,-60 -71,-30 -82,-106 -61,-41 -46,5 -31,-30 -102,-36 -26,-141 36,-75 -66,-61 -113,-20 -25,-56 -72,-75 -15,-86 -41,-101 -108,101 -123,50 -61,-31 -92,-196 62,-136 26,-50 -10,-56 36,-50 -67,-66 57,-90 10,-81 47,-50 31,-111 26,-100 10,-71 -61,-95 -25,-91 36,-15 -21,-91 16,-90 -66,-56 -16,-91 -40,-45 -123,-126 -5,-61 -51,-55 -10,-46 -61,-85 -10,-192 67,-40 -56,-111 -67,-25 -10,-40 -67,-106 -46,0 -51,-81 -92,-26 21,-55 -10,-30 -21,-56 -87,10 -46,55 -174,-60 -92,-21 -82,-10 -72,-66 -113,-10 -61,60 -41,-35 -67,5 -57,75 -51,25 -51,-40 -41,-31 -26,20 -61,0 -67,-35 -10,-66 -15,-15 46,-65 67,-91 16,-80 -66,-86 -52,-51 -4,-70 -72,-5 -5,-76 -82,5 -97,-136 -123,-6 -200,-15 -113,4 -164,5 -71,-162 -30,-120 -62,-86 -4,-161 -72,-76 -56,-76 -30,-86 -103,-55 -92,-41 -25,-171 82,-136 134,-20 67,-95 92,-146 -50,-121 26,-166 78,-347 -51,-126 -82,-101 -92,-91 z"
	/>
	<path
		id="washington"
		name="Washington County"
		d="M -20786,19815 l 1154,35 169,6 149,1 164,1 493,12 169,11 297,6 31,0 144,6 174,1 975,29 159,6 6,-146 333,6 164,6 26,0 159,6 318,11 -1,262 -7,714 1431,21 174,-4 159,6 154,0 -6,222 0,186 -6,151 380,11 46,0 87,1 467,12 0,60 600,13 359,6 1,-292 852,14 359,6 -2,473 -5,166 -1,166 -11,141 0,166 -6,161 -5,156 -1,85 0,91 -7,629 -1,186 21,0 -1,176 -6,478 4,86 -16,226 5,226 -6,242 -1,90 5,71 -5,80 -1,232 -1,282 -5,196 -1,40 -5,35 0,136 -6,161 5,40 -11,307 -241,-4 -121,-2 -131,-1 -71,0 -308,-3 -16,0 -313,-4 -164,-3 -31,0 -159,-3 -154,-1 -328,-5 -179,-3 -134,-2 -31,0 -159,-2 -277,-5 -41,0 -159,-2 -184,-2 -124,-1 -36,-2 -133,0 -344,-5 -164,-2 -174,-3 -164,-2 -180,-3 -298,-6 -328,-6 -159,-4 -138,-2 -185,-4 -816,-16 -133,-2 -154,-2 -31,0 -164,-1 -144,-1 -46,-2 -97,-5 -11,0 -77,-1 -410,-6 -21,0 -148,-4 -175,-3 -141,-3 -18,-1 -82,-2 -174,-4 -226,-6 -117,0 -42,-1 -164,-4 -159,-3 -488,-10 -154,-4 -393,-4 112,-5193 6,-242 10,-483 9,-409 3,-171 z"
	/>
	<path
		id="wayne"
		name="Wayne County"
		d="M 3445,10059 l 0,116 11178,-124 15,20 72,81 25,20 31,10 26,25 10,81 5,65 -26,45 -16,45 -25,31 10,70 0,50 -21,36 -31,10 -36,-5 -20,-16 -5,-25 -16,-20 -46,-50 -30,-21 -36,-5 -10,10 -21,0 -10,10 -11,10 -10,21 0,35 5,15 10,15 5,15 21,10 10,10 108,-15 15,5 10,16 41,75 21,35 66,86 26,71 25,85 -41,45 -67,35 -26,26 0,30 -5,10 5,10 -15,10 -98,70 0,10 15,20 21,51 10,5 15,15 21,5 15,5 62,5 15,5 26,20 10,20 -5,21 5,15 -5,15 -6,25 -30,55 5,10 25,10 11,0 41,-25 15,-20 46,-60 52,-75 36,-56 26,-35 10,-10 36,-10 20,10 16,5 25,36 0,30 -10,30 -62,151 -41,95 41,46 66,75 41,41 36,20 25,0 31,-10 31,-40 26,-91 5,-25 21,-15 46,10 20,20 11,30 -37,76 -31,60 -15,15 -92,40 -36,30 -11,31 0,45 10,20 26,30 128,86 15,50 -5,20 -21,36 -15,75 10,45 77,41 87,55 30,36 -56,115 -11,45 15,51 67,15 72,-75 46,-40 36,0 46,25 16,45 -1,91 -15,30 -57,30 -20,15 -26,35 -5,20 15,26 10,10 21,10 31,-10 72,-40 10,5 41,55 51,76 -10,20 -144,4 -57,5 -35,10 -26,26 -5,25 0,30 10,25 20,25 46,36 118,45 62,0 30,5 5,30 -108,81 -30,35 -11,35 10,15 6,15 20,5 144,-30 -26,81 -10,10 -119,55 -61,55 -57,66 -108,95 -10,35 25,71 -605,14 -488,4 -128,-1 -287,10 -549,-1 -159,4 -159,5 -164,0 -180,-1 -164,0 -303,4 -318,10 -174,-1 -488,4 -159,5 -148,0 -160,4 -128,0 -349,-1 -159,5 -164,5 -174,4 -477,4 -159,0 -165,4 -164,5 -477,9 -159,0 -164,-1 -190,0 -477,-2 -164,0 -134,5 -25,0 -139,-1 -36,0 -482,-1 -159,0 -92,-1 -154,0 -72,5 -41,-5 -400,4 -46,0 -159,-1 -82,5 -77,-5 -134,-1 -46,0 -487,-1 -93,0 -225,-6 -165,4 -318,0 -1051,-8 -241,-1 -1,40 -97,0 -272,-6 -421,-1 -261,4 -231,-1 -318,-6 -349,4 -180,0 -297,-1 -118,-1 -210,0 -124,4 -20,0 -164,-5 -216,-1 -261,4 -190,-5 3,-835 -37,-1253 -5,-161 -3,-624 -5,-61 0,-100 39,-26 75,2 3,-90 75,-75 46,-174 440,-430 46,-47 74,-83 318,1 549,1 826,-2 431,-4 1000,-7 z"
	/>
	<path
		id="weber"
		name="Weber County"
		d="M 1587,-22294 l 71,121 36,46 61,25 57,31 30,15 21,10 20,15 26,41 -26,40 0,90 66,56 67,41 56,20 56,25 46,-5 56,21 57,25 20,41 46,30 -61,30 9,91 0,45 -10,35 -41,10 -15,15 -47,41 -10,131 -16,40 -46,80 30,86 26,56 20,75 -20,36 -37,75 16,50 -42,66 -66,25 -77,110 -36,76 -57,60 -133,101 -31,105 -113,10 -51,-5 -46,5 -47,-25 -107,-66 -72,10 -158,-11 -62,5 -56,-10 -67,-11 -128,101 -21,80 -16,106 -36,86 -51,25 -138,70 -72,75 -175,65 -118,60 -102,-20 -103,10 -86,-61 -251,-203 -10,-80 -41,-20 -30,4 -11,36 -41,25 -112,-111 -210,39 -57,20 -36,66 -51,40 -92,10 -103,50 -143,4 -62,86 -72,25 46,75 -72,141 51,46 97,81 46,50 -36,66 15,70 -31,56 -261,9 -82,10 -108,4 -148,10 -154,-51 -92,-101 -102,-51 -113,-5 -87,-1 -235,0 -349,-12 -732,-2 -333,-1 -267,84 -1410,459 -164,50 -713,234 499,-643 252,-322 793,-1080 499,-654 124,-181 1772,11 46,-55 138,-30 21,-45 65,-19 22,-41 120,-54 67,-57 60,-15 -22,-32 -77,-95 4,-52 -15,-39 72,-95 -1,-44 5,-136 -31,-47 -8,-70 75,-61 47,-93 54,79 121,120 5,1 146,50 31,-33 61,-32 99,-28 14,-6 69,-54 10,-11 107,56 -86,74 47,47 -3,55 62,78 36,7 70,37 97,31 87,50 138,-25 46,31 118,-35 46,-10 46,40 31,66 56,51 143,96 56,-10 144,-75 0,-1 86,-5 -16,-103 175,-216 -3,-91 -103,-24 -44,-88 19,-47 119,27 97,92 60,-20 84,-95 104,-13 124,236 54,19 38,-101 136,-43 44,-38 59,2 105,10 116,32 84,-109 107,49 72,-11 32,112 72,90 31,-56 55,-35 107,-34 9,-46 z"
	/>
</svg>