<svg
	xmlns="http://www.w3.org/2000/svg"
	viewBox="0 0 800 778"
	aria-label="Map of Tanzania"
> 
	<path
		id="njombe"
		name="Njombe"
		d="M429.23,580.43L422.43,580.03L415.62,575.16L416.42,562.19L399.2,556.12L399.2,552.47L389.03,549.37L387.23,554.1L385.62,555.22L383.27,554.94L380.58,555.93L378.28,557.56L376.4,561.35L373.88,564.04L370.55,565.37L366.85,565.45L359.96,564.46L352.79,566.22L348.66,566.32L344.46,565.93L340.82,567.43L340.08,569.51L338.08,570.17L332.78,568.34L328.87,569.12L325.91,571.77L321.79,578.52L322.21,581.97L324.6,584.74L326.26,587.82L327.47,591.1L325.94,591.92L325.55,593.43L328,593.97L328.78,594.94L328.97,597.22L330.58,599.31L334.51,606.12L336.68,609.1L338.02,609.69L339.47,609.89L342.36,612.79L342.08,615.17L342.18,615.23L342.86,616.04L343.85,616.6L346.29,619.57L346.83,619.88L348.07,621.24L350.14,622.2L357.13,629.61L359.27,630.39L359.72,631.35L359.9,632.65L360.26,634.03L360.67,634.61L362.27,636.27L362.6,636.45L363.89,637.71L363.98,638.01L371.14,646.93L371.96,648.43L374.12,651.49L374.96,653.99L375.05,654.78L374.91,655.61L374.27,657.04L374.12,657.76L374.67,660.25L377.05,665.63L377.73,669.51L378.33,671.1L378.49,672L378.47,672.78L377.01,680.75L377.33,682.32L378.71,684.64L379.02,686L378.86,686.69L378.19,688.33L378.05,689.27L378.09,689.66L378.25,689.65L380.1,689.3L380.99,689.5L381.82,690.05L384.07,689.91L386.1,688.99L392.31,684.97L395.62,680.29L400.92,677.68L407.08,672.89L407.45,668.1L409.17,666.21L411.59,665.33L414.22,665.35L416.8,664.8L417.71,662.35L423.75,653.92L423.06,649.14L420.22,644.97L420.45,641.41L419.35,638.81L417.77,637.32L416.44,635.34L417.13,633.36L419.5,632.06L424.73,629.9L431.72,622.42L436.38,619.91L442.62,614.09L445.35,612.31L447.51,610.06L450.25,608.33L453.54,606.74L456.12,604.86L458.28,602.78L458.07,599.32L457.08,596.01L443.49,585.29L438.57,577.76L437.03,577.02L435.83,578.03L434.48,578.68L429.23,580.43z"
	/>
	<path
		id="geita"
		name="Geita"
		d="M229.5,158.93L235.7,141.85L229.43,136.59L231.25,131.13L218.73,123.85L222.56,116.56L210.44,114.54L208.22,111.51L204.51,110.26L201.55,108.27L196.91,105.24L191.45,102.41L189.43,100.79L188.22,98.57L188.42,96.75L187.61,95.13L186.2,93.76L185.91,91.49L185.35,87.79L184.03,83.47L179.83,85.26L174.65,85.8L173.73,87.08L174.16,89.17L174.28,90.6L173.85,91.92L173.33,92.46L173.31,93.19L170.16,94.7L166.55,98.44L161.58,98.24L147.18,91.92L143.9,91.41L140.11,92.68L135.31,93.44L133.04,92.93L122.43,111.13L114.6,114.92L112.08,122L115.36,125.54L118.9,128.57L119.77,133.11L122.79,134.31L124.47,137.5L124.55,138.62L125.09,139.49L125.67,139.74L126.01,140.29L126.16,145.72L124.16,150.88L121.44,155.08L121.3,159.06L121.93,159.81L122.81,159.82L123.84,158.6L125.2,157.74L128.97,160.53L129.78,165.71L131.61,170.71L132.93,173.19L134.47,175.49L134.47,175.47L134.57,175.66L135.8,178.1L135.57,180.77L135.88,183.05L136.54,185.53L136.7,190.47L138.44,194.98L142.47,198.82L146.81,208.37L148.07,214.25L147.67,217.75L145.29,224.4L145.09,227.95L145.68,230.16L145.97,232.44L146.83,233.51L147.06,234.78L148.59,238.51L150.97,242.29L152.61,239.77L153.35,236.74L155.2,234.42L158.12,233.62L165.05,234.37L170.01,231.92L169.61,229.9L168.75,228L167.37,227.16L166.8,225.84L167.81,223.66L170.64,219.37L169.66,214.34L170.67,209.78L174.71,203.7L181.02,198.14L188.6,194.59L195.92,193.58L202.49,193.07L203.5,187.51L202.23,180.42L201.22,173.09L202.74,168.28L205.84,164.27L208.08,162.49L210.81,161.7L212.98,163.2L213.6,165.89L215.46,167.41L217.72,167.65L218.88,165.25L220.57,163.3L222.7,161.56L227.18,159.39L229.5,158.93z"
	/>
	<path
		id="simiyu"
		name="Simiyu"
		d="M327.16,86.78L324.32,85.2L324.35,84.52L323.23,81.7L321.11,79.67L318.45,79.02L315.77,80.35L312.51,82.73L311.83,83.05L310.76,83.39L309.8,84.21L308.13,85.99L305.29,84.57L301.22,83.84L296.91,83.7L293.38,84.03L291.4,84.78L290.36,84.9L299.51,102.24L301.64,105.08L307.14,111.44L310.29,114.55L312.9,116.88L316.17,118.37L319.45,120.39L321.18,123.68L320.93,125.72L319.54,127.12L318.1,127.04L316.84,127.57L314.1,129.71L309.15,128.28L307.19,129.54L305.47,130.03L304.27,131.12L303.17,132.45L301.47,132.87L300.44,134.7L302.66,142.75L302.05,145.66L299.99,151.89L299.51,155.31L298.57,157.54L296.77,159.22L295.01,164.4L298.74,164.83L302.16,167.88L307.3,172.65L313.58,175.69L317.19,176.65L319.85,176.08L322.32,174.74L324.42,175.69L326.51,179.7L329.93,181.79L335.26,182.36L341.91,182.55L347.81,184.27L350.09,188.08L352.57,196.28L355.61,203.33L359.6,208.47L362.65,211.33L366.09,213.82L368.24,212.23L370.8,211.45L373.42,210.91L385.63,205.96L386.54,204.43L388.46,202.85L391.05,202.38L390.25,199.59L390.53,196.71L392.45,193.98L394.91,191.74L395.35,190.72L395.47,189.62L396.88,189.02L398.57,189.48L400.52,187.63L401.14,136.3L403.65,136.67L406.35,138.85L408.06,141.5L410.8,142.37L412.02,141.61L413.14,140.68L417.05,138.92L419.02,135.26L423.76,114.78L423.15,107.83L383.67,108.14L381.03,106.98L377,104.22L375.18,104.12L372.86,104.41L370.8,103.37L369.18,100.85L367.2,98.55L361.9,95.45L359.53,93.71L357.86,91.3L356.21,90.32L354.23,89.93L348.62,86.92L346.1,86.91L343.59,86.6L339,82.35L337.24,83.41L336.75,85.92L333.9,86.18L329.04,85.9L327.16,86.78z"
	/>
	<path
		id="katavi"
		name="Katavi"
		d="M105.88,305.99L105.42,305.91L104.93,305.47L103.95,303.89L101.67,302.45L98.4,302.24L78.61,302.36L76.14,304.08L71.5,309.34L68.66,311.78L65.14,312.6L49.79,312.78L48.52,314.4L55.04,319.94L57.79,326.17L62.49,353.64L64.54,359.56L68.87,367.63L71.09,373.85L74.41,375.86L76.72,378.5L75.97,383.01L77.24,385.94L77.49,389.21L70.69,393.88L68.55,400.22L66.7,402.73L49.6,417.05L47.04,418.8L50.17,420.4L55.78,425.09L66.11,437.18L70.4,443.86L90.74,429.12L98.57,426.75L114.21,425.97L120.46,428.33L123.59,437.78L123.59,444.09L126.72,448.82L136.89,449.61L148.62,450.4L152.53,455.13L153.31,463.01L154.88,474.06L156.44,484.31L165.82,485.89L177.56,487.47L193.58,490.17L192.32,487.64L194.3,481.42L197.12,475.58L199.62,471.73L207,468.91L209.61,463.76L212.47,455.9L212.51,448.24L228.85,442.59L232.54,440.54L234.24,433.29L234.99,425.89L234.54,418.36L234.88,410.84L236.97,404.18L241.19,398.81L243.21,397.62L244.65,395.75L245.35,394.46L245.77,393.08L245.24,392.05L244.59,391.08L244.25,389.58L243.01,388.87L232.58,387.97L229.63,386.84L227.43,384.56L224.81,380.4L223.75,379.34L223.06,379.03L221.45,378.78L220.1,377.78L217.58,376.67L216.83,376.16L216.42,375.78L215.67,374.66L215.6,374.33L215.73,373.5L215.67,373.17L215.24,372.82L214.33,372.67L213.9,372.44L212.92,371.72L209.2,369.73L207.49,368.37L205.66,366.33L203.99,363.87L202.78,361.26L201.52,356.4L200.6,355.09L200.14,353.9L200.19,350.35L199.89,348.93L199.38,348.32L198.01,347.1L197.43,346.43L197.17,345.75L196.94,344.94L196.66,344.25L196.23,343.96L194.71,343.77L190.58,342.49L190.58,341.99L189.46,342.59L188.2,342.52L184.88,341.87L183.18,341.01L182.92,341.08L182.66,341.31L182.35,341.45L181.93,341.23L181.26,340.48L180.88,340.15L180.46,340.02L178.33,340.48L176.75,341.56L175.34,342.85L173.82,343.96L172.37,344.58L171.81,344.95L171.03,345.7L170.62,346.2L170.61,346.43L169.68,346.63L166.98,347.7L166.18,348.17L165.44,348.28L160.07,346.64L159.29,346.83L158.54,347.95L157.46,347.15L156.22,347.24L154.86,347.69L153.41,347.95L151.81,347.71L150.4,347.11L147.75,345.44L146.42,345.96L143.45,345.62L142.09,346.18L140.82,346.45L139.77,345.37L138.39,342.93L136.98,342.43L135.52,342.68L134.07,343.19L132.71,343.47L131.75,343.26L131.59,342.76L131.97,341.72L131.9,341.29L131.56,340.61L131.48,340.24L131.97,338.59L131.67,337.39L131.4,336.71L131.04,336.08L131.22,335.54L131.26,335.08L131.04,334.6L130.7,334.48L129.69,334.53L129.28,334.36L124.52,330.73L124.19,330.63L123.94,330.41L123.44,329.24L123.23,328.38L123.28,327.55L125.33,326.4L125.52,324.61L123.78,318.76L123.11,317.83L121.88,316.54L121.57,316.07L120.7,314.28L120.15,313.7L119.6,313.23L119.09,312.67L118.7,311.81L118.43,308.72L117.99,307.43L116.75,306.89L115.5,307.5L113.94,310.38L112.86,311.37L111.32,310.18L109.2,307.16L107.42,305.91L106.94,305.85L105.88,305.99z"
	/>
	<path
		id="tanga"
		name="Tanga"
		d="M709.11,265.42L703.02,261.01L696.89,256.59L690.76,252.16L684.63,247.73L678.5,243.31L672.37,238.88L666.24,234.45L660.12,230.03L653.98,225.62L653.51,225.27L653.5,225.28L629.02,260.36L625.77,262.61L622.19,266.41L621.62,271.17L621.58,274.65L622.57,277.73L623.99,279.61L624.5,281.97L625.33,283.99L626.53,285.85L627.15,288.57L623.7,288.44L621.71,287.31L619.81,285.93L618.55,286L613.64,287.04L610.06,288.24L605.65,289.28L601.38,288.26L597.89,287.09L594.32,287.09L590.36,290.66L579.78,303.47L579.18,305.15L579.77,307.03L579.7,309.09L578.11,316.05L576.5,320.84L569.91,329.37L568.54,333.25L567,341.71L564.73,345.42L556.19,351.25L557.28,358.87L559.44,359.99L561.35,360.63L559.87,362.75L560.14,364.64L560.4,365.11L560.39,365.79L562.01,367.52L563.93,368.79L565.85,366.87L567.27,363.96L570.32,361.69L572.59,358.92L575.19,357.86L577.5,355.79L578.81,347.5L579.89,345.58L582.18,346.35L582.57,346.65L582.76,347.17L583.67,347.51L584.78,347.39L586.01,348.04L587.26,348.18L589.69,349.19L590.53,352.51L595.19,357.86L596.92,359.35L598.86,357.38L602.62,357.58L605.52,356.65L605.43,354.63L606.5,353.72L608.22,354.24L609.38,353.18L620.26,350.25L625.13,351.37L627.21,351.03L629.06,350.13L634.18,350.54L638.68,352.79L640.7,355.02L643.38,356L646.44,356.8L648.32,359.44L650.29,360.28L652.58,360.15L653.67,361.24L654.89,361.97L657.29,362.48L658.01,361.87L658.81,361.35L660.08,361.85L661.54,361.84L662.57,361.58L663.51,362.1L667.63,360.31L669.2,359.81L670.5,358.46L671.49,358.35L672.48,358.54L673.92,358.06L675.09,357.12L681.09,358.12L681.09,358.12L681.14,357.88L681.42,357.2L681.82,356.57L682.29,356.07L682.6,355.37L682.62,350.72L682.89,349.03L683.4,347.47L684.99,345.06L686.29,342.38L687.21,341.23L687.9,339.89L687.96,336.53L688.43,335.04L687.45,334.6L689.8,333.09L692.31,329.3L694.37,325.06L695.34,322.2L695.24,321.05L694.74,320.61L694.18,320.34L693.87,319.73L694.08,318.75L694.74,318.18L695.57,317.78L696.32,317.28L697.32,315.94L698.1,314.36L701.21,305.32L700.78,304.43L699.67,305.84L698.89,306.44L698.32,305.91L698.56,305.39L700.75,302.08L702.18,299.1L702.65,298.49L705.38,296.09L705.67,295.57L705.54,294.9L704.75,293.17L704.7,292.08L702.4,293.03L701.37,293.08L701.49,292.1L702.2,290.7L702.47,290.34L703.09,290.07L704.21,290.42L704.7,290.11L704.91,289.39L704.66,285.29L704.47,284.58L703.23,282.64L704.79,282.76L705.88,281.44L707.15,277.72L707.6,278.99L707.37,280.36L706.91,281.75L706.66,283.18L707.08,284.23L708,283.35L710.29,279.45L710.76,278.3L711.03,277.06L711.11,275.53L710.93,273.93L710.31,273.53L709.23,273.44L707.64,272.8L709.6,271.81L710.94,270.58L711.33,268.24L710.87,266.22L709.6,265.87L709.11,265.42z"
	/>
	<path
		id="mara"
		name="Mara"
		d="M388.06,30.63L376.43,24.14L361.01,15.53L345.6,6.92L340.22,3.92L337.55,3.71L336.59,3.08L336.45,1.2L335.33,1.17L335.04,1.2L329.57,1.2L323.68,1.2L310.55,1.2L310.01,1.2L297.4,1.2L295.26,1.2L284.26,1.2L271.11,1.2L257.97,1.2L253.68,1.2L244.82,1.2L244.71,1.2L243.39,34.68L244.61,35.74L288.66,35.03L297.39,38.45L298.16,42.12L297.82,46.05L297.99,50.04L297.35,53.76L295.48,52.22L292.3,51.87L289.28,54.06L286.24,60.93L286.55,62.01L287.55,63.51L286.99,64.48L286.92,65L286.97,66.06L286.7,66.19L284.96,67.27L287.22,68.85L289.99,67.45L292.84,65.46L295.35,65.3L295.55,64.57L296.09,64.24L296.88,64.2L297.79,64.32L297.32,65.19L297.74,65.77L299.26,66.78L299.84,67.58L299.72,67.98L297.79,69.23L300.87,69.52L303.72,70.21L303.58,70.5L303.55,70.55L303.46,70.55L303.19,70.7L303.73,70.93L303.92,71.07L304.13,71.03L304.7,70.7L305.82,71.92L305.5,72.96L304.65,73.91L304.17,74.91L303.62,74.69L300.29,74.67L295.62,71.49L293.36,70.85L291.38,72.7L293.38,75.65L292.37,75.9L292.13,76.16L291.91,76.67L289.09,74.22L287.93,74.03L287.95,76.14L287.46,76.14L286.94,75.07L285.96,73.66L284.87,72.88L284.02,73.68L285.1,74.2L285.64,75.11L285.66,76.11L285.17,76.9L284.82,76.61L283.04,76.14L283.06,76.23L281.04,76.14L280.68,76.05L280.52,75.84L280.37,75.92L280.06,76.67L280.22,76.68L280.39,77.29L280.53,78.05L280.55,78.59L280.29,79.35L279.64,80.34L279.57,81.09L279.73,81.69L279.98,82.21L280.55,83.05L281.85,81.58L283.27,80.83L284.94,80.83L286.97,81.58L288.82,82.61L289.6,83.34L289.91,84.28L290.36,84.9L291.4,84.78L293.38,84.03L296.91,83.7L301.22,83.84L305.29,84.57L308.13,85.99L309.8,84.21L310.76,83.39L311.83,83.05L312.51,82.73L315.77,80.35L318.45,79.02L321.11,79.67L323.23,81.7L324.35,84.52L324.32,85.2L327.16,86.78L329.04,85.9L333.9,86.18L336.75,85.92L337.24,83.41L339,82.35L343.59,86.6L346.1,86.91L348.62,86.92L354.23,89.93L356.21,90.32L357.86,91.3L359.53,93.71L361.9,95.45L367.2,98.55L369.18,100.85L370.8,103.37L372.86,104.41L375.18,104.12L377,104.22L381.03,106.98L383.67,108.14L423.15,107.83L426.11,99.42L427.85,98.6L429.87,97.96L431.69,94.1L432.76,89.86L431.75,86.3L427.67,85.09L424.96,83.32L424.39,80.11L425.93,51.79L425.93,51.78L422.67,49.96L407.25,41.35L391.84,32.75L388.06,30.63z"
	/>
	<path
		id="kilimanjaro"
		name="Kilimanjaro"
		d="M582.29,139.15L582.25,139.14L579.08,138.42L573.16,135.97L570.82,134.6L568.22,134.29L566.82,134.78L565.58,134.33L561.93,134.45L558.61,136.64L554.32,140.16L552.5,142.06L550.11,143.09L545.31,144.51L543.66,149.23L543.77,152.68L544.43,156.05L546.18,157.74L548.48,158.74L553.48,162.04L556.16,166.97L556.31,180.01L558.08,179.56L559.9,179.38L561.86,179.58L563.77,177.66L565.2,177.25L566.62,177.11L567.54,178.2L568.42,179.5L570.41,180.14L572.51,180.27L573.56,181.18L573.27,182.54L575.49,187.8L579.34,192L581.99,196.52L584.12,200.27L585.39,203.47L585.14,211.46L585.78,215.1L586.65,216.57L588.23,222.03L588.66,223.98L588.73,225.97L587.65,228.6L587.6,230.84L587.76,233.16L587.36,238.72L587.5,244.24L589.88,248.32L593.58,251.36L595.24,251.59L601.49,255.08L606.47,258.89L608.2,259.52L609.84,259.26L612.48,257.6L614.09,257.38L618.42,257.53L619.41,257.93L620.13,258.4L621.56,258.68L622.31,259L623.87,260.37L625.77,262.61L629.02,260.36L653.5,225.28L653.51,225.27L647.86,221.19L641.73,216.77L635.6,212.34L629.48,207.93L623.35,203.5L617.22,199.08L611.1,194.65L607.18,191.84L606.2,190.55L605.48,189.08L604.23,184.64L603.69,183.54L602.69,182.62L601.33,181.96L599.82,181.56L598.28,181.43L594.84,181.63L594.64,180.64L595.21,179.23L595.5,178.04L595.13,177.48L593.95,177.33L593.44,176.8L593.32,176.04L593.51,175.2L593.85,174.4L594.21,173.76L595.26,172.6L596.86,171.33L598.57,170.42L599.93,170.31L599.82,169.03L600.08,168.02L600.79,167.41L602.09,167.31L600.65,158.52L600.5,157.57L599.23,149.78L598.13,148.01L592.2,144.69L582.29,139.15z"
	/>
	<path
		id="manyara"
		name="Manyara"
		d="M608.2,259.52L606.47,258.89L601.49,255.08L595.24,251.59L593.58,251.36L589.88,248.32L587.5,244.24L587.36,238.72L587.76,233.16L587.6,230.84L587.65,228.6L588.73,225.97L588.66,223.98L588.23,222.03L586.65,216.57L585.78,215.1L585.14,211.46L585.39,203.47L584.12,200.27L581.99,196.52L579.34,192L575.49,187.8L573.27,182.54L573.56,181.18L572.51,180.27L570.41,180.14L568.42,179.5L567.54,178.2L566.62,177.11L565.2,177.25L563.77,177.66L561.86,179.58L559.9,179.38L558.08,179.56L556.31,180.01L553.81,180.96L551.53,182.49L550.2,184.37L548.56,185.85L543.16,185.91L541.28,187.99L539.51,190.37L537.32,190.88L535.96,188.47L534.67,187.59L533.34,187.22L528.1,187.49L527.59,188.04L527.59,188.79L527.07,189.98L525.65,190.47L524.16,191.77L522.77,192.05L521.47,192.56L517.18,198.19L516,201.11L516.63,209.33L518.24,218.43L518.14,222.55L517.12,223.07L515.94,222.6L513.9,222.51L511.94,223.14L508.57,223.43L505.34,224.06L504.64,225.53L501.31,225.95L497.74,224.45L481.52,200.89L478.1,194.46L475.74,191.08L471.6,192.48L468.12,197.08L465.56,199.32L463.65,201.74L463.44,203.9L461.98,204.31L460.41,199.36L460.92,194.12L462.69,188.95L461.74,185.54L459.84,185.28L459.42,190.29L458.17,192.86L449.64,195.14L449.87,197.91L448.61,199.8L445.37,199.36L443.2,197.11L444.61,194.68L446.43,192.6L444.19,191.65L441.3,191.08L438.51,189.57L435.48,189.6L430.71,194.41L427.86,195.46L425.36,197.18L423.34,197.85L421.14,197.82L414.3,202.01L413.63,202.9L413.4,203.95L412.4,205.02L408.19,206.32L405.7,207.65L402.98,208.78L400.5,210.12L403.14,215.56L409.28,222.23L409.46,224.38L405.35,229.85L401.52,236.79L398.85,244.07L402.09,247.68L406.98,250.58L410.56,254.7L413.2,260.52L417.98,262.85L418.66,265.7L418.63,268.73L421.52,270.72L425.73,271.46L428.44,276.52L432.72,278.17L433.68,278.28L434.56,278.7L441.13,279.31L444.88,278.68L446.46,276.12L451.4,266.08L455.04,260.31L455.72,257.56L454.45,255.01L454.05,253.86L453.92,252.65L454.25,251.38L454.9,251.01L456.48,251.62L462.13,247.73L465.22,244.77L465.98,243.54L467.14,242.73L468.39,243.24L469.6,243.92L471.33,243.06L473.09,241.85L476.65,241.94L478.85,238.28L479.66,237.69L481.43,236.65L483.56,235.02L501.52,229.94L502.02,251.3L502.72,255.34L503.88,259.28L505.54,262.95L505.93,265.3L505.1,279.95L502.45,297.28L500.91,302.34L498.63,305.89L497.07,309.75L497.85,314.3L496.61,318.35L497.57,321.66L500.32,324.56L504.05,327.55L507.4,330.89L509.46,334.5L511.98,337.78L516.35,340.47L520.97,342.66L523.85,346.17L525.92,350.37L528.52,354.43L532.1,357.59L536.91,359.48L541.9,360.94L545.74,359.68L556.19,351.25L564.73,345.42L567,341.71L568.54,333.25L569.91,329.37L576.5,320.84L578.11,316.05L579.7,309.09L579.77,307.03L579.18,305.15L579.78,303.47L590.36,290.66L594.32,287.09L597.89,287.09L601.38,288.26L605.65,289.28L610.06,288.24L613.64,287.04L618.55,286L619.81,285.93L621.71,287.31L623.7,288.44L627.15,288.57L626.53,285.85L625.33,283.99L624.5,281.97L623.99,279.61L622.57,277.73L621.58,274.65L621.62,271.17L622.19,266.41L625.77,262.61L623.87,260.37L622.31,259L621.56,258.68L620.13,258.4L619.41,257.93L618.42,257.53L614.09,257.38L612.48,257.6L609.84,259.26L608.2,259.52z"
	/>
	<path
		id="arusha"
		name="Arusha"
		d="M582.29,139.15L576.79,136.08L561.37,127.46L545.96,118.85L530.55,110.23L515.14,101.62L499.72,93.02L484.31,84.4L468.9,75.79L453.49,67.18L438.08,58.56L425.93,51.78L425.93,51.79L424.39,80.11L424.96,83.32L427.67,85.09L431.75,86.3L432.76,89.86L431.69,94.1L429.87,97.96L427.85,98.6L426.11,99.42L423.15,107.83L423.76,114.78L419.02,135.26L417.05,138.92L413.14,140.68L412.02,141.61L410.8,142.37L408.06,141.5L406.35,138.85L403.65,136.67L401.14,136.3L400.52,187.63L398.57,189.48L396.88,189.02L395.47,189.62L395.35,190.72L394.91,191.74L392.45,193.98L390.53,196.71L390.25,199.59L391.05,202.38L395.57,206.51L400.5,210.12L402.98,208.78L405.7,207.65L408.19,206.32L412.4,205.02L413.4,203.95L413.63,202.9L414.3,202.01L421.14,197.82L423.34,197.85L425.36,197.18L427.86,195.46L430.71,194.41L435.48,189.6L438.51,189.57L441.3,191.08L444.19,191.65L446.43,192.6L444.61,194.68L443.2,197.11L445.37,199.36L448.61,199.8L449.87,197.91L449.64,195.14L458.17,192.86L459.42,190.29L459.84,185.28L461.74,185.54L462.69,188.95L460.92,194.12L460.41,199.36L461.98,204.31L463.44,203.9L463.65,201.74L465.56,199.32L468.12,197.08L471.6,192.48L475.74,191.08L478.1,194.46L481.52,200.89L497.74,224.45L501.31,225.95L504.64,225.53L505.34,224.06L508.57,223.43L511.94,223.14L513.9,222.51L515.94,222.6L517.12,223.07L518.14,222.55L518.24,218.43L516.63,209.33L516,201.11L517.18,198.19L521.47,192.56L522.77,192.05L524.16,191.77L525.65,190.47L527.07,189.98L527.59,188.79L527.59,188.04L528.1,187.49L533.34,187.22L534.67,187.59L535.96,188.47L537.32,190.88L539.51,190.37L541.28,187.99L543.16,185.91L548.56,185.85L550.2,184.37L551.53,182.49L553.81,180.96L556.31,180.01L556.16,166.97L553.48,162.04L548.48,158.74L546.18,157.74L544.43,156.05L543.77,152.68L543.66,149.23L545.31,144.51L550.11,143.09L552.5,142.06L554.32,140.16L558.61,136.64L561.93,134.45L565.58,134.33L566.82,134.78L568.22,134.29L570.82,134.6L573.16,135.97L579.08,138.42L582.25,139.14L582.29,139.15z"
	/>
	<path
		id="singida"
		name="Singida"
		d="M400.5,210.12L395.57,206.51L391.05,202.38L388.46,202.85L386.54,204.43L385.63,205.96L373.42,210.91L370.8,211.45L368.24,212.23L366.09,213.82L364.27,215.77L359.92,216.9L357.18,219.26L356.93,222.41L356.36,223.71L355.66,224.86L355.13,227.14L352.87,227.37L350.58,226.59L348.91,228L345.21,234.37L342.11,241.05L333.58,252.1L332.03,258.66L332.83,264.75L332.98,270.94L330.41,277.89L330.45,281.51L331.65,284.96L332.27,287.78L330.24,293.43L330.67,296.45L331.38,299.5L333.46,301.62L337.11,302.98L340.35,304.9L342.66,306.78L345.12,308.37L351.49,314.8L353.05,316.77L351.04,319.9L348.37,322.63L343.7,326.59L340.53,331.45L342.1,333.32L344.26,334.93L344.48,338.17L343,341.19L341.08,342.71L340.66,344L340.48,345.42L340.42,351.73L336.65,365.76L336.45,371.78L337.26,374.26L337.55,376.59L332.6,380.29L328.4,383.82L325.87,387.89L325.09,388.51L323.32,388.75L321.78,389.4L318.92,391.47L311.61,398.91L306.42,400.89L305.31,401.52L301.88,405.61L302.64,407.2L302.17,414.87L302.58,422.53L299.46,428.91L301.65,430.76L303.29,433.14L304.29,436.89L304.84,440.84L306.58,443.73L309.64,444.88L312.13,447.3L313.83,450.5L314.97,452.17L316.37,453.62L320.49,454.88L321.41,456.55L321.64,458.51L322.91,461.53L323.19,464.51L324.37,465.2L325.78,465.56L328.77,467.7L332.03,469.16L338.33,465.63L344.26,461.59L346.47,458.48L348.94,455.75L352.23,455.78L355.45,456.96L358.8,457.11L362.15,456.62L363.56,455.45L363.44,453.19L367.06,448.83L388.19,444.41L390.87,439.33L391.69,432.33L394.34,430.19L397.4,428.45L398.63,427.51L400.06,426.95L401.37,426.12L402.46,425.06L405.21,425.31L408.19,426.06L411.17,426.41L414.05,427.29L413.71,419.6L412.55,412.87L421.6,412.45L423.58,407.63L422.31,395.25L423.06,388.76L424.25,386.46L424.28,383.86L423.61,381.01L422.15,378.46L421.56,372.18L423.12,365.69L423.38,357.31L425.94,351.3L427.78,348.59L428.48,345.83L428.84,342.92L431.07,340.97L432.55,339.15L431.75,337.06L429.36,334.48L427.55,331.48L427.38,330.09L427.07,328.92L426.39,328.76L425.88,328.31L425.11,327.39L424.04,326.7L422.77,324.6L421.88,322.33L419.93,320.23L418.27,317.83L417.13,312.94L415.83,310.11L414.91,307.19L414.98,304.5L414.75,301.82L413.28,299.4L413.66,297L431.17,284.98L431.82,283.11L433.01,280.71L432.72,278.17L428.44,276.52L425.73,271.46L421.52,270.72L418.63,268.73L418.66,265.7L417.98,262.85L413.2,260.52L410.56,254.7L406.98,250.58L402.09,247.68L398.85,244.07L401.52,236.79L405.35,229.85L409.46,224.38L409.28,222.23L403.14,215.56L400.5,210.12z"
	/>
	<path
		id="ruvuma"
		name="Ruvuma"
		d="M520.46,777.42L524.96,776.7L526.03,776.33L527.94,776.11L528.47,775.78L528.86,775.31L529.55,774.73L532.2,773.72L533.03,773.28L533.67,772.67L535.67,769.73L538.92,765.86L540.13,765.45L540.82,765.8L542.23,765.91L544.02,767.07L545.08,767.27L551.72,766.67L552.39,766.38L553.03,765.89L554.16,765.23L555.02,767.48L556.97,769.94L559.48,772.06L562,773.28L568.1,774.67L571.23,775.01L573.81,774.73L574.51,774.42L575.07,774.05L575.63,773.78L576.3,773.73L577.13,774.13L578.41,775.48L579,775.78L582.55,776.79L584.19,776.79L585.55,776.56L586.04,776.3L586.64,775.78L587.04,775.05L587.45,774.04L588,773.13L588.87,772.73L590.37,772.42L592.97,771.04L594.53,770.73L596.8,770.71L598.34,770.44L599.68,769.67L602.87,767.1L608.1,764.79L609.59,763.73L610.49,762.93L611.07,761.95L610.94,761.05L610.51,760.15L610.22,759.18L610.6,757.53L612.32,754.45L612.22,753.13L612.89,752.24L614,748.93L614.18,747.86L614.67,747.22L619.18,744.65L620.37,744.36L623.29,744.18L623.93,744.01L624.61,743.3L628.71,742.59L630.33,742.63L630.33,742.61L625.37,725.35L623.12,710.49L619.55,703.84L617.95,702.04L616.72,700.16L615.7,696.73L613.85,693.5L613.37,691.89L612.59,690.18L610.83,687.22L608.88,685.66L606.71,684.44L603.35,681.99L563.49,672.21L546.13,665.53L542.58,662.48L542.8,657.23L542.53,651.93L543.02,647.49L544.85,643.5L550.79,638.08L556.27,632L559.41,627.47L561.13,623.23L562.11,618.88L556.76,620.46L550.37,625.26L548.06,626.3L542.4,629.9L537.63,634.21L533.49,639.17L527.72,644.21L521.08,647.88L516.2,648.01L514.39,644.55L518.3,639.41L520.55,633.52L517.65,628.21L515.42,622.67L515.49,620.3L514.56,618.26L513.75,618.67L512.26,619.09L512.29,622.36L511.65,624.18L508.47,628.7L506.62,630.65L506.2,630.98L500.26,631.83L495.88,631.09L489.62,632.71L487.7,631.56L487.32,630.94L486.66,631.13L486.13,630.58L486.34,629.65L483.18,630.56L479.93,633.41L479.27,635.38L478.07,636.9L475.53,637.07L472.94,636.69L462.94,637.06L459.82,634.64L460.28,630.22L461.43,629.27L463.02,629.18L464.4,628.03L467.57,622.99L470.04,619.92L470.54,618.39L469.87,616.85L470.16,614.55L471.25,612.31L474.16,609.65L475.27,605.99L474.03,603.57L473.22,601.01L472.97,595.83L472.64,594.35L472.62,593.15L473.09,592.47L472.84,591.78L468.23,597L463.99,600.99L461.19,602.08L458.28,602.78L456.12,604.86L453.54,606.74L450.25,608.33L447.51,610.06L445.35,612.31L442.62,614.09L436.38,619.91L431.72,622.42L424.73,629.9L419.5,632.06L417.13,633.36L416.44,635.34L417.77,637.32L419.35,638.81L420.45,641.41L420.22,644.97L423.06,649.14L423.75,653.92L417.71,662.35L416.8,664.8L414.22,665.35L411.59,665.33L409.17,666.21L407.45,668.1L407.08,672.89L400.92,677.68L395.62,680.29L392.31,684.97L386.1,688.99L384.07,689.91L381.82,690.05L380.99,689.5L380.1,689.3L378.25,689.65L378.09,689.66L378.16,690.23L378.5,691.24L378.97,692.2L379.55,693.03L380.16,693.32L380.78,693.28L381.02,693.35L381.27,693.42L381.47,694.28L381.41,695.68L381.61,696.11L383.15,697.95L383.83,699.42L383.89,701.01L382.94,702.55L383.4,703.23L383.52,703.55L383.83,703.97L384.29,704.31L384.72,704.83L384.91,705.77L384.03,706.43L383.6,707.05L383.87,708.96L382.94,713.53L382.94,716.77L382.79,717.53L381.47,720.51L380.8,721.37L379.37,723.21L379.02,725.05L379.33,726.55L380.29,729.55L380.49,731.34L381.04,732.63L384.46,735.59L384.83,736.31L385.06,736.95L385.4,737.41L386.7,737.74L387.27,738.14L387.71,738.7L387.89,739.36L388.12,741.03L388.76,742.46L389.7,743.53L390.83,744.18L390.83,744.63L390.41,744.88L389.79,745.36L389.36,745.59L390.95,748.57L391.41,749.13L391.88,749.08L392.8,748.27L393.33,748.09L393.92,748.16L397.02,749.21L398.76,750.13L400.1,751.35L400.64,752.85L400.94,753.41L402.29,754.53L402.9,756.51L403.58,757.28L404.25,757.87L404.56,758.4L404.72,758.84L405.06,759.5L405.42,760.36L405.58,761.43L405.58,765.23L405.7,765.86L435.65,766.17L438.65,766.08L438.77,766.48L439.25,766.95L439.92,767.17L441.68,767.26L441.99,767.23L442.95,766.84L442.97,766.77L443.43,766.64L443.72,766.47L444.05,766.51L444.69,767L445.07,767.55L445.26,768.06L445.59,768.47L446.4,768.73L446.49,767.48L447.28,767.42L448.43,767.88L449.61,768.18L451.3,767.23L451.38,767.23L455.25,766.21L455.97,765.75L456.48,764.24L457.08,763.23L457.87,762.25L458.74,761.68L458.18,760.08L459.51,759.29L463.11,758.63L464.38,757.63L466.62,754.78L467.57,754.13L470.51,754.68L472.54,755.55L473,755.68L475.71,755.65L476.67,756.12L477.91,757.63L477.23,759.27L477.87,760.65L479.21,761.36L480.6,760.95L481.63,760.89L483.13,761.56L485.75,763.18L486.46,763.47L488.04,763.89L488.73,764.18L489.34,764.66L489.8,765.15L490.29,765.53L490.95,765.68L492.1,766.24L492.5,767.61L492.67,769.27L493.15,770.73L492.69,771.83L492.9,773.34L493.55,774.67L494.37,775.24L497.33,774.73L498.2,774.89L499.31,775.57L500.05,775.78L501.1,775.67L503.72,774.92L505.97,774.57L506.47,774.23L506.84,773.89L507.18,773.73L515.57,773.73L516.13,774.13L516.56,775.85L517.01,776.23L517.41,776.39L519.22,777.29L520.46,777.42z"
	/>
	<path
		id="mtwara"
		name="Mtwara"
		d="M798.59,685.49L798.63,684.53L798.3,683.85L797.9,683.3L797.7,682.75L797.81,681.94L798.59,679.47L798.13,679.5L797.18,679.42L796.72,679.47L797.64,678.32L798.83,677.22L799.49,676.05L798.86,674.73L798.44,674.08L798.19,673.34L797.88,672.74L797.21,672.49L796.31,672.62L795.65,672.99L795.41,673.62L795.74,674.48L797,674.22L797.86,675.35L797.53,676.79L795.21,677.47L794.86,677.33L792.45,676.85L792.26,676.97L791.54,676.29L789.23,671.1L788.83,670.45L788.09,669.81L786.48,669.03L785.85,668.51L785.47,667.62L785.25,666.6L784.84,665.78L783.89,665.47L781.44,668.51L785.16,670.09L786.38,670.45L785.8,670.81L785.37,670.95L784.94,670.84L784.38,670.45L784.19,670.97L784,671.36L783.87,671.82L783.89,672.49L783,671.87L781.33,670.38L780.46,669.77L779.7,669.46L779.26,669.54L779.04,669.97L778.98,670.73L778.74,671.31L778.18,671.19L776.98,670.45L776.64,670.5L776.26,670.67L775.88,670.63L775.51,670.04L775.72,669.59L776.42,669.28L776.95,668.91L776.73,668.24L776.14,667.01L776.37,665.94L776.85,664.97L776.98,664.02L776.75,663.23L776.53,663.12L776.18,663.2L773.31,662.16L771.91,661.82L769.69,660.85L768.64,660.54L767.27,660.34L766.42,660.42L766.26,661.04L766.91,662.51L767.27,663.63L767.26,664.9L766.89,666.1L766.15,666.97L765.56,664.78L765.53,663.85L765.53,663.85L763.23,665.29L760.72,667.21L749.12,673.83L746.12,674.93L744.28,677.36L743.82,680.48L742.58,683.31L742.61,685.27L744.46,686.86L744.85,689.47L743.16,692.04L740.79,694.26L737.86,692.7L735.76,687.58L734.61,686.81L733.59,685.5L731.21,678.81L725.7,675.28L723.94,675.33L722.13,675.63L720.3,677.69L718.08,678.77L715.77,678.63L714.97,680.31L714.24,683.38L711.06,684.02L710.17,682.07L709.7,679.77L707.34,679.27L704.43,680.49L698.48,683.82L695.14,684.93L689.59,687.48L687.62,688.93L686.29,690.42L681.28,690.84L678.49,690.04L676.41,688.58L673.96,688.5L671.7,689.6L665.27,690.1L646.19,698.02L641.74,702.54L638.21,707.89L635.69,709.59L623.12,710.49L625.37,725.35L630.33,742.61L630.33,742.63L630.89,742.64L630.89,742.52L631.12,742.31L631.48,742.14L631.92,742.13L632.04,742.31L632.42,742.99L632.65,743.13L633.35,743.36L634.76,744.4L635.61,744.63L636.44,744.49L638.02,743.83L638.74,743.63L642.05,744.15L644.63,745.94L648.59,750.13L651.14,751.44L656.83,752.88L658.93,754.11L658.97,754.13L660.76,751.91L667.83,747.09L669.45,745.04L670.6,744.05L672.74,743.47L674.19,742.79L674.97,742.64L675.83,742.73L677.38,743.1L678.18,743.13L679.49,742.43L682.35,739.69L683.3,739.09L684.79,738.71L686.06,737.83L687.98,736.14L690.4,735.58L699.79,735.59L702.28,735.1L704.49,734.09L706.18,734.43L709.1,736.03L710.62,736.59L712.52,736.62L714.33,736.07L716,735.15L730.08,723.81L731.22,723.19L732.45,722.78L737.98,722.36L750.03,719.71L751.84,718.94L759.03,713.96L766.44,710.78L767.81,710.06L776.78,703.01L778.79,702.26L779.63,701.44L780.98,699.66L785.22,695.43L787.94,693.39L792.59,691.76L795.16,689.91L797.45,687.61L798.59,685.49z"
	/>
	<path
		id="lindi"
		name="Lindi"
		d="M739.83,583.64L739.4,582.34L735.69,580.53L735.77,581.74L736.64,582.6L737.76,584.07L739.05,584.93L739.83,583.64zM733.14,543.8L732.37,543.03L731.43,542.43L730.57,542.26L730.91,543.63L731.94,544.57L733.3,544.83L733.14,543.8zM662.14,541.37L660.97,538.42L659.8,531.55L654.5,526.46L650.99,524.05L644.39,518.22L640.4,516.18L631.55,514.24L623.03,511.26L619.39,509.03L609.36,501.36L608.9,501.94L608.19,503.35L607.73,503.99L607.14,504.47L605.28,505.52L604.13,506.48L603.31,507.49L601.85,510.02L601.41,510.52L600.93,510.92L600.54,511.35L600.37,512L600.36,512.73L600.26,513.24L600.03,513.71L598.21,515.85L597.66,516.81L597.43,517.94L596.95,519.06L595.82,519.65L594.52,520.02L593.52,520.47L592.96,521.09L590.47,525.04L589.61,527.14L588.55,528.61L588.21,529.63L587.86,530.15L587.33,530.52L586.3,530.87L585.87,531.16L584.49,532.93L582.45,536.66L581.21,538.34L579.75,539.82L578.3,541.69L577.73,543.82L578.97,546.05L579.25,546.97L579.22,548.51L579,550.12L577.34,555.69L574.23,562.08L573.77,564.19L574.79,570.78L574.75,573.19L576.65,577.91L576.03,582.44L578.16,585.56L577.64,588.4L573.65,589.69L570.34,592.44L569.73,597.06L568.88,599.23L567.71,601.23L562.11,618.88L561.13,623.23L559.41,627.47L556.27,632L550.79,638.08L544.85,643.5L543.02,647.49L542.53,651.93L542.8,657.23L542.58,662.48L546.13,665.53L563.49,672.21L603.35,681.99L606.71,684.44L608.88,685.66L610.83,687.22L612.59,690.18L613.37,691.89L613.85,693.5L615.7,696.73L616.72,700.16L617.95,702.04L619.55,703.84L623.12,710.49L635.69,709.59L638.21,707.89L641.74,702.54L646.19,698.02L665.27,690.1L671.7,689.6L673.96,688.5L676.41,688.58L678.49,690.04L681.28,690.84L686.29,690.42L687.62,688.93L689.59,687.48L695.14,684.93L698.48,683.82L704.43,680.49L707.34,679.27L709.7,679.77L710.17,682.07L711.06,684.02L714.24,683.38L714.97,680.31L715.77,678.63L718.08,678.77L720.3,677.69L722.13,675.63L723.94,675.33L725.7,675.28L731.21,678.81L733.59,685.5L734.61,686.81L735.76,687.58L737.86,692.7L740.79,694.26L743.16,692.04L744.85,689.47L744.46,686.86L742.61,685.27L742.58,683.31L743.82,680.48L744.28,677.36L746.12,674.93L749.12,673.83L760.72,667.21L763.23,665.29L765.53,663.85L765.53,663.85L765.42,660.58L761.07,653.32L759.28,651.94L758.32,651.76L757.27,651.81L756.32,651.68L754.79,650.15L752.65,650.3L751.69,649.76L750.22,649.6L746.87,653.68L745.02,654.01L746.07,653.25L746.91,652.42L747.43,651.4L747.57,650.04L746.67,648.19L746.7,647.36L748.91,646.81L751.39,645.76L752.16,645.24L752.09,644.6L750.04,643.02L749.44,642.03L751.52,642.28L752.87,641.57L753.39,640.08L752.91,638.01L752.43,637.18L751.87,636.64L750.69,635.77L750.24,635.02L749.67,633.05L749.44,632.53L748.9,632.47L746.05,632.53L745.46,632.26L745.79,631.64L746.99,630.49L748.44,629.94L749.03,629.46L748.37,628.05L748.62,626.57L748.21,625.78L747.26,624.83L746.91,624.32L746.55,623.53L746.71,622.93L747.29,622.47L747.47,622.01L746.5,621.32L745.75,620.22L744.9,616.25L744.3,614.81L742.58,613.23L742.09,612.56L742.1,611.99L742.26,611.16L742.15,610.41L741.35,610.07L741.05,610L740.81,609.8L740.35,609.32L739.64,608.96L739.28,609.27L739.11,610.07L737.62,610.14L736.8,610.29L736.16,610.61L735.93,609.2L735.92,608.18L736.28,607.51L737.18,607.09L738.32,606.98L739.02,607.08L739.65,606.94L740.61,606.09L741.58,604.86L741.82,603.99L741.6,601.58L741.69,600.87L742.09,599.41L742.09,598.6L741.77,598.05L741.23,597.45L740.81,596.85L740.86,596.34L741.99,594.05L741.65,591.8L740.42,589.71L737.33,585.78L736.29,584.82L735.43,584.88L734.63,585.54L733.47,586.28L732.24,586.87L731.22,587.09L731.52,586.36L731.52,585.81L730.99,584.64L730.85,583.84L731.13,583.32L731.55,582.84L731.76,582.14L731.59,581.71L731.27,581.48L730.93,581.35L730.78,581.17L730.83,580.91L731.22,580.18L731.24,580.06L731.22,578.69L731.06,578.42L730.41,577.92L730.24,577.65L730.33,576.03L730.75,574.59L730.74,573.58L729.52,573.19L728.12,573.06L727.56,572.64L727.8,571.89L728.75,570.7L724.42,571.12L723.33,570.7L724.79,568.62L725.08,568.42L725.5,568.3L726.31,567.97L727.69,567.78L728.78,568.42L730.24,570.21L731.62,571.5L731.76,571.65L732.81,572.46L733.32,572.64L734.18,572.69L735.18,572.41L734.75,571.75L732.73,570.21L731.94,569.04L731.11,566.49L730.5,565.48L729.57,564.83L728.71,564.45L727.92,563.91L727.29,562.72L726.99,561.19L726.95,560.29L726.52,559.86L725.08,559.75L724.3,559.53L724.01,559.02L723.8,558.44L723.38,557.99L720.87,557.27L721.27,555.85L721.4,549.79L721.11,548.15L720.48,546.28L719.58,544.6L717.18,542.13L716.96,540.09L717.44,535.88L717.35,533.67L717.03,531.65L716.44,529.75L715.86,528.57L715.86,528.57L714.84,528.19L712.17,526.06L708.58,526.18L694.65,529.25L685.71,532.26L681.23,533.22L680.02,532.8L679.34,531.73L677.96,531.3L672.95,532.43L671.1,535.46L669.57,539.47L666.23,541.5L662.14,541.37z"
	/>
	<path
		id="iringa"
		name="Iringa"
		d="M414.05,427.29L411.17,426.41L408.19,426.06L405.21,425.31L402.46,425.06L401.37,426.12L400.06,426.95L398.63,427.51L397.4,428.45L394.34,430.19L391.69,432.33L390.87,439.33L388.19,444.41L367.06,448.83L363.44,453.19L363.56,455.45L362.15,456.62L358.8,457.11L355.45,456.96L352.23,455.78L348.94,455.75L346.47,458.48L344.26,461.59L338.33,465.63L332.03,469.16L333.88,470.4L335.04,471.74L334.01,473.75L332.58,475.48L330.61,480.13L328.97,482.94L327.02,485.53L325.71,488.21L325.09,491.16L326.13,493.27L328.88,493.64L362.28,491.95L365.97,492.25L376.6,494.78L379.25,496.64L382.31,497.65L401.75,500.76L402.47,502.95L402.21,504.82L404.11,505.15L407.57,504.86L410.83,506.03L412.8,508.05L411.07,510.41L407.93,512.86L403.98,514.04L402.24,516.19L399.65,522.2L397.77,525.35L395.23,527.3L392.2,528.33L389.57,530.79L387.53,533.93L386.03,536.94L387.17,539.89L388.71,542.15L389.87,544.63L389.03,549.37L399.2,552.47L399.2,556.12L416.42,562.19L415.62,575.16L422.43,580.03L429.23,580.43L434.48,578.68L433.61,575.84L433.88,570.67L433.22,569.2L431.92,568.59L431.82,567.44L433.65,564.76L433.56,561.53L432.38,558.6L432.74,555.39L438.5,555.21L445.06,557.1L453.28,558.5L454.44,560.19L454.78,566.35L456.32,567.67L457.19,564.38L457.08,560.92L459.75,551.67L461.88,549.63L468.53,546.54L473.63,541.95L476.32,534.42L481.26,528.23L486.82,523.04L493.1,519.19L495.77,519.76L498.08,519.18L502.25,518.54L503.49,516.42L503.03,513.98L502.64,512.79L502.54,511.55L502.58,510.61L502.69,509.84L504.95,507.67L510.18,503.65L516.49,501.32L523.25,501.99L529.58,503.87L535.02,502.29L537.64,495.86L540.88,489.79L546.03,485.03L549.56,480.38L548.06,480.03L547.32,480.03L547.08,479.99L546.01,479.53L542.41,479.19L541.82,479.21L540.84,479.56L539.85,480.06L538.73,480.24L537.41,479.66L536.88,479L536.72,478.23L537,475.96L536.94,475.7L536.75,475.44L536.34,475.11L535.82,474.87L534.76,474.63L532.9,474.42L531.47,473.83L529.79,473.46L529.5,473.28L528.83,472.43L527.59,471.41L526.07,470.78L522.8,470.01L521.86,469.9L520.26,470.19L519.29,470.24L517.18,469.29L515.94,467.16L514.34,459.85L513.96,458.1L513.5,457.07L512.28,456.27L510.56,455.92L507.23,455.96L505.3,456.59L504.35,456.71L503.45,456.24L503.19,455.69L502.99,454.27L502.71,453.7L502.31,453.16L501.49,451.48L500.95,450.95L499.85,450.27L499.49,449.95L498.83,448.47L498.33,446.83L497.48,445.51L495.81,444.96L494.42,444.73L487.93,442.14L486.96,442.04L485.39,442.13L484.57,442.06L484,441.77L482.96,441.49L478.81,442.5L477.31,442.22L474.47,441.23L473.22,441.01L472.15,440.54L470.87,439.7L470.14,439.53L463.82,437.97L461.52,438.14L458.98,437.93L453.85,435.1L450.4,433.83L446.94,433.45L445.91,432.84L445.93,431.7L445.03,430.24L443.42,429.37L440.05,428.21L436.61,427.91L434.2,428.31L431.77,428.31L429.72,428.84L428.25,430.39L421.02,431.52L414.05,427.29z"
	/>
	<path
		id="dodoma"
		name="Dodoma"
		d="M541.9,360.94L536.91,359.48L532.1,357.59L528.52,354.43L525.92,350.37L523.85,346.17L520.97,342.66L516.35,340.47L511.98,337.78L509.46,334.5L507.4,330.89L504.05,327.55L500.32,324.56L497.57,321.66L496.61,318.35L497.85,314.3L497.07,309.75L498.63,305.89L500.91,302.34L502.45,297.28L505.1,279.95L505.93,265.3L505.54,262.95L503.88,259.28L502.72,255.34L502.02,251.3L501.52,229.94L483.56,235.02L481.43,236.65L479.66,237.69L478.85,238.28L476.65,241.94L473.09,241.85L471.33,243.06L469.6,243.92L468.39,243.24L467.14,242.73L465.98,243.54L465.22,244.77L462.13,247.73L456.48,251.62L454.9,251.01L454.25,251.38L453.92,252.65L454.05,253.86L454.45,255.01L455.72,257.56L455.04,260.31L451.4,266.08L446.46,276.12L444.88,278.68L441.13,279.31L434.56,278.7L433.68,278.28L432.72,278.17L433.01,280.71L431.82,283.11L431.17,284.98L413.66,297L413.28,299.4L414.75,301.82L414.98,304.5L414.91,307.19L415.83,310.11L417.13,312.94L418.27,317.83L419.93,320.23L421.88,322.33L422.77,324.6L424.04,326.7L425.11,327.39L425.88,328.31L426.39,328.76L427.07,328.92L427.38,330.09L427.55,331.48L429.36,334.48L431.75,337.06L432.55,339.15L431.07,340.97L428.84,342.92L428.48,345.83L427.78,348.59L425.94,351.3L423.38,357.31L423.12,365.69L421.56,372.18L422.15,378.46L423.61,381.01L424.28,383.86L424.25,386.46L423.06,388.76L422.31,395.25L423.58,407.63L421.6,412.45L412.55,412.87L413.71,419.6L414.05,427.29L421.02,431.52L428.25,430.39L429.72,428.84L431.77,428.31L434.2,428.31L436.61,427.91L440.05,428.21L443.42,429.37L445.03,430.24L445.93,431.7L445.91,432.84L446.94,433.45L450.4,433.83L453.85,435.1L458.98,437.93L461.52,438.14L463.82,437.97L470.14,439.53L470.87,439.7L472.15,440.54L473.22,441.01L474.47,441.23L477.31,442.22L478.81,442.5L482.96,441.49L484,441.77L484.57,442.06L485.39,442.13L486.96,442.04L487.93,442.14L494.42,444.73L495.81,444.96L497.48,445.51L498.33,446.83L498.83,448.47L499.49,449.95L499.85,450.27L500.95,450.95L501.49,451.48L502.31,453.16L502.71,453.7L502.99,454.27L503.19,455.69L503.45,456.24L504.35,456.71L505.3,456.59L507.23,455.96L510.56,455.92L512.28,456.27L513.5,457.07L513.96,458.1L514.34,459.85L516.99,457.09L517.53,453.71L516.64,450.22L516.19,446.67L517.09,443.4L520.16,436.96L526.05,433.3L526.41,430.06L526.04,417.06L527.74,411.69L528.84,410.11L528.8,408.31L527.99,407.15L528.2,406L529.22,406.29L530.23,406.44L531.05,405.14L531.48,403.61L532.99,400L534.76,392.93L537.72,391.46L541.6,385.59L539.65,368.57L539.76,364.43L541.9,360.94z"
	/>
	<path
		id="mjini-magharibi"
		name="Mjini Magharibi"
		d="M715.11,363.23L712.51,363L709.9,363.22L709.64,363.21L710.13,364.86L710.71,369.03L708.13,372.18L708.77,373.48L709.68,376.73L710.36,377.86L713.98,382.05L714.15,382.35L714.39,382.62L715.04,383.04L715.71,383.33L715.98,383.29L716.09,383.13L716.27,383.04L715.5,382.2L715.24,380.58L715.55,379.45L716.51,380.12L716.44,379.72L716.5,379.41L716.44,379.2L716.02,379.13L716.02,378.6L717,378.07L717.55,378.53L717.55,378.53L717.47,378.09L717.26,376.6L716,375.27L715.27,373.63L715.14,371.79L715.58,366.12L715.22,364.69L715.11,363.23z"
	/>
	<path
		id="unguja-north"
		name="Unguja North"
		d="M712.5,350.39L712.5,348.96L712.06,348.02L712.55,347.28L711.96,346.39L711.61,345.11L711.66,344.12L710.82,344.72L711.02,346.2L710.82,348.22L710.67,349.5L710.82,350.54L711.61,350.59L712.5,350.39zM721.09,354.43L720.87,353.32L720.89,352.2L721.4,349.16L720.97,346.62L718.77,342.66L717.93,340.46L716.62,341.77L716.12,347.1L715.53,349.38L714.35,350.76L711.78,352.9L710.58,354.85L710.37,354.45L709.82,353.71L709.6,353.32L709.3,353.86L709.1,354.59L709.03,355.44L709.11,356.32L708.79,360.37L709.64,363.21L709.9,363.22L712.51,363L715.11,363.23L720.32,362.88L723.07,361.06L723.47,360.82L723.47,360.81L722.17,358.68L721.85,357.55L721.72,356.49L721.09,354.43z"
	/>
	<path
		id="pwani"
		name="Pwani"
		d="M749.21,510.21L752.2,506.88L752.97,505.94L752.63,504.91L751.01,504.83L748.7,505.09L746.74,507.48L745.88,509.01L745.46,510.89L745.88,512.09L747.08,512.17L749.21,510.21zM759.57,487.64L760.71,482.76L760.83,480.42L759.73,479.2L759.59,479.93L758.86,481.79L758.51,482.17L757.87,482.57L757.16,483.52L756.58,484.59L756.09,486.45L755.43,487.02L753.89,487.66L752.58,488.58L751.82,488.98L750.96,489.19L750.96,489.64L752.81,489.44L753.49,489.55L753.89,490.13L752.66,490.38L750.42,491.42L749.22,491.67L747.91,491.65L746.78,491.81L745.96,492.37L745.56,493.59L746.22,494.4L745.18,496.06L742.09,499.07L741.68,499.2L741.19,499.17L740.78,499.3L740.61,499.85L740.51,499.86L740.28,500.34L740.09,500.85L740.08,501.06L739.47,501.3L738.25,501.35L737.58,501.51L738.74,502.39L740.64,504.43L742.09,505.02L743.28,504.98L744.73,504.65L747.57,503.53L748.26,502.55L748.69,500.89L749.61,499.32L751.69,498.64L753.68,499.23L754.53,499.23L754.88,498.36L755.01,497.85L755.64,497L755.85,496.61L756.34,495.12L756.44,494.65L756.42,494.19L756.57,493.65L757.52,492.34L759.57,487.64zM634.18,350.54L629.06,350.13L627.21,351.03L625.13,351.37L620.26,350.25L609.38,353.18L612.78,355.77L614.95,359.47L615.07,361.54L615.53,363.52L616.82,364.89L618.77,369.11L620.6,371.5L621.44,373.23L622.5,374.79L624.42,375.39L626.07,375.68L625.03,375.88L624.56,376.51L626.42,377.4L627.72,378.97L627.95,384.79L626.46,395.84L624.64,400.09L623.33,401.53L623.26,403.12L622.99,403.07L623.69,404.25L624.62,405.43L625.3,407.07L626.62,407.67L628.69,407.96L630.77,409.01L637.96,411.71L639.66,411.9L641.33,411.6L642.02,411L642.81,410.61L644.17,410.5L645.44,410.77L646.67,416.2L644.83,420.5L644.16,424.75L646.96,428.77L648.53,428.71L649.81,429.51L650.49,430.18L651.35,430.57L652.48,430.29L653.57,429.86L655.03,430.16L656.13,430.9L657.95,430.76L659.29,431.83L659.53,434.39L660.23,435.21L660.65,436.15L658.85,439.82L656.26,443.07L654.67,446.14L651.82,446.48L649.15,448.1L647.11,450.76L645.36,456.13L648.47,465.12L649.89,468.19L649.5,470.82L637.94,472.81L634.44,474.03L630.84,474.71L628.33,474.08L625.71,473.79L619.32,475.02L616.56,475.97L614.42,477.9L613.84,481.53L613.86,485.32L613.08,488.72L613.24,492.25L612.93,492.58L612.52,493.19L612.25,493.79L611.99,493.92L611.74,494.17L611.32,494.7L611.11,495.1L610.32,498.17L610.14,499.83L609.93,500.64L609.36,501.36L619.39,509.03L623.03,511.26L631.55,514.24L640.4,516.18L644.39,518.22L650.99,524.05L654.5,526.46L659.8,531.55L660.97,538.42L662.14,541.37L666.23,541.5L669.57,539.47L671.1,535.46L672.95,532.43L677.96,531.3L679.34,531.73L680.02,532.8L681.23,533.22L685.71,532.26L694.65,529.25L708.58,526.18L712.17,526.06L714.84,528.19L715.86,528.57L715.86,528.57L715.53,527.89L716.6,527.5L717.11,526.86L717.08,526.01L716.51,524.96L717.2,525.16L717.79,525.61L718.96,526.9L719.39,525.54L719.41,524.96L720.43,525.41L720.23,524.13L720.4,521.53L719.9,520.46L720.46,520.36L720.69,520.24L720.91,520.22L721.4,520.46L722.45,518.48L724.84,511.95L727.15,508.27L728.05,506.22L728.27,503.99L727.91,504.34L726.8,505.02L726.49,503.72L726.42,500.89L725.65,498.36L725.74,497.47L726.8,495.12L727.27,493.33L727.04,492.31L725.08,490.4L723.82,489.51L722.6,489.37L719.9,489.64L721.04,488.56L720.93,487.53L720.07,486.54L718.96,485.63L718.35,487.96L717.33,490.37L715.76,492.17L713.56,492.66L716.76,488.91L717.11,487.64L716.02,484.99L716.27,483.96L716.69,482.88L716.45,481.52L715.53,479.2L715.23,477.7L715.15,476.22L716.41,468.24L717.25,465.5L719.15,463.75L719.91,462.42L720.55,460.94L720.87,459.88L720.86,458.32L720.37,457.4L719.66,456.59L718.96,455.42L719.84,455.37L720.98,455.44L721.98,455.25L722.4,454.43L722.2,453.87L721.88,453.23L721.81,452.68L722.37,452.46L722.97,452.39L723.42,452.21L724.35,451.47L725.18,450.48L725.49,449.41L725.66,448.25L726.07,446.96L726.64,446.19L726.64,446.19L726.59,446.14L725.76,445.02L724.8,445.32L724.69,435.06L723.12,432.47L721.12,430.17L719.26,429.63L717.47,429.38L716.43,429.49L715.51,429.4L713.1,429.68L711.46,432.08L710.33,432.18L709.29,432.03L708.66,433.3L707.57,434.23L706.28,433.79L705.18,433.28L703.72,434.4L702.75,436.03L701.09,437.09L699.61,435.7L698.23,436.19L697.38,435.41L698.25,433.69L699.52,432.16L699.89,430.42L700.74,428.93L702.17,428.08L702.95,426.71L702.31,425.16L701.94,423.72L699.91,422.44L699.37,419.94L699.34,418.56L698.43,417.78L696.7,417.67L696.87,416.59L698.89,414.03L699.81,410.88L700.16,407.37L701.48,404.16L702.8,403.04L704.03,401.65L704.53,401.18L704.53,401.17L702.33,398.51L698.36,394.74L696.86,394.07L694.81,393.43L696.22,394.37L697.38,394.83L698,395.1L698.07,395.68L697.3,395.96L696.57,395.68L695.79,395.23L693.8,395.13L692.89,394.96L692.56,394.62L692.36,394.12L692.11,393.65L691.62,393.43L690.68,393.39L690.32,393.24L689.9,392.94L689.33,392.32L688.86,391.58L688.54,390.76L688.43,389.99L688.12,389.29L687.38,388.79L686.5,388.34L685.72,387.77L684.82,385.97L684.57,381.92L684.02,380.12L684.87,379.07L685.38,377.51L685.55,375.77L685.27,373.05L685.14,372.6L684.02,371.65L682.44,370.63L682.02,370.22L681.72,369.5L681.04,366.72L680.72,366.24L679.83,365.21L679.56,364.74L679.49,363L680.02,361.42L680.7,359.96L681.09,358.12L675.09,357.12L673.92,358.06L672.48,358.54L671.49,358.35L670.5,358.46L669.2,359.81L667.63,360.31L663.51,362.1L662.57,361.58L661.54,361.84L660.08,361.85L658.81,361.35L658.01,361.87L657.29,362.48L654.89,361.97L653.67,361.24L652.58,360.15L650.29,360.28L648.32,359.44L646.44,356.8L643.38,356L640.7,355.02L638.68,352.79L634.18,350.54z"
	/>
	<path
		id="pemba-south"
		name="Pemba South"
		d="M742.8,322.97L742.96,322.09L742.25,321.17L741.16,320.87L740.02,320.45L739.18,319.15L738.42,318.1L737.37,317.43L736.74,317.1L736.28,317.94L737.04,318.99L737.88,319.87L738.51,320.79L739.6,322.09L740.87,323.1L742.8,322.97zM752.07,302.89L751.83,301.88L752.07,300.86L751.47,300.03L749.4,299.97L748.74,300.32L749,301.51L748.46,302.9L748.99,303.44L747.66,303.48L745.22,303.12L744.53,302.9L743.85,303.24L743.37,303.1L742.86,302.73L742.09,302.41L742.62,303.34L743.44,304.08L744.31,304.35L745.02,303.89L748.29,305.95L750.04,306.45L751.49,305.91L751,307.36L750.29,307.57L748.99,306.89L747.86,306.95L746.14,307.4L745.02,307.39L745.47,308.01L746.05,308.41L746.75,308.68L747.57,308.87L746.87,309.53L745.6,309.75L744.19,309.65L743.07,309.36L743.48,310.47L744.98,312.32L745.56,313.34L743.03,312.9L742.13,313.05L742.58,313.83L741.91,314.83L741.63,315.98L741.6,318.5L742.02,319.48L743.06,319.82L745.56,319.73L746.07,320.59L746.66,320.47L747.43,319.99L748.46,319.73L748.46,320.27L747.82,320.67L747.57,321.13L747.77,321.4L748.46,321.21L749.47,320.57L750.28,319.82L750.66,319.02L750.42,318.25L750.76,317.88L751.01,317.46L751.49,316.28L751.89,316.28L751.53,317.57L751.95,318.15L752.58,317.98L752.91,317.03L752.94,315.81L753.04,315.36L753.34,315.05L753.89,314.28L756.02,307.9L756.88,306.89L756.34,306.35L756.86,305.19L756.88,301.8L756.88,301.8L754.86,302.47L753.49,303.19L752.07,302.89z"
	/>
	<path
		id="pemba-north"
		name="Pemba North"
		d="M756.88,301.8L756.88,300.94L757.37,298.18L757.25,296.91L756.34,296.51L756.23,296.87L756.35,297.57L756.3,298.26L755.64,298.56L755.57,298.18L754.88,296.02L755.11,294.65L755.55,293.24L755.78,291.84L755.42,290.56L756.39,290.08L757.67,289.07L758.48,287.77L757.66,285.07L757.85,283.35L757.85,281.88L756.88,281.25L757.02,282.19L756.86,283.55L756.44,284.99L755.85,286.17L755.75,285.76L755.5,285.22L755.42,284.7L754.57,285.57L754.56,286.37L754.83,287.07L754.88,287.65L754.41,288.21L754.11,287.95L753.94,287.22L753.89,286.4L753.29,285.83L749.97,283.93L749.73,283.6L748.57,282.44L748.21,282.19L747.77,282.47L747.61,283.07L747.35,283.6L746.55,283.71L746.48,283.39L746.24,282.7L745.85,282.02L745.29,281.7L745.08,281.63L744.87,281.42L744.7,281.12L744.54,280.75L744.45,281.85L744.01,283.86L744.05,284.7L744.86,285.68L746.02,286.31L746.83,286.98L746.55,288.14L745.3,287.39L744.33,287.73L743.94,288.78L744.53,290.11L745.56,289.62L745.25,290.36L744.26,291.17L744.05,291.85L746.38,292.74L746.99,293.11L747.45,293.83L747.51,294.46L747.12,294.7L746.28,294.3L745.73,294.36L745.36,295.13L745.27,296.15L745.56,297L745.29,297.44L745.18,297.76L745.02,298.56L745.87,298.1L746.59,298.13L747.15,298.48L747.57,299.01L747.37,299.48L746.99,300.94L747.96,299.94L748.74,300.32L749.4,299.97L751.47,300.03L752.07,300.86L751.83,301.88L752.07,302.89L753.49,303.19L754.86,302.47L756.88,301.8L756.88,301.8z"
	/>
	<path
		id="morogoro"
		name="Morogoro"
		d="M583.67,347.51L582.76,347.17L582.57,346.65L582.18,346.35L579.89,345.58L578.81,347.5L577.5,355.79L575.19,357.86L572.59,358.92L570.32,361.69L567.27,363.96L565.85,366.87L563.93,368.79L562.01,367.52L560.39,365.79L560.4,365.11L560.14,364.64L559.87,362.75L561.35,360.63L559.44,359.99L557.28,358.87L556.19,351.25L545.74,359.68L541.9,360.94L539.76,364.43L539.65,368.57L541.6,385.59L537.72,391.46L534.76,392.93L532.99,400L531.48,403.61L531.05,405.14L530.23,406.44L529.22,406.29L528.2,406L527.99,407.15L528.8,408.31L528.84,410.11L527.74,411.69L526.04,417.06L526.41,430.06L526.05,433.3L520.16,436.96L517.09,443.4L516.19,446.67L516.64,450.22L517.53,453.71L516.99,457.09L514.34,459.85L515.94,467.16L517.18,469.29L519.29,470.24L520.26,470.19L521.86,469.9L522.8,470.01L526.07,470.78L527.59,471.41L528.83,472.43L529.5,473.28L529.79,473.46L531.47,473.83L532.9,474.42L534.76,474.63L535.82,474.87L536.34,475.11L536.75,475.44L536.94,475.7L537,475.96L536.72,478.23L536.88,479L537.41,479.66L538.73,480.24L539.85,480.06L540.84,479.56L541.82,479.21L542.41,479.19L546.01,479.53L547.08,479.99L547.32,480.03L548.06,480.03L549.56,480.38L546.03,485.03L540.88,489.79L537.64,495.86L535.02,502.29L529.58,503.87L523.25,501.99L516.49,501.32L510.18,503.65L504.95,507.67L502.69,509.84L502.58,510.61L502.54,511.55L502.64,512.79L503.03,513.98L503.49,516.42L502.25,518.54L498.08,519.18L495.77,519.76L493.1,519.19L486.82,523.04L481.26,528.23L476.32,534.42L473.63,541.95L468.53,546.54L461.88,549.63L459.75,551.67L457.08,560.92L457.19,564.38L456.32,567.67L454.78,566.35L454.44,560.19L453.28,558.5L445.06,557.1L438.5,555.21L432.74,555.39L432.38,558.6L433.56,561.53L433.65,564.76L431.82,567.44L431.92,568.59L433.22,569.2L433.88,570.67L433.61,575.84L434.48,578.68L435.83,578.03L437.03,577.02L438.57,577.76L443.49,585.29L457.08,596.01L458.07,599.32L458.28,602.78L461.19,602.08L463.99,600.99L468.23,597L472.84,591.78L473.09,592.47L472.62,593.15L472.64,594.35L472.97,595.83L473.22,601.01L474.03,603.57L475.27,605.99L474.16,609.65L471.25,612.31L470.16,614.55L469.87,616.85L470.54,618.39L470.04,619.92L467.57,622.99L464.4,628.03L463.02,629.18L461.43,629.27L460.28,630.22L459.82,634.64L462.94,637.06L472.94,636.69L475.53,637.07L478.07,636.9L479.27,635.38L479.93,633.41L483.18,630.56L486.34,629.65L486.13,630.58L486.66,631.13L487.32,630.94L487.7,631.56L489.62,632.71L495.88,631.09L500.26,631.83L506.2,630.98L506.62,630.65L508.47,628.7L511.65,624.18L512.29,622.36L512.26,619.09L513.75,618.67L514.56,618.26L515.49,620.3L515.42,622.67L517.65,628.21L520.55,633.52L518.3,639.41L514.39,644.55L516.2,648.01L521.08,647.88L527.72,644.21L533.49,639.17L537.63,634.21L542.4,629.9L548.06,626.3L550.37,625.26L556.76,620.46L562.11,618.88L567.71,601.23L568.88,599.23L569.73,597.06L570.34,592.44L573.65,589.69L577.64,588.4L578.16,585.56L576.03,582.44L576.65,577.91L574.75,573.19L574.79,570.78L573.77,564.19L574.23,562.08L577.34,555.69L579,550.12L579.22,548.51L579.25,546.97L578.97,546.05L577.73,543.82L578.3,541.69L579.75,539.82L581.21,538.34L582.45,536.66L584.49,532.93L585.87,531.16L586.3,530.87L587.33,530.52L587.86,530.15L588.21,529.63L588.55,528.61L589.61,527.14L590.47,525.04L592.96,521.09L593.52,520.47L594.52,520.02L595.82,519.65L596.95,519.06L597.43,517.94L597.66,516.81L598.21,515.85L600.03,513.71L600.26,513.24L600.36,512.73L600.37,512L600.54,511.35L600.93,510.92L601.41,510.52L601.85,510.02L603.31,507.49L604.13,506.48L605.28,505.52L607.14,504.47L607.73,503.99L608.19,503.35L608.9,501.94L609.36,501.36L609.93,500.64L610.14,499.83L610.32,498.17L611.11,495.1L611.32,494.7L611.74,494.17L611.99,493.92L612.25,493.79L612.52,493.19L612.93,492.58L613.24,492.25L613.08,488.72L613.86,485.32L613.84,481.53L614.42,477.9L616.56,475.97L619.32,475.02L625.71,473.79L628.33,474.08L630.84,474.71L634.44,474.03L637.94,472.81L649.5,470.82L649.89,468.19L648.47,465.12L645.36,456.13L647.11,450.76L649.15,448.1L651.82,446.48L654.67,446.14L656.26,443.07L658.85,439.82L660.65,436.15L660.23,435.21L659.53,434.39L659.29,431.83L657.95,430.76L656.13,430.9L655.03,430.16L653.57,429.86L652.48,430.29L651.35,430.57L650.49,430.18L649.81,429.51L648.53,428.71L646.96,428.77L644.16,424.75L644.83,420.5L646.67,416.2L645.44,410.77L644.17,410.5L642.81,410.61L642.02,411L641.33,411.6L639.66,411.9L637.96,411.71L630.77,409.01L628.69,407.96L626.62,407.67L625.3,407.07L624.62,405.43L623.69,404.25L622.99,403.07L623.26,403.12L623.33,401.53L624.64,400.09L626.46,395.84L627.95,384.79L627.72,378.97L626.42,377.4L624.56,376.51L625.03,375.88L626.07,375.68L624.42,375.39L622.5,374.79L621.44,373.23L620.6,371.5L618.77,369.11L616.82,364.89L615.53,363.52L615.07,361.54L614.95,359.47L612.78,355.77L609.38,353.18L608.22,354.24L606.5,353.72L605.43,354.63L605.52,356.65L602.62,357.58L598.86,357.38L596.92,359.35L595.19,357.86L590.53,352.51L589.69,349.19L587.26,348.18L586.01,348.04L584.78,347.39L583.67,347.51z"
	/>
	<path
		id="dar-es-salaam"
		name="Dar Es Salaam"
		d="M726.64,446.19L726.72,446.09L729.74,443.97L729.98,445.2L730.49,445.85L731.17,445.86L731.97,445.23L732.39,444.38L732.94,442.42L733.66,441.5L734.74,441.6L734.81,439.69L734.2,435.08L734.37,434.62L734.75,434.24L735.1,433.8L735.18,433.1L734.95,432.6L731.52,428.04L730.92,425.91L729.59,424.16L729.29,423.16L728.78,422.75L726.15,422.78L725.08,422.4L724.18,421.9L722.01,421.7L720.91,421.41L718.87,420.17L717.83,419.76L716.51,419.68L716.83,420.27L716.95,420.83L717,422.15L715.55,420.79L715.51,418.23L715.85,415.41L715.53,413.31L714.37,414.56L713.08,413.6L712.01,411.62L711.56,409.82L711.46,408.9L711.18,407.96L710.7,407.14L710.09,406.61L708.87,405.87L708.23,405.21L707.15,403.35L706.59,402.73L704.7,401.37L704.53,401.17L704.53,401.18L704.03,401.65L702.8,403.04L701.48,404.16L700.16,407.37L699.81,410.88L698.89,414.03L696.87,416.59L696.7,417.67L698.43,417.78L699.34,418.56L699.37,419.94L699.91,422.44L701.94,423.72L702.31,425.16L702.95,426.71L702.17,428.08L700.74,428.93L699.89,430.42L699.52,432.16L698.25,433.69L697.38,435.41L698.23,436.19L699.61,435.7L701.09,437.09L702.75,436.03L703.72,434.4L705.18,433.28L706.28,433.79L707.57,434.23L708.66,433.3L709.29,432.03L710.33,432.18L711.46,432.08L713.1,429.68L715.51,429.4L716.43,429.49L717.47,429.38L719.26,429.63L721.12,430.17L723.12,432.47L724.69,435.06L724.8,445.32L725.76,445.02L726.59,446.14L726.64,446.19z"
	/>
	<path
		id="kigoma"
		name="Kigoma"
		d="M122.81,159.82L121.93,159.81L121.3,159.06L121.44,155.08L124.16,150.88L126.16,145.72L126.01,140.29L125.67,139.74L125.09,139.49L124.55,138.62L124.47,137.5L122.79,134.31L119.77,133.11L112.71,139.54L111.38,141.4L109.94,143.02L108.05,144.02L107.83,144.41L105.61,146.97L105.14,148.11L105.49,149.17L107.26,150.83L107.97,151.83L107.98,152.21L107.64,153.17L107.58,153.58L107.83,154.12L108.77,154.81L109.06,155.32L109.14,156.23L109.01,157.13L108.39,158.84L107.37,160.29L107.41,160.82L107.73,162.1L107.76,162.52L106.68,164.45L104.95,165.63L102.96,165.85L101.06,164.91L100.84,165.76L100.38,166.41L99.68,166.8L98.8,166.92L96.83,167.66L95.25,168.64L93.89,169.9L92.57,171.49L93.07,171.77L95.24,172.95L95.15,174.87L93.26,176.7L89.9,178.27L88.96,179.38L88.39,179.88L87.9,180.06L85.98,180.5L85.87,180.67L85.75,181.3L85.67,181.46L84.3,181.57L84.26,181.43L84.12,181.42L82.93,181.6L82.74,181.82L82.48,182.67L82.3,182.96L80.3,184.39L79.91,185.25L80.08,186.7L80.05,188.01L79.51,189.35L76.55,194.01L76.05,195.31L76.05,195.36L75.97,196.7L76.27,197.91L76.68,199.02L76.9,200.14L76.66,201.4L73.46,200.36L71.64,201.52L68.88,206.29L65.11,210.16L64.25,211.63L63,216.82L61.89,219.51L61.7,219.97L60.01,222.89L57.85,225.53L52.96,229.6L52.21,230.67L50.38,235.06L49.48,236.21L47.88,237.11L47.15,237.7L44.69,239.1L42.12,241.52L38.3,243.31L37.67,243.53L36.47,243.32L35.69,242.93L34.93,242.83L33.76,243.55L33.63,243.8L33.48,244.98L33.11,245.59L31.88,246.17L31.43,246.59L31.16,247.61L31.13,248.54L30.91,249.35L30.08,249.99L29.75,249.87L26.82,249.64L23.29,248.8L6.48,249.02L6.71,249.94L6.97,252.8L6.28,258.89L1.93,270.76L0.51,276.86L0.71,282.9L2.08,288.65L2.18,289.09L4.59,294.96L10.18,305.23L13.1,316.89L20.08,333.38L21.44,339.45L20.76,345.02L18.45,349.09L13.08,356.36L11.65,360.94L11.83,363.8L14,371.88L15.19,380.5L16.07,383.34L18.1,386.75L22.98,393.06L26.6,402.79L28.23,405.52L30.5,407.91L40.15,415.27L47.04,418.8L49.6,417.05L66.7,402.73L68.55,400.22L70.69,393.88L77.49,389.21L77.24,385.94L75.97,383.01L76.72,378.5L74.41,375.86L71.09,373.85L68.87,367.63L64.54,359.56L62.49,353.64L57.79,326.17L55.04,319.94L48.52,314.4L49.79,312.78L65.14,312.6L68.66,311.78L71.5,309.34L76.14,304.08L78.61,302.36L98.4,302.24L101.67,302.45L103.95,303.89L104.93,305.47L105.42,305.91L105.88,305.99L106.94,305.85L107.42,305.91L109.2,307.16L111.32,310.18L112.86,311.37L113.94,310.38L115.5,307.5L116.75,306.89L117.99,307.43L118.43,308.72L118.7,311.81L119.09,312.67L119.6,313.23L120.15,313.7L120.7,314.28L121.57,316.07L121.88,316.54L123.11,317.83L123.78,318.76L125.52,324.61L131.08,323.12L136.25,321.95L137.59,319.44L134.91,308L135.54,299.68L139.03,289.96L138.72,288.03L137.86,286.91L137.4,285.71L137.85,285.47L141.42,282.74L143.07,282.19L143.57,281.87L143.89,281.39L144.17,280.25L144.45,279.77L145.73,278.97L149.03,277.42L149.61,276.55L148.83,269.01L149.2,267.73L150.55,266.8L154.55,265.3L155.19,264.59L156.3,261.31L155.02,255.85L154.36,250.46L153.49,248.69L151.5,248.89L151,245.63L150.97,242.29L148.59,238.51L147.06,234.78L146.83,233.51L145.97,232.44L145.68,230.16L145.09,227.95L145.29,224.4L147.67,217.75L148.07,214.25L146.81,208.37L142.47,198.82L138.44,194.98L136.7,190.47L136.54,185.53L135.88,183.05L135.57,180.77L135.8,178.1L134.57,175.66L134.47,175.47L134.47,175.49L132.93,173.19L131.61,170.71L129.78,165.71L128.97,160.53L125.2,157.74L123.84,158.6L122.81,159.82z"
	/>
	<path
		id="kagera"
		name="Kagera"
		d="M105.06,0L102.35,1.41L99.63,2.27L98.59,2.81L96.02,5.53L95.11,6.29L93.38,5.74L91.82,5.57L88.2,5.91L86.86,6.22L86,6.29L85.59,6.1L85.22,5.7L84.69,5.34L83.8,5.26L83.22,5.73L83.13,5.82L82.56,6.41L82.01,7.2L81.78,8.01L82.02,8.78L83.07,9.5L83.31,10.48L83.15,10.9L82.88,11.31L82.69,11.74L82.81,12.17L83.44,12.59L84.01,12.51L84.48,12.25L84.78,12.17L85.66,12.81L85.96,13.26L86.24,15.11L86.68,16.16L87.99,18.32L88.41,19.79L89.08,20.65L89.22,21.24L89.15,21.46L88.99,21.78L88.82,22.2L88.75,22.73L89.13,23.88L90.06,24.58L92.17,25.46L92.93,25.99L94.01,27.02L94.67,27.42L99.41,29.18L100.82,29.38L102.21,30.22L102.62,32.1L102.49,33.97L102.27,34.82L101.88,35.23L102.31,36.17L103.5,37.76L104.39,38.71L104.71,39.26L105.4,41.84L106.09,43.46L107.22,44.34L108.92,43.69L109.45,45.21L109.39,47.06L108.46,52.72L108.44,53.49L108.6,53.86L109.24,54.84L109.42,55.51L108.59,57.48L108.85,58.24L109.42,61.12L109.03,62.34L108.29,63.41L107.89,64.52L108.44,65.8L107.27,66.72L106.84,67.18L106.48,67.76L108.63,68.1L108.85,70.01L107.9,74.19L109.24,73.9L110.54,74.54L111.63,75.64L112.4,76.68L113,78.77L110.53,86.76L109.91,89.93L110.21,94.84L109.91,96.31L109.17,97.65L108.23,98.33L107.03,98.86L105.92,99.5L104.91,99.74L104.39,100.04L103.74,100.22L103.16,100.08L99.41,98.23L98.64,97.98L97.71,98.11L96.89,98.76L95.86,100.69L95.06,101.36L93.55,101.45L92,101L90.47,100.81L89.08,101.62L86.7,104.62L85.74,106.14L83.02,112.77L82.43,115.05L82.12,115.81L81.43,116.71L79.71,118.34L79.13,119.23L78.85,121L79.65,121.77L81.04,121.78L82.56,121.28L85.13,120.11L86.78,119.5L86.32,120.86L82.19,125.2L81.61,126.14L81.37,127.26L81.35,129.08L79.78,131.2L78.96,132.8L79.11,134.04L80.91,136.37L82,137.39L83.31,137.75L82.98,138.54L83.4,139.11L84.02,139.72L84.32,140.62L84.33,140.65L84.68,140.48L86.1,138.52L86.95,137.81L87.95,137.44L88.53,137.54L93.2,140.33L94.15,140.73L94.46,140.94L94.64,141.38L94.84,142.55L95.04,142.87L95.99,143.08L96.74,142.89L97.46,142.61L98.35,142.55L99.23,142.87L100.87,143.95L101.82,144.23L103.5,144.09L106.85,143.15L108.53,143.16L108.05,144.02L109.94,143.02L111.38,141.4L112.71,139.54L119.77,133.11L118.9,128.57L115.36,125.54L112.08,122L114.6,114.92L122.43,111.13L133.04,92.93L135.31,93.44L140.11,92.68L143.9,91.41L147.18,91.92L161.58,98.24L166.55,98.44L170.16,94.7L173.31,93.19L173.33,92.46L173.85,91.92L174.28,90.6L174.16,89.17L173.73,87.08L174.65,85.8L179.83,85.26L184.03,83.47L243.39,34.68L244.71,1.2L231.68,1.2L218.53,1.2L205.39,1.2L192.24,1.2L191.86,1.2L179.1,1.2L165.95,1.2L152.81,1.2L141.2,1.2L139.66,1.2L126.52,1.2L113.37,1.2L108.74,1.2L107.59,0.64L105.06,0z"
	/>
	<path
		id="tabora"
		name="Tabora"
		d="M313.17,211.84L311.74,210.73L311.42,208.89L307.4,207.97L303.26,209.02L301.28,209.73L296.4,209.73L292.39,208.69L284.09,210.69L277.72,213.71L273.89,213.89L269.6,213.53L266.35,210.8L263.43,209.82L259.98,211.31L254.86,210.2L253.62,210.83L252.6,211.87L247.98,213.87L244.04,215.17L244.83,219.29L243.77,223.23L242.05,223.5L241.24,224.81L240.01,225.9L239.49,227.16L240.73,228.63L242.18,229.9L245.39,231L244.07,234.83L237.1,236.88L235.38,236.94L235.26,235.73L235.35,234.38L234.57,232.34L233.22,230.91L230.84,229.81L228.32,231.36L226.43,231.66L225.28,233.51L224.8,236.34L225.28,239.06L225.03,240.61L223.92,241.48L222.08,243.8L219.5,244.34L216.62,242.97L213.89,241.29L208.03,239.45L202.06,240.61L196.17,245.11L190.82,247.6L191.36,244.86L191.57,241.88L190.54,238.33L190.25,234.62L190.44,230.71L189.93,227L187.83,225L185.41,223.26L179.03,221.94L170.64,219.37L167.81,223.66L166.8,225.84L167.37,227.16L168.75,228L169.61,229.9L170.01,231.92L165.05,234.37L158.12,233.62L155.2,234.42L153.35,236.74L152.61,239.77L150.97,242.29L151,245.63L151.5,248.89L153.49,248.69L154.36,250.46L155.02,255.85L156.3,261.31L155.19,264.59L154.55,265.3L150.55,266.8L149.2,267.73L148.83,269.01L149.61,276.55L149.03,277.42L145.73,278.97L144.45,279.77L144.17,280.25L143.89,281.39L143.57,281.87L143.07,282.19L141.42,282.74L137.85,285.47L137.4,285.71L137.86,286.91L138.72,288.03L139.03,289.96L135.54,299.68L134.91,308L137.59,319.44L136.25,321.95L131.08,323.12L125.52,324.61L125.33,326.4L123.28,327.55L123.23,328.38L123.44,329.24L123.94,330.41L124.19,330.63L124.52,330.73L129.28,334.36L129.69,334.53L130.7,334.48L131.04,334.6L131.26,335.08L131.22,335.54L131.04,336.08L131.4,336.71L131.67,337.39L131.97,338.59L131.48,340.24L131.56,340.61L131.9,341.29L131.97,341.72L131.59,342.76L131.75,343.26L132.71,343.47L134.07,343.19L135.52,342.68L136.98,342.43L138.39,342.93L139.77,345.37L140.82,346.45L142.09,346.18L143.45,345.62L146.42,345.96L147.75,345.44L150.4,347.11L151.81,347.71L153.41,347.95L154.86,347.69L156.22,347.24L157.46,347.15L158.54,347.95L159.29,346.83L160.07,346.64L165.44,348.28L166.18,348.17L166.98,347.7L169.68,346.63L170.61,346.43L170.62,346.2L171.03,345.7L171.81,344.95L172.37,344.58L173.82,343.96L175.34,342.85L176.75,341.56L178.33,340.48L180.46,340.02L180.88,340.15L181.26,340.48L181.93,341.23L182.35,341.45L182.66,341.31L182.92,341.08L183.18,341.01L184.88,341.87L188.2,342.52L189.46,342.59L190.58,341.99L190.58,342.49L194.71,343.77L196.23,343.96L196.66,344.25L196.94,344.94L197.17,345.75L197.43,346.43L198.01,347.1L199.38,348.32L199.89,348.93L200.19,350.35L200.14,353.9L200.6,355.09L201.52,356.4L202.78,361.26L203.99,363.87L205.66,366.33L207.49,368.37L209.2,369.73L212.92,371.72L213.9,372.44L214.33,372.67L215.24,372.82L215.67,373.17L215.73,373.5L215.6,374.33L215.67,374.66L216.42,375.78L216.83,376.16L217.58,376.67L220.1,377.78L221.45,378.78L223.06,379.03L223.75,379.34L224.81,380.4L227.43,384.56L229.63,386.84L232.58,387.97L243.01,388.87L244.25,389.58L244.59,391.08L245.24,392.05L245.77,393.08L245.35,394.46L244.65,395.75L243.21,397.62L241.19,398.81L236.97,404.18L234.88,410.84L234.54,418.36L234.99,425.89L234.24,433.29L232.54,440.54L237.55,440.66L242.43,439.83L244.29,438.45L248.9,431.02L249.74,429.2L251.53,428.48L254.67,428.8L257.09,427.26L258.81,425.68L261.08,424.87L267.24,423.42L273.11,425.16L278.09,428.51L283.87,429.83L299.46,428.91L302.58,422.53L302.17,414.87L302.64,407.2L301.88,405.61L305.31,401.52L306.42,400.89L311.61,398.91L318.92,391.47L321.78,389.4L323.32,388.75L325.09,388.51L325.87,387.89L328.4,383.82L332.6,380.29L337.55,376.59L337.26,374.26L336.45,371.78L336.65,365.76L340.42,351.73L340.48,345.42L340.66,344L341.08,342.71L343,341.19L344.48,338.17L344.26,334.93L342.1,333.32L340.53,331.45L343.7,326.59L348.37,322.63L351.04,319.9L353.05,316.77L351.49,314.8L345.12,308.37L342.66,306.78L340.35,304.9L337.11,302.98L333.46,301.62L331.38,299.5L330.67,296.45L330.24,293.43L332.27,287.78L331.65,284.96L330.45,281.51L330.41,277.89L332.98,270.94L332.83,264.75L332.03,258.66L333.58,252.1L342.11,241.05L345.21,234.37L348.91,228L350.58,226.59L352.87,227.37L355.13,227.14L355.66,224.86L356.36,223.71L356.93,222.41L357.18,219.26L355.12,218.97L353.47,219.87L352.53,221.6L350.55,221.65L348.1,220.63L345.52,220.45L344.08,220.04L342.97,218.99L341.57,218.43L339.94,218.91L337.65,218.86L335.3,218.23L333.35,216.83L331.88,214.86L329.98,213.67L327.7,213.36L323.39,213.23L318.01,211.39L315.54,211.46L313.17,211.84z"
	/>
	<path
		id="shinyanga"
		name="Shinyanga"
		d="M242.15,176.91L239.47,176.82L233.72,173.32L231.17,171.39L231.15,167.71L231.67,163.71L231.07,161.04L229.5,158.93L227.18,159.39L222.7,161.56L220.57,163.3L218.88,165.25L217.72,167.65L215.46,167.41L213.6,165.89L212.98,163.2L210.81,161.7L208.08,162.49L205.84,164.27L202.74,168.28L201.22,173.09L202.23,180.42L203.5,187.51L202.49,193.07L195.92,193.58L188.6,194.59L181.02,198.14L174.71,203.7L170.67,209.78L169.66,214.34L170.64,219.37L179.03,221.94L185.41,223.26L187.83,225L189.93,227L190.44,230.71L190.25,234.62L190.54,238.33L191.57,241.88L191.36,244.86L190.82,247.6L196.17,245.11L202.06,240.61L208.03,239.45L213.89,241.29L216.62,242.97L219.5,244.34L222.08,243.8L223.92,241.48L225.03,240.61L225.28,239.06L224.8,236.34L225.28,233.51L226.43,231.66L228.32,231.36L230.84,229.81L233.22,230.91L234.57,232.34L235.35,234.38L235.26,235.73L235.38,236.94L237.1,236.88L244.07,234.83L245.39,231L242.18,229.9L240.73,228.63L239.49,227.16L240.01,225.9L241.24,224.81L242.05,223.5L243.77,223.23L244.83,219.29L244.04,215.17L247.98,213.87L252.6,211.87L253.62,210.83L254.86,210.2L259.98,211.31L263.43,209.82L266.35,210.8L269.6,213.53L273.89,213.89L277.72,213.71L284.09,210.69L292.39,208.69L296.4,209.73L301.28,209.73L303.26,209.02L307.4,207.97L311.42,208.89L311.74,210.73L313.17,211.84L315.54,211.46L318.01,211.39L323.39,213.23L327.7,213.36L329.98,213.67L331.88,214.86L333.35,216.83L335.3,218.23L337.65,218.86L339.94,218.91L341.57,218.43L342.97,218.99L344.08,220.04L345.52,220.45L348.1,220.63L350.55,221.65L352.53,221.6L353.47,219.87L355.12,218.97L357.18,219.26L359.92,216.9L364.27,215.77L366.09,213.82L362.65,211.33L359.6,208.47L355.61,203.33L352.57,196.28L350.09,188.08L347.81,184.27L341.91,182.55L335.26,182.36L329.93,181.79L326.51,179.7L324.42,175.69L322.32,174.74L319.85,176.08L317.19,176.65L313.58,175.69L307.3,172.65L302.16,167.88L298.74,164.83L295.01,164.4L291.09,166.77L288.27,167.6L285.19,168.02L282.5,167.37L280.01,168.26L277.28,173.59L272.54,175.81L270.85,174.82L269.44,173.44L268.1,172.83L266.63,172.64L264.41,171.51L262.07,170.8L260.14,169.29L258.99,166.65L256.97,164.71L254.75,163.04L252.67,163.47L250.31,164.22L248.45,163.7L247,164.56L245.92,166.82L243.8,167.82L241.73,167.69L241.22,169.67L240.22,172.38L240.55,174.65L242.23,174.92L242.15,176.91z"
	/>
	<path
		id="mwanza"
		name="Mwanza"
		d="M244.61,35.74L243.39,34.68L184.03,83.47L185.35,87.79L185.91,91.49L186.2,93.76L187.61,95.13L188.42,96.75L188.22,98.57L189.43,100.79L191.45,102.41L196.91,105.24L201.55,108.27L204.51,110.26L208.22,111.51L210.44,114.54L222.56,116.56L218.73,123.85L231.25,131.13L229.43,136.59L235.7,141.85L229.5,158.93L231.07,161.04L231.67,163.71L231.15,167.71L231.17,171.39L233.72,173.32L239.47,176.82L242.15,176.91L242.23,174.92L240.55,174.65L240.22,172.38L241.22,169.67L241.73,167.69L243.8,167.82L245.92,166.82L247,164.56L248.45,163.7L250.31,164.22L252.67,163.47L254.75,163.04L256.97,164.71L258.99,166.65L260.14,169.29L262.07,170.8L264.41,171.51L266.63,172.64L268.1,172.83L269.44,173.44L270.85,174.82L272.54,175.81L277.28,173.59L280.01,168.26L282.5,167.37L285.19,168.02L288.27,167.6L291.09,166.77L295.01,164.4L296.77,159.22L298.57,157.54L299.51,155.31L299.99,151.89L302.05,145.66L302.66,142.75L300.44,134.7L301.47,132.87L303.17,132.45L304.27,131.12L305.47,130.03L307.19,129.54L309.15,128.28L314.1,129.71L316.84,127.57L318.1,127.04L319.54,127.12L320.93,125.72L321.18,123.68L319.45,120.39L316.17,118.37L312.9,116.88L310.29,114.55L307.14,111.44L301.64,105.08L299.51,102.24L290.36,84.9L289.91,84.28L289.6,83.34L288.82,82.61L286.97,81.58L284.94,80.83L283.27,80.83L281.85,81.58L280.55,83.05L279.98,82.21L279.73,81.69L279.57,81.09L279.64,80.34L280.29,79.35L280.55,78.59L280.53,78.05L280.39,77.29L280.22,76.68L280.06,76.67L280.37,75.92L280.52,75.84L280.68,76.05L281.04,76.14L283.06,76.23L283.04,76.14L284.82,76.61L285.17,76.9L285.66,76.11L285.64,75.11L285.1,74.2L284.02,73.68L284.87,72.88L285.96,73.66L286.94,75.07L287.46,76.14L287.95,76.14L287.93,74.03L289.09,74.22L291.91,76.67L292.13,76.16L292.37,75.9L293.38,75.65L291.38,72.7L293.36,70.85L295.62,71.49L300.29,74.67L303.62,74.69L304.17,74.91L304.65,73.91L305.5,72.96L305.82,71.92L304.7,70.7L304.13,71.03L303.92,71.07L303.73,70.93L303.19,70.7L303.46,70.55L303.55,70.55L303.58,70.5L303.72,70.21L300.87,69.52L297.79,69.23L299.72,67.98L299.84,67.58L299.26,66.78L297.74,65.77L297.32,65.19L297.79,64.32L296.88,64.2L296.09,64.24L295.55,64.57L295.35,65.3L292.84,65.46L289.99,67.45L287.22,68.85L284.96,67.27L286.7,66.19L286.97,66.06L286.92,65L286.99,64.48L287.55,63.51L286.55,62.01L286.24,60.93L289.28,54.06L292.3,51.87L295.48,52.22L297.35,53.76L297.99,50.04L297.82,46.05L298.16,42.12L297.39,38.45L288.66,35.03L244.61,35.74z"
	/>
	<path
		id="unguja-south"
		name="Unguja South"
		d="M734.44,383.98L733.11,373.42L732.47,371.37L731.22,369.72L731.07,371.3L731.41,373.45L731.39,374.95L730.24,374.65L730.15,374.93L730.15,375.06L730.06,375.1L729.74,375.15L729.38,374.26L728.8,374.32L728.33,375.02L728.27,376.09L727.56,375.46L727.01,374.65L726.37,374.21L725.33,374.65L725.58,373.84L725.94,373.25L726.8,372.18L726.29,371.3L726,370.49L725.86,369.62L725.82,368.46L725.98,367.49L726.29,366.6L726.47,365.71L726.31,364.74L724.79,364.5L724.35,364.25L723.55,360.94L723.47,360.81L723.47,360.82L723.07,361.06L720.32,362.88L715.11,363.23L715.22,364.69L715.58,366.12L715.14,371.79L715.27,373.63L716,375.27L717.26,376.6L717.47,378.09L717.55,378.53L718.18,379.05L720.43,382.55L722.3,384.53L722.71,385.64L722.4,387.03L724.4,387.77L724.75,387.38L724.84,385.76L724.4,384.77L723.73,383.82L723.72,383.04L725.33,382.55L725.17,383.63L726.58,389.78L727.28,391.23L728.25,392.5L729.29,393.43L731.93,394.21L734.5,393.35L736.31,391.18L736.64,388.05L734.71,384.63L734.44,383.98z"
	/>
	<path
		id="rukwa"
		name="Rukwa"
		d="M193.58,490.17L177.56,487.47L165.82,485.89L156.44,484.31L154.88,474.06L153.31,463.01L152.53,455.13L148.62,450.4L136.89,449.61L126.72,448.82L123.59,444.09L123.59,437.78L120.46,428.33L114.21,425.97L98.57,426.75L90.74,429.12L70.4,443.86L75.8,455.49L78.33,464.6L79.04,469.38L80.97,476.21L96.28,500.2L101.54,513.01L103.26,519.54L105.14,526.43L108.73,533.61L113.3,540.22L118.15,545.4L120.51,547.25L123.47,549.02L126.64,550.18L129.66,550.2L131.18,549.45L132.64,548.39L134.17,547.6L135.9,547.6L136.74,548.18L138.1,550.01L138.87,550.59L139.79,550.74L140.4,550.53L140.95,550.16L144.66,548.83L145.5,548.65L146.01,548.45L146.19,548.16L146.42,548.06L147.06,548.44L147.33,548.9L147.57,550.22L147.81,550.73L148.77,551.36L149.69,551.45L150.67,551.34L151.75,551.43L152.88,552.01L154.42,553.8L155.57,554.53L158.33,555.31L159.76,556.52L160.25,558.36L160.25,561.07L160.79,564.18L162.44,566.4L169.35,571.74L170.57,572.21L172.02,572.22L173.49,571.69L175.93,570.36L177.6,570.22L188.3,573.16L186.95,576.1L186.95,579.69L188.41,582.55L191.46,583.28L192.95,582.66L193.99,581.89L195.13,581.4L196.96,581.66L199.03,582.86L199.78,583.08L200.45,583.02L201.83,582.69L202.48,582.72L203.3,583.16L203.33,582.69L202.67,578.35L203.36,577.49L204.51,577.35L203.59,574.41L200.8,571.83L199.18,570.67L197.89,569.23L199.36,567.17L196.8,564.5L193.5,562.26L195.02,559.35L203.96,556.15L208.1,553.61L213.48,546.75L213.81,538.57L212.57,534.63L212.82,530.49L215.46,527.3L219.87,527.15L228.88,521.02L230.76,521.9L231.06,523.35L230.76,525.52L231.84,527.32L231.92,529.47L232.26,531.57L238.24,539.19L241.22,539.44L244.01,539.07L246.71,539.58L246.15,534.82L229.56,512.62L226.2,509.22L212.87,500.29L193.58,490.17z"
	/>
	<path
		id="mbeya"
		name="Mbeya"
		d="M283.87,429.83L278.09,428.51L273.11,425.16L267.24,423.42L261.08,424.87L258.81,425.68L257.09,427.26L254.67,428.8L251.53,428.48L249.74,429.2L248.9,431.02L244.29,438.45L242.43,439.83L237.55,440.66L232.54,440.54L228.85,442.59L212.51,448.24L212.47,455.9L209.61,463.76L207,468.91L199.62,471.73L197.12,475.58L194.3,481.42L192.32,487.64L193.58,490.17L212.87,500.29L226.2,509.22L229.56,512.62L246.15,534.82L246.71,539.58L244.01,539.07L241.22,539.44L238.24,539.19L232.26,531.57L231.92,529.47L231.84,527.32L230.76,525.52L231.06,523.35L230.76,521.9L228.88,521.02L219.87,527.15L215.46,527.3L212.82,530.49L212.57,534.63L213.81,538.57L213.48,546.75L208.1,553.61L203.96,556.15L195.02,559.35L193.5,562.26L196.8,564.5L199.36,567.17L197.89,569.23L199.18,570.67L200.8,571.83L203.59,574.41L204.51,577.35L203.36,577.49L202.67,578.35L203.33,582.69L203.3,583.16L203.97,583.52L206.61,586.21L208.02,587.27L209.47,587.78L211,587.98L220.35,587.79L223.25,588.51L225.86,590.27L226.64,591.28L228.04,594.59L229.07,596.18L230.05,596.83L232.74,597.05L238.92,598.41L244.06,598.84L244.97,599.33L245.96,600.41L246.23,600.96L246.45,602.05L246.87,602.59L247.39,602.78L248.64,602.65L249.17,602.76L252.5,604.98L257.86,607.02L258.97,607.72L260.07,606.54L261.44,605.84L262.83,605.78L264.1,606.52L267.69,610.11L272.11,613.55L272.76,613.81L274.69,614.24L276.8,615.07L277.07,615.23L277.72,615.01L278.71,614.19L279.18,613.95L280.18,613.94L281.67,614.4L282.53,614.48L283.15,614.28L284.29,613.53L284.92,613.41L286.21,613.86L290.24,616.74L291.57,618L292.81,620.7L293.67,622.06L294.78,622.85L296.17,623.28L299.15,623.49L301.38,622.94L303.07,621.95L304.82,621.22L307.25,621.48L309.44,622.17L311.33,622.5L311.36,622.51L313.19,622.27L315.09,621.19L317.39,620.55L319.36,621.78L321.19,623.64L323.05,624.86L324.74,625.56L326.77,626.78L328.5,628.24L329.28,629.69L330.12,630.3L331.3,629.01L331.3,628.51L332.36,627.81L332.95,627.07L333.2,626.12L333.26,624.79L333.76,622.59L333.89,621.32L332.56,618.07L333.63,616.24L335.32,614.83L336.19,613.83L337.36,612.79L339.85,613.7L342.08,615.17L342.36,612.79L339.47,609.89L338.02,609.69L336.68,609.1L334.51,606.12L330.58,599.31L328.97,597.22L328.78,594.94L328,593.97L325.55,593.43L325.94,591.92L327.47,591.1L326.26,587.82L324.6,584.74L322.21,581.97L321.79,578.52L325.91,571.77L328.87,569.12L332.78,568.34L338.08,570.17L340.08,569.51L340.82,567.43L344.46,565.93L348.66,566.32L352.79,566.22L359.96,564.46L366.85,565.45L370.55,565.37L373.88,564.04L376.4,561.35L378.28,557.56L380.58,555.93L383.27,554.94L385.62,555.22L387.23,554.1L389.03,549.37L389.87,544.63L388.71,542.15L387.17,539.89L386.03,536.94L387.53,533.93L389.57,530.79L392.2,528.33L395.23,527.3L397.77,525.35L399.65,522.2L402.24,516.19L403.98,514.04L407.93,512.86L411.07,510.41L412.8,508.05L410.83,506.03L407.57,504.86L404.11,505.15L402.21,504.82L402.47,502.95L401.75,500.76L382.31,497.65L379.25,496.64L376.6,494.78L365.97,492.25L362.28,491.95L328.88,493.64L326.13,493.27L325.09,491.16L325.71,488.21L327.02,485.53L328.97,482.94L330.61,480.13L332.58,475.48L334.01,473.75L335.04,471.74L333.88,470.4L332.03,469.16L328.77,467.7L325.78,465.56L324.37,465.2L323.19,464.51L322.91,461.53L321.64,458.51L321.41,456.55L320.49,454.88L316.37,453.62L314.97,452.17L313.83,450.5L312.13,447.3L309.64,444.88L306.58,443.73L304.84,440.84L304.29,436.89L303.29,433.14L301.65,430.76L299.46,428.91L283.87,429.83z"
	/>
</svg>
