<svg
	xmlns="http://www.w3.org/2000/svg"
  viewBox="0 0 703 989"
	aria-label="Map of New Zealand"
>
  <path
		id="auk"
		name="Auckland"
		d="m 363.62941,117.0217 1.04,-0.08 -0.69,0.82 0.41,1.36 -0.51,1.07 -1.66,-1.94 0.92,-0.08 -0.11,-1.2 0.6,0.05 z m -0.7,-4.24 0.89,0.08 0.42,0.66 -0.41,0.71 -0.5,-0.28 -1,0.67 0.46,1.46 -0.87,1.5 -0.68,0 -0.55,-0.03 -0.59,-0.31 -1.01,-0.21 -0.48,-0.36 0.35,-0.51 -1.4,-0.04 0.37,-0.59 -1.06,-0.77 -1.06,1.04 -0.05,-1.98 1.13,-0.2 0.09,0.84 1.68,-0.91 0.29,0.98 1.23,0.03 0.23,-1.08 1.64,0.06 0.88,-0.76 z m -9.92,-0.98 0.76,0.58 -0.25,2.1 -0.64,0.65 -0.42,-0.6 -0.48,0.83 -1.97,0.14 -0.49,-0.82 0.44,-0.94 2.02,-0.07 1,-1.04 0.03,-0.83 z m -2.95,-16.32 1.48,1.16 -0.18,1.92 -0.41,-0.67 -1.19,0.45 0.22,-0.4 -0.92,-0.56 1,-1.9 z m 9.88,-10.69 0.88,0.64 -0.65,2.39 -1.94,-0.57 0.05,-1.68 1.66,-0.78 z m -17.87,-1.16 3.26,4.8 4,1.46 -0.03,0.72 -1.01,0.64 0.2,0.85 -0.63,-0.04 -0.19,0.03 0.39,1.45 0.63,-0.17 1.33,1.08 1.14,-0.2 -0.84,0.73 -0.97,-0.2 -1.24,0.65 -1.84,0.35 -0.52,-0.48 0.09,1.74 0.69,0.68 1.2,-0.05 -0.12,0.37 -1.24,1.44 -0.75,0.92 0.2,-1.98 -0.7,-0.38 -0.48,1.02 -0.53,0.77 1.24,0.66 0.15,2.4 -0.88,-0.26 0.41,1.08 -0.6,0.03 -0.13,0.63 1.57,2.27 1.27,0.18 0.32,-0.96 2.55,-0.67 -0.19,1.31 -2.37,0.23 -0.54,0.85 -1.24,0.2 1.4,2.42 -0.54,0.93 1.01,3.51 1.46,2.04 -1.3,-0.13 0.52,-0.42 -1.11,-0.95 -0.95,0.9 -1.66,0.34 -1.38,-2.51 0.53,-1.05 -1.23,1.18 0.01,0.6 0.11,0.95 0.44,0.45 -0.09,1.82 1.38,1.4 0.46,-1.52 0.89,0.09 0.65,-0.9 1.66,0.28 0.23,1.03 0.62,0.12 0.44,-0.88 2.21,0.03 0.53,1.21 -1.14,1.84 1.81,-1.62 0.37,-0.08 1.87,1.87 1.16,-0.19 -0.3,-1.32 2.1,-0.35 1.25,1.49 0.41,0.41 0.94,1.57 1.47,-0.89 0.69,1.12 1.22,-1 2.25,1.33 1.36,2.22 0,0 -0.45,1.06 -2.59,0.74 -1.33,-1.09 -0.76,0.28 -0.07,1.88 -2.73,-0.31 -0.55,-0.86 -1.73,2.22 -0.81,2.68 -1.29,-0.05 -0.8,-0.77 -0.49,0.71 0.29,0.96 0.38,-0.4 0.94,0.98 0.97,2.03 -0.73,1.33 -2.34,-0.2 0.54,0.86 -0.63,0.5 -0.09,1.36 -2.61,-0.64 -0.09,1.36 -1.61,0.96 0,0 -1.89,1 -0.24,-0.43 -0.51,0.51 0.15,1.18 -0.65,0.57 -1.58,-1.47 -5.77,-13.3 -0.02,-1.26 0.98,-0.43 1.68,0.31 0.8,-0.64 1.24,0.4 0.23,1.21 -0.61,0.81 0.77,1.02 -0.27,1.62 1.09,0.38 0.74,4.16 1.08,0.2 -1.28,-3.88 0.9,0.35 0.83,0.23 1.72,-0.27 -3.39,-0.58 -0.61,-0.71 1.97,-0.58 1.39,-1.79 0.71,0.13 -0.14,0.92 2.39,-2.63 1,0.6 0.73,-0.37 0.21,0.76 1.09,-0.89 -0.94,-0.69 -0.69,0.72 -0.58,-0.17 -0.57,-0.2 -1.64,-1.99 -1.97,0.43 0.32,-0.49 -1.24,-0.8 1.29,-1.16 -0.72,-1.36 1.3,-0.27 1.11,0.67 0.44,-0.73 -1.51,-0.26 -0.71,-0.19 -1.65,0.71 -0.91,-0.61 -0.99,0.37 -1.88,2.19 -0.54,-0.33 -0.62,1.4 0.32,0.94 -1.49,-0.47 -0.25,-0.57 -0.38,1.1 -1.78,1.3 -1,0.06 -0.74,-4.9 -1.49,-3.39 -0.47,-3.38 -5,-8.68 -4.92,-7.06 0.27,-1.73 1.26,-0.66 1.34,-0.32 2.6,4.8 2.93,1.79 -0.48,1.78 0.43,0.23 1.04,0.96 1.28,-0.74 0.17,-0.65 -1.23,-0.62 0.44,-0.99 0.93,-0.43 -1.48,-3.78 0.87,-2.79 -1.4,-1.3 -0.33,0.68 -1.04,0.28 -1.24,-1.32 -0.43,0.49 -1.35,-0.11 -1.13,-0.74 0.64,-3.13 0.6,-0.37 2.3,1.06 2,-0.81 0.25,-1.03 0,0 2.15,-1.76 0.54,0.38 0.39,-1.41 2.02,-0.75 0.12,-1.34 2,-0.76 0.1,-1.34 1.32,-1.02 0,0 0.51,1.05 z m 29.76,-4.42 0.64,0.44 -0.35,1.48 0.64,-0.37 0.13,0.99 0.8,0.08 -0.82,0.48 0.15,1.1 0.34,0.07 2.66,1.48 -0.85,0.94 0.14,1.56 -0.68,0.33 0.8,1.59 0.74,-0.01 1.33,1.38 0.29,1.08 -1.08,1.67 -1.97,-0.87 0.22,-0.63 0.58,0.15 -0.24,-0.96 -1.09,0.55 -1.06,-0.2 0.24,-2.31 -1.45,0.38 -0.27,-0.78 -0.55,0.07 -1.88,-1.55 -0.5,0.68 -0.4,-1.12 -0.03,-1.28 0.71,0.13 0.42,0.86 0.83,0.01 -0.45,-1 0.18,-0.81 -0.49,-0.52 0.62,-0.39 -1.78,-0.56 0.19,-0.67 0.52,0.47 1.84,-0.69 -1.37,-1.16 0.07,-1.25 2.23,-0.84 z"
	/>
  <path
		id="bop"
		name="Bay of Plenty"
		d="m 394.82941,148.0517 0.9,0.49 2.87,4.25 2.97,3.18 -0.36,0.44 -2.61,-2.4 -0.34,1.2 -1.67,-0.92 -0.09,-1.52 1.61,0.48 -3.42,-3.94 0.14,-1.26 z m 9.66,80.28 0.99,-0.93 0.92,-0.09 0.04,-1.37 -0.73,-1.07 0.84,-1.15 -0.88,-1.28 -0.18,-2.64 -1.06,-0.12 -0.33,0.94 -1.47,-0.24 0,0 -2.01,-2.46 0,0 -0.76,-1.6 0.66,0.01 -0.99,-0.97 0,0 -0.47,-1.17 0,0 0.51,-0.2 0.26,-2 4.02,1.13 1.61,-1.44 -3.28,-3.85 1.29,-2.39 0.04,-1.36 0.51,-0.2 -3.24,-1.44 -0.77,0.3 -0.47,-1.17 -2.08,0.27 -0.32,-0.95 0.63,-0.51 -0.21,-1.26 1.06,0.13 2.31,-2.78 0.65,1.9 0.8,0.23 0.07,1.05 1.97,0.04 1.9,-1.01 -0.03,-0.52 1.17,-0.18 0.73,1.06 -0.92,1.97 2.29,0.99 1.25,-2.91 3.49,1.33 -0.32,-0.95 1.32,-5.63 -1.56,-1.81 -2.25,-0.47 -1.41,-1.6 -1.16,0.18 -1.49,-0.76 -0.07,-1.05 -0.43,-0.64 -0.51,0.2 -1.11,-3.06 0.51,-0.2 -1.14,-3.58 0.48,-0.72 -0.57,-0.85 -0.51,0.2 0.08,-0.83 -1.91,-1.4 -2.61,-0.06 -1.91,-1.41 -0.21,-1.26 -1.37,-1.08 -1.71,-0.15 -0.06,-1.04 -0.8,-0.23 -0.49,-1.68 1.39,-0.79 -0.68,-0.54 0.23,-0.62 -0.94,-0.44 0.23,-0.62 -0.71,-1.06 0.51,-0.19 -1.33,-0.56 0.76,-2.68 -0.94,-2.83 -2.54,-3.83 0.17,-1.66 -1.29,-2.45 1,-0.9 -1.01,-2.03 0.98,-1.42 0.98,1.51 1.56,-0.04 -0.59,-1.38 -0.51,0.19 -0.42,-0.65 0.86,-1.1 0.54,0.34 0.73,-0.79 -0.48,-1.16 0.63,0.04 0.33,-0.92 -0.54,-0.34 0.98,-0.35 0,0 -0.01,1.21 2.02,3.23 -0.54,0.12 -0.34,-0.88 -0.98,0.54 -0.53,1.69 0.76,0.04 0.01,-0.6 1.1,1.45 -2.26,0.97 1.3,0.99 -0.92,0.28 -0.24,0.91 0.75,-0.47 0.43,1.11 0.71,-0.85 0.28,0.89 -0.77,0.38 1.25,0.55 -0.42,0.62 0.35,0.77 1,-0.75 0.8,0.7 0.69,-0.58 -0.67,1.56 2.16,0.25 0.13,1.14 1.62,-1.28 0.69,0.46 -0.1,1.28 0.63,-1.32 0.28,0.97 -0.89,1.34 0.29,0.6 0.99,-1 1.78,0.25 0.21,-0.74 -0.85,-0.46 -1.36,-1.03 0.04,-1.42 -0.57,-0.38 0.33,-0.33 3.21,2.9 6.83,3.88 0.87,-0.24 0.57,-0.97 0.56,1.05 7.02,4.74 3.37,1.38 7.21,1.66 3.24,0.99 0.66,1.26 4.2,1.14 -2.89,-0.29 0.04,0.84 1.53,0.25 0.42,0.77 0.73,0.14 0.89,-0.6 -0.14,-0.98 9.13,-0.14 3.7,-1.74 -0.04,-0.74 2.38,-1.36 0.29,-1.17 1.17,-0.98 0.15,-1.3 0.95,-1.28 1.35,-1.16 1.44,-1.45 -0.61,-0.98 1.51,-0.82 0.79,-2.17 2.19,-0.16 1.25,-0.89 1.35,0.15 1.31,-1.08 0.75,-1.67 0.44,0.75 1.45,-0.13 1.53,-1.96 -0.32,-1.95 0.96,0.79 1.14,-0.56 1.67,0.11 0,0 1.02,2.64 -2.58,-0.04 -2.41,0.74 -0.21,0.62 1.05,3.28 -0.62,0.52 0.33,0.93 -0.73,0.84 0.89,1.24 1.61,-1.47 1.44,1.54 -4.04,4.1 -4.21,13 -0.51,0.21 -4.89,-4.41 -0.92,0.11 -0.45,-0.61 -0.77,0.32 1.25,2.16 -0.98,0.94 0.56,0.31 0.09,1.03 -1.28,0.52 0,0 -0.42,1.24 0,0 0.45,0.62 -2.19,0.63 -0.06,0.83 -1.81,1.14 -2.51,0.61 0.3,0.42 -0.61,0.52 0.74,1.04 -1.43,3.52 -8.89,4.6 0.7,4.29 -0.66,0 -0.58,1.04 -0.95,-0.43 -0.65,1.88 -0.77,0.31 0.29,0.42 -1.68,0.41 0,0 -0.8,1.68 -0.91,0.1 -0.04,-0.53 -1.52,0.61 -0.94,1.46 0.29,0.43 -1.55,1.97 -2.35,-0.15 -1.41,-1.6 -1.12,0.71 -0.55,-0.33 -0.98,0.93 -1.09,-0.65 -0.76,0.3 -0.44,1.25 -0.65,-0.01 0.18,0.74 -1.31,-0.03 -0.43,3.14 0.4,0.11 -0.73,0.82 0.3,2.32 -4.15,4.32 0.74,2.96 -6.44,0.09 -1.24,2.93 1.15,3.08 -1.21,-0.34 -1.8,0.71 1.03,1.5 -2.2,0.6 -4.28,-3.91 z"
	/>
  <path
		id="can"
		name="Canterbury"
		d="m 267.80941,381.9817 0.4,1.58 -0.33,0.99 0.62,0.92 1.11,0.16 0.91,-0.63 0.57,0.36 0.09,1.12 1.06,-0.4 0.31,0.46 -0.75,0.86 0.13,1.69 0.47,0.69 1.1,0.16 0.04,0.56 -0.81,1.76 1.04,1.05 1.59,-0.61 0.62,0.92 -0.33,1 1.15,0.72 -0.33,1 1.31,0.95 1.37,0.06 -0.53,0.2 -1.03,2.43 0,0 1.1,0.16 0,0 0.79,-0.31 0.89,0.82 -0.33,1 0.73,0.59 0.79,-0.31 0.17,-1.23 3.22,-0.66 0.28,-1.56 1.32,-0.5 0.96,-1.53 -0.09,-1.12 0.94,-0.07 -2.61,-0.45 0.22,-0.66 0.94,-0.07 0.06,-0.89 3.58,-2.52 -0.2,-0.79 1.72,-0.37 0.22,-0.66 0.05,0.56 0.68,0.03 0.06,-0.89 2.09,-0.8 0.57,0.36 0.21,-0.66 1.04,-0.4 -0.2,-0.79 0.94,-0.07 -0.9,-2.84 0.89,-0.64 -0.09,-1.12 1,-0.97 1.35,0.05 0.91,-2.1 1.3,-0.51 0.06,-0.9 1.5,0.28 0.69,-1.44 2.18,-1.17 -0.2,-0.79 0.79,-1.78 1.08,0.14 1.1,2.17 1.1,-1.33 5.27,-1.05 0.76,1.14 3.25,-0.21 -0.41,1.89 0,0 -4.38,6.34 -0.56,1.99 0.45,2.29 -1.81,1.07 -3.23,3.98 -1.64,0.9 -0.63,0.84 0.04,1.14 -2.21,2.09 -0.34,2.41 1.49,1.05 -1.28,0.63 -0.73,-1.23 -2.06,0.41 -3.49,3.02 -1.11,3.46 0.82,0.45 -1.69,2.13 -4.28,10.86 -2.12,2.75 0.2,1.78 -3,3.68 -4.01,1.89 -2.27,3.29 -1.51,-0.21 -1.91,1.35 -4.16,1.39 -1.67,1.79 -0.97,0.04 -1.61,2.35 -1.97,4.59 -0.63,6.93 0.33,4.1 1.29,4.63 -0.24,0.28 -0.72,-1.9 -0.96,1.49 1.31,0.08 0.31,0.56 1.24,0.18 0.07,0.75 1.2,0.24 -3.32,1.22 -1.75,-0.13 -1.06,0.79 0.34,1.76 0.43,0.4 0.48,-1.45 0.25,1.03 0.63,-0.18 0.48,-1.48 0.96,-0.12 0.4,0.82 0.89,-1.19 0.22,0.37 1.75,-1.01 -0.58,2.92 0.4,0.27 1.52,-3.28 0.88,0.89 0.37,-0.25 0.76,0.51 -1.01,2.61 0.26,0.84 1.52,-3.5 0.62,0.88 0.56,-0.27 0.62,-0.06 0.64,0.42 -0.13,1.04 0.09,0.84 1.08,-1.18 1.03,-0.09 -0.48,0.5 1.16,0.9 -0.29,0.79 0.76,0.36 0.41,-0.83 0.89,0.91 -0.45,1.06 0.83,0.39 0.4,1.08 -0.05,1.61 -0.62,1.21 -0.65,0.35 0.25,1.46 -0.8,0.15 -0.16,0.91 -0.83,-0.83 -0.73,1.92 -2.72,0.79 -0.02,-0.72 -1.15,-1.12 0.24,-1.84 0.95,-0.97 -0.79,-0.06 -0.27,-0.67 0.93,-0.25 -0.12,-0.96 -0.79,-0.09 -0.34,-0.7 -0.88,0.67 0.35,2.42 -0.64,0.81 0.25,1.83 1.28,1.39 0.03,0.94 -1.4,-0.52 -0.93,0.45 -1.05,-0.58 -1.26,0.1 -0.52,-0.54 -0.39,-0.91 -0.8,0.33 -0.91,-0.93 -0.69,-1.08 -1.37,-0.27 -15.39,2.23 -12.13,5.49 -13.99,8.12 -7.87,5.62 -4.2,3.91 -3.29,4.53 0.68,0.69 -0.25,2.99 -2.3,4.16 -1.33,4.12 0.41,12.6 -1.02,5.87 0,0 -1.19,-0.46 -1.5,0.29 -2.28,-0.95 -0.8,0.33 -0.9,-0.88 -1.65,0.06 -1.59,-0.9 -1.23,0.19 -0.05,-0.6 -2.67,-0.48 -7.61,-3.46 -1.79,1.95 -0.51,2.37 -0.43,-0.14 -0.6,1.17 -2.15,0.85 -0.76,0.92 -0.58,-0.39 -1.46,0.88 -0.9,-0.88 0.02,-1.56 -1.12,-0.18 -0.76,0.92 -1.51,0.28 -0.32,-0.49 -1.3,1.13 -4.85,0.34 -0.2,-0.85 -0.86,-0.28 0.65,-0.56 -0.52,-1.34 -1.6,-0.92 -1.31,-2.58 0.18,-1.3 -2.15,-8.1 -1.99,-0.46 -2.12,1.43 -2.89,-1.35 -1.17,-4.46 -0.66,0.56 -0.02,1.54 -2.96,-0.4 0.75,-3.04 -0.95,-1.48 0.73,-1.5 -0.2,-0.84 -1.99,-0.47 -0.81,0.31 -1.33,-1.02 0.66,-0.55 -0.47,-0.74 0.89,-1.25 -0.63,-0.98 0.66,-0.55 -0.2,-0.84 0.66,-0.55 -0.31,-0.49 0,0 -0.36,-1.08 0,0 0.54,-0.2 0.05,-3.06 -1.57,-2.44 0.81,-0.3 0.3,-1.63 1.47,-0.85 -0.31,-0.49 0.93,-0.65 -0.2,-0.83 0.97,-0.06 -0.09,-1.17 0.81,-0.3 -0.2,-0.83 0.81,-0.3 0.3,-1.62 1.24,-0.16 -0.58,-3.99 0,0 0.81,-0.3 0.72,-1.47 0.7,0.04 0.41,-1.95 2.65,-1.6 0.83,-1.81 1.39,0.07 -0.09,-1.16 1.61,-0.61 0.22,-0.68 1.12,0.17 -0.09,-1.16 0.65,-0.55 -0.47,-0.72 1.23,-0.17 1.02,-0.99 -0.04,-2.09 2.24,-1.17 0.44,-1.37 -0.46,-2.22 2.02,-0.48 0.44,-1.36 0,0 1.22,-0.17 0,0 1.72,-2.45 1.65,-0.04 2.2,-1.73 0.95,1.42 1.88,-0.72 0.98,-1.56 1.23,-0.18 0.44,-1.36 1.88,-0.72 0.49,-0.78 0.48,0.71 1.24,-0.18 0.21,0.81 1.24,-0.18 0.06,-0.92 1.68,-1.54 -0.63,-0.94 1.03,-0.99 1.78,-0.39 -0.52,-1.28 2.1,0.09 1.58,-1.2 0.32,0.47 0.81,-0.31 0.07,-0.92 1.78,-0.39 0.02,-1.49 0.81,-0.31 1.38,-2.01 0.86,0.27 -0.07,0.92 1.51,-0.28 1.26,-1.67 0.07,-0.91 1.35,-0.52 -0.63,-0.94 1.19,-0.75 -0.2,-0.81 0.81,-0.31 -0.31,-0.47 1.01,0.5 0.65,-0.55 -0.2,-0.81 0.81,-0.31 0.31,0.47 1.58,-1.2 0.58,0.37 1.08,-0.41 -0.09,-1.15 0.92,-0.65 0,0 -0.4,-1.62 0,0 3.04,-2.05 -0.43,-0.13 0.23,-0.68 1.39,0.06 0.92,-0.65 1.28,0.39 -0.22,0.68 0.54,-0.21 1.3,-1.09 -0.31,-0.47 0.5,-0.78 0.85,0.26 1.03,-0.99 0.9,0.84 2.84,-0.81 1.01,0.5 1.99,-1.07 1.05,1.07 0.81,-0.31 1.41,-1.43 -0.74,-0.6 0.23,-0.68 1.07,-0.42 -0.06,-2.63 2.19,-0.26 1.19,-0.75 0.34,-1.02 1.23,-0.18 -0.13,-1.72 1.3,-1.09 0.29,-1.59 2.14,-0.83 -0.2,-0.81 0,0 1.76,-0.39 0,0 0.58,0.36 2.67,-1.03 -0.31,-0.47 0.53,-0.21 -0.31,-0.47 0.82,-1.79 2.25,-1.16 0.02,-1.48 1.94,-1.63 0.18,-1.24 2.02,-0.49 2.38,-2.96 2.13,-0.82 0.58,0.36 1.18,-0.74 0.09,-2.37 0.69,0.03 -0.09,-1.13 0.87,-1.2 -0.31,-0.46 0,0 1.75,-0.38 1.46,-2.3 1.86,-0.71 0.49,-0.76 -0.29,-1.92 1.28,-1.06 -0.4,-1.58 1.86,-0.7 0.2,0.79 0.96,-0.36 z"
	/>
  <path
		id="cit"
		name="Chatham Islands Territory"
		d="m 698.47941,495.1317 1.03,0.42 1.27,1.77 0.37,-0.16 0.02,0.64 -1.25,0.84 -0.62,2.09 -0.95,0.39 -0.69,1.13 -0.52,-0.57 0.33,-0.89 -0.7,-0.18 0.57,-0.8 -0.46,-0.58 0.32,-0.52 -0.54,-0.19 1.19,-1.11 -1.48,-1.29 1.57,-0.07 0.54,-0.92 z m -15.71,-28.69 3.45,1.6 1.73,-0.15 0.23,0.97 1.98,0.57 2.68,-0.17 0.79,-0.6 1.86,0.71 2.03,-1.09 0.9,0.39 0.78,-0.4 0.51,0.62 -1.37,0.2 -0.52,1.77 -0.73,-0.68 -0.96,0.05 -2.11,1.51 -2.45,4.17 -0.68,3.05 -0.44,-0.47 0.47,-1.53 -0.5,-2.7 0.3,0.53 0.76,-1.47 1.52,-1.01 -1.15,-1.74 -1.64,-0.95 -1.61,-0.21 -0.92,0.87 -0.74,-1.17 -1.33,-0.02 -0.31,1.72 0.81,1.08 3.81,0.79 -1.34,1.03 -0.63,-0.22 -1.21,1.68 0.45,1.78 1.52,1.56 -0.38,1.92 1.85,0.85 0.39,-1.86 -0.45,-0.63 0.6,0.07 1.24,4.96 2.54,0.95 0.02,0.92 -5.93,1.35 -0.51,0.9 -1.28,0.36 -2.1,1.88 -2.27,-0.43 -0.53,-2.58 -0.6,-0.29 0.28,-1.54 -1.13,-1.76 4.13,-2.56 0.28,-1.17 0.78,0.61 0.71,-0.77 -0.39,-2.83 -1.96,-3.35 -0.67,-0.71 -1.75,-0.07 -0.25,-0.62 -0.28,0.59 -0.64,-0.51 -0.1,1.01 -0.69,-0.5 0.26,0.77 -0.55,0.42 -1.59,0.17 -1.5,-0.67 0.4,0.77 -1.32,0.57 -0.95,-0.5 -0.24,0.44 -1.3,-0.18 0.34,-0.58 -0.86,-0.4 0.79,-0.32 0.3,-1.53 2.16,-0.29 -0.51,-1.41 0.35,-0.61 2.62,1.09 3.48,-0.94 1,-1.09 -0.27,-1.35 0.54,-0.62 z"
	/>
  <path
		id="gis"
		name="Gisborne District"
		d="m 479.96941,150.9417 5.74,1.16 -0.97,1.09 0.26,0.83 0.68,0.29 0.93,0.94 1.2,0.59 4.19,0.34 2.25,1.66 0.46,0.94 -4.04,6.31 0.3,0.68 -1.79,1.54 -0.77,2.64 0.14,2.07 -2.18,2.45 -0.02,1.26 1.44,0.65 -0.39,0.9 0.43,1.22 -0.57,0.84 -1.44,0.51 -0.21,1.07 1.51,1.76 -0.7,0.74 -0.05,1.36 -1.03,0.75 0.96,1.23 0.03,1.07 -0.25,1.01 0.03,2.52 0.41,1.28 0.27,1.86 -1.36,0.85 -1.14,1.93 0.42,2.83 -3.4,2.74 -0.25,1.03 -1.57,1.27 -0.46,1.08 -0.8,-0.08 -1.81,1.37 -0.47,1.51 -2.18,-1.88 -1.61,0.57 -1.25,1.44 -0.23,1.89 1.51,0.35 -1.74,1.65 -0.6,1.92 0.32,1.78 -0.7,1.22 0.34,0.91 -0.47,3.29 0,0 -2.14,-0.68 -0.45,-0.63 0.59,-1.04 -0.46,-0.63 -0.63,0.52 -0.72,-0.52 0.07,-0.83 -1,0.94 -1.02,-0.95 -0.84,1.15 -0.35,-0.94 -0.37,0.42 -2.17,-0.22 0.31,-2.83 -0.73,0.84 -1.01,-0.94 -0.78,0.31 -0.3,-2.3 -1.08,-0.11 -0.89,0.63 -1.07,-1.98 -0.77,0.31 -1.03,-1.46 0.48,-0.73 -0.37,-1.46 -1.47,-0.21 -0.04,-0.52 -0.77,0.31 1.51,-3.03 -2.17,-0.74 -1.58,0.1 -1.8,-1.16 0.07,2.93 -7.09,-3.6 0,0 1.68,-0.41 -0.29,-0.42 0.77,-0.31 0.66,-1.88 0.95,0.43 0.58,-1.04 0.66,0.01 -0.7,-4.29 8.9,-4.6 1.43,-3.52 -0.74,-1.04 0.62,-0.52 -0.3,-0.41 2.51,-0.61 1.81,-1.14 0.06,-0.83 2.19,-0.63 -0.45,-0.62 0,0 0.42,-1.24 0,0 1.28,-0.52 -0.09,-1.03 -0.56,-0.31 0.98,-0.94 -1.25,-2.16 0.77,-0.31 0.45,0.62 0.92,-0.11 4.89,4.41 0.51,-0.21 4.21,-13 4.04,-4.1 -1.44,-1.54 -1.61,1.47 -0.89,-1.24 0.73,-0.84 -0.33,-0.93 0.62,-0.52 -1.05,-3.28 0.21,-0.62 2.41,-0.74 2.58,0.04 -1.02,-2.64 0,0 3.29,0.44 0.29,-1.05 z"
	/>
  <path
		id="hkb"
		name="Hawke's Bay"
		d="m 419.58941,295.5617 -1.33,-0.08 -1.03,-0.97 -0.47,0.75 -2.11,-1.1 -0.21,0.65 -1.91,-0.35 -0.36,-0.98 -1.66,-0.45 0.21,-0.65 -0.98,-0.45 1.52,-1.17 -0.88,-0.77 0.53,-1.62 -0.87,-0.77 0.32,-0.97 -1.05,-2.94 0.8,-1.72 -1.28,-0.88 -0.5,-1.2 -0.82,-0.23 0.54,-1.61 -0.98,-0.44 -0.04,-0.54 -1.34,-0.01 0,0 0.22,-0.64 0,0 -1.17,-1.2 -1.08,-0.12 -0.04,-0.54 -2.16,-0.24 -0.74,0.85 -1.62,-1.85 1.17,-2.14 -0.71,-0.54 0.48,-0.75 -0.3,-0.43 0.85,-1.17 -0.56,-0.33 2.24,-7.25 -0.23,-1.28 0.52,-0.21 0.03,-1.39 0.89,-0.63 -1.56,-1.3 0.65,-1.91 -1.56,-1.3 1.7,-0.4 0.91,-2.01 1.18,-0.2 0.48,-0.74 2.06,-0.82 0.81,0.22 -0.8,-3.51 0.48,-0.74 -0.41,-0.11 0.99,-0.94 -0.45,-0.64 0.66,0.01 -0.04,-0.53 -1.26,-0.86 -1.33,-0.02 -0.19,-0.74 0.52,-0.2 0.03,-1.38 1.14,-0.72 -0.41,-2.02 -1.81,-1.19 -1.58,0.08 -1.1,-2.56 0,-1.9 0,0 0.07,-0.84 2.17,-1.13 -0.29,-0.43 0,0 4.23,3.77 2.2,-0.6 -1.03,-1.49 1.8,-0.71 1.21,0.34 -1.15,-3.08 1.24,-2.93 6.44,-0.09 -0.74,-2.96 4.15,-4.32 -0.3,-2.32 0.73,-0.82 -0.4,-0.11 0.43,-3.14 1.31,0.03 -0.18,-0.74 0.65,0.01 0.44,-1.25 0.76,-0.3 1.09,0.65 0.98,-0.92 0.55,0.33 1.12,-0.71 1.41,1.61 2.35,0.15 1.55,-1.97 -0.29,-0.43 0.94,-1.46 1.52,-0.61 0.04,0.53 0.91,-0.1 0.8,-1.67 0,0 7.09,3.61 -0.07,-2.93 1.8,1.16 1.58,-0.1 2.17,0.74 -1.51,3.03 0.77,-0.31 0.04,0.52 1.48,0.21 0.37,1.46 -0.48,0.73 1.03,1.46 0.78,-0.31 1.07,1.98 0.89,-0.62 1.08,0.11 0.31,2.3 0.78,-0.31 1.01,0.95 0.74,-0.84 -0.3,2.83 2.17,0.22 0.37,-0.42 0.35,0.94 0.85,-1.15 1.02,0.95 1,-0.93 -0.06,0.83 0.72,0.53 0.63,-0.52 0.46,0.63 -0.59,1.04 0.45,0.63 2.14,0.69 0,0 -0.54,2.26 0.6,2.72 0.57,0.67 1.25,0.46 0.51,-0.33 1.67,1.06 -3.04,2.98 -0.72,3.08 -1.7,1.94 -0.84,-4.15 -0.84,-1.28 0.64,-0.33 1.39,-3.46 -1.2,-1.22 -0.72,0.92 -2.98,-1.08 -3.1,-0.28 -9.95,0.65 -8.38,3.06 -4.31,2.23 -1.82,1.56 -0.87,3.16 -2.97,3.64 -1.11,0.56 -1.18,2.5 -0.41,2.72 0.6,1.42 1.41,-0.35 -0.04,3.96 1.76,3.69 2.42,1.26 1.85,-0.8 0.74,0.5 -3.11,4.45 -0.88,3.43 0.47,2.13 -2.86,4.74 -1.73,4.58 -0.33,1.5 0.58,1.1 -0.89,1.19 0.04,1.53 -1.03,0.62 -2.27,4.14 -0.31,-0.38 -1.59,0.57 -2.37,1.92 -0.2,2.93 -2.06,5.22 z"
	/>
	<path
		id="mwt"
		name="Manawatu-Wanganui"
		d="m 418.25941,295.4717 0,0 0,0 1.33,0.09 0,0 0.42,1.29 -0.41,1.91 -2.28,0.28 -3.2,2.26 -0.41,1.67 -2.15,1.64 -1.55,3.24 -2.56,2.53 -1.72,3.29 0,0 -0.25,-0.82 0.47,-0.75 -0.99,-0.46 -0.57,-1.76 -2.34,-0.48 -0.79,-1.1 -0.78,0.31 -1.67,-0.46 -0.1,1.74 -0.42,-0.11 0.31,0.43 -1.62,0.09 -1.15,-0.66 -0.58,1.08 -1.1,-0.12 0.21,0.76 -1.2,0.21 -0.42,1.3 -0.89,-0.77 -1.52,1.18 -0.88,-0.77 -0.37,0.43 -0.58,-0.34 -0.73,0.87 -1.67,-0.46 1,-2.38 -0.58,-0.34 0.37,-0.43 -0.73,-0.55 -0.37,0.43 -0.73,-0.55 -1.88,0.19 0,0 -0.31,0.98 0,0 0.05,0.54 -0.84,-0.23 -0.32,0.98 -1.3,0.53 -5.84,-3.02 -1.26,2.48 -1.77,-0.14 -0.88,-0.78 -0.78,0.32 -0.16,1.19 -1.51,-0.24 -1.67,0.94 -1.14,-0.67 -0.62,0.53 -1.24,-0.36 -0.21,-0.76 0.94,-0.09 -0.05,-0.54 -1.4,-0.58 -0.06,-0.54 -1.3,-0.14 0,0 1.06,-2.22 2.18,-9.44 0.31,-8.91 -1.18,-6.88 -1.88,-4.02 -4.61,-5.98 -5.08,-4.35 -3.85,-1.32 -0.78,0.18 0,0 -0.66,-0.44 1.68,-2.44 1.5,-0.24 0.36,-0.94 1.44,-0.81 -0.04,-0.54 1.72,-0.39 -0.29,-0.44 0.63,-0.52 -0.6,-0.88 0.49,-0.74 -0.3,-0.44 2.58,-1.02 -0.99,-0.99 0.52,-0.21 -0.54,-2.27 1.15,-2.67 -1.13,-1.2 -0.39,-2.05 -0.92,0.08 -1.87,-2.3 0.23,-0.63 -1.02,-1.53 0.66,0.02 -0.03,-0.54 0,0 0.34,-0.96 0,0 -1.54,-1.32 -1.07,-0.13 -0.32,-0.98 1.83,-2.63 0.05,-1.39 0.95,0.45 0.49,-0.73 0.81,0.23 -0.29,-0.43 1.6,-1.99 -0.55,-0.34 0.77,-0.3 -0.54,-0.33 1.69,-0.39 -0.58,-0.87 0.92,-0.08 -0.29,-0.44 0.66,0.02 -0.29,-0.43 0.74,-0.84 2.13,0.27 -1.27,-1.42 0.23,-0.63 -3.31,-0.09 0.08,-0.85 0,0 0.52,-0.2 0,0 -0.93,-2.37 -0.92,0.09 -0.23,0.63 -0.46,-1.18 -1.17,0.18 -0.29,-0.44 0.48,-0.73 -0.54,-0.33 0.48,-0.74 -0.58,-0.86 0.46,-1.27 0,0 -0.83,-0.77 0,0 -1.26,1.03 -1.01,-1.52 -0.34,-1.5 0.37,-0.41 -0.72,-1.09 0.92,-0.08 0.31,-1.48 1.8,-0.69 0,0 1.51,-1.12 1.58,-0.06 -0.32,-0.97 0.82,-1.67 0.41,0.11 -0.5,-1.71 1.98,0.06 1.54,-0.59 1.11,-1.24 0.95,0.45 0.74,-0.82 0.95,0.45 1.43,-0.28 1.09,0.67 1.28,-0.5 0.23,-0.62 0.91,-0.09 0.71,-1.35 0.95,0.45 -0.2,-1.27 0.85,-1.14 0.49,1.7 1.55,-0.59 0.22,-0.63 1.43,-0.28 1.09,0.67 2.09,-0.27 1.55,1.84 2.72,-0.78 0.99,-0.92 -0.39,2.31 -1.99,1.85 0.32,0.96 -0.45,1.25 -2.04,3.23 0.9,1.82 0.52,-0.2 1.01,1.5 -1.45,2.19 1.6,2.37 -1.19,2.09 0.36,1.49 2.61,-0.47 2.12,0.26 -1.47,1.66 -0.05,1.38 -1.29,0.51 0.55,0.33 -0.45,1.26 1.39,1.09 -0.75,2.75 -2.93,5.8 4.3,1.04 1.44,-0.3 1.62,0.46 0.23,-0.64 2.17,0.79 1.22,-1.58 1.18,-0.19 -0.59,-0.86 1.51,-1.14 0.22,-0.63 -0.55,-0.33 3.09,-1.22 0.3,-1.48 4.38,0.18 2.42,-1.23 1.36,0.55 0,0 0,1.91 1.11,2.56 1.58,-0.08 1.81,1.19 0.41,2.01 -1.14,0.73 -0.03,1.38 -0.52,0.2 0.19,0.75 1.33,0.01 1.25,0.87 0.04,0.53 -0.66,-0.01 0.45,0.64 -1,0.95 0.41,0.11 -0.48,0.73 0.8,3.52 -0.81,-0.23 -2.07,0.83 -0.47,0.74 -1.19,0.2 -0.91,2.01 -1.7,0.4 1.56,1.3 -0.65,1.91 1.57,1.3 -0.89,0.63 -0.02,1.38 -0.52,0.21 0.23,1.28 -2.24,7.25 0.56,0.33 -0.85,1.17 0.31,0.43 -0.48,0.75 0.71,0.54 -1.17,2.14 1.62,1.84 0.74,-0.85 2.16,0.24 0.04,0.54 1.09,0.12 1.17,1.2 0,0 -0.22,0.64 0,0 1.34,0.02 0.05,0.54 0.97,0.44 -0.53,1.61 0.82,0.23 0.5,1.19 1.29,0.89 -0.63,0.53 -0.17,1.19 1.06,2.94 -0.33,0.97 0.88,0.77 -0.54,1.62 0.88,0.77 -1.51,1.18 0.98,0.44 -0.21,0.65 1.66,0.45 0.36,0.98 1.91,0.35 0.21,-0.64 2.11,1.1 0.47,-0.74 z"
	/>
  <path
		id="mbh"
		name="Marlborough District"
		d="m 332.16941,329.4317 0.46,0.29 -0.06,1.28 -0.98,4.39 -0.91,-0.59 -0.72,1.03 -0.59,-0.55 -1.05,0.39 -1.13,1.44 -0.84,0 -0.14,-0.76 -0.72,0.75 -1.86,0.33 1.25,-1.74 1.44,0.33 0.9,-0.66 0.41,-0.34 -0.58,-0.18 0.32,-0.58 1.19,0.02 0.08,-0.79 1.17,-0.34 -0.34,0.86 1.13,-0.04 -0.31,-0.43 1.21,-0.64 0.37,-1.54 -1.15,1.05 -0.61,0.05 -1.64,-0.26 0.68,-0.78 1.13,0.15 0.96,-0.64 0.93,-1.5 z m -11.69,-7.59 0.24,1.51 -1.07,1.33 -0.42,-0.85 0.99,-1.12 -0.95,-0.3 1.21,-0.57 z m -3.41,-1.56 1.15,0.04 -0.35,1.33 -0.69,0.56 -0.42,-1.8 -0.59,0.05 -0.48,0.49 0.6,0.06 -0.3,0.65 -0.62,0.39 0.25,1.13 -0.38,0.33 -0.84,-0.55 -1,0.79 0.15,0.56 1.04,-0.28 -0.42,0.67 -1.13,0.63 -0.5,-0.31 -0.57,0.98 -1.76,-0.07 0.4,-1.57 -0.93,1.28 -0.71,-0.37 -0.49,0.69 1.47,0.63 -1.63,1.06 0.71,0.18 -0.3,1.53 -0.27,0.39 0.02,0.58 0.53,0.29 -0.25,-0.65 0.55,-0.26 0.56,-0.05 0.84,-2.02 1.06,0.54 0.4,-0.52 0.62,0.45 1.15,-0.36 1.51,0.38 -1.71,0.36 -0.2,0.77 -1.31,-0.26 -0.39,0.95 1.14,0.16 -0.18,1.08 -1.48,-0.38 0.32,0.93 -0.84,0.19 0.19,0.47 -2.29,0.46 0.3,1.07 2.43,-1.15 -0.75,1.08 1.12,-0.23 0.29,1.16 -0.85,1.4 0.22,1.22 -1.07,0.45 -1.1,-0.76 0.42,0.94 -1.74,0.49 0.47,1.06 0.29,-1.11 1.07,1.24 1.36,0.24 0.28,-0.53 -0.87,0.26 -0.66,-1.06 2.28,-0.46 2.31,-1.65 -1.76,0.29 -0.86,-0.14 0.08,-0.42 3.27,-0.96 0.04,0.56 0.88,0.31 1.72,-0.99 0.73,0.15 -0.5,-0.77 2.08,0.43 1.89,-1.16 -2.7,0.37 -0.47,-0.22 0.19,-0.83 -2.25,1.18 -0.63,0.58 -0.1,-1.05 -1.55,1.3 -1.19,-0.06 -0.98,0.65 0.31,-1.62 0.62,-0.5 -0.74,-0.06 -0.38,-1.36 2.07,-0.83 -0.79,-0.18 0.27,-0.6 0.86,0.24 0.14,-1.56 0.39,0.3 1.25,-0.62 -0.96,1.9 0.61,1.86 0.29,-1.16 0.77,0.4 0.03,-1.73 0.65,-0.39 1.04,0.95 0.32,-0.34 -1.04,-2.02 0.23,-0.59 0.85,-0.1 0.08,-1.68 -0.56,0.31 -0.99,-0.5 -0.71,1.05 -1.06,0.35 -1.16,-0.27 0.76,-0.46 -0.68,-0.63 2.03,-0.16 -0.91,-1.21 0.27,-0.43 0.96,0.53 -0.06,-1.27 0.79,-0.2 0.31,0.57 -0.39,0.54 0.38,1.5 0.52,-0.33 0.42,0.43 0.79,-1.1 -0.05,0.92 0.68,0.2 0.94,1.77 -0.41,-2.96 1.76,1.28 0.04,-1.16 0.76,-0.71 0.72,1.41 1.96,-1.32 -0.54,1.22 -0.84,0.16 0.14,1.45 -0.39,0.13 -0.19,-0.67 -0.65,0.72 2,1.43 0.88,-1.6 0.73,0.15 0.4,-0.74 1.1,0.3 -0.99,0.49 -0.05,1.26 -1.46,1.22 0.58,0.66 -0.11,0.91 -0.87,-0.56 -0.59,0.35 -0.04,0.75 -0.86,0.32 0.39,-0.77 -0.55,-0.05 -0.07,-1.79 -0.64,1.43 -0.67,-0.38 0.07,0.93 0.72,0.47 -0.21,0.71 1.53,0.2 -0.6,1.04 0.6,-0.08 0.11,0.61 -1.31,0.93 0.08,-0.87 -0.73,-0.6 0.15,2.08 -1.16,-0.48 -0.05,-0.6 -0.47,0.64 0.26,0.77 -0.56,0.1 -0.43,-1.02 -0.69,1.43 -0.5,-0.37 0.26,-0.87 -0.59,0.53 -0.31,-0.31 -0.65,0.06 -0.56,0.83 -0.63,-0.48 -0.05,1.35 -1.05,-0.91 0.06,1.39 -2.31,0.58 -0.31,0.71 4.07,-1.02 -0.01,1.43 1.03,-1.65 1.15,-0.13 0.67,-0.27 2.46,-0.76 -0.45,1.32 0.62,-0.47 0.34,0.72 0.67,-0.64 0.96,1.35 0.34,-0.51 -0.98,-0.74 0.47,-0.41 0.55,0.57 1.41,-0.55 1.08,-0.05 -0.04,-0.58 1.42,-0.93 -0.86,1.06 0.3,0.78 -0.8,0.43 0.33,0.59 -1.04,-0.04 -1.25,1.19 0.79,0.85 -0.31,0.6 -0.92,0.28 -0.45,-0.74 -0.38,1.37 -1.47,0.1 0.16,0.64 -1.05,0.06 -0.25,-0.5 0.83,-0.49 -0.27,-0.47 0.76,0.13 1.18,-1.75 -1.12,-0.28 0.11,0.59 -0.95,0.78 0.41,-1.55 -1.26,0.73 -0.32,1.79 -1.58,2.85 -0.62,0.1 -0.81,2.52 0.13,2.04 2.18,2.57 -1.16,0.43 -0.05,0.81 1.19,0.37 1.38,-0.6 0.95,0.54 0.72,2.43 -0.33,3.32 0.84,2.14 1.25,0.96 0.4,-0.31 1.42,0.65 0.72,-0.37 -0.11,0.98 -2.24,2.42 -0.11,1.02 -2.02,3.16 -4.36,4.88 0,0 0.41,-1.89 -3.25,0.21 -0.76,-1.14 -5.27,1.05 -1.1,1.33 -1.1,-2.17 -1.08,-0.14 -0.79,1.78 0.2,0.79 -2.18,1.17 -0.69,1.44 -1.49,-0.28 -0.06,0.9 -1.3,0.51 -0.9,2.1 -1.35,-0.05 -1,0.97 0.09,1.13 -0.89,0.64 0.9,2.84 -0.93,0.07 0.2,0.79 -1.04,0.4 -0.21,0.66 -0.57,-0.36 -2.09,0.8 -0.06,0.89 -0.68,-0.03 -0.05,-0.56 -0.21,0.66 -1.72,0.37 0.2,0.79 -3.58,2.52 -0.06,0.89 -0.94,0.07 -0.22,0.66 2.62,0.45 -0.94,0.07 0.09,1.12 -0.96,1.53 -1.32,0.51 -0.28,1.56 -3.21,0.66 -0.17,1.23 -0.79,0.31 -0.73,-0.59 0.33,-1 -0.88,-0.82 -0.79,0.31 0,0 -1.1,-0.16 0,0 1.03,-2.43 0.53,-0.2 -1.37,-0.05 -1.3,-0.95 0.33,-1 -1.15,-0.72 0.33,-1 -0.62,-0.92 -1.59,0.61 -1.04,-1.05 0.82,-1.76 -0.04,-0.56 -1.1,-0.16 -0.46,-0.69 -0.13,-1.69 0.75,-0.86 -0.31,-0.46 -1.06,0.4 -0.09,-1.12 -0.57,-0.36 -0.91,0.63 -1.1,-0.16 -0.62,-0.92 0.33,-0.99 -0.4,-1.58 0,0 0,0 0,0 0.53,-0.2 -0.35,-1.02 0.51,-2.21 0.95,-0.07 1.02,-0.96 -0.35,-1.02 1.17,-0.73 0.29,-1.55 1.32,-0.5 0.07,-0.89 0.53,-0.2 0.22,-0.66 -1.03,-1.05 0.33,-0.98 0.79,-0.3 -0.09,-1.11 2.88,-3.09 -0.81,-1.7 0.37,-0.43 0.72,0.59 2.06,-1.35 2.19,-3.12 -0.02,-1.99 2.63,-1.01 0.07,-0.88 0.68,0.03 0.7,-1.41 0,0 -0.04,-0.56 0,0 0.29,-1.54 0.57,0.35 1.57,-0.61 0.98,0.48 1.98,-0.49 -0.5,-1.24 -1.59,-1.38 0.96,-1.52 0.78,-0.31 -0.39,-1.56 2.09,-0.83 0.8,-1.75 2.29,-1.5 -0.14,-1.67 2.09,-2.3 0.43,-1.33 1.19,-0.2 0.32,-1 1.97,-0.52 0.49,-2.21 -0.35,-1.01 0.93,-3.53 0,0 1.25,1.06 -0.84,1.18 1.23,-0.72 0.21,1.06 0.5,0.1 0.38,-0.49 -0.45,-1.23 2.3,-0.5 0.05,-0.48 1.51,-0.64 -0.88,0.06 0.2,-0.72 -2.17,1.2 -0.71,-1.06 1.12,-1.12 0.73,-0.54 0.28,0.48 0.36,-0.87 0.5,0.46 0.67,-1.63 0.54,0.84 0.7,-0.28 -0.44,-0.94 0.9,0.12 -0.14,-0.81 0.97,-0.39 0.22,-1.11 0.78,0.32 -0.88,2.7 1.07,0.27 0.88,-1.61 0.57,0.18 0.79,-0.91 -0.44,-0.78 1,-0.12 1.81,-1.88 0.37,1.02 z m -1.44,-11.18 0.44,0.8 -0.31,2.88 -0.68,0.53 0.13,1.07 -1.56,3.32 -1.28,0.61 -1.49,2.46 -2.3,1.08 0.86,-2.59 -1.08,0.44 0.44,-3.32 0.45,1.21 1.54,0.56 0.47,-0.3 -1.32,-0.69 -0.32,-1.94 1.26,-2.11 -0.36,-0.79 1.28,-0.56 0.5,-0.88 0.5,0.52 -0.87,1.61 0.51,0.37 -0.3,1.57 1.04,-1.48 1.26,0.31 0.21,-0.82 -1.86,0.03 2,-1.53 0.06,-0.59 0.51,0.06 0.27,-1.83 z"
	/>
  <path
		id="nsn"
		name="Nelson City"
		d="m 290.53941,337.7117 -1.27,0.88 -0.13,-0.53 -2.77,2.22 0.56,0.32 -0.66,1.25 0,0 1.07,0.98 3.02,-1.74 -0.57,-2.04 0.42,-0.67 0.67,0.46 0.81,-1.11 -0.77,-1.31 z"
	/>
  <path
		id="ntl"
		name="Northland"
		d="m 278.75941,0.3217 1.62,1.08 -1.71,0.56 0.01,3.83 -1.62,0.63 0.19,-1.31 -1.87,-0.14 -0.65,0.48 0.63,0.67 -1.85,-0.03 0.79,0.66 -0.85,0.65 1.63,0.04 1.17,-0.75 -0.46,1.27 1.09,0.12 0.39,0.8 0.03,0.38 -0.5,0.75 0.63,0.21 0.42,-1.39 -1.24,-1.82 1.26,-0.23 1.93,6.8 1.58,2.11 1.53,0.87 2.27,3.11 -0.26,1.09 -0.52,-0.09 -0.9,-0.77 -0.33,-1.35 -0.79,-0.44 0.71,2.24 0.99,0.21 1.87,2.25 3.33,1.04 -0.45,1.45 -1.16,0.67 0.14,2.8 0.83,-0.98 0.14,1.13 1.52,0.29 -0.13,-0.58 -0.81,0.07 0.26,-1.18 0.94,-0.74 0.25,0.93 0.61,-0.84 -1.92,-4.36 2.36,-0.33 1.61,-0.91 0.39,-2.6 0.64,0.75 -0.06,1.69 1.45,-0.44 -0.3,0.56 1.13,0.66 -2.23,1.52 -1.35,-0.22 -0.37,0.93 0.57,2.24 1.18,1.49 0.74,0.5 3.21,0.2 0.9,-1 -0.53,-0.91 1.22,-1 0.07,-0.76 1.02,1.26 1.4,-0.07 0.96,1.38 1.81,-0.89 0.6,0.32 0.28,1.95 0.6,0.42 0.81,0.48 -0.41,1.15 -1.27,0.61 0.59,1.08 1.01,-0.03 0.03,-1.72 0.7,0.62 0.44,-0.62 -0.2,-0.88 -0.65,-0.18 0.26,-0.41 1.49,-0.23 0.67,-0.75 0.41,0.74 1,0.02 0.27,0.81 0.91,0.14 0.51,-0.62 0.93,0.87 -0.28,0.49 1.06,0.75 -0.53,0.34 0.5,1.73 1.07,1.07 4.16,-0.4 0.94,1.86 1.09,0.26 -0.13,0.76 -1.37,0 -0.8,1.06 -1.1,-1.24 -1.19,-1.33 -0.99,0.77 0.82,0.07 0.58,1.14 -0.13,0.35 -1.59,0.88 3.76,0.19 -0.5,0.83 0.93,0.67 -0.06,1.51 0.89,0.46 -0.02,0.89 1.19,0.58 0.36,0.24 1.42,-0.46 1.48,0.75 -1.12,-1.17 -2.46,0.19 -0.58,-1.03 1.36,0.04 -1.25,-1.24 0.14,-0.86 2,1.72 0.74,-0.22 0.81,0.54 0.16,-1.46 1.29,-0.8 0.29,-0.86 1.19,0.43 0.41,-1.92 1.21,-0.16 0.37,-0.57 0.2,1.04 -0.76,0.12 -0.48,0.63 0.55,0.17 -0.23,0.4 -0.97,0.59 1.27,0.98 -1.07,0.12 -0.01,0.71 1.68,2.57 1.53,-0.35 -0.19,0.72 -0.9,0.05 1.03,0.52 0.22,0.73 -0.43,0.96 -0.57,-0.37 -0.09,-1.17 -0.62,0.1 -0.27,-0.64 -0.4,1.07 0.78,0.23 0.62,2.38 0.64,-0.07 -0.4,1.1 1.2,-0.3 0.54,0.64 0.57,-0.37 -0.21,-0.52 0.61,0.17 -0.18,1.28 1,0.58 0.07,1.07 0.56,-0.21 0.46,1.23 -0.14,0.4 -0.49,-0.53 -0.32,0.5 0.69,1.75 1.44,0.01 1.01,1.13 -0.02,2.94 -0.89,-0.5 -0.39,1.92 0.78,2.05 1.74,0.14 -0.65,0.55 0.45,0.73 -0.1,0.93 -0.49,1.14 1.7,3.2 -1.43,0.34 -1.23,-0.48 0.47,-0.32 -0.43,-0.91 -1.12,0.12 0.28,-0.76 -0.57,-1.17 -0.44,-0.73 -1.8,0.37 -1.78,-0.9 -0.98,0.71 -0.37,-1.3 -0.91,0.78 0.55,1.98 -0.49,0.39 0.61,0.38 0.88,-1.66 0.36,1.34 2.15,0.56 0.88,-0.45 0.75,0.87 1.15,0.05 -1.15,1.49 -0.36,3.87 1.56,3.68 1.3,1.05 1.84,-0.27 0.74,1.89 -0.05,0.63 0.66,1.3 0,0 -1.32,1.02 -0.1,1.34 -2,0.76 -0.12,1.34 -2.01,0.75 -0.14,0.56 0,0 0,0 0,0 -0.25,0.85 -0.54,-0.37 -2.15,1.76 0,0 -0.69,-0.22 -0.26,-0.36 -1.29,1.96 -1.04,-0.13 -0.52,-1.06 -1.17,-0.29 -0.02,-1.18 1.44,-0.89 0.64,1.1 1.35,0.38 -1.45,-1.8 2.15,-1.53 0.45,-3.3 -0.96,3.19 -2.01,1.11 0.07,-1.04 -0.75,0.36 -1.22,-1.34 1.09,-0.29 -1.22,-0.25 -0.3,0.54 -0.74,-0.57 -0.04,-1.22 0.68,-1.19 -0.8,0.57 -0.4,-0.31 -0.96,0.09 -0.03,1.82 0.59,-0.41 1,1.12 -1.07,-0.27 -0.19,0.52 0.99,0.84 1.29,-0.54 1.24,2.14 -0.73,-0.19 -1,0.68 0.04,0.54 -0.9,0.24 -1.14,-1.51 -0.56,0.19 -1.18,-1.08 -1.27,-2.1 -2.36,0.13 -2.9,-2.49 1.96,3.06 1.38,0.84 1.01,2.1 2.31,1.49 0.94,2.83 0.05,1.36 -1.48,1.26 -3.83,0.27 -1.31,-2.46 -0.48,-3.42 -3.66,-6.44 -21.14,-28.34 0.12,-0.7 0.79,0.02 0.15,-1.36 0.79,-0.93 -0.36,-0.61 0.59,-0.14 0.24,-2.37 1.78,-0.77 1.06,0.74 0.36,-1.32 0.56,0.75 1.44,-1.66 0.04,-0.76 1.04,0.12 0.22,-0.62 -1.73,-0.51 -0.69,2.44 -1.01,-0.55 -0.8,1.24 -2.48,-0.14 -0.69,0.67 0.33,0.91 -0.78,0.09 -0.51,3.97 -0.69,0.35 -5.64,-6.89 -2.28,-3.74 0.35,-0.33 -4.17,-4.66 0.37,-1.42 2.66,0.6 1.34,-1.9 0.25,-3.52 -1.14,-3.62 -3.16,-5.38 -8.34,-11.61 -4.6,-4.63 -1.06,-0.21 -0.61,-1.65 -1.31,-0.66 0.94,-2.64 5.13,1.58 1.55,-0.9 0.22,-0.97 4.36,0.54 1.6,-1.6 z"
	/>
  <path
		id="ota"
		name="Otago"
		d="m 504.40941,804.9217 0.59,0.71 -1.09,1.7 0.15,0.72 -1.27,0.24 -1.15,-1.87 2.77,-1.5 z m -407.439997,-294.88 0.82,-0.31 1.02,0.54 3.329997,-0.62 1.44,-1.46 2.19,-0.81 0.86,0.29 2.89,-2.91 1.1,-0.4 0.47,0.74 1.73,0.59 -0.2,-0.84 1.6,-1.2 0,0 0.94,-0.65 0,0 1.28,-1.7 -0.32,-0.49 1.04,-3.13 -0.24,-1.44 0.82,-0.3 0.07,-0.94 3.71,-1.05 -0.36,-1.09 1.21,-0.75 -0.52,-1.33 1.64,-0.6 -0.2,-0.84 2.5,-0.3 -0.04,-0.59 2.57,-1.24 0.68,1.57 3.79,0.13 0.82,-0.3 0.19,-1.28 0.55,-0.2 -0.32,-0.49 1.09,-0.4 0.88,2.4 1.61,0.92 2.79,-1.94 0.46,-1.37 1.67,-0.01 1.15,-1.33 1.94,-0.12 0.57,-1.71 -0.63,-0.97 0.45,-1.37 1.55,0.32 2.05,-0.46 0.74,0.62 0,0 0.58,3.99 -1.24,0.16 -0.29,1.62 -0.81,0.3 0.2,0.83 -0.81,0.3 0.09,1.18 -0.97,0.06 0.2,0.83 -0.92,0.65 0.31,0.49 -1.47,0.85 -0.3,1.63 -0.81,0.31 1.58,2.44 -0.05,3.06 -0.54,0.2 0,0 0.36,1.08 0,0 0.32,0.49 -0.66,0.55 0.2,0.84 -0.66,0.55 0.63,0.98 -0.66,0.55 0.25,1.44 -0.66,0.55 1.33,1.02 0.81,-0.31 1.99,0.47 0.2,0.84 -0.73,1.5 0.95,1.48 -0.75,3.04 2.96,0.4 0.02,-1.54 0.66,-0.56 1.17,4.46 2.89,1.35 2.12,-1.43 1.99,0.46 2.15,8.1 -0.18,1.3 1.31,2.58 1.6,0.92 0.52,1.34 -0.65,0.56 0.86,0.28 0.21,0.85 4.85,-0.34 1.3,-1.13 0.32,0.5 1.51,-0.28 0.76,-0.92 1.13,0.18 -0.02,1.56 0.9,0.89 1.46,-0.88 0.59,0.39 0.76,-0.92 2.15,-0.85 0.6,-1.17 0.43,0.14 0.51,-2.37 1.79,-1.95 7.61,3.46 2.67,0.48 0.05,0.6 1.23,-0.19 1.59,0.9 1.65,-0.06 0.9,0.88 0.8,-0.32 2.28,0.95 1.5,-0.29 1.19,0.46 0,0 -2.36,4.34 -4.17,4.16 -0.32,0.86 0.39,0.86 -2.34,1.74 -2.32,4.8 -0.04,1.56 -1.44,3.04 0.23,1.64 1.28,0.11 0.29,0.89 -0.08,1.38 -0.48,-0.38 -0.75,0.66 -1.01,2.09 -0.1,0.89 0.92,1 -2.99,3.3 -1.07,1.88 -0.12,1.56 -1.22,1.39 -0.29,-0.57 -0.65,0.34 -0.38,1.24 -0.18,0.51 -0.09,1.36 -3.24,2.92 -0.02,1.15 1.12,-0.7 1.12,0.47 0.47,-0.15 0.96,1.28 1.1,-0.35 0.64,1.35 -3.11,0.98 -0.01,1.32 -0.88,0.05 -1.47,2.28 -2.38,1.36 3,-0.65 0.75,-1.64 1.84,-0.32 0.8,-0.34 -0.09,-1.02 2.06,-0.98 0.27,-1.41 0.92,1.69 -0.77,1.04 -0.05,1.24 -1.4,-0.32 -0.53,0.47 0.49,0.48 2.13,-0.54 -0.09,1.64 -2.4,0.34 0.1,-0.96 -1.01,-0.67 -0.12,0.8 1.13,1.47 -0.93,0.68 -2.19,-0.42 -0.58,0.36 0.01,1 -0.37,0.02 0.03,-1.02 -3.53,0.45 -5.95,1.73 -1.69,1.1 -3.77,5.24 -0.07,2.77 -1.07,2.8 -6.58,4.91 -1.11,1.69 -1.58,0.73 -1.58,1.68 -3.73,1.74 -0.62,2.9 0.73,0.79 0.07,1.91 -0.85,0.48 -0.13,0.86 -0.89,0.79 -3.84,-0.91 -1.55,0.7 0.56,0.59 1.36,-1.07 0.81,0.74 0.71,-0.36 0.77,0.74 -1.13,1.07 0.16,0.59 -1.93,1.1 -1.44,0.11 0.01,0.94 -0.9,0.41 -0.19,0.75 -1.25,-1.14 -0.39,0.37 -0.81,-0.56 -1.69,0.27 -0.39,1.33 -0.86,-0.23 -0.37,1.09 0.36,0.19 -1.6,0.6 -1.09,-0.3 -0.82,0.65 0.42,0.7 -0.48,0.4 -2.83,-0.97 -1.07,0.64 -0.57,0.21 -0.76,1.21 -0.75,0.23 -0.37,-0.43 0,0 0.3,-2.12 0.67,0.03 0.16,-1.36 -1.18,-0.85 0.22,-0.75 1.28,-0.2 1.11,-2.09 -2.72,-1.5 -0.83,-1.29 -0.05,-0.63 1.11,-0.44 -0.1,-1.25 0.56,-0.22 0.06,-0.99 -0.66,-1.03 -1.93,-0.84 0.34,-1.1 1.9,-1.39 -0.6,-0.4 0.79,-0.95 -0.65,-1.02 0.81,-2.56 -0.49,-0.77 0.74,-1.57 -1.2,-0.8 -0.58,-2.01 -1.16,-0.18 0.07,-0.98 1.5,-0.91 -0.09,-1.24 -1.04,-0.55 0.79,-0.94 -0.21,-0.87 -1.91,-0.84 -1.29,-2.04 -0.09,-1.24 0.79,-0.94 0,0 0.35,-1.09 0,0 -0.92,-0.91 0.97,-2.28 -0.92,-0.91 0.39,-0.47 -1.03,-0.55 -0.23,0.72 0,0 -1.7,0.03 0,0 0.31,-1.7 0.67,-0.57 -0.96,-1.52 0.06,-3.18 -0.44,-0.15 0.42,-2.06 0.67,-0.57 0.14,-1.94 1.1,-0.42 0.62,-1.18 0,0 0.19,-1.33 0,0 1.06,-1.04 1.16,-3.58 0.45,-3.62 0.51,-0.82 1.81,-0.38 0.51,-0.82 -0.68,-1.61 -0.55,0.21 -0.64,-1.01 -0.56,-1.97 -2.05,-1.09 -0.09,-1.22 -0.95,-1.51 -2.27,1.8 -4.09,8.12 -0.94,0.67 -0.87,-0.29 0.07,-0.97 -0.59,-0.4 -0.83,0.31 0.04,0.61 -1.19,-0.8 -0.83,0.31 -0.14,-4.01 -0.99,0.06 -1.07,-1.16 -1.3,-0.44 0.51,-0.82 -0.13,-1.82 -0.84,-1.87 0.39,-0.46 -0.59,-0.4 -1.1,0.42 -1.29,1.74 -1.81,0.37 -0.9,1.28 -3.2,0.89 -5.369997,0.14 -0.83,-1.87 0.31,-1.68 -0.79,-1.26 0.51,-0.81 -1.78,-1.2 -0.32,-0.5 0.39,-0.46 -1.07,-1.16 0.4,-0.46 -1.03,-0.55 0.91,-1.27 0,0 0.24,-0.71 0,0 0.55,-0.21 -0.32,-0.5 0.55,-0.2 -0.04,-0.61 0.99,-0.06 0.43,-2.02 -0.43,-0.15 0.79,-0.91 -0.47,-0.75 -2.21,0.82 -1.23,-1.4 0,0 -1.07,-1.15 0,0 -0.67,-1.61 -1.46,-0.7 0.47,-1.41 -1.14,-2.36 0.55,-0.2 0,-2.16 1.69,-0.01 -0.2,-0.85 0.79,-0.91 0,0 0.24,-0.7 0,0 0.04,-1.55 0.55,-0.2 -0.31,-0.5 -0.55,0.2 -0.67,-1.6 0.39,-0.45 -0.31,-0.5 1.06,-1.01 -0.59,-0.4 0,0 0.51,-0.8 0,0 -0.04,-0.6 0.55,-2.35 0.82,-0.31 -0.2,-0.85 0.55,-0.2 -0.28,-2.04 2.23,-2.36 1.81,-0.13 z"
	/>
  <path
		id="stl"
		name="Southland"
		d="m 130.21941,978.7717 1.06,0.21 -0.46,1.61 0.86,0.59 0.09,0.27 -0.3,2.15 1.42,0.48 -0.28,0.8 -0.97,0.02 -1.11,-1.18 -2,-0.04 -0.88,1.16 1.52,-0.69 2.67,1.51 -1.38,1.68 -1.27,-0.72 0.41,0.84 -1.13,0.19 -0.34,-0.73 -0.56,0.83 -0.17,-1.14 -0.93,-0.08 -0.43,-1.02 -0.47,0.03 0.12,-0.55 -1.06,-0.23 -0.72,0.44 -0.91,-1.56 1.04,-0.81 0.48,0.62 1.06,-0.3 -0.13,0.53 0.87,0.3 2.23,-4.07 -0.84,-0.62 2.06,0.02 0.11,-0.66 0.34,0.12 z m -127.7799972,-101.94 2.21,1.45 2.51,-0.39 0.46,0.38 0.76,-1.04 2.9200002,0.81 2.23,1.28 -1.54,0.05 0.46,1.12 -1.67,0.92 -2.5800002,0.84 -1.74,-1.36 -0.05,0.51 -2.7,-0.72 -0.18,-1.4 -0.44,0.61 -0.99,-0.26 -0.1,-1.54 -0.62,-0.45 0.86,-0.19 -0.12,-0.91 0.32,0.29 z m 9.9400002,-20.25 0.85,0.9 0.71,-0.81 0.72,0.37 -0.97,1.12 0.2,0.66 -1.82,0.75 2.04,-0.24 1.84,-1.63 0.11,0.53 0.69,0.03 -1.19,0.8 0.85,0.63 0.17,1.27 -2.93,-0.07 0.55,0.35 -0.54,0.97 1.28,0.22 -0.39,0.78 -0.74,0.63 -1.62,-1.5 -0.22,0.53 1.43,1.31 -0.06,0.41 -0.61,0.36 0.93,0.58 -1.86,-0.29 1.08,1.5 -1.56,0.31 0.46,0.31 -0.82,0.61 2.38,-0.2 0.13,0.96 -0.76,0.55 -1.91,-0.63 1.19,1.04 -1.15,0.24 0.2,0.32 0.98,-0.22 0.95,0.61 -0.17,0.55 1.26,1.49 -1.15,1.08 1.37,0.03 -0.54,0.58 0.74,0.34 -1.18,0.56 1.57,0.43 -0.45,1.22 0.48,0.39 -0.74,0.75 -2.04,-0.05 -2.4000002,-1.7 -1.24,-1.61 -0.15,1.11 -1.15,0.26 -0.3,-0.34 1.28,-0.99 -0.32,-2.73 -1.17,-0.17 -0.48,-0.94 -0.48,1.54 1,0.87 0.24,1.13 -0.41,0.27 -0.65,-0.53 -0.73,-1.63 -0.41,0.83 1.25,1.36 -0.02,0.82 -0.79,-0.2 1.29,1.58 -0.39,0.53 -1.49,0.22 -1.6,-0.91 -0.67,-1.75 -0.15,1.14 -1.28999999,0.63 -0.62,-2.57 0.82999999,-1.19 -0.45999999,-0.66 2.16999999,-0.69 1.13,-1.66 0.47,-0.38 2.08,-0.57 2.15,-2.63 -0.56,-1.72 1.21,-4.02 -0.11,-0.7 -1.31,0.21 -0.09,-0.56 1.29,-0.13 -0.08,-0.49 -0.92,-0.98 -1.3,0.38 1.2,-1.05 1.95,-0.08 0.5400002,-0.9 0.35,0.24 -0.48,1.33 0.89,-1.41 0.58,0.67 0.58,-0.66 z m 4.9,-1.68 0.72,0.58 -0.09,0.78 -1.45,-0.39 -0.93,0.39 0.37,-0.92 1.38,-0.44 z m 61.01,-223.49 4.21,2.11 1.14,4.05 1.04,0.41 0.27,1.07 1.98,0.79 -0.31,1.29 2.39,0.33 0.01,0.55 0.24,0.52 0.53,0.92 -0.93,0.95 -2.95,-0.91 -0.21,0.74 0.11,0.53 -0.65,0.08 -1.31,-0.99 0.77,-0.3 -1.36,-1.67 0.31,1.5 -0.98,-0.2 -0.52,0.96 0.47,1.27 -1.09,0.49 -1.58,2.06 2.06,-1.19 0.93,-1.41 1.04,-0.28 0.56,0.84 -0.21,0.68 1.54,-0.25 1.4,0.78 1.25,-0.13 -2.24,1.55 2.01,0.43 0.52,-0.21 0.23,-1.15 1.19,0.15 -0.28,-1.84 1.08,-1.07 0.27,0.49 -0.71,0.6 -0.21,1.98 1.51,1.11 -0.54,0.68 0.26,0.57 0.8,0 -1.09,0.7 0.38,0.89 -0.51,0.55 -0.97,-0.38 -0.31,0.82 0.71,1.22 0.94,-0.19 0.52,1.09 -0.85,0.1 -0.19,-0.77 -0.95,-0.42 -1.06,0.73 0.4,1.44 -0.69,0 -0.47,0.49 -1.92,-1.14 -0.54,0.17 -0.01,0.92 -0.65,0.3 -1.21,-0.62 -1.96,1.21 -0.49,-0.65 -2,2.4 -1.19,-0.06 -0.19,0.77 -0.63,-0.17 -1.02,0.73 -1.2,-0.65 -0.89,0.21 -0.32,-0.75 -1.41,0.62 -0.96,-1.78 -0.42,1.13 -0.72,-0.21 0.26,1.54 -0.85,0.57 -0.42,-0.42 -0.41,0.92 -1.03,-0.08 0.17,0.77 -1.22,0.69 -0.87,-0.4 0.35,0.67 2.89,-0.43 -0.01,-0.71 0.64,0.06 0.32,0.42 -0.75,1.99 -1.28,0.4 0.24,-1.39 -1.45,0.53 0.43,0.23 -0.69,1.03 -1.33,0.68 -1.86,-0.28 -0.05,-0.84 -0.77,0.68 -0.7,-0.25 0.55,-3.58 1.25,-1.11 0.78,0.33 0.31,-0.93 1.59,-0.53 0.3,-0.6 -0.1,-1 -0.45,0.74 -0.25,-0.39 1.33,-2.3 -0.81,-0.07 -0.34,-1.28 0.82,-0.38 1.58,-2.44 1.21,-0.29 1.57,0.81 0.73,-0.33 -0.2,-0.67 -0.54,0.03 -0.25,-1.09 0.62,-0.62 -0.82,-0.33 0.22,-1.05 -0.64,-0.06 -0.07,-1.89 0.64,-0.36 -0.43,0.62 0.35,0.85 1.82,-0.25 1.55,-2.58 -0.04,-1.6 -0.79,-0.66 0.49,-0.38 -0.28,-1.13 -1.97,-2.99 0.69,-0.47 -0.59,-1.8 0.87,-1.54 -0.28,-0.78 2.68,-1.58 1.78,0.96 1.34,-1.24 z m -48.29,-33.12 1.04,0.43 -0.07,0.59 -1.83,1.52 -0.26,-1.59 1.12,-0.95 z m -4.34,-3.48 1.15,0.67 -0.57,0.33 -0.03,0.87 -1.08,-0.64 0.53,-1.23 z m 9.91,-16.21 0.24,0.28 -2.88,1.34 -3.59,0.57 -0.06,-0.56 1,-0.02 0.49,-0.67 4.8,-0.94 z m -9.08,-0.03 1.01,0.66 -1.81,0.7 -0.02,0.5 -1.46,-0.39 0.21,-1 1.55,0.11 -0.12,-0.53 0.64,-0.05 z m 11.59,-1.25 1.42,0.21 0.47,0.68 -2.45,0.86 -1.29,-0.32 -0.09,-0.71 0.71,-0.65 1.23,-0.07 z m -6.13,-6.83 1.39,1.56 0.3,4.05 -0.25,1.52 -1.21,1.22 -0.92,0.27 -0.71,-0.6 -2.19,0.74 0.13,-0.51 -0.65,-0.31 0.53,-1.01 -1.81,-0.67 0.73,-0.25 0.84,-0.46 -0.29,-0.35 -0.8,-0.41 0.05,-0.9 -4.29,4.31 0.14,-1.56 1.85,-1.89 0.57,-1.37 0.3,0.2 -0.01,-1.13 0.9,-1.08 0.48,0.54 2.15,-1.62 0.89,0.5 1.09,-0.76 0.35,0.61 0.44,-0.64 z m 11.05,-24.73 0.26,0.88 -0.8,2.05 2.09,5.18 -1.06,0.31 -4.26,-3.4 1.44,-2.83 1.71,-2.11 0.62,-0.08 z m 44.16,-47.78 2.22,0.65 3.38,-1.6 1.83,0.21 1.05,1.11 1.4,0.07 0.39,1.68 -0.39,0.45 1.33,1.02 -0.23,0.7 1.72,0.57 -0.23,0.7 -0.98,0.06 0.04,0.6 -1.48,0.86 0.9,0.89 -0.39,0.45 0,0 -0.23,0.7 0,0 -0.82,2.45 0.31,0.5 0,0 -1.96,0.12 -2.23,2.36 0.28,2.04 -0.55,0.21 0.2,0.85 -0.82,0.31 -0.55,2.35 0.04,0.6 0,0 -0.51,0.8 0,0 0.59,0.4 -1.06,1.01 0.32,0.5 -0.39,0.45 0.67,1.6 0.55,-0.2 0.32,0.5 -0.55,0.2 -0.04,1.55 0,0 -0.23,0.7 0,0 -0.79,0.91 0.2,0.85 -1.69,0.01 0,2.16 -0.55,0.2 1.14,2.36 -0.47,1.41 1.46,0.7 0.67,1.61 0,0 1.07,1.15 0,0 1.23,1.4 2.21,-0.82 0.48,0.75 -0.79,0.91 0.43,0.15 -0.43,2.02 -0.99,0.06 0.04,0.61 -0.55,0.21 0.32,0.5 -0.55,0.21 0,0 -0.24,0.71 0,0 -0.91,1.27 1.03,0.55 -0.39,0.46 1.07,1.16 -0.39,0.46 0.32,0.51 1.78,1.2 -0.51,0.81 0.79,1.26 -0.31,1.68 0.83,1.87 5.379997,-0.14 3.2,-0.89 0.9,-1.28 1.81,-0.37 1.29,-1.73 1.1,-0.41 0.59,0.4 -0.39,0.46 0.84,1.87 0.13,1.83 -0.51,0.82 1.3,0.44 1.07,1.16 0.99,-0.06 0.14,4.01 0.83,-0.31 1.19,0.8 -0.04,-0.61 0.83,-0.31 0.59,0.4 -0.07,0.97 0.87,0.3 0.94,-0.67 4.09,-8.12 2.27,-1.8 0.96,1.51 0.09,1.22 2.05,1.09 0.56,1.97 0.64,1.01 0.55,-0.21 0.68,1.62 -0.5,0.82 -1.81,0.38 -0.51,0.82 -0.44,3.62 -1.16,3.58 -1.06,1.04 0,0 -0.19,1.33 0,0 -0.62,1.19 -1.1,0.43 -0.14,1.95 -0.67,0.57 -0.42,2.06 0.44,0.15 -0.06,3.18 0.96,1.52 -0.67,0.57 -0.3,1.7 0,0 1.7,-0.03 0,0 0.23,-0.72 1.03,0.55 -0.39,0.47 0.92,0.91 -0.97,2.28 0.92,0.91 0,0 -0.35,1.09 0,0 -0.79,0.94 0.09,1.24 1.29,2.04 1.92,0.84 0.21,0.87 -0.79,0.95 1.04,0.55 0.09,1.24 -1.5,0.91 -0.07,0.98 1.16,0.18 0.58,2.01 1.2,0.8 -0.74,1.57 0.49,0.77 -0.81,2.56 0.65,1.02 -0.79,0.95 0.6,0.4 -1.9,1.4 -0.34,1.1 1.93,0.84 0.66,1.03 -0.06,0.99 -0.56,0.22 0.1,1.25 -1.11,0.44 0.05,0.63 0.83,1.29 2.72,1.5 -1.11,2.09 -1.28,0.2 -0.22,0.75 1.19,0.85 -0.16,1.36 -0.67,-0.02 -0.29,2.12 0,0 -2.11,-0.42 1.27,-1.3 -1.57,-1.1 -0.6,2.26 -0.26,1.08 -1.46,0.48 -1.55,-0.2 -1.08,0.4 -0.5,-0.57 -0.82,0.41 -1,-0.92 -3.75,0.23 -0.94,-2.01 0.38,-0.9 -1.13,-0.93 -0.43,-0.68 -3.03,-0.7 -4.71,0.99 0.25,-1 0.88,0.42 0.66,-0.41 -1.7,-0.89 -1.76,0.33 1.35,1.48 -2.54,1.24 -3.4,0.05 -1.879997,-0.72 -0.63,0.46 -0.31,-0.22 0.65,-0.91 2.419997,0.25 0.39,-0.28 2.44,0.9 0.6,-0.38 -0.43,-0.91 -2.57,-0.82 -1.479997,-0.03 -1.33,0.79 -0.58,-1.07 0.36,-0.41 -0.83,-0.71 -0.65,0.9 -0.32,-0.41 -0.95,0.36 0.62,1.99 0.59,0.16 1.11,1.32 -1.2,0.75 -0.77,-1.79 -1.39,-0.53 -0.27,-1.59 -1.47,-0.2 0.28,-0.66 -0.53,-1.33 2.74,-0.49 1.1,0 2.07,-1.26 0.02,-0.59 -1.13,-0.17 0.12,-2.26 -0.54,-0.75 -0.42,0.24 0.19,1.59 -1.86,0.53 0.55,0.54 0.39,1.35 -1.23,0.31 -2.75,-5.72 -2.95,-2.96 -2.96,-0.25 -1.2,1.14 0.66,1.26 -4.88,-1.55 -1.33,0.7 0.2,1.3 -2.24,-1.36 -1.7,1.26 -1.1,-1.31 -0.8,-0.12 -0.16,-1.76 -1.57,-0.28 0.03,-1.05 1.55,-0.78 -0.56,-2 -3.88,-3.77 -4.42,-2.23 -3.86,-0.15 -0.42,1.47 -1.56,0.92 0.43,1.95 -0.81,1.3 -2.65,-0.37 -2.3,0.98 -3.37,-0.7 -0.91,0.41 -3.41,-1.69 -2.45,0.14 -3.25,-1.12 -2.44,0.2 -1.19,1.09 -0.57,-1.04 -1.4,-0.02 -0.42,-0.5 -1.91,0.27 -1.7,-2.77 -0.74,-0.23 3.1,-2.41 1.04,-0.04 -0.2,-1.21 0.65,-1.1 0.48,-0.44 1.2,-0.25 0.52,-0.71 -0.3,-2.52 3.18,-1.15 2.45,-2.9 -1.88,1.07 -0.74,1.14 -2.97,0.54 0.46,0.47 -1.22,0.49 -0.67,1.18 1.08,1.93 -1.41,0.29 -0.62,1.19 -0.65,-1.25 0.88,-1.33 -0.09,-0.56 -1.24,1.69 -1.56,1.77 -0.04,-0.68 -1.17,-0.64 -1.06,1.1 0.12,0.52 -0.86,0.18 -0.13,-1.14 0.68,-0.47 0.4,-1.87 1.13,-2.45 2.73,-0.98 3.11,-0.05 -0.67,-0.81 0.64,-0.2 -0.24,-0.26 -2.28,0.69 -2.3,-0.51 1.6,-3.97 0.7,-0.5 -0.82,0.1 -3.46,5.63 -1.57,0.23 -2.25,1.55 -1.03,0.57 -0.92,-0.79 0.12,-3.2 -1,-2.06 0.52,-2.37 -0.36,-1.24 0.77,-0.51 -0.02,-0.82 0.94,0.02 0.45,-0.73 1.5,-0.52 2.83,0.04 1.04,-0.2 6.35,-1.66 2.06,0.12 1.68,-1.34 2.69,-0.32 1.18,-0.91 -1.25,0.2 0.62,-1.3 -0.37,-0.09 -0.88,1.72 -4.32,-1.23 -3.61,1.28 0.91,-3.33 7.25,-2.04 1.22,-1.44 -1.59,1.21 -2.86,0.19 -4.7,1.95 -0.18,-3.86 1.49,-0.1 0.74,-0.92 3.29,-1.41 1.61,0.69 1.72,-0.68 1.01,0.67 0.55,-0.39 -1.36,-0.6 -1.85,0.59 -1.21,-0.33 0.05,-0.7 2.37,-0.73 1.39,-1.02 -0.54,-0.51 -3.78,1.61 -0.1,0.74 -3.76,0.91 -1.39,1.13 -1.8,0.27 -0.86,-0.5 0.78,-4.21 1.02,0.28 0.28,-0.38 -0.64,-0.69 0.09,-0.78 1.58,-3.86 2,-0.34 3.44,2.3 -0.74,-1.02 -0.28,-1.93 -0.42,1.73 -1.95,-1.76 -1.26,-0.19 -0.19,-1.03 1.02,-1.96 1.46,-1.38 0.55,-1.39 4.14,2.36 -2.07,1.38 2.79,-1.2 2.33,1.73 -0.4,0.78 0.71,-0.65 1.26,0.45 1.49,2.8 0.33,1.9 -1.67,1.63 -0.54,1.61 1.17,-1.93 1.78,-1.55 1.13,1.23 -3.11,-5.85 -1.58,-0.71 -1.41,-1.66 1.06,-1.3 3.42,-0.6 0.87,0.33 -0.07,-0.67 0.13,-0.54 -0.81,-0.23 -0.57,0.82 -3.22,0.52 -0.63,-0.34 -0.23,-1.79 -1.19,-1.64 0.29,-2.77 0.42,-0.15 -0.78,-1.46 1.09,-0.78 0.46,-1.13 1.22,0.7 2.3,3.75 1.74,-0.4 -0.51,-0.4 -1.13,0.36 -1.34,-2.9 -0.81,-0.96 -0.92,-0.18 2.01,-2.89 2.07,2.75 0.02,1.62 1.3,1.16 0.05,-0.47 -0.94,-0.47 -0.11,-1.7 3.03,0.31 -0.75,-0.69 -2.39,-0.07 -1.17,-1.36 -0.64,-1.76 0.01,-0.7 1.71,-1.25 0.24,0.82 6.38,1.83 -0.11,-0.46 -2.45,-0.79 -2.4,-1.17 -1.11,0.17 -0.53,-1.38 1.56,-1.56 0.48,-0.41 0.92,-1.23 0.43,-0.78 0.86,-0.43 0.96,-1.97 1.19,-0.29 1.01,-1.05 0.58,0.06 0.22,1.61 1.18,1.94 -0.35,1.84 1,0.35 0.36,0.56 -0.82,2.04 1.18,-1.33 1.16,0.58 -2.27,-2.65 0.28,-0.54 0.53,0.18 -1.85,-4.47 -0.05,-1.31 0.96,-0.85 0.69,-0.44 1.93,-1.46 1.64,0.18 1.91,1.32 -1.93,2.54 0.17,0.93 1.45,0.96 -1.19,-1.54 1.88,-2.81 -2.1,-2.69 1.41,-1.26 2.39,0.56 -1.24,-1.23 0.2,-1.78 1.91,-1.44 1.91,1.43 -1.18,-2.36 1.13,-0.3 1.81,-1.72 1.17,-0.05 0.49,-1.3 1.27,-0.47 0.89,1.71 0.78,0.12 0.14,-5.1 -0.54,-0.86 1.07,-0.56 1.15,-2.76 2.25,-2.44 1.04,-0.54 0.67,0.32 1.03,-1.17 0.66,0.42 1.38,4.82 0.14,2.74 0.79,0.37 -0.77,-5.71 -2.49,-4.62 3.83,0.15 0.98,-2.13 -0.76,-0.86 z"
	/>
	<path
		id="tki"
		name="Taranaki"
		d="m 341.20941,208.8417 0.14,0.05 0,0 0.36,0.85 0.91,-0.08 0.43,0.66 2.88,-0.01 1.09,0.67 1.8,-0.69 1,1.52 1.35,0.57 0,0 -1.8,0.69 -0.31,1.48 -0.91,0.08 0.72,1.09 -0.37,0.42 0.35,1.5 1.01,1.52 1.26,-1.03 0,0 0.83,0.77 0,0 -0.45,1.26 0.58,0.87 -0.48,0.73 0.55,0.33 -0.48,0.73 0.29,0.43 1.18,-0.18 0.46,1.18 0.23,-0.63 0.92,-0.08 0.93,2.37 0,0 -0.52,0.2 0,0 -0.08,0.85 3.31,0.08 -0.23,0.63 1.27,1.42 -2.13,-0.27 -0.74,0.84 0.29,0.43 -0.66,-0.02 0.29,0.43 -0.92,0.08 0.58,0.87 -1.69,0.39 0.55,0.33 -0.77,0.3 0.55,0.33 -1.6,1.99 0.29,0.44 -0.81,-0.23 -0.48,0.74 -0.95,-0.45 -0.05,1.39 -1.83,2.63 0.32,0.97 1.07,0.13 1.54,1.32 0,0 -0.34,0.96 0,0 0.03,0.54 -0.66,-0.02 1.02,1.53 -0.23,0.64 1.87,2.3 0.92,-0.09 0.39,2.05 1.13,1.21 -1.15,2.66 0.54,2.27 -0.52,0.21 0.99,0.99 -2.58,1.02 0.3,0.44 -0.48,0.74 0.59,0.88 -0.63,0.52 0.3,0.44 -1.72,0.39 0.04,0.54 -1.44,0.81 -0.35,0.95 -1.5,0.24 -1.68,2.44 0.66,0.44 0,0 -2.33,0.32 -4.18,-2.11 -2.13,-0.46 -1.77,-1.91 -1.88,-0.76 -1.87,-1.63 -3.11,-4.22 -4.72,-2.75 -5.46,-0.82 -1.41,-0.91 -2.09,-0.27 -2.98,-1.76 -1.75,-2.7 -2.92,-2.73 -1.57,-6.59 1.56,-4.42 4.72,-3.64 1.37,-0.18 2.17,-1.5 0.98,-1.53 2.36,-0.25 4.34,-3.14 4.35,-0.25 2.05,0.51 2.91,-1.41 2.32,-3.41 2.4,-2.05 2.07,-7.42 z"
	/>
  <path
		id="tas"
		name="Tasman District"
		d="m 283.88941,339.3817 2.08,0.26 -3.19,-1.77 -0.39,0.64 1.5,0.87 z m 17.59,-11.8 -1.83,2.23 -1.28,0.48 -0.29,1.55 -0.89,1.07 -2.01,1 -1.14,-0.97 -3.09,2.4 -0.02,1.1 0,0 0.77,1.3 -0.8,1.12 -0.68,-0.46 -0.41,0.67 0.56,2.04 -3.02,1.74 -1.07,-0.97 0,0 -1.48,-0.68 -0.4,-1.38 -2.65,-0.18 -0.38,-0.48 -0.23,-0.7 1.07,-0.05 0.32,-0.53 -0.92,-1.17 0.03,-0.94 -3.14,-3.3 0.76,-0.45 0.41,-2.01 -1.3,-1.82 0.86,-0.88 0.02,-0.49 -0.09,-0.99 -0.96,-0.1 0.42,-1.22 1.09,-0.11 0.27,-0.83 1.04,-0.62 -0.09,-0.76 -0.33,0.5 -0.61,-0.46 0.76,-0.51 0.06,-1.63 -0.66,-0.87 0.73,-0.52 -0.29,-1.13 -0.56,-0.25 -1.49,1.05 -0.13,-0.53 0.84,-0.34 -0.97,-3.74 -1.78,0.36 -0.21,1.75 -1.04,-1.25 -0.28,0.98 -2.22,1.28 -4.79,-3.62 -1.74,-2.9 -0.1,-1.92 -1.31,-1.07 0.93,-0.43 0.54,-2.73 -0.48,-0.48 2.98,-3.62 5.25,0.26 4.98,1.62 -0.77,-0.68 -2.64,-0.98 -5.11,-0.81 -1.28,0.35 -3.05,-0.68 -2.05,0.7 -3.33,3.05 -0.11,0.67 0.96,-0.05 0.13,-0.8 1.48,0.07 0.41,-0.75 0.26,1.56 -1.89,0.2 -0.55,0.4 0.46,0.81 -0.87,-0.34 -1.81,1.25 -0.11,-0.5 1.41,-1.31 -0.54,-0.55 -3.43,2.4 -2.87,3.47 -4.27,3.35 -1.64,0.58 0,0 1.1,1.8 -0.48,3.29 1.16,-0.72 0.18,0.78 0.96,0.49 -0.49,0.76 1.03,1.6 0.53,-0.2 0.44,0.69 1.87,-0.14 0.44,0.69 -1.36,1.94 -0.94,0.07 -0.72,1.41 0,0 1,1.05 0,0 -0.61,1.09 0.3,0.46 0.94,-0.07 1.22,-2.17 1.12,0.72 1.17,-0.73 2.02,0.09 -0.31,1.55 1.27,0.95 0.22,1.35 1.09,0.16 0.34,1.02 2.3,2 0.69,2.03 1.74,-0.36 0.72,0.59 -1.35,1.93 -2.27,0.56 0,0 -1.32,0.49 0,0 1.22,1.83 -0.56,1.63 0.31,0.46 -0.64,0.52 0.39,1.56 -2.98,1.96 -1.94,-0.42 -0.04,-0.55 -1.7,0.92 0.61,0.91 -0.52,2.18 -1.06,0.39 0.04,0.55 -0.95,0.07 -1.14,1.27 0.28,1.88 -0.8,0.29 0.5,1.24 -0.38,0.42 0,0 -0.07,0.88 0,0 -1.33,0.49 -0.07,0.88 -0.99,-0.49 -1.18,0.72 0.77,1.14 -0.25,2.09 -1.3,-0.95 -0.22,0.65 -2.06,-0.1 -1.67,1.47 0.46,0.69 -1.25,1.61 0.35,1.02 0.53,-0.2 -0.08,4.35 0,0 -0.8,0.3 0,0 -0.07,0.89 -0.95,0.07 0.51,1.25 -1.25,1.62 0.89,0.83 0.44,2.15 1.69,0.53 -0.83,1.76 1.44,2.65 2.6,-0.11 0.82,1.72 0.96,-0.07 0.09,1.13 3.29,-0.08 0.68,3.52 -0.75,0.87 1.09,1.62 -0.07,0.9 0.53,-0.2 2.31,1.45 0.53,-0.2 -0.31,-0.46 0.49,-0.77 1.07,-0.41 0,0 1.75,-0.38 1.46,-2.3 1.86,-0.71 0.49,-0.76 -0.29,-1.92 1.28,-1.06 -0.4,-1.58 1.86,-0.7 0.2,0.79 1.22,-0.17 0,0 0.53,-0.2 -0.35,-1.02 0.51,-2.21 0.95,-0.07 1.02,-0.96 -0.35,-1.02 1.17,-0.73 0.29,-1.55 1.32,-0.5 0.07,-0.89 0.53,-0.2 0.22,-0.66 -1.03,-1.05 0.33,-0.98 0.79,-0.3 -0.09,-1.11 2.88,-3.09 -0.81,-1.7 0.37,-0.43 0.72,0.59 2.06,-1.35 2.19,-3.12 -0.02,-1.99 2.63,-1.01 0.07,-0.88 0.68,0.03 0.7,-1.41 0,0 -0.04,-0.56 0,0 0.29,-1.54 0.57,0.35 1.57,-0.61 0.98,0.48 1.98,-0.49 -0.5,-1.24 -1.59,-1.38 0.96,-1.52 0.78,-0.31 -0.39,-1.56 2.09,-0.83 0.8,-1.75 2.29,-1.5 -0.14,-1.67 2.09,-2.3 0.43,-1.33 1.19,-0.2 0.32,-1 1.97,-0.52 0.49,-2.21 -0.35,-1.01 0.93,-3.53 -0.53,-0.48 z"
	/>
  <path
		id="wko"
		name="Waikato"
		d="m 370.65941,99.1317 0.83,0.44 0.93,-0.35 0.36,2.07 0.78,-0.48 0.55,1.17 0.66,-1.03 0.62,0.18 1.75,1.57 -0.56,0.73 0.3,1.41 -0.55,0.4 0.92,0.56 0.75,-0.36 0.92,1.09 -0.28,1.37 0.44,0.79 -1.18,-0.04 0.16,1.16 1.03,-0.48 0.85,0.27 0.06,1.21 0.78,0.47 -0.71,1.79 2.11,-0.58 -0.76,-0.8 2.42,0.05 2.97,-1.73 0.62,1.29 0.93,-0.03 0.16,1.1 -1.36,0.07 -1.37,0.83 -0.26,1.55 -1.87,0.81 0.26,1.4 -1.16,0.27 -0.11,1.31 0.71,0.66 1.2,-2.46 0.61,0.22 1.08,-0.82 2.25,1.55 -0.32,1.29 1.71,2.58 -0.73,1.54 1.18,1.81 -0.61,-0.24 -1,2.05 0.19,0.63 1.09,-1.98 0.85,1.01 0.25,1.65 -0.09,2.4 -0.44,1.6 0.55,2.42 -0.41,0.38 -0.81,-1.77 -0.12,1.22 1,1.24 0.62,2.94 1.73,3.29 -0.19,1.44 0,0 -0.98,0.35 0.54,0.34 -0.33,0.92 -0.63,-0.04 0.48,1.16 -0.73,0.79 -0.54,-0.34 -0.86,1.11 0.42,0.65 0.51,-0.18 0.59,1.38 -1.56,0.04 -0.98,-1.51 -0.97,1.43 1.01,2.03 -0.99,0.9 1.3,2.46 -0.17,1.66 2.54,3.83 0.94,2.83 -0.76,2.68 1.34,0.56 -0.51,0.19 0.71,1.06 -0.22,0.62 0.94,0.44 -0.22,0.62 0.68,0.54 -1.39,0.79 0.49,1.68 0.8,0.23 0.06,1.05 1.71,0.15 1.37,1.08 0.21,1.26 1.91,1.41 2.61,0.07 1.91,1.4 -0.08,0.83 0.51,-0.2 0.57,0.85 -0.48,0.72 1.14,3.58 -0.51,0.2 1.11,3.06 0.51,-0.2 0.43,0.64 0.07,1.05 1.49,0.77 1.16,-0.18 1.41,1.6 2.25,0.47 1.56,1.81 -1.32,5.63 0.33,0.95 -3.49,-1.33 -1.25,2.91 -2.29,-0.99 0.92,-1.97 -0.72,-1.06 -1.17,0.19 0.03,0.53 -1.9,1.01 -1.97,-0.04 -0.07,-1.05 -0.8,-0.23 -0.65,-1.9 -2.31,2.78 -1.06,-0.13 0.21,1.26 -0.62,0.51 0.32,0.95 2.08,-0.27 0.47,1.17 0.77,-0.3 3.24,1.44 -0.51,0.2 -0.04,1.36 -1.29,2.39 3.28,3.85 -1.61,1.44 -4.02,-1.13 -0.26,2 -0.51,0.2 0,0 0.47,1.17 0,0 0.99,0.97 -0.66,-0.01 0.76,1.6 0,0 2.01,2.46 0,0 1.47,0.24 0.33,-0.94 1.06,0.13 0.18,2.64 0.88,1.28 -0.84,1.15 0.73,1.07 -0.04,1.37 -0.92,0.09 -0.99,0.94 0,0 0.29,0.43 -2.17,1.13 -0.07,0.85 0,0 -1.36,-0.55 -2.43,1.23 -4.38,-0.18 -0.3,1.48 -3.09,1.22 0.55,0.33 -0.22,0.63 -1.51,1.14 0.59,0.86 -1.18,0.19 -1.22,1.57 -2.17,-0.78 -0.22,0.64 -1.62,-0.46 -1.44,0.29 -4.3,-1.04 2.94,-5.8 0.75,-2.75 -1.39,-1.09 0.45,-1.26 -0.55,-0.33 1.29,-0.5 0.04,-1.38 1.48,-1.66 -2.13,-0.26 -2.61,0.47 -0.36,-1.49 1.19,-2.09 -1.6,-2.37 1.45,-2.19 -1.01,-1.5 -0.51,0.2 -0.9,-1.82 2.04,-3.22 0.45,-1.25 -0.32,-0.96 1.99,-1.85 0.39,-2.31 -1,0.92 -2.71,0.77 -1.55,-1.83 -2.09,0.26 -1.09,-0.66 -1.43,0.28 -0.23,0.63 -1.54,0.59 -0.49,-1.7 -0.85,1.14 0.21,1.27 -0.95,-0.45 -0.71,1.35 -0.92,0.08 -0.23,0.63 -1.29,0.49 -1.09,-0.67 -1.43,0.28 -0.95,-0.45 -0.74,0.83 -0.95,-0.45 -1.11,1.24 -1.54,0.59 -1.97,-0.06 0.49,1.71 -0.4,-0.12 -0.83,1.67 0.32,0.97 -1.57,0.06 -1.51,1.12 0,0 -1.34,-0.57 -1,-1.52 -1.8,0.69 -1.09,-0.67 -2.88,0.02 -0.43,-0.66 -0.91,0.08 -0.36,-0.85 0,0 0.54,-10.02 0.58,-2.41 -0.43,-3.48 0.81,-0.08 0.18,-1.03 2.14,-2.83 -0.06,-5.16 -1.4,-4.37 0.29,-0.33 0.28,0.55 1.65,0.29 1.59,-1.82 -0.53,1.17 0.14,0.36 0.52,-0.41 0,1.13 0.7,0.1 0.35,-0.78 0.44,1.38 1.19,-0.59 0.26,-0.28 -1.36,-0.04 0.37,-1 3.41,-1.62 -0.98,-0.53 -0.11,-0.82 -1.21,0.17 -0.37,0.51 -0.29,-0.99 -1.1,1.84 -1.15,0.15 0.61,-3.08 1.08,-0.66 -0.09,0.59 1,0.26 -0.08,-0.68 1.66,-2.46 -0.79,-0.58 -1.67,0.33 -0.32,1.35 0.57,0.49 -1.47,0.72 -1.49,-7.06 0.78,-1.65 1.88,-0.4 0.75,-0.91 1.33,-0.45 1.41,0.74 0.51,-0.1 -0.3,-0.54 0.61,-0.01 0.5,0.58 0.8,-0.97 -0.68,-0.41 -1.5,0.33 0.57,-0.77 1.5,0.1 -0.62,-1.16 -1.68,0.48 -0.21,1.58 -1.41,-0.81 0.22,0.71 -1.24,0.52 -1.73,-8.04 -0.96,-1.66 -0.03,-1.89 -2.62,-6.17 0.04,-3.11 0.45,0.78 1.04,-0.21 1.68,-2.58 0.92,-0.5 0,0 1.61,-0.96 0.09,-1.36 2.61,0.64 0.09,-1.36 0.63,-0.5 -0.54,-0.86 2.34,0.2 0.74,-1.33 -0.97,-2.03 -0.94,-0.98 -0.37,0.4 -0.29,-0.95 0.49,-0.71 0.8,0.77 1.29,0.06 0.82,-2.68 1.73,-2.22 0.55,0.86 2.73,0.31 0.07,-1.87 0.76,-0.28 1.33,1.09 2.59,-0.74 0.45,-1.06 0,0 0.76,2.49 -0.13,4.04 1.38,3.04 2.64,0.66 4.62,-2.3 0.63,0.25 -0.9,-2.9 0.32,-2.41 -0.97,-4.23 -2.76,-3.57 -0.88,-2.32 1.12,-0.42 -0.26,-0.77 -0.18,-0.47 0.69,-0.62 2.15,-0.08 0.34,-0.82 -0.97,-1.7 -0.29,-0.74 -1.65,-1.02 0.67,-2.58 -0.39,-1.75 -0.05,-0.75 -1.18,-1.46 -2.36,-1.29 -0.71,-1.54 0.02,-2.04 0.57,0.16 0.11,-0.6 0.83,-0.34 z"
	/>
  <path
		id="wgn"
		name="Wellington"
		d="m 354.17941,315.7617 0.34,0.35 -0.77,1.29 -1.84,1.81 -0.7,-0.13 1.94,-3.32 1.03,0 z m 7.33,-5.98 1.31,0.14 0.05,0.54 1.4,0.57 0.05,0.54 -0.93,0.09 0.21,0.76 1.24,0.35 0.62,-0.53 1.14,0.67 1.67,-0.94 1.51,0.24 0.16,-1.19 0.78,-0.31 0.88,0.78 1.77,0.14 1.26,-2.48 5.84,3.02 1.31,-0.53 0.32,-0.97 0.84,0.23 -0.05,-0.55 0,0 0.32,-0.98 0,0 1.88,-0.19 0.73,0.55 0.37,-0.43 0.73,0.55 -0.37,0.43 0.57,0.33 -1,2.38 1.67,0.46 0.73,-0.86 0.57,0.33 0.37,-0.43 0.89,0.77 1.52,-1.18 0.89,0.77 0.42,-1.3 1.2,-0.2 -0.21,-0.76 1.1,0.12 0.58,-1.08 1.15,0.67 1.62,-0.09 -0.31,-0.44 0.42,0.11 0.11,-1.74 1.67,0.46 0.78,-0.31 0.78,1.1 2.34,0.48 0.57,1.76 0.99,0.46 -0.46,0.75 0.25,0.82 0,0 -0.34,2.19 -1.44,2.85 0.23,1.23 -3.28,2.9 -0.69,2.33 -0.74,0.56 -0.23,2.12 -1.16,1.9 -0.05,1.48 -2.83,2.87 -1.3,3.44 -3.25,1.62 -0.7,2.1 -2.01,2.3 -5.27,2.74 -3.52,3.81 -3.04,1.19 -0.38,0.94 -2.57,2.3 -2.52,-0.02 -1.75,1.92 -1.24,0.25 -1.37,-0.59 -0.81,0.25 -0.66,-3.5 -0.92,-0.73 1.07,-3.76 -0.19,-1.09 -2.81,-1.76 0.01,-1.56 -1.46,0.75 -2.55,-0.48 -2.07,1.04 -2.76,2.39 -0.65,-1.09 -1.33,-0.43 0.33,-1.18 -1.09,-1.48 2.51,-5.21 -0.97,-1.39 -1.25,-0.3 -2.67,2.16 -0.27,1.03 0.96,-0.05 -0.12,1.51 0.93,-1.58 0.45,0.53 -0.34,1.03 0.44,0.92 -0.73,0.7 -0.77,-0.94 -1.29,1.16 -0.9,-0.19 -1.12,0.88 -0.84,-0.89 -1.42,-0.2 -1.78,-2.93 1.22,-2.51 2.7,-0.93 1.03,-2.45 0.83,-0.29 1.71,-2.85 1.17,-0.2 0.58,-0.96 0.57,0.59 -0.91,0.92 0.09,0.68 0.68,-0.78 0.29,-1.54 -1.11,-1.14 0.31,-0.76 3.63,-2.53 1.15,-2.28 0.58,-3.75 2.97,-2.92 2.78,-6.22 z"
	/>
  <path
		id="wtc"
		name="West Coast"
		d="m 247.79941,313.3317 1.1,1.8 -0.48,3.29 1.16,-0.72 0.18,0.78 0.96,0.49 -0.49,0.76 1.03,1.6 0.53,-0.2 0.44,0.69 1.87,-0.14 0.44,0.69 -1.36,1.94 -0.94,0.07 -0.72,1.41 0,0 1,1.05 0,0 -0.61,1.09 0.3,0.46 0.94,-0.07 1.22,-2.17 1.12,0.72 1.17,-0.73 2.02,0.09 -0.31,1.55 1.27,0.95 0.22,1.35 1.09,0.16 0.34,1.02 2.3,2 0.69,2.03 1.74,-0.36 0.72,0.59 -1.35,1.93 -2.27,0.56 0,0 -1.32,0.49 0,0 1.22,1.83 -0.56,1.63 0.31,0.46 -0.64,0.52 0.39,1.56 -2.98,1.96 -1.94,-0.42 -0.04,-0.55 -1.7,0.92 0.61,0.91 -0.52,2.18 -1.06,0.39 0.04,0.55 -0.95,0.07 -1.14,1.27 0.28,1.88 -0.8,0.29 0.5,1.24 -0.38,0.42 0,0 -0.07,0.88 0,0 -1.33,0.49 -0.07,0.88 -0.99,-0.49 -1.18,0.72 0.77,1.14 -0.25,2.09 -1.3,-0.95 -0.22,0.65 -2.06,-0.1 -1.67,1.47 0.46,0.69 -1.25,1.61 0.35,1.02 0.53,-0.2 -0.08,4.35 0,0 -0.8,0.3 0,0 -0.07,0.89 -0.95,0.07 0.51,1.25 -1.25,1.62 0.89,0.83 0.44,2.15 1.69,0.53 -0.83,1.76 1.44,2.65 2.6,-0.11 0.82,1.72 0.96,-0.07 0.09,1.13 3.29,-0.08 0.68,3.52 -0.75,0.87 1.09,1.62 -0.07,0.9 0.53,-0.2 2.31,1.45 0.53,-0.2 -0.31,-0.46 0.49,-0.77 1.07,-0.41 0,0 0.31,0.46 -0.86,1.2 0.09,1.13 -0.69,-0.03 -0.09,2.37 -1.18,0.74 -0.58,-0.36 -2.13,0.82 -2.38,2.96 -2.02,0.49 -0.18,1.24 -1.93,1.63 -0.02,1.48 -2.25,1.16 -0.82,1.79 0.31,0.47 -0.53,0.21 0.31,0.47 -2.67,1.03 -0.58,-0.36 0,0 -1.76,0.39 0,0 0.2,0.81 -2.14,0.83 -0.29,1.59 -1.29,1.09 0.13,1.72 -1.23,0.18 -0.34,1.02 -1.18,0.75 -2.19,0.26 0.06,2.63 -1.07,0.42 -0.22,0.68 0.74,0.6 -1.41,1.44 -0.81,0.31 -1.05,-1.07 -1.99,1.07 -1.01,-0.5 -2.84,0.81 -0.89,-0.83 -1.03,0.99 -0.85,-0.26 -0.49,0.78 0.31,0.47 -1.3,1.09 -0.54,0.21 0.23,-0.68 -1.28,-0.39 -0.92,0.65 -1.39,-0.06 -0.23,0.68 0.43,0.13 -3.03,2.05 0,0 0.4,1.62 0,0 -0.92,0.65 0.09,1.15 -1.22,0.34 -0.58,-0.37 -1.57,1.2 -0.31,-0.47 -0.81,0.31 0.2,0.81 -0.65,0.55 -1.01,-0.5 0.31,0.47 -0.81,0.31 0.2,0.81 -1.19,0.75 0.63,0.94 -1.35,0.52 -0.07,0.92 -1.26,1.67 -1.51,0.28 0.07,-0.91 -0.85,-0.26 -1.38,2.01 -0.81,0.31 -0.02,1.49 -1.78,0.39 -0.07,0.92 -0.81,0.31 -0.31,-0.47 -1.58,1.2 -2.1,-0.09 0.52,1.29 -1.78,0.39 -1.03,0.99 0.63,0.95 -1.68,1.54 -0.06,0.92 -1.24,0.18 -0.2,-0.81 -1.24,0.18 -0.47,-0.71 -0.49,0.78 -1.88,0.72 -0.44,1.36 -1.23,0.18 -0.98,1.56 -1.87,0.72 -0.95,-1.42 -2.2,1.74 -1.65,0.04 -1.72,2.45 0,0 -1.22,0.17 0,0 -0.44,1.36 -2.02,0.48 0.46,2.22 -0.44,1.37 -2.24,1.17 0.04,2.09 -1.02,1 -1.23,0.17 0.47,0.72 -0.65,0.55 0.09,1.17 -1.12,-0.17 -0.22,0.69 -1.61,0.61 0.09,1.17 -1.39,-0.07 -0.83,1.81 -2.65,1.6 -0.41,1.95 -0.7,-0.04 -0.72,1.47 -0.81,0.3 0,0 -0.74,-0.62 -2.05,0.46 -1.55,-0.32 -0.45,1.37 0.63,0.97 -0.57,1.71 -1.94,0.12 -1.15,1.33 -1.67,0.02 -0.46,1.37 -2.79,1.94 -1.6,-0.92 -0.87,-2.4 -1.09,0.4 0.32,0.49 -0.55,0.2 -0.19,1.28 -0.82,0.3 -3.79,-0.13 -0.68,-1.57 -2.57,1.24 0.04,0.59 -2.5,0.3 0.2,0.84 -1.64,0.6 0.52,1.34 -1.21,0.75 0.36,1.09 -3.71,1.05 -0.07,0.94 -0.82,0.3 0.24,1.44 -1.04,3.14 0.32,0.5 -1.28,1.7 0,0 -0.94,0.65 0,0 -1.6,1.2 0.2,0.85 -1.73,-0.59 -0.47,-0.74 -1.09,0.4 -2.88,2.91 -0.86,-0.29 -2.19,0.81 -1.44,1.46 -3.329997,0.63 -1.02,-0.54 -0.82,0.31 0,0 -0.31,-0.49 0.82,-2.45 0,0 0.23,-0.7 0,0 0.39,-0.45 -0.9,-0.88 1.49,-0.86 -0.04,-0.6 0.98,-0.06 0.23,-0.7 -1.72,-0.57 0.23,-0.7 -1.33,-1.02 0.39,-0.45 -0.39,-1.68 -1.4,-0.07 -1.05,-1.11 -1.82,-0.21 -3.38,1.6 -2.22,-0.65 0,0 -1.77,-0.99 2.07,-0.84 1.92,-2.24 2.77,-2.32 1.1,-0.31 0.74,-2.12 2.1,-1.65 0.08,-1.86 1.49,-1.32 -0.07,-0.92 5.759997,-0.29 0.7,-0.63 0.67,0.15 1.18,-1.42 1.83,-0.56 -0.31,1.11 1.09,0.95 2.32,0.02 3.24,-1.11 1.97,-1.09 3.04,-3.36 2.83,-1.29 4.03,-3.44 2.39,-2.9 4.48,-3.06 3.03,-1.22 1.13,-1.64 2.07,-0.89 1.5,-0.07 1.45,0.25 1.97,-2.18 0.43,0.83 0.91,-0.03 2.35,-2.54 1.54,-0.27 4.12,-6.83 1.91,-1.38 3.02,-0.31 2.36,-1.65 2.68,-3.97 1.25,-0.47 3.63,-3.44 3.34,-5.47 4.96,0.06 -0.07,-1.09 -0.97,0.02 1.83,-2.47 3.3,-1.45 1.18,0.16 1.86,-0.68 6.02,-4.08 5.62,-5.52 3.01,-5.25 4.34,-4.34 3.15,-4.92 2.74,-6.81 0.32,-2.05 1.03,-0.53 2.4,-5.39 1.11,-8.23 1.46,-4.07 0.89,-0.78 0.92,-5.29 1.48,-1.49 0.37,-1.51 0.3,-2.11 -0.51,-0.72 -0.06,-2.82 0.46,-0.39 3.05,0.29 1.6,-1.2 3.4,0.62 1.66,-0.92 6.16,-5.94 4.23,-8.42 3.12,-3.09 1.64,-11.33 -0.3,-3.1 0.51,-3.83 -0.53,-6.83 1.19,-1.25 0.09,-1.27 3.32,-3.99 z"
	/>
</svg>
