<svg
   xmlns="http://www.w3.org/2000/svg"
	viewBox="0 0 613 639"
   aria-label="Map of Zimbabwe"
>
   <path
      name="Matebeleland North",
      id="matebeleland-north",
      d="M 194.87361,93.866112 C 194.59754,94.992261 192.20745,97.552528 195.83357,95.786636 C 196.45347,98.413239 199.93149,97.10001 199.19347,100.58798 C 200.16336,103.75985 200.44764,108.29379 204.23331,109.71051 C 206.50447,113.36427 201.68158,117.31504 202.79335,121.71385 C 201.80349,124.81624 201.33992,129.9722 197.03354,129.63605 C 194.08244,132.27757 197.33654,135.1839 195.1136,138.03839 C 195.59377,140.77523 189.66089,142.56161 192.95367,145.72054 C 195.21512,145.42316 196.25781,149.07036 194.39362,151.24207 C 195.92871,152.01984 199.33393,153.82353 195.35359,153.40266 C 188.43381,153.76249 193.25377,164.24006 191.9937,169.007 C 191.28864,174.3568 198.48855,170.36935 201.59338,172.12787 C 209.51886,173.88931 219.97022,172.17649 228.95248,172.12787 C 235.7364,174.54172 244.16862,172.23934 250.55177,173.80833 C 252.5106,179.11472 243.32161,178.09801 240.23212,180.29015 C 234.4559,180.10119 239.21338,187.12082 239.51215,190.13287 C 240.02741,192.90602 240.90192,196.84548 242.87202,197.09482 C 245.94289,199.21693 241.82975,205.63249 246.47191,207.41769 C 248.80584,209.55796 252.32211,212.29724 249.11183,214.85976 C 251.51386,216.92429 257.41875,219.36047 255.11163,222.78197 C 253.60339,221.99577 246.82141,220.045 249.8318,223.74223 C 254.82809,227.12511 243.01611,229.75017 249.59181,232.14456 C 250.37952,236.95101 247.71323,242.74222 241.91206,238.62637 C 249.98858,246.47474 233.0029,250.18498 236.86483,252.06434 C 231.19476,253.86362 230.90668,266.05864 225.34848,261.90873 C 221.44781,259.50326 232.51281,259.47669 227.27254,256.63138 C 227.24021,255.1315 227.74005,253.38168 225.8326,252.31017 C 224.52016,254.25799 220.96705,251.40186 222.23271,249.9095 C 219.20074,250.94098 216.79552,251.53133 213.83298,249.42937 C 213.9493,252.3277 214.6066,255.11612 212.39304,256.63138 C 214.55431,258.01528 217.82877,255.57802 218.63283,258.07178 C 219.04812,260.46504 214.98836,261.14375 213.83298,263.59332 C 211.05881,262.12669 210.19107,268.14636 209.27313,263.59332 C 207.31803,260.8442 202.9394,258.05242 201.59338,254.23071 C 198.08522,251.18557 193.93503,254.14511 190.79375,253.51051 C 187.08097,246.59541 188.55273,261.98866 182.634,256.87143 C 178.50722,252.88982 173.78355,249.60596 169.91443,245.34824 C 169.80516,241.35599 166.8258,239.7796 163.19466,239.34657 C 159.08976,234.31192 153.10646,239.85489 147.83514,237.18597 C 141.24914,238.69523 134.79081,236.69892 128.63577,240.06677 C 125.79824,241.52294 122.81032,242.92237 119.51608,241.9873 C 118.19528,236.39805 112.64545,236.2937 108.71643,233.82503 C 104.55981,230.37026 106.2418,227.45313 101.1655,226.27756 C 94.627294,226.63617 94.298667,219.00634 92.636963,214.61969 C 90.191529,209.09548 88.352487,205.26569 84.957207,200.45575 C 89.108167,195.69651 83.97611,189.76509 78.957413,187.97227 C 73.685166,184.86377 79.36799,175.05655 71.997643,174.52853 C 68.76268,168.64144 61.890863,165.98024 60.47802,158.68413 C 58.182561,153.41265 55.337788,149.09484 51.11832,146.20065 C 48.508659,142.45121 45.317982,135.84634 49.198391,132.75693 C 53.154559,136.50736 58.033251,134.51258 62.397949,136.11786 C 64.706637,134.31546 69.100212,135.431 71.757652,133.71719 C 73.297596,136.16564 78.755119,136.42571 79.917381,139.47879 C 78.002379,142.0865 85.666569,144.7427 86.877151,142.35959 C 91.094374,142.81294 91.589166,140.98947 93.836922,139.23872 C 98.176926,136.02137 99.938961,139.1365 103.6766,139.71886 C 108.10709,139.26188 112.84733,142.36213 117.11616,143.31985 C 118.50597,146.73112 123.8642,148.83531 126.23586,144.52019 C 130.33105,144.33507 131.64158,141.98579 136.07555,141.87946 C 140.70138,141.77161 142.83433,140.86536 146.02212,137.40045 C 149.15431,132.93939 151.13334,127.34759 155.51489,122.43405 C 162.05909,116.68463 172.57742,112.64303 173.03432,102.74858 C 178.5672,95.879133 182.02231,86.796723 191.64591,84.930745 C 195.9035,84.572406 191.24994,90.517021 194.39362,92.185638 C 194.15127,92.934027 194.89543,93.172567 194.87361,93.866112 z "
   />
   <path  
      name="Mashonaland Central",
      id="mashonaland-central",
      d="M 318.94955,19.925541 C 318.99956,26.145827 318.84784,32.296476 318.94955,38.410679 C 328.07897,38.948387 337.70874,37.367102 346.54865,39.130878 C 349.09132,44.065217 352.54804,37.042326 356.38831,37.45042 C 360.97114,39.08944 366.11191,38.42292 368.6279,43.69215 C 371.40923,46.871541 374.84761,47.107446 379.90753,48.253422 C 385.58511,48.018437 391.25599,51.848404 393.10709,54.495159 C 397.56323,55.386453 395.5755,61.956671 401.50684,60.976959 C 410.92543,61.641705 420.89167,60.284932 429.47809,65.591115 C 433.07885,67.671947 441.01072,68.388927 438.22562,73.940559 C 444.51201,75.902275 436.216,77.289481 434.14575,76.821373 C 429.78133,77.026326 425.57336,73.351597 420.9462,76.341232 C 417.34262,77.43797 414.22479,79.491763 410.62653,78.741898 C 407.04806,81.14506 400.35935,80.171451 401.98682,86.183968 C 399.72665,87.246052 396.39936,89.830367 396.70697,92.425713 C 394.83364,94.115378 392.12931,96.839001 393.34708,99.147568 C 391.02114,100.65432 385.15659,100.35702 388.30725,103.94891 C 388.42979,109.0394 381.51729,110.12369 380.6275,114.51185 C 376.24928,114.46295 375.40911,119.29226 373.18777,121.23372 C 371.51072,120.58513 367.162,123.71025 364.30804,124.11452 C 360.66201,122.78269 369.37956,114.66429 362.38812,115.71218 C 358.88829,115.05967 354.51149,114.28267 354.94836,118.83305 C 350.75851,119.53779 357.03438,120.54606 354.46838,123.15425 C 353.64414,125.99476 354.00154,129.96872 350.62851,129.63605 C 347.15165,130.00205 347.55376,123.02415 344.14871,126.99532 C 341.69417,124.54037 334.91597,125.00331 337.66891,120.51352 C 335.55235,118.51333 326.41428,122.97911 328.78922,117.15258 C 328.65009,111.16822 329.7382,105.19457 333.58905,99.867767 C 335.11472,96.605184 335.55581,93.046991 331.42914,93.626038 C 330.51857,92.192937 325.53844,95.936844 324.94934,92.185638 C 325.67033,88.391649 321.48139,82.948836 324.22937,80.422371 C 327.26501,79.972595 322.46348,78.008969 323.74939,75.621033 C 323.72387,72.281238 317.24095,73.632657 316.30963,69.859428 C 316.58451,65.856206 320.41751,60.296943 318.46954,56.175621 C 314.2431,57.030247 312.96116,54.229394 310.30981,52.33456 C 306.24423,51.260785 308.33978,58.458467 303.59003,57.61602 C 301.38649,59.204015 297.66141,59.324901 299.75018,56.175621 C 302.80025,53.675401 299.75939,49.443227 303.83002,47.533218 C 301.75658,46.280209 300.80701,43.15324 300.47015,40.091148 C 295.19477,36.184035 305.27637,34.518092 306.94992,31.208679 C 309.35267,29.087306 316.78992,25.569339 311.26978,22.08614 C 310.25599,17.588856 316.91648,21.205835 318.70953,18.48514 L 318.94955,18.965269 L 318.94955,19.925541 z "
   />
   <path  
      name="Manicaland",
      id="manicaland",
      d="M 452.62515,119.55325 C 457.83834,120.8402 454.76557,125.8894 454.5451,128.6758 C 454.77876,129.79998 455.51148,133.36166 451.66519,133.47713 C 451.64039,138.07105 452.81086,139.55267 450.94519,143.31985 C 451.52043,148.50257 453.99656,151.52508 454.06509,156.28346 C 452.72273,160.16527 459.28486,161.62298 454.7851,164.92587 C 456.9974,171.31486 445.52523,166.44624 448.3053,172.84807 C 448.10795,175.92634 453.80389,179.87924 449.74524,183.89114 C 446.19645,184.76622 442.34067,183.85969 438.73636,186.75348 C 440.56554,190.91559 437.38009,192.3241 438.94559,196.61469 C 443.49824,196.2635 446.72751,196.19337 447.34531,201.41602 C 446.4717,206.61326 445.98925,212.20244 442.30548,215.09982 C 440.16759,221.20521 446.57634,219.06793 446.14536,223.98228 C 444.89083,228.94654 444.94312,233.87284 451.18521,230.4641 C 452.59061,230.69954 452.12643,235.64592 456.70502,237.18597 C 455.13452,242.11603 456.85356,251.08671 449.74524,250.38963 C 451.38024,256.27439 444.64892,251.21667 447.10532,257.35156 C 444.37763,259.74828 448.70588,263.64103 443.50546,266.47412 C 441.46285,269.40761 438.74242,274.84699 435.58572,277.27713 C 429.90622,275.98661 425.07905,280.91266 427.42599,286.39966 C 428.5473,292.62341 429.39713,299.35973 423.64828,303.75057 C 418.94565,307.24145 422.71621,309.73068 424.0661,313.52719 C 428.9707,317.53347 424.88804,318.14215 422.38614,315.44772 C 419.13072,313.23638 416.47864,311.61437 415.90634,307.28546 C 415.72941,303.51272 410.16257,304.86682 411.3465,301.04373 C 407.33963,299.03803 410.07136,293.17909 412.30646,290.00064 C 413.29204,286.76837 413.5656,284.04185 415.42636,281.83838 C 417.15959,274.73469 416.63158,267.0057 418.54626,259.99231 C 418.54177,255.56374 422.82175,247.14259 416.14636,246.3085 C 413.34314,244.17424 410.40356,242.80853 406.78665,242.7075 C 404.76777,239.82846 400.04838,241.98666 399.82687,237.42603 C 396.10276,234.16047 393.61133,230.09998 390.2272,226.62303 C 387.09536,225.19355 385.14646,222.31826 383.74741,219.66109 C 378.09887,220.62608 376.6042,213.41404 370.54785,214.85976 C 367.66791,211.74747 363.93407,210.1277 360.46817,207.89783 C 364.87752,208.79442 365.42386,204.55898 366.22797,201.41602 C 367.3479,199.22557 372.9335,201.0963 374.14771,203.09648 C 378.65252,205.89193 380.32852,199.02991 380.38751,196.37462 C 383.78239,200.26684 388.87766,194.23381 391.66714,199.49548 C 393.90458,201.65768 400.06112,202.83334 400.30688,200.69582 C 399.88229,197.08551 401.426,191.86354 397.18698,189.65276 C 397.13327,186.00105 396.71673,181.80854 392.38712,181.73055 C 392.97142,178.27399 386.69974,176.19786 389.02725,172.60802 C 387.50609,170.82995 386.46193,169.78071 388.78723,168.04674 C 389.53953,165.06674 394.94926,166.72853 393.34708,163.00533 C 396.29582,159.70486 390.65664,151.17938 396.46698,150.04173 C 400.22553,151.65198 402.57368,150.81558 400.54688,146.68079 C 404.3677,143.82375 409.68843,140.55149 409.18658,135.39766 C 415.21804,132.63204 417.9266,126.3665 424.78607,125.55492 C 427.25722,121.99651 431.29647,123.64596 433.66577,120.03338 C 434.83132,118.11032 437.06394,115.77518 439.90558,113.79165 C 440.28565,108.97412 444.95647,107.88573 447.5853,105.14924 C 454.10312,101.97398 452.35807,105.82719 456.22504,108.99031 C 454.73478,112.4211 450.46985,116.08619 452.62515,119.55325 z "
   />
   <path  
      name="Midlands",
      id="midlands",
      d="M 240.7121,97.46711 C 241.67331,101.06728 244.63054,102.96456 247.91187,104.18898 C 251.04148,107.56775 258.92648,104.43441 258.47153,110.43071 C 261.05192,112.24312 263.12091,114.63079 265.4313,115.95225 C 264.25907,118.48432 259.17359,120.58397 262.3114,123.39432 C 263.34683,126.36419 258.55539,128.70444 261.35144,130.8364 C 258.63139,134.44024 257.2222,138.00787 255.59161,141.87946 C 254.37397,145.92745 257.48935,150.58674 260.15146,153.1626 C 262.95996,154.90573 264.52937,157.40315 267.83121,158.44408 C 271.14282,160.37644 276.2761,161.36777 273.83102,166.12621 C 273.22695,167.77329 271.57325,172.79698 274.311,173.32822 C 276.98888,173.26973 278.38386,176.46833 281.75076,175.00867 C 283.58125,177.16914 285.51776,175.81712 287.27057,178.36961 C 290.20859,179.43185 292.69886,179.99913 296.39029,179.32986 C 299.64915,181.01964 305.3446,179.57598 307.90991,182.45074 C 309.39216,185.87571 314.18721,183.59221 315.82965,187.01201 C 320.51533,188.17851 324.86332,191.86216 329.74918,191.81335 C 333.72923,189.78567 333.41624,194.9541 332.14911,196.61469 C 334.90594,200.01799 335.03182,201.65044 334.78903,204.5369 C 336.92925,206.96117 345.21028,209.21049 339.10886,211.97894 C 336.96916,213.80553 329.58418,217.02351 336.46896,217.02036 C 336.28583,218.69659 333.28894,219.68067 334.30902,223.50217 C 332.89113,228.39646 334.50294,233.66566 332.3891,238.62637 C 334.30644,243.41294 326.22287,239.57624 323.98938,239.58662 C 317.92755,238.18982 323.11414,244.34043 319.18954,245.10817 C 321.69152,250.27231 312.84323,246.10788 310.06982,248.4691 C 307.44448,250.28457 301.99694,247.70907 306.46994,251.83005 C 306.28241,254.0528 303.27119,260.86412 306.94992,257.35156 C 310.56457,258.40429 312.77752,260.59283 309.58984,264.07343 C 308.72138,267.56331 314.67534,266.10824 314.38968,269.83505 C 318.88184,271.64183 320.76109,276.84736 320.86948,281.35825 C 321.85938,283.92675 325.70248,283.66727 322.30942,286.15958 C 319.50917,291.63307 322.74474,299.51274 316.06964,302.48413 C 311.89913,301.42433 306.9035,303.35968 302.87006,300.80365 C 299.43097,298.46813 294.79291,292.95682 290.87045,298.40298 C 288.10239,301.55931 284.85981,302.83533 281.27078,301.52386 C 277.52631,301.61849 271.21336,303.87017 269.03116,300.80365 C 272.58494,297.89615 279.34832,295.68652 278.39087,289.28046 C 278.11713,286.97366 282.83178,280.25747 278.15088,282.55859 C 274.20662,283.37414 275.29654,278.74638 276.9509,277.99731 C 278.39292,275.81742 283.06562,274.60584 282.95071,270.31519 C 284.37165,264.51093 285.67525,259.35819 287.99054,254.47076 C 291.32172,251.35915 290.56048,247.34419 286.07062,247.50883 C 287.89689,242.20561 279.31232,249.79379 280.31079,244.38797 C 278.12742,243.09571 274.15972,244.78106 271.1911,240.78697 C 268.95482,238.95159 264.87884,244.30487 266.15128,238.86642 C 266.05062,235.89156 268.07099,232.64895 263.75134,231.42436 C 262.40715,227.79283 258.67722,225.8578 257.99155,221.82169 C 255.04602,219.71183 251.51806,216.72349 249.35182,214.37962 C 253.70949,209.89277 242.87864,207.84796 244.07199,203.09648 C 244.73358,199.28523 243.66398,196.82106 240.95209,195.89449 C 240.38081,190.86576 236.80679,185.23504 237.8322,180.77028 C 241.86104,179.03132 248.96882,179.21392 251.03175,175.24873 C 249.53435,170.70509 242.33877,174.50964 238.31218,173.32822 C 230.44569,172.64529 223.05091,171.68747 215.27293,172.84807 C 208.29504,173.18617 202.87094,172.63044 196.55354,171.40767 C 193.28096,173.2046 190.73856,170.94984 192.23369,167.5666 C 192.58516,163.04104 188.95883,153.52966 195.35359,153.40266 C 199.33393,153.82353 195.92871,152.01984 194.39362,151.24207 C 196.25781,149.07036 195.21512,145.42316 192.95367,145.72054 C 189.6358,142.11517 196.38104,140.44446 195.35359,136.83806 C 197.12857,134.51815 193.77311,129.12081 198.95348,129.396 C 204.13709,125.66436 201.48063,118.22068 204.71329,113.31151 C 204.61778,109.6395 209.4381,113.02202 210.95308,110.67078 C 214.29262,110.09495 217.43882,109.57188 220.07278,112.35125 C 221.86636,108.29841 225.83631,106.66334 227.03255,102.02838 C 230.58936,100.5148 233.90897,97.347818 238.55217,98.427368 C 239.17625,98.006693 239.738,97.274134 240.7121,97.46711 z "
   />
   <path  
      name="Masvingo",
      id="masvingo",
      d="M 347.50861,203.81668 C 348.91223,206.96812 348.84286,210.88585 355.18835,208.37794 C 363.42071,205.48879 367.31915,215.42742 374.86771,215.33989 C 378.00143,217.18354 379.92017,220.25483 384.22739,219.90115 C 384.9726,224.80043 391.30476,225.83272 393.10709,230.22403 C 396.99848,233.34049 399.08466,238.40874 402.70679,241.02702 C 406.19263,240.57094 407.93226,244.63456 411.82648,243.18764 C 414.64978,247.26322 421.91207,245.80384 419.74622,252.55025 C 418.34153,260.93226 416.59888,269.06272 416.38635,277.75726 C 415.18234,280.24297 415.60761,283.48472 413.50644,284.71918 C 413.9704,290.42701 406.58997,295.62451 410.38654,300.5636 C 411.7808,302.6828 411.97469,304.33827 415.42636,305.60498 C 416.445,309.73363 417.54205,313.21947 421.66617,314.72754 C 426.49837,317.57927 417.40681,320.98734 415.90634,324.3302 C 399.60978,340.68847 384.29098,357.75561 367.42795,373.30383 C 364.01433,375.15189 360.58869,370.26557 356.38831,369.9429 C 353.77704,371.18501 353.67041,366.60041 350.38849,366.34189 C 351.12774,364.52435 349.27636,363.62919 347.98859,362.02069 C 348.11299,361.33712 344.84774,358.66133 345.34866,356.73923 C 341.54803,358.55391 342.82087,352.38404 338.86887,351.69781 C 337.81082,350.04076 336.90753,349.02307 335.98898,347.13654 C 334.21688,344.44726 331.90908,343.4361 330.70914,340.41467 C 331.17536,337.60892 329.39597,340.23581 327.10928,338.25406 C 325.00415,339.07178 323.15275,336.70553 323.02939,334.65308 C 318.66331,332.84811 314.23924,331.26288 309.34985,331.05206 C 310.94373,327.96848 305.92322,328.93818 305.03,326.25073 C 299.80003,327.63617 298.86442,319.48758 293.99036,318.5686 C 292.96798,315.22258 291.19224,313.4205 290.15048,310.64639 C 287.78005,309.45801 287.15119,306.01898 284.39066,304.64474 C 280.39561,300.16498 288.60149,303.43075 290.15048,298.88312 C 293.74231,293.77816 299.05447,296.81107 301.9101,300.5636 C 306.33931,303.37759 311.1956,301.17422 315.82965,302.72418 C 321.12157,300.43256 320.41995,295.23397 321.10947,290.4808 C 320.62123,287.72134 324.79597,284.62898 323.02939,283.51886 C 318.78579,281.53871 321.90381,275.53524 317.98956,272.71585 C 315.64288,270.6917 313.99434,268.52486 312.22977,266.95425 C 305.24934,266.41503 314.95948,259.28794 309.10986,258.55191 C 307.02412,255.41826 303.83796,260.80599 305.50998,256.3913 C 306.22678,253.73245 306.75532,250.61975 304.79001,249.1893 C 309.68786,249.15353 314.13729,246.8177 319.42953,247.7489 C 319.72263,246.79774 318.54416,244.60934 321.10947,243.66777 C 318.27921,238.21825 326.28324,239.60268 329.2692,240.78697 C 334.98857,242.73333 331.55287,236.61133 333.58905,233.58496 C 333.74032,228.90376 333.63195,224.82349 334.54901,220.14124 C 336.81723,217.75263 336.71067,216.78211 333.58905,216.06009 C 336.67901,212.97868 342.5294,210.37986 343.90872,207.41769 C 343.46912,205.4457 344.102,201.88479 347.50861,203.81668 z "
   />
   <path  
      name="Bulawayo",
      id="bulawayo",
      d="M 224.15265,260.23239 C 220.84325,258.88106 217.62172,262.75558 218.63283,258.07178 C 217.82877,255.57802 214.55431,258.01528 212.39304,256.63138 C 214.6066,255.11612 213.9493,252.3277 213.83298,249.42937 C 216.87959,251.6811 219.3057,250.7531 222.4727,249.9095 C 220.68721,252.19114 225.05745,253.85321 226.31258,252.31017 C 228.30516,254.07813 226.14986,255.71511 227.99252,257.11151 C 230.59666,258.91464 225.49569,260.2528 224.15265,260.23239 z "
   />
   <path  
      name="Matebeleland South",
      id="matebeleland-south",
      d="M 258.47153,222.54189 C 259.68362,227.37928 264.00199,230.51543 266.87125,234.30516 C 265.57398,236.33469 265.14393,244.61292 268.55118,240.30682 C 273.28476,238.76897 274.76146,247.45609 279.11084,243.18764 C 280.33866,245.38057 281.61013,248.05369 285.83063,245.34824 C 284.92713,249.24563 290.45025,246.81327 290.15048,250.38963 C 287.20132,255.37721 285.82045,259.55894 284.39066,264.79364 C 282.58063,269.3544 282.90205,275.67548 277.43091,277.03705 C 277.22913,278.70405 274.17249,279.6445 275.75095,282.07846 C 278.68859,283.02205 281.84273,280.57994 279.59082,285.19931 C 277.78582,289.98349 278.91127,296.71362 272.39105,298.16293 C 271.03852,299.5054 266.50525,301.87827 271.43109,302.24405 C 275.82966,303.67121 283.05405,298.37754 284.39066,304.64474 C 287.39488,306.08791 287.74216,309.90967 290.63046,310.88647 C 291.03626,313.9222 293.20406,315.2657 293.99036,318.5686 C 298.85153,320.11948 300.26046,327.3923 305.50998,326.73087 C 306.65751,328.93552 310.73944,328.41106 309.58984,331.05206 C 314.39952,331.50267 319.99608,332.74839 323.5094,335.37326 C 323.02615,339.29021 327.0492,337.32751 328.78922,339.45441 C 332.11989,337.23624 329.22797,340.46755 331.66913,341.61502 C 332.01792,344.19408 335.03726,344.85171 336.22897,347.37662 C 336.62484,349.3334 338.22381,350.0581 339.10886,351.93787 C 342.93375,352.94547 341.84553,358.4988 345.58865,356.97928 C 345.08953,359.07288 347.22604,360.83854 348.46857,362.02069 C 347.07542,362.71314 352.43631,364.66214 349.90851,365.6217 C 351.68217,367.05399 357.82626,370.93266 352.54843,370.66309 C 346.00839,368.45432 339.74557,367.34475 332.62909,369.22269 C 329.04829,370.04743 325.38609,369.46819 321.10947,369.46274 C 316.87743,371.38021 311.13956,372.20343 308.38989,368.26242 C 303.87161,369.92988 301.77957,367.02829 297.83023,366.10181 C 294.73773,362.10695 288.56612,363.16758 284.39066,360.10016 C 280.53514,359.88147 277.61618,359.78071 274.55099,360.34021 C 271.3237,362.62795 267.34186,360.64045 263.75134,363.22101 C 259.72632,360.64395 258.59119,354.34868 253.1917,356.73923 C 246.19009,357.26806 242.64752,347.20354 248.39185,343.29547 C 243.09169,339.62447 236.06638,341.05545 230.87244,337.29382 C 226.22055,335.52134 222.32017,331.91608 217.67287,335.37326 C 212.13201,331.52878 206.00278,332.02374 199.67345,331.77228 C 195.75218,331.76253 191.82015,329.66455 190.79375,327.93121 C 190.03319,325.42921 190.97083,323.66649 188.50411,320.46974 C 186.48123,315.2202 182.66558,310.28789 177.83417,307.28546 C 173.29046,304.13458 178.29429,300.26497 175.67424,296.96259 C 176.44859,292.19605 179.53322,286.80286 176.39421,281.83838 C 176.75286,279.39926 179.59826,272.67895 173.99429,274.3963 C 169.9796,273.02312 164.86939,273.03626 160.15105,273.43604 C 153.48544,275.13131 154.58852,272.04782 155.03491,265.75391 C 155.04062,260.76533 152.79475,255.85085 149.51509,252.31017 C 144.93094,254.72766 144.31214,247.69252 139.67542,249.1893 C 135.58899,247.77193 130.27685,248.09837 127.9158,245.10817 C 122.24254,245.59106 123.80255,241.5711 127.43582,240.30682 C 132.36257,238.54614 136.71543,237.39359 141.83534,237.90617 C 146.04985,236.66236 150.51488,238.38792 154.79492,237.66611 C 159.39734,235.04635 163.06643,240.23684 167.27451,240.30682 C 170.07489,242.85869 169.86504,247.26302 173.99429,249.1893 C 178.00353,251.92494 181.00618,257.50734 186.23389,257.59164 C 188.13551,255.71648 187.98402,247.86492 190.79375,253.51051 C 194.18769,254.06286 199.26895,250.819 202.55334,255.19096 C 203.55501,260.02541 209.45134,261.3073 210.23309,265.75391 C 211.20715,262.42005 214.98977,264.55003 215.9929,260.95258 C 220.8184,259.10914 223.6514,260.3512 228.18289,262.86105 C 230.28606,259.6067 237.05279,252.2364 235.43228,250.38963 C 246.76139,252.60339 239.66218,235.81273 245.75061,240.041 C 249.58238,240.0716 250.20973,234.66413 249.11183,231.9045 C 243.93225,229.21409 255.77607,226.04208 248.87183,222.54189 C 250.06172,218.7884 255.85491,225.84869 256.07159,220.62135 C 257.40328,220.2334 257.7339,221.86096 258.47153,222.54189 z "
   />
   <path  
      name="Mashonaland West",
      id="mashonaland-west",
      d="M 291.59042,18.48514 C 296.57786,21.348348 304.22086,15.686463 308.1499,20.645741 C 311.16066,16.677917 311.40064,20.760811 311.74976,23.04641 C 316.57515,26.994277 306.97218,29.913507 305.03,32.889149 C 302.18628,35.371398 295.52219,37.267169 300.95013,41.051418 C 299.94754,44.47735 303.38923,46.17389 303.59003,48.013351 C 299.75942,49.982769 302.36822,54.797067 299.27017,57.135891 C 298.91827,61.399739 304.6733,56.163181 306.94992,56.415691 C 306.36941,51.331582 312.43473,50.88784 313.18973,55.455421 C 316.32793,55.617327 321.5527,55.9479 318.46954,60.976959 C 318.86381,65.37267 313.23035,70.224976 319.18954,72.50016 C 322.34396,73.174373 325.2156,74.751185 323.5094,78.261772 C 328.65027,80.374257 321.45711,79.761338 323.5094,83.063103 C 324.4992,86.391474 324.13072,91.127283 325.9093,93.626038 C 329.35304,94.482016 330.87218,92.191008 333.58905,94.106171 C 337.0105,95.61834 331.95921,101.72712 330.94913,104.90918 C 328.1064,109.94878 329.29915,114.84923 328.54922,120.27345 C 331.8698,120.57744 340.20956,117.86316 336.94894,123.63438 C 340.69761,124.2591 343.68179,128.42319 346.54865,125.79499 C 349.98677,127.75182 346.61584,132.27142 344.14871,132.99699 C 344.69111,134.97759 343.78185,135.80075 344.62869,137.55826 C 348.8128,139.61877 343.34495,140.63379 341.2688,139.23872 C 338.19295,138.58787 339.30515,143.21846 337.42892,144.28014 C 340.01832,147.70213 334.98714,148.88579 336.46896,152.68246 C 330.40601,154.8808 335.04213,160.52611 338.1489,163.24541 C 335.19479,166.70946 338.14869,173.24286 333.82904,176.20901 C 332.39061,177.63096 331.1191,181.51587 329.74918,180.05006 C 326.38252,178.62077 330.44124,184.86522 326.62927,185.33154 C 325.77122,187.99417 324.21717,188.3913 322.06943,189.41267 C 318.07628,188.9582 315.37204,185.32559 311.98975,184.85141 C 308.54369,185.2173 308.441,180.918 305.03,181.01035 C 300.21906,180.409 296.25266,178.72237 291.11044,179.81001 C 288.79608,178.91916 286.11009,177.29848 284.39066,176.44907 C 282.65075,175.89196 280.61705,174.18402 277.91089,175.24873 C 276.74146,172.3333 271.27111,174.38757 273.11105,170.20734 C 272.37345,166.78331 276.84379,162.0193 271.91107,160.60468 C 268.44408,158.3971 264.01153,157.21647 261.59143,154.12286 C 257.63819,152.03902 255.74976,147.27799 255.11163,143.07979 C 256.76206,138.77264 258.42753,135.05884 261.11142,131.07645 C 258.7398,128.84357 263.26538,126.81175 262.07141,123.63438 C 260.6446,121.2144 261.66012,120.46551 263.51135,117.87278 C 267.95212,115.70731 262.05315,114.61994 260.87143,112.11118 C 257.16043,110.71856 258.93144,105.29617 254.15166,106.58964 C 249.73648,105.25532 245.51875,103.70497 242.15205,100.58798 C 241.64872,95.245732 236.99571,99.410796 233.51234,98.667442 C 229.64434,100.55399 225.6443,102.11394 224.87262,106.82971 C 221.39259,107.27896 221.15943,115.03285 217.43288,110.67078 C 213.71887,108.65136 209.80467,112.56362 205.91324,111.39098 C 204.25611,111.39929 203.83586,108.37156 201.83337,108.03004 C 199.53493,105.08784 199.91287,101.04606 198.4735,97.707169 C 195.93646,97.905263 196.02859,94.735381 193.43365,96.266769 C 196.81581,94.130225 192.03743,90.716925 193.43365,87.3843 C 191.483,82.096438 199.54177,82.952062 202.07336,78.981972 C 210.65667,72.432643 222.53567,70.161539 231.8324,66.25843 C 235.59573,64.049437 236.30698,59.265053 235.91226,55.695492 C 236.75668,52.819679 234.905,49.118642 237.11221,44.89249 C 235.04127,41.649798 237.95877,38.141684 240.47211,35.28981 C 246.21183,36.740799 247.84457,30.989795 252.71172,28.567949 C 258.57885,24.511029 264.39773,22.695546 271.1911,21.60601 C 275.19129,18.206939 281.92857,21.258884 287.27057,17.76494 C 288.75639,17.682997 290.21306,18.062275 291.59042,18.48514 z "
   />
   <path  
      name="Mashonaland East",
      id="mashonaland-east",
      d="M 447.10532,75.380959 C 452.60741,73.917545 453.9395,78.040774 450.09552,83.322584 C 448.15193,86.968138 442.55223,86.205906 448.04675,90.714297 C 450.08285,94.206378 456.40958,101.69162 451.66519,104.18898 C 446.85656,104.44618 444.61826,107.85335 441.10553,110.19065 C 440.61144,113.91277 438.32782,116.14008 434.86572,117.15258 C 436.01043,120.65748 431.9165,121.11959 429.8259,122.91418 C 426.46663,122.41452 424.87193,126.91828 420.9462,126.51519 C 416.72057,129.18108 413.9557,132.95285 409.18658,135.39766 C 409.68843,140.55149 404.3677,143.82375 400.54688,146.68079 C 402.57368,150.81558 400.22553,151.65198 396.46698,150.04173 C 390.54225,151.33011 396.52723,160.14596 393.10709,163.48547 C 395.22939,167.15979 387.83254,164.94507 388.54724,169.007 C 384.77034,170.20157 391.29986,172.62785 388.54724,175.00867 C 389.69669,177.57362 392.84362,179.969 393.10709,182.21068 C 399.11553,181.9741 395.04805,189.76529 399.1069,191.57327 C 401.55613,194.40555 399.60266,199.86798 400.06686,201.65608 C 394.75742,203.46145 391.32324,197.12486 386.38733,197.09482 C 384.40874,200.18746 378.62828,193.79738 380.38751,198.53522 C 379.57707,202.03517 376.31238,205.91582 373.18777,202.13622 C 371.91255,201.2899 365.06374,198.16786 366.22797,202.85641 C 364.44325,205.48342 364.70065,208.90177 360.22818,207.89783 C 356.67878,207.14306 350.69806,210.48683 348.70856,207.89783 C 351.46712,203.81271 343.42763,201.3104 344.14871,205.49715 C 343.81951,206.89893 343.6877,210.7427 340.78882,208.85809 C 338.47988,207.25936 332.19352,203.55132 335.26901,201.89615 C 333.17012,199.06474 331.94052,195.37906 332.62909,193.4938 C 333.44282,188.68602 327.4291,194.07178 325.42932,190.85307 C 320.43797,189.31684 325.59787,188.45917 325.9093,186.53188 C 328.69432,185.1485 328.22714,181.9836 328.54922,179.81001 C 330.59523,180.53095 331.14833,180.75936 332.62909,177.64941 C 335.26786,175.10214 337.11566,171.60122 336.70895,167.32654 C 336.95689,164.27873 339.29806,162.35052 335.26901,160.12453 C 331.25468,157.04671 334.61366,153.95984 336.46896,151.7222 C 335.54434,148.36782 339.96687,147.43935 337.42892,144.04005 C 339.68372,142.76402 338.11335,137.67949 342.46875,139.23872 C 346.06242,141.07078 349.84198,144.67609 353.2684,145.72054 C 357.59289,145.55643 353.56623,142.59851 356.86829,142.11954 C 356.45654,139.47718 357.30807,138.22158 359.50821,137.79832 C 360.59264,135.54514 360.89643,133.40708 359.26822,130.8364 C 361.4599,126.00508 355.11583,128.20294 353.74838,125.55492 C 354.609,123.49085 356.02049,120.15704 353.2684,119.79332 C 355.56375,119.51842 354.68274,114.51864 358.06824,114.99198 C 360.90478,116.39654 368.15872,114.48226 364.30804,119.55325 C 362.05101,123.60021 364.16709,125.14609 367.66794,122.91418 C 371.29829,121.51716 372.94893,121.46913 375.1077,119.31318 C 375.23821,114.79681 381.02085,115.71065 382.30746,112.11118 C 384.3639,109.03075 390.85039,105.49437 387.58728,101.30818 C 390.00201,100.20186 394.80874,99.842652 393.10709,96.74691 C 395.5576,94.08238 396.04505,91.852265 398.14694,89.544899 C 400.24436,86.74916 402.64883,85.794749 402.70679,82.342903 C 405.10292,79.930233 409.21862,79.835847 412.54645,78.741898 C 418.1048,78.885216 425.41478,72.222684 431.26584,76.821373 C 434.70318,76.172285 438.26818,77.996771 441.10553,75.1409 C 443.06837,76.213342 445.32211,74.635508 447.10532,75.380959 z " 
   />
   <path  
      name="Harare",
      id="harare",
      d="M 356.6283,142.59966 C 353.86104,142.73556 357.25019,145.70253 353.02841,145.96059 C 350.67587,144.41372 345.29684,141.24269 344.3887,140.19899 C 349.6333,139.1167 341.50173,137.3271 344.86868,135.15759 C 341.45366,132.63389 348.28699,132.06621 347.7486,128.91585 C 349.6208,129.72957 354.76304,130.30566 353.50839,126.03505 C 354.43701,127.26832 361.21481,126.33631 359.26822,130.35625 C 360.29375,133.00961 361.07089,135.40364 359.50821,137.55826 C 358.72135,138.6528 355.57488,138.51763 357.10828,141.15926 C 356.59451,141.5559 357.14206,142.20302 356.6283,142.59966 z "
   />
</svg>
