<svg
   xmlns="http://www.w3.org/2000/svg"
   viewBox="0 0 659 600"
	aria-label="Map of Syria">
  <path
     d="m 609.17449,85.881336 -1.66,0.57 -3.61,3.14 -11.99,3.15 -28.03,5.23 -0.91,0.52 -0.97,0.98 -10.8,19.090004 -0.27,11.3 -2.46,20.89 -0.88,4.56 12.15,26.63 1.31,24.82 -6.05,9.55 0,0 -12.59,-1.69 -13.49,0.07 -10.37,-1.11 -8.03,-2.45 -5.68,-1.17 -6.81,-3.83 -1.83,-2.56 -2.69,-1.81 -78.06,-76.95 -3.87,-4.95 -2.16,-4.37 -3.84,-6.08 -1.52,-3.96 0,0 -0.26,-2.08 -0.8,-1.39 -2.77,-2.410004 -1.89,-1.09 -7.6,-2.79 -4.55,-2.17 -5.49,1.25 -2.14,-0.34 -1.81,-1.12 -5.78,-7.55 -0.83,-3.37 -1.78,-3.61 -0.36,-1.7 0,0 1.33,-0.55 1.43,0.23 7.77,-1.22 5.02,-1.44 6.73,-0.77 5.72,-2.2 8.35,-0.7 3.41,-0.72 4.8,-2.67 7.19,-2.62 5.19,-3.14 3.57,-1.48 3.46,-3.02 4.51,-1.37 4.76,-0.85 2.67,-1.11 3,-1.9 2.16,-2.06 1.8,-0.76 4.69,-3.18 5.93,-2.79 3.27,-3.02 1.88,-1.18 10.68,-2.21 3.57,-1.78 1.95,-1.59 7.17,-3 3.26,-2.37 4.42,-1.02 2.88,-1.8 4.02,0.1 1.14,1.28 1.62,0.34 3.5,-2.18 3.48,-0.35 2.85,0.33 4.99,1.53 11.26,2.09 5.45,0.35 3.42,1.59 0.74,1.52 0.64,0.42 1.82,-0.16 3.38,-1.77 22.69,-0.04 5.66,-0.7 9.79,-3.35 7.02,-0.13 2.98,-0.49 21.38,-5.19 4.07,-2.21 4.05,-1.41 4.81,-2.96 1.61,-2.78 1.66,-1.7400002 5.41,-4.04 2.22,-4.08 0.84,-0.49 0.71,0.22 0.08,1.2 -1.4,2.93 0.2,0.8 2.62,-0.36 2.79,1.14 1.91,-1.21 1.22,2.43 1.36,0.56 0.63,1.44 2.2,1.0700002 0.76,1.1 -0.22,2.09 -1.49,1.36 -0.48,1.71 0.18,1.34 2.53,5.92 -0.05,3.93 0.37,0.72 1.49,0.88 0.36,1.83 -13.38,13.48 -7.13,8.27 -4.16,4.03 -19.39,22.99 -3.41,2.96 z"
     name="Hasaka"
     id="hasakah" />
  <path
     d="m 544.12449,276.41134 0.67,13.74 0,9.31 0.8,9 -9.7,14.45 -10.51,25.3 -1.56,1.5 -0.48,2.35 -40.35,21.78 -40.73,22.98 0,0 -18.88,-28.06 -56.01,-80.14 1.04,-9.56 -8.22,-17.26 -6.59,-5.68 -5.07,-3.39 0,0 42.92,-62.74 -1.7,-0.38 -2.74,-1.91 -1.29,-0.14 18.34,-82.11 0,0 1.52,3.96 3.84,6.08 2.16,4.37 3.87,4.95 78.06,76.95 2.69,1.81 1.83,2.56 6.81,3.83 5.68,1.17 8.03,2.45 10.37,1.11 13.49,-0.07 12.59,1.69 0,0 -4.98,7.87 -0.76,12.21 -3.21,11.98 -1.69,9.78 -0.71,8.66 z"
     name="Deir ez-Zor"
     id="dayr-ez-zor" />
  <path
     d="m 148.52449,216.31134 -2.16,1.03 -0.82,2.85 -1.89,3.99 -1.02,1.28 -1.28,0.9 -3.21,0.97 -0.77,0.91 -0.99,3.22 -1.59,2.44 -0.03,1.98 1.04,0.7 1.4,-0.1 2.17,-2.98 1.21,0.27 0.68,1.94 0.06,5.39 -0.19,0.27 -1.73,-0.67 -0.74,0.3 -1.15,1.07 -1.07,1.88 -1.13,0.47 -5.68,0.23 -1.59,-0.77 -0.71,-5.35 1.15,-2.42 0.19,-1.54 -0.3,-1.77 -1.12,-1.58 -0.47,0.04 -1.48,2.54 -2.3,2.18 -1.21,2.91 -0.71,0.37 -2.45,0 -1.12,0.5 -0.85,-1.34 -1.75,-1.1 -0.85,-1.84 -3.76,-3.02 -8.56,1.78 -2.500003,1.27 -4.22,0.3 -3.15,-0.3 -6.53,-1.84 -3.92,-0.03 -0.96,-0.74 -1.16,-2.58 -3.01,-1.54 -2.66,1.71 -2.58,0.5 -1.1,-1.11 -1.07,-4.15 -1.67,-3.16 1.04,-1.71 -0.6,-3.42 0.19,-2.05 -0.74,-1.91 -0.03,-1.44 2.25,-11.8 -0.11,-3.32 -0.79,-0.38 -5,-0.06 -0.74,-0.44 -1.09,-3.13 -1.46,-0.33 -2.11,1.14 -1.86,0.07 -1.9,-1.01 -0.67,-1.22 0,0 2.9,-1.84 0.49,-1.79 -0.25,-0.81 -1.67,-0.57 -3.84,0.2 -6.67,1.15 -1.09,-0.64 -0.3,-0.78 0.44,-1.73 -0.55,-2.62 0,0 0.67,1.64 1.4,0.57 1.38,-2.44 0.6,-5.92 -0.81,-2.1 0.67,-2.04 2.47,-4 1.58,-1.08 1.55,-0.39 1.88,0.22 1.53,0.85 2.33,-0.32 0.35,-0.4 -1.13,-2.37 0.32,-1.4 1.91,-1.5 2.66,1.42 2.39,-0.29 1.01,-0.76 0.36,-1.07 -0.14,-1.97 1.41,-2.43 -0.63,-2.7 0.9,-1.89 -1.17,-1.9 -0.48,-2.36 1.07,-2.9 -1.51,-3.26 1.2,-2.33 1.16,-0.36 0.25,-0.99 -0.55,-2.88 0.58,-0.38 3.15,1.83 2.19,0.36 1.34,0.8 1.05,-0.45 1.35,-3.53 1.39,0.55 1.31,-0.99 1.96,0 1.46,1.22 2.62,-0.49 2.5,1.77 0.9,0.12 0.89,-0.14 1.31,-1.4 3.38,-0.01 2.55,-1.83 0.53,-1.32 -1.31,-2.01 0.75,-2.51 -0.55,-0.57 -2.34,-0.67 -0.21,-1.44 0,0 2.87,-0.57 2.770003,0.47 1.04,-0.61 1.27,-1.59 1.34,-0.14 1.01,1.19 0.53,3.12 2.66,1.96 2.16,3.35 1.24,1.05 0.41,1.7 -0.77,1.59 -6.36,6.63 -3.84,2.81 -0.8,1.52 0.47,1.15 1.78,1.59 0.17,1.89 0.54,0.57 2.77,1.86 6.04,2.3 3.23,1.99 0.72,1.93 0.35,6.21 5.76,8.39 0.36,1.72 1.65,1.72 0.44,2.63 1.59,1.28 1.64,2.73 3.87,0.97 1.92,2.5 2.69,1.38 1.04,1.21 0.22,1.31 -0.63,1.75 -3.98,3.19 1.65,5.59 1.67,2.18 0.14,3.36 1.48,0.34 0.85,0.84 1.18,2.55 2.49,1.04 1.87,2.08 z"
     name="Idlib"
     id="idlib" />
  <path
     d="m 84.794487,496.91134 -0.63,-3.98 -3.43,-3.88 -1.29,-3.27 -0.85,-0.75 -1.51,0.65 -1.78,1.99 -6.06,3.92 -1.92,1.86 -0.63,2.64 -1.01,0.62 -3.54,-0.82 -2,-1.76 -0.99,-1.7 -3.07,-0.72 -0.63,-2.32 -1.95,-1.31 -1.86,-2.45 -1.26,0.85 -0.16,1.14 0.55,2.68 -1.37,3.2 -0.58,0.49 -3.02,0.49 -3.48,1.6 -5.46,-0.46 -1.7,0.72 -2.69,2.19 -1.65,0.49 -2.63,-0.29 -1.01,-1.96 -2.52,-0.98 0,0 0.25,-4.6 -0.38,-0.94 -4.09,-0.49 -3.35,-3.36 1.04,-1.63 -0.14,-0.39 -2.2,-1.28 0,0 -0.33,-3.27 0.31,-2.13 0.84,-2.19 3,-3.95 0.35,-1.5 -0.14,-0.85 -0.51,-0.39 4.09,-3.75 1.25,-1.92 0.25,-1.43 -1.13,-3.12 1.59,-0.89 5.61,-1.21 3.01,-1.73 1.15,-1.63 -0.23,-2.44 -0.58,-0.75 -7.08,-4.15 -3.76,-0.55 -0.47,-1.12 0.19,-0.78 3.11,-3.03 0.14,-3.44 1.91,-2.37 1.8,-3.14 0.36,-1.39 0.53,-0.45 1.93,-0.25 3.35,-5.36 4.4,-1.17 3.97,-2.77 0.93,-0.15 1.12,2 2.12,0.57 3.07,-0.28 1.9,-2.19 2.8,0.69 1.1,1.05 2.05,0.05 4.33,1.73 1.54,0.06 0.67,-0.44 1.31,-2.09 -0.71,-1.54 -2.17,-1.86 -3.95,-1.33 -3.01,-2.6 -0.16,-1.15 0.71,-1.7 3.25,-4.91 1.94,-2.11 1.83,-0.73 0.3,-1.41 3.4,-2.93 0.26,-1.5 2.97,-1.38 3.59,1.16 2.18,-1.26 1.47,-1.42 0.34,-3.31 2.46,-3.27 1.16,-0.9 1.98,-0.72 0.66,-2.69 1.28,-1.18 0.58,-1.81 2.58,-1.42 0.97,-1.44 -0.49,-0.53 0,0 1.75,-1.03 3.4,-0.13 4.200003,2.08 5.4,0.17 5.79,-2.9 2.44,-0.53 9.63,11.81 5.46,9.46 2.85,3.69 13.22,7.87 1.92,0.53 4.22,-0.3 0.85,0.79 3.48,7.04 2.85,4.44 3.4,2.3 6.72,7.23 7.41,5.58 4.91,4.95 1.76,3.61 2.09,5.87 4.22,6.03 1.87,2.02 6.96,5.41 3.73,2.26 8.61,2.52 10.31,7.1 9.41,8.92 7.43,5.29 7.02,5.94 8.91,6.49 4.37,4.2 0,0 -81,51.08 0,0 -3.52,-4.21 -3.56,-2.11 -2.33,-3.02 -2.85,-2.27 -8.67,-8.44 -0.96,-1.72 -0.77,-6.76 -2.08,-2.76 -2.47,-1.04 -2.52,1.76 -1.45,-0.23 -2.28,-1.53 -2.66,-1.11 -0.47,-1.4 -2.41,-3.22 -0.16,-2.47 -2.63,-1.95 -3.07,-1.27 -5.92,-0.59 -1.65,-0.78 -1.37,-1.6 -0.63,-3.39 -4.11,-4.27 -0.82,-2.93 -1.26,-1.4 -3.15,-1.7 -3.24,-3 -1.84,-0.19 -6.28,1.83 -15.500003,1.83 -0.93,0.42 -0.3,-0.4 z m -16.69,-46.52 -9.86,-0.31 -1.32,0.84 0.09,4.31 1.67,1.79 0.97,2.31 1.41,0.74 6.95,-0.21 0.09,-9.47 z"
     name="Rif Dimashq"
     id="rif-dimashq" />
  <path
     d="m 148.52449,216.31134 -4.54,-1.89 -1.87,-2.08 -2.49,-1.04 -1.18,-2.55 -0.85,-0.84 -1.48,-0.34 -0.14,-3.36 -1.67,-2.18 -1.65,-5.59 3.98,-3.19 0.63,-1.75 -0.22,-1.31 -1.04,-1.21 -2.69,-1.38 -1.92,-2.5 -3.87,-0.97 -1.64,-2.73 -1.59,-1.28 -0.44,-2.63 -1.65,-1.72 -0.36,-1.72 -5.76,-8.39 -0.35,-6.21 -0.72,-1.93 -3.23,-1.99 -6.04,-2.3 -2.77,-1.86 -0.54,-0.57 -0.17,-1.89 -1.78,-1.59 -0.47,-1.15 0.8,-1.52 3.84,-2.81 6.36,-6.63 0.77,-1.59 -0.41,-1.7 -1.24,-1.05 -2.16,-3.35 -2.66,-1.96 -0.53,-3.12 -1.01,-1.19 -1.34,0.14 -1.27,1.59 -1.04,0.61 -2.770003,-0.47 -2.87,0.57 0,0 0.02,-1.46 -0.97,-0.96 -1.97,-0.2 -1.77,0.84 -1.35,-0.14 0.42,-1.32 1.55,-1.64 -0.74,-2.53 0.23,-1.99 -2.3,-0.14 -1,-0.67 -1.21,-3.3 -0.13,-1.68 -0.7,-0.79 -0.07,-2.77 -1.27,-2.21 0.21,-0.74 -0.41,-0.63 0.01,-0.5 2.01,-1.350004 1.77,-3.11 1.27,-5.08 -0.35,-2.63 -1.25,-3.68 0.39,-2.39 4.44,-6.75 -0.18,-2.81 -1.09,-2.34 0.87,-2.35 3.7,-4.12 0.78,-1.39 -0.06,-1.24 -0.91,-1.84 0.71,-1.15 0.96,1.33 5.310003,1.3 6.43,3.15 9.73,2.56 4.11,-0.44 4.39,2.36 3.07,3.07 3.57,1.57 0.06,1.41 -2.31,4.2 -0.52,2.19 2.02,0.91 4.2,3.62 1.24,-0.41 1.81,-3.97 2.26,-0.47 3.97,1.18 4.01,-1.2 4.03,-0.19 6.75,1.2 3.74,0.19 9.86,1.91 2.92,-1.38 3.19,-3.32 11.92,-6.75 3.89,-0.84 3.19,-1.3 6.36,0.03 2.29,-1.3 9.24,-3.25 6.77,-3.99 6.35,-1.28 2.93,-3.68 5.52,-2.77 4.58,-1.66 2.12,-1.52 3.57,0.13 2.21,-0.93 8.85,1.6 5.53,0.4 5.02,1.89 4.31,2.35 6.95,2.93 6.66,6.97 0,0 0.19,3.87 1.65,7.22 -0.41,1.98 -0.96,0.71 -5.87,0.82 -0.66,0.99 0.77,3.91 1.34,1.4 1.75,-0.34 4.42,-3.41 1.24,0.48 0.46,1.12 -0.19,10.07 -1.48,8.390004 -1.73,5.71 -2.33,3.53 -3.62,4.27 -6.14,4.41 -9.47,5.22 -9.49,1.89 -10.06,0.51 -3.03,0.6 -0.95,1.06 -4.2,2.03 -1.67,1.63 -1.97,3.18 -1.13,2.98 -2.74,4.15 -0.36,3.69 0.66,4.53 1.51,2.23 4.28,4.39 1.51,2.63 4.33,3.51 0.11,1.22 -2.28,5.76 -2.49,2.56 -4.06,5.73 -2.47,4.55 -2.66,8.21 -1.59,7.63 -0.33,5.65 7.54,9.6 13.47,13.57 0,0 -6.69,-0.02 -11.6,0.87 -7.38,-0.63 -15.17,0.03 -11.19,-1.48 -4.91,-2.14 -8.89,-6.14 -3.07,-0.13 -13.52,1.81 -5.13,-0.2 -5.7,-3.59 z"
     name="Aleppo"
     id="aleppo" />
  <path
     d="m 255.68449,236.72134 -1.61,-2.58 -4.99,-3.87 0,0 -13.47,-13.57 -7.54,-9.6 0.33,-5.65 1.59,-7.63 2.66,-8.21 2.47,-4.55 4.06,-5.73 2.49,-2.56 2.28,-5.76 -0.11,-1.22 -4.33,-3.51 -1.51,-2.63 -4.28,-4.39 -1.51,-2.23 -0.66,-4.53 0.36,-3.69 2.74,-4.15 1.13,-2.98 1.97,-3.18 1.67,-1.63 4.2,-2.03 0.95,-1.06 3.03,-0.6 10.06,-0.51 9.49,-1.89 9.47,-5.22 6.14,-4.41 3.62,-4.27 2.33,-3.53 1.73,-5.71 1.48,-8.390004 0.19,-10.07 -0.46,-1.12 -1.24,-0.48 -4.42,3.41 -1.75,0.34 -1.34,-1.4 -0.77,-3.91 0.66,-0.99 5.87,-0.82 0.96,-0.71 0.41,-1.98 -1.65,-7.22 -0.19,-3.87 0,0 9.16,8.79 5.31,1.37 13.91,0.21 10.07,-0.71 6.44,0.76 14.01,3.94 11.6,-3.01 9.31,-0.7 0,0 0.36,1.7 1.78,3.61 0.83,3.37 5.78,7.55 1.81,1.12 2.14,0.34 5.49,-1.25 4.55,2.17 7.6,2.79 1.89,1.09 2.77,2.410004 0.8,1.39 0.26,2.08 0,0 -18.34,82.11 1.29,0.14 2.74,1.91 1.7,0.38 -42.92,62.74 0,0 -11.55,-4.53 -10.42,-1.91 -12.04,-4.15 -21.2,-4.28 -15.8,-1.85 -6.64,-0.33 -8.36,0.07 z"
     name="Raqqa"
     id="raqqa" />
  <path
     d="m 16.984487,228.42134 -7.16,-5.93 -2.53,-0.77 -0.74,1.31 -0.82,-0.98 -0.77,-0.23 -0.33,-0.44 0.33,-1.1 0.11,0.1 -0.24,1.07 0.6,-0.77 0.25,-1.28 -0.39,-0.27 0.63,-1.04 -0.93,-0.36 -0.14,-0.78 -0.49,0.27 -0.05,-0.93 -0.31,0.19 -1.4,-0.87 -0.02,-0.47 -0.55,0 1.26,-1.51 -0.35,-1.04 -0.66,-0.24 -1.46000003,0.64 -0.41,-0.8 1.18000003,0.03 1.29,-0.94 0.14,0.4 0.68,0.11 0.22,-0.61 0.63,0.07 0.58,-2.05 0.55,-0.24 0.11,0.54 0.43,-0.07 -0.3,-1.11 0.5,-0.06 0.74,-1.88 -0.44,-0.44 -0.25,-1.72 -0.96,-0.63 0.06,-1.75 1.26,-1.31 1.7,-0.4 0.14,-0.81 0.65,-0.47 -0.13,-0.57 0.98,-0.51 0.28,-0.84 1.21,-0.44 0.38,-2.75 1.07,-0.61 -0.63,-5.05 -0.88,-1.14 0,-1.32 -0.9,-0.9 -0.06,-1.92 -1.32,-0.88 0.53,-1.58 -1.13,-0.37 0.03,-0.41 0.77,0.14 0.54,-0.47 0.39,0.6 0.71,-0.17 0.36,0.54 1.7,-0.1 1.87,-1.88 0.82,-0.04 0.68,-0.94 0.74,-3.57 0.47,-0.31 0.22,-1.11 0.49,-0.74 1.79,-0.91 0.08,-0.44 1.71,1.66 6.49,-2.7 0.68,0.07 1.43,1.92 -0.79,4.2 0.37,1.07 3.09,0.24 6.57,1.65 1.74,1.24 1.38,2.62 0,0 0.55,2.62 -0.44,1.73 0.3,0.78 1.09,0.64 6.67,-1.15 3.84,-0.2 1.67,0.57 0.25,0.81 -0.49,1.79 -2.9,1.84 0,0 -1.16,0.48 -0.72,0.97 0.11,3.33 -0.38,1.42 -0.8,0.9 -2.14,0.54 -0.68,1.65 2,3.39 0.77,5.45 -0.36,8.29 -2,13.11 1.12,4.65 1.24,2.51 0.08,2.92 2.41,9.07 0.3,5.61 0,0 -4.38,-2.35 -4.41,2.02 -9.73,0.29 -3.38,0.85 -0.87,-0.2 -4.76,-3.78 -1.54,-0.77 -2.51,-0.17 0,0 -0.3,-0.62 -0.57,0.04 -0.36,-1.74 0.25,-2.08 -0.31,-0.97 0.33,-0.7 -0.41,-0.27 0.33,-2.31 -0.3,-0.16 -0.22,-5.69 0.38,-0.37 -0.98,-3.75 0.4,-0.61 -1.12,-1.94 z"
     name="Latakia"
     id="latakia" />
  <path
     d="m 53.594487,191.56134 0.67,1.22 1.9,1.01 1.86,-0.07 2.11,-1.14 1.46,0.33 1.09,3.13 0.74,0.44 5,0.06 0.79,0.38 0.11,3.32 -2.25,11.8 0.03,1.44 0.74,1.91 -0.19,2.05 0.6,3.42 -1.04,1.71 1.67,3.16 1.07,4.15 1.1,1.11 2.58,-0.5 2.66,-1.71 3.01,1.54 1.16,2.58 0.96,0.74 3.92,0.03 6.53,1.84 3.15,0.3 4.22,-0.3 2.500003,-1.27 8.56,-1.78 3.76,3.02 0.85,1.84 1.75,1.1 0.85,1.34 1.12,-0.5 2.45,0 0.71,-0.37 1.21,-2.91 2.3,-2.18 1.48,-2.54 0.47,-0.04 1.12,1.58 0.3,1.77 -0.19,1.54 -1.15,2.42 0.71,5.35 1.59,0.77 5.68,-0.23 1.13,-0.47 1.07,-1.88 1.15,-1.07 0.74,-0.3 1.73,0.67 0.19,-0.27 -0.06,-5.39 -0.68,-1.94 -1.21,-0.27 -2.17,2.98 -1.4,0.1 -1.04,-0.7 0.03,-1.98 1.59,-2.44 0.99,-3.22 0.77,-0.91 3.21,-0.97 1.28,-0.9 1.02,-1.28 1.89,-3.99 0.82,-2.85 2.16,-1.03 0,0 0,0 0,0 7.31,2.34 5.7,3.59 5.13,0.2 13.52,-1.81 3.07,0.13 8.89,6.14 4.91,2.14 11.19,1.48 15.17,-0.03 7.38,0.63 11.6,-0.87 6.69,0.02 0,0 4.99,3.87 1.61,2.58 0,0 0.23,8.37 -0.47,7.69 -1.62,4.34 -3.18,4.88 -0.85,2.11 -0.44,3.07 0.55,4.97 -6.86,2.6 -7.92,3.74 -1.59,1.13 -2.39,2.57 -0.22,1.73 -2,3.6 -0.05,2.53 -0.88,2.17 -1.92,2.2 -1.1,0.53 -0.96,-0.43 -4.99,-6.76 -7.76,-6.54 -1.13,-5.67 -2.25,-3.47 -3.86,-0.66 -2.53,-2.44 -1.37,-0.57 -3.21,0.5 -10.01,3.17 -3.02,0.21 -6.14,4.06 -1.26,2.07 -0.17,5.27 0.61,2.37 -1.02,1.23 -1.34,-0.17 -1.65,-2.46 -0.71,-0.4 -5.32,0.03 -1.7,1.33 -1.04,0.3 -3.29,-1.43 -0.88,0.77 -0.19,1.86 -1.84,-0.56 -1.95,0.23 -0.66,2.1 -1.18,1.3 -0.6,2.16 -1.62,1.4 -2.74,-1.03 -1.92,-3 -2.03,-0.33 -2.74,1.1 -0.91,2.69 -2.93,-1.73 -1.4,0 -1.73,2.17 -3.26,0.46 -6.81,5.26 -1.26,-0.23 -0.41,-2.3 -1.62,-1.96 -0.55,-1.9 -1.97,-2.7 -1.21,-3.43 -1.83,-1.2 -1.46,-0.3 -1.34,0.03 -2.28,1.54 -2.58,0.17 -2,1.79 -3.67,-0.2 -1.32,0.64 -1.1,-0.47 -1.780003,1.53 -1.92,0.24 -2.47,1.03 -2.17,1.56 -3.04,0.4 -2.08,-0.9 -0.72,0.1 -2.74,1.64 -0.99,0.13 -1.31,-0.3 -0.58,-2.13 -1.84,-0.53 0.82,-1.9 -0.13,-0.9 -1.24,-0.7 -0.96,0.07 -1.18,0.76 -1.15,2.4 -2.19,1.63 -0.41,1.27 0.16,1.69 -1.04,0.9 -0.06,2.03 -1.09,0.8 -0.22,0.9 -0.61,0.5 -1.78,-1.2 -1.31,0 -0.94,-1.53 -0.68,-0.4 -1.1,0.5 -1.67,2.16 -0.85,0.07 -0.58,-2.53 -2.3,-0.7 1.45,-1.56 -0.78,-1.4 0,0 -0.87,-1.31 -2.96,-2.12 -1.79,-5.01 -5.77,0.77 -4.64,-0.72 -0.96,-0.71 -0.55,-1.56 0.11,-1.47 0.57,-0.56 2.8,0.26 1.62,-1.06 1.8,-0.3 0.48,-0.6 1.93,-0.12 2.59,-2.35 0.11,-1.87 0.96,-2.53 -0.88,-5.78 -0.55,-11.56 0,0 -0.3,-5.61 -2.41,-9.07 -0.08,-2.92 -1.24,-2.51 -1.12,-4.65 2,-13.11 0.36,-8.29 -0.77,-5.45 -2,-3.39 0.68,-1.65 2.14,-0.54 0.8,-0.9 0.38,-1.42 -0.11,-3.33 0.72,-0.97 z"
     name="Hama"
     id="hama" />
  <path
     d="m 420.97449,408.93134 -49.72,28.5 -65.95,38.71 -47.65,29.57 0,0 -4.37,-4.2 -8.92,-6.5 -7.02,-5.94 -7.43,-5.29 -9.41,-8.92 -10.31,-7.09 -8.61,-2.52 -3.74,-2.26 -6.96,-5.41 -1.87,-2.02 -4.22,-6.03 -2.09,-5.87 -1.75,-3.61 -4.91,-4.95 -7.4,-5.59 -6.72,-7.22 -3.41,-2.3 -2.85,-4.44 -3.48,-7.04 -0.85,-0.79 -4.23,0.29 -1.92,-0.52 -13.22,-7.87 -2.85,-3.69 -5.46,-9.46 -9.62,-11.82 -2.44,0.53 -5.79,2.91 -5.4,-0.17 -4.200003,-2.08 -3.4,0.13 -1.75,1.04 0,0 -2.61,-1.25 -0.75,-1.35 -0.86,-4.14 0.46,-1.15 1.43,-1.61 -0.21,-1.8 -3.46,-1.22 -2.95,-6.79 0.17,-1.2 2.31,-3.04 -0.62,-1.37 -3.56,-1.46 -0.85,-1.8 -3.75,-1.91 -1.63,-2.9 -0.32,-1.79 -3.13,0.19 -1.15,0.85 -2.83,-1.04 -1.45,1 -1.92,-0.84 -0.82,-1.32 0.47,-1.48 4.72,-2.12 1.37,-1.04 0.35,-0.91 -0.54,-2.12 1.34,-3.85 0.77,0.08 1.51,1.83 1.67,-0.16 0.75,-4.33 -1.05,-0.21 -2.14,1.17 -1.84,-0.3 -3.66,-2.35 -1.95,-1.9 0.06,-1.04 -1.81,-2.43 -1.41,-0.26 -0.95,1.12 -0.51,3.55 -2.19,2.03 -1.75,0.22 -2.61,-0.54 -1.76,0.76 -2.49,-1.47 -2.92,0.8 -4.06,-1.12 -2.37,0.54 0,0 0.32,-2.54 2.98,-5.54 3.02,-4.39 0.77,-2.49 1.32,-0.9 1.15,-2.39 2.11,-0.93 0.9,-1.83 3.38,-2.96 -0.14,-3.66 0.66,-1.8 3.36,-1.66 0,0 0.78,1.4 -1.45,1.56 2.3,0.7 0.58,2.53 0.85,-0.07 1.67,-2.16 1.1,-0.5 0.68,0.4 0.94,1.53 1.31,0 1.78,1.2 0.61,-0.5 0.22,-0.9 1.09,-0.8 0.06,-2.03 1.04,-0.9 -0.16,-1.69 0.41,-1.27 2.19,-1.63 1.15,-2.4 1.18,-0.76 0.96,-0.07 1.24,0.7 0.13,0.9 -0.82,1.9 1.84,0.53 0.58,2.13 1.31,0.3 0.99,-0.13 2.74,-1.64 0.72,-0.1 2.08,0.9 3.04,-0.4 2.17,-1.56 2.47,-1.03 1.92,-0.24 1.780003,-1.53 1.1,0.47 1.32,-0.64 3.67,0.2 2,-1.79 2.58,-0.17 2.28,-1.54 1.34,-0.03 1.46,0.3 1.83,1.2 1.21,3.43 1.97,2.7 0.55,1.9 1.62,1.96 0.41,2.3 1.26,0.23 6.81,-5.26 3.26,-0.46 1.73,-2.17 1.4,0 2.93,1.73 0.91,-2.69 2.74,-1.1 2.03,0.33 1.92,3 2.74,1.03 1.62,-1.4 0.6,-2.16 1.18,-1.3 0.66,-2.1 1.95,-0.23 1.84,0.56 0.19,-1.86 0.88,-0.77 3.29,1.43 1.04,-0.3 1.7,-1.33 5.32,-0.03 0.71,0.4 1.65,2.46 1.34,0.17 1.02,-1.23 -0.61,-2.37 0.17,-5.27 1.26,-2.07 6.14,-4.06 3.02,-0.21 10.01,-3.17 3.21,-0.5 1.37,0.57 2.53,2.44 3.86,0.66 2.25,3.47 1.13,5.67 7.76,6.54 4.99,6.76 0.96,0.43 1.1,-0.53 1.92,-2.2 0.88,-2.17 0.05,-2.53 2,-3.6 0.22,-1.73 2.39,-2.57 1.59,-1.13 7.92,-3.74 6.86,-2.6 -0.55,-4.97 0.44,-3.07 0.85,-2.11 3.18,-4.88 1.62,-4.34 0.47,-7.69 -0.23,-8.37 0,0 6.84,-0.97 8.36,-0.07 6.64,0.33 15.8,1.85 21.2,4.28 12.04,4.15 10.42,1.91 11.55,4.53 0,0 5.07,3.39 6.59,5.68 8.22,17.26 -1.04,9.56 56.01,80.14 18.88,28.06 0,0 z"
     name="Homs"
     id="homs" />
  <path
     d="m 21.784487,314.45134 -0.6,-5.92 -4.17,-9.84 -1.09,-3.63 -1.48,-0.4 -0.41,-1.17 0.52,1.07 1.15,0.2 -0.38,-0.26 -0.28,-0.1 0.3,-0.4 -0.47,-0.1 0.44,-0.26 -0.44,-0.21 1.67,-1.2 -0.14,-4.02 -0.71,-1.73 0.44,0.33 0.22,-2.83 1.54,-1.23 0.49,-1 -0.55,-3.97 -0.71,-1.43 0,-1.48 0.66,-1.79 -0.47,-3.24 0.53,-0.27 0.3,-1.17 0.96,-0.16 1.07,-3.48 0.63,-0.13 0.47,-0.73 -0.36,-2 0.77,-0.94 1.89,-1 0.24,-0.6 -0.49,-4.01 -1.51,-3.59 0,0 2.51,0.17 1.54,0.77 4.76,3.78 0.87,0.2 3.38,-0.84 9.73,-0.29 4.41,-2.03 4.38,2.36 0,0 0.56,11.56 0.88,5.77 -0.96,2.53 -0.11,1.87 -2.59,2.35 -1.93,0.11 -0.48,0.6 -1.8,0.3 -1.62,1.07 -2.8,-0.27 -0.58,0.57 -0.11,1.47 0.55,1.57 0.96,0.7 4.64,0.73 5.77,-0.77 1.8,5.01 2.96,2.12 0.87,1.32 0,0 -3.36,1.66 -0.66,1.8 0.14,3.66 -3.37,2.96 -0.91,1.83 -2.11,0.94 -1.15,2.39 -1.31,0.89 -0.77,2.5 -3.02,4.39 -2.98,5.55 -0.32,2.53 0,0 -2.75,0.77 -1.93,-0.31 -2.81,0.26 -1.64,-1.5 -2.21,-0.2 -0.51,-0.59 -1.21,1.22 -0.11,-0.39 -0.86,0.48 -3.77,-10.88 z"
     name="Tartus"
     id="tartus" />
  <path
     d="m 59.654487,459.33134 -0.97,-2.32 -1.67,-1.78 -0.09,-4.31 1.32,-0.85 9.86,0.32 -0.09,9.46 -6.95,0.21 z"
     name="Damascus"
     id="damascus" />
  <path
     d="m 15.784487,483.09134 2.2,1.28 0.13,0.39 -1.04,1.64 3.35,3.36 4.08,0.49 0.39,0.95 -0.25,4.6 0,0 -0.99,5.31 0.2,0.59 2.35,1.7 0.36,1.23 -2.8,5.54 -0.68,6.36 2.28,4.42 1.56,1.92 0.35,2.31 -0.52,0.75 -1.56,-1.89 -3.29,0.36 -0.17,0.88 0.91,1.76 0.11,2.96 -2.87,2.74 0,0 0.82,-2.55 -2.05,-3.2 -0.85,-7.8 -0.51,-1.67 0.29,-3.69 -0.5,-2.06 0.65,-0.95 1.97,0.53 1.64,-0.45 0.02,-0.79 -1.34,-1.91 1.77,-1.89 0.23,-3.07 -2.08,-3.01 -2.92,-0.79 -0.2,-1.27 1.2,-1.59 0.57,-1.89 -0.79,-3.77 -3.16,-3.58 1.14,-1.94 z"
     name="Quneitra"
     id="quneitra" />
  <path
     d="m 65.904487,589.24134 -4.24,-4.33 -12.93,-9.98 -2.69,1.17 -4.4,-0.65 -2.29,0.1 -1.96,0.6 -0.63,-3.64 -1.38,-3.11 -3.51,-3.65 0.43,-4.13 -0.29,-1.38 -1.63,-0.89 -2.58,0.06 -2,-1.13 0.94,-1.27 -0.02,-1.01 -0.8,-0.73 -1.17,-0.02 -1.1,-0.74 -0.64,-1.67 -0.82,-0.75 -1.62,0.24 -1.89,-0.32 -2.26,-1.27 -1.63,0 -2.65,0.78 -1.46,-0.66 -0.32,-0.57 -0.93,0.13 -0.31,-0.5 0.41,-1.23 3.09,-3.58 2.42,-4.34 1.6,-1.72 3.24,-6.31 0,0 2.87,-2.74 -0.11,-2.96 -0.91,-1.76 0.17,-0.88 3.29,-0.36 1.56,1.89 0.52,-0.75 -0.35,-2.31 -1.56,-1.92 -2.28,-4.42 0.68,-6.36 2.8,-5.54 -0.36,-1.23 -2.35,-1.7 -0.2,-0.59 0.99,-5.31 0,0 2.53,0.98 1.01,1.95 2.63,0.3 1.65,-0.49 2.69,-2.19 1.7,-0.72 5.46,0.46 3.48,-1.6 3.02,-0.49 0.57,-0.49 1.37,-3.2 -0.55,-2.67 0.17,-1.14 1.26,-0.85 1.87,2.44 1.94,1.31 0.63,2.32 3.07,0.72 0.99,1.69 2.01,1.76 3.53,0.82 1.02,-0.62 0.63,-2.64 1.92,-1.86 6.06,-3.92 1.78,-1.99 1.51,-0.65 0.85,0.75 1.29,3.26 3.43,3.89 0.63,3.98 0,0 0,0 0,0 -1.29,1.14 -0.9,0.19 -3.82,-0.58 -2.77,2.12 -1.15,2.38 0.47,1.69 -0.31,2.12 1.38,3.72 0.27,3.19 0.93,0.65 2.03,-0.65 1.27,0.26 0.41,3.58 1.12,2.64 -1.29,0.32 -6.06,-0.42 -3.24,0.23 -2.35,0.88 -4.06,3.45 -2.99,1.85 -0.33,1.24 0.6,1.79 -1.1,2.92 0.91,4.42 1.84,3.51 -1.1,2.41 0.49,4.28 1.13,3.44 -0.17,0.65 -0.96,0.39 -0.24,0.59 0.19,3.3 0.82,0.78 3.32,0.94 3.89,0.43 1.18,1.52 -0.41,2.24 -2.52,2.04 -2.3,0.94 -0.11,0.65 1.01,1.91 -0.85,2.85 1.04,0.55 1.76,0.16 3.34,-0.29 1.54,1.43 1.89,-0.23 1.07,0.81 0.28,0.78 -0.03,0.94 -1.21,1.49 -0.27,1.06 2.99,3.63 0.35,0.97 -1.07,5.89 0.52,4.01 -0.81,4.81 0,0 -1,-0.28 -2.28,-1.66 -6.96,-1.03 z"
     name="Daraa"
     id="daraa" />
  <path
     d="m 84.794487,496.91134 0.27,0.32 0.94,-0.42 15.490003,-1.83 6.28,-1.83 1.84,0.2 3.24,3 3.15,1.7 1.26,1.4 0.83,2.94 4.11,4.27 0.63,3.38 1.37,1.6 1.65,0.78 5.92,0.59 3.07,1.27 2.64,1.95 0.16,2.48 2.42,3.22 0.46,1.4 2.66,1.11 2.28,1.52 1.45,0.23 2.53,-1.75 2.46,1.04 2.09,2.76 0.77,6.76 0.96,1.73 8.66,8.44 2.86,2.27 2.33,3.02 3.56,2.11 3.52,4.21 0,0 -53.81,34.17 -6.6,4.96 -4.3,4.15 -2.02,0.21 -8.58,-2.52 -2.490003,0.83 -2.09,-1.62 -2.14,-0.37 -15.5,-1.67 0,0 0.81,-4.81 -0.52,-4.01 1.07,-5.89 -0.35,-0.97 -2.99,-3.63 0.27,-1.06 1.21,-1.49 0.03,-0.94 -0.28,-0.78 -1.07,-0.81 -1.89,0.23 -1.54,-1.43 -3.34,0.29 -1.76,-0.16 -1.04,-0.55 0.85,-2.85 -1.01,-1.91 0.11,-0.65 2.3,-0.94 2.52,-2.04 0.41,-2.24 -1.18,-1.52 -3.89,-0.43 -3.32,-0.94 -0.82,-0.78 -0.19,-3.3 0.24,-0.59 0.96,-0.39 0.17,-0.65 -1.13,-3.44 -0.49,-4.28 1.1,-2.41 -1.84,-3.51 -0.91,-4.42 1.1,-2.92 -0.6,-1.79 0.33,-1.24 2.99,-1.85 4.06,-3.45 2.35,-0.88 3.24,-0.23 6.06,0.42 1.29,-0.32 -1.12,-2.64 -0.41,-3.58 -1.27,-0.26 -2.03,0.65 -0.93,-0.65 -0.27,-3.19 -1.38,-3.72 0.31,-2.12 -0.47,-1.69 1.15,-2.38 2.77,-2.12 3.82,0.58 0.9,-0.19 z"
     name="As-Suwayda"
     id="as-suwayda" />
</svg>
