<svg
  xmlns="http://www.w3.org/2000/svg"
  viewBox="0 0 586 793"
	aria-label="Map of Germany"
>
  <path
		id="bw"
		name="Baden-Wurttemberg"
		d="m 181.25486,750.7102 0.58,2.09 -1.43,-0.58 -2.03,0.72 1.01,-1.05 -0.63,-1.38 2.5,0.2 z m 25.41,-179.5 5.81,0.34 2.84,-0.68 0.71,-1.25 0,0 0.58,0.03 0,0 1.59,-2.05 -0.89,-1.86 2.14,-2.11 2.52,1.09 1.51,-1.32 1.14,1.36 1.36,-0.19 0.87,-1.33 -1.25,-1.34 1.36,-1.74 -0.14,-2.09 -2.07,-1.9 -0.31,2.65 -1.53,-0.04 -0.9,-1.43 1.87,-0.99 -4.96,-0.95 1.73,-0.54 -0.48,-2.39 2.3,-0.07 1.29,-0.98 1.28,0.9 2.12,-1.95 2.08,1.99 1.39,-1.73 1.46,-0.18 0.65,2.34 2.11,-0.18 1.05,2.19 -0.33,-2.99 0.69,-0.79 0.99,0.42 4.24,-1.28 -0.25,1.79 0,0 -0.13,1.58 0,0 0.2,1.92 -1.24,0.55 0.97,0.84 -1.08,1.89 1.8,1.69 0,0 0.53,-0.18 0,0 0.92,-0.43 0.11,-2.27 2.07,-1.07 1.08,3.87 0,0 0.59,0 0,0 1.06,-2.17 2.92,-2.05 -0.29,0.96 2.43,1.82 -0.2,4.96 1.58,0.93 1.09,3.15 -1.91,1.6 0.38,1.69 -2.35,2.17 3.04,0.98 0.35,-2.16 2.17,-1.96 1.06,0.52 -1.09,1.95 1.39,-0.05 0.04,0.87 0,0 0.26,0 0,0 -0.71,5.9 0.87,0.87 5.81,-0.09 0.71,-1.8 1.97,-1.33 -1.36,-1.21 1.64,-1.67 1.68,1.17 -0.4,2.22 2.4,0.25 -1.38,1.8 1.38,2.69 -1.08,0.1 -0.68,1.46 2.52,0.98 1.79,4.09 -3.48,1.64 1.03,2.79 -1.06,-0.14 -0.24,0.98 0.45,1.25 2.05,0.6 -0.64,2.19 1.59,1.98 -1.45,1.71 -0.64,-1.27 -0.91,1.67 1.5,0.57 -0.9,0.5 1.3,3.52 -0.86,-0.02 -0.12,1.15 1.98,0.65 0.82,1.43 0.72,-0.44 1.24,2.69 1.26,-0.82 1.85,1.41 0.47,1.88 -1.94,1.04 -0.98,1.73 1.19,1.1 1.43,-0.19 -1.01,1.54 1.75,1.26 -0.74,2.19 2.75,-0.23 1.78,1.59 1.7,-0.16 0.5,2.29 1.59,0.36 0,1.2 0.89,-0.17 0.68,1.1 0.48,-0.52 -0.54,1.68 0.84,-0.2 0.79,2.09 1.35,0.82 -0.83,0.47 1.21,1.63 -2.17,1.09 1.96,1.63 -0.01,2.9 -1.64,1.49 1.36,1.22 0.03,1.87 -1.8,1.2 0.77,2.2 -1.3,0.48 0.98,1.41 -0.75,0.92 1.94,1.78 1.09,-0.68 -0.57,0.66 1.75,1.98 -0.73,0.51 1.5,1.48 -1.91,1.63 -3.44,0.88 0.99,-1.11 -0.24,-1.67 0.99,-0.28 -1.91,-0.44 -1.27,3 -1.75,1.26 -1.64,-3.45 -1.99,0.37 -2.24,-1.68 0.28,1.63 -1.07,0.55 -0.1,1.45 4.3,5.42 -1.56,0.5 -0.29,1.34 1.26,2.41 -0.75,2.06 0.59,1.91 -4.84,1.1 -0.49,0.48 0.92,0.08 -0.03,1.33 -3.67,1.55 -0.82,1.69 -2.44,0.25 -1.66,-2.13 -2.75,2.2 -1.65,-0.43 -0.59,2.06 0.88,0.8 -4.53,4.87 0.29,1.39 1.51,0.05 -0.06,1.53 4.28,6.26 -0.06,4.58 2.82,9.76 1.77,1.83 0.54,3.63 0,0 0,1.46 0,0 -0.27,0.52 0,0 0.08,0.63 0,0 -1.66,6.79 -1.75,0.73 0,1.75 1.47,1.45 -0.08,2.16 -0.87,2.45 0.62,0.47 -1.8,1.26 0.31,1.01 1.42,-0.73 -0.89,2.04 0.98,-1.02 -0.27,0.98 2.25,3.09 -1.13,-0.23 -0.37,1.11 -1.47,-0.36 -1.76,1.6 3.47,2.57 -0.11,3.86 1.5,1.68 -0.57,2.28 -1.2,1.09 -1.33,-0.68 -0.92,3.2 -0.78,-3.42 -2.13,0.08 -0.25,-1.09 -1.76,0.56 -2.23,2.73 -7.15,-2.49 -1.34,0.95 0,0 -0.05,0.42 0,0 -0.96,1.37 -1.57,0.21 0.19,1.16 -2.63,2.13 -3.03,0.98 -3.02,-0.93 -1.23,0.82 -1.72,2.03 -0.75,3.14 0,0 -8.57,-1.57 -17.77,-8.74 -6.15,-2.13 -4.49,-0.58 -7.9,3.55 -2.79,-3.15 0.04,-1.35 1.42,0.19 -0.1,-0.92 -3.39,-0.93 -0.63,-2.31 -2.45,1.83 -0.04,1.09 2.54,1.23 -1.1,1.85 -4.17,-1.79 0.59,-2.13 -1.5,-1.13 0.59,-1.55 1.21,-0.35 -1.14,-1.56 -1.86,0.82 -0.64,-2.7 -1.89,-1.45 -0.63,1.13 0.5,1.41 -1.48,1.36 -0.73,-3.78 -2.64,-0.08 -0.59,-0.79 -0.34,1.35 0.92,1.16 -1.54,-0.29 -2.03,1.32 -2.31,0.08 -2.21,2.82 0.31,1.66 -3.05,2.26 0.94,1.41 -0.97,0.94 2.51,1.85 1.43,-0.25 0.51,1.69 -0.15,-1 1.31,0.77 2.08,-0.29 -0.02,-1.47 0.9,0.28 0.25,-0.94 2.24,0.44 1.61,-0.96 1.48,2.35 -0.79,0.94 -0.43,-1.37 -0.82,0.87 0.56,2.79 -1.86,1.74 -0.93,-0.58 0.51,-1.49 -3.17,-1.53 -0.75,1.48 -3.26,1.5 0.69,1.64 1.36,-0.43 -0.13,1.06 -3.53,1.05 -2.15,-1.04 -0.94,1.05 -3.79,-0.69 -2.22,-3.43 -2.03,-0.53 -1.94,0.99 -1.36,-1.51 -2.55,2.47 -3.53,1.19 -1.27,2.29 -1.38,-0.64 -3.07,1.31 -3.86,-0.68 -1.04,1.31 -1.93,-0.6 -1.32,-3.49 -4.44,-0.06 -1.66,2.86 -6.59,2.36 -1.63,-0.37 -2.09,-2.35 3.29,-0.43 -0.9,-1.98 1.31,-1.29 -1.19,0.85 -1.68,-0.35 -1.74,1.68 -1.89,-1.15 -1.52,-4.03 -2.8,-2.8 -0.69,-3.32 2.32,-3.43 -1.16,-4.31 2.07,-5.87 -0.35,-3.58 1.6,-1.72 0.09,-3.17 2.5,-3.93 -0.91,-2.78 -2.45,-3.14 0.47,-8.22 5.72,-9.64 1.7,-7.66 3.29,-2.43 -0.78,-6.43 2.01,-5.67 0.28,-3.51 2.4,-2.35 -0.38,-6.66 2.49,-5.48 3.19,-2.03 4.76,-5.77 0.5,-3.39 2.79,-0.31 0.89,-2.46 2.35,-0.29 1.46,-1.3 3.8,-9.85 3.08,-5.1 2.23,-0.86 0,0 3.3,-2.83 0,0 0.84,-1.81 0,0 0.94,-3.87 2.98,-4.55 0.58,-6.63 2.36,-4.89 -1.26,0.07 0.34,-1.56 6.23,-5.87 -2.43,-2.9 3.03,-4.07 0.13,-2.13 -1.68,1.46 -0.7,-0.76 2.08,-1.95 0.78,-3.29 -4.12,-1.49 1.32,-2.01 -3.05,-8.11 0.45,-2.96 0,0 1.61,-0.57 1.76,0.6 5.46,6.77 2.24,-1.66 0.73,0.32 0.53,-1.27 -1.32,-6.75 6.19,-1.33 -0.3,1.47 -0.4,-1.36 -0.73,0.53 1.75,1.9 -1.08,2.12 1.58,2.64 -0.2,1.28 1.97,1.69 0,0 -0.01,-0.26 0,0 4.13,0.91 1.63,-1.25 -0.34,1.83 0.93,1.38 0.94,-0.9 3.32,-0.18 0.09,1.77 -1.49,1.74 -0.93,0.07 -0.61,-1.69 -1.71,1.5 0.77,3.37 -2.31,2.29 0.85,1.33 1.06,-1.06 1.16,1.21 2.8,-2.55 0.52,-2.21 0.69,0.62 2.36,-1.75 -1.2,-1.41 0.58,-1.44 0.87,0.19 -0.15,-2.07 2.16,-0.62 2.54,1.25 1.36,-1.07 0,0 0.26,-0.48 0,0 0.92,-1.64 2.21,0.4 0.44,1.6 1.24,-0.71 -3.41,-4.71 0.09,-1.04 0.61,1.39 1.08,0.1 0.07,-1.67 z"
  />
  <path
		id="by"
		name="Bavaria"
		d="m 266.49486,478.2802 1.96,-1.04 -0.11,-0.92 2.4,-2.78 2.19,2.1 0.52,-0.95 1.56,0.95 0.25,-0.9 1.56,-0.24 0.3,1.38 1.48,0.94 0.03,1.99 1.52,-0.2 2.95,1.94 1.79,-0.03 0.44,2.85 1.97,2.69 0.87,-0.12 -0.68,0.75 2.01,0.64 -1.16,1.68 0.68,1.49 3.64,-0.78 1.34,2.81 0,0 0.47,0 0,0 0.71,-0.18 -0.02,2 1.3,-0.45 0.18,0.96 1.12,-1.55 0.77,0.17 1.09,2.6 2.43,0.42 -0.49,2.58 0.77,1.49 -0.82,2.12 1.05,-0.02 -0.59,0.83 0.79,1.4 -0.86,0.35 0.65,1.53 1.4,0.71 1.88,-0.69 2.29,1.79 0,0 0.33,0 0,0 1.07,0.73 0.83,-0.67 0.11,-3.97 2.41,0.98 2.03,-1.02 1.36,1.39 1.53,-0.66 -0.07,-3.07 -2.17,-0.39 0,0 -0.35,0 0,0 -0.17,-1.22 -2.06,-0.16 -1.84,-2.23 -1.66,-0.52 0.81,-2.35 -0.97,-0.15 0.18,-1.84 2.45,0.63 2.01,-2.65 1.22,0.53 1.71,-1.3 1.92,0.45 0.89,-0.85 0.96,1.6 1.08,-0.65 0,0 0.48,-0.19 0,0 1.27,-0.35 3.12,4.44 0.82,-0.16 -0.26,-1.59 2.76,0.53 0.46,1.6 2.62,-0.78 0.23,-1.35 1.68,-0.13 0.17,1.75 1.27,-0.4 1.27,2.25 -1.56,3.05 0.81,1.41 2.3,0.49 -0.41,1.08 0.92,-0.32 0.31,-1.99 3.59,2.44 0.33,-2.02 0,0 0.26,0 0,0 -0.58,-0.48 1.13,-1.25 -0.51,-3.07 0.95,0.08 -0.94,-1.53 1.47,-0.87 -1.69,-3.98 0.57,-3.04 -1.19,-1.85 -0.03,-2.97 2.5,-0.63 0.25,0.95 0.71,-1.38 1.29,-0.14 -0.05,-1.77 1.63,-0.22 -0.07,-1 5.42,0.95 0.63,1.19 -0.35,0.79 -0.97,-0.24 0.02,4.95 1.93,1.26 -0.49,1.19 1.39,-1.21 1.16,0.18 -0.24,2.95 2.65,0.48 0.09,2.1 2.42,-1.05 0.72,-1.46 1.42,-0.29 1.98,1.54 5.31,-1.49 0.38,0.64 1.59,-1.3 1.56,0.32 -0.7,-0.87 1.28,0.43 0.44,-0.92 2.9,1.69 0,1.31 6.28,-3.38 0,0 1.91,1.55 -0.26,1.24 0.96,-0.44 1.19,1.14 -0.37,3.76 1.27,-0.36 3.12,2.85 0.07,-0.62 2.83,-0.16 0.58,1.54 0,0 1.56,1.15 -0.4,0.92 1.34,2.14 -2.69,1.32 -0.4,1.29 2.26,1.64 1.48,-0.28 0.61,2.47 0.93,-0.27 0.54,1.42 0.9,0.05 -0.51,0.44 1.7,2.57 -1.37,2.61 0.34,3.27 2.03,1.48 1.06,-0.3 1.72,2.08 -0.89,1.79 3.6,0.54 0.67,2.01 0.64,-0.69 1.91,2.2 2.1,0.15 0.09,1.07 1.84,0.25 0.07,1.76 1.8,-1.04 1.88,1.38 0.59,0.91 -1.81,2.3 0.45,1.25 4.43,1.51 0.19,1.97 -3.36,4.36 0.03,1.8 -1.48,0.24 -0.65,2.46 0.5,2.39 -4.51,2.53 0.11,1.8 2.44,3.83 2.9,1.61 2.18,0.07 0.4,6.7 2.07,-0.15 1.87,8 2.02,1.11 0.95,-0.57 0.49,0.87 -0.67,4.55 1.48,2.33 0.03,1.84 3.26,0.96 3.12,2.92 1.46,4.67 4.33,0.23 2.17,1.48 -0.03,-2.03 3.96,0.61 4,3.75 1.41,0.15 0.31,3.86 1.3,0.08 0.47,1.28 1.28,0.38 0.43,1.84 1.66,0.95 -0.17,1.54 3.85,2.89 0.43,3.45 3.63,2.26 3.42,-0.46 6.64,6.3 0.63,6.49 5.86,4.4 0.82,-0.12 -0.02,-2.55 1.53,-0.5 3.11,0.37 1.8,3.16 1.3,-1.12 -0.41,1.02 3.1,5.65 2.84,0.25 1.39,-0.82 1.66,4.91 1.84,0.54 1.39,3.07 -0.61,1.66 2.21,0.89 -2.89,5.43 1.11,1.33 1.62,0.29 -1.59,0.69 0.68,7.41 -1.47,1.75 0.03,2.06 -2.02,1.93 -0.71,-0.96 -0.78,1.04 0.17,2.04 -1.05,1.7 -4.19,-1.88 -0.74,-1.35 -3.04,-1.76 -2.09,0.62 -4.13,-2.85 -0.16,1.38 -1.93,1.85 -1.62,-0.77 -0.75,0.57 1.19,4.45 -2,5.28 0.81,2.51 -1.8,5.37 -4.87,4.65 -5.03,3.17 -4.67,-0.22 -10.25,3.56 -4.04,4.58 -5.57,0.74 -1.44,3.29 -3.07,2.02 -0.88,2.22 -1.76,-0.31 -0.55,1.64 0.82,3.46 5.68,5.45 1.47,4.99 2.51,0.63 0.53,1.6 1.02,-0.36 4.17,8.89 -4.82,7.3 0.95,0.76 -2.22,3.84 1.29,1.2 2.77,0.29 2.89,-1.49 4.05,3.45 -0.23,1.61 1.38,3.3 -2.3,3.11 0.56,1.35 -1.81,1.06 0.98,1.34 -1.67,2.53 1,1.24 -0.08,2.84 -2.78,2.65 -0.57,-1.43 -1.29,-0.6 -0.37,1.02 -3.76,-2.14 -1.69,-2.33 -1.85,-0.8 -0.37,-1.53 -3.22,-0.86 -1.03,-2.42 1.1,-2.26 1.7,-0.66 -4.17,-3.65 1.51,-2.1 -1.55,0.88 -1.74,-1.55 -3.25,-0.21 -2,1.18 -2.81,-0.23 -1.85,3.78 -2.47,-0.31 -2.53,1.04 -3.8,-4.74 0.06,-1.85 -4.61,1.03 -2.01,-1.2 -5.15,1.68 -0.89,-1.42 1.47,-3.67 -0.79,-0.93 -2.4,2.91 -3.26,1.12 2.35,5.85 0.18,2.99 -1.79,0.51 0.19,-1.25 -2.49,0.81 -4.86,-1.27 -2.62,0.84 -0.76,-1.44 -2.08,1.1 -3.97,-0.04 -3.68,1.12 -0.72,1.89 -3.95,-0.88 -7.61,0.68 -1.69,-0.99 -0.15,1.32 -1.93,0.17 -1.02,5 -0.99,0.98 -4.23,0.93 -4.68,-0.77 -3.14,3.85 1.5,0.43 0.89,2.18 -5.37,-0.43 -2.97,2.08 -0.09,1.84 -1.35,0.98 -2.84,0.19 1.85,-3.09 -3.03,-0.54 -4.97,2.03 -0.77,1.48 -8.86,-0.17 -0.45,-1.56 0.89,-1.44 -3.48,-3.83 0.4,-0.91 -4.22,-0.14 0.23,-1.84 2.85,-1.06 -1.9,-2.25 -6.96,2.15 -1.2,-1.89 -4.06,-0.97 -0.28,-1.37 -5.85,-0.9 -1.67,3.29 -3.1,-0.12 -4.33,-1.93 1.62,-2.79 -2.72,0.08 -0.5,0.68 1.42,2.16 -1.36,4.78 0.77,1.74 1.62,0.75 0.44,4.09 -2.5,2.07 -0.03,2.77 -2.52,0.5 -4.22,6.64 -6.19,3.25 -2.05,-0.58 -1.6,0.66 0.21,-2.45 2.24,-1.53 -0.96,-1.44 2.4,-5.12 -0.63,-0.54 -0.91,0.78 -1.91,-1.24 -1.18,2.3 -2.97,-0.59 -1.25,1.83 -1.79,-5.3 2.2,-1.57 -0.74,-2.35 -2.47,-1.18 -0.73,-2.03 -2.73,0.43 -0.87,-1.39 0.53,-0.49 -1.93,-1.75 0.34,-2.32 -0.48,1.08 -2.7,0.48 -2.53,-1.74 -0.48,1.87 -3.75,-1.87 0.76,-2.91 -1.66,-1.53 -2.51,1.09 -1.63,4.72 -8.67,-1.35 0,0 0.75,-3.14 1.72,-2.03 1.23,-0.82 3.02,0.94 3.04,-0.98 2.63,-2.13 -0.19,-1.16 1.57,-0.21 0.95,-1.37 0,0 0.05,-0.42 0,0 1.34,-0.96 7.15,2.49 2.23,-2.72 1.76,-0.56 0.25,1.1 2.12,-0.08 0.79,3.41 0.92,-3.19 1.34,0.68 1.19,-1.09 0.58,-2.28 -1.51,-1.69 0.11,-3.85 -3.47,-2.57 1.76,-1.6 1.46,0.36 0.37,-1.11 1.14,0.23 -2.25,-3.1 0.27,-0.97 -0.98,1.02 0.89,-2.04 -1.42,0.73 -0.31,-1.01 1.8,-1.26 -0.63,-0.47 0.87,-2.45 0.08,-2.16 -1.47,-1.45 0,-1.75 1.75,-0.73 1.66,-6.79 0,0 -0.08,-0.63 0,0 0.28,-0.52 0,0 0,-1.47 0,0 -0.54,-3.62 -1.77,-1.83 -2.81,-9.76 0.06,-4.58 -4.28,-6.26 0.06,-1.53 -1.52,-0.05 -0.28,-1.39 4.53,-4.87 -0.88,-0.81 0.59,-2.06 1.64,0.44 2.75,-2.21 1.66,2.13 2.44,-0.25 0.83,-1.69 3.67,-1.55 0.02,-1.33 -0.92,-0.08 0.49,-0.48 4.84,-1.1 -0.58,-1.91 0.74,-2.07 -1.26,-2.41 0.29,-1.33 1.56,-0.5 -4.3,-5.43 0.09,-1.45 1.07,-0.55 -0.28,-1.63 2.25,1.68 1.99,-0.37 1.64,3.45 1.75,-1.26 1.27,-3.01 1.91,0.45 -0.98,0.28 0.23,1.66 -0.99,1.11 3.44,-0.88 1.91,-1.62 -1.5,-1.49 0.73,-0.51 -1.75,-1.97 0.57,-0.66 -1.09,0.69 -1.94,-1.79 0.75,-0.92 -0.98,-1.41 1.3,-0.48 -0.77,-2.2 1.8,-1.2 -0.02,-1.87 -1.37,-1.22 1.65,-1.49 0.01,-2.89 -1.96,-1.64 2.18,-1.09 -1.22,-1.64 0.84,-0.47 -1.35,-0.82 -0.79,-2.09 -0.84,0.2 0.54,-1.68 -0.47,0.52 -0.69,-1.11 -0.88,0.17 0,-1.2 -1.59,-0.36 -0.5,-2.29 -1.7,0.16 -1.78,-1.59 -2.75,0.23 0.74,-2.19 -1.75,-1.26 1.02,-1.55 -1.43,0.2 -1.19,-1.1 0.98,-1.73 1.94,-1.04 -0.46,-1.87 -1.86,-1.41 -1.25,0.82 -1.24,-2.7 -0.72,0.44 -0.82,-1.43 -1.99,-0.65 0.12,-1.15 0.87,0.02 -1.3,-3.52 0.9,-0.5 -1.5,-0.57 0.91,-1.67 0.64,1.27 1.44,-1.71 -1.59,-1.98 0.64,-2.19 -2.04,-0.6 -0.46,-1.25 0.25,-0.98 1.05,0.14 -1.03,-2.79 3.48,-1.64 -1.79,-4.1 -2.52,-0.98 0.68,-1.45 1.09,-0.1 -1.38,-2.69 1.38,-1.8 -2.4,-0.26 0.4,-2.22 -1.69,-1.16 -1.63,1.66 1.36,1.21 -1.97,1.34 -0.71,1.8 -5.8,0.08 -0.88,-0.87 0.71,-5.89 0,0 -0.26,0 0,0 -0.05,-0.87 -1.39,0.05 1.09,-1.95 -1.05,-0.52 -2.17,1.96 -0.35,2.15 -3.04,-0.98 2.34,-2.16 -0.37,-1.69 1.91,-1.6 -1.09,-3.15 -1.58,-0.93 0.2,-4.96 -2.43,-1.82 0.29,-0.96 -2.92,2.05 -1.06,2.17 0,0 -0.58,0 0,0 -1.09,-3.87 -2.07,1.07 -0.11,2.27 -0.91,0.43 0,0 -0.53,0.18 0,0 -1.8,-1.69 1.08,-1.89 -0.97,-0.83 1.24,-0.55 -0.2,-1.92 0,0 0.14,-1.59 0,0 0.25,-1.79 -4.24,1.28 -0.99,-0.42 -0.7,0.79 0.33,2.99 -1.04,-2.2 -2.11,0.18 -0.65,-2.34 -1.46,0.18 -1.39,1.73 -2.08,-1.99 -2.12,1.95 -1.28,-0.9 -1.3,0.99 -2.3,0.07 0.49,2.39 -1.73,0.54 4.96,0.95 -1.87,0.99 0.9,1.43 1.53,0.04 0.31,-2.65 2.06,1.89 0.14,2.1 -1.36,1.74 1.25,1.33 -0.86,1.34 -1.37,0.18 -1.14,-1.36 -1.51,1.31 -2.52,-1.09 -2.15,2.11 0.9,1.87 -1.59,2.05 0,0 -0.58,-0.03 0,0 -0.71,1.25 -2.84,0.68 -5.81,-0.34 0,0 -1.24,-2.27 -1.05,-0.18 -0.01,-1.68 2.24,-2.14 -0.77,-5.11 2.44,-0.74 -0.37,-1.29 1.61,-2.65 -2.58,-1.76 1.73,-2.3 -0.44,-1.36 -2.38,0.46 -0.82,-2.57 0.54,-2.87 -1.34,1.46 -0.75,-0.74 0.53,-0.68 -1.61,0.21 -0.2,-2.22 1.1,-0.06 -1.75,-4.27 -0.3,-6.66 0.48,-1.4 1.51,-0.14 -0.96,-1.08 -0.35,-3.55 -3.33,-0.76 1.4,-2.08 -0.05,-2.24 1.36,-1.94 6.39,-1.5 2.23,0.94 -0.17,2.51 2.51,-3.48 -0.33,-1.11 2.25,-1.1 2.12,1.05 3.54,0.52 1.18,-0.73 0.8,0.89 1.84,0.02 2.04,4.06 2.02,0.59 4.99,-1.01 -0.29,-5.03 0.82,-0.42 0,0 0.49,-1.62 0,0 -0.09,-0.13 0,0 -1.83,-0.92 0,0 0.13,-1.62 0.97,-0.61 -1.3,-2.71 0.33,-1.51 2.66,1.68 2.18,-0.78 0.42,1.08 5.2,-1.17 0.07,-0.75 -1.78,-0.95 1.06,-2.05 3.02,-0.98 2.87,-2.87 0.02,-3.15 -0.87,-1.43 1.83,-6.93 1.22,0.64 1.35,-0.64 0.41,1.19 3.18,1.63 0.79,-1.32 0.71,1.02 1.26,-0.39 3.65,-2.03 2.54,-3.77 1.26,-0.49 z"
  />
  <path
		id="be"
		name="Berlin"
		d="m 485.39486,257.9802 0.07,0.04 0,0 0.71,-0.34 -0.07,1.39 2.28,1.41 -1.62,3.88 0.69,1.62 2.67,0.48 2.06,1.77 0.11,2.3 3.23,0.76 -0.5,1.12 1.82,0.12 -2.93,6.07 0.78,0.58 1.57,-1.33 3.72,2.51 -0.35,-1.35 3.7,2.57 -1.24,1.14 0,0 -0.93,-0.22 0,0 1.13,0.54 0,0 0.03,0.24 0,0 -0.31,0.04 0,0 -0.36,0.64 0,0 0.44,1.14 0,0 -0.63,1.04 0,0 -2.73,1.4 0.85,1.18 -1.71,0.9 -1.59,2.86 -0.71,-0.74 0.46,-3.25 -0.94,-0.59 -1.43,0.8 -0.97,-1.91 -3.48,0.41 -0.07,-1.11 -3.57,0.43 -0.85,-2.5 -2.96,1.03 -0.02,3.55 -1.98,-0.19 -0.15,-1.09 -1.02,-0.03 -1.72,-2.29 -1.47,0.76 0,0 -0.99,-0.32 0,0 -0.47,-1.07 -1.47,1.24 -1.6,-0.02 -0.21,-1.62 -1.29,-0.13 -3.7,1.57 -0.57,1.01 0.81,0.13 -2.44,0.49 0,0 -0.34,0.02 0,0 0.63,-0.82 -2.19,-1.25 0,0 -0.31,-0.17 0,0 -0.46,-0.01 0,0 0.4,-1.09 0,0 1.69,-1.64 -0.83,-1.18 0.53,-3.02 3.13,-3.25 -1.53,-1.08 -1.65,0.29 0.63,-3.45 1.19,-0.28 0.5,-2.31 -1.58,-1.22 2.24,-1.29 3.36,1.15 -0.96,-1.99 1.22,-2.22 2.74,0.06 -0.17,-1.35 1.38,-0.19 0.02,-1.98 1.7,0.36 -0.02,2.99 3.2,0.55 2.21,-2.56 1.84,1.26 1.35,-1.5 1.67,-0.09 -1.29,-1.22 0.56,-0.7 0,0 0.91,-0.53 0,0 0.38,0.11 0,0 z"
  />
  <path
		id="bb"
		name="Brandenburg"
		d="m 344.56486,210.1302 8.02,1.19 0.28,-3 1.52,-0.16 1.24,0.64 1.43,-0.56 0.54,1.43 2.03,0.66 1.84,-0.5 1.54,-1.35 -0.38,-1.38 1.06,-1.54 -1.01,-4.7 2.29,-0.47 2.52,-2.77 2.59,-0.51 3.87,1.31 0.19,1.53 2.86,-1.02 2.68,0.27 0.79,-1.22 -2.17,-1.8 4.06,0.48 2.05,-3 3.61,0.69 1.58,-2.94 1.32,0.65 1.81,-0.95 -0.36,-3.58 2.73,-1.78 -0.84,-2.29 2.17,0.46 0.15,2.22 1.88,0.28 2.53,-1.79 1.15,2.31 1.05,-0.37 0.12,-1.08 2.71,-0.6 1.78,3.73 3.31,-0.45 5.24,2.97 0.04,1.7 2.2,1.03 1.09,2.71 5.11,-1.54 5.11,2.15 3.58,-1.05 0.94,0.51 -0.66,1.65 1.15,0.74 4.58,0.3 -1.14,2.51 1.99,1.32 4.93,-1.49 1.96,2.28 1.63,-1.51 1.63,-0.16 -0.55,0.8 1.23,0.15 -0.16,-0.83 1.8,-0.64 1.01,0.92 -2.37,1.83 1.03,-0.38 1.04,1.74 1.89,-0.49 2.16,-3.04 2.44,-0.52 0.56,-1.41 1.23,-0.18 -0.07,-2.15 1.6,0.02 1.3,-1.55 2.14,0.07 1.27,2.89 1.75,0.67 0.93,-4.25 3.49,-2.57 2.45,0.8 1.42,-0.48 1.63,3.74 1.24,-0.65 0,0 -0.11,-0.18 0,0 2.19,-3.73 -0.12,-1.43 1.13,-0.04 0.5,1.02 1.4,-0.36 1.14,-3.54 1.25,0.64 -0.4,-3.54 0.52,-1.44 1.18,0.15 0.91,-1.36 -0.39,-2.23 2.29,-1.59 2.52,0.35 0.45,-3.36 5.14,-4.25 1.63,-0.46 2.3,1.28 2.36,-1.25 0.64,-1.28 -3.07,-1.84 1.17,-4.79 1.9,4.37 3.47,1.43 -0.13,3.27 2.52,2.18 -0.91,2.41 1.01,0.99 5.37,-1.36 2.89,0.52 0.36,1.76 2.22,0.28 2.26,-3.23 3.74,2 1.8,-0.16 0.92,-1.16 1.08,0.68 0.31,4.28 -1.19,3.11 -6.11,6.53 -2.05,3.83 3.91,-0.5 3.35,1.33 3.17,-0.55 0.1,-1.8 2.46,-1 1.01,-2.67 1.94,0.13 4.07,-2.2 0,0 0.58,5.58 1.18,0.27 0.48,1.38 -2.75,5.59 -1.75,1.15 -0.57,4.06 1.24,2.14 -1.48,6.62 -1.24,2.77 -5.41,5.11 -7.33,4.51 1.04,8.08 -2.41,4.88 1.22,1.45 4.86,0.83 3.85,4.39 4.64,2.53 7.18,9.35 8.47,5.52 2.61,3.83 -2.18,4.03 1.88,4.48 -3.42,5.09 -1.96,0.89 -0.95,3.99 1.73,6.89 1.4,2.09 -0.53,1.9 1.11,1.71 6.09,1.82 1.64,2.08 -0.48,2.85 -1.33,1.28 1.22,2.65 -1.58,2.86 0.13,2.82 4.91,5.25 -0.87,1.17 0.17,2.31 -2.13,3.03 0.46,1.02 -1.04,1.72 0.98,3.47 -1.64,4.24 -5.39,4.76 -1.24,2.91 1.03,2.3 2.5,0.96 1.45,7.16 4.39,3.86 1.25,2.88 0.48,5.41 -2.21,2.57 0,0 -2.12,-1.61 0.43,1.98 -1.54,2.58 -4.09,0.3 -1.21,-2.21 -1.82,-0.88 -1.48,0.78 -0.41,1.38 -5.33,0.18 -0.44,1.47 -3.76,0.11 -2.94,2.38 -0.57,1.55 -0.55,-0.83 0,0 -0.04,-0.48 0,0 -3.44,-1.65 -1.54,0.47 -2.05,-1.2 -4.85,-0.4 -0.52,1.14 0.7,0.9 -2.22,0.25 -0.69,2.35 -1.29,0.54 0.87,1.59 -3.47,0.11 1.82,3.13 -1.59,1 0.53,1.7 -1.87,1.39 0.71,0.87 -1.48,0.15 -0.36,2.2 -1.78,-0.34 0.05,-1.73 -0.8,-0.32 -3.37,1.7 -4.55,-0.48 -0.97,1.54 -2.31,-0.1 -0.63,0.8 -0.43,-0.8 -1.64,0.87 -4.73,-1.5 -0.56,0.73 -3.96,0.06 -0.52,-1.51 -1.21,-0.14 -1.61,1.59 -0.4,-1.24 -0.89,-0.05 -0.22,-2.02 -3.63,-1.03 0.66,-0.68 -1.73,-1.41 -1.62,1.07 0.44,-1.22 -1.79,-1.95 -1.5,1.75 0.16,1.11 -3.49,-1.17 0.34,1.1 -2.7,1.5 -0.04,1.3 -1.59,-0.18 0.4,1.58 -3.34,-1.15 -1.36,-4.09 -0.3,1.27 -0.85,-0.43 1.77,-2.31 -1.32,-2.47 0.15,-1.71 1.07,-0.08 0.38,-3.23 -1.41,-3.39 -2.65,-1.2 1.12,-2.54 -2.49,-2.74 -2.24,1.17 -2.16,-3.82 0,0 6.09,-3.94 0.8,-0.82 -0.51,-1.88 2.1,-0.58 -2.1,-2.93 0.75,-0.63 -1.07,-1.75 0.96,-3.87 -2.61,-5.15 1.94,-0.46 -0.86,-1.95 -1.2,-0.22 -2.46,1.42 -2.54,-0.32 -0.84,-0.94 0.7,0.01 0.4,-2.04 -4.62,0.05 0.12,-2.2 -1.21,-0.21 0.13,-1.29 -2.46,-0.42 -1.94,1.23 -0.18,-0.7 -2.17,-0.1 -0.47,-3.38 -4.14,0.53 -1.55,-2.47 -5.37,-2.61 -0.97,-0.07 -0.73,1.89 -1.92,0.27 -0.13,1 -4.62,-0.36 -0.25,-1.75 -2.89,-1.15 -0.71,-2.03 -1.15,-0.11 -0.71,1.79 -0.98,0.08 -2.93,-2.76 -1.92,-0.47 -2.92,-4.6 -2.4,-1.25 -0.87,-2.9 -2.76,-3.8 0.55,-1.6 1.25,0.02 0.05,-2.83 3.19,-1.71 -2.39,-0.7 0.78,-0.53 -1.7,-1.26 1.98,-6.68 1.96,-3.12 -1.58,-2.01 1.4,-1.28 -0.76,-0.85 0.48,-2.15 -1.7,-0.83 1.45,-0.94 -0.5,-0.71 2.71,-4.94 -1.42,-1.11 1.38,-0.89 -3.8,1.06 -0.71,-0.94 0.66,-0.53 -1.75,-2.21 -1.55,2.14 -2.09,0.52 -1.17,-1.88 1.46,-1.96 -1.19,-0.71 -1.75,0.95 2.29,-4.65 -0.65,-5.32 2.08,0.67 1.73,-1.09 0,0 0.12,-1 0,0 0.39,-4.46 -1.1,-0.84 0.33,-1.55 -1.14,-0.79 0.21,-0.91 -0.76,0.2 1.48,-2.74 -0.83,-1.52 0.73,-3.06 1.87,-0.18 0.51,-1.6 -1.54,-5.94 -2.1,-0.68 -0.41,-1.06 -4.4,2.67 -0.12,-4.27 -0.76,1.83 -5.69,-1.43 -2.75,1.53 -5.71,-2 -1.42,-1.55 -2.24,-0.03 -0.77,-1.24 1.68,-2.06 -0.27,-1.22 -3.7,-0.87 -2.8,-3.01 -3.03,1.23 -1.1,-3.25 -3.23,-0.37 0.88,-2.82 -2.52,0.24 0,0 -3.3,-1.86 -2.46,0.51 -3.54,-3.19 -7.29,2.44 -4.19,-4.53 -0.45,-2.44 z m 139.77,47.73 0,0 -0.56,0.7 1.29,1.22 -1.67,0.09 -1.35,1.5 -1.84,-1.26 -2.21,2.56 -3.2,-0.54 0.02,-3 -1.7,-0.36 -0.02,1.98 -1.38,0.19 0.17,1.35 -2.74,-0.06 -1.22,2.22 0.96,1.99 -3.36,-1.15 -2.24,1.3 1.58,1.21 -0.5,2.31 -1.2,0.28 -0.63,3.45 1.66,-0.29 1.52,1.08 -3.13,3.26 -0.53,3.02 0.83,1.18 -1.68,1.64 0,0 -0.4,1.09 0,0 0.46,0.01 0,0 0.31,0.17 0,0 2.19,1.25 -0.63,0.82 0,0 0.34,-0.02 0,0 2.44,-0.49 -0.81,-0.14 0.57,-1.01 3.7,-1.56 1.29,0.13 0.21,1.63 1.59,0.02 1.47,-1.24 0.47,1.06 0,0 0.99,0.32 0,0 1.47,-0.76 1.72,2.29 1.01,0.03 0.15,1.08 1.98,0.2 0.02,-3.55 2.96,-1.03 0.85,2.5 3.57,-0.43 0.06,1.1 3.48,-0.41 0.98,1.91 1.43,-0.8 0.93,0.59 -0.46,3.25 0.71,0.74 1.59,-2.85 1.7,-0.91 -0.85,-1.18 2.73,-1.4 0,0 0.63,-1.04 0,0 -0.43,-1.15 0,0 0.36,-0.64 0,0 0.31,-0.04 0,0 -0.03,-0.24 0,0 -1.13,-0.54 0,0 0.93,0.22 0,0 1.24,-1.14 -3.7,-2.57 0.35,1.35 -3.72,-2.5 -1.57,1.33 -0.78,-0.57 2.93,-6.08 -1.82,-0.12 0.5,-1.12 -3.23,-0.76 -0.11,-2.3 -2.06,-1.77 -2.68,-0.48 -0.69,-1.62 1.62,-3.88 -2.28,-1.4 0.06,-1.39 -0.71,0.34 0,0 0.17,-0.58 0,0 -0.38,-0.1 0,0 -0.52,0.71 -0.35,-0.2 z"
  />
  <path
		id="hb"
		name="Bremen"
		d="m 167.59486,199.0602 0.72,-0.1 0,0 3.31,2.04 1.56,-0.88 1.31,0.53 -1.23,2.18 1.98,0.04 0.81,2.01 3.45,-0.34 1.42,-1.06 0.37,0.88 1.46,-0.35 0.92,1.74 5.53,-0.04 0.65,0.73 0,0 0.19,0.93 0,0 1.21,1.48 0,0 0.11,0.33 0,0 3.2,-0.11 1.97,-2.09 2.46,2.73 -2.24,1.09 0.96,1.75 1.69,0.26 -1.74,1.33 0.17,2.64 1.02,1.44 -2.79,2.33 -0.15,1.09 -2.59,-0.01 -1.8,-2.77 -0.06,1.96 -2.75,0.15 -2.84,-2.02 -0.35,-1.48 -1.05,1.57 -2.38,-0.1 -0.82,-1.61 0.33,-2.26 -2.84,-1.56 0.23,-1.3 -2.5,-3.77 -0.71,-3.03 -6.92,-3.24 0,0 -0.27,-0.34 0,0 -1.55,-2.53 0.5,-0.37 0,0 0.05,0.13 z m 1.94,-40.43 4.6,1.36 1.45,-1.24 1.91,0.3 -0.17,-0.86 1.1,0 -2.71,3.76 0.69,1.9 1.07,0.2 -0.41,2.86 0.75,1.49 -1.14,2.03 -1.64,1.24 -1.31,-0.93 -0.78,0.69 -1.7,-3.64 0.53,-0.35 0,0 0.86,0.12 0.08,-2.43 0.48,0.47 -1.19,-1.26 0.1,-2.65 -0.68,-0.09 -0.19,1.38 -1.7,-4.35 z"
  />
  <path
		id="hh"
		name="Hamburg"
		d="m 246.59486,163.8402 2.61,-8.03 0.09,1.58 1.55,0.5 0.19,1.96 2.32,0.81 3.46,-3.9 1.02,-3.15 4.61,0.65 1.28,-3.73 4.24,0.34 0.81,-2.83 -0.65,-0.68 0.84,-1.04 2.58,0.75 3.03,-2.71 1.62,0.83 -0.09,0.75 -0.65,1.56 -1.6,0.55 0.16,1.46 -1.04,1.35 2.63,1.53 0.9,1.67 -0.5,1.01 1.93,0.51 -1.96,2.3 0.5,2.85 -3.06,1.35 0.71,5.43 1.63,1.12 1.51,-0.93 1.9,4.11 3.29,3.24 2.15,0.34 -1.13,1.65 0,0 -2.85,1.43 -1.58,2.55 -4.1,0 -7.81,-7.18 -0.28,1.76 -1.76,0.04 0.66,1.26 -2.9,1.99 -2.75,-1.25 -1.68,1.5 -0.56,-0.22 0.9,-2.09 -1.1,-2.2 -2.7,1.86 0.03,0.94 -3.48,-3.55 -0.2,-3.11 -1.35,0.18 0.16,-0.96 -1.43,-1.01 0.97,-1.2 -0.82,-2.21 0.58,-1.37 z"
  />
  <path
		id="he"
		name="Hesse"
		d="m 228.83486,363.9102 2.86,-1.05 -0.28,2.15 1.15,0.95 2.21,-1.37 1.62,1.6 3.58,-1.2 0.74,2.79 3.32,3.24 -0.72,0.96 -3.11,-1.69 -0.23,1.45 1.3,1.88 -1.5,0.31 -1.12,-1.29 0.99,2.85 -2.25,1.68 3.64,4.73 -0.99,2.44 1.07,2.88 -0.98,1.33 -3.22,0.4 -1.21,2.23 1.13,0.85 -0.53,0.91 -2.36,-0.51 1.91,2.26 2.74,2.05 1.76,-0.08 -0.1,1.42 2.52,-0.68 4.08,2.34 2.18,-1.15 0.28,-3.07 -2.13,1.75 -2.36,-4.51 2.58,-0.7 1.82,-1.76 1.76,0.26 -0.19,-2.29 1.46,-0.38 1.3,0.95 0.07,1.92 1.6,1.23 -0.92,-4.38 1.77,0.93 0.24,-0.96 1.24,-0.28 1.83,2.51 -0.16,1.79 0,0 -0.2,2.13 1.49,3.53 -0.58,1.27 1.9,0.69 0.21,1.61 5.3,0.6 -0.53,2.54 1.95,1.07 -0.58,1.67 2.82,1.13 1.66,-0.55 0.61,1.36 1.09,-0.46 1.92,1.99 2.63,0.68 -2.23,3.5 0.61,2.59 -0.81,1.3 -2.1,-4.07 -2.95,1.4 3.51,2.32 -1.87,3.21 0.58,1.58 -0.84,0.95 4.11,2.46 0.61,0.93 -1.39,0.75 0.72,1.09 -3.68,1.52 -1.74,-1.78 -1.07,0.65 -4.04,-0.92 -1.26,3.19 1.36,1.41 0.14,1.85 1.29,0.45 -2.17,0.73 -0.31,-0.6 -0.78,0.9 -3.94,-0.78 0.23,1.89 0.68,-0.93 1.48,0.1 -1.03,2.39 2.57,-1.39 2.46,2.16 -0.2,1.1 0.75,-0.08 0.08,0.78 -2.41,1.69 -0.07,1.75 1.06,-0.44 -0.7,1.84 -1.34,-0.26 -0.57,1.14 -1.01,-0.46 0,0 -0.41,-0.15 0,0 -1.42,1.08 -0.58,2.17 0.62,2.6 -1.76,-0.04 -0.26,1.52 1.07,0.34 0.1,1.67 -2.02,3.36 0.92,1.15 -2.79,2.39 -0.17,2.99 5.32,1.09 0.5,-1.19 -1.2,-1.54 0.3,-1.06 2.99,-0.91 3.41,0.53 1.82,4.86 -2.12,-0.09 -0.77,1.28 1.54,5.49 -1.44,2.66 0.2,1.31 0,0 -1.5,4.94 -1.26,0.49 -2.54,3.77 -3.65,2.03 -1.26,0.39 -0.71,-1.02 -0.79,1.32 -3.18,-1.63 -0.41,-1.19 -1.35,0.64 -1.22,-0.64 -1.83,6.93 0.87,1.43 -0.02,3.15 -2.87,2.87 -3.02,0.98 -1.06,2.05 1.78,0.95 -0.07,0.75 -5.2,1.17 -0.42,-1.08 -2.18,0.78 -2.66,-1.68 -0.33,1.51 1.3,2.71 -0.97,0.61 -0.13,1.62 0,0 1.83,0.92 0,0 0.09,0.13 0,0 -0.49,1.62 0,0 -0.82,0.42 0.29,5.03 -4.99,1.01 -2.02,-0.59 -2.04,-4.06 -1.84,-0.02 -0.8,-0.89 -1.18,0.73 -3.54,-0.52 -2.12,-1.05 -2.25,1.1 0.33,1.11 -2.51,3.48 0.17,-2.51 -2.23,-0.94 -6.39,1.5 -1.36,1.94 0.05,2.24 -1.4,2.08 3.33,0.76 0.35,3.55 0.96,1.08 -1.51,0.14 -0.48,1.4 0.3,6.66 1.75,4.27 -1.1,0.06 0.2,2.22 1.61,-0.21 -0.53,0.68 0.75,0.74 1.34,-1.46 -0.54,2.87 0.82,2.57 2.38,-0.46 0.44,1.36 -1.73,2.3 2.58,1.76 -1.61,2.65 0.37,1.29 -2.44,0.74 0.77,5.11 -2.24,2.14 0.01,1.68 1.05,0.18 1.24,2.27 0,0 -0.18,1.68 -1.08,-0.09 -0.61,-1.4 -0.09,1.04 3.41,4.71 -1.24,0.72 -0.44,-1.6 -2.21,-0.4 -0.92,1.65 0,0 -0.26,0.48 0,0 -1.36,1.06 -2.54,-1.25 -2.16,0.62 0.15,2.06 -0.86,-0.18 -0.58,1.43 1.19,1.41 -2.35,1.75 -0.69,-0.61 -0.53,2.2 -2.8,2.55 -1.16,-1.21 -1.07,1.07 -0.85,-1.33 2.31,-2.29 -0.77,-3.37 1.72,-1.5 0.61,1.7 0.93,-0.07 1.49,-1.74 -0.09,-1.78 -3.32,0.18 -0.94,0.9 -0.93,-1.38 0.34,-1.83 -1.62,1.25 -4.13,-0.91 0,0 0,0.27 0,0 -1.97,-1.7 0.21,-1.28 -1.58,-2.64 1.07,-2.11 -1.74,-1.91 0.73,-0.53 0.4,1.37 0.3,-1.47 -6.19,1.33 1.32,6.75 -0.53,1.28 -0.73,-0.33 -2.24,1.66 -5.46,-6.77 -1.76,-0.6 -1.61,0.57 0,0 -2.45,-4.19 -1.58,-6.45 5.02,-2.94 2.63,-3.95 -0.48,-0.68 -3.06,0.05 -2.79,-5.35 0.33,-3.25 -2.54,-2.13 0.65,-3.96 -2.1,-5.8 -4.95,-5.02 -3.86,-0.78 -9.16,3.11 -4.53,2.55 -5.33,0.6 -1.16,-0.84 -0.9,-3.22 -5.07,-4.42 1.88,-2.57 2.23,-0.03 -0.45,-1.44 1.33,-2.84 2.03,1.25 1.14,-0.7 1.8,1.86 -0.56,-3.12 0.72,-0.99 -3.07,-2.41 -0.08,-1.32 1.72,-1.2 0.01,-0.95 2.3,-0.63 0.26,-0.96 2.27,-0.83 0.14,-1 1.54,1.98 1.31,0.19 1.28,-2.11 0,0 -0.26,-0.35 0,0 -1.7,-1.67 0.92,-1.34 2.36,-0.14 0.43,1.08 1.68,0.11 0.81,-3.84 -1.05,-1.05 -0.05,-1.68 -1.9,-0.55 0.29,-1.55 -1.07,-2.65 -0.88,-0.08 -0.18,-1.04 -1.75,0.1 0.4,-1.58 -2.32,0.09 -1.4,-1.15 1.38,-1.18 0.18,-1.16 -0.83,-0.36 2.25,-1.54 -2.07,-3.41 1.08,-3.75 3.08,-3.27 1.75,1.85 2.05,0.55 2.06,-1.74 1.03,-4.83 -1.63,-1.05 0.88,-2.26 -1.93,-2.74 0.94,-2.59 0,0 2.73,-4.88 -2.39,-4.53 0.25,-1.03 0,0 0.4,-0.13 0,0 8.07,-9.05 1.57,-0.11 0.95,2.09 3.35,0 4.68,-5.71 1.77,-0.12 -0.64,-2.24 0.53,-2.5 1.26,-0.33 -0.21,-0.73 3.98,-4.35 -1.16,-2.46 -0.89,0.31 1.39,-2.31 -1.56,-1.67 1.62,-1.73 1.92,-0.6 6.3,0.85 1.75,-1.34 2.3,-0.2 -1.23,-1.36 0,0 -0.24,0 0,0 -0.07,-1.42 3.96,-4.03 -0.69,-2.2 1.27,-1.03 -1.67,-1.01 -0.87,-3.28 0.56,-1.14 -0.92,-1.15 -1.91,-0.24 -6.14,2.94 -2.45,-3.07 4.01,-5.97 1.07,-0.78 1.11,0.44 0.29,-1.58 1.44,-0.47 -0.3,-1.15 1.11,-0.59 2.37,0.43 4.56,-1.87 2.18,0.21 1.14,1.13 2.32,-1.55 2.99,0.36 0.58,-3.9 -1.76,-0.32 -0.02,-1.82 -1.79,-3.4 8.12,-3.7 1.32,1.57 2.4,-0.07 0.92,0.82 -0.82,3.03 1.1,2.13 2.6,-0.58 1.46,0.72 1.54,-2.29 2.08,0.67 0.52,-3.14 2.51,-0.89 1.18,-1.57 1.61,0.04 0.51,-3.96 3.59,-3.95 -2.21,-2.4 5.42,-1.56 z"
  />
  <path
		id="ni"
		name="Lower Saxony"
		d="m 60.664857,159.3402 -3.66,0.35 -2.38,1.24 2.63,1.78 -0.89,1.26 -0.89,-1.41 -1.45,1.06 -3.4,-2.79 0.29,-1.76 5.76,-2.03 3.99,2.3 z m 6.04,-5.43 -1.13,0.58 1.44,0.09 -1.32,0.65 0.52,0.93 -1.64,-0.05 -0.5,-1.75 2.63,-0.45 z m -5.37,0.09 1.53,0.77 -1.43,0.39 -0.23,-2.51 0.13,1.35 z m 16.28,-4.09 1.08,1 -14.74,1.11 13.66,-2.11 z m 16.32,-4.16 0.76,0.94 -3.08,0.94 -0.52,-0.57 0.31,0.65 -1.64,0.38 -3.94,-0.21 -0.85,0.83 -1.68,-0.93 -0.92,1.12 -0.98,-1.11 3.19,-1.72 9.35,-0.32 z m 53.270003,-0.63 1.43,0.72 -2.09,0.23 -0.42,1.22 -2.18,-0.08 1.22,-1.81 2.04,-0.28 z m -49.070003,-0.41 2.050003,0.38 0.3,1.53 -4.990003,-0.89 2.64,-1.02 z m 11.290003,-2.53 3.08,0.47 0.26,1 -7.5,0.33 -0.41,2 -0.23,-0.7 -0.11,0.83 -2.31,-0.12 0.91,-3.27 6.31,-0.54 z m 27.64,-0.26 0.66,1.77 -1.08,-0.7 0.42,-1.07 z m 0.24,-1.08 -0.59,0.8 -0.56,-0.45 0.68,-1.35 0.47,1 z m -18.65,-1.12 6,1.1 -3.83,1.26 -3.86,-0.54 -0.82,1.42 -0.92,-0.28 0.96,-2.4 2.47,-0.56 z m 11.02,-1.43 4.77,2.17 -6.01,-1.41 -0.68,1.57 -1.22,-1.39 3.14,-0.94 z m 30.52,-3.56 -1.97,0.27 1.5,-1.69 0.9,0.14 -0.43,1.28 z m 20.04,-6.94 -0.09,1.17 1.54,0.91 -0.41,1.06 1.15,0.99 -0.52,-1.74 3.56,3.6 7.84,1.37 8.04,-1.86 -1.01,-3.55 0,0 13.06,-0.56 6.67,2.83 3.21,4.36 3.92,8 5.09,4.77 2.84,8.25 7.85,5.57 3.63,0.89 0,0 2.83,0.35 -0.58,1.37 0.82,2.21 -0.97,1.2 1.42,1.02 -0.16,0.95 1.35,-0.17 0.2,3.11 3.48,3.54 -0.03,-0.94 2.7,-1.86 1.1,2.2 -0.9,2.09 0.55,0.21 1.69,-1.49 2.75,1.25 2.89,-2 -0.66,-1.26 1.77,-0.03 0.27,-1.76 7.81,7.18 4.1,0 1.58,-2.55 2.85,-1.43 0,0 1.44,0.92 3,0.1 7.8,5.34 5.07,1.49 0.98,-0.46 0,0 6.65,-0.68 2.56,2.91 1.48,0.43 -0.2,1.16 4.81,2.53 5.27,-4.67 2.03,1.49 2.38,0.1 1.43,5.62 1.13,0.14 3.93,6.97 6.83,3.55 -1.43,2.42 0.61,2.22 2.65,-0.77 2.66,2.3 0,0 0.36,2.48 4.19,4.53 7.29,-2.44 3.54,3.19 2.46,-0.51 3.3,1.86 0,0 -2.49,2.52 -0.21,1.37 -2.98,-0.7 -1.06,4.75 0.62,2.13 -2.91,0.7 -3.31,3.1 -5.83,2.8 -1.15,0.36 -0.25,-1.54 -3.3,1 -1.15,-1.85 -4.14,-0.76 -3.65,0.72 0.03,-1.55 -5.99,0.14 -0.87,0.4 -0.27,2.44 -3.01,3.33 -2.73,-0.31 -1,1.05 -0.85,-1.07 -6.44,1.44 -0.7,6.19 2.34,3.79 0.34,3.55 1.93,-0.26 0.83,2.32 0,0 0,0.25 0,0 4.96,8.63 3.61,-1.46 -0.3,2.08 -2.03,1.51 -0.13,2.29 4.52,7.55 0,0 -0.61,-0.07 0,0 -1.44,-0.52 -1.98,0.77 -0.71,3.44 5.19,6.3 -0.03,1.2 0.71,-0.18 0,0 0.57,0.5 0,0 2.53,1.13 -0.41,1.98 -2.06,1.21 -3.37,0.28 3.35,3.93 0,0 0.01,0.28 0,0 -1.55,1.32 1.03,1.82 1.55,0.41 0.4,2.63 0,0 0.57,0 0,0 1.13,1.31 -0.64,0.93 -2.94,0.85 -1.01,1.37 0.37,2.13 2.6,0.51 -0.96,4.01 0,0 -0.55,0 0,0 -3.71,2.97 -2.21,0.24 -0.24,0.88 2.05,0.9 -0.38,3.01 -5.25,-0.32 -3.44,1.36 -8.22,-0.33 -3.29,0.9 0.47,1.57 -2.01,1.78 -1.58,0.2 -0.34,-0.83 -2.05,1.07 1.46,3.09 1.34,-0.28 0.98,2 1.89,0.03 -2.42,1.99 0.08,1.78 2.2,1.27 0.06,1.84 -1.06,2.02 -3.53,2.31 -0.22,0.96 0.83,0.36 -0.82,2.55 1.04,4.36 2.38,1.17 0.31,2.3 2.31,2.57 0.04,4.3 1.96,2.71 0,0 -1.61,0.42 0.43,0.94 -2.79,0.88 0.63,1.34 -0.91,-0.05 0.29,2.32 1.7,0.88 -0.57,1.76 -3.23,-2.15 -2.87,2.39 -2.66,0.22 -1.54,-1.94 -3.95,-1.96 0,0 -0.38,0 0,0 -3.63,0.48 0.65,1.91 0,0 0,0.6 0,0 -2.4,4.51 -2.24,0.45 -0.55,2.09 -3.37,1.08 -0.78,1.29 -1.07,-0.02 -0.92,-1.56 -1.5,1.66 0.51,0.67 -0.83,1.77 -2.04,0.22 0.79,1.24 -2.34,0.09 0,0 -0.41,0 0,0 -1.95,-0.43 -0.75,1.7 -1.4,-1.95 -0.52,1.69 -1.82,0.04 -0.59,1.59 -4.63,3.01 0,0 0.16,-1.79 -1.83,-2.51 -1.24,0.28 -0.24,0.96 -1.77,-0.93 0.92,4.38 -1.61,-1.23 -0.06,-1.92 -1.3,-0.96 -1.47,0.39 0.19,2.28 -1.76,-0.25 -1.82,1.76 -2.58,0.69 2.35,4.52 2.14,-1.75 -0.29,3.06 -2.18,1.15 -4.07,-2.34 -2.52,0.68 0.1,-1.41 -1.76,0.07 -2.74,-2.05 -1.91,-2.26 2.36,0.51 0.53,-0.91 -1.13,-0.86 1.21,-2.23 3.23,-0.4 0.98,-1.33 -1.06,-2.89 0.98,-2.44 -3.63,-4.73 2.24,-1.68 -0.98,-2.85 1.12,1.29 1.5,-0.31 -1.29,-1.88 0.23,-1.45 3.1,1.69 0.72,-0.96 -3.31,-3.23 -0.74,-2.8 -3.58,1.21 -1.63,-1.61 -2.21,1.37 -1.15,-0.95 0.27,-2.14 -2.86,1.05 0,0 -4.86,-0.35 1.69,-5.26 -0.92,-1.85 0.47,-1.34 -1.23,-1.11 4.54,-5.24 -1.2,-2.12 0.91,-1.63 -0.52,-1.09 1.71,-2.02 -3.49,0.57 -2.78,-0.96 -2.36,1.12 1.22,-2.79 -0.19,-2.74 -4.3,-2.48 0.19,-1.22 -0.84,-0.34 1.36,-1.24 -0.66,-1.42 -3.64,-0.09 -0.57,1.36 -1.42,-0.49 -0.69,-1.59 1.29,-1.61 -0.95,-0.74 0.98,-0.95 -1.31,-2.33 -0.13,-2.41 1.33,-1.18 -2.51,-2.9 -1.33,0.29 1.61,-2.57 -0.33,-1.05 -1.53,-1 -2.59,0.47 -1.35,-0.56 0.09,-0.86 -3.7,1.39 0.66,-3.75 -2.31,-2.45 1.28,0.53 0.5,-0.59 0.55,1.3 1.38,-0.1 -0.5,-4.2 1.09,0.37 1.52,-1.14 -2.55,-1.92 -4.06,-1.39 0.4,-1.11 -0.87,-0.58 1.29,-0.63 0.78,-4.19 1.3,-0.48 0.56,-1.5 2.01,0.6 2.52,-3.35 -0.18,-1.69 1.75,-1.7 0.06,-1.86 -0.88,0.01 0.01,-1.41 -1.01,-0.86 2.7,-3.43 -2.38,-2.18 -3,-0.29 -2.5,4.49 -2.24,0.72 0.53,1.88 -2.82,1.68 -0.35,1.5 -2.79,-0.39 -0.41,1.16 -2,0.52 -4.17,-0.97 -2.68,1.07 -1.44,-1.14 -1.19,0.4 -0.17,-2.5 0.83,-1.05 -0.84,-1.39 -0.15,-6.38 -0.83,-1.64 -1.12,0.28 -1.27,-1.47 -6.02,3.41 -3.47,-1.36 -2.77,2.06 -0.22,3.22 -2.43,1.76 -1.12,-0.62 -2.29,0.65 -3.84,-1.5 0.06,2.52 1.13,0.91 -0.34,2.3 4.97,1.98 3.16,2.33 1.68,4.86 -0.69,2.9 0.57,4.22 -1.64,3.32 1.66,2.15 3.08,0.98 -3.02,3.06 -3.81,1.91 -0.22,2.67 -2.18,0.05 -2.03,-1.47 -1.89,0.59 -1.68,-0.74 0.1,-0.97 -4.04,2.9 -1.93,3.54 -2.63,-0.25 -3.52,1.84 -4.05,-1.19 -3.27,3.45 -3.93,-1.58 -2.17,-3.41 5.57,-3.33 2.27,0.08 -0.54,-3.75 0.22,-0.85 1.49,-0.3 -1.25,-1.38 -4.46,-0.01 -1.74,-1.33 -0.48,-1.62 1.63,-2.27 -0.08,-3.83 2.01,-0.38 -1.61,-1.96 0.02,-1.64 3.82,-0.74 -2.76,-2.68 -0.75,-3.1 -2.98,-1.71 -2.88,1.18 -2.4,-0.25 -6,-2.93 -1.57,-5.4 -5.14,-2.29 -2.74,4.46 2.44,1.08 -2,4.14 0.71,0.6 -3.85,0.78 -5.54,3.7 -0.620003,1.92 -2.63,0.48 -1.5,2.22 -2.96,0.82 -1.19,1.63 -9,-0.25 -2.1,0.54 -1.38,1.88 -2.4,0.15 0,0 -2.29,-3.31 -0.1,-1.7 2.97,-6.47 0.04,-2.22 -0.96,-2.72 -1.46,-0.17 -1.61,-2.92 -1.26,-3.99 -3.12,3.39 -5.64,-1.48 0.01,-0.98 -6.13,-0.38 -3.81,-2.53 0.45,-3.6 -1.59,-3.31 2.22,0.45 0.68,-1.5 2.64,-0.03 -3.02,-2.67 0.43,-2.81 -0.89,-1.2 2.53,-2.25 7.76,-0.57 4.01,1.68 2.44,-0.94 4.25,1.45 0.89,-1.05 1.07,-17.52 1.33,-3.02 -0.32,-1.19 6.09,-9.77 2.19,-6.79 -1.02,-11.35 -1.15,-0.85 -0.25,-1.77 1.52,-3.8 1.52,-0.47 -1.19,-1.1 0.6,-1.05 -0.54,-4.68 1.22,-1.97 1.08,-6.17 4.02,-0.19 -18.76,-2.27 -1.12,-2.99 0.85,-1.42 0.95,-10.67 1.48,-2.33 -0.96,-3.05 1.4,2.58 2.13,0.01 0.68,1.09 0.8,-1.06 -3.36,-0.06 -1.14,-2.83 1.65,1.98 0.61,-1.53 1.78,2.24 -0.26,-1.34 1.45,-0.11 1.32,-1.79 -1.7,-0.65 -1.75,-3.32 3.75,-3.75 0.43,-1.59 -0.09,0.74 5.79,-5.15 7.43,-1.81 0.99,0.66 6.650003,-0.24 2.81,1.31 11.37,-3.47 0.02,-1.74 0.02,2.11 6.55,-1.16 1.8,-2.54 -1.58,2.92 6.5,-1.23 7.31,1.11 -0.38,2.74 1.47,4.34 1.83,-0.58 1.61,1.59 0.74,-0.99 0.47,0.59 -1.15,0.5 1.01,1.6 0.87,-0.38 -0.78,0.53 0.48,1.69 2.96,6.04 -0.74,1.34 0.85,-0.5 -1.12,2.31 -3.81,1.44 -2.17,-0.49 0.18,3.1 2.25,3.31 2.31,-0.87 1.08,0.52 3.14,4.71 2.8,0.69 1.4,-0.83 2.93,-5.51 -0.19,-6.81 -5.28,0.11 0.96,-6.58 2.45,-3.16 1.61,-0.7 1.97,0.58 2.92,4.05 5.15,2.3 2.51,0.25 0.96,-0.88 -0.03,1.05 2.07,1.16 0.36,1.55 0,0 -0.53,0.35 1.7,3.64 0.78,-0.69 1.31,0.93 1.64,-1.24 1.14,-2.03 -0.75,-1.49 0.41,-2.86 -1.07,-0.2 -0.69,-1.9 2.71,-3.76 -1.1,0 0.17,0.86 -1.91,-0.3 -1.45,1.24 -4.6,-1.36 0,0 -2.4,-5.32 -0.08,-4.21 4,-10.03 0.19,-2.96 4.08,-7.1 4.89,-1.23 z m -4.47,77.62 0.71,3.03 2.5,3.77 -0.23,1.3 2.84,1.56 -0.33,2.26 0.82,1.61 2.38,0.1 1.05,-1.57 0.35,1.48 2.84,2.02 2.75,-0.15 0.06,-1.96 1.8,2.77 2.59,0.01 0.15,-1.09 2.79,-2.33 -1.02,-1.44 -0.17,-2.64 1.74,-1.33 -1.69,-0.26 -0.96,-1.75 2.24,-1.09 -2.46,-2.73 -1.97,2.09 -3.2,0.11 0,0 -0.11,-0.33 0,0 -1.21,-1.48 0,0 -0.19,-0.93 0,0 -0.65,-0.73 -5.53,0.04 -0.92,-1.74 -1.46,0.35 -0.37,-0.88 -1.42,1.06 -3.45,0.34 -0.81,-2.01 -1.98,-0.04 1.23,-2.18 -1.31,-0.53 -1.56,0.88 -3.31,-2.04 0,0 -0.78,-0.03 0,0 -0.5,0.37 1.55,2.53 0,0 0.27,0.34 6.93,3.24 z m -7.38,-81.45 0.9,1.26 -1.92,0.35 0.28,-1.72 0.74,0.11 z m -3.2,-3.6 0.73,0.3 -2.33,1.86 -0.77,-0.37 1.25,-2.03 1.12,0.24 z"
  />
	<path
		id="mv"
		name="Mecklenburg-Vorpommern"
		d="m 506.60486,98.040196 1.94,4.610004 2.22,2.68 9.15,5.19 13.36,13.4 -2.67,1.61 1.86,1.36 -0.09,3.61 -11.17,-0.75 -2.97,2.76 -3.25,0.51 -1.09,-0.82 1.27,0.27 0.68,-1.06 -1.6,-1.68 -1.09,3.36 -2.09,0.32 -3.35,-1.11 0.66,-2.31 3.89,-0.74 2.55,-3.27 -0.99,-4.41 -1.64,-1.68 0.78,-2.56 3.52,0.01 -0.37,5.89 0.54,-2.45 1.06,-0.5 2.52,-0.06 -0.77,1.22 1.9,0.95 0.45,-4.57 -0.47,-2.95 -1.42,-1 -0.74,1.11 -0.71,-3.51 -1.58,-2.27 -3.86,0.08 -0.17,2.23 1.65,1.56 -0.44,1.31 -0.68,-0.55 0.4,-1.48 -1.43,2.39 -2.52,1.34 -0.44,-1.47 1.69,-2.66 -1.48,-1.03 -3.65,3.17 -1.94,-0.08 -0.21,-1.21 1.1,-0.88 1.61,-4.55 0.2,-2.98 -1.4,-0.46 -2.16,-2.7 -0.48,-2.320004 2.42,-1.6 1.5,0.73 z m -43.24,-15.3 -0.64,0.63 -0.51,-1.11 0.8,-0.39 0.35,0.87 z m 25.24,-0.92 -0.18,0.67 -0.36,-0.7 1.55,-1.82 0.25,0.99 -1.26,0.86 z m -52.44,-12.27 1.61,1.44 -3.42,-0.11 0.93,-1.52 0.88,0.19 z m 15.49,-1.53 1.03,0.57 -2.5,0.38 0.3,-0.98 1.17,0.03 z m 6.74,-0.57 -5.09,1.39 1.74,-1.25 2.08,-0.09 0.99,-1.39 0.28,1.34 z m -33.24,-3.71 -0.93,0.91 2.98,2.17 6.68,1.23 15.83,-0.33 0.62,1.97 -3.21,1.43 -3.3,-0.75 -1.36,1.37 -1.06,-0.82 -3.16,0.05 -0.99,-1.76 -2.01,0.05 -1.56,2.48 -1.85,-0.81 0.1,-1.05 -1.45,2.02 -2.46,0.38 1.36,1.33 -0.42,0.98 -0.36,-0.82 -2.07,-0.02 -1.75,1.02 -0.34,0.72 1.01,1.03 1.2,-1.47 0.8,0.7 3.35,-0.12 3,-1.8 0.03,-2.05 2.5,-0.34 0.45,0.9 -1.72,0.43 0.38,1.51 -1.05,1.59 0.67,0.08 0.86,-3.12 0.9,-0.01 0.33,2.92 1.01,0.17 0.59,-1.36 1.44,1.26 1.23,-2.68 1.61,5.67 4.42,-2.61 1,-3.6 1.72,-1.34 4.09,-1.4 1.4,-1.34 1.3,0.27 -0.25,4.24 1.41,1.77 1.96,-0.09 0.89,1.48 -1.09,2.42 0.78,2.84 1.72,2.1 -0.65,2.03 1.86,1.49 2.03,-0.99 0.87,0.83 -2.23,1.79 2.73,-1.42 1.83,2.82 4.67,0.6 2.33,5.54 2.84,0.23 -1.95,0.46 -1.47,1.9 3.78,-1.8 2,1.04 -0.91,-1.56 1.5,0.77 -0.15,1.51 -0.4,-0.5 -1.8,1.42 0.11,0.780004 1.8,-1.250004 -0.2,1.020004 1.42,1.05 2.47,5.44 2.08,0.08 -1.52,-3.29 0.89,-0.88 8.56,-1.8 4.43,-3.380004 1.06,0.31 0.34,0.73 -1.31,0.51 0.16,0.91 2.19,1.420004 1.05,-0.41 0.3,2.15 3.07,2.35 -0.86,3.76 -0.91,0.51 0.38,1.32 -2.33,2.01 0.82,0.04 0.24,1.39 2.11,2.1 2.53,1.2 1.43,3.74 1.6,0.1 2.12,2.93 -0.76,1.34 -2.38,1.07 -1.14,2.36 -1.43,0.13 0.04,1.29 -1.23,0.56 0.73,1.79 2.23,0.09 3,4.2 1.12,-0.28 3.35,3.56 8.5,3.49 4.03,-0.23 1.05,0.72 3.13,-2.79 2.27,1.38 -0.06,1.94 -3.25,3 3.65,0.68 0.5,1.02 -0.68,2.17 0.88,0.58 0.06,2.88 2.09,1.83 -0.61,7.88 1.22,4.11 1.74,1.46 2.46,14.67 1.25,2.56 0,0 -4.07,2.2 -1.94,-0.13 -1.01,2.67 -2.46,1 -0.1,1.8 -3.17,0.55 -3.35,-1.33 -3.91,0.5 2.05,-3.83 6.11,-6.53 1.19,-3.11 -0.31,-4.28 -1.08,-0.68 -0.92,1.16 -1.8,0.16 -3.74,-2 -2.26,3.23 -2.22,-0.28 -0.36,-1.76 -2.89,-0.52 -5.37,1.36 -1.01,-0.99 0.91,-2.41 -2.52,-2.18 0.13,-3.27 -3.47,-1.43 -1.9,-4.37 -1.17,4.79 3.07,1.84 -0.64,1.28 -2.36,1.25 -2.3,-1.28 -1.63,0.46 -5.14,4.25 -0.45,3.36 -2.52,-0.35 -2.29,1.59 0.39,2.23 -0.91,1.36 -1.18,-0.15 -0.52,1.44 0.4,3.54 -1.25,-0.64 -1.14,3.54 -1.4,0.36 -0.5,-1.02 -1.13,0.04 0.12,1.43 -2.19,3.73 0,0 0.11,0.18 0,0 -1.24,0.65 -1.63,-3.74 -1.42,0.48 -2.45,-0.8 -3.49,2.57 -0.93,4.25 -1.75,-0.67 -1.27,-2.89 -2.14,-0.07 -1.3,1.55 -1.6,-0.02 0.07,2.15 -1.23,0.18 -0.56,1.41 -2.44,0.52 -2.16,3.04 -1.89,0.49 -1.04,-1.74 -1.03,0.38 2.37,-1.83 -1.01,-0.92 -1.8,0.64 0.16,0.83 -1.23,-0.15 0.55,-0.8 -1.63,0.16 -1.63,1.51 -1.96,-2.28 -4.93,1.49 -1.99,-1.32 1.14,-2.51 -4.58,-0.3 -1.15,-0.74 0.66,-1.65 -0.94,-0.51 -3.58,1.05 -5.11,-2.15 -5.11,1.54 -1.09,-2.71 -2.2,-1.03 -0.04,-1.7 -5.24,-2.97 -3.31,0.45 -1.78,-3.73 -2.71,0.6 -0.12,1.08 -1.05,0.37 -1.15,-2.31 -2.53,1.79 -1.88,-0.28 -0.15,-2.22 -2.17,-0.46 0.84,2.29 -2.73,1.78 0.36,3.58 -1.81,0.95 -1.32,-0.65 -1.58,2.94 -3.61,-0.69 -2.05,3 -4.06,-0.48 2.17,1.8 -0.79,1.22 -2.68,-0.27 -2.86,1.02 -0.19,-1.53 -3.87,-1.31 -2.59,0.51 -2.52,2.77 -2.29,0.47 1.01,4.7 -1.06,1.54 0.38,1.38 -1.54,1.35 -1.84,0.5 -2.03,-0.66 -0.54,-1.43 -1.43,0.56 -1.24,-0.64 -1.52,0.16 -0.28,3 -8.02,-1.19 0,0 -2.66,-2.3 -2.65,0.77 -0.61,-2.22 1.43,-2.42 -6.83,-3.55 -3.93,-6.97 -1.13,-0.14 -1.43,-5.62 -2.38,-0.1 -2.03,-1.49 -5.27,4.67 -4.81,-2.53 0.2,-1.16 -1.48,-0.43 -2.56,-2.91 -6.65,0.68 0,0 1.33,-1.93 1.09,-7.63 1.31,-0.74 2.49,0.57 0.61,-2.4 3.47,-0.51 1.96,-2.93 2.41,-0.33 -0.67,-0.76 1.23,-2.32 -0.73,-3.47 1.04,-0.18 0.74,1.26 3.84,-0.72 1.19,-6.22 1.46,-2.07 -0.65,-3.91 -1.4,-0.56 0.19,-1.01 -4.63,-0.29 -2.45,-1.99 -0.42,-1.87 -2.98,-1.51 0,0 0.27,-1.83 0,0 0.68,-2.57 -1.56,-6.33 1.46,-2.29 1.87,-0.39 0.99,-1.91 1.78,-0.37 2.29,-2.96 2.03,1.03 -0.61,0.89 0.54,0.96 3.45,-1.03 -4.59,-1.62 0.66,-3.64 0,0 8.62,-5.35 8.99,-0.97 1.8,2.92 3.28,0.47 -1.08,3.03 0.94,2.2 1.98,0.42 3,-2.99 2.08,2.7 2.38,-0.14 -0.13,1.54 1.75,0.94 0.32,1.44 1.5,0.27 -0.94,-1.57 2.28,-1.8 0.18,-4.25 -0.73,0.45 -0.52,-0.74 -1.17,1.18 -0.06,-4.29 -1.1,1.44 0.27,2.51 -2.16,-1.28 -0.73,0.74 1.49,0.13 -1.34,0 -0.81,-1.63 0.67,-2.3 3.91,-2.25 2.75,0.05 -1.45,5.3 1.43,0.66 0.63,-1.9 -0.59,-0.89 1.24,-2.2 1.52,-0.7 -0.92,-1.28 1.94,0.64 1.51,-0.89 0.48,-3.18 2.57,-1.44 0.23,-1.51 -1.35,-1.37 -4.67,5.94 -0.27,-2.75 1.98,-2.36 3.21,-1.27 4.53,-4.910004 4.94,-0.23 5.71,1.030004 10.45,-3.570004 7.25,-0.63 3.87,-5.85 9.57,-6.35 4.6,-8.91 3.7,-4.39 2.14,-6.02 2.01,-0.91 z m 39.24,-13.18 0.64,3.19 -0.66,-2.61 0.02,2.51 -0.7,-1.58 0.41,-1.22 -2,1.81 0.34,4.98 -2.71,4.16 -0.52,4.54 -0.27,-2.02 2.4,-8.91 0.08,-3.54 1.52,-1.48 1.45,0.17 z m 18.18,-8.92 -0.23,2.54 -2.28,0.98 -1.07,1.93 0.99,3.82 1.78,2.27 2.67,0.88 10.97,-1.61 2.81,2.3 0.02,3.59 -6.57,5.97 -0.06,3.18 2.47,4.76 3.76,0.38 3.6,5.02 2.38,1.46 -1.63,0.58 -1.31,2.56 0.29,4 -0.89,0.75 -1.64,-1.66 1.57,0.42 -0.47,-1.77 -2.65,0.92 -0.93,-1.06 3.44,-2.08 0.27,-1.1 -2.07,-0.38 -3.92,1.48 4.26,-2.38 0.52,-1.43 -2.57,0.41 -1.84,1.94 -1.98,-2.52 -2.01,1.4 -3.19,-0.19 -5.2,4.3 -2.25,4.02 0.31,-1.45 -2.42,1.02 0.34,2.53 0.46,-1.89 0.95,1.13 1.56,-1.2 0.88,1.15 0.44,1.7 -2.08,1.86 -6.46,-3.18 1.98,0.57 0.78,-3.61 -1.59,1.36 0.67,0.88 -3.25,0.46 -3.12,-2.7 -1.23,0.91 -0.39,-2.88 -3.42,1.6 0.97,-2.41 1.88,0.4 -4.49,-3.49 0.83,-4.21 4.37,-0.54 1.54,0.88 2.56,-1.8 -1.52,-0.42 -0.41,-1.47 1.48,-0.51 -1.33,0.23 -1.35,-2.81 -3.91,0.79 1.8,-3.63 -3.44,1.53 -0.2,-0.63 3.07,-4.87 3.67,0.83 -0.29,2.19 -2.3,-0.02 -0.25,0.97 1.04,0.94 0.44,-1.39 2.94,-0.4 -1.33,-0.48 2.5,-1.28 -2.7,-0.61 0.18,-2.75 -2.04,0.84 -1.84,-0.54 -1.63,-4.18 6.37,-0.96 2.82,1.43 -0.07,2.2 1.05,0.83 0.48,-1.16 -0.93,-3.08 3.66,-2.99 0.92,0.43 -1.94,3.05 1.08,0.37 1.26,-1.59 2.45,4.41 -0.1,2.82 1.9,0.73 0.55,1.73 1.39,-1.2 1.94,0.12 0.69,-5.17 -1.42,-3.31 1.16,0.09 0.1,-0.81 -1.39,0.36 0.06,1.2 -2.87,-0.04 -1.31,-1.88 -2.04,-0.55 -1.47,-4.48 -2.65,2.29 0.34,1.17 -5.73,2.6 2.56,-6.33 0.06,-3.14 -3.65,2.27 0.68,3.27 -4.9,3.99 0.24,-1.26 3.36,-2.95 0.08,-4.46 1.73,-2.21 2.78,-1.85 9.07,-1.04 z"
  />
  <path
		id="nw"
		name="North Rhine-Westphalia"
		d="m 76.644857,302.5102 2.4,-0.15 1.38,-1.88 2.1,-0.54 9,0.25 1.19,-1.63 2.96,-0.82 1.51,-2.23 2.62,-0.47 0.630003,-1.93 5.54,-3.69 3.85,-0.79 -0.72,-0.6 2,-4.14 -2.44,-1.08 2.74,-4.46 5.13,2.29 1.57,5.4 6,2.93 2.4,0.25 2.88,-1.18 2.98,1.71 0.75,3.1 2.76,2.68 -3.82,0.74 -0.02,1.65 1.61,1.96 -2.01,0.38 0.08,3.84 -1.64,2.27 0.49,1.62 1.74,1.32 4.46,0.01 1.25,1.38 -1.49,0.3 -0.22,0.85 0.54,3.75 -2.27,-0.08 -5.57,3.33 2.17,3.42 3.93,1.58 3.27,-3.45 4.06,1.18 3.52,-1.84 2.63,0.25 1.93,-3.54 4.04,-2.9 -0.11,0.98 1.68,0.73 1.89,-0.59 2.04,1.47 2.18,-0.05 0.21,-2.67 3.81,-1.91 3.01,-3.06 -3.08,-0.97 -1.66,-2.15 1.64,-3.32 -0.57,-4.22 0.7,-2.9 -1.68,-4.86 -3.16,-2.33 -4.97,-1.98 0.34,-2.31 -1.13,-0.9 -0.06,-2.53 3.84,1.5 2.3,-0.64 1.12,0.61 2.43,-1.76 0.21,-3.22 2.77,-2.05 3.48,1.35 6.02,-3.4 1.27,1.47 1.13,-0.28 0.83,1.64 0.15,6.38 0.85,1.39 -0.83,1.05 0.16,2.5 1.19,-0.4 1.44,1.14 2.68,-1.07 4.17,0.97 2,-0.53 0.4,-1.15 2.79,0.38 0.35,-1.5 2.82,-1.68 -0.53,-1.87 2.24,-0.72 2.5,-4.49 3,0.29 2.38,2.18 -2.7,3.44 1.02,0.85 -0.01,1.41 0.88,-0.01 -0.06,1.85 -1.75,1.7 0.19,1.69 -2.52,3.35 -2.02,-0.6 -0.56,1.5 -1.3,0.48 -0.78,4.19 -1.29,0.63 0.87,0.58 -0.4,1.11 4.06,1.4 2.55,1.92 -1.53,1.14 -1.09,-0.38 0.5,4.21 -1.38,0.1 -0.54,-1.3 -0.5,0.6 -1.28,-0.53 2.31,2.44 -0.66,3.75 3.71,-1.38 -0.09,0.86 1.35,0.56 2.59,-0.47 1.53,1 0.33,1.05 -1.6,2.57 1.32,-0.29 2.51,2.89 -1.33,1.18 0.13,2.41 1.31,2.33 -0.97,0.95 0.95,0.74 -1.3,1.61 0.69,1.59 1.42,0.49 0.58,-1.37 3.64,0.1 0.65,1.42 -1.36,1.24 0.84,0.34 -0.19,1.22 4.3,2.48 0.19,2.74 -1.23,2.79 2.37,-1.12 2.78,0.96 3.49,-0.57 -1.71,2.02 0.52,1.09 -0.91,1.62 1.21,2.12 -4.55,5.24 1.23,1.11 -0.46,1.35 0.92,1.84 -1.69,5.26 4.86,0.35 0,0 -1.84,1.73 -5.42,1.56 2.21,2.4 -3.59,3.95 -0.51,3.96 -1.61,-0.04 -1.18,1.57 -2.51,0.89 -0.52,3.14 -2.08,-0.67 -1.54,2.29 -1.46,-0.72 -2.6,0.58 -1.1,-2.13 0.82,-3.03 -0.92,-0.82 -2.4,0.07 -1.32,-1.57 -8.12,3.7 1.79,3.4 0.02,1.82 1.76,0.32 -0.58,3.9 -2.99,-0.36 -2.32,1.55 -1.14,-1.13 -2.18,-0.21 -4.56,1.87 -2.37,-0.43 -1.11,0.59 0.3,1.15 -1.44,0.47 -0.29,1.58 -1.11,-0.44 -1.07,0.78 -4.01,5.97 2.45,3.07 6.14,-2.94 1.91,0.24 0.92,1.15 -0.56,1.14 0.87,3.28 1.67,1.01 -1.27,1.03 0.69,2.2 -3.96,4.03 0.07,1.42 0,0 0.24,0 0,0 1.23,1.36 -2.3,0.2 -1.75,1.34 -6.3,-0.85 -1.92,0.6 -1.62,1.73 1.56,1.67 -1.39,2.31 0.89,-0.31 1.16,2.46 -3.98,4.35 0.21,0.73 -1.26,0.33 -0.53,2.5 0.64,2.24 -1.77,0.12 -4.68,5.71 -3.35,0 -0.95,-2.09 -1.57,0.11 -8.07,9.05 0,0 -0.4,0.13 0,0 -0.25,1.03 2.39,4.53 -2.73,4.88 0,0 -2.97,-2.12 -1.17,1.1 -1.22,-0.18 -0.14,-3.07 -4.48,-4.77 0.59,-4.96 -0.57,-2.12 -0.73,-0.75 -2.63,0.82 -2.11,-3.01 -3.48,-0.76 1.41,-4.59 -3.66,-1.46 -1.71,1.86 -1.92,0.59 1.56,1.73 -0.65,3.45 0.81,2.2 -2.14,-0.61 -1.68,2.4 -2.68,0.63 1.23,1.21 -0.54,2.75 -1.04,1.31 -3.51,0.28 -0.5,2.62 -2.68,-0.68 -1.87,0.93 -0.01,0.82 -5.51,1.9 -3.790003,-0.85 -1.1,2.1 0.94,1.64 -1.14,1.93 0.34,1.16 -1.54,1.12 -7.81,1.6 -0.74,-2.52 -0.79,2.51 -1.08,1.1 -1.17,-0.17 -0.43,1.39 -2.01,-1.19 -1.65,2.63 -2.16,-2.02 -3.7,4.15 -1.56,0.82 -2.75,-0.4 0.04,2.65 -3.1,0.63 0.9,0.99 -0.53,1.06 1.04,0.4 -0.26,3.41 -2.71,1.59 -2.86,-1.93 -0.78,-1.97 -3.55,1.88 1.34,1.43 -1.44,1.81 1.78,0.56 0.76,1.4 -0.83,2.82 2.06,2.41 -0.21,0.83 -1.3,-0.34 -4.91,2.77 -2.06,-3.42 -1.96,2.62 -1.1,-1.02 0.31,-1.92 -1.39,-0.11 -0.12,-1.27 -6.07,2.77 -1.48,2.14 -1.99,0.19 0.45,-2.44 -0.93,-1.03 -0.93,0.88 -1.12,-2.64 -1.67,0.49 0.55,2.25 0.73,-0.14 0.09,2.39 1.06,0.61 0.04,0.98 -1.32,0.05 0,0 -0.34,-2.2 -3.67,-3.54 2.24,-5.62 -0.28,-1.83 -2,-0.79 0.65,-2.65 -5.12,-1.65 -2.81,0.99 -1.15,-2.56 -1.24,-0.57 0.48,-1.03 -1.13,-0.52 -0.14,-1.53 3.13,-3.26 1.16,0.11 1.62,-3.75 -4.52,-0.65 -1.32,0.66 0.44,-0.59 -0.95,-1.07 0.9,-0.83 -3.97,-6.88 -4.8,-0.86 -0.44,0.92 0.18,-2.54 -1.6499997,-1.71 0.6299997,-1.22 -3.3499997,-2.29 0.69,-1.33 1.29,0.75 1.2899997,-1.3 -0.38,-3.1 2.35,-1.01 1.16,0.94 0.96,-2.68 -0.89,-1.98 1.26,-2.88 -2.58,-0.06 -2.23,-1.25 -0.9199997,-2.31 1.2699997,-2.68 -3.6899997,0.48 -0.86,-0.9 -3.57,1.33 0.45,-2.75 -1.63,-1.65 -0.89000004,-2.98 3.07000004,-1.86 1.48,3.16 1.42,-0.07 1.31,-3.7 1.98,-1.94 2.1099997,-0.89 3.04,-3.46 5.3,-2.3 -2.21,-1.59 2.7,-1.33 -1.06,-0.83 -4.18,2.46 -1.13,-0.21 -0.93,-4.77 1.15,-0.42 -0.9,-1.93 3.27,-3.19 2.91,-5.89 1.54,-0.33 2.11,-2.78 -0.76,-2.51 0.75,-1.4 -1.26,0.06 1.12,-7.35 -0.64,-4.13 -3.38,-5.17 -4.43,-4.41 1.61,-5.16 -5.36,-1.84 -0.38,-3.45 1.12,-0.95 -3.2199997,-2.18 -2.43,-0.06 0.03,-1.26 2.16,-1.51 0.08,-1.77 -1.05,-0.33 0.19,-1.23 -1.97,-1.51 0.79,-0.49 -0.85,-0.65 1.03,-1.28 3.29,0.11 3.2599997,-3.01 2.25,1.6 4.24,0.85 -0.12,-2.04 -1.63,-2.54 -2.11,-0.71 0.86,-0.98 3.2,0.07 2.74,3.33 4.34,-0.53 1.22,0.59 0.42,1.88 3.08,0.14 0.61,1.29 2.46,0.93 0.53,-2.63 -1.47,-1.07 0.29,-1.17 2.55,1.61 1.13,-0.67 1.26,1.22 4.74,-3.16 8.94,-3.42 3.04,1.9 3.57,-3.12 0.69,-3.04 1.83,-0.57 0.16,-2.32 -4.91,-4.28 -4.22,-1.18 0.43,-3.21 2.73,-0.49 1.54,-4.49 6.01,-0.21 3.29,-5.76 2.77,-0.53 2.17,-4.6 3.37,-0.13 z"
  />
  <path
		id="rp"
		name="Rhineland-Palatinate"
		d="m 34.664857,497.6602 1.32,-0.05 -0.04,-0.98 -1.06,-0.61 -0.09,-2.39 -0.73,0.14 -0.55,-2.25 1.67,-0.49 1.12,2.64 0.93,-0.88 0.93,1.03 -0.45,2.44 1.99,-0.19 1.48,-2.14 6.07,-2.77 0.12,1.27 1.39,0.11 -0.31,1.92 1.1,1.02 1.96,-2.62 2.06,3.42 4.91,-2.77 1.3,0.34 0.21,-0.83 -2.06,-2.41 0.83,-2.82 -0.76,-1.4 -1.78,-0.56 1.44,-1.81 -1.34,-1.43 3.55,-1.88 0.78,1.97 2.86,1.93 2.71,-1.59 0.26,-3.41 -1.04,-0.4 0.53,-1.06 -0.9,-0.99 3.1,-0.63 -0.04,-2.65 2.75,0.4 1.56,-0.82 3.7,-4.15 2.16,2.02 1.65,-2.63 2.01,1.19 0.43,-1.39 1.17,0.17 1.08,-1.1 0.79,-2.51 0.74,2.52 7.81,-1.6 1.54,-1.12 -0.34,-1.16 1.14,-1.93 -0.94,-1.64 1.1,-2.1 3.790003,0.85 5.51,-1.9 0.01,-0.82 1.87,-0.93 2.68,0.68 0.5,-2.62 3.51,-0.28 1.04,-1.31 0.54,-2.75 -1.23,-1.21 2.68,-0.63 1.68,-2.4 2.14,0.61 -0.81,-2.2 0.65,-3.45 -1.56,-1.73 1.92,-0.59 1.71,-1.86 3.66,1.46 -1.41,4.59 3.48,0.76 2.11,3.01 2.63,-0.82 0.73,0.75 0.57,2.12 -0.59,4.96 4.48,4.77 0.14,3.07 1.22,0.18 1.17,-1.1 2.97,2.12 0,0 -0.94,2.59 1.93,2.74 -0.88,2.26 1.63,1.05 -1.03,4.83 -2.06,1.74 -2.05,-0.55 -1.75,-1.85 -3.08,3.27 -1.08,3.75 2.07,3.41 -2.25,1.54 0.83,0.36 -0.18,1.16 -1.38,1.18 1.4,1.15 2.32,-0.09 -0.4,1.58 1.75,-0.1 0.18,1.04 0.88,0.08 1.07,2.65 -0.29,1.55 1.9,0.55 0.05,1.68 1.05,1.05 -0.81,3.84 -1.68,-0.11 -0.43,-1.08 -2.36,0.14 -0.92,1.34 1.7,1.67 0,0 0.26,0.35 0,0 -1.28,2.11 -1.31,-0.19 -1.54,-1.98 -0.14,1 -2.27,0.83 -0.26,0.96 -2.3,0.63 -0.01,0.95 -1.72,1.2 0.08,1.32 3.07,2.41 -0.72,0.99 0.56,3.12 -1.8,-1.86 -1.14,0.7 -2.03,-1.25 -1.33,2.84 0.45,1.44 -2.23,0.03 -1.88,2.57 5.07,4.42 0.9,3.22 1.16,0.84 5.33,-0.6 4.53,-2.55 9.16,-3.11 3.86,0.78 4.95,5.02 2.1,5.8 -0.65,3.96 2.54,2.13 -0.33,3.25 2.79,5.35 3.06,-0.05 0.48,0.68 -2.63,3.95 -5.02,2.94 1.58,6.45 2.45,4.19 0,0 -0.45,2.96 3.05,8.11 -1.32,2.01 4.13,1.49 -0.78,3.29 -2.08,1.95 0.7,0.76 1.67,-1.45 -0.12,2.13 -3.03,4.06 2.43,2.9 -6.24,5.87 -0.34,1.56 1.26,-0.07 -2.36,4.89 -0.58,6.63 -2.97,4.55 -0.94,3.87 0,0 -0.84,1.81 0,0 -3.3,2.83 0,0 -0.44,-1.01 -1.64,0.85 -0.32,-0.99 -2.28,0.25 -4.22,-1.42 -2.64,-2.35 -4.78,-1.3 -2.73,-2.94 -0.89,1.57 -2,-0.67 -1.41,1.47 -4.6,-3.12 -1.76,1.87 -1.99,0.28 -0.19,-1.25 -0.75,0.53 -1.63,-0.69 0.11,0.86 -1.48,0.46 -2.57,-0.97 -0.11,-1.77 -2,-0.99 -2.31,0.31 -2.28,-1.67 -1.79,-3.25 -0.39,-3.68 -3.72,0.42 0.46,-1.87 -4.970003,1.21 -0.12,1.27 0,0 -4.21,-4.61 0.46,-1.73 -0.89,-1.45 1.21,-1.91 1.02,0.96 0.04,-1.23 1.2,-0.87 -0.49,-0.91 1.71,0.06 1.43,-1.54 0.98,-7.39 -2.18,0.54 -0.77,-1.5 -4.09,-0.94 -0.09,-2.68 -2.42,-1.65 -0.27,-1.22 2.51,-1.14 1.19,-1.7 -1.65,-0.98 0.53,-3.22 1.35,-0.56 -0.35,-1.04 -1.79,-0.3 -0.47,-4.61 -3.4,1.83 -0.09,-1.01 -1.71,-0.02 -0.76,-0.9 -0.15,-1.28 -3.16,0.3 -1.37,-1.05 -0.76,0.61 -1.81,-2.92 -2.06,-1.02 -2.73,1.84 0.37,-1.37 -2.47,0.9 -0.74,-0.87 -0.71,2.12 -2.18,-0.33 -1.1,1.45 -0.9,-0.62 -1.8,2.42 -1.57,-0.77 -4.04,3.31 -2.39,0.37 -1.28,1.76 -0.36,-1.18 -1.44,0.45 -0.72,-0.71 -0.24,1.17 -1,-0.26 -1.59,1.28 0.08,0.93 -1.69,-0.25 -1.15,-1.92 -2.86,1.33 -2.9,-1.65 -1.29,0.56 -1.45,-1.01 -0.83,0.53 -2.37,-0.79 0,0 -1.42,-2.03 1.53,-0.53 -0.29,-1.58 2.82,-2.54 1.28,-3.53 -0.69,-1.32 4.87,-4.46 -0.64,-1.24 1.28,0.36 -1.03,-2.57 1.12,-1.33 -0.76,-2.76 1.41,-1.87 -1.02,0.8 -2.61,-2.07 -2.61,1.17 -2.09,-1.06 -2.28,-2.88 -2.51,1.23 -0.67,-2.99 -0.95,0.24 -4.03,-3.28 -0.16,-1.89 -0.84,-0.47 0.31,-2.6 -1.09,-0.5 -0.44,0.69 -0.51,-2 -0.88,1.45 -0.52,-3.18 -1.93,-1.2 0.88,-0.98 -0.89,-0.56 0.59,-0.96 -0.98,-0.69 -0.4,-2.94 -0.96,0.01 1.29,-1.3 -1.02,-0.07 0.42,-1.77 0.83,-0.13 -0.49,-2.61 1.75,-2.31 -1.33,-1.16 0.52,-1.46 0.48,-0.93 0.66,0.58 2.02,-1.06 -1.53,-3.79 0.61,-1.43 1.31,-0.23 1.16,-1.94 4.12,-0.98 0.77,-1.04 -0.42,-1.63 1.6,-2.59 1.5,-0.2 1.73,1.81 0.08,-1.03 z"
  />
  <path
		id="sl"
		name="Saarland"
		d="m 33.044857,573.7902 2.37,0.79 0.83,-0.53 1.45,1.01 1.29,-0.56 2.9,1.65 2.86,-1.33 1.15,1.92 1.69,0.25 -0.08,-0.93 1.59,-1.28 1,0.26 0.24,-1.17 0.72,0.71 1.44,-0.45 0.36,1.18 1.28,-1.76 2.39,-0.37 4.04,-3.31 1.57,0.77 1.8,-2.42 0.9,0.62 1.1,-1.45 2.18,0.33 0.71,-2.12 0.74,0.87 2.47,-0.9 -0.37,1.37 2.73,-1.84 2.06,1.02 1.81,2.92 0.76,-0.61 1.37,1.05 3.16,-0.3 0.15,1.28 0.76,0.9 1.71,0.02 0.09,1.01 3.4,-1.83 0.47,4.61 1.79,0.3 0.35,1.04 -1.35,0.56 -0.53,3.22 1.65,0.98 -1.19,1.7 -2.51,1.14 0.27,1.22 2.42,1.65 0.09,2.68 4.09,0.94 0.77,1.5 2.18,-0.54 -0.98,7.39 -1.43,1.54 -1.71,-0.06 0.49,0.91 -1.2,0.87 -0.04,1.23 -1.02,-0.96 -1.21,1.91 0.89,1.45 -0.46,1.73 4.21,4.61 0,0 -0.03,1.46 -2.32,-0.03 -2.06,2.78 -3.06,-1.46 -3.08,1.43 -0.87,-1.47 -1.71,0.96 -2.01,-2.1 -1.37,0.27 0.56,-1.27 -0.95,-0.32 -1.09,0.7 0.54,1.66 -2.15,1.76 -1.8,-5.5 0.44,-2.06 -1.39,0.31 -2.47,-2.17 -0.84,0.68 -2.18,-2 -2.08,1.37 -2.08,-1.33 -1.42,0.98 1.53,3.11 -1.69,2.69 -3.55,-1.51 -2.62,0.43 -1.72,-2.24 1.25,-1.82 -0.48,-1.2 -1.81,0.23 -0.4,-3.28 -1.83,-0.89 0.59,-2.06 -3.57,-2.1 -1.66,-1.91 0.21,-1.38 -1.55,-1.14 -0.19,-0.88 1.54,0.63 0.8,-1.58 -1.13,-0.29 0.17,-1.64 -2.93,-1.64 0.79,-2.22 -7.87,-5.01 -2.26,1.18 -1.66,-0.63 -0.69,-5.85 z"
  />
  <path
		id="sn"
		name="Saxony"
		d="m 409.32486,420.6402 -0.5,-1 -2.83,-0.44 -0.84,-1.83 1.25,-0.12 0.15,-0.9 -2.78,-1.02 1.07,-4.15 -2.44,0.13 -0.02,-0.83 0.86,0.02 1.06,-2.55 -0.27,-2.33 -0.64,-2.06 -1.56,-0.82 0.42,-1.99 -1.58,-3.62 3.14,-0.86 -0.1,-4.29 -1.41,-1.28 0.86,-0.42 -0.72,-2.23 1,-1.18 -0.55,-1.18 -1.57,0.02 -0.56,-3 1.61,-0.52 0.23,-1.43 1.85,-0.98 -0.99,-3.36 2.88,-2.92 -0.23,-1.11 3.72,0.23 3.28,-1.93 -0.35,-0.6 5.59,0.4 1.11,-2.78 1.11,0.79 1.35,-0.45 0.31,1.13 1.31,-1.4 2.06,0.75 2.61,-2.45 0.92,0.72 2.01,-0.83 -1.06,1.6 3.46,-1.94 1.79,-3.6 5.1,1.77 4.67,-3.84 1.19,1.04 0.19,1.84 1.63,-0.99 0.45,1.96 1.93,-0.25 0.87,1.17 0.4,-1.16 1.35,-0.11 -0.35,-1.41 0.62,0.13 0,0 0.38,0.11 0,0 -0.02,-0.73 2.08,0.49 0.74,2.73 1.87,-0.89 0,0 2.16,3.82 2.24,-1.17 2.49,2.75 -1.11,2.53 2.65,1.2 1.41,3.39 -0.39,3.23 -1.07,0.08 -0.14,1.72 1.32,2.47 -1.78,2.3 0.85,0.43 0.3,-1.27 1.36,4.08 3.34,1.16 -0.39,-1.58 1.59,0.18 0.04,-1.3 2.7,-1.5 -0.34,-1.1 3.49,1.17 -0.16,-1.11 1.5,-1.76 1.79,1.95 -0.44,1.22 1.62,-1.07 1.72,1.41 -0.65,0.68 3.62,1.03 0.22,2.02 0.89,0.05 0.4,1.24 1.61,-1.58 1.21,0.14 0.52,1.51 3.97,-0.07 0.56,-0.73 4.73,1.5 1.64,-0.87 0.43,0.81 0.63,-0.81 2.32,0.1 0.97,-1.53 4.55,0.48 3.37,-1.71 0.8,0.32 -0.06,1.73 1.78,0.34 0.37,-2.2 1.48,-0.16 -0.71,-0.86 1.87,-1.39 -0.53,-1.7 1.59,-1 -1.82,-3.13 3.48,-0.12 -0.87,-1.59 1.29,-0.54 0.69,-2.35 2.22,-0.24 -0.69,-0.9 0.52,-1.15 4.85,0.4 2.05,1.2 1.54,-0.47 3.45,1.64 0,0 0.04,0.48 0,0 0.54,0.83 0.57,-1.55 2.94,-2.39 3.76,-0.11 0.44,-1.47 5.33,-0.18 0.41,-1.38 1.48,-0.78 1.83,0.88 1.21,2.21 4.08,-0.3 1.54,-2.58 -0.42,-1.98 2.12,1.6 0,0 -1.2,2.03 1.58,3.66 3.72,0.81 3.66,2.87 4.26,0.69 2.07,1.41 1.38,2.81 -0.91,3.25 0.59,3.09 0.91,0.57 -0.27,3.25 4.11,7.04 -3.17,11.37 0.22,4.01 -0.99,0.5 -0.18,4.07 -3.07,7.84 -0.88,0.48 0.14,2.07 -0.89,0.33 -0.62,3.23 -4.94,5.66 0.47,1.39 -1.79,4.85 -1.89,0.15 -1.46,-0.98 -1.4,0.69 -0.92,-1.93 -1.16,0.3 -4.43,-1.99 1.1,-3.97 1,-0.8 -0.16,-2.63 -4.26,1.82 -1.12,-0.51 2.1,-6.83 -2.19,-2.38 -1.89,0.63 -0.22,-1.33 -2.09,-0.55 0.19,-2.46 -0.58,2.34 -2.41,-1.29 -2.85,1.75 -1.58,-0.83 -0.21,-1.18 -1.24,-0.65 -1.5,0.65 -2.29,-1.66 -0.94,1.61 -0.9,0 0.79,1.2 -0.32,1.3 -1.3,0.61 -0.05,2.13 1.54,1.06 2.63,-0.8 0.21,1.15 -1.61,0.77 0.88,0.59 -0.4,0.53 5.5,1.87 -0.65,3.84 -2.36,-0.37 -0.05,0.92 -2.9,0.88 -2.36,-1.12 -2.12,0.77 -0.6,2.74 -8.63,3.43 -0.74,1.41 -3.01,0.8 -2.56,-1.58 -2.25,1.21 -1.09,1.74 -2.36,-0.29 -0.85,2.45 0.72,2.44 -2.31,0.19 -0.35,1.52 -5.03,-0.82 -2.34,0.87 -0.88,-0.67 -1.25,1.65 -2.72,-1.44 -3.95,2.16 -2.82,-0.46 -2.04,0.92 1.05,2.84 -1.88,2.37 0.72,1.43 -1.82,0.89 -1.88,2.71 -3.28,-1.31 -1.58,-3.01 -1.18,-0.35 0.3,2.26 -3.28,2.02 -0.16,2.75 -2.04,0.49 -0.79,-1.75 -1.99,0.02 -3.31,8.86 -3.64,-0.33 -0.41,-1.18 -2.94,1.88 -3.42,-1.01 -0.71,6.13 -2.58,2.94 -2.46,0.68 0.34,0.92 -8.16,-5.65 -0.58,2.84 -0.96,-1.79 -3.81,1.68 -1.84,3.51 -2.14,-1.95 -10.22,1.99 -1.62,2.6 0.17,2.13 -1.33,-0.54 -1.72,1.33 -0.66,1.88 -2.05,0.08 -0.01,2.89 -1.8,0.8 -1.16,2.24 0.46,2.03 -1.86,0.03 0.27,2.27 -0.75,1.17 0.98,1.47 -0.98,1.08 0.86,0.86 -2.99,-0.4 -0.96,-1.97 1.2,-2.41 -3.45,-2.49 0.37,-1.26 1.32,0.8 -0.71,-2.02 -3.45,-0.18 -0.07,-3.34 -0.97,-1.61 -5.32,0.41 0,0 -0.58,-1.54 -2.83,0.16 -0.07,0.62 -3.12,-2.85 -1.27,0.36 0.37,-3.76 -1.19,-1.14 -0.96,0.44 0.26,-1.24 -1.91,-1.55 0,0 0.29,-0.89 -1.82,-0.35 -0.27,-1.26 2.34,-1.35 1.11,0.83 -0.67,-1.72 1.71,-1.59 -2.13,-2.2 -0.03,-1.45 -2.77,0.6 -1.15,-2.04 0.94,-1.46 2.8,-0.42 -0.2,-2.83 3.89,-2.45 -0.29,-1.19 1.22,-1.29 1.17,0.95 -1.08,0.99 2.18,2.13 -1.17,2.59 0.64,1.72 1.76,-0.06 1.28,-0.49 0.23,-2.05 1.41,-0.23 1.42,1.12 2.46,-0.94 -0.14,-0.74 -1.59,0.07 0.87,-4.61 2.6,1.63 0.6,-2.53 4.06,0.85 0.1,-1.44 3.3,-1.91 0.2,-2.09 -3.72,-1.02 -0.51,-2.22 1.23,-1.15 -0.47,-0.95 -2.54,-0.09 0.81,-2.81 1.8,0.49 1.42,-2.17 -0.13,-0.79 -2.12,0.16 -0.21,-3.16 1.81,1.05 0.69,-1.47 0.68,0.86 -0.21,-1.38 0.58,1.07 2.6,-0.39 0.07,-1.44 1.65,-1.64 1.84,0.52 0.83,-0.95 0.24,1.88 1.34,-0.36 0.22,-2.17 2.49,-3.02 1.72,0.19 -0.22,-0.95 0.87,-0.51 1.09,0.72 5.32,-0.95 1.14,0.68 0.97,-1.68 -1.93,-2.02 -1.03,-5.73 -2.05,1.05 -3.1,-1.33 0.91,-0.69 -0.13,-1.83 -1.55,-0.25 -0.49,0.97 -0.25,-4.63 -1.09,-0.32 0,0 -1.07,0.03 0,0 -0.81,-1.77 -2.98,0.88 -1.04,-0.98 -2.03,0.44 -0.31,-1.55 -1.27,-0.78 z"
  />
  <path
		id="st"
		name="Saxony-Anhalt"
		d="m 365.71486,219.2302 2.52,-0.24 -0.88,2.82 3.23,0.37 1.1,3.26 3.03,-1.23 2.8,3.01 3.7,0.87 0.27,1.22 -1.67,2.06 0.77,1.24 2.24,0.03 1.42,1.55 5.7,2.01 2.76,-1.53 5.68,1.43 0.76,-1.83 0.12,4.26 4.4,-2.66 0.41,1.06 2.1,0.69 1.54,5.93 -0.51,1.6 -1.87,0.18 -0.73,3.06 0.84,1.52 -1.48,2.75 0.77,-0.2 -0.21,0.91 1.14,0.79 -0.33,1.55 1.1,0.84 -0.39,4.45 0,0 -0.12,1 0,0 -1.72,1.09 -2.08,-0.67 0.65,5.32 -2.3,4.65 1.75,-0.95 1.19,0.71 -1.46,1.96 1.18,1.88 2.09,-0.52 1.55,-2.14 1.75,2.22 -0.65,0.53 0.71,0.94 3.8,-1.07 -1.38,0.89 1.41,1.11 -2.71,4.93 0.5,0.71 -1.45,0.94 1.7,0.83 -0.48,2.15 0.76,0.85 -1.4,1.29 1.58,2 -1.96,3.13 -1.98,6.68 1.7,1.26 -0.79,0.52 2.39,0.7 -3.19,1.71 -0.05,2.84 -1.25,-0.03 -0.55,1.6 2.76,3.8 0.87,2.9 2.41,1.26 2.92,4.6 1.91,0.46 2.94,2.76 0.97,-0.08 0.71,-1.79 1.15,0.12 0.72,2.02 2.89,1.15 0.25,1.74 4.62,0.36 0.13,-1 1.92,-0.27 0.73,-1.89 0.97,0.08 5.37,2.61 1.55,2.47 4.15,-0.53 0.47,3.38 2.16,0.11 0.19,0.7 1.94,-1.23 2.46,0.42 -0.13,1.29 1.21,0.21 -0.11,2.19 4.62,-0.05 -0.4,2.04 -0.7,-0.01 0.84,0.94 2.55,0.32 2.46,-1.42 1.2,0.21 0.86,1.95 -1.95,0.46 2.61,5.16 -0.95,3.87 1.07,1.75 -0.75,0.63 2.09,2.92 -2.09,0.59 0.51,1.87 -0.81,0.82 -6.09,3.94 0,0 -1.87,0.89 -0.74,-2.73 -2.08,-0.49 0.02,0.73 0,0 -0.38,-0.11 0,0 -0.62,-0.13 0.35,1.41 -1.35,0.11 -0.4,1.16 -0.87,-1.17 -1.93,0.25 -0.45,-1.96 -1.63,0.99 -0.19,-1.84 -1.19,-1.04 -4.67,3.84 -5.1,-1.77 -1.79,3.6 -3.46,1.94 1.06,-1.6 -2.01,0.83 -0.92,-0.72 -2.61,2.45 -2.06,-0.75 -1.31,1.4 -0.31,-1.13 -1.35,0.45 -1.11,-0.79 -1.11,2.78 -5.59,-0.4 0.35,0.6 -3.28,1.93 -3.72,-0.23 0.23,1.11 -2.88,2.92 0.99,3.36 -1.85,0.98 -0.23,1.43 -1.61,0.52 0.56,3 1.57,-0.02 0.55,1.18 -1,1.18 0.72,2.23 -0.86,0.42 1.41,1.28 0.1,4.29 -3.14,0.86 1.58,3.62 -0.42,1.99 1.56,0.82 0.64,2.06 0.27,2.33 -1.06,2.55 -0.86,-0.02 0.02,0.83 2.44,-0.13 -1.07,4.15 2.78,1.02 -0.15,0.9 -1.25,0.12 0.84,1.83 2.83,0.44 0.5,1 0,0 -2.12,5.26 2.35,-0.16 0.27,1.95 -2.89,3.66 -0.95,2.15 0.63,0.76 -1.59,1.63 -0.05,-2.23 -1.45,0.12 -0.48,-1.59 -1.16,1.59 -4.75,-1.77 -4.71,1.04 -0.66,-2.4 -2.35,-0.24 0.02,-2.89 -1.68,-1.07 -1.89,0.49 -1.5,-2.75 -5.89,0.74 -1.48,-0.58 -1.03,1.14 -1.68,-2.58 -2.02,-0.33 -0.15,-2.23 -1.89,-1.85 -2,-0.09 -1.27,1.44 -0.67,-1.42 -2.22,-0.69 -1.83,1.59 -3.71,0.04 -1.53,-1.2 0.34,-1.47 -0.97,-1.84 1.2,-0.27 0.98,-1.65 -0.92,-0.44 -0.05,-2.27 -1.13,0.03 -0.55,-1.76 -3.32,0.55 -0.04,-1.34 -1.56,-0.33 0.89,-2.49 1.08,0.86 1.24,-0.7 2.69,-4.83 1.08,-0.51 -3.85,-3.7 0.78,-0.96 -1.79,-0.3 -0.2,-3.72 -3.33,-0.45 -1.6,-2.54 -4.58,1.4 -0.06,-0.95 -1.69,-0.77 -1.94,1.03 -3.08,0.01 -5.13,-2.72 -0.76,0.95 -3.67,0.28 1.19,-0.76 -2.84,-0.73 -0.22,-3.1 0,0 -0.05,-0.32 0,0 0.68,-1.68 -3.02,-3.88 1.31,-1.75 -2.22,-1.99 -0.95,0.29 0,0 0.03,-0.61 0,0 -0.34,-1.85 0,0 -0.34,0 0,0 0.52,-2.41 2.25,1.08 0.43,-1.16 -1.43,-0.8 0.47,-0.77 -2.28,0.62 -1.85,-2.16 -2.41,1.02 -0.47,-1.66 -2.96,-1.01 -0.68,0.78 -3.4,-0.03 0,0 -1.95,-2.7 -0.04,-4.3 -2.31,-2.57 -0.31,-2.3 -2.38,-1.17 -1.04,-4.36 0.82,-2.55 -0.83,-0.36 0.22,-0.95 3.53,-2.31 1.06,-2.02 -0.06,-1.84 -2.2,-1.27 -0.08,-1.79 2.42,-1.99 -1.89,-0.03 -0.97,-2 -1.34,0.28 -1.46,-3.09 2.05,-1.07 0.34,0.82 1.58,-0.19 2.01,-1.78 -0.47,-1.57 3.29,-0.9 8.22,0.33 3.45,-1.36 5.25,0.32 0.38,-3.01 -2.05,-0.9 0.24,-0.88 2.21,-0.24 3.71,-2.97 0,0 0.55,0 0,0 0.96,-4.01 -2.6,-0.51 -0.37,-2.13 1.02,-1.37 2.93,-0.85 0.64,-0.93 -1.13,-1.31 0,0 -0.58,0 0,0 -0.39,-2.63 -1.56,-0.4 -1.02,-1.82 1.55,-1.32 0,0 -0.02,-0.28 0,0 -3.34,-3.94 3.37,-0.28 2.06,-1.2 0.4,-1.98 -2.53,-1.13 0,0 -0.57,-0.5 0,0 -0.71,0.18 0.03,-1.2 -5.19,-6.3 0.71,-3.44 1.98,-0.77 1.44,0.52 0,0 0.61,0.07 0,0 -4.52,-7.55 0.13,-2.29 2.03,-1.51 0.3,-2.08 -3.61,1.46 -4.96,-8.63 0,0 0,-0.25 0,0 -0.83,-2.32 -1.93,0.26 -0.34,-3.55 -2.34,-3.79 0.7,-6.19 6.44,-1.44 0.84,1.07 1,-1.05 2.74,0.31 3.01,-3.33 0.28,-2.44 0.87,-0.4 5.99,-0.13 -0.03,1.55 3.65,-0.72 4.14,0.76 1.15,1.85 3.3,-1 0.26,1.54 1.15,-0.36 5.83,-2.8 3.31,-3.1 2.91,-0.7 -0.62,-2.13 1.06,-4.75 2.99,0.69 0.21,-1.37 z"
  />
  <path
		id="sh"
		name="Schleswig-Holstein"
		d="m 181.09486,108.6602 -1.36,0.98 1.24,0.16 -0.62,1.59 -1.15,-1.66 0.89,-1.35 1,0.28 z m -14.01,-41.790004 1.3,0.21 -0.29,0.85 1.34,1.39 -1.94,1.67 -1.64,-1.5 -1.03,-2.79 1.26,-1.53 1,1.7 z m 165.67,-8.51 5.62,1.05 3.79,1.88 5.37,11.14 -4.22,-1.08 -3.22,0.54 -0.12,-0.77 2.21,0 -2.47,-0.87 -1.5,0.96 1.27,0.54 -0.59,0.71 -3.67,-0.07 -1.63,-0.79 0.45,-2.49 -0.95,-1.67 -1.44,-0.48 -2.67,0.98 1.58,1.6 -2.51,-1.5 0.1,-4.49 1.22,-2.81 2,-2.62 1.38,0.24 z m -165.12,-0.29 -0.91,4.28 -1.17,-5.25 2.08,0.97 z m 20.71,-2.08 1.26,0.65 -0.91,0.45 -2.08,-0.96 1.73,-0.14 z m -7.09,-0.58 -0.39,3.48 -1.18,0.58 0.98,0.28 -0.42,0.9 0.84,1.01 -0.91,-0.84 -1.15,1.61 -3.33,0.36 -1.78,-2.27 -0.06,-2.24 7.4,-2.87 z m -9.55,-2.29 1.27,2.23 -1.65,0.13 -2.54,-2.17 2.92,-0.19 z m 11.57,-6.72 -0.55,1.3 -1.12,-0.33 0.33,-0.94 1.34,-0.03 z m -4.67,-2.01 -1.02,2.03 -4,0.6 -2.32,1.82 -1.16,-0.89 0.75,-1.15 6.08,-1.45 1.7,-1.61 -0.03,0.65 z m 3.65,-2.97 -0.78,1.5 -1.72,-0.2 1.84,-2.23 0.66,0.93 z m -21.53,5.04 -0.11,0.9 1.33,0.38 -1.24,0.53 0.96,0.9 -2.42,0.45 -4.45,-6.2 4.47,-5.15 -1.37,2.73 1.47,4.32 1.36,1.14 z m 9.08,-12.85 3.91,1.16 -0.24,1.82 1.03,1.17 -2.04,4.31 -5.29,-0.05 -5.42,-2.37 -0.24,-1.96 2.05,-3.07 6.24,-1.01 z m -5.57,-32.6000004 1.77,0.6 -4.43,0.14 0.29,1 1.71,0.22 0.81,2.06 -3.7,1.92 -1.86,3.2900004 1.11,7.58 3.58,2.32 11.07,-1.05 2.19,-1.26 0,-1.39 2.84,-0.08 3,1.94 3.07,0.17 2.32,-1.48 3.05,1.02 2.47,-0.85 3.12,0.25 6.46,3.36 6.15,-0.11 5.77,2.49 0.89,4.46 1.49,-0.21 1.36,1.18 0.73,-0.67 2.42,0.82 2.48,-4.13 1.71,-0.48 1.75,3.48 -0.02,2.41 1.96,-3.79 2.03,0.02 1.09,-1.66 3.54,-2.07 1.1,-2.15 1.54,-0.06 -1.44,3.07 0.98,2 12.03,3.77 3.84,4.81 1.46,0.06 1.17,-2.09 0.71,0.9 -0.01,-3.72 3.27,1.96 2.01,6.72 3.12,3.56 -0.2,1.54 -0.43,-2.11 -1.85,0.48 0.71,2.76 1.63,-0.88 -1.28,1 1.25,0.36 -0.46,11.66 -4,5.24 -6.03,3.19 -2.31,-0.01 2.07,2.87 3.05,-0.48 1.19,-1 -0.57,-0.1 12.9,-2.44 4.75,3.21 -1.91,2.24 1.3,4.98 -1.87,0.55 -0.41,1.8 -0.77,-0.11 0.92,3.45 -1.54,2.84 2.07,-2.19 1.2,0.43 -0.99,-0.57 0.55,-3.1 1.11,-0.59 -0.15,-1.35 2.17,-3.82 3.4,-0.45 1.04,-1.45 1.77,-0.47 4.68,1.28 5.28,3.73 7.59,2.84 6.6,6.44 5.49,-0.85 8.99,-7.58 5.59,0.22 -2.5,0.46 2.93,0.83 3.45,-1.03 0.55,-1.5 1.56,-0.74 -0.22,1.04 0.59,-0.59 0.85,0.7 -0.38,1.67 -3.15,2.97 0.16,-0.91 -1.38,0.04 0.29,0.94 0.66,-0.25 1.34,16.24 -8.99,6.240004 -5.2,6 -3.19,-0.47 -0.7,-1.85 -1.17,3.45 -2.52,2.83 2.12,5.41 5.44,0.71 0.92,1.38 -0.16,2.16 1.36,0.26 0,0 -0.66,3.64 4.59,1.62 -3.45,1.03 -0.54,-0.96 0.61,-0.89 -2.03,-1.03 -2.29,2.96 -1.78,0.37 -0.99,1.91 -1.87,0.39 -1.46,2.29 1.56,6.33 -0.68,2.57 0,0 -0.27,1.83 0,0 2.98,1.51 0.42,1.87 2.45,1.99 4.63,0.29 -0.19,1.01 1.4,0.56 0.65,3.91 -1.46,2.07 -1.19,6.22 -3.84,0.72 -0.74,-1.26 -1.04,0.18 0.73,3.47 -1.23,2.32 0.67,0.76 -2.41,0.33 -1.96,2.93 -3.47,0.51 -0.61,2.4 -2.49,-0.57 -1.31,0.74 -1.09,7.63 -1.33,1.93 0,0 -0.98,0.46 -5.07,-1.49 -7.8,-5.34 -3,-0.1 -1.44,-0.92 0,0 1.13,-1.65 -2.15,-0.34 -3.28,-3.24 -1.9,-4.12 -1.52,0.93 -1.63,-1.11 -0.71,-5.44 3.07,-1.35 -0.5,-2.85 1.96,-2.29 -1.94,-0.51 0.5,-1.01 -0.9,-1.66 -2.63,-1.54 1.04,-1.35 -0.16,-1.46 1.6,-0.55 0.64,-1.56 0.09,-0.75 -1.62,-0.83 -3.03,2.71 -2.58,-0.75 -0.84,1.04 0.66,0.68 -0.82,2.83 -4.24,-0.34 -1.27,3.73 -4.62,-0.65 -1.02,3.15 -3.46,3.9 -2.31,-0.81 -0.2,-1.96 -1.54,-0.49 -0.09,-1.59 -2.61,8.04 0,0 -3.63,-0.89 -7.85,-5.57 -2.84,-8.25 -5.09,-4.77 -3.92,-8 -3.21,-4.36 -6.67,-2.83 -13.06,0.56 0,0 -0.99,-1.86 -2.09,-0.74 -3.19,-3.9 -1.47,-4.87 -1.33,-1.45 1.3,-1.06 -1.36,0.81 -1.74,-3.01 -1.8,-0.1 4.75,-2.33 2.64,0.53 -0.5,1.1 0.84,-0.01 0.03,-0.82 0.4,0.78 1.59,-0.4 1.7,-2.38 -0.06,-0.66 -1.61,-0.11 1.26,-0.59 -1.92,-2.33 0.77,-0.25 -0.87,-0.01 -1.2,-4.05 -2.03,-0.28 -2.28,1.55 0.24,-1.13 -0.39,1.15 -3.12,-5.670004 2.05,-6.56 -0.11,-5.57 -0.82,-0.94 -2.72,1.12 -2.47,-1.19 -2.24,0.33 -2.03,2.44 -2.1,-0.98 -2.72,-4 0.55,2.11 -1.32,-1.19 1.16,1.97 -1.83,-2.48 1.71,-5.06 0.91,-0.27 -0.43,1.16 1.68,0.73 0.85,-1.52 2.24,-0.45 -0.94,0.37 0.99,-1.98 -1.01,0.57 -1.33,-0.58 -0.31,0.74 -2.74,-0.5 0.8,-2.11 12.95,-2.79 3.2,0.77 3.16,-2.16 2.5,-3.3 2.63,-0.58 0.37,-1.49 1.89,0.8 0.85,-0.71 -1.33,0.41 -1.7,-0.8 0.21,-2 -1.4,-2.4 -1.57,0.95 -1.83,4.58 -0.89,-0.28 0.53,0.36 -1.78,1.02 -3.35,-0.07 -2.45,-1.1 0.75,-1.72 -0.78,-1.37 4.37,-3.78 -0.26,-3.4 0.78,-3.11 0.67,-0.06 -1.44,-0.52 0.61,-1.33 -0.93,1.28 -3.29,0.05 -0.29,-0.75 2.96,-1.54 -0.96,0.24 -1.48,-4.09 -4.42,-2.97 -0.48,-3.33 -3.07,-1.56 -0.25,-0.73 1.16,-0.78 -0.81,-3.38 -5.64,-7.81 -0.43,-4.75 -5.55,0.15 -6.2,3.87 -2.35,-1.31 -0.83,-1.86 -1.53,-0.41 -0.35,1.7 -2.19,1.5 -0.11,12.12 -1.13,-1.11 1.04,-17.71 6.25,-15.6700004 1.13,-0.64 1.61,0.73 z"
  />
  <path
		id="th"
		name="Thuringia"
		d="m 308.47486,364.3902 3.4,0.03 0.68,-0.78 2.96,1.01 0.47,1.66 2.41,-1.02 1.85,2.16 2.28,-0.62 -0.47,0.77 1.43,0.8 -0.43,1.16 -2.25,-1.08 -0.52,2.41 0,0 0.34,0 0,0 0.34,1.85 0,0 -0.03,0.61 0,0 0.95,-0.29 2.22,1.99 -1.31,1.75 3.02,3.88 -0.68,1.68 0,0 0.05,0.32 0,0 0.22,3.1 2.84,0.73 -1.19,0.76 3.67,-0.28 0.76,-0.95 5.13,2.72 3.08,-0.01 1.94,-1.03 1.69,0.77 0.06,0.95 4.58,-1.4 1.6,2.54 3.33,0.45 0.2,3.72 1.79,0.3 -0.78,0.96 3.85,3.7 -1.08,0.51 -2.69,4.83 -1.24,0.7 -1.08,-0.86 -0.89,2.49 1.56,0.33 0.04,1.34 3.32,-0.55 0.55,1.76 1.13,-0.03 0.05,2.27 0.92,0.44 -0.98,1.65 -1.2,0.27 0.97,1.84 -0.34,1.47 1.53,1.2 3.71,-0.04 1.83,-1.59 2.22,0.69 0.67,1.42 1.27,-1.44 2,0.09 1.89,1.85 0.15,2.23 2.02,0.33 1.68,2.58 1.03,-1.14 1.48,0.58 5.89,-0.74 1.5,2.75 1.89,-0.49 1.68,1.07 -0.02,2.89 2.35,0.24 0.66,2.4 4.71,-1.04 4.75,1.77 1.16,-1.59 0.48,1.59 1.45,-0.12 0.05,2.23 1.59,-1.63 -0.63,-0.76 0.95,-2.15 2.89,-3.66 -0.27,-1.95 -2.35,0.16 2.12,-5.26 0,0 3.44,-1.33 1.27,0.78 0.31,1.55 2.03,-0.44 1.04,0.98 2.98,-0.88 0.81,1.77 0,0 1.07,-0.03 0,0 1.09,0.32 0.25,4.63 0.49,-0.97 1.55,0.25 0.13,1.83 -0.91,0.69 3.1,1.33 2.05,-1.05 1.03,5.73 1.93,2.02 -0.97,1.68 -1.14,-0.68 -5.32,0.95 -1.09,-0.72 -0.87,0.51 0.22,0.95 -1.72,-0.19 -2.49,3.02 -0.22,2.17 -1.34,0.36 -0.24,-1.88 -0.83,0.95 -1.84,-0.52 -1.65,1.64 -0.07,1.44 -2.6,0.39 -0.58,-1.07 0.21,1.38 -0.68,-0.86 -0.69,1.47 -1.81,-1.05 0.21,3.16 2.12,-0.16 0.13,0.79 -1.42,2.17 -1.8,-0.49 -0.81,2.81 2.54,0.09 0.47,0.95 -1.23,1.15 0.51,2.22 3.72,1.02 -0.2,2.09 -3.3,1.91 -0.1,1.44 -4.06,-0.85 -0.6,2.53 -2.6,-1.63 -0.87,4.61 1.59,-0.07 0.14,0.74 -2.46,0.94 -1.42,-1.12 -1.41,0.23 -0.23,2.05 -1.28,0.49 -1.76,0.06 -0.64,-1.72 1.17,-2.59 -2.18,-2.13 1.08,-0.99 -1.17,-0.95 -1.22,1.29 0.29,1.19 -3.89,2.45 0.2,2.83 -2.8,0.42 -0.94,1.46 1.15,2.04 2.77,-0.6 0.03,1.45 2.13,2.2 -1.71,1.59 0.67,1.72 -1.11,-0.83 -2.34,1.35 0.27,1.26 1.82,0.35 -0.29,0.89 0,0 -6.28,3.38 0,-1.31 -2.9,-1.69 -0.44,0.92 -1.28,-0.43 0.7,0.87 -1.56,-0.32 -1.59,1.3 -0.38,-0.64 -5.31,1.49 -1.98,-1.54 -1.42,0.29 -0.72,1.46 -2.42,1.05 -0.09,-2.1 -2.65,-0.48 0.24,-2.95 -1.16,-0.18 -1.39,1.21 0.49,-1.19 -1.93,-1.26 -0.02,-4.95 0.97,0.24 0.35,-0.79 -0.63,-1.19 -5.42,-0.95 0.07,1 -1.63,0.22 0.05,1.77 -1.29,0.14 -0.71,1.38 -0.25,-0.95 -2.5,0.63 0.03,2.97 1.19,1.85 -0.57,3.04 1.69,3.98 -1.47,0.87 0.94,1.53 -0.95,-0.08 0.51,3.07 -1.13,1.25 0.58,0.48 0,0 -0.26,0 0,0 -0.33,2.02 -3.59,-2.44 -0.31,1.99 -0.92,0.32 0.41,-1.08 -2.3,-0.49 -0.81,-1.41 1.56,-3.05 -1.27,-2.25 -1.27,0.4 -0.17,-1.75 -1.68,0.13 -0.23,1.35 -2.62,0.78 -0.46,-1.6 -2.76,-0.53 0.26,1.59 -0.82,0.16 -3.12,-4.44 -1.27,0.35 0,0 -0.48,0.19 0,0 -1.08,0.65 -0.96,-1.6 -0.89,0.85 -1.92,-0.45 -1.71,1.3 -1.22,-0.53 -2.01,2.65 -2.45,-0.63 -0.18,1.84 0.97,0.15 -0.81,2.35 1.66,0.52 1.84,2.23 2.06,0.16 0.17,1.22 0,0 0.35,0 0,0 2.17,0.39 0.07,3.07 -1.53,0.66 -1.36,-1.39 -2.03,1.02 -2.41,-0.98 -0.11,3.97 -0.83,0.67 -1.07,-0.73 0,0 -0.33,0 0,0 -2.29,-1.79 -1.88,0.69 -1.4,-0.71 -0.65,-1.53 0.86,-0.35 -0.79,-1.4 0.59,-0.83 -1.05,0.02 0.82,-2.12 -0.77,-1.49 0.49,-2.58 -2.43,-0.42 -1.09,-2.6 -0.77,-0.17 -1.12,1.55 -0.18,-0.96 -1.3,0.45 0.02,-2 -0.71,0.18 0,0 -0.47,0 0,0 -1.34,-2.81 -3.64,0.78 -0.68,-1.49 1.16,-1.68 -2.01,-0.64 0.68,-0.75 -0.87,0.12 -1.97,-2.69 -0.44,-2.85 -1.79,0.03 -2.95,-1.94 -1.52,0.2 -0.03,-1.99 -1.48,-0.94 -0.3,-1.38 -1.56,0.24 -0.25,0.9 -1.56,-0.95 -0.52,0.95 -2.19,-2.1 -2.4,2.78 0.11,0.92 -1.96,1.04 0,0 -0.2,-1.31 1.44,-2.66 -1.54,-5.49 0.77,-1.28 2.12,0.09 -1.82,-4.86 -3.41,-0.53 -2.99,0.91 -0.3,1.06 1.2,1.54 -0.5,1.19 -5.32,-1.09 0.17,-2.99 2.79,-2.39 -0.92,-1.15 2.02,-3.36 -0.1,-1.67 -1.07,-0.34 0.26,-1.52 1.76,0.04 -0.62,-2.6 0.58,-2.17 1.42,-1.08 0,0 0.41,0.15 0,0 1.01,0.46 0.57,-1.14 1.34,0.26 0.7,-1.84 -1.06,0.44 0.07,-1.75 2.41,-1.69 -0.08,-0.78 -0.75,0.08 0.2,-1.1 -2.46,-2.16 -2.57,1.39 1.03,-2.39 -1.48,-0.1 -0.68,0.93 -0.23,-1.89 3.94,0.78 0.78,-0.9 0.31,0.6 2.17,-0.73 -1.29,-0.45 -0.14,-1.85 -1.36,-1.41 1.26,-3.19 4.04,0.92 1.07,-0.65 1.74,1.78 3.68,-1.52 -0.72,-1.09 1.39,-0.75 -0.61,-0.93 -4.11,-2.46 0.84,-0.95 -0.58,-1.58 1.87,-3.21 -3.51,-2.32 2.95,-1.4 2.1,4.07 0.81,-1.3 -0.61,-2.59 2.23,-3.5 -2.63,-0.68 -1.92,-1.99 -1.09,0.46 -0.61,-1.36 -1.66,0.55 -2.82,-1.13 0.58,-1.67 -1.95,-1.07 0.53,-2.54 -5.3,-0.6 -0.21,-1.61 -1.9,-0.69 0.58,-1.27 -1.49,-3.53 0.2,-2.13 0,0 4.63,-3 0.58,-1.59 1.82,-0.04 0.52,-1.69 1.4,1.94 0.76,-1.7 1.95,0.43 0,0 0.4,0 0,0 2.34,-0.09 -0.79,-1.25 2.04,-0.22 0.83,-1.77 -0.51,-0.67 1.51,-1.66 0.92,1.56 1.07,0.02 0.79,-1.29 3.37,-1.08 0.55,-2.09 2.24,-0.45 2.4,-4.51 0,0 0,-0.61 0,0 -0.65,-1.91 3.63,-0.48 0,0 0.38,0 0,0 3.94,1.96 1.54,1.95 2.67,-0.23 2.87,-2.39 3.23,2.15 0.57,-1.76 -1.71,-0.88 -0.28,-2.32 0.91,0.05 -0.63,-1.35 2.78,-0.88 -0.43,-0.94 z"
  />
</svg>
