<svg
	xmlns="http://www.w3.org/2000/svg"
	viewBox="0 0 613 445"
	aria-label="Map of Hong Kong"
>
  <path
		id="cw" 
		name="Central and Western"
		d="m 335.74249,304.84733 1.36,3.12 -0.03,3.99 -1.66,1.79 -0.86,3.65 0,6.39 -2.13,3.65 0,0 -1.72,1.41 -1.28,-0.46 -2.13,0.91 -1.7,-0.46 -2.13,-1.83 -1.69,0 -1.7,3.65 -5.52,3.19 -1.28,-0.91 0.42,-2.74 -2.97,-2.74 0.42,-1.37 -2.13,-4.11 -1.27,-0.91 -2.13,-4.56 -2.97,-2.74 -2.98,-1.83 -4.67,0 -3.4,1.83 -5.1,0.08 0,0 -2.24,-2.09 0.56,-4.52 1.68,-2.41 7.01,-2.41 0.56,-2.41 2.53,-0.6 1.12,-1.21 2.25,0 0.55,-1.51 1.4,-0.9 3.09,0.3 3.08,-1.51 7.02,0.3 3.37,1.51 1.12,-1.21 1.4,0 0.56,1.21 0.84,0 0,0.9 7.57,0 -0.28,4.82 1.4,0.9 3.64,0.6 1.02,1.24 z m -53.72,-4.52 1.12,0.6 0.28,1.51 -3.92,1.21 -0.29,-2.11 1.4,-0.3 0,-0.9 1.41,0 z"
	/>
	<path
		id="ea" 
		name="Eastern"
		d="m 346.78249,302.73733 0.28,-1.21 4.49,-0.3 0,-0.6 0.56,0.3 2.24,-1.81 2.52,0.61 0.56,-2.11 2.81,-1.51 2.24,-3.01 3.08,-0.61 2.53,-1.8 3.36,0.3 0.28,-0.91 1.4,0 1.96,1.51 2.53,-0.3 1.12,1.51 3.64,0 0,0.6 2.81,0.9 0.56,1.21 1.96,0 1.96,1.49 1.12,0.02 4.49,3.01 0.56,2.71 1.68,1.2 3.93,-0.9 2.24,-1.51 1.13,0.31 1.67,2.41 2.53,1.2 2.24,2.41 0.84,3.92 1.4,1.5 0.84,0 -2.24,4.22 0.28,1.81 2.52,-1.81 -0.28,-1.51 0.84,-1.5 1.4,3.01 1.68,0.3 1.69,2.09 1.68,0.32 0.28,1.51 4.77,4.21 0,1.21 -1.12,0.6 0,5.72 -0.84,0.6 1.4,2.41 -3.08,4.82 -1.97,-0.9 -1.35,1.77 0,0 -3.48,-6.92 -2.97,-0.46 -2.55,-2.28 -3.41,-0.91 -1.69,0 -3.4,2.28 -2.13,0 -2.55,-2.74 -8.07,-0.45 -4.25,-1.37 -1.7,-2.29 -4.67,0.46 -3.82,1.83 -2.13,-0.92 -3.4,1.37 -2.48,-0.25 0,0 0.96,-6.7 7.34,-5.83 -0.06,-3.27 -4.91,-4.49 -0.85,0.91 0,1.36 -2.85,1.75 -2.56,-2.97 -3.08,-6.99 -4.89,2.45 -0.24,-1.12 -1.85,-1.15 z"
	/>
	<path
		id="is" 
		name="Islands"
		d="m 178.29249,357.24733 1.12,0.9 3.37,0.3 0.84,1.51 1.4,-1.21 0.56,1.21 1.39,0.3 0.01,0.6 -2.24,0.9 0.84,1.81 -0.29,0.9 -0.84,0 0.29,0.6 -2.81,1.81 -3.08,0.61 -1.96,2.41 0.56,1.8 -4.49,1.21 -1.68,4.21 -3.09,0 -0.84,-0.9 0,-1.51 -1.4,-0.6 0,-0.6 -1.68,0 -2.53,1.5 -0.56,1.51 -1.12,0.6 -1.69,-0.3 -1.12,0.9 -0.55,2.71 -1.96,-0.6 -1.12,0.6 0.29,-2.71 -0.56,-0.9 -2.53,0.3 -3.37,-2.41 0,-1.2 1.69,-1.2 1.96,-4.22 -4.2,-4.82 -1.96,-0.3 -0.55,-1.5 1.12,-1.21 0.29,-3.01 1.96,-1.5 0.84,-2.71 -3.09,-2.41 -1.4,0.3 -1.12,-1.21 -2.8,-0.3 -1.41,1.21 -2.24,0.6 -0.56,1.5 -3.08,1.21 -1.13,-0.3 -2.52,1.81 -0.29,1.5 0.56,0.3 -0.84,0.9 -1.96,-0.3 -1.13,1.21 -1.12,0 0,0.6 -1.13,-0.9 0.28,-1.81 -1.68,-0.6 -2.8,0.6 0,-0.6 -0.84,0 -9.82,3.31 -0.55,1.51 -1.13,0 -1.12,1.5 -2.8,-0.3 -1.4,0.9 -0.56,1.81 -1.119999,0.9 -4.77,1.81 -1.69,-0.6 -1.12,-2.11 -2.53,0.6 -0.28,1.2 -0.85,0.3 -0.56,2.71 -2.8,0.9 0,2.41 5.33,1.5 0,-0.9 2.24,-1.5 0,0.6 4.49,1.5 0.56,0.6 -0.55,6.04 1.96,1.21 -0.29,0.6 -3.08,-0.3 -1.69,0.9 -1.12,-0.3 -1.4,0.6 0,0.6 -4.2,1.21 -0.85,-0.6 -0.28,-1.5 -1.4,0 -0.84,-2.41 -2.53,-0.3 -0.84,0.3 -0.84,4.82 -1.12,0 -0.84,0.9 -1.12,-1.2 -2.8,-0.9 -2.8,-3.01 -1.4,0.61 -0.56,-2.41 -0.84,0 -0.84,-1.51 -2.25,0 -0.55,-0.6 -0.56,-3.01 -1.12,-1.2 0.84,-2.11 0.85,-0.3 -0.29,-1.51 -3.93,0 -0.28,0.6 -0.56,-1.81 -1.68,-0.3 0,2.71 -2.25,1.51 -1.4,-0.61 0,-1.5 -2.8,0.3 -3.92,3.31 -0.85,2.71 -2.24,1.2 1.12,3.91 -1.69,0.61 -0.84,-1.21 -1.96,0 -1.96,1.81 -0.84,0 -2.24,3.91 -1.4,0.6 0,1.5 -0.84,0.3 0,1.2 -1.13,1.21 -0.56,-0.6 -2.24,0.6 0.28,-2.41 -1.96,-0.3 -1.68,0.3 -0.84,1.21 -2.53,-0.3 -0.28,0.9 -3.37,0.6 -1.13,1.21 0,1.2 1.69,0.91 0,1.21 -1.12,0 -0.56,1.5 -2.8,-1.2 -1.96,0 -1.12,1.2 0.29,1.5 -1.13,0.3 -1.68,-2.71 2.52,-1.5 0.01,-3.91 2.24,0 0.28,-2.41 -0.84,-0.9 -1.69,0 -0.55,0.9 -0.29,-0.9 -1.65,-0.6 -0.3100002,-1.2 -2.52,-1.21 0.28,-2.11 -0.56,-1.21 0.85,-2.11 1.12,0 0.29,-3.61 -3.93,-3.31 0,-6.62 0.56,-0.9 -0.29,-0.6 -0.84,0.3 0,-1.81 1.69,-1.81 1.12,-5.72 3.9300002,-0.9 3.93,3.92 0,0.9 1.12,0.3 2.24,-3.91 -0.84,-2.71 0,-3.31 -1.4,-0.9 1.13,-3.31 1.68,-0.3 1.96,-1.51 4.2,0 3.37,-2.71 -0.28,-4.22 -2.53,-0.61 0.56,-1.5 -3.09,-0.6 -0.28,1.21 -1.12,0 -0.55,0.9 -2.83,0 -1.12,-2.41 0,-1.81 2.79,-1.81 0.57,-2.11 2.24,-0.3 1.96,-1.21 2.53,0.3 1.12,2.41 1.69,0 1.12,-2.41 1.4,-0.9 1.4,-3.01 0.56,0 0.56,-3.31 1.96,-1.21 4.21,0.3 1.96,-1.51 2.8,-0.3 1.68,-2.41 2.25,0.9 0.28,1.8 1.13,0.3 0,1.51 1.96,-0.9 0,-3.31 -0.85,-0.3 -1.12,-2.11 0.28,-3.61 6.17,-2.71 1.96,-2.11 -0.28,-1.8 0.84,-2.71 -0.56,-1.81 0.56,0 0,-1.2 1.68,-0.3 0.29,-2.41 0.56,0.9 2.52,-0.61 0.29,2.11 2.24,0 0.28,-1.51 1.4,-0.9 0,-1.21 3.09,0.3 0.56,0.9 0.84,-0.3 0.84,1.81 1.96,0 0,-1.21 2.53,-0.6 0.84,-1.2 1.4,-0.3 0.28,0.9 3.09,0.6 0.28,0.9 2.8,-0.3 1.96,1.51 0.84,1.8 0,3.01 1.13,0.6 0.84,1.81 0.84,0 -0.28,1.2 0.84,0.3 0.85,1.81 1.4,0 1.12,-0.9 1.959999,0.6 -0.839999,-2.11 1.659999,-2.11 0.3,-0.9 -0.56,-0.3 4.48,-8.13 1.96,0 0.85,-1.51 1.68,0 0.84,1.51 2.8,0 0.85,-1.51 7.57,-0.9 4.21,-2.71 4.77,-0.6 6.72,-2.11 6.97,-3.92 2.56,-2.71 0,-0.9 2.53,-2.11 4.77,-2.41 5.33,-0.9 2.24,-2.26 0,0 42.05,0.45 0,0 0,2.42 0.85,1.21 -2.53,1.51 -1.69,0 -1.4,-2.71 -3.08,-1.22 -0.29,0.89 -3.66,2.44 -6.15,-0.61 -1.12,3.02 -1.69,0.3 0.84,2.11 -0.84,2.41 3.37,0 0.84,2.41 -2.24,1.2 -2.53,0.3 -0.56,2.41 1.41,0.9 1.96,-0.9 1.4,1.51 0.85,-2.11 1.12,-0.3 1.12,1.2 0.84,-1.81 1.12,-0.3 1.12,3.92 2.25,3.01 0,1.51 -0.87,0 -0.28,-0.9 -3.64,0.6 -2.25,-2.41 -1.12,0 -0.56,0.9 1.12,2.11 0.84,0 -2.24,1.81 0.84,3.92 0.84,1.21 1.96,0 0.56,0.9 -0.29,2.71 -0.84,0.6 1.4,2.71 -1.96,0.6 0.29,1.81 -0.85,0.6 1.96,1.81 0,1.5 -1.12,1.51 0,1.51 0.84,0.6 -1.12,1.5 0.29,1.81 -2.25,-0.6 -2.52,1.81 -3.09,-0.6 -1.12,-0.9 -2.25,0 -0.84,-2.71 -3.08,-0.3 -0.85,-1.81 -2.52,-1.51 -2.25,0 -2.24,3.01 0.56,2.41 3.37,1.81 -0.29,2.41 3.09,0.9 0.56,1.5 1.4,0.9 2.53,5.72 1.12,0 0.84,1.2 0,2.11 -2.24,0.3 -1.96,1.21 -0.28,0.9 -2.24,0.9 -4.21,0.6 -1.4,3.31 -5.88,2.71 0,1.81 1.96,0.6 0.55,0.9 2.53,-1.2 0.56,2.11 1.12,0 1.96,2.11 1.12,3.31 1.13,0.6 2.8,0.3 1.68,-2.41 1.12,0.3 0.86,1.8 z m 114.94,59.91 -0.29,-2.11 -1.68,-1.5 -0.84,0.3 -0.85,1.81 -2.8,-0.3 -0.84,-1.21 -3.08,-1.2 -0.85,-2.41 1.4,-4.52 1.41,-0.3 0.55,0.6 1.4,-2.41 1.69,-0.3 0,-5.12 0.56,-2.11 0.84,-0.3 0.28,-6.02 -0.56,-0.6 1.12,0 0.29,-1.2 -2.24,-0.9 -0.82,-1.21 0.25,-1.21 1.4,-0.3 -0.28,-2.41 0.84,-0.61 0,-0.9 -1.4,-1.51 0.56,-1.5 -0.84,-0.9 0,-2.11 -0.56,0 0.28,-1.5 -2.52,-0.6 -1.12,-1.2 -2.53,0 -0.84,4.21 -10.37,0 0,-2.41 1.69,-1.81 0,-1.21 3.08,-3.31 3.36,-1.5 -0.27,-0.9 -1.69,0 -0.28,-1.2 0,-0.9 1.68,-1.21 -0.06,-1.51 -3.58,-1.5 -0.84,-1.81 3.6,-1.51 0.89,-1.5 2.24,-0.3 2.53,-1.5 1.69,0 1.12,-3.01 0.84,0.3 0.29,1.5 2.8,0.3 0.56,1.5 0.84,0.3 -0.28,3.92 -2.25,0.6 -0.28,1.81 0.84,3.6 2.52,0.91 2.19,1.81 0.06,2.71 -0.56,0.6 1.13,0.3 2.24,3.31 3.09,0.6 0.28,-1.5 2.8,-0.9 2.52,2.41 -0.28,3.01 -1.4,0.3 -0.55,-0.6 0.84,2.71 -3.93,0.6 -4.77,5.12 -0.56,3.01 2.8,3.31 1.12,-0.6 0,-2.71 2.24,-0.9 2.8,-2.41 5.33,-0.3 4.77,1.81 0,-1.5 1.13,-0.3 0.28,-2.11 1.96,0.3 0,-0.9 1.68,-0.6 1.4,0 1.13,2.71 6.17,-0.3 1.4,2.1 -0.56,2.11 -1.4,0.6 -1.12,2.11 -3.09,0.3 -1.96,-2.71 -1.4,-0.3 -0.84,1.2 -1.4,0 0.56,0.6 -0.29,1.51 -1.4,0 -0.55,1.2 -1.12,-0.3 -0.28,3.31 -1.68,0.3 -0.56,1.21 -3.37,-0.6 -0.28,3.01 2.53,-0.3 0.84,1.21 0.28,3.01 5.05,8.73 0.28,3.31 -1.13,-0.6 -0.28,-1.51 -1.4,-0.3 0,-0.6 -1.69,0.3 -2.24,-3.01 -1.4,-0.3 -0.84,-1.5 -1.69,-0.6 -1.12,-1.2 -0.29,-1.81 -2.24,1.81 0,1.2 3.09,6.32 -0.29,5.42 -2.8,-1.2 -2.53,-4.82 -3.92,3.92 0,1.51 -2.25,0.89 -1.13,-0.62 z m -212.499999,-152.08 5.04,-1.2 0.56,-0.9 13.17,-4.52 5.049999,0.9 -2.53,0.9 0,1.51 3.93,-0.9 1.68,0.3 0.29,-0.6 1.68,0.6 0.56,-1.51 1.4,0.6 0.28,-0.9 0.84,0 0,3.61 -1.12,2.41 -0.84,0.3 0.28,1.2 -3.08,4.82 -1.13,0.61 0,1.51 -0.84,0.9 -0.56,3.92 1.12,2.11 -2.24,2.41 -1.12,-0.61 0.28,4.22 1.68,4.22 -5.319999,4.82 -0.85,0 -0.84,-1.5 -5.04,-0.3 -10.66,-3.92 -1.68,0 -0.29,0.6 0,-0.6 -5.04,-0.3 -2.24,0.9 -5.05,0.3 -2.8,1.21 -4.2,0 -0.56,-1.21 -3.36,0.9 0.55,-1.51 1.96,-0.6 1.96,-3.62 2.53,-1.81 0.56,-1.51 -2.53,-3.31 0,-2.41 -2.8,-1.21 -3.37,0.6 -0.28,-1.21 2.53,-0.6 0.84,-2.41 3.65,-0.61 17.95,-6.6 z m 340.619999,170.15 0,-1.21 2.52,-2.71 -3.37,0.9 -1.12,-1.2 0,-1.21 0.84,-1.81 1.13,-0.6 0.84,-3.31 4.48,-4.82 6.73,-1.5 0.29,-2.71 1.96,-0.3 0.28,-0.6 0.84,0.3 0.84,2.1 3.93,2.11 0.84,3.61 0.56,0 -1.12,4.52 2.52,3.91 0,3.31 -3.64,0.6 -2.24,-0.9 -2.53,0.3 -0.28,-1.81 -1.12,-0.3 -0.84,1.8 -2.53,2.11 0,2.41 -2.8,2.71 -2.24,0.9 -0.85,0 -0.28,-0.9 2.53,-3.31 0,-0.9 -2.25,-1.21 -3.92,-0.28 z m -1.4,-0.31 -0.29,0.9 -1.12,0.3 0,0.9 2.52,-0.3 0.29,-1.51 -1.4,-0.29 z m -234.37,-43.34 2.8,0 0.84,-0.6 1.4,-3.92 2.53,0 2.24,-1.81 -1.68,-3.61 -3.37,-0.6 -0.84,-2.11 0,-0.9 1.96,0.3 0.85,-0.6 0.28,-2.11 1.12,-0.3 -0.29,-1.5 -1.4,-0.6 0.84,-2.11 1.96,-1.2 0.29,-0.9 3.92,0 0.56,0.6 0.84,-1.5 1.96,-0.9 0,1.51 1.4,0.6 0,0.9 -0.84,1.5 -2.8,1.81 3.37,0 0.28,1.5 -3.37,1.51 -1.96,0 -1.69,1.5 0.28,2.71 1.68,3.01 2.53,1.81 1.68,0.3 1.13,-1.51 1.68,0 0.56,1.51 1.68,1.2 -1.4,1.21 0,1.81 -2.8,1.21 -0.28,2.11 -1.12,-0.6 -1.4,-2.71 -0.84,0 -0.56,0.9 -1.68,0 -2.53,2.11 0,1.2 -1.4,0.9 -1.68,0 0,1.81 -1.12,-0.3 -0.28,0.6 -1.96,0 -0.29,-1.5 -2.8,0.3 -0.28,-2.41 -0.84,-0.6 0,-1.21 0.84,-0.32 z m 11.77,-62.33 0,0.9 3.37,-0.61 6.73,0.9 1.96,-0.6 2.24,0.9 1.4,2.11 -1.4,6.02 1.68,1.5 1.4,3.01 -0.56,3.31 -1.4,1.5 -1.68,0.6 -3.09,-2.11 -0.55,-2.41 -1.69,-2.11 0,-2.71 -3.64,-0.9 0,-1.51 -0.84,-0.3 -0.85,-1.81 -5.32,-0.3 -1.4,-3.01 1.68,0 -0.28,-2.11 2.24,-0.26 z m -118.859999,95.44 0.55,2.11 2.53,-0.3 1.4,0.9 -0.28,2.11 -3.36,0.6 0.28,3.01 1.69,0.3 0.28,2.41 1.12,1.2 -0.56,0.6 -1.4,-0.9 -1.96,0.3 -0.56,1.81 -1.4,0 -0.56,-0.9 -1.96,0.9 -1.68,-0.3 -0.56,1.5 -3.08,0.9 -0.56,-1.21 -1.96,-0.6 0,-0.9 -1.39,-0.6 0.82,-3.31 3.37,-1.81 1.96,0 0.56,1.5 1.12,0 0.56,-1.81 0.84,0.6 1.69,-1.5 0,-1.5 -1.1,-0.6 0.54,-3.31 1.69,-1.21 1.37,0 z m 76.529999,-20.17 -0.56,-1.51 -1.96,0 -0.56,-1.21 -1.96,-0.3 -0.84,-1.5 0.84,-5.12 4.21,-4.22 2.53,0.3 2.52,2.71 -0.28,1.2 0.84,1.51 -1.12,0.6 0,1.81 1.12,0 0.28,-0.9 1.68,0.3 -0.28,5.72 -3.37,1.21 -0.56,1.5 -2.53,-2.1 z m 269.98,-0.3 1.68,1.81 -0.55,6.02 -1.69,1.8 -3.37,1.81 -1.68,-1.51 -1.96,0.3 -0.84,-1.21 -1.13,0 0,2.71 -1.13,0.3 0,-1.51 -1.4,-1.5 0.56,-3.31 -0.56,-3.91 12.07,-1.8 z m -213.35,-111.12 0.84,2.71 -3.93,2.41 -0.56,1.81 1.12,0.9 0.84,-1.81 3.93,0 1.13,3.31 -2.53,3.92 -2.24,0 -2.79,1.51 -0.29,-1.51 -1.68,-0.9 -0.84,-1.51 0.28,-1.8 -1.96,-2.11 0.28,-1.81 -0.85,-2.11 9.25,-3.01 z m -138.209999,113.23 0,0.6 3.09,1.21 1.12,2.71 2.25,0.6 0.28,-0.9 1.4,0 1.69,2.41 1.12,0 0.84,-0.9 0.85,0.3 1.68,2.41 -0.56,2.41 -1.12,0 -0.29,-1.2 -1.96,-1.5 -0.84,0.3 0.84,1.81 -0.55,1.51 -1.41,-0.3 -0.55,-2.41 -0.56,1.2 -1.4,0 -0.29,-1.5 0.56,-0.9 -0.84,-1.5 -3.37,0.6 0,1.81 -1.4,0.3 0,1.2 -2.53,-0.6 0,-2.11 1.13,-1.5 -0.84,-1.2 0,-1.81 0.56,-2.71 1.1,-0.34 z m 148.859999,-83.41 1.69,1.81 -0.84,3.31 -4.77,3.62 -3.09,-0.9 -1.13,-1.5 0.85,-3.62 1.4,-0.3 0.84,-1.81 5.05,-0.61 z m 238.02,81 0.85,1.5 -1.96,3.92 0.56,1.51 -0.56,2.71 -1.13,0.9 -3.64,-0.6 -1.13,-1.2 -0.56,-4.51 1.4,-0.9 1.41,0.6 0.84,-3.31 1.68,-0.3 1.13,0.9 1.11,-1.22 z m -213.35,-104.8 0,5.12 -4.2,0 -1.12,-2.41 1.96,-1.81 1.96,0 1.4,-0.9 z m 227.09,114.13 -0.56,0.9 -0.85,0 -0.84,-1.8 1.69,-0.9 0,-0.9 1.12,-0.9 0.56,-3.92 1.69,-0.6 -0.29,3.91 -2.52,4.21 z m -471.8299992,-39.44 0.29,0.6 1.1,-0.6 0.86,0.9 -0.56,2.11 -1.4,0.9 -0.84,-0.3 0,-1.51 -1.39999998,-0.6 0.28,-1.5 1.66999998,0 z m 302.2099992,-8.73 0,2.41 -1.68,0.9 -1.96,-0.6 1.12,-2.41 1.41,-0.9 1.4,0 -0.29,0.6 z m -213.899999,74.66 0.28,2.71 -1.12,1.5 -1.13,0 -0.56,-2.1 1.69,-2.11 0.84,0 z m 136.249999,-144.23 1.13,1.51 0,1.2 -2.25,0.6 -0.28,-1.21 -1.4,-0.9 2.8,-1.2 z m -158.679999,126.47 0.56,0.3 -0.56,2.11 -1.96,-0.61 -0.29,1.21 -1.4,0 -0.84,-0.9 0.28,-0.6 3.36,-0.6 0.85,-0.91 z m 22.15,-7.52 0.84,1.5 1.68,0.9 -0.28,1.2 -1.13,0 -1.4,-1.2 -0.55,-2.11 0.84,-0.29 z m -18.5,5.12 0.56,2.98 -0.85,0.33 -1.12,-0.6 -0.29,-1.5 1.7,-1.21 z"
	/>
	<path
		id="kc" 
		name="Kowloon City"
		d="m 374.03249,247.11733 0,9.59 -2.13,2.28 6.8,6.85 0.85,1.83 -1.09,0.3 0,0 -4.48,-2.59 -0.57,-1.2 -1.12,-0.31 -2.24,-2.41 -0.56,2.11 2.24,2.41 1.68,0.61 1.97,2.71 1.11,0.3 0,0.9 3.93,2.72 0,0.9 2.24,-0.3 1.13,0.6 -0.29,0.9 1.12,0.91 0,1.5 1.64,1.51 0.05,1.2 -1.41,1.21 -2.8,-2.11 -2.8,-3.61 -3.08,-2.11 -8.41,-9.04 -2.81,-1.81 -1.4,1.21 -0.56,2.41 -0.56,0 0,1.2 -1.4,1.21 -0.29,1.2 1.4,2.71 0,1.81 0.85,0.3 -0.85,7.23 -2.8,2.11 -1.12,0 0,0.6 -2.24,-0.3 -1.12,0.6 -0.56,1.81 -0.59,0.01 0,0 -0.13,-5.25 -2.12,-1.37 0,-1.83 -6.79,-9.13 -2.56,-6.85 -0.85,-3.2 1.71,-4.11 0,0 2.12,-5.48 0,-5.03 -1.7,-4.11 -2.55,-1.82 0,-1.37 1.27,-1.83 -0.42,-1.83 0,0 1.28,-2.28 5.52,0 0,0 1.7,2.28 0,1.83 1.27,0 1.7,1.37 -0.85,4.11 2.55,1.37 0,3.66 1.27,0.45 0,2.29 1.7,0 1.28,-1.37 1.7,0.45 2.97,2.29 6.8,-4.57 2.55,0.46 z"
	/>
  <path
		id="ki" 
		name="Kwai Tsing"
		d="m 315.82249,235.69733 -0.63,1.79 1.05,0.95 -2.55,2.28 -2.13,-1.37 -2.55,1.37 -1.27,-0.91 -4.25,-0.91 -1.7,2.28 -1.27,-0.46 -1.28,0.46 0.86,1.83 3.82,0.91 0.19,3.52 4.48,1.05 0.22,3.34 -1.14,2.69 -8.59,7.44 2.06,3.72 0,0 -1.46,0.9 -3.08,0 -6.73,-5.12 1.13,-3.62 1.96,0.6 10.1,-3.61 -0.28,-1.81 -1.69,-0.3 -5.04,1.81 -1.96,-0.9 -1.68,-7.84 4.77,-1.2 -0.29,-1.51 -1.4,-0.3 -3.93,1.51 -0.55,-3.31 -3.09,-7.84 -0.84,-0.3 -1.4,1.21 -3.09,-2.71 0.29,-7.23 -1.69,-3.32 -1.4,0.6 0,-1.2 -0.56,0 0.56,-2.27 0,0 0.38,-0.11 0,0 0.2,0.02 0,0 7.85,-4.03 4.25,-6.85 12.15,-0.91 -0.26,-5.03 1.28,-2.74 -0.42,-1.37 -1.7,-0.46 0,-1.37 8.93,-2.28 0.85,0.91 -1.22,2.12 0.38,2.9 2.97,0.46 2.13,-1.37 0,0 0,2.74 -1.28,1.37 -2.55,0.46 -0.85,2.29 2.55,3.2 -2.13,1.37 -0.85,2.28 1.7,4.11 -0.43,1.37 -1.69,0.91 -2.55,3.65 0.85,9.14 2.97,1.37 0,1.37 2.52,2.26 z m -47.26,-20.34 4.2,0.6 3.93,2.41 -0.29,6.03 1.96,3.01 -0.28,1.81 1.4,2.11 1.4,0.6 -1.12,4.82 0.28,1.2 1.96,1.51 -0.55,2.41 1.4,2.71 -1.69,2.71 0.56,2.11 -1.13,0.3 -0.84,3.31 -1.96,1.21 -0.84,3.32 -1.68,0 -2.25,-3.01 -1.96,0 -0.84,1.2 -1.12,0 -1.96,-0.9 -0.84,-2.11 -2.25,0 -0.84,0.9 0.28,3.01 -3.36,0.3 -3.65,-5.12 1.13,-4.52 1.4,-1.81 -0.56,-1.51 -0.84,0.9 -0.56,-0.3 0.28,-1.2 0.85,0 0,-0.61 -1.12,0.3 0,-3.92 1.68,-0.3 -1.4,-0.9 -4.2,-0.6 -1.12,-1.81 0,-2.71 -2.25,0 -0.84,-2.41 0,-2.11 0.84,-1.51 -1.12,-3.32 -1.4,-1.51 0.28,-1.21 4.49,-2.71 2.52,-0.3 0.85,-2.11 1.96,0.3 0.56,2.11 1.69,0.3 3.08,-2.11 3.37,0 0.84,-0.9 1.67,0 z"
	/>
	<path
		id="ku" 
		name="Kwun Tong"
		d="m 392.30249,248.02733 5.95,-0.45 2.98,6.39 1.27,5.02 1.28,1.37 1.69,0 3.4,2.29 1.7,0 0.85,-1.37 1.28,0.45 -0.85,3.66 -2.13,2.28 2.98,0.46 1.69,1.82 -3.39,5.48 -2.13,1.37 0.85,2.74 1.7,0.46 0.43,1.37 1.27,0.46 0,2.74 1.27,1.37 0.43,4.11 -3.4,-0.92 -0.85,1.37 0.85,0.91 -0.85,0.92 1.28,2.74 -1.71,2.28 1.28,0.91 0.43,1.83 1.37,-0.37 0,0 -0.84,0.91 -1.12,0 -4.2,-1.2 -0.84,-1.21 0.27,-2.71 -5.04,-4.52 -2.52,-4.52 -5.33,-4.22 -1.97,-2.11 -0.56,-1.8 -4.2,-3.62 -0.56,-2.41 -3.36,-1.81 -3.65,0 -0.84,-2.53 0,0 1.09,-0.3 -0.85,-1.83 -6.8,-6.85 2.13,-2.28 0,-9.59 0,0 4.25,0.46 2.13,-0.92 2.97,2.74 z"
	/>
	<path
		id="no" 
		name="North"
		d="m 387.15249,40.727329 1.4,-1.51 2.24,-4.83 4.2,1.51 0.84,-1.21 2.53,-1.21 0.29,-2.41 1.12,0 2.53,1.81 2.8,-1.21 0.28,-1.51 1.69,-1.21 0.84,-5.73 2.24,-2.72 0,-3.02 0.85,-0.61 0.55,-2.71 1.12,-0.3 0.84,0.9 1.13,-1.21 1.68,0.3 0.56,0.6 0,3.02 1.4,1.51 1.69,-1.21 -0.29,-1.81 2.53,0 1.13,1.51 0.84,0 0.28,-3.62 2.8,0.3 0.84,1.21 1.13,-0.6 0.84,0 0,0.6 -3.37,3.32 0.29,0.9 3.64,-2.11 1.4,0.3 -0.84,1.51 -2.8,0.6 -0.29,2.41 -2.52,2.72 0.28,0.9 1.69,0.61 1.96,-1.21 0.55,-1.51 2.25,0.3 1.12,1.51 -1.96,3.32 0,1.81 1.13,-0.6 1.13,-2.41 2.8,0.3 0.84,1.81 -0.56,2.11 -2.53,0.3 -1.4,1.81 -0.84,2.41 0.84,3.62 2.53,0 0.84,-1.51 2.53,0 0.56,1.21 3.36,0 1.68,-2.11 -1.12,-1.21 0.55,-1.21 1.96,1.81 5.33,-0.9 -2.8,5.13 0.84,1.81 1.96,-0.6 1.68,-2.11 1.96,-0.91 1.13,0.3 0.28,2.41 -0.84,0.3 0,0.91 -3.08,1.81 -0.56,2.72 -2,0.34 -0.28,2.72 -0.85,0 0,2.41 -0.84,0 -1.13,-2.11 -1.96,-0.91 0,-0.6 -2.25,-0.3 0,1.21 0.85,0 -0.85,2.11 2.25,0.3 -1.13,3.92 1.4,1.51 0.56,0 0,-1.51 1.96,-0.6 7.01,-0.61 0.28,1.16 -1.12,1.55 4.2,0 0.28,1.81 1.13,0.6 0,-2.11 2.8,-0.61 0.56,1.21 0.84,0 0.84,2.72 2.24,0.3 1.41,-1.51 -1.13,-0.6 0,-0.91 1.4,-1.51 -1.4,-1.81 -1.12,0 -1.12,-1.81 5.04,0 0.84,-0.9 1.13,0 0.84,0.6 0.28,1.51 1.69,0.91 0.84,-2.72 0.84,-1.21 1.4,0 0.56,-2.71 1.96,-1.81 0.29,-1.51 -1.13,-1.51 0.56,-3.62 -1.13,-0.91 0.28,-1.21 6.73,2.72 1.96,3.62 -0.84,0.6 0.28,0.9 2.53,0 1.96,2.11 -0.29,1.21 -1.12,0 -1.13,2.41 -1.4,0.6 -0.84,1.51 -4.49,1.21 -1.68,2.72 -1.09,0 -2,-1.51 -2.24,0.6 -1.68,3.02 -1.69,0 -4.21,2.72 0.84,1.51 1.96,0 2.53,2.7 1.68,0.62 1.4,-1.81 3.37,-1.81 2.8,0 1.96,-1.51 5.05,0 5.32,-2.11 2.53,-0.3 2.53,-3.02 4.72,-2.11 0,0 0.61,1.64 -2.13,1.37 -1.28,2.74 -3.82,2.74 -4.25,0.46 -7.22,5.03 -1.7,2.29 -2.55,0.92 -9.35,6.4 -1.27,0 -4.25,-2.29 -2.55,0 -1.28,-1.83 -8.92,-5.03 -6.37,-0.46 -2.98,1.83 -2.97,0 -1.27,-0.92 -1.7,1.37 -2.55,0 0.42,1.37 -0.85,0.92 -2.56,0.46 -12.32,-0.46 -2.13,-1.83 -4.25,-5.94 -2.97,-1.83 -0.42,-2.28 -2.13,0.46 -0.85,0.92 0.42,2.74 -0.85,0.91 -1.28,-0.46 -2.55,2.28 -2.55,0.91 -1.7,3.66 -1.7,1.83 -2.9,0.93 -0.85,0.92 -0.86,4.11 -4.24,-3.2 -2.55,0 -4.25,-1.37 -5.53,0.92 -6.8,-2.75 -5.1,-0.46 -1.69,-1.83 -2.56,0.46 -5.1,-1.83 -4.67,0.46 -3.4,1.37 -4.25,3.66 -2.55,7.32 -1.28,0 -1.27,-2.29 -1.28,-0.46 -3.82,0.92 -0.43,-4.57 -6.79,1.37 -4.67,0 -1.28,1.37 0,1.37 2.55,4.12 0,2.74 -2.97,-0.91 -2.13,1.83 -0.42,1.83 -1.7,2.29 -5.1,1.83 -7.22,5.490001 -1.28,0.46 -2.55,-0.46 -3.4,2.28 0,0 -5.95,0.92 -2.55,-3.2 -1.27,0 -2.56,-2.740001 -1.27,-0.46 -6.37,2.280001 -4.67,-0.460001 -2.97,2.290001 -3.4,0.91 -7.65,0.46 0,-15.100001 2.97,-7.31 0,-4.12 0.86,-1.37 -2.13,-3.2 -0.85,-2.74 1.69,-2.29 -0.85,-5.94 -1.28,-0.91 0,-2.74 0.86,-0.92 1.27,0.46 1.28,-1.83 -1.7,-1.83 0,-2.29 -0.85,-0.92 1.27,-5.94 -2.13,-1.83 -1.27,0 -2.13,2.74 -1.7,0.46 0,0 2.54,-4.6 -0.42,-1.81 -5.52,-4.58 -0.42,-1.37 7.22,-2.74 3.4,-4.12 2.97,0 3.78,3.18 5.14,-0.89 0.42,1.83 -0.85,1.37 1.28,0.46 1.7,-0.92 1.28,-2.29 1.7,-0.46 1.27,-1.37 0.42,4.12 1.28,2.29 2.55,0.91 1.7,-0.91 1.7,-2.29 0,-2.29 4.25,0 0.85,-1.83 1.27,0 -0.42,-1.83 3.83,-2.74 0.85,0.91 1.27,0 2.12,-2.29 8.92,-1.37 1.28,-0.91 4.25,2.74 3.82,-0.91 0.85,-1.37 -0.85,-0.92 4.25,-3.2 -0.42,-1.83 -2.13,-0.91 2.13,-2.75 0,-2.2800002 2.13,-0.46 1.27,0.91 1.28,-0.91 0.85,-4.57 2.99,-2.75 1.7,0.46 1.28,1.83 1.27,0 1.7,-1.83 2.55,0 2.55,1.37 2.97,0 1.7,-0.91 1.7,1.83 0.43,3.2 1.7,0.91 5.52,-0.46 5.52,1.37 1.28,-0.92 8.92,-2.29 2.97,1.83 1.28,-0.91 8.49,1.83 2.98,0 5.52,4.1200002 2.13,0.46 3.39,3.66 -1.7,2.74 0,2.24 -1.96,0.3 0,0.6 -1.13,-1.51 -5.32,0.6 -1.13,2.11 -1.4,0.6 -0.84,4.53 -1.4,0.91 -0.29,1.21 -0.84,0.91 -3.37,-0.6 -0.56,1.21 0.29,1.81 0.56,0 0,1.51 -1.13,1.51 0.56,4.22 1.12,0 0.29,-1.21 3.64,0.3 1.96,-2.11 0.56,0.3 0,2.11 1.43,0.61 z m 75.98,-32.8900002 0.84,0.6 -0.84,2.4200002 0.84,1.21 6.45,0.6 6.73,-0.6 2.8,0.91 7.01,0.3 -1.68,0.3 -1.69,2.4 -1.96,0.31 0,0.6 -3.36,-1.81 -0.29,1.81 -2.52,-0.3 -0.29,1.81 -1.4,1.21 -5.61,-4.83 -1.4,0.91 -0.84,-0.6 -1.4,1.51 -0.56,3.32 3.08,0.91 0.29,2.11 1.4,2.11 4.2,3.32 2.53,-0.6 0.55,1.81 -1.96,3.62 -4.49,-0.6 0.28,-3.02 -0.55,-0.6 -2.25,0.3 -2.24,2.11 -6.17,0 -1.13,0.3 0,0.59 -2.23,-0.6 0,-1.51 2.24,-1.81 0,-2.42 2.53,0 1.12,-1.51 0.84,0 -0.56,1.51 1.4,0 1.13,-0.9 -1.4,-2.72 -1.96,-1.21 0,-0.91 -4.49,-3.32 0,-1.2 2.53,0 0.84,-0.91 -1.96,-2.41 0.29,-2.7200002 0.84,0 1.12,-1.81 3.35,0 z m 27.19,19.3100002 1.4,3.92 0,2.41 -1.12,0.3 -0.29,4.53 1.69,3.02 -0.85,0 -0.84,1.51 -1.4,0 -0.56,-1.81 -2.8,0 -2.24,-2.41 -5.04,-2.11 -0.29,-4.83 1.69,-2.11 3.08,1.81 1.96,4.52 1.96,0.3 1.68,-3.02 -0.84,-3.02 0.28,-2.11 0.84,-0.91 1.69,0 z m -11.5,-5.13 1.96,2.11 -3.92,3.32 -1.69,-0.3 -0.28,-3.32 2.24,-1.81 1.69,0 z m -83.26,2.12 0.84,1.21 -0.84,2.41 -1.4,0.91 -1.96,0 -1.41,-2.72 2.24,-0.3 2.53,-1.51 z m 60.84,20.52 0.28,0.6 1.96,0.3 -0.28,1.51 -3.37,-0.6 -0.29,-1.51 1.7,-0.3 z m 44.57,-23.24 1.12,1.81 -0.55,1.51 -1.12,0.3 -1.13,-3.02 1.68,-0.6 z"
	/>
	<path
		id="sk" 
		name="Sai Kung"
		d="m 445.18249,217.15733 2.8,1.81 0.56,2.41 -1.12,1.51 0.28,2.71 -1.96,1.51 -0.28,3.01 -0.84,0 -1.69,-1.21 -1.68,-3.62 -1.96,0.3 0.28,-1.51 1.4,-0.3 -0.28,-0.9 -6.17,0.3 0.56,-3.31 2.24,-0.6 1.12,-1.21 1.12,-3.92 -0.56,-1.51 -2.24,-0.3 -0.56,0.6 -0.84,-0.6 0.56,-3.62 -1.4,-1.51 -0.84,0 0.28,1.81 -1.13,1.21 0,1.81 -0.28,-0.6 -1.96,-0.3 0.29,3.31 -1.13,0.6 0.28,2.41 -2.8,0 -0.28,0.9 0,0.9 1.68,1.21 0.56,2.11 -6.73,3.31 0.85,0.3 1.12,-0.9 1.13,0.9 3.08,-0.3 0.29,-2.41 0.84,-0.3 0.84,1.81 2.24,0.6 3.09,3.02 2.8,0.6 -0.56,3.01 -0.56,0 -1.68,3.31 0.28,2.71 0.56,0.3 -0.56,1.8 0.85,2.71 2.23,0.6 1.41,3.32 -0.29,3.31 1.66,2.41 -0.25,6.63 1.4,0.9 3.08,0.3 1.96,2.71 3.93,-0.91 0.55,-0.9 1.41,-0.3 1.11,0 0.84,1.81 1.4,0 1.69,-1.51 1.12,4.52 0,3.62 2.25,0.9 0,3.32 -0.84,0.3 -0.85,2.71 1.96,0 0.29,3.01 2.24,-0.3 -0.29,-2.71 1.12,-0.3 -0.28,-0.6 1.96,-1.81 1.96,0.6 0.56,-0.9 1.39,0.6 0.29,-0.9 1.68,0 1.12,1.51 -0.28,1.81 1.96,1.2 0.29,1.21 0.84,0 2.24,2.41 0,0.9 2.24,1.51 0,3.31 -1.68,0.3 0.84,1.81 -0.28,2.71 -1.4,1.5 -3.37,0 -0.56,1.2 -2.24,0.9 -1.4,3.31 -1.96,0.3 -5.33,-1.5 -0.56,-0.9 -0.84,0 0.56,-0.9 -0.56,-1.21 -2.8,0 -2.24,2.41 0.28,2.71 2.24,-0.6 -0.56,2.41 -2.52,1.21 0.28,2.11 1.13,1.51 1.68,0.6 4.49,-0.3 0.84,0.6 -0.56,2.4 0.84,0.01 1.12,-0.6 0.56,-1.81 1.4,-1.2 3.64,0.3 -0.84,1.21 -1.68,0.6 0.28,3.01 0.84,0.6 0.56,3.61 1.96,0.9 0,2.11 1.4,-0.9 1.96,0.9 -0.83,3.61 -1.69,1.2 -1.4,0 -2.8,-2.11 -0.56,0.9 0,1.51 0.84,0.6 -0.28,2.41 -0.28,0.9 -1.69,0.3 -2.21,-1.81 -0.32,-2.11 -1.12,-1.51 -3.93,-1.2 0,-0.6 -1.4,-0.6 -0.56,-2.71 -1.68,0 -1.4,-0.9 -3.09,0.3 -0.56,-0.9 -0.84,0 -0.28,1.2 0.56,0 0.28,1.51 -2.8,1.51 0,3.01 -0.56,-0.3 -2.8,3.62 -1.13,-1.2 -2.52,0.3 0.28,-1.81 -1.12,-0.6 -0.56,-2.41 -2.25,-2.11 0,-0.9 2.53,-2.71 3.37,0.3 0,-1.21 -2.24,-0.3 -0.28,-0.9 -0.84,0 1.4,-1.51 0,-1.21 -1.12,0 -2.25,2.41 -1.68,0.3 0,0.6 -2.8,-0.6 -1.12,-1.51 0.56,-2.71 2.24,-2.41 -0.56,-3.01 2.25,-4.52 -0.29,-4.52 -2.52,-2.11 0.28,-2.11 -2.24,-3.31 -0.29,-2.71 -6.17,-0.9 0.29,-2.11 -0.85,-0.6 -1.68,0.3 0.84,2.11 -0.28,1.51 0.56,0 -0.29,1.81 -3.37,1.81 -2.24,3.62 -3.93,3.61 0.56,1.21 -1.68,1.81 -1.13,0 -0.84,1.5 0,0 -1.38,0.37 -0.42,-1.83 -1.28,-0.91 1.7,-2.28 -1.27,-2.74 0.85,-0.91 -0.85,-0.91 0.85,-1.37 3.39,0.91 -0.42,-4.11 -1.27,-1.37 0,-2.74 -1.28,-0.46 -0.42,-1.37 -1.7,-0.46 -0.85,-2.74 2.13,-1.37 3.4,-5.48 -1.7,-1.83 -2.98,-0.45 2.13,-2.28 0.85,-3.65 -1.28,-0.46 -0.85,1.37 -1.7,0 -3.4,-2.28 -1.69,0 -1.28,-1.37 -1.27,-5.02 -2.98,-6.39 -5.94,0.46 0,0 0.36,-4.14 -2.35,-15.34 0.29,-8.39 0,0 1.7,0 -0.42,-5.48 2.55,-4.11 0.85,-2.74 1.7,-1.37 5.52,-0.46 0.85,-0.92 2.12,-0.46 3.4,-2.74 1.7,-1.83 0.85,-2.74 2.13,-0.46 2.97,-4.57 -0.85,-2.74 7.65,0 0,-1.37 -1.7,-1.83 0,-4.11 0,0 4.67,-3.2 0.85,-1.37 14.87,0 5.52,-5.48 1.28,0.91 2.55,0 1.28,-2.74 3.82,-3.66 0.86,-5.94 0.85,-1.37 5.1,-1.37 3.4,1.37 2.55,-0.92 4.67,0.92 2.55,-1.83 -1.28,-1.83 2.13,-3.2 -0.85,-4.57 2.97,-2.29 9.35,1.83 2.12,2.74 2.55,0.46 1.28,0.91 -2.56,2.29 1.7,2.29 2.55,2.28 4.25,1.83 4.24,-0.45 2.99,-4.12 1.28,0.46 7.22,8.68 3.4,0 2.55,1.37 0,2.74 1.28,0.91 2.97,-0.46 5.53,-5.03 1.27,-2.74 2.97,-1.83 0,-2.74 2.98,-8.23 -2.55,-2.74 0.85,-4.57 -2.13,-1.37 -0.85,-1.83 1.27,-2.74 -0.85,-3.66 0.42,-1.37 2.55,-0.91 1.05,1.13 0,0 1.4,4.03 1.69,0.91 0.84,-0.6 2.24,0.3 1.4,-1.81 0.85,0 0.84,2.11 3.93,0.9 3.08,-2.11 2.24,-0.6 3.93,0.3 0.56,-2.11 1.12,-0.91 -0.28,3.92 0.56,0.9 2.53,-1.51 1.4,3.62 0.56,-0.6 2.8,0.6 0.55,-1.51 1.96,0.6 -3.37,3.02 0,2.41 -1.12,0.3 0,0.6 -1.4,0 -0.56,1.21 1.13,0.6 0.28,1.5 0.84,0.61 -0.28,4.52 1.68,0.91 0.28,1.51 1.68,-0.3 0.84,0.9 1.13,0 0,2.11 1.4,0.91 -0.56,2.11 1.12,0.6 0.28,1.81 -1.96,1.21 -2.8,-0.3 -1.96,0.61 0.29,-0.61 -1.4,-0.9 -0.29,-1.21 -3.08,-1.51 -0.29,-2.71 -1.68,-2.71 -3.64,0.91 -1.4,-0.3 -1.13,-1.51 -1.13,0 -3.08,4.82 -1.96,-0.6 -2.24,3.32 -0.29,1.81 1.69,1.51 -0.29,1.81 -1.12,0.3 -1.96,-2.11 -1.69,1.81 0,1.21 0.85,0.6 -0.56,5.73 -1.69,1.81 -2.8,0.3 -0.84,1.21 0.84,1.2 1.4,0.3 0.29,1.81 1.39,0 0.85,-1.51 1.39,0.6 0.29,-1.51 1.13,0 1.4,2.71 1.96,-0.3 1.68,3.01 0,2.71 1.96,-0.3 0.85,2.41 2.52,-2.11 0,1.8 1.69,-0.29 1.96,1.21 0,7.84 1.4,4.22 -1.4,1.2 -2.81,0 -0.28,0.6 2.8,5.12 0.84,0.3 0.56,2.71 -1.12,1.21 0.28,1.51 -0.84,0.6 -3.37,-0.3 -1.4,-1.51 -0.84,-3.92 -0.85,-0.3 -1.4,-2.71 0,-2.41 -2.52,2.11 -1.4,-0.3 -0.56,-1.21 -1.4,-0.6 -1.4,2.11 0.84,3.92 3.37,1.81 0.28,0.91 1.4,0.3 0.28,2.71 -1.69,2.11 -2.8,-0.3 -1.96,3.62 3.37,0.6 1.12,1.51 -4.2,0.3 0.28,1.51 -1.4,0.91 -0.28,2.1 -2.25,0.01 -0.28,1.51 -2.24,-0.61 -0.56,-1.51 -3.37,-0.91 -1.12,2.41 2.8,0.61 0.85,1.2 -0.28,1.51 -1.4,-0.6 -0.56,1.51 -1.64,-0.6 -0.32,-1.21 -1.4,-0.3 -1.12,-1.51 -1.4,0.6 0.56,2.41 -0.56,4.82 1.12,0.6 0.56,3.31 -1.68,0.61 -0.29,3.91 -0.84,0.91 -2.53,0.91 -1.4,-1.51 -0.55,-1.81 0.28,-3.62 -1.69,-1.2 -0.55,-4.22 -1.13,-0.6 0.84,-1.2 -0.56,-2.11 1.12,-0.91 -0.56,-3.62 -1.12,0.3 0,1.21 -1.4,0 0,3.31 -1.4,0.6 -0.85,-1.2 -1.68,0.3 -0.56,2.11 -1.68,1.81 -4.49,-5.12 -0.28,-2.11 -0.83,-0.91 -0.01,-0.9 3.65,0.3 -0.56,-2.11 -1.96,-0.3 -1.96,-2.41 -2.8,0 -3.08,-3.62 -0.28,-1.81 1.69,-0.91 0,-2.71 1.12,-0.3 -0.56,-1.81 1.12,-1.51 -0.28,-3.01 0.84,-1.81 0,-2.71 -2.53,1.81 -0.28,-0.91 -1.96,-0.91 -3.37,-0.6 -3.93,-3.02 -0.55,-2.71 -0.85,0.3 0,0.91 -3.08,0.91 -0.56,-2.11 1.12,-3.02 -0.85,0.3 -1.4,2.71 -2.24,-1.2 1.69,-4.22 1.12,0 0,-4.22 1.4,-0.3 -1.12,-0.91 -7.01,1.21 -0.28,2.71 -1.69,2.11 0,0.91 1.96,1.51 -0.28,1.21 -3.09,-0.6 -2.8,1.51 -0.55,-1.81 -1.69,0 0,0.6 -3.64,1.2 -0.29,-2.71 -1.96,-3.02 -2.24,1.21 -3.36,-0.6 -0.84,-2.41 -1.4,-1.21 0,-2.11 -0.84,-0.6 -3.93,-0.91 -1.68,1.51 -0.29,1.2 -1.4,0 -0.84,-1.2 -1.4,-0.3 -1.4,2.11 0,3.02 -0.56,0 0,3.31 1.13,2.08 -5.89,6.06 0.29,0.91 1.96,-0.3 1.36,2.71 -1.08,1.2 -0.29,2.11 -1.68,1.81 -0.28,2.71 1.12,1.81 0,2.11 1.13,0.6 0.56,2.11 0.57,0 z m 24.67,-13.86 0.56,-5.73 1.69,-0.6 3.92,1.51 0.56,1.51 -0.56,2.71 0.56,0.9 0.84,-0.3 0.85,-2.11 -0.85,-4.22 1.96,1.51 2.25,-0.9 2.24,0.3 0.28,1.51 -1.4,2.41 0.84,0 1.13,-1.81 2.8,-0.3 1.12,2.41 -1.4,2.41 0.28,2.11 2.24,2.71 1.12,3.92 -1.12,5.12 0.56,0.91 3.65,0.91 1.12,1.51 3.09,1.51 -1.13,3.01 0.28,3.31 -1.12,1.81 0.28,1.21 -0.28,0.6 -1.96,0.3 0.84,2.11 -0.56,3.62 0.56,0.91 1.4,0.3 0.84,2.71 3.65,4.82 0,3.02 -0.29,3.92 -1.96,0 -1.69,2.41 -0.84,0 -1.4,-1.51 -1.13,0.6 -1.68,-0.3 -0.29,0.6 -1.96,-0.3 -1.4,-6.03 -1.12,-1.2 0,-2.71 -1.69,-2.71 1.13,-2.41 0,-2.11 1.68,0 0.29,-1.21 -1.96,0 -1.4,-2.41 -1.4,-0.3 -0.84,2.41 -1.4,0.6 -1.69,-2.11 -2.8,-0.9 -0.84,-1.81 -1.13,-0.61 -0.56,-2.71 -0.55,0 -0.85,-2.11 0.56,-2.71 1.4,-0.6 0.84,-2.11 -0.84,-3.32 0.84,-0.3 0.29,-1.2 -1.96,-4.82 -1.96,-0.6 -1.68,-1.51 0.28,-3.31 -1.13,-4.25 z m -3.37,128.66 1.68,0.6 -0.55,1.81 -0.84,0.3 0,1.81 0.56,0.3 -0.29,0.9 1.69,0.9 0.28,2.11 -2.24,2.11 0.28,2.11 -0.84,0.9 -0.28,2.41 -1.69,0.3 -3.36,-0.9 -0.28,1.5 -0.56,0 0.56,0.9 -0.29,1.5 -2.52,1.2 -1.4,-1.2 0,-0.9 1.4,-1.5 -0.84,-1.21 -2.53,-0.3 -1.96,-0.9 -1.13,-1.5 -1.4,-0.3 0.56,-3.31 -0.84,-2.11 1.4,-0.9 1.96,-3.31 2.53,-1.51 0.84,1.2 2.24,0 0,-1.5 0.84,0 1.4,-1.81 1.69,-0.3 0.28,-1.2 1.96,0 1.67,-0.9 -0.54,1.5 0.56,1.2 z m 70.66,-71.4 -0.29,2.71 2.24,1.51 1.13,2.71 -0.56,2.71 1.12,1.21 1.68,0.3 -1.12,2.11 -2.8,0.61 0.55,2.11 -0.55,1.51 -3.65,-1.2 0.84,-3.31 -0.55,-0.9 -2.25,-0.9 -1.68,-3.92 0.56,-4.52 2.24,-0.3 2.24,-2.41 0.85,0 z m -72.61,-56.36 0.28,0.6 1.13,-0.3 0.28,0.91 -3.64,0 1.4,2.41 -0.29,2.11 1.96,1.51 -0.56,0.3 0.56,1.21 1.96,0.3 0,2.11 -1.4,0.3 -0.56,1.21 0.84,6.33 0.85,0.91 0,2.11 -1.13,1.51 -1.4,-0.6 0,-1.81 1.13,-0.6 0,-1.21 -1.69,-1.2 -1.4,0.3 0.29,-2.11 -1.13,-1.2 0.28,-2.71 -3.08,-2.11 -1.4,-2.41 -0.84,0 3.08,-2.41 -0.28,-0.9 1.12,-1.51 -0.56,-0.9 1.41,-2.11 3.08,-1.2 -0.29,1.16 z m 62.79,52.44 0.29,1.19 -3.37,4.23 -0.29,4.52 -1.68,0.3 -0.29,1.2 -2.24,0 -0.56,-0.9 -0.28,3.62 -1.39,0 -1.13,-1.81 0,-3.01 1.69,-1.81 -0.29,-2.11 1.13,-2.41 1.68,-1.81 1.96,0 1.13,1.21 1.68,-2.41 1.96,0 z m 8.41,-12.65 0.28,-1.81 2.53,0.3 0.55,0.9 0,1.81 -1.12,2.41 -1.13,0.6 0,1.81 1.13,1.51 0,0.9 -1.13,0.3 0,1.21 -3.08,-1.81 -3.09,0 1.13,-2.71 -0.84,-0.6 0.55,-5.42 2.53,-0.9 0.56,1.2 1.13,0.3 z m -70.65,6.32 7.29,6.63 0.28,3.31 -0.84,0.91 -5.61,-0.91 -1.96,-1.51 0.29,-0.9 -1.12,-0.6 -0.84,-3.01 0.84,-2.11 -0.28,-1.2 1.95,-0.61 z m 28.04,-48.82 0.28,0.91 2.24,0 2.24,2.11 1.69,0.3 0.56,2.41 -0.29,1.51 -1.12,0 0.28,4.22 -1.69,1.2 -0.55,-3.92 -0.85,-0.3 0,-3.92 0.56,-0.3 -1.96,-1.2 0,2.11 -1.4,1.81 -0.28,-1.21 -2.24,-1.2 0.55,-0.6 -0.28,-1.51 0.56,0 -0.56,-1.81 1.12,0.3 0,-0.91 1.14,0 z m 28.32,113.9 0.55,2.71 -1.96,3.01 0,2.71 -1.96,1.51 -2.8,0 0.84,-0.9 0.56,-4.52 2.24,-1.5 0.28,-1.81 2.25,-1.21 z m 19.61,-68.69 0.57,1.81 1.13,0 3.92,4.22 2.53,0.9 -0.56,1.51 -3.37,0 -3.08,-1.2 -1.4,-3.62 0.28,-2.11 -0.84,-0.3 0.28,-1.2 0.54,0 z m -18.21,79.83 0.55,3.62 0.56,0.3 -0.28,3.92 -0.84,0.9 -2.25,-0.3 -1.4,0.6 -0.84,-0.9 0,-3.91 2.8,0.3 0.56,-3.92 1.14,-0.61 z m -38.13,-17.46 1.12,1.5 0.28,2.41 -0.84,0.9 -1.12,0 -0.28,-1.51 -1.96,-0.9 0,-0.6 1.12,-1.51 1.68,-0.29 z m 19.9,-65.08 1.96,3.62 -1.4,0.9 -1.96,0 -0.84,-2.11 0.56,0 0.55,-2.11 1.13,-0.3 z m -54.38,-47.93 2.52,1.51 -0.28,2.11 -1.68,-0.3 -0.28,-1.51 -1.12,0.3 -0.56,-1.81 1.4,-0.3 z m 89.43,59.38 0.84,1.81 -3.64,0.3 0.29,-1.51 2.51,-0.6 z m 17.1,-83.19 0.56,3.32 -1.13,0 -0.55,-3.02 1.12,-0.3 z m -40.65,160.61 0.84,1.51 1.12,0.3 0,1.2 -2.25,-0.6 -0.28,-2.41 0.57,0 z m 24.11,-11.75 1.35,1.81 0.05,1.21 -0.84,0 -1.4,-1.81 0,-0.9 0.84,-0.31 z m -83.82,-118.72 0,2.11 -0.56,0.6 -1.4,-0.3 -0.29,-0.91 1.41,-0.3 0.84,-1.2 z m 142.97,-98.9 0.85,2.72 -0.85,0 -1.4,-1.81 0,-0.9 1.4,0 z m -141.29,94.38 0,0.6 1.13,0 0,1.81 -1.96,-1.51 0.83,-0.9 z m -1.12,17.49 -0.56,2.11 -1.12,-1.2 1.68,-0.91 0,0 z"
	/>
	<path
		id="st" 
		name="Sha Tin"
		d="m 390.60249,220.16733 -3.82,0 -2.12,1.37 -2.13,0 -0.42,1.82 -2.56,0.46 -1.27,-0.46 -1.7,0.92 -4.25,0.46 -2.55,0 -1.27,-0.92 -2.13,3.66 -2.55,0.45 -1.27,-1.82 -1.7,0 -0.85,0.91 0.34,2.74 -5.01,0.92 -2.98,-0.92 -3.82,1.83 0,0 -5.52,0 -1.28,2.28 0,0 -2.98,-0.46 -2.12,0.92 -2.55,-0.46 -2.55,-2.28 -1.28,1.37 -1.27,0 -1.7,2.28 -3.83,-1.83 -2.11,0.92 -1.7,-0.92 -1.28,2.29 -2.55,0 0,0 -2.55,-2.29 0,-1.37 -2.97,-1.36 -0.85,-9.14 2.55,-3.66 1.69,-0.91 0.43,-1.37 -1.7,-4.11 0.85,-2.28 2.12,-1.37 -2.54,-3.2 0.84,-2.29 2.55,-0.45 1.28,-1.37 0,-2.74 0,0 2.13,-2.29 4.67,-1.37 2.55,-3.2 2.97,-2.28 1.28,-2.74 3.82,-2.75 0.85,-1.37 -0.85,-5.94 1.7,-0.91 0,-3.2 -0.42,-3.2 -1.71,-1.83 0.43,-3.84 0,0 1.64,-0.62 4.79,0 0.94,-2.15 1.34,-0.54 9.74,0.3 1,-3.14 12.93,-0.04 1.23,-6.23 1.05,-2.09 0.95,0 0.98,2.81 0.72,0.06 0.9,-3.49 3.33,0.38 1.02,-1.5 0,0 3.76,3.92 3.36,0 -0.83,2.71 0.27,5.73 -1.4,4.52 1.69,1.81 0.84,0 1.4,3.01 -10.66,10.86 -1.11,2.71 -1.69,0.31 -0.55,1.8 -2.53,1.81 -0.84,2.11 -3.09,2.11 0,0.91 -1.96,1.51 -0.28,1.5 -1.69,1.51 0,0.91 -3.92,4.21 -1.12,0.3 0.28,0.61 2.25,-0.61 1.4,-1.8 1.11,-0.3 1.13,-1.21 0.56,-2.11 1.97,-1.21 1.4,-2.41 2.24,-1.21 -0.28,-0.9 1.12,-0.3 1.4,-2.11 2.8,-2.11 1.4,-3.01 1.97,-1.21 1.12,-2.11 1.12,-0.3 2.52,-2.72 5.33,-6.93 2.8,-0.3 0.28,-1.51 -1.12,-1.81 0.84,-0.9 -0.27,-2.11 0.83,-0.61 1.13,-4.52 -0.29,-1.81 0.84,0 0.29,-3.02 3.08,-5.72 3.65,-1.21 3.08,1.21 0.56,-1.81 1.68,-0.31 2.8,-2.41 0,-2.71 -1.68,-1.21 0,-1.2 1.13,-0.31 0.84,0.61 1.11,-1.81 2.81,0.3 1.96,2.41 1.12,0 0.56,-0.9 1.41,0.6 -0.28,0.6 -1.41,0 -1.96,2.12 0,1.5 1.41,0.3 0,0 2.61,-0.36 -1.28,4.12 2.13,0.91 0,4.57 -1.71,9.14 3.83,2.29 0,5.48 1.7,1.83 0,2.74 0.85,0.91 -1.7,3.66 0,4.57 0,0 0,4.11 1.7,1.83 0,1.37 -7.65,0 0.85,2.74 -2.97,4.57 -2.13,0.46 -0.85,2.74 -1.7,1.83 -3.4,2.74 -2.12,0.45 -0.85,0.92 -5.52,0.45 -1.71,1.38 -0.84,2.74 -2.55,4.11 0.42,5.48 z"
	/>
	<path
		id="ss" 
		name="Sham Shui Po"
		d="m 315.82249,235.69733 2.55,0 1.28,-2.29 1.7,0.92 2.11,-0.92 3.83,1.83 1.7,-2.28 1.27,0 1.28,-1.37 2.55,2.28 2.55,0.46 2.12,-0.92 2.98,0.46 0,0 0.42,1.83 -1.27,1.83 0,1.37 2.55,1.82 1.7,4.11 0,5.03 -2.12,5.48 0,0 -1.28,-0.91 -11.48,0 -0.84,0.91 1.22,1.38 -1.65,0.45 -3.44,2.77 -0.81,-1.86 -2.12,-1.83 -1.71,1.83 -0.03,1.82 0,0 -6.06,-4.46 -1.97,0 -1.4,2.4 2.81,1.82 1.12,1.8 -3.36,3.32 0.56,1.81 -0.84,1.5 -1.13,0 -2.24,-2.71 -6.17,-0.3 -1.06,0.6 0,0 -2.05,-3.72 8.59,-7.44 1.14,-2.69 -0.23,-3.34 -4.48,-1.05 -0.19,-3.52 -3.82,-0.91 -0.85,-1.83 1.28,-0.46 1.26,0.46 1.71,-2.28 4.25,0.91 1.27,0.91 2.55,-1.37 2.12,1.37 2.55,-2.28 -1.05,-0.95 z"
	/>
  <path
		id="so" 
		name="Southern"
		d="m 391.08249,389.76733 0.84,2.41 0.84,0.3 1.13,2.11 -0.56,3.31 -4.49,1.2 -2.24,-0.6 -1.12,0.9 -2.8,0.3 -2.24,-3.01 -0.28,-3.91 0.84,-1.81 -0.56,-7.23 3.03,-3.31 0.33,-2.41 -1.96,-3.31 -0.84,0 0,-0.9 -1.13,0 -0.84,1.2 -1.69,0 -1.12,1.21 0.56,1.21 -1.69,2.41 -4.21,-0.3 -1.4,2.41 -1.13,0.6 -2.24,-0.3 -0.56,-2.41 0.85,-3.31 0.55,-0.3 0.29,0.6 1.4,-1.81 1.68,0.3 0.56,-0.6 0,-1.5 -1.4,-2.71 -3.37,-0.3 -3.64,-2.71 0,-1.21 2.52,1.21 1.12,0 0.56,-0.9 -1.4,-4.82 1.68,-0.9 0,-4.21 -0.84,-2.41 -1.68,-1.81 -4.77,2.41 -2.53,-1.81 -1.96,-3.61 0.56,-2.11 1.13,-0.6 -0.56,-1.81 -1.69,-0.6 -0.28,0.6 -3.64,-0.3 -2.53,0.61 -0.84,1.2 0.28,1.21 -2.53,2.41 -1.68,3.31 -0.28,3.91 -1.13,1.51 0,1.5 -1.69,0.9 -5.32,-3.61 -0.29,-1.21 0.85,-1.81 -1.41,-0.6 -0.55,-4.22 -1.13,-1.81 -1.96,-0.6 -1.12,-4.52 -15.42,-0.9 -4.21,-0.6 -0.28,-0.6 -3.09,0.9 -2.24,-0.6 -1.69,-3.31 -2.24,-1.21 -0.56,-4.82 -2.52,-1.81 -0.85,-3.01 -2.52,-3.01 -3.09,-7.23 -3.37,-1.51 -0.84,-1.22 0,0 5.1,-0.08 3.4,-1.83 4.67,0 2.98,1.83 2.97,2.74 2.13,4.56 1.27,0.91 2.13,4.11 -0.42,1.37 2.97,2.74 -0.42,2.74 1.28,0.91 5.52,-3.19 1.7,-3.65 1.69,0 2.13,1.83 1.7,0.46 2.13,-0.91 1.28,0.46 1.72,-1.41 0,0 6.8,3.65 5.53,1.37 1.27,-0.46 0.42,-1.37 1.7,0 1.7,1.83 5.1,0.91 12.36,-3.87 0,0 2.48,0.26 3.4,-1.37 2.13,0.91 3.82,-1.83 4.67,-0.46 1.7,2.28 4.25,1.37 8.07,0.45 2.55,2.74 2.13,0 3.4,-2.28 1.69,0 3.4,0.91 2.55,2.28 2.97,0.46 3.48,6.92 0,0 -0.89,1.24 -2.52,-0.6 -0.29,0.9 2.25,3.61 2.24,0.9 0.28,1.81 -0.56,0.9 3.09,3.31 -1.13,3.31 -0.84,0.3 0,1.21 1.96,0.3 0.28,0.6 4.77,-0.3 0.56,-0.6 1.13,0.6 -0.29,1.51 -1.12,0.9 -2.8,-0.6 -0.29,1.2 -2.8,0 -0.84,-0.9 -1.13,0 -1.12,1.51 1.12,0.9 0,1.5 2.53,2.41 1.13,2.71 0.55,4.82 -0.55,6.02 3.92,-0.6 0.56,1.81 1.96,0.9 -0.84,2.11 0.28,3.01 -1.12,0.3 -1.41,-1.2 0,-1.21 1.13,-0.3 0.29,-1.21 -2.81,0.3 -1.12,-0.9 -0.84,2.1 -1.69,0 -1.13,-1.5 -5.88,1.21 -4.49,-2.11 -0.84,-3.01 1.4,-0.9 0.29,-1.5 -1.13,-2.71 0,-2.11 -0.56,-0.6 -2.53,0.3 -1.68,-1.81 0.28,-0.9 -2.24,-2.11 1.4,-4.52 -1.12,-1.2 0,-4.82 -0.85,-2.71 -0.84,-0.6 0.84,-3.61 -3.64,-3.01 -3.64,0 -1.12,0.9 -1.13,-5.42 -1.68,-0.9 0,5.72 1.68,0 3.93,3.31 1.12,6.02 -0.29,2.41 -0.28,0.6 -3.31,0.6 -1.73,-3.01 -1.13,-0.6 -1.96,3.31 -3.37,0.6 -0.28,3.31 -2.24,1.5 -0.85,2.41 0.29,3.01 1.96,0.6 0.56,1.21 2.8,0.9 2.53,2.11 -0.28,3.31 -1.4,-0.3 -0.85,2.41 -1.68,0.6 3.18,6.64 z m -64.49,-46.07 0.85,0.3 0.28,2.41 2.8,3.31 0,2.71 -0.84,2.11 -0.56,0 -0.28,2.11 1.68,0.9 0.56,4.82 -1.13,0 -1.68,-1.81 -1.12,-4.52 -2.24,0 -1.4,-1.21 -1.12,0 -1.12,-3.31 -2.8,0.9 0,-1.2 -1.96,0 -1.13,-3.92 -1.4,-0.9 0,-0.9 1.96,-1.2 5.88,0.6 4.77,-1.2 z m 29.72,9.64 2.24,1.81 0,0.9 -1.68,1.81 -1.69,-0.3 -1.12,1.2 -1.41,0 -2.24,-2.71 0.29,-1.51 5.61,-1.2 z m -2.52,20.78 2.8,1.5 0.29,2.71 -1.13,-0.3 -0.84,0.9 -1.69,-0.6 -1.12,-3.92 1.69,-0.29 z m 74.85,-9.64 0.29,1.51 -0.56,0.6 -3.1,-1.21 0.56,-0.9 2.81,0 z"
	/>
	<path
		id="tp" 
		name="Tai Po"
		d="m 379.86249,101.67733 -1.4,2.41 0.56,2.41 -1.12,3.02 0.29,2.41 3.08,1.51 2.53,-0.3 0.56,0.9 3.64,0 1.96,2.41 1.4,0.6 2.24,-0.3 0,1.51 -4.21,0.6 -1.4,-0.6 -0.28,-2.41 -1.13,-0.3 -2.24,2.11 1.4,1.75 5.04,1.87 0.56,1.21 -1.13,1.21 -3.92,-0.91 0.56,1.81 -1.4,0.91 -1.4,-2.11 -4.77,-0.3 -0.55,-1.21 1.4,-0.61 0.28,-1.81 -1.68,-0.3 -1.69,0.91 -1.96,0 -0.84,-1.81 0.56,-1.81 2.52,-0.3 0,-0.6 -0.55,-0.6 -2.25,0 -2.8,-1.51 -0.28,-1.51 -1.13,0 -2.52,2.71 0.28,3.02 -1.68,1.81 -3.93,1.81 -5.05,-1.5 -5.88,-0.61 -1.4,0.91 -0.29,2.41 -2.24,0.6 -0.84,1.51 1.68,3.55 2.25,1.57 2.24,0 0,1.51 2.24,1.51 2.53,0.61 2.24,-1.21 4.2,0.3 1.69,0.6 0.28,1.51 1.4,1.51 3.93,0.91 0.84,0.91 0,2.11 -1.13,0.91 0,0.91 1.69,0.6 0.84,2.71 2.8,0.6 1,0.91 0,0 -1.02,1.5 -3.33,-0.38 -0.9,3.5 -0.72,-0.06 -0.98,-2.81 -0.95,0 -1.05,2.1 -1.22,6.23 -12.94,0.04 -0.99,3.13 -9.74,-0.3 -1.34,0.54 -0.95,2.15 -4.79,0 -1.64,0.62 0,0 -5.74,-0.6 -3.41,1.53 -2.56,-0.71 -8.68,-0.03 -0.52,-4.15 -16.86,-0.71 -4.37,1.55 0.07,-1.71 0,0 -0.51,-4.15 -7.69,-9.65 -0.74,-5.89 -2.53,-4.08 -1.7,-5.03 0.82,-2.84 6.41,-8.58 2.42,-2.18 0.34,-1.72 4.89,-6.16 1.28,-4.12 0,0 3.4,-2.28 2.55,0.46 1.28,-0.46 7.22,-5.490001 5.1,-1.83 1.7,-2.29 0.42,-1.83 2.13,-1.83 2.97,0.91 0,-2.74 -2.55,-4.12 0,-1.39 1.28,-1.37 4.67,0 6.79,-1.37 0.43,4.57 3.82,-0.92 1.28,0.46 1.27,2.29 1.28,0 2.55,-7.32 4.25,-3.66 3.4,-1.37 4.67,-0.46 5.1,1.83 2.56,-0.46 1.69,1.83 5.1,0.46 6.8,2.75 5.53,-0.92 4.25,1.37 2.55,0 4.24,3.2 0.86,-4.11 0.85,-0.92 2.97,-0.91 1.7,-1.83 1.7,-3.66 2.55,-0.91 2.55,-2.28 1.28,0.46 0.85,-0.91 -0.42,-2.74 0.85,-0.92 2.13,-0.46 0.42,2.28 2.97,1.83 4.25,5.94 2.13,1.83 12.32,0.46 2.56,-0.46 0.85,-0.92 -0.42,-1.37 2.55,0 1.7,-1.37 1.27,0.92 2.97,0 2.98,-1.83 6.37,0.46 8.92,5.03 1.28,1.83 2.55,0 4.25,2.29 1.27,0 9.35,-6.4 2.55,-0.92 1.7,-2.29 7.22,-5.03 4.25,-0.46 3.82,-2.74 1.28,-2.74 2.13,-1.37 -0.61,-1.64 0,0 2.56,1.21 0.28,2.41 -5.89,5.13 -1.12,0 -2.81,3.02 -1.68,0.3 -2.24,3.32 -3.36,2.72 -0.84,2.11 -2.8,1.81 -1.15,2.1 -1.96,1.21 -1.68,-0.91 -2.53,0.3 -1.12,2.11 1.4,0.91 0,0.9 -1.4,0.6 -0.28,0.91 -1.96,1.21 -1.96,0 -3.93,3.02 -4.48,0.6 -1.96,3.01 -3.09,0.91 -0.55,0.91 -4.77,0.9 -1.4,1.51 -1.69,0.3 -1.96,1.51 -3.92,-0.91 -2.8,0.61 -1.4,1.810001 0.84,0.61 1.4,-0.3 -0.84,1.81 -6.17,2.72 -1.69,2.11 -3.08,1.21 -3.93,6.03 -4.2,3.62 -0.84,-1.21 -2.81,0.3 -0.28,1.21 -2.24,0.6 -1.4,2.11 -0.56,0 0,-4.83 0.84,0 0,-0.91 -13.17,-13.57 -1.96,-0.6 0,-2.11 -1.4,-1.810001 -5.04,1.21 -2.25,2.710001 -5.04,0.91 -0.56,-0.6 -1.12,0.3 -0.28,-3.020001 -1.12,-1.81 -1.96,0 -0.85,2.110001 -1.4,0.3 -0.86,1.2 z m 35.33,40.71 0.84,-1.2 4.48,-0.9 0.85,-1.21 1.12,0 0.85,-0.9 1.96,3.32 11.5,-1.81 1.12,-0.3 0.27,-0.9 0.57,2.11 1.93,2.11 0.59,7.54 -3.37,5.43 1.96,0 0.28,2.41 2.8,1.81 0,0.91 1.4,1.21 0.29,2.41 0.55,0 0.29,-3.02 -0.84,-1.51 1.12,-4.22 1.4,-1.51 5.05,-1.81 2.24,-3.02 3.08,-2.11 -0.28,-2.11 -1.4,-0.3 -1.13,0.6 0.29,-2.41 -1.69,-1.51 -0.28,-3.32 -1.13,-0.91 -1.12,-3.32 0,-1.51 1.96,-1.51 0.29,-1.21 -3.93,-0.6 -1.4,0.91 -0.84,-1.21 0,-1.81 1.96,-0.6 3.08,-5.43 2.53,-0.91 1.68,-2.41 2.79,1.21 0.85,2.71 1.4,0 0.28,-8.44 0.84,-0.6 1.4,0.6 1.69,2.41 4.2,-0.6 0.28,2.11 1.96,0 1.41,-2.71 -1.12,-6.34 2.52,-0.91 1.12,-4.83 1.96,-1.51 1.12,-2.110001 4.49,-1.51 2.24,-3.92 1.13,-0.6 3.64,0 1.13,-3.62 1.12,0 1.69,3.62 0.84,0.3 -1.4,2.71 0.84,2.11 2.8,0.6 1.96,-1.81 2.25,0 0.28,3.31 -1.68,-0.29 -0.56,0.900001 -0.56,4.83 -1.4,2.11 0.56,1.81 1.68,0 1.96,-2.71 3.37,1.21 1.68,-0.6 -0.55,-2.72 1.96,-1.21 1.4,-3.920001 -0.55,-2.41 -1.4,-0.9 0,-0.91 2.23,-0.3 0.28,-2.71 1.69,-1.81 1.4,0.91 1.68,5.43 -0.28,3.32 3.64,8.450001 -3.37,2.41 -2.24,-0.3 -3.64,-2.71 -0.85,0.6 1.12,2.71 -1.96,6.03 1.69,3.02 -0.29,3.92 3.09,1.21 0.28,2.41 -2.8,5.12 -4.77,-0.3 0,1.51 2.8,3.02 0.56,1.81 -0.56,3.62 -0.56,0 -1.68,3.32 1.4,0.3 1.96,-1.51 -0.29,-1.81 0.56,-0.9 3.37,0 0,-4.22 0.56,0 1.68,-3.32 2.25,-0.61 1.37,1.21 -0.25,3.02 1.96,3.02 1.39,4.82 -0.26,2.11 -2.8,0.9 0.28,1.81 1.4,1.51 6.17,0 -1.68,-1.51 -0.29,-1.51 1.69,-0.3 -1.4,-2.71 0,-5.43 0.56,-1.21 -0.29,-3.62 1.69,-2.41 -0.85,-1.21 -0.84,0 0.29,2.41 -1.41,0 -0.84,-3.62 1.69,-5.73 -1.4,-1.51 0,-1.51 1.68,-1.21 1.4,0.6 1.69,-0.3 0.28,-1.21 1.4,-1.21 1.4,0.91 1.69,0 -1.69,-4.52 0.55,-0.9 -0.55,-3.02 0.56,-1.51 1.13,0 2.24,2.11 3.64,0.6 0,1.81 3.06,2.71 -0.54,4.52 -3.09,3.62 0,2.41 1.12,0.91 0.28,2.3 0,0 -1.05,-1.13 -2.55,0.91 -0.42,1.37 0.85,3.66 -1.27,2.74 0.85,1.83 2.13,1.37 -0.85,4.57 2.55,2.74 -2.98,8.23 0,2.74 -2.97,1.83 -1.27,2.74 -5.53,5.03 -2.97,0.46 -1.28,-0.91 0,-2.74 -2.55,-1.37 -3.4,0 -7.22,-8.68 -1.28,-0.46 -2.99,4.12 -4.24,0.45 -4.25,-1.83 -2.55,-2.28 -1.7,-2.29 2.56,-2.29 -1.28,-0.91 -2.55,-0.46 -2.12,-2.74 -9.35,-1.83 -2.97,2.29 0.85,4.57 -2.13,3.2 1.28,1.83 -2.55,1.83 -4.67,-0.92 -2.55,0.92 -3.4,-1.37 -5.1,1.37 -0.85,1.37 -0.86,5.94 -3.82,3.66 -1.28,2.74 -2.55,0 -1.28,-0.91 -5.52,5.48 -14.87,0 -0.85,1.37 -4.67,3.2 0,0 0,-4.57 1.7,-3.66 -0.85,-0.92 0,-2.74 -1.7,-1.83 0,-5.48 -3.83,-2.29 1.7,-9.14 0,-4.57 -2.13,-0.91 1.28,-4.11 -2.62,0.37 z m 115.22,-60.020001 4.2,1.51 1.12,2.41 -1.12,3.92 2.24,1.81 1.69,2.71 -1.4,3.32 -2.53,0.91 -0.29,1.810001 0.85,0.6 -0.56,2.11 -1.4,0.3 -1.13,2.11 -3.37,-0.91 0.56,-6.330001 -1.13,0 0.29,-3.62 -1.13,-1.21 -1.96,0.3 -1.68,-4.83 0.28,-1.51 1.13,0 0.84,-1.51 1.4,-0.3 0.84,-2.11 2.26,-1.49 z m 70.92,-72.12 -0.28,4.46 0.56,0.37 0.28,3.32 0.84,0.9 1.12,0 3.37,3.62 1.68,-0.91 3.37,0.91 0,1.21 -1.13,0.6 -0.84,1.81 -5.04,0.6 -0.29,-0.9 -4.48,-2.72 -1.96,0.3 -1.4,-1.81 -1.13,-2.72 0.56,-1.81 -1.4,-1.51 0,-0.9 1.13,-0.91 0.56,-2.41 4.48,-1.5 z m -199.6,102.290001 1.4,0.6 0.84,2.11 -2.8,4.53 -1.68,1.51 -3.65,0.91 -0.84,1.21 -1.96,-0.61 -0.55,-1.51 3.36,-2.11 0.85,-3.62 3.36,-3.02 1.67,0 z m 128.12,-50.380001 3.37,1.21 2.24,-0.91 0.28,1.51 -2.8,1.51 0,1.81 -1.12,0.6 0,3.62 -0.56,0.61 -3.09,0 -0.55,-0.6 0.55,-1.21 -1.4,-0.91 0,-0.9 -1.12,-0.3 0,-0.9 1.96,-0.61 0,-1.81 -0.85,-0.3 0,-0.9 1.69,-0.3 1.4,-1.22 z m -138.78,45.250001 1.69,1.81 0.28,1.81 -3.37,0 -0.55,-2.11 1.95,-1.51 z m 110.46,-19.000001 0.84,0.6 0,3.02 -0.29,0.9 -1.12,0.3 -0.29,-3.92 0.86,-0.9 z m -109.61,43.730001 0.56,1.81 -0.56,0 -0.28,1.21 -0.84,0 0,-3.02 0.28,-0.6 1.41,0 -0.57,0.6 z m 150.26,-47.050001 0,0.91 1.13,0 0,0.9 -2.52,-0.6 -0.29,-1.21 1.68,0 z"
	/>
  <path
		id="tw" 
		name="Tsuen Wan"
		d="m 280.35249,217.80733 0.26,-1.55 -0.84,-2.42 -1.96,-1.51 -0.84,-2.1 -3.93,-2.71 -1.68,0 -3.37,1.81 -0.84,1.2 -3.93,0.3 0,0.6 -2.8,0.3 -0.84,0.9 -2.25,0 -0.84,1.21 -5.61,-3.32 -4.77,-0.6 -5.04,2.71 -1.69,1.81 -0.28,1.51 -3.09,0.6 -3.37,-0.6 -1.69,-2.11 -3.63,0.3 -1.69,-0.6 -0.84,1.21 -1.68,0 -2.25,2.41 -3.08,0.6 -1.12,2.12 -5.88,-0.91 -0.85,0.91 -1.12,0 -1.4,2.11 -0.56,-0.3 -0.56,1.5 -3.64,-0.3 -1.42,1.21 -3.06,0.6 0,0.62 -3.33,-0.62 0,0 -1.15,-0.82 0.15,-3.7 3.83,-2.74 3.82,-5.02 3.4,-0.46 1.27,-0.91 0.43,-1.37 -0.43,-1.37 -3.82,0.92 -1.28,-0.92 -1.27,-4.11 -2.13,-0.46 0,-3.66 1.7,-0.91 1.7,0.91 1.28,-0.46 3.4,-4.11 5.1,2.74 2.56,0 -0.85,-4.57 1.7,-2.74 6.8,2.28 1.7,-1.83 5.94,0.46 2.13,-0.46 0,-2.74 1.28,-2.29 0,0 4.67,-3.2 1.69,-0.46 1.28,0.91 2.55,-4.57 1.27,0.46 3.4,-0.46 4.25,-4.57 1.69,-0.92 2.55,0.46 2.56,1.83 2.12,0 5.11,-4.11 2.55,-3.65 3.82,-0.46 1.28,0.91 0.42,1.37 1.28,0 1.27,-0.91 1.7,0.46 2.55,-0.92 0.85,-1.83 3.4,-2.74 2.13,0.91 3.4,0 0,-1.37 2.55,-2.74 0.42,-2.74 0,0 -0.07,1.71 4.37,-1.55 16.86,0.71 0.52,4.15 8.68,0.03 2.56,0.71 3.41,-1.53 5.74,0.6 0,0 -0.42,3.84 1.7,1.83 0.42,3.2 0,3.2 -1.7,0.92 0.86,5.94 -0.86,1.37 -3.82,2.74 -1.28,2.74 -2.97,2.29 -2.55,3.2 -4.67,1.37 -2.13,2.29 0,0 -2.13,1.37 -2.97,-0.46 -0.38,-2.9 1.22,-2.12 -0.85,-0.91 -8.93,2.28 0,1.37 1.7,0.46 0.42,1.37 -1.28,2.74 0.26,5.03 -12.15,0.91 -4.25,6.85 -7.82,4.04 z m -76.55,51.78 -42.05,-0.45 0,0 2.53,-3.16 1.68,-3.92 1.4,-0.3 1.13,0.9 0.56,-0.9 5.88,-2.41 0.84,-1.21 2.81,-0.3 -0.28,-3.01 1.96,-0.6 1.4,-1.51 3.09,0 1.96,-3.61 0.85,0.3 0,1.51 3.37,-1.21 -1.4,-4.22 1.12,0 1.4,1.21 0,2.11 -0.28,1.51 -1.96,1.51 0,2.11 -1.96,1.51 0,1.51 3.93,-1.51 2.8,-3.01 0,-0.9 2.53,-3.32 3.92,-3.01 1.69,-0.3 1.96,-1.81 1.4,-0.3 1.12,-1.2 0.56,-2.11 1.69,-0.6 0.28,1.51 1.68,0.3 0.29,-0.9 -0.84,-1.81 1.12,-0.6 -0.28,-3.01 0.56,-0.6 3.08,1.21 1.4,-0.3 2.24,1.2 3.65,3.62 0.28,2.41 2.8,4.52 -3.37,1.51 0.56,3.32 1.69,1.21 0,0.9 -0.85,1.51 -0.84,0 -0.28,2.71 -1.4,2.11 1.96,1.51 0.28,1.21 -2.24,-0.9 -2.8,3.61 -4.21,-0.3 -0.28,2.11 -1.4,0.6 -1.96,-0.9 -0.28,-1.51 -2.53,-2.71 -0.56,-3.01 -1.4,-1.51 -1.68,0 -0.29,-0.6 -2.24,0.3 0.84,2.41 -0.28,1.2 0.56,0 0.56,3.62 0.84,0.9 -0.31,3.85 z m 24.39,-46.1 0.56,1.81 2.8,-1.21 1.4,0.3 -0.29,1.2 -1.39,0 0,2.71 -1.12,0.6 -0.56,1.51 0.84,1.51 1.69,-0.3 1.68,2.71 0,1.2 -7.01,3.32 -0.84,-2.41 -1.4,-0.91 0,-1.51 -2.25,-1.51 -0.55,-1.51 2.8,-0.3 0.28,-0.6 0.28,-3.01 -1.68,-0.6 0.84,-2.11 1.69,-0.91 2.23,0 z m 51.58,-5.59 0.38,-0.11 0,0 -0.38,0.11 z"
	/>
  <path
		id="tm" 
		name="Tuen Mun"
		d="m 232.12249,186.35733 -1.28,2.29 0,2.74 -2.13,0.46 -5.94,-0.46 -1.7,1.83 -6.8,-2.28 -1.7,2.74 0.85,4.57 -2.56,0 -5.1,-2.74 -3.4,4.11 -1.28,0.46 -1.7,-0.91 -1.7,0.91 0,3.66 2.13,0.46 1.27,4.11 1.28,0.92 3.82,-0.92 0.43,1.37 -0.43,1.37 -1.27,0.91 -3.4,0.46 -3.82,5.02 -3.83,2.74 -0.15,3.7 1.15,0.82 0,0 -1.16,0.61 -3.09,-1.21 -1.12,0.6 -1.69,-0.3 -2.24,-2.11 -0.56,-2.11 -3.37,-3.62 -3.36,1.21 -1.12,-3.92 -4.77,1.81 -1.4,1.51 -4.49,0.61 -1.4,-1.81 -1.69,-0.3 -0.55,-0.9 -3.09,-0.3 -1.12,-2.11 0.28,-1.2 -1.13,0 -0.56,-2.11 -0.84,0 0,2.41 -0.56,0 -0.55,2.11 -1.4,1.51 -2.25,0 -2.8,1.51 -0.56,-1.51 -1.96,-1.21 0.28,2.71 0.84,0.91 -0.56,1.51 -2.8,0 -0.56,-0.6 0.56,-1.81 -0.84,-1.51 -2.24,-2.41 -2.53,-0.3 -1.68,-2.11 -1.96,0 -0.29,1.51 0.85,0.9 0,2.4 -1.4,0.91 -4.49,0.91 -3.08,-3.32 -0.56,0.91 1.4,3.01 0.28,2.71 0.84,0.3 0.56,-0.6 1.13,1.81 -1.13,0.3 -0.28,1.51 -0.56,0 -1.68,-2.71 -1.69,-0.3 -0.84,-1.2 -1.12,0.3 1.12,5.43 -1.12,0.6 -1.12,-1.2 0.84,-1.51 -1.13,0 -0.28,1.51 -2.53,-0.3 -3.08,-2.41 -0.85,-1.81 -0.55,0.9 -1.41,0.3 -1.12,-1.81 -3.09,-1.21 -0.84,-0.9 0.56,-1.2 -0.56,-2.41 -1.12,0 -1.12,-2.41 -1.13,0.3 -2.52,6.93 -1.13,0 -0.56,-2.11 1.4,-3.92 -0.91,-1.81 -2.459999,-0.3 -1.12,1.81 -2.81,0.3 -1.12,0.9 -6.17,-3.31 0.56,-1.81 -1.4,-3.31 -1.12,0.6 0,1.2 -0.84,0.6 -2.8,-4.82 0.34,-2.15 1.12,-0.3 0.28,-0.91 1.13,0.3 1.96,-1.81 1.4,-6.94 -0.85,-3.32 -5.32,-2.71 -0.29,-3.02 -0.84,-0.6 0,-1.2 1.4,-0.9 -0.28,-3.62 -1.96,-1.81 -2.24,0.3 -1.69,-1.81 -2.24,0.3 -4.49,-1.21 -0.84,-1.51 5.61,-7.84 1.12,0 0.56,-1.51 4.48,-3.32 1.13,-4.22 2.8,0 5.33,-2.41 6.45,0.9 0.84,-1.21 2.8,-0.6 1.399999,-1.21 4.55,-0.92 0,0 -0.26,5.8 0.85,1.83 6.38,-7.77 3.4,-7.31 20.82,0.46 0,1.37 1.27,0.91 12.75,0.46 1.27,-0.46 1.28,0.92 3.82,-0.92 0.86,-0.91 5.1,-0.91 0,1.37 -1.7,2.74 0,2.74 2.97,4.11 1.28,-0.46 8.07,0.46 0.42,6.86 1.28,0.92 2.55,0 0.85,0.91 0.43,9.6 39.09,0 0,-2.74 0.85,-0.91 7.65,0 0.85,0.91 -0.43,2.74 -2.55,0.46 -0.42,1.37 0,6.85 7.65,0 1.28,0.92 -0.43,6.87 z m -186.159999,9.4 1.4,1.5 3.09,0 1.12,1.21 0,1.21 -1.4,1.2 -0.28,2.11 0.84,2.41 -0.84,2.71 -1.13,1.21 -1.68,0 -0.84,-0.91 0.84,-4.22 1.12,-0.3 -0.28,-3.01 -3.08,-2.11 -1.69,-0.3 0,-2.71 2.81,0 z m 86.909999,51.84 0.28,1.81 2.79,0.9 -0.27,1.81 -1.4,1.51 -2.79,-0.6 0.26,-4.52 1.13,-0.91 z m -78.499999,-14.46 1.4,1.51 0.85,0 0,-0.91 0.84,-0.3 0.56,1.81 -1.13,1.2 0.29,2.11 -0.56,0.6 -0.85,0 -1.4,-4.82 -1.96,-0.6 0.55,-1.2 1.41,0.6 z m 95.039999,6.93 1.13,2.41 -0.85,0.9 -0.28,2.41 -1.96,2.11 0.29,-3.92 1.11,-0.6 0.56,-3.31 z m -96.999999,-10.25 0,-2.71 1.68,-0.6 0.84,1.81 -2.52,1.5 z m 52.699999,-82.9 -0.21,0.28 0,0 0.21,-0.28 z"
	/>
	<path
		id="wc" 
		name="Wan Chai"
		d="m 367.30249,329.50733 -12.36,3.87 -5.1,-0.91 -1.7,-1.83 -1.7,0 -0.42,1.37 -1.27,0.46 -5.53,-1.38 -6.8,-3.65 0,0 2.12,-3.65 0,-6.39 0.86,-3.65 1.66,-1.79 0.03,-4 -1.35,-3.11 0,0 4.31,-0.3 0.28,-3.32 3.09,0 0.83,2.41 1.41,0 1.12,-0.9 0,0 7.53,0.72 1.85,1.15 0.24,1.12 4.89,-2.45 3.08,6.99 2.56,2.97 2.85,-1.75 0,-1.36 0.85,-0.91 4.91,4.49 0.06,3.27 -7.34,5.83 z"
	/>
	<path
		id="wt" 
		name="Wong Tai Sin"
		d="m 392.30249,248.02733 -8.92,1.37 -2.97,-2.74 -2.13,0.92 -4.25,-0.46 0,0 -0.85,-0.91 -2.55,-0.46 -6.8,4.57 -2.97,-2.29 -1.7,-0.45 -1.28,1.37 -1.7,0 0,-2.29 -1.27,-0.45 0,-3.66 -2.55,-1.37 0.85,-4.11 -1.7,-1.37 -1.27,0 0,-1.83 -1.7,-2.28 0,0 3.82,-1.83 2.98,0.92 5.01,-0.92 -0.34,-2.74 0.85,-0.91 1.7,0 1.27,1.82 2.55,-0.45 2.13,-3.66 1.27,0.92 6.8,-0.46 1.7,-0.92 1.27,0.46 2.56,-0.46 0.42,-1.82 2.13,0 2.12,-1.37 3.82,0 0,0 -0.29,8.38 2.35,15.34 z"
	/>
  <path
		id="yt" 
		name="Yau Tsim Mong"
		d="m 353.76249,287.07733 -0.25,1.2 -1.4,0.6 -1.69,-1.81 -1.96,-0.3 -3.37,3.62 -0.27,1.2 -1.97,1.51 -3.08,-0.9 -1.68,0.6 -1.12,-0.31 -1.12,-1.5 -1.97,0 2.53,-1.2 -0.29,-2.11 -1.96,0 0,-2.42 1.4,-0.3 -0.55,-4.82 -1.97,0.3 -1.4,1.51 -2.24,0.6 -4.77,3.02 -0.56,-4.52 0.84,-1.21 -0.84,-2.41 -0.56,-8.74 3.08,-0.6 0,-0.6 -2.52,-4.52 -3.19,-3.07 0,0 0.03,-1.82 1.71,-1.83 2.12,1.83 0.81,1.86 3.44,-2.77 1.65,-0.45 -1.22,-1.38 0.84,-0.91 11.48,0 1.28,0.91 0,0 -1.71,4.11 0.85,3.2 2.56,6.85 6.79,9.13 0,1.83 2.12,1.37 z"
	/>
  <path
		id="yl" 
		name="Yuen Long"
		d="m 295.85249,103.63733 -1.28,4.11 -4.89,6.16 -0.34,1.72 -2.41,2.18 -6.41,8.58 -0.82,2.85 1.71,5.03 2.52,4.07 0.74,5.89 7.69,9.65 0.51,4.15 0,0 -0.42,2.74 -2.55,2.74 0,1.37 -3.4,0 -2.12,-0.91 -3.4,2.74 -0.85,1.83 -2.55,0.92 -1.7,-0.46 -1.27,0.91 -1.28,0 -0.42,-1.37 -1.28,-0.91 -3.82,0.45 -2.55,3.66 -5.11,4.11 -2.11,0 -2.56,-1.83 -2.55,-0.45 -1.69,0.91 -4.25,4.57 -3.41,0.46 -1.27,-0.46 -2.55,4.57 -1.27,-0.91 -1.7,0.45 -4.67,3.2 0,0 0.42,-6.85 -1.28,-0.92 -7.64,0 0,-6.85 0.42,-1.37 2.55,-0.46 0.42,-2.74 -0.84,-0.91 -7.65,0 -0.85,0.91 0,2.74 -39.09,0 -0.43,-9.6 -0.85,-0.91 -2.55,0 -1.28,-0.91 -0.42,-6.86 -8.07,-0.45 -1.28,0.45 -2.97,-4.11 0,-2.74 1.7,-2.75 0,-1.37 -5.1,0.92 -0.85,0.91 -3.82,0.92 -1.28,-0.92 -1.27,0.46 -12.75,-0.46 -1.27,-0.91 0,-1.37 -20.82,-0.46 -3.4,7.31 -6.38,7.77 -0.85,-1.83 0.26,-5.8 0,0 0.21,-0.28 0,0 7.29,-4.83 1.13,-3.62 0,-3.01 2.8,-4.23 3.64,-2.41 0.29,-4.22 1.68,-1.81 3.08,0 7.01,-4.82 5.32,-0.61 6.46,-3.62 0.27,-1.2 1.69,-1.51 0.84,-4.83 2.24,-4.52 3.93,-3.020001 1.12,-2.11 1.68,-0.3 0.84,-2.42 1.4,0 1.69,-1.8 0.84,-2.72 1.12,-1.21 1.4,-5.73 1.68,-0.91 2.24,-3.01 1.12,0.6 3.09,-0.3 1.68,1.81 6.45,1.51 -0.84,9.05 -2.24,0 -0.29,5.43 -1.12,0.9 0,0.91 1.97,-0.91 0.27,2.12 5.05,5.120001 1.12,0 1.97,-2.11 2.24,0.61 1.12,-1.51 -1.96,-2.420001 -1.13,-0.3 2.53,-3.01 1.96,0 1.41,-1.21 1.67,0 2.25,1.21 1.12,1.81 -1.12,7.240001 0.56,1.5 1.12,-0.6 0.28,-4.22 0.56,-0.61 2.25,0 4.76,1.81 1.4,1.51 3.64,1.51 0.01,0.6 2.24,1.21 -0.56,-2.71 -1.68,-0.31 -3.65,-2.71 -5.32,-2.410001 -1.97,-1.81 -0.56,-1.81 -2.24,-0.31 -5.04,-6.03 -1.13,0.3 0,1.51 -2.8,0.3 -3.09,2.11 -1.11,3.02 -0.57,0 -0.28,5.730001 -0.56,0 0,-5.430001 -1.4,-1.2 -1.12,0 -1.97,-2.42 1.41,-0.3 0.84,1.21 2.24,-0.61 1.41,-1.5 0,-1.82 3.92,-2.1 2.24,-0.31 0.57,-1.2 3.08,-1.21 0.27,-2.11 -0.55,0 -0.29,-2.72 1.97,-1.81 0.56,-4.22 4.85,-5.49 1.69,-0.45 5.1,-5.95 1.7,0.46 1.7,-1.83 6.38,1.83 7.22,-0.46 2.98,-3.2 0,-3.2 1.27,-3.66 4.25,-3.65 5.53,-1.83 4.25,-0.46 4.66,3.2 6.38,-4.12 0,0 1.7,-0.45 2.13,-2.75 1.26,0 2.13,1.83 -1.27,5.95 0.85,0.91 0,2.29 1.7,1.83 -1.28,1.83 -1.27,-0.46 -0.86,0.92 0,2.74 1.28,0.91 0.85,5.95 -1.69,2.28 0.84,2.75 2.13,3.2 -0.86,1.37 0,4.11 -2.97,7.32 0,15.090001 7.65,-0.46 3.4,-0.91 2.97,-2.290001 4.68,0.460001 6.37,-2.290001 1.27,0.46 2.56,2.740001 1.27,0 2.55,3.2 z"
	/>
</svg>
