<svg
	xmlns="http://www.w3.org/2000/svg"
	viewBox="0 0 492 1027"
	aria-label="Map of Tunisia"
>
	<path
		id="ariana"
		name="Ariana"
		d="m 326.75,32.544113 -2.875,-0.8125 -4.96875,1.40625 -4.21875,0.71875 -2.125,2.125 -7.0625,12.71875 -3.5625,4.96875 -2.8125,8.46875 -2.125,4.25 v 2.125 l 2.125,0.6875 0.6875,-0.6875 3.5625,-0.71875 1.40625,-0.6875 v 3.53125 l 1.40625,2.125 2.125,2.8125 1.40625,1.40625 7.09375,-3.53125 7.75,-2.125 7.09375,-2.125 4.21875,-2.09375 4.8125,-3 -6.21875,-6.21875 -4.9375,-2.125 -4.25,-5.65625 -2.8125,-4.9375 -0.71875,-3.53125 v -2.84375 l 2.8125,-3.53125 z"
	/>
	<path
		id="beja"
		name="Beja"
		d="m 284.09375,113.98161 -0.53125,-2.34375 -3.53125,-5.65625 -2.84375,-7.062497 -2.09375,-3.53125 -0.71875,-1.4375 -2.84375,-2.125 -4.9375,-3.53125 -2.84375,-0.6875 -3.53125,-2.125 -2.125,-1.40625 -2.09375,-2.125 -2.125,-0.71875 -1.4375,-2.125 -2.8125,-3.53125 -1.1875,-2.0625 -1.65625,0.65625 -2.09375,2.8125 -5.65625,4.96875 -3.5625,2.8125 h -2.8125 l -4.25,-3.53125 -3.53125,-2.8125 -2.84375,-3.5625 -5.65625,-7.0625 -4.9375,-7.0625 -2.8125,-4.96875 -4.96875,-9.1875 -0.6875,-2.8125 h -4.25 l -3.53125,-2.84375 -3.5625,-1.40625 v -2.8125 -4.25 -5.65625 -1.75 l -1.40625,0.34375 -6.34375,3.53125 -5.65625,7.78125 -7.78125,9.875 -0.34375,0.1875 1.75,1.25 3.53125,4.21875 v 6.375 l 1.40625,5.65625 v 2.125 4.9375 l 2.125,4.96875 0.71875,4.21875 1.40625,2.125 2.84375,4.25 0.6875,3.53125 1.40625,3.53125 2.125,6.374997 1.4375,6.375 2.09375,4.9375 -0.6875,5.65625 -2.84375,2.84375 v 2.8125 l -0.6875,4.25 -1,4.03125 4.53125,5.15625 0.6875,1.40625 3.5625,1.4375 v 0.6875 l 2.8125,1.40625 2.125,-2.09375 4.25,-1.4375 5.65625,0.71875 5.65625,1.40625 0.6875,2.84375 h 2.125 2.125 l 0.71875,-4.25 2.8125,-2.84375 4.25,-2.8125 5.65625,-2.84375 h 8.5 l 3.53125,2.84375 0.6875,2.125 2.84375,1.40625 4.9375,-3.53125 4.25,-1.40625 3.53125,-0.71875 6.375,-0.71875 2.8125,-2.8125 0.71875,-4.25 2.125,-2.8125 4.25,-4.96875 4.21875,-0.6875 z"
	/>
	<path
		id="ben-arous"
		name="Ben Arous"
		d="m 331.0625,81.231613 -0.84375,1.40625 -2.09375,5.65625 -2.84375,2.84375 -2.125,1.40625 h -4.25 l -2.09375,1.40625 -4.25,1.4375 h -2.84375 l -3.53125,0.6875 -2.8125,3.53125 -4.25,1.437497 -1.0625,1.0625 0.34375,1.0625 2.125,2.8125 4.25,2.125 h 1.40625 l 4.25,1.40625 h 4.25 l 3.53125,0.71875 v 2.125 l 5.65625,7.0625 5.65625,6.375 2.125,2.09375 1.40625,2.125 3.53125,-0.6875 1.40625,-1.4375 2.84375,-0.6875 2.125,-0.21875 v -4.75 l 3.53125,-11.3125 2.125,-8.46875 2.125,-8.499997 1.28125,-4.625 -7.65625,-1.03125 -6.375,-4.21875 -5.65625,-2.84375 z"
	/>
	<path
		id="bizerte"
		name="Bizerte"
		d="m 192.06251,25.000001 -0.25,14.5 3.5,1.5 3.5,2.75 4.25,0.25 0.75,2.750001 7.75,13.75 11.75,16.250001 6,5.25 3,2.5 3,0.5 9.25,-7.75 2.25,-3 2,-0.75 1,-1 1.75,-1.5 v -2.25 l 16.5,-5.750001 8.5,-5 5.75,-3 13.25,3 5,0.25 1.25,-4.25 3.75,-5.5 6.5,-12.000001 2.5,-2.25 9.25001,-2 h 3.25 l -9.50001,-5.25 13.00001,-1 v -3.75 L 313.56251,13.25 l -9,-1.75 -15,2.75 -4.5,2.75 7.5,3.25 -1.75,6.000001 -6.5,2.5 -6,-2 -3,-2.5 0.75,-8.000001 2.75,-2.25 7,-3.25 0.25,-3.5 -3.5,-3.5 -8,-3.75 -10.25,0.25 -49.5,19 z"
  />
	<path
		id="gabes"
		name="Gabès"
		d="m 272.96875,587.60661 6.34375,-0.78125 11.3125,-2.125 9.90625,-0.71875 7.0625,-2.125 4.25,-2.8125 7.0625,-6.375 4.25,-4.25 3.53125,-1.40625 7.09375,-2.8125 5.65625,-5.65625 7.0625,-12.03125 6.375,-9.90625 3.59375,-3.15625 -6.4375,-3.21875 -9.90625,-4.21875 -7.0625,-6.375 -9.1875,-9.1875 -8.5,-10.59375 -7.0625,-12.03125 -3.53125,-12.03125 -2.84375,-12 -0.6875,-5.65625 h 0.53125 l -1.96875,-1.4375 h -1.40625 l -1.40625,2.125 -3.53125,2.125 -2.84375,-2.125 -2.8125,-2.8125 -4.25,-3.5625 -4.25,-0.6875 -4.21875,0.6875 -3.5625,-1.40625 -2.8125,-2.125 -2.84375,-3.53125 -2.125,-4.25 h -3.53125 l -4.9375,2.125 -9.1875,5.65625 -7.0625,2.84375 -9.90625,-0.71875 -4.96875,-2.125 -3.53125,2.125 -4.9375,2.84375 h -0.71875 l 0.71875,3.53125 0.6875,1.40625 v 4.25 l -1.40625,7.78125 -2.125,7.78125 -1.40625,2.8125 3.53125,13.4375 0.71875,7.0625 5.65625,11.3125 6.34375,9.90625 4.25,3.53125 8.5,4.25 7.0625,5.65625 3.53125,5.65625 2.125,1.40625 -1.40625,2.125 -1.40625,3.53125 -1.4375,3.5625 -1.40625,3.53125 0.71875,2.125 12.71875,16.25 10.59375,10.59375 1.4375,0.71875 z"
	/>
	<path
		id="gafsa"
		name="Gafsa"
		d="m 248.90625,447.20036 v -9.59375 l 0.71875,-4.9375 -0.71875,-2.84375 -4.21875,-3.53125 -11.3125,-7.0625 -7.78125,-6.375 -6.375,-4.21875 -2.84375,-3.5625 -2.09375,-7.75 -1.4375,-2.84375 v -3.53125 l -1.40625,-2.125 -3.53125,-2.8125 -11.3125,-2.84375 -12.71875,-1.40625 -11.3125,-2.84375 -7.78125,-1.40625 -2.84375,-0.71875 -2,-2 -7.1875,3.4375 -15.5625,6.34375 -7.0625,1.4375 -6.375,-0.71875 -5.65625,-0.71875 -6.34375,-3.53125 -9.21875,-2.8125 -6.34375,-2.125 v 0.6875 h -2.84375 l -2.125,1.4375 -2.09375,2.8125 -0.71875,2.125 0.71875,2.125 1.40625,2.125 1.40625,0.6875 -0.71875,2.84375 -4.9375,4.9375 -8.5,7.78125 -2.09375,1.875 v 2.375 6.375 6.34375 2.84375 l -0.71875,4.25 -4.25,0.6875 -4.25,4.25 -1.40625,2.8125 -1.40625,2.84375 3.53125,0.71875 3.53125,2.8125 9.1875,7.78125 6.375,4.25 4.25,2.125 6.34375,0.6875 3.5625,4.25 2.09375,7.78125 4.96875,2.125 6.34375,-0.71875 6.375,-1.40625 18.375,0.71875 7.78125,1.40625 5.65625,-1.40625 H 157 l 8.46875,-1.4375 4.96875,-0.6875 h 5.65625 l 1.40625,2.125 4.9375,-1.4375 2.84375,-5.65625 2.125,-3.53125 4.9375,-2.125 h 12.71875 l 4.96875,-2.8125 h 5.65625 l 4.9375,-2.84375 3.53125,-2.125 4.96875,2.125 9.90625,0.71875 7.0625,-2.84375 z"
	/>
	<path
		id="jendouba"
		name="Jendouba"
		d="m 186.40625,131.23161 1,-4.03125 0.6875,-4.25 v -2.8125 l 2.84375,-2.84375 0.6875,-5.65625 -2.09375,-4.9375 -1.4375,-6.375 -2.125,-6.374997 -1.40625,-3.53125 -0.6875,-3.53125 -2.84375,-4.25 -1.40625,-2.125 -0.71875,-4.21875 -2.125,-4.96875 v -4.9375 -2.125 l -1.40625,-5.65625 v -6.375 l -3.53125,-4.21875 -1.75,-1.25 -10.96875,6.1875 -9.90625,0.71875 -9.90625,2.09375 -3.53125,2.84375 v 2.84375 l 2.125,3.53125 v 4.21875 l -0.71875,4.96875 -4.25,3.53125 -9.1875,4.25 -4.9375,4.21875 -0.71875,3.5625 -2.125,6.34375 -4.21875,4.968747 -4.96875,4.9375 -9.1875,3.53125 L 87,113.04411 l -3.53125,2.84375 v 2.8125 l 1.40625,3.53125 4.9375,2.84375 9.1875,0.71875 4.96875,1.40625 2.125,2.125 v 4.9375 4.96875 l -0.21875,1.25 0.21875,0.15625 0.6875,2.125 2.84375,1.40625 0.6875,1.40625 1.4375,-2.125 1.40625,-1.40625 2.125,-0.71875 1.40625,1.4375 h 1.40625 l 0.71875,-2.125 3.53125,-0.71875 4.9375,-2.125 1.4375,-2.8125 4.21875,-0.71875 h 5.65625 l 4.96875,1.40625 6.34375,0.71875 7.78125,-0.71875 h 7.09375 l 6.34375,-3.53125 6.375,-3.53125 2.8125,-0.71875 2.84375,1.4375 2.8125,1.40625 z"
	/>
	<path
		id="kairouan"
		name="Kairouan"
		d="m 325.65625,174.26286 -0.375,0.3125 -2.125,0.71875 -5.65625,2.09375 -2.125,1.4375 -2.8125,4.9375 -2.84375,4.9375 -0.6875,2.84375 h -2.84375 l -2.8125,-0.71875 -2.125,-2.125 -4.96875,-2.8125 -4.21875,-2.125 -4.25,-1.40625 h -3.53125 l -7.09375,2.125 h -4.21875 -3.53125 l -3.5625,2.8125 -4.9375,4.25 -10.59375,4.25 -7.09375,7.78125 -3.53125,5.65625 v 4.21875 9.21875 l 1.40625,3.53125 2.125,2.8125 h 1.4375 v 1.40625 l -1.4375,0.71875 -2.125,0.71875 -2.8125,1.40625 -4.25,3.53125 h -5.65625 -4.25 L 220.625,235.38786 H 218.5 l -3.53125,0.6875 h -0.6875 l 0.6875,2.84375 1.40625,1.40625 2.125,1.4375 1.4375,1.40625 1.40625,2.125 2.125,2.8125 3.53125,2.125 3.53125,7.0625 7.0625,10.625 2.84375,3.53125 v 6.375 l -0.71875,7.0625 v 2.8125 l 3.53125,3.53125 5.65625,5.65625 7.09375,6.375 13.4375,7.0625 13.40625,5.65625 11.3125,2.125 2.84375,-0.6875 h 4.25 v 3.53125 l 0.6875,2.125 1.4375,3.53125 2.125,5.65625 v 4.25 l 1.09375,2.15625 1.71875,-3.59375 9.1875,-11.3125 6.375,-5.65625 2.84375,-0.46875 1.40625,-3.0625 2.09375,-1.40625 -2.09375,-5.65625 -1.4375,-5.65625 -3.53125,-7.0625 v -7.09375 l 2.125,-11.3125 2.125,-9.90625 4.25,-8.46875 2.8125,-1.40625 1.40625,-2.125 h 2.34375 L 338,253.76286 l -3.53125,-7.0625 -4.9375,-9.90625 -3.53125,-7.78125 -2.84375,-2.8125 v -2.125 -2.125 l -2.125,-2.84375 -0.6875,-1.40625 2.125,-2.125 3.53125,-4.21875 2.8125,-5.65625 2.125,-3.5625 1.40625,-6.34375 -1.40625,-4.25 -0.71875,-1.40625 v -2.125 -1.40625 l -1.40625,-0.71875 h -3.53125 l -2.125,-1.40625 -2.125,-0.71875 v -1.40625 l 1.4375,-2.125 2.09375,-3.53125 z"
	/>
	<path
		id="kasserine"
		name="Kasserine"
		d="m 96.1875,376.10661 6.34375,2.125 9.21875,2.8125 6.34375,3.53125 5.65625,0.71875 6.375,0.71875 7.0625,-1.4375 15.5625,-6.34375 17.6875,-8.5 9.875,-7.0625 4.96875,-7.78125 2.125,-6.375 4.21875,-3.53125 0.71875,-4.25 4.25,-2.125 9.1875,-2.8125 6.375,-4.25 2.125,-9.90625 v -7.75 l -1.4375,-4.25 -2.8125,-2.125 -2.125,-1.40625 -2.125,-0.71875 -3.53125,-1.40625 -1.40625,-3.53125 v -4.96875 l 3.53125,-6.34375 4.9375,-2.84375 0.71875,-2.8125 0.6875,-2.84375 3.5625,-2.125 4.21875,-2.8125 2.125,-2.84375 v -5.65625 l -2.8125,-3.53125 -4.96875,-3.53125 -6.34375,-4.25 -5.65625,-3.53125 -2.84375,-2.125 -4.25,-1.40625 -0.6875,-0.71875 -4.96875,-1.40625 -2.8125,-2.84375 v -1.40625 l -2.84375,-4.25 -2.125,-0.6875 h -2.09375 l -6.375,-1.4375 -7.0625,-4.9375 -2.125,-1.40625 -7.09375,-2.125 -4.9375,-1.40625 -2.8125,-0.71875 h -2.84375 -4.25 l -1.40625,3.53125 -2.8125,4.96875 v 4.21875 2.125 l -1.4375,2.84375 -3.53125,2.125 h -2.8125 -3.53125 l -3.5625,-3.53125 -2.125,-1.4375 -4.9375,0.71875 -2.8125,1.40625 -2.84375,2.84375 -0.71875,1.40625 -4.21875,1.40625 -1.09375,0.125 -1.03125,13.3125 -1.40625,11.3125 -2.125,9.1875 v 6.375 l 1.40625,5.65625 2.8125,5.65625 6.375,10.59375 0.71875,1.4375 -0.71875,1.40625 -2.8125,2.125 -3.5625,4.25 -4.21875,7.75 -2.125,7.78125 -0.71875,12.03125 -1.40625,8.5 v 12 l 0.71875,2.125 0.6875,3.53125 0.71875,2.125 z"
	/>
	<path
		id="kebili"
		name="Kebili"
		d="m 104.4375,697.35661 20.75,-5.1875 38.875,-9.90625 24.75,-4.9375 h 14.15625 l 11.3125,-2.125 18.375,-4.25 8.46875,-2.8125 6.375,-1.40625 5.65625,-5.65625 5.65625,-2.84375 5.65625,-2.125 5.65625,0.71875 6.375,5.65625 7.78125,8.46875 6.34375,5.65625 3.53125,0.71875 5.65625,1.40625 -2.8125,-4.25 -3.53125,-4.9375 -2.125,-8.46875 2.8125,-12.75 2.84375,-9.90625 2.125,-5.65625 -1.40625,-4.9375 -5.65625,-4.9375 -1.4375,-2.125 0.71875,-2.125 0.71875,-4.9375 2.09375,-9.90625 -0.6875,-2.125 -1.40625,-2.84375 -4.25,-1.40625 -9.90625,-3.53125 -4.25,-3.53125 -0.6875,-1.40625 v -2.84375 l -1.4375,-0.71875 -10.59375,-10.59375 -12.71875,-16.25 -0.71875,-2.125 1.40625,-3.53125 1.4375,-3.5625 1.40625,-3.53125 1.40625,-2.125 -2.125,-1.40625 -3.53125,-5.65625 -7.0625,-5.65625 -8.5,-4.25 -4.25,-3.53125 -6.34375,-9.90625 -5.65625,-11.3125 -0.71875,-7.0625 -3.53125,-13.4375 1.40625,-2.8125 2.125,-7.78125 1.40625,-7.78125 v -4.25 l -0.6875,-1.40625 -0.71875,-3.53125 h -4.9375 l -4.96875,2.8125 h -12.71875 l -4.9375,2.125 -2.125,3.53125 -2.84375,5.65625 -4.9375,1.4375 -1.40625,-2.125 h -5.65625 l -4.96875,0.6875 -8.46875,1.4375 h -4.96875 l -5.65625,1.40625 -5.8125,-1.0625 0.15625,1.0625 v 4.25 l -2.8125,3.53125 -2.125,5.65625 -4.9375,5.65625 -4.25,6.34375 -5.65625,3.5625 -4.96875,3.53125 -3.53125,4.9375 -6.34375,4.25 -4.96875,4.25 -7.0625,3.53125 -4.9375,4.21875 h -1.4375 l -2.125,4.96875 -2.8125,1.40625 -3.53125,3.53125 -2.84375,0.71875 -3.53125,4.25 -4.25,4.21875 -3.53125,1.4375 -0.6875,1.40625 h -1.4375 l -3.53125,2.125 -2.125,3.53125 -2.125,2.125 -1.40625,1.40625 -7.0625,3.53125 -7.0625,4.25 -4.25,2.125 -7.78125,1.71875 v 3.21875 17.6875 L 29,593.88786 l 2.84375,2.8125 2.8125,2.84375 7.78125,2.8125 4.25,2.84375 7.0625,1.40625 7.78125,4.25 4.25,0.71875 5.65625,1.40625 1.40625,0.71875 v 2.8125 l 1.40625,2.125 3.53125,2.8125 L 87,635.60661 95.46875,649.76286 99,656.10661 l 0.71875,4.96875 0.71875,10.59375 2.09375,14.15625 0.71875,8.46875 0.71875,2.84375 z"
	/>
	<path
		id="kef"
		name="Kef"
		d="m 181.375,237.85661 0.375,-1.0625 0.6875,-2.8125 1.4375,-5.65625 v -4.96875 -3.53125 l 2.8125,-4.25 0.71875,-4.9375 5.65625,-6.375 4.9375,-7.0625 1.40625,-1.40625 0.71875,-4.96875 v -5.65625 l -1.40625,-2.8125 -4.25,-4.96875 -3.53125,-5.65625 -5.65625,-7.78125 -1.40625,-5.65625 -0.71875,-3.53125 -0.71875,-4.21875 -2.125,-4.25 -1.40625,-3.53125 -2.125,-4.96875 -1.40625,-1.40625 -1.40625,-2.125 -1.40625,-0.6875 -1.90625,-1.15625 -5.875,3.25 h -7.09375 l -7.78125,0.71875 -6.34375,-0.71875 -4.96875,-1.40625 h -5.65625 l -4.21875,0.71875 -1.4375,2.8125 -4.9375,2.125 -3.53125,0.71875 -0.71875,2.125 h -1.40625 l -1.40625,-1.4375 -2.125,0.71875 -1.40625,1.40625 -1.4375,2.125 -0.6875,-1.40625 -2.84375,-1.40625 -0.6875,-2.125 -0.21875,-0.15625 -0.5,2.96875 -3.53125,7.09375 -2.84375,9.875 -2.125,26.1875 -2.8125,16.25 -1.40625,9.1875 0.6875,9.1875 2.125,9.1875 2.84375,3.5625 3.53125,3.53125 1.40625,5.65625 -0.375,5.0625 1.09375,-0.125 4.21875,-1.40625 0.71875,-1.40625 2.84375,-2.84375 2.8125,-1.40625 4.9375,-0.71875 2.125,1.4375 3.5625,3.53125 h 3.53125 2.8125 l 3.53125,-2.125 1.4375,-2.84375 v -2.125 -4.21875 l 2.8125,-4.96875 1.40625,-3.53125 h 4.25 2.84375 l 2.8125,0.71875 4.9375,1.40625 7.09375,2.125 2.125,1.40625 7.0625,4.9375 6.375,1.4375 h 2.09375 z"
	/>
	<path
		id="mahdia"
		name="Mahdia"
		d="m 424.28125,257.54411 -5.65625,1.875 -9.90625,4.25 -4.9375,5.65625 -4.25,4.25 -2.84375,-1.4375 -5.65625,-1.40625 -6.34375,-1.40625 -7.0625,-2.84375 -7.78125,-2.09375 -4.96875,-1.4375 -5.65625,-0.6875 -5.65625,-0.71875 h -4.25 l -6.34375,-4.25 -3.53125,-2.8125 h -3.5625 l -1.40625,2.125 -2.8125,1.40625 -4.25,8.46875 -2.125,9.90625 -2.125,11.3125 v 7.09375 l 3.53125,7.0625 1.4375,5.65625 2.09375,5.65625 -2.09375,1.40625 -1.40625,3.0625 1.40625,-0.21875 h 4.9375 l 6.375,2.125 7.0625,2.8125 2.8125,2.125 3.5625,-2.125 9.875,-3.53125 7.78125,-4.9375 2.84375,-3.5625 0.6875,-4.9375 5.65625,-1.40625 8.5,2.8125 5.65625,0.71875 6.375,2.8125 4.9375,5.65625 6.375,3.5625 7.0625,5.65625 h 5.65625 v -2.84375 l 1.40625,-4.9375 4.25,-3.53125 2.125,0.6875 4.25,-6.375 3.53125,-3.53125 -2.84375,-2.125 -2.125,-1.40625 -4.9375,-3.53125 -3.53125,-6.375 -0.71875,-4.9375 -0.6875,-5.65625 2.09375,-7.0625 3.5625,-4.96875 -2.125,-3.53125 -4.25,-3.53125 z"
	/>
	<path
		id="manouba"
		name="Manouba"
		d="m 284.09375,113.98161 2.3125,-0.9375 2.8125,-5.65625 3.53125,-3.53125 v -2.8125 l 2.125,-2.124997 h 1.40625 l 2.125,0.6875 -0.6875,1.437497 0.34375,1.0625 1.0625,-1.0625 4.25,-1.437497 2.8125,-3.53125 3.53125,-0.6875 h 0.25 l -0.25,-1.4375 -1.40625,-2.8125 v -1.40625 l -0.71875,-1.4375 -2.8125,-4.9375 v -3.53125 l 3.53125,-2.125 1.40625,-0.71875 -1.40625,-1.40625 -2.125,-2.8125 -1.40625,-2.125 v -3.53125 l -1.40625,0.6875 -3.5625,0.71875 -0.6875,0.6875 -2.125,-0.6875 v -2.125 l 2.125,-4.25 1.1875,-3.59375 -1.1875,0.0625 -4.96875,-0.71875 -2.8125,-0.6875 -2.84375,-0.71875 -2.8125,-0.71875 -3.53125,-0.6875 -6.375,2.8125 -7.0625,4.25 -7.78125,2.84375 -4.9375,2.125 -4.25,1.40625 v 2.125 l -1.40625,2.125 -1.90625,0.75 1.1875,2.0625 2.8125,3.53125 1.4375,2.125 2.125,0.71875 2.09375,2.125 2.125,1.40625 3.53125,2.125 2.84375,0.6875 4.9375,3.53125 2.84375,2.125 0.71875,1.4375 2.09375,3.53125 2.84375,7.062497 3.53125,5.65625 z"
	/>
	<path
		id="mednine"
		name="Mednine"
		d="m 291.59375,617.01286 12.46875,-0.5 7.09375,-2.125 6.34375,-7.78125 11.3125,-2.8125 10.625,-2.125 9.875,-4.25 11.3125,-4.9375 8.5,-2.84375 9.1875,1.40625 4.96875,3.5625 5.65625,5.65625 2.8125,4.9375 8.5,2.84375 11.3125,5.65625 9.1875,4.21875 5.65625,4.25 1.40625,6.375 4.25,9.1875 2.125,9.1875 v 18.375 6.375 l 2.125,2.8125 7.75,8.5 8.5,6.375 12.03125,9.1875 v 2.125 l -2.84375,4.9375 -5.65625,9.1875 -7.0625,10.625 -4.96875,7.78125 -1.03125,2.78125 9.53125,-4.90625 29,-14.15625 9.1875,-9.1875 1.40625,-1.40625 v -2.125 l -0.6875,-2.84375 -0.71875,-3.53125 -2.125,-5.65625 -5.65625,-4.25 -2.84375,-5.65625 -1.40625,-5.65625 v -16.25 -14.84375 l 0.71875,-7.09375 1.40625,-9.875 1.40625,-8.5 3.5625,-10.59375 0.6875,-2.125 1.40625,-2.125 -1.40625,-2.125 -4.9375,-0.71875 -13.4375,-0.6875 -14.15625,-2.125 -9.90625,-2.125 -4.9375,-4.25 -2.8125,-8.46875 -1.4375,-8.5 -0.6875,-9.90625 1.40625,-7.0625 1.40625,-4.25 -0.6875,-5.65625 -4.25,-5.65625 -2.84375,-5.65625 -3.53125,-2.09375 h -8.46875 l -5.65625,2.09375 -1.4375,2.125 2.125,2.84375 1.4375,1.40625 -0.71875,3.53125 -4.25,3.53125 -7.0625,2.84375 -4.25,2.8125 -4.9375,2.125 -5.65625,-2.8125 -2.125,-3.53125 -1.40625,-3.5625 2.09375,-2.09375 1.4375,-2.125 2.125,-4.96875 v -2.125 -5.65625 l 0.6875,-4.9375 -3.53125,-0.71875 -1.40625,-1.40625 -5.65625,2.84375 -4.96875,2.09375 -4.21875,2.125 -4.25,2.125 -4.25,1.4375 -2.8125,-1.4375 -2.0625,-1.03125 -3.59375,3.15625 -6.375,9.90625 -7.0625,12.03125 -5.65625,5.65625 -7.09375,2.8125 -3.53125,1.40625 -4.25,4.25 -7.0625,6.375 -4.25,2.8125 -7.0625,2.125 -9.90625,0.71875 -11.3125,2.125 -6.34375,0.78125 v 1.34375 l 0.6875,1.40625 4.25,3.53125 9.90625,3.53125 4.25,1.40625 1.40625,2.84375 0.6875,2.125 -2.09375,9.90625 z m 96.62243,-113.6358 v 3.53554 l -0.70711,2.12132 -0.7071,4.24264 v 4.24264 l 0.7071,2.82843 2.12132,3.53553 4.24264,1.41421 3.53554,-1.41421 0.7071,-2.12132 2.82843,0.70711 1.41421,0.7071 0.70711,2.82843 1.41422,4.94975 v 2.12132 l 1.41421,1.41421 1.41421,-0.70711 1.41422,-4.94974 6.36396,-4.24264 4.94974,-3.53554 4.24264,-4.24264 2.12133,-0.7071 2.82842,-2.12132 0.70711,-2.82843 -2.12132,-2.12132 -2.82843,-1.41422 -1.41421,-1.41421 -7.07107,-3.53553 -2.82843,-2.12132 -8.48528,-0.70711 -9.89949,-1.41421 -2.82843,0.7071 z"
	/>
	<path
		id="monastir"
		name="Monastir"
		d="m 384.9375,224.38786 c -0.0516,0.15011 -0.0345,0.39489 -0.0937,0.53125 -0.33146,0.76235 -0.77681,1.321 -1.21875,1.71875 -0.88388,0.7955 -1.78126,0.96875 -1.78125,0.96875 l -3.5313,3.53125 v 1.40625 2.84375 1.40625 l 1.40625,3.53125 -0.6875,3.53125 -3.53125,4.25 -4.96875,6.375 -8.15625,8.15625 2.5,0.3125 4.96875,1.4375 7.78125,2.09375 7.0625,2.84375 6.34375,1.40625 5.65625,1.40625 2.84375,1.4375 4.25,-4.25 4.9375,-5.65625 9.90625,-4.25 5.65625,-1.875 v -0.25 -3.53125 l 1.40625,-2.8125 1.40625,-2.125 -0.6875,-3.53125 -3.53125,-1.4375 -6.375,-2.09375 -5.65625,-1.4375 -6.375,-2.125 -5.65625,-4.9375 -5.65625,-5.65625 -7.78125,-2.84375 z"
	/>
	<path
		id="nabeul-1"
		name="Nabeul 1"
		d="m 405.9908,58.950005 c -4.94975,16.970563 -5.3033,16.970563 -5.3033,16.970563 l 0.70711,8.838835 -4.24264,8.83885 1.06066,7.778167 -11.31371,14.84924 -8.13173,5.3033 6.01041,9.19239 4.8474,-2.11473 7.78125,-1.40625 2.125,-4.96875 4.9375,-9.1875 6.375,-15.531247 7.78125,-11.34376 7.78125,-10.59375 6.34375,-9.1875 1.4375,-3.53125 v -3.53125 l -0.71875,-2.84375 -2.8125,-10.59375 -0.71875,-7.09375 -0.71875,-2.09375 -2.8125,-0.71875 -2.84375,2.125 -4.21875,1.40625 -7.78125,3.53125 -2.84375,2.84375 -3.53125,5.65625 -5.65625,4.9375 m 1.5098,-0.360036 c 4.94975,2.828428 4.94975,2.474874 4.94975,2.474874"
	/>
	<path
		id="nabeul-2"
		name="Nabeul 2"
		d="m 405.9908,58.596451 c 0,0 0,0.353554 -4.94975,-2.474874 l -1.5098,0.360036 -2.125,2.125 -2.8125,3.53125 -9.21875,4.25 -5.65625,0.71875 -4.21875,-0.71875 -2.125,0.71875 -4.25,4.21875 -2.84375,7.09375 -0.6875,5.65625 h -4.25 l -2.8125,3.53125 -3.5625,2.125 -2.9375,-0.40625 -1.28125,4.625 -2.125,8.499997 -2.125,8.46875 -3.53125,11.3125 v 5.65625 7.09375 3.53125 l 2.8125,1.40625 h 6.375 l 13.4375,0.59375 0.6875,-1.28125 3.5625,-2.125 3.53125,-0.71875 h 2.125 l 8.90443,-6.09889 -5.63724,-8.76002 8.13173,-5.3033 11.31371,-14.84924 -1.06066,-7.778167 4.24264,-8.83884 -0.70711,-8.838835 c 0,0 0.35355,0 5.3033,-16.970563"
	/>
	<path
		id="sfax-1"
		name="Sfax 1"
		d="m 310.53139,411.44274 16.617,-13.08148 8.48529,2.47488 4.24264,-6.01041 -3.18198,-8.13173 -0.70711,-7.77817 0.35355,-14.14214 6.36397,-7.42462 21.56676,6.71751 12.37437,-7.42462 c 0,0 -0.35356,0.35356 18.73833,18.73834 l 0.2506,1.779 5.65625,-8.5 2.125,-3.53125 2.125,-3.53125 3.53125,-2.8125 9.1875,-16.96875 4.96875,-10.625 1.40625,-4.25 v -2.09375 h -5.65625 l -7.0625,-5.65625 -6.375,-3.5625 -4.9375,-5.65625 -6.375,-2.8125 -5.65625,-0.71875 -8.5,-2.8125 -5.65625,1.40625 -0.6875,4.9375 -2.84375,3.5625 -7.78125,4.9375 -9.875,3.53125 -3.5625,2.125 -2.8125,-2.125 -7.0625,-2.8125 -6.375,-2.125 h -4.9375 l -4.25,0.6875 -6.375,5.65625 -9.1875,11.3125 -8.5,17.6875 -13.40625,21.90625 -5.65625,14.875 0.6875,4.9375 3.53125,2.84375 10.625,0.6875 6.34375,2.125 4.25,3.53125 2.84375,2.84375 0.6875,2.8125 v 2.84375 m 138.95505,-46.32431 -4.24264,7.07107 -3.53553,2.82843 -1.41422,4.24264 -3.53553,4.24264 0.70711,2.12132 2.12132,-0.70711 3.53553,-2.12132 7.07107,-4.94975 4.94975,-3.53553 2.82842,-3.53553 1.41422,-2.12133 v -2.12132 l -2.12132,-1.41421 -3.53554,-0.70711 z"
	/>
	<path
		id="sfax-2"
		name="Sfax 2"
		d="m 309.71875,412.16911 -5.65625,4.9375 -7.78125,3.53125 h -4.21875 l -4.25,2.125 -6.375,3.53125 -9.90625,4.96875 -2.8125,4.9375 v 2.125 l 2.125,2.8125 1.40625,1.4375 v 1.40625 2.8125 l -1.125,3.9375 0.40625,0.3125 3.5625,1.40625 4.21875,-0.6875 4.25,0.6875 4.25,3.5625 2.8125,2.8125 2.84375,2.125 3.53125,-2.125 1.40625,-2.125 h 1.40625 l 1.96875,1.4375 h 2.28125 v -3.5625 l 1.4375,-2.8125 4.21875,-4.25 1.4375,-2.125 6.34375,-7.0625 4.25,-2.125 5.65625,-3.53125 12.71875,-5.65625 2.125,-2.125 2.84375,-0.71875 4.9375,-6.34375 2.125,-2.84375 -0.71875,-1.40625 2.84375,-2.84375 5.65625,-2.09375 7.78125,-2.84375 4.21875,-0.71875 1.4375,-3.53125 1.40625,-2.125 1.40625,-3.53125 4.25,-4.9375 2.84375,-0.71875 h 4.21875 1.4375 l 3.53125,-7.0625 2.8125,-5.65625 -0.2506,-1.779 c -19.09189,-18.38478 -18.73833,-18.73834 -18.73833,-18.73834 l -12.37437,7.42462 -21.56676,-6.71751 -6.36397,7.42462 -0.35355,14.14214 0.70711,7.77817 3.18198,8.13173 -4.24264,6.01041 -8.48529,-2.47488 -16.617,13.08148"
	/>
	<path
		id="sidi-bouzid"
		name="Sidi Bouzid"
		d="m 237.84375,268.23161 -8.71875,-1.03125 h -2.84375 l -2.8125,2.125 -2.84375,2.0625 v 1.46875 l -2.125,2.84375 -4.21875,2.8125 -3.5625,2.125 -0.6875,2.84375 -0.71875,2.8125 -4.9375,2.84375 -3.53125,6.34375 v 4.96875 l 1.40625,3.53125 3.53125,1.40625 2.125,0.71875 2.125,1.40625 2.8125,2.125 1.4375,4.25 v 7.75 l -2.125,9.90625 -6.375,4.25 -9.1875,2.8125 -4.25,2.125 -0.71875,4.25 -4.21875,3.53125 -2.125,6.375 -4.96875,7.78125 -9.875,7.0625 -10.5,5.0625 2,2 2.84375,0.71875 7.78125,1.40625 11.3125,2.84375 12.71875,1.40625 11.3125,2.84375 3.53125,2.8125 1.40625,2.125 v 3.53125 l 1.4375,2.84375 2.09375,7.75 2.84375,3.5625 6.375,4.21875 7.78125,6.375 11.3125,7.0625 4.21875,3.53125 0.71875,2.84375 -0.71875,4.9375 v 9.59375 l 6.375,-3.9375 4.9375,-2.125 H 263.75 l 2.125,4.25 2.84375,3.53125 2.40625,1.8125 1.125,-3.9375 v -2.8125 -1.40625 l -1.40625,-1.4375 -2.125,-2.8125 v -2.125 l 2.8125,-4.9375 9.90625,-4.96875 6.375,-3.53125 4.25,-2.125 h 4.21875 l 7.78125,-3.53125 5.65625,-4.9375 v -2.84375 l -0.6875,-2.8125 -2.84375,-2.84375 -4.25,-3.53125 -6.34375,-2.125 -10.625,-0.6875 -3.53125,-2.84375 -0.6875,-4.9375 5.65625,-14.875 13.40625,-21.90625 6.78125,-14.09375 -1.09375,-2.15625 v -4.25 l -2.125,-5.65625 -1.4375,-3.53125 -0.6875,-2.125 v -3.53125 H 297 l -2.84375,0.6875 -11.3125,-2.125 -13.40625,-5.65625 -13.4375,-7.0625 -7.09375,-6.375 -5.65625,-5.65625 -3.53125,-3.53125 v -2.8125 l 0.71875,-7.0625 v -6.375 z"
	/>
	<path
		id="sousse"
		name="Sousse"
		d="m 325.65625,174.26286 -1.09375,2.4375 -2.09375,3.53125 -1.4375,2.125 v 1.40625 l 2.125,0.71875 2.125,1.40625 h 3.53125 l 1.40625,0.71875 v 1.40625 2.125 l 0.71875,1.40625 1.40625,4.25 -1.40625,6.34375 -2.125,3.5625 -2.8125,5.65625 -3.53125,4.21875 -2.125,2.125 0.6875,1.40625 2.125,2.84375 v 2.125 2.125 l 2.84375,2.8125 3.53125,7.78125 4.9375,9.90625 3.53125,7.0625 0.21875,0.71875 h 1.21875 l 3.53125,2.8125 6.34375,4.25 h 4.25 l 5.65625,0.71875 3.15625,0.375 8.15625,-8.15625 4.96875,-6.375 3.53125,-4.25 0.6875,-3.53125 -1.40625,-3.53125 v -1.40625 -2.84375 -1.40625 l 3.53125,-3.53125 c -10e-6,0 0.89737,-0.17325 1.78125,-0.96875 0.44194,-0.39775 0.88729,-0.9564 1.21875,-1.71875 0.0593,-0.13636 0.0422,-0.38114 0.0937,-0.53125 l -5.2187,-4.5625 -8.46875,-9.1875 -6.375,-12.03125 -7.0625,-14.84375 -1.40625,-8.46875 0.6875,-12.03125 2.84375,-12.03125 5.65625,-10.71875 -13.4375,-0.59375 h -6.375 l -0.5625,-0.28125 0.5625,1.6875 0.71875,2.84375 0.71875,4.25 -0.71875,5.65625 -1.40625,2.8125 -1.4375,2.84375 -5.65625,4.9375 -2.8125,1.40625 -5.65625,4.96875 z"
	/>
	<path
		id="siliana"
		name="Siliana"
		d="m 181.375,237.85661 1.0625,0.34375 2.84375,4.25 v 1.40625 l 2.8125,2.84375 4.96875,1.40625 0.6875,0.71875 4.25,1.40625 2.84375,2.125 5.65625,3.53125 6.34375,4.25 4.96875,3.53125 2.8125,3.53125 v 4.1875 l 2.84375,-2.0625 2.8125,-2.125 h 2.84375 l 8.71875,1.03125 -0.25,-0.3125 -7.0625,-10.625 -3.53125,-7.0625 -3.53125,-2.125 -2.125,-2.8125 -1.40625,-2.125 -1.4375,-1.40625 -2.125,-1.4375 -1.40625,-1.40625 -0.6875,-2.84375 h 0.6875 l 3.53125,-0.6875 h 2.125 l 3.53125,1.40625 h 4.25 5.65625 l 4.25,-3.53125 2.8125,-1.40625 2.125,-0.71875 1.4375,-0.71875 v -1.40625 H 243.25 l -2.125,-2.8125 -1.40625,-3.53125 v -9.21875 -4.21875 l 3.53125,-5.65625 7.09375,-7.78125 10.59375,-4.25 4.9375,-4.25 3.5625,-2.8125 h 0.46875 l 1.625,-3.53125 1.4375,-2.125 v -4.25 -3.53125 l -2.125,-2.125 H 268 l -4.25,-2.84375 -4.21875,-0.6875 -4.96875,-3.53125 -2.8125,-3.5625 h -1.40625 l 1.40625,-2.09375 4.25,-0.71875 6.34375,-2.84375 2.84375,-3.53125 2.125,-1.40625 0.6875,-2.8125 2.125,-2.84375 v -3.53125 l 1.40625,-3.53125 -1.40625,-3.53125 -1.40625,-1.4375 -6.375,0.71875 -3.53125,0.71875 -4.25,1.40625 -4.9375,3.53125 -2.84375,-1.40625 -0.6875,-2.125 -3.53125,-2.84375 h -8.5 l -5.65625,2.84375 -4.25,2.8125 -2.8125,2.84375 -0.71875,4.25 h -2.125 -2.125 l -0.6875,-2.84375 -5.65625,-1.40625 -5.65625,-0.71875 -4.25,1.4375 -2.125,2.09375 -2.8125,-1.40625 v -0.6875 l -3.5625,-1.4375 -0.6875,-1.40625 -4.96875,-5.65625 -2.8125,-1.40625 -2.84375,-1.4375 -2.8125,0.71875 -6.375,3.53125 -0.46875,0.28125 1.90625,1.15625 1.40625,0.6875 1.40625,2.125 1.40625,1.40625 2.125,4.96875 1.40625,3.53125 2.125,4.25 0.71875,4.21875 0.71875,3.53125 1.40625,5.65625 5.65625,7.78125 3.53125,5.65625 4.25,4.96875 1.40625,2.8125 v 5.65625 l -0.71875,4.96875 -1.40625,1.40625 -4.9375,7.0625 -5.65625,6.375 -0.71875,4.9375 -2.8125,4.25 v 3.53125 4.96875 l -1.4375,5.65625 -0.6875,2.8125 z"
	/>
	<path
		id="tataouine"
		name="Tataouine"
		d="m 291.59375,617.01286 -0.25,1.625 -0.71875,2.125 1.4375,2.125 5.65625,4.9375 1.40625,4.9375 -2.125,5.65625 -2.84375,9.90625 -2.8125,12.75 2.125,8.46875 3.53125,4.9375 2.8125,4.25 -5.65625,-1.40625 -3.53125,-0.71875 -6.34375,-5.65625 -7.78125,-8.46875 -6.375,-5.65625 -5.65625,-0.71875 -5.65625,2.125 -5.65625,2.84375 -5.65625,5.65625 -6.375,1.40625 -8.46875,2.8125 -18.375,4.25 -11.3125,2.125 H 188.8125 l -24.75,4.9375 -38.875,9.90625 -20.75,5.1875 0.9375,0.46875 2.125,0.71875 3.53125,2.8125 5.65625,4.25 7.0625,4.9375 7.09375,5.6875 7.0625,5.65625 11.3125,8.46875 17.6875,12.71875 4.9375,4.25 6.375,4.96875 10.59375,6.34375 56.5625,267.28134 3.53125,1.4375 8.5,-4.9688 12.03125,-4.9375 6.34375,-3.5312 8.5,-0.7188 3.53125,-0.7187 2.8125,-4.2188 0.71875,-1.4375 4.25,-4.9375 25.4375,-35.34379 11.3125,-19.8125 4.25,-10.59375 1.40625,-4.25 -1.40625,-11.3125 -4.25,-16.96875 -5.65625,-16.96875 -9.1875,-23.34375 -1.40625,-7.78125 v -4.25 l 7.0625,-14.84375 9.1875,-16.25 5.65625,-6.375 2.125,-1.40625 7.78125,-0.71875 7.78125,2.125 6.375,-0.71875 10.59375,-13.40625 5.65625,-8.5 7.78125,-10.59375 1.40625,-2.84375 3.53125,-1.40625 2.84375,-3.53125 2.125,-1.4375 h 2.125 l 1.40625,-0.6875 4.25,-7.78125 4.9375,-9.1875 34.3125,-17.71875 1.03125,-2.78125 4.96875,-7.78125 7.0625,-10.625 5.65625,-9.1875 2.84375,-4.9375 v -2.125 l -12.03125,-9.1875 -8.5,-6.375 -7.75,-8.5 -2.125,-2.8125 v -6.375 -18.375 l -2.125,-9.1875 -4.25,-9.1875 -1.40625,-6.375 -5.65625,-4.25 -9.1875,-4.21875 -11.3125,-5.65625 -8.5,-2.84375 -2.8125,-4.9375 -5.65625,-5.65625 -4.96875,-3.5625 -9.1875,-1.40625 -8.5,2.84375 -11.3125,4.9375 -9.875,4.25 -10.625,2.125 -11.3125,2.8125 -6.34375,7.78125 -7.09375,2.125 z"
	/>
	<path
		id="tozeur"
		name="Tozeur"
		d="m 27.59375,567.32536 7.78125,-1.71875 4.25,-2.125 7.0625,-4.25 7.0625,-3.53125 1.40625,-1.40625 2.125,-2.125 2.125,-3.53125 3.53125,-2.125 h 1.4375 l 0.6875,-1.40625 3.53125,-1.4375 4.25,-4.21875 3.53125,-4.25 2.84375,-0.71875 3.53125,-3.53125 2.8125,-1.40625 2.125,-4.96875 h 1.4375 l 4.9375,-4.21875 7.0625,-3.53125 4.96875,-4.25 6.34375,-4.25 3.53125,-4.9375 4.96875,-3.53125 5.65625,-3.5625 4.25,-6.34375 4.9375,-5.65625 2.125,-5.65625 2.8125,-3.53125 v -4.25 l -0.15625,-1.0625 -1.96875,-0.34375 -18.375,-0.71875 -6.375,1.40625 -6.34375,0.71875 -4.96875,-2.125 -2.09375,-7.78125 -3.5625,-4.25 -6.34375,-0.6875 -4.25,-2.125 -6.375,-4.25 -9.1875,-7.78125 -3.53125,-2.8125 -3.53125,-0.71875 1.40625,-2.84375 1.40625,-2.8125 4.25,-4.25 4.25,-0.6875 0.71875,-4.25 v -2.84375 -6.34375 -6.375 -2.375 l -4.25,3.78125 h -4.96875 l -1.40625,2.84375 -16.25,6.34375 -6.375,5.65625 -1.40625,4.25 v 5.65625 l -2.84375,9.90625 -4.9375,4.9375 -8.5,2.125 h -3.53125 l -1.40625,1.40625 -5.65625,4.25 -3.53125,5.65625 -5.65625,4.96875 -2.125,4.9375 L 2.125,486.41911 1.4375,490.63786 0,496.29411 v 3.5625 l 1.4375,5.65625 2.8125,8.46875 1.40625,7.0625 0.71875,4.25 1.40625,4.9375 1.4375,2.125 4.21875,7.78125 5.65625,9.1875 4.96875,7.09375 3.53125,9.875 z"
	/>
	<path
		id="tunis-1"
		name="Tunis 1"
		d="m 316.78135,73.575363 8.41607,2.827024 2.85951,4.971666 0.16248,0.259955 h 0.29244 2.14465 l -0.42241,0.682386 v 0.03251 l -0.0323,0.03251 -2.14465,5.816549 -0.0323,0.065 -2.76205,2.72953 -0.0647,0.0649 -1.98216,1.29979 h -4.28929 -0.16245 l -0.13001,0.0976 -2.04714,1.39725 -0.12997,0.0649 -4.1918,1.39728 h -2.17712 l -0.19499,-1.07232 -0.0323,-0.065 -0.0323,-0.0652 -1.39724,-2.79453 v -1.36479 -0.12998 l -0.0648,-0.0975 -0.74741,-1.49476 v -0.0323 l -2.85951,-5.004185 v -3.249421 l 3.37946,-2.047157 h 0.0323 l 8.61107,-4.321773 z"
	/>
	<path
		id="tunis-2"
		name="Tunis 2"
		d="m 340.6875,64.106613 -0.3125,0.1875 -4.78125,2.999999 h -0.0312 l -4.125,2.0625 -0.0625,0.03125 -7,2.09375 h -0.0312 c -1.88336,0.345003 -7.2471,2.107094 -7.2471,2.107094 l 8.06548,2.552681 3.08777,-0.847274 h 3.25 l 1.125,0.5625 1.34375,2.6875 0.125,0.28125 h 0.3125 3.53125 0.34375 l 0.125,-0.34375 0.65625,-2 0.0312,-0.0625 0.0312,-0.0625 1.25,-1.875 0.0312,-0.03125 2.8125,-2.093751 0.0314,-0.0625 0.0625,-0.03125 2.125,-2.8125 0.25,-0.34375 -0.3125,-0.3125 -3.53125,-3.53125 -0.875,-0.874999 z"
	/>
	<path
		id="zaghouan"
		name="Zaghouan"
		d="m 342.96875,126.98161 -2.125,0.21875 -2.84375,0.6875 -1.40625,1.4375 -3.53125,0.6875 -1.40625,-2.125 -2.125,-2.09375 -5.65625,-6.375 -5.65625,-7.0625 v -2.125 l -3.53125,-0.71875 h -4.25 l -4.25,-1.40625 h -1.40625 l -4.25,-2.125 -2.125,-2.8125 -0.6875,-2.125 0.6875,-1.437497 -2.125,-0.6875 H 294.875 l -2.125,2.124997 v 2.8125 l -3.53125,3.53125 -2.8125,5.65625 -3.5625,1.4375 -4.21875,0.6875 -4.25,4.96875 -2.125,2.8125 -0.71875,4.25 -2.8125,2.8125 1.40625,1.4375 1.40625,3.53125 -1.40625,3.53125 v 3.53125 l -2.125,2.84375 -0.6875,2.8125 -2.125,1.40625 -2.84375,3.53125 -6.34375,2.84375 -4.25,0.71875 -1.40625,2.09375 H 251.75 l 2.8125,3.5625 4.96875,3.53125 4.21875,0.6875 4.25,2.84375 h 2.84375 l 2.125,2.125 v 3.53125 4.25 l -1.4375,2.125 -1.625,3.53125 h 3.0625 4.21875 l 7.09375,-2.125 h 3.53125 l 4.25,1.40625 4.21875,2.125 4.96875,2.8125 2.125,2.125 2.8125,0.71875 h 2.84375 l 0.6875,-2.84375 2.84375,-4.9375 2.8125,-4.9375 2.125,-1.4375 5.65625,-2.09375 2.125,-0.71875 4.25,-3.53125 5.65625,-4.96875 2.8125,-1.40625 5.65625,-4.9375 1.4375,-2.84375 1.40625,-2.8125 0.71875,-5.65625 -0.71875,-4.25 -0.71875,-2.84375 -0.5625,-1.6875 -2.25,-1.125 v -3.53125 -7.09375 z"
	/>
</svg>
