<svg
	xmlns="http://www.w3.org/2000/svg"
	viewBox="0 0 1000 2458"
	aria-label="Map of Malawi"
> 
	<path 
		id="MWI1194" 
		name="Chitipa" 
		d="M469.8 377.5l-4.4-0.6-6.8-2.2-2.8-0.2-3 0.8-3.8 1.3-2 0.1-6.6-4.1-43.7-36.8-70.3-110.1-3.4-7.2-2.4-3.1-2.2-0.8-11.1 1.1-7 0.1-2.9-1.1-3.9-2.2-10.5-8.9-2.4-1.5-5.4-0.7-3.3-0.7-3.4-1.8-2.3-2.3-2.4-3.7-1.6-1.8-2-1.6-2.3-1.2-3.6-2.6-1.5-2.2-0.6-2.6 0.2-3.9 0.6-1.1 1.3-0.9 7.8-2.5 14.8-9.4 1.6-1.5 2.9-3.7 4-0.8 2.5-0.8 4.1-3.7 2.1-2.5 2-3.2 2.8-6.2 1.1-1.6 3.2-2.5 3.9-4 2.1-1.8 1.8-1.1 2.3-0.7 5.2-1 1.2-1.9 0.2-3.3-2-5.4-0.7-3.1-0.4-5.9-1.3-3-2.1-3.5-0.9-2.8-0.2-2.3 0.9-5.4 0.2-3.5-1.3-2.7-1.3-1.4-5.9-11.1 8-1 8.1-4.6 9.9-2.7 8.4 5.2 7.9 8 8 5.3 7.2 2.9 8.7 5.3 7.4 6.3 3.4 6.2 3.6 2.6-2.3 2.3-1.5 10.2 2.4 21.6 7.2 17.2 2.4 1.1 2.4 0.3 1.9 0.9 0.8 3.1 0 10.7 3.4 21.3 9 21 25.4 36.9 17.1 17.3 9.7 7.2 5 4.4 2.1 4.4 1.4 4.7 3.4 4.9 10.9 12.6 2.5 4.4 3.2 10.8 3.5 7.9 0.6 0.9-1.9 3.3-1.9 0.4-2.1-0.5-2.6 1-5.2 4.5-1.7 2.8 0.6 9.9 0.7 2.7 1.2 2.5 0.1 2.3-2 2.2-7.5 4.4-2.1 2-2.6 5.5 0.8 2.2z" 
	/>
	<path
		id="MWI1873" 
		name="Karonga"
		d="M304.9 72.7l5.9 11.1 1.3 1.4 1.3 2.7-0.2 3.5-0.9 5.4 0.2 2.3 0.9 2.8 2.1 3.5 1.3 3 0.4 5.9 0.7 3.1 2 5.4-0.2 3.3-1.2 1.9-5.2 1-2.3 0.7-1.8 1.1-2.1 1.8-3.9 4-3.2 2.5-1.1 1.6-2.8 6.2-2 3.2-2.1 2.5-4.1 3.7-2.5 0.8-4 0.8-2.9 3.7-1.6 1.5-14.8 9.4-7.8 2.5-1.3 0.9-0.6 1.1-0.2 3.9 0.6 2.6 1.5 2.2 3.6 2.6 2.3 1.2 2 1.6 1.6 1.8 2.4 3.7 2.3 2.3 3.4 1.8 3.3 0.7 5.4 0.7 2.4 1.5 10.5 8.9 3.9 2.2 2.9 1.1 7-0.1 11.1-1.1 2.2 0.8 2.4 3.1 3.4 7.2 70.3 110.1-75.8 34.5-8.7 3.5-0.4-4.3-2.2-5.7 0-8.2-8.4-1.1-4.8-5.5-6-14-2.3-2.7-8.6-7.7-2.6-3.7-8.1-19.3-1.1-7.5 1.9-17.5-0.7-9.9-4.4-5.1-6.1-4.3-5.8-7.5-7.9-2.9-5.6-4.6-5-5.5-6.5-5.5-25.1-11.3-4.2-5.7 0.2-8.1 1.6-7.9 5.8-14.7 9.2-14.3 2.2-6.6-2-8.7-4.9-12.3-2-2.5-11.4-4.2-3.7-2-3.7-3.3-2.6-3.8-4.5-8.4-3.4-3.7-7.7-4.8-2.9-4.4-0.8-4.6 1-3 1.6-2.5 0.8-3.3-0.4-4.8-1.4-4.2-4.4-7.8-6.2-4.4-16.6-0.8-7.1-3.5-1.8 8.1-1 9.3-2.8 5.7-6.8-2.5-1.6-3-0.7-3.8-1.2-3.3-3.4-1.6-4.2 1.1-3.4 2.3-3.4 1.6-4.1-1.4-3.7-8.5 5.4-22.5-0.1-8.5-2.7-1.3-4.5-4.2-2.1-1.3-3.5 0.2-2.1 1.5-1.9 0.7-3-2.5-1.4-4.2-0.7-18.3 4.8-5 5.8-3 6-0.3 5.4 3.2 15.4 15.4 19 14.7 2.8 1.1 8.3 1.9 9 3.6 1.1 0.6 2.8-0.9 4.3-3.6 2-1 4.3 0 6.4 2 3.7 0.3 2.6-0.8 4.9-3.3 2.7-0.5 5.5 2 17.4 12.3 5.7 5.4 5.2 11.6 3.8 5.8 4.7 3.4 6 1.8 12.7 1 9.6-2.4 7.3-4.2 7.5-3.2 10.4 1.1 9.4 3 8.1 1.4z" 
		 />
	<path
		id="MWI1899" 
		name="Kasungu"
		d="M361.8 1045.7l-4.1 25-0.3 9.8 0.8 3.2 1.4 3.4 1.5 1.7 2.2 0.9 2.6 0.1 17.4-2.1 5.2 0.5 2.9 0.8 3.8 2.4 2.7 3.5 3.2 5.3 10.3 12.1 1.5 4 0.3 1.7-0.5 1-3.1 1.5-12.1 10-2.3 3.4-2.2 5.8-0.8 1.2-4 3.8-22.3 11.1-2.4 2.1-3 3-0.6 2.4-1.6 3.4-1.9 1.8-2.9 1.7-4.6 1.9-4.1 3.2-1.9 2.4-3.9 7.1-6.2 7.2-3.4 2.9-3 1.7-2.2 0.9-1.1 1.6-0.8 2.3-1.1 1.3-1.4 0.7-5.2 1.1-5.2 1.7-4.5 2.7-5 2.2-4.6 0.4-4.8 4.9-2.8 6.9-1.1 2.3-1.3 1.6-2.7 2-4.4 2.3-1.4 1.3-3.4 6.3-2.5 1.9-2.2 3.4-2 1.2-1.9 0.7-3.7-0.4-3.5-1.5-4.7-4-1.8-0.7-2.8 0.1-1.4 1-0.9 1.4 0 1.7 1.2 2.9 1.7 2.7 1.2 2.9-0.2 3.6-2.4 7.1-1 2.1-3.8 6.2-2.3 7.1-5.7 11-2.5 3.4-4.6 1.6-2 1.3-2.7 6.7-0.4 2.3 1.4 3 0.6 2.2 0.1 2.9-0.6 5.2-1 2.7-1.1 1.8-9.1 7.6-5.5 6.2-12.4-14.1-8.5-5-3.1-3-4.3-5.2-11-10.3-3.7-4.7-2.7-5.2-3.3-8.9-5.1-10.7-1.4-4-0.4-3.9 1.4-6.5-0.1-3.3-1.5-4.6-1.8-2-1.7-1-67.9 4.2-4.2 0.5 4.3-17.9 5.6-12.4 7.7-9.7 9.3-2.8 1.6-4.4-0.9-3.6-5-7.3-2.4-5.4-1.2-5.3-0.4-5.5 4.8-35 8.4-19.3 1.5-8.8-2.7-7.6-7.5-7.1-8.3-5.2-2-3.4-1.9-23.2 1.1-5.5 4.2-8.6 11.1-16.7 9.4-18.9 3.3-4.2 4.3-3.9 2.5-1.1 2.2 0.5 1.6 1.7 1.3 2.5 2.2 2.1 2.7-1.3 2.8-2.4 2.4-1.4 4.9-1.3 2.3-0.3 3 0.8 2.1 2.2 3.7 7 1.3 1.6 3.1-0.1 1.5-1.6 1-2.2 1.9-1.8 4.8-3.3 3.1-1.1 4.3-3 5.1-10.8 3.5-4 2.5-1.1 8.2-1.4 3.8 0.3 3 1.5 2.6 1.7 2.5 0.8 6.8-1.6 7-4.5 6.3-6.4 4.8-7.2 3.5-3.3 9.4-3.7 2.7-3.8 0.3-7.7 1.4-2.4 4.6-0.8 2.3-5.3 8-4.9 4.6 1.1 13.8 2.9 2 1.7 1.7 2.2-0.7 3.8-1.7 2.8-3 3.5-1.7 2.8-0.7 1.6-0.7 3.8 0.2 17.1 0.5 3.3 0.7 2.3 3.9 4.8 2.2 4 0.7 2.6 0.2 2.3-0.7 1.4-2.2 2.1-1.2 2.6-0.9 3.8-0.3 9.1 1.1 3.4 1.5 1.5 3.7-0.4 3.9 0.4 3 1.6 2.1 2.2 5.4 8.1 3.3 3.8 1.6 1.4 3.1 1.8 3.5 1 4.1 0.6 4.2 0.3 3.6-0.4 4.5-1.8 4.8-3.6 1.4-0.5 3.6-0.2 1.6-0.3 2.2 0.7 2.6 1.4 6.8 5.9 1.8 1.3 1.5 0 4.7-3.2 2.6-0.8z" 
		/>
 
	<path
		id="MWI1900" 
		name="Mzimba"
		d="M430 531.8l-3.3 22.5-7.4 25.1-0.5 5.6 0.8 3.6 4.6 2.6 2.1 1.5 1.6 2.4 7.2 28.5 1.3 1.9 4.2 4.8 3.7 11.7-0.3 5.3-1.2 2.6-2.7 1.4-5.7 1.5-5.5 2.6-4.6-2-3.3-0.7-4.8 0.3-3.2 2.2-2.9 3.8-3.6 8.5-2.4 4.5-2.5 3.3-2.6 1.5-2.9 0.9-2.5 0.1-2.1-0.2-12.2-3.4-4.1-0.3-2.4 0.7-2.4 1.4-6.6 6.4-6.7 3.9-3.4 2.7-4.4 5.2-2.3 3.4-1.5 3.5-3.5 17.3-0.7 6.5-0.1 3.7 0.3 3.3 0.5 3.3 1.4 3.1 1.8 2.6 4.7 4 0.7 1.5 1.1 4.2 1.3 1.9 4.3 3.7 1.2 2.6 0 5.3-1.9 5.7-1.4 6.4-2.8 4.3-0.7 2.8-0.2 2.9 1.9 7.4 0.6 4.6-0.2 6.4 0.4 4.4 1.2 3.9 1.3 3 0.9 3.8-1.2 2.9-6.3 8.6-2.4 2.4-3.1 1.6-3.3 0.7-3.4 0.4-3.1 1-2.9 2.2-3 3.5-3.1 5-0.8 3.1 0.4 2.6 1.9 1.8 2.4 1.3 5.2 1.7 1.7 1.1 1.5 1.7 1.4 2.4 1.6 1.7 2.1 1.3 2.5 0.6 18.5-0.2-19.9 16.8-5.4 8.6-0.1 2.7 1.2 8.9 1.4 3.8 2.4 2.5 3.5 1.4 9.8 0.9 4.4 2.6 4.1 4.1 4.6 9.6 3.1 4.7 5.8 6.5 0.9 4.8 0.7 7 1.5 4.6 2.1 3.7 2.4 3.3 2.7 3.1 3 1.5 8-0.3 4 0.7 11.2 5.7 3.6 1.3 3.9 0.9 3.8 0.4 3.8-0.4 7.1-1.8 2.9 0 3.1 1.6 1.2 2.5-1 1.5-4.7 4.5-2.6 3-2.2 7.1-1.1 2.4-1.5 1.8-1.7 0.8-5.7 0.7-6.6 1.6-2.7 1-2.6 1.5-4.8 4-3.3 2.1-10.2 3.7-9.1 1.4-2.5 1-2.1 1.5-3.5 3.7-8.3 14.2-7 9.4-2.6 0.8-4.7 3.2-1.5 0-1.8-1.3-6.8-5.9-2.6-1.4-2.2-0.7-1.6 0.3-3.6 0.2-1.4 0.5-4.8 3.6-4.5 1.8-3.6 0.4-4.2-0.3-4.1-0.6-3.5-1-3.1-1.8-1.6-1.4-3.3-3.8-5.4-8.1-2.1-2.2-3-1.6-3.9-0.4-3.7 0.4-1.5-1.5-1.1-3.4 0.3-9.1 0.9-3.8 1.2-2.6 2.2-2.1 0.7-1.4-0.2-2.3-0.7-2.6-2.2-4-3.9-4.8-0.7-2.3-0.5-3.3-0.2-17.1 0.7-3.8 0.7-1.6 1.7-2.8 3-3.5 1.7-2.8 0.7-3.8-1.7-2.2-2-1.7-13.8-2.9-4.6-1.1 1.3-0.8 2.8-5-0.5-6.5-3.5-1.3-5.2 0.2-12-4.3-22.7 6.9-10.8-3.8-6-9.3-5.4-22-3.9-10.3-3.5-4.3-8.7-8.4-2.3-5.1-0.4-10.6 1.1-10.4 12.1-28.8 2.9-16.1 1.7-5 1.1-4.9-1.2-4.5-3.5-6.9-0.1-5 4.1-11.9 1.1-11.5-3.5-51.1-1.8-5.1-4.2-4.8-5-0.8-5.4 0.6-5.2 0-5.1-1.9-1-2.5 4.5-9.7 2-5.9 0.3-3.9-1.4-26.7 2.9-4.5 7.8 6.5 2.6-4.3 0.1-4-0.6-4.1 0.5-4.4 1.4-1.7 4.7-2 1.7-1.5 0.4-1.9-1-3.5 0.4-2.1 21.6-33.5 4.3-8.8 2.7-9.3-9.9-17.4-6.9-6.9-5.7-7.9-4.4-8.7-3-9.4-0.9-9.3 20.1 8.2 11.3 1.9 10.3 0.4 2.6 1.2 1.7 1.8 1.3 5.5 0.8 5.5-0.1 3-0.6 3.1-1.9 4.9-0.4 2.6 1.1 3.2 2.5 0.7 2.7-0.9 6.3-4.5 5.4-4.6 4.6-4.8 1.7-2.3 3.9-6.8 1.7-2.1 2.2-1.6 4.1-0.9 3.1 1 3.1 2.2 3.2 3.1 3.2 2.5 4.2 2.3 3.7 0.7 3.3 0 11.8-1.8 2.6 0.4 1.9 1.5 2.5 5.1 1.6 2.2 2.9 1.8 2.7 0.3 2.5-0.4 2.5-0.9 2.1-1.4 1.9-2.2 1-2.4 0.3-1.8-0.5-1.4-1.8-3.2-0.6-1.9 0.6-1.9 1.6-1.1 11.2-3 9.4-1.1 29.1 4.2 4.3-0.6 2.7-1.8 2.1-13.6 0.6-2.2 1.2-1.6 2.2 0.7 19.7 15.9 4.4 5.2 3.9 5.5 4.2 8.2z" 
		/>
 
	<path
		id="MWI1901" 
		name="Nkhata Bay"
		d="M422 886.5l-0.6 0-22.5-5.4-12.6-5.5-4.1-2.8-6.6-5.9-3-0.9-2.7-0.2-5.7 1.3-18.5 0.2-2.5-0.6-2.1-1.3-1.6-1.7-1.4-2.4-1.5-1.7-1.7-1.1-5.2-1.7-2.4-1.3-1.9-1.8-0.4-2.6 0.8-3.1 3.1-5 3-3.5 2.9-2.2 3.1-1 3.4-0.4 3.3-0.7 3.1-1.6 2.4-2.4 6.3-8.6 1.2-2.9-0.9-3.8-1.3-3-1.2-3.9-0.4-4.4 0.2-6.4-0.6-4.6-1.9-7.4 0.2-2.9 0.7-2.8 2.8-4.3 1.4-6.4 1.9-5.7 0-5.3-1.2-2.6-4.3-3.7-1.3-1.9-1.1-4.2-0.7-1.5-4.7-4-1.8-2.6-1.4-3.1-0.5-3.3-0.3-3.3 0.1-3.7 0.7-6.5 3.5-17.3 1.5-3.5 2.3-3.4 4.4-5.2 3.4-2.7 6.7-3.9 6.6-6.4 2.4-1.4 2.4-0.7 4.1 0.3 12.2 3.4 2.1 0.2 2.5-0.1 2.9-0.9 2.6-1.5 2.5-3.3 2.4-4.5 3.6-8.5 2.9-3.8 3.2-2.2 4.8-0.3 3.3 0.7 4.6 2 5.5-2.6 5.7-1.5 2.7-1.4 1.2-2.6 0.3-5.3-3.7-11.7-4.2-4.8-1.3-1.9-7.2-28.5-1.6-2.4-2.1-1.5-4.6-2.6-0.8-3.6 0.5-5.6 7.4-25.1 3.3-22.5 42.6-25.1 11.4-9.1-0.8 29 2 10.3 4.3 5.9-8.5 15.2-2.2 7.9 3.5 8.2 1.7 2.9 0.1 3.3-0.9 7.8 1 5 2.1 2.7 2.8 1.9 2.8 3.1 6.1 17.8 2.1 39.4 6 22.3-0.1 9.1 1.4 3.3 2.1 3.1 1.6 4.4 1.6 8.5-0.3 10.2-2.6 6.3-12.6 12-3.3 1.9-2 2-1.2 1.9-1.1 3.9-1.1 1.7-3.4 2.7-7.3 4.2-3 2.9-3.4 7-2.5 9.5 0 9.2 3.8 6.4-35 27-3.9 5.1-1.9 5.5-1.6 12-3.6 15.7-1.2 10.1-3.6 15.3 0.1 5.3z" 
		/>
 
	<path
		id="MWI1902" 
		name="Nkhotakota"
		d="M422 886.5l2.8 20.7 5.5 15.1 0.5 3.1 0.1 3.5 1 2.9 5.6 2.2 1.6 2.4 0.5 3-0.7 2.4 7.1 1.7 6.1-1 6 0 7.2 4.6 9.5 28.1 1.1 7.1-0.2 2.9-2 3-2.9 3.3-1.3 2.9-0.9 7.8 0.1 7.8 1.3 8 4.8 14.5 6.5 11.7 4.7 5.5 11.6 5.1 0.3 6.8-4.1 15.3 1.9 6.6 9.3 8.4 3.4 5.6 0.2 4.1-1.9 7.3 0.7 3.8 2.4 2.2 2.3-1.9 1.6-3.6 0.9-3.2 0.9 4.5-2.3 9.4-0.5 5.4 3.6 15.9 0.6 51.4 2.9 21.9-1.6 8.8-6.6 9.4-3.9 9 1.1 10.5 3.9 10.3 1.5 2.6-0.7 0-26.6 15.3-12.7 5.5-7.5 1.5-3.6 0.4-9.4 4.4-2.6-41.9-6.3-24.4 0.3-4.7 1.2-4.2 1.3-2.8 0.3-2.6-2.6-16.6-0.9-3.2-1.7-2.5-3.5-0.5-5.5-0.5-1.7-1.5-1.2-3-0.1-3.1 1.3-5.4 0.4-2.6-0.6-1.6-1.5-0.1-13 3.9-1.2 0.9-0.7 1.2-2.1 8.1-1.1 2.5-1.4 1.8-2.2 1.8-2.4 0.5-2.2-0.8-3-2-2-1.9-1.7-2.1 0.4-5.4-0.3-3-3.4-6-3.3-4.3-2.2-6.2-0.3-15.5 4-3.8 0.8-1.2 2.2-5.8 2.3-3.4 12.1-10 3.1-1.5 0.5-1-0.3-1.7-1.5-4-10.3-12.1-3.2-5.3-2.7-3.5-3.8-2.4-2.9-0.8-5.2-0.5-17.4 2.1-2.6-0.1-2.2-0.9-1.5-1.7-1.4-3.4-0.8-3.2 0.3-9.8 4.1-25 7-9.4 8.3-14.2 3.5-3.7 2.1-1.5 2.5-1 9.1-1.4 10.2-3.7 3.3-2.1 4.8-4 2.6-1.5 2.7-1 6.6-1.6 5.7-0.7 1.7-0.8 1.5-1.8 1.1-2.4 2.2-7.1 2.6-3 4.7-4.5 1-1.5-1.2-2.5-3.1-1.6-2.9 0-7.1 1.8-3.8 0.4-3.8-0.4-3.9-0.9-3.6-1.3-11.2-5.7-4-0.7-8 0.3-3-1.5-2.7-3.1-2.4-3.3-2.1-3.7-1.5-4.6-0.7-7-0.9-4.8-5.8-6.5-3.1-4.7-4.6-9.6-4.1-4.1-4.4-2.6-9.8-0.9-3.5-1.4-2.4-2.5-1.4-3.8-1.2-8.9 0.1-2.7 5.4-8.6 19.9-16.8 5.7-1.3 2.7 0.2 3 0.9 6.6 5.9 4.1 2.8 12.6 5.5 22.5 5.4 0.6 0z" 
		/>
 
	<path
		id="MWI1903" 
		name="Rumphi"
		d="M469.8 377.5l1 2.7 3.7 4.8 2.5 5.2-0.1 3.8-1.9 10.8-0.2 4.9 4.3 17 5.2 60.3-0.3 10.6-11.4 9.1-42.6 25.1-4.2-8.2-3.9-5.5-4.4-5.2-19.7-15.9-2.2-0.7-1.2 1.6-0.6 2.2-2.1 13.6-2.7 1.8-4.3 0.6-29.1-4.2-9.4 1.1-11.2 3-1.6 1.1-0.6 1.9 0.6 1.9 1.8 3.2 0.5 1.4-0.3 1.8-1 2.4-1.9 2.2-2.1 1.4-2.5 0.9-2.5 0.4-2.7-0.3-2.9-1.8-1.6-2.2-2.5-5.1-1.9-1.5-2.6-0.4-11.8 1.8-3.3 0-3.7-0.7-4.2-2.3-3.2-2.5-3.2-3.1-3.1-2.2-3.1-1-4.1 0.9-2.2 1.6-1.7 2.1-3.9 6.8-1.7 2.3-4.6 4.8-5.4 4.6-6.3 4.5-2.7 0.9-2.5-0.7-1.1-3.2 0.4-2.6 1.9-4.9 0.6-3.1 0.1-3-0.8-5.5-1.3-5.5-1.7-1.8-2.6-1.2-10.3-0.4-11.3-1.9-20.1-8.2-1-9.5-2.3-9.8-4.5-3.9-4.2 0.6-3.8 0-2.5-1.7 0.3-4.5 2.7-5.5 2.9-1 3.2 0.9 3.8 0.1 4.5-2.8 5.8-8.8 3.7-3.3 4.2-1.4 7.8-1.6 4.2-1.7 4.3-0.7 10.2 2 4.7 0.3 4.1-1.9 5.6-5.6 4.6-0.9 6.3-3.9 3.4-5.4 5-12.6 15-16.9 4.1-2.7 4-1.8 12.1-8.8 4.7-4.4 5.1-7.6-0.1-1.2 8.7-3.5 75.8-34.5 43.7 36.8 6.6 4.1 2-0.1 3.8-1.3 3-0.8 2.8 0.2 6.8 2.2 4.4 0.6z" 
		/>
 
	<path
		id="MWI1904" 
		name="Machinga"
		d="M963.4 1839.9l-79.5-1.4-0.8 0.5-4.9 4.3-3.2 2-3.9 1.7-6.6 2.1-4 0.6-3.5-0.1-5.7-1.7-15.7-6.6-6-1.3-3.7 0.2-3.4 1.1-2 1.5-5.8 6-3.1 1.9-2.8 0.2-4-0.8-5-1.7-5.1-1.1-3.1 0.5-2.5 1.7-2.6 2.7-3.7 2.7-3-0.1-2.3-1.5-3.8-7.4 2.5-2.4 2.4-5.2 1-6.7 4.5-11.9 1.9-8.4 5.4-11.2 0.7-3.2 0.4-4.9 0.8-2.8 2-3.9 9.4-14.7 4.6-3.2 3.3-3 2-6.9 3-25.7-0.7-15-3.4-13.8-7.4-7.8-0.9-0.6 0.5-2.6-1.6-4.6-0.4-3.4 0.1-1.7 1.2-3 2.1-3.9 0.6-3.3 1.5-1.8 2.1 0.3 3 1.3 1.9 1.2 5.2 4.7 3.4 3.8 3.3 5.5 1.8 1.5 2.3 1 3.3 0.7 15.9 5.5 4.5 0.9 4.8-0.9 4.4-2.4 8.1-8.5 4.7-2.6 3.2-1.1 3-1.8 3.4-4.2 1.4-4.3 0.3-4.4-1.5-10.7 0.1-2.1 0.8-1.7 4.7-5.1 4.3-2.8 6.6-2.7 15.2-3.6 7.6-1 9.1-0.4 6.9-2.5 8.7-7 11.1 14.3 15 15.2 3.6 4.7 1.8 5.4 3.2 66.6 2 2.9 4 0.6 6.6-0.2-20 47.7-14.9 35.2-2.1 8 0.1 7.4 1.3 5.2z" 
		/>
 
	<path
		id="MWI1907" 
		name="Dedza"
		d="M581.7 1477.5l0.6 1.9 11 12.9 1.8 3.4 0.7 4.2 1.9 5.1 2.5 4.8 2.3 3.3 5.4 4 4.5 1.3 4.7 0.4 5.5 2 5.1 4.7-0.1 4.1-1.7 4.1 0.7 4.7 4.4 3.2 4.9-1.2 5.1-2.8 2-0.7 0 13.7-24.9 15.3-23.2 17.5-17.5 7.3-4.8 1.1-3.2-0.3-3.6-3.2-5.1-2.4-4-2.8-2.1-0.9-2.7-0.8-4.6-0.5-7.3-1.4-3.2 0.5-7 5.7-2.6-3.7-8.6-4.6-2.7 0.4-2.4 1.6-2.2 1.8-2.3 1.5-2.5 0.5-4.9-0.5-2.4 0.3-30.4 10.9-22.4 0.7-9.9 4.2-2.3 3.2-3.5 8.1-2.5 1.6-32.4-4.4-9 0-8.4 2.1-17.9 11-8.7 3.2-8.7-0.9-16.6-12.8-6.5 2.1-4.7 7.2-2.6 9.2 0 11-1 5.7-3 2.2-5.5-1.7-3.6-3.3-2.6-4.3-1.9-5.1 5.4-2.9 2.7-4.2 3.1-2 2.7-2.5 6.9-10.8 1-3.3 0.9-13.9 0.9-4.9 1.6-4.6 2.2-3.8 2.8-3 3.9-2.5 21.3-10.4 3.6-2.7 3.6-3.7 6.6-4.8 3.7-1.1 5.5 0.5 3-0.8 7.4-3.1 2.9-0.4 2.9-0.1 2.5-1.2 2.5-2.7 1.5-5.3 1.5-14.7 1.4-4.4 2.4-3.2 4.4-2.4 11.7-1.6 3.3-1.6 3.6-3.2 3.9-4 3.5-5.1 4.7-3.6 4.8-4.7 3.1-9 1.9-3.9 2.6-4 4.6-5.1 3.8-5.5 4.5-4.6 2.8-3.9 8.4-15.9 1.2-3.8 1.4-3.2 1.6-2.1 3.7-2 7.9-5.6 5.6-5.4 5.4-9.3 13.6 19.3 19 18.6 4.3 5.2 10.3 18.6 9.7 14.6 5 5.1 3.7 2.3 2.9-1.9 6.5-7 1.9-1.6 3-1.9 1.9-0.7z" 
		/>
 
	<path
		id="MWI1908" 
		name="Dowa"
		d="M448.5 1297.2l4.8 23.4-0.1 3.7-0.8 5-2.7 4.6 0.3 1.1 3.8 2.4 2 1.5 13.9 13.8 2.5 2.1 2.6 1.5 2.4 0.7 2.6 0 3-0.6 10.9-5.9 2.1-0.8 1.8 0.2 2.1 1.5 0.9 3.2 0 3.4-0.4 5 1 2.7 1.7 1.7 2.9 1.5 1.6 2.8-0.3 2-1.5 2.9-3 2-4.5 1.5-3 0.7-3.2 1.4-2.2 2.4-8.5 4.8-3.1 0-11.2-1.3-3.9 0.6-3.6 1.6-3.7 2.2-5.5 2.5-6.4 1.5-16 1.7-4.5-2.4-2.7-2.5-2.6-3.8-2.5-2-3.8-2.5-2-0.8-6.2-1.7-9-3.7-7.5-1.7-4.8-0.4-4.1 0.2-14.8 2.2-10.9 0.2-5.6-1.8-3.6-3.1-1.4-4-1.1-7.5-2-6.9-0.6-3.1-0.3-3.1-0.7-2.7-1.6-0.8-2.8 0.3-48.7 13.7-18.1-0.2-14.4-7.4-3-4.6-1.2-4.6-0.5-4.4-5.2-23.4 0-4.8 2-11.3 0-2.4-1.4-2.3-1.6-1.4-5.9-4 5.7-11 2.3-7.1 3.8-6.2 1-2.1 2.4-7.1 0.2-3.6-1.2-2.9-1.7-2.7-1.2-2.9 0-1.7 0.9-1.4 1.4-1 2.8-0.1 1.8 0.7 4.7 4 3.5 1.5 3.7 0.4 1.9-0.7 2-1.2 2.2-3.4 2.5-1.9 3.4-6.3 1.4-1.3 4.4-2.3 2.7-2 1.3-1.6 1.1-2.3 2.8-6.9 4.8-4.9 2.4 11.2 3.9 3.1 3.5 2 4.4 3.4 8.1 8.2 4.4 6.3 3.5 6.5 6.8 17.5 0.9 4.2 0.8 14.3 1 5.4 1.7 2.5 1.6 1.2 2.2 0.2 16 0.3 16.7-5.8 3.5-0.7 4.8 0.1 4.8 1 7.8 2.9 4.4 1 8.7-0.8 4.7 0.2 17.6 6.5 3 0.6 2.6 0 2.1-0.5 8.6-3.6 2.7-1.5z" 
		/>
 
	<path
		id="MWI1909" 
		name="Lilongwe"
		d="M489.7 1384.6l-0.6 8.7-3.4 3.5-8.5 3.6-4.2 2.9-2 2.2-1.3 2.4-0.2 2 0.5 2.2 1.6 1.4 2.6 0.3 3.2-1.2 10.7-5.5 4.8-1.2 3.9-0.2 3.1 1.2-5.4 9.3-5.6 5.4-7.9 5.6-3.7 2-1.6 2.1-1.4 3.2-1.2 3.8-8.4 15.9-2.8 3.9-4.5 4.6-3.8 5.5-4.6 5.1-2.6 4-1.9 3.9-3.1 9-4.8 4.7-4.7 3.6-3.5 5.1-3.9 4-3.6 3.2-3.3 1.6-11.7 1.6-4.4 2.4-2.4 3.2-1.4 4.4-1.5 14.7-1.5 5.3-2.5 2.7-2.5 1.2-2.9 0.1-2.9 0.4-7.4 3.1-3 0.8-5.5-0.5-3.7 1.1-6.6 4.8-3.6 3.7-3.6 2.7-21.3 10.4-3.9 2.5-2.8 3-2.2 3.8-1.6 4.6-0.9 4.9-0.9 13.9-1 3.3-6.9 10.8-2.7 2.5-3.1 2-2.7 4.2-5.4 2.9-4.4-12.1-2.6-4-3.5-2.8-8.3-3.8-3.5-2.8-2.6-4.2-1.6-3.9-2-3.8-4.1-3.6-13-5.9-4-3.2-5.6-7.6-15.6-31.8-5.4-7.6-4.3-8.3 0.8-5.8-3.6-15.8-4.7-13.1-0.6-4.4 0.5-3.8 2.4-7 0.6-5.2-2.1-9.6-0.1-2.9 0.4-2.1 1-2.6 0.6-4.2-0.6-3.8-1.4-3.3-6.1-9.4-4.7-11.9-1.2-2.3-2.1-2.3-2.2-1.8-2.7-2.8-2.8-3.6-3-6-0.4-2.8 0.4-2.1 2-2.5 1.6-4.5 0.4-8.1 0.4-2.3 0.8-1.5 2.9-4.3 0.9-2.2 0.6-3.6-0.3-2.5-0.7-2.3 0.1-1.8 1.4-2.9 4.1-4.7 0.8-1.5 1-3.7 1.4-3.1 4.9-6.5 2-4.5 5.5-6.2 9.1-7.6 1.1-1.8 1-2.7 0.6-5.2-0.1-2.9-0.6-2.2-1.4-3 0.4-2.3 2.7-6.7 2-1.3 4.6-1.6 2.5-3.4 5.9 4 1.6 1.4 1.4 2.3 0 2.4-2 11.3 0 4.8 5.2 23.4 0.5 4.4 1.2 4.6 3 4.6 14.4 7.4 18.1 0.2 48.7-13.7 2.8-0.3 1.6 0.8 0.7 2.7 0.3 3.1 0.6 3.1 2 6.9 1.1 7.5 1.4 4 3.6 3.1 5.6 1.8 10.9-0.2 14.8-2.2 4.1-0.2 4.8 0.4 7.5 1.7 9 3.7 6.2 1.7 2 0.8 3.8 2.5 2.5 2 2.6 3.8 2.7 2.5 4.5 2.4 16-1.7 6.4-1.5 5.5-2.5 3.7-2.2 3.6-1.6 3.9-0.6 11.2 1.3 3.1 0 8.5-4.8z" 
		/>
 
	<path
		id="MWI1910" 
		name="Mangochi"
		d="M951.7 1626.9l-8.7 7-6.9 2.5-9.1 0.4-7.6 1-15.2 3.6-6.6 2.7-4.3 2.8-4.7 5.1-0.8 1.7-0.1 2.1 1.5 10.7-0.3 4.4-1.4 4.3-3.4 4.2-3 1.8-3.2 1.1-4.7 2.6-8.1 8.5-4.4 2.4-4.8 0.9-4.5-0.9-15.9-5.5-3.3-0.7-2.3-1-1.8-1.5-3.3-5.5-3.4-3.8-5.2-4.7-1.9-1.2-3-1.3-2.1-0.3-1.5 1.8-0.6 3.3-2.1 3.9-1.2 3-0.1 1.7 0.4 3.4 1.6 4.6-0.5 2.6-84.6-0.1-3 0-10.4-7.8-9.4-4.1-4-3.8-35.8-48.1-8.5-25.6-4.4-22.2-2.1-32.3 0-13.7 2.9-0.9 4.4-0.9 5.6-2.1 4.8-3.1 2-3.7 0.5-2.7 1.2-1.5 3.5-2.2 0.5-2.6-1.9-3.2-2.4-3.3-1.4-2.9 3-8.6 7.1-7.8 5.4-7.4-2-7.6-4.9-9.1 1.2-8.1 5.9-4.1 9.3 2.7 4 3.3 6.8 7.1 4.2 2.5-2.7 10.9 2.6 13.2 6.9 8.8 10-2.5 1.4 1.8 3.6 3.1 1.5 1.8 7.1-1.1 7.5 6.7 5.9 10.3 2.4 9.1 1.8 3.1 7.7 9 1.2 2 5.2 1.8 3.7 4.3 5.8 9.3 14.8 13 1.4 3.2 1.2 2.1 1.5 1.2 2.9-0.3 4.5-3.2 2.3-0.9 2.2-2.3 2.4-5.3 1.7-5.5 0-3.2-5-7.5-12.7-26.1-3.1-9.5-1.2-11.4-9.7-15.2-2.6-5.2 0.3-5.3 1-5.3 0.2-4.9-3.5-8.5-10.9-17.1-2.4-9.1-0.6-10.9-1-6.1-2.2-7.2-0.3-5.3-1.1-2-3.9-4.7-3.5-5.1-3.6-11-1.6-8.9-4.4-6-11.6-2.3-31.9 1.1-4.5-0.6-5.8-2.8-7-7.3-1.6-8.3 2.2-20.3-1.4-14.5 2.8-12.9 9.4 5.8 58.4 53.8 26.8 32.1 33.2 39.8 54.5 65.4 20.6 40 70.2 89.1z" 
		/>
 
	<path
		id="MWI1911" 
		name="Mchinji"
		d="M207.3 1336.4l-2 4.5-4.9 6.5-1.4 3.1-1 3.7-0.8 1.5-4.1 4.7-1.4 2.9-0.1 1.8 0.7 2.3 0.3 2.5-0.6 3.6-0.9 2.2-2.9 4.3-0.8 1.5-0.4 2.3-0.4 8.1-1.6 4.5-2 2.5-0.4 2.1 0.4 2.8 3 6 2.8 3.6 2.7 2.8 2.2 1.8 2.1 2.3 1.2 2.3 4.7 11.9 6.1 9.4 1.4 3.3 0.6 3.8-0.6 4.2-1 2.6-0.4 2.1 0.1 2.9 2.1 9.6-0.6 5.2-2.4 7-0.5 3.8 0.6 4.4 4.7 13.1 3.6 15.8-0.8 5.8-0.8-1.6-2.2-2.1-2.8-1.1-4.4-2.9-2.5-2.9-7.8-12.8-1.3-5.7 1.6-15.8-3.4-9-6.9-5.5-17-9.4-5.3-6.4-9.5-18.1-4.4-3.7-3.1 1.8-3 8-2.8 2.7-10.6 3.2-4.3 2.3-4.2 4.7-9.6 15.8-5.7 1.3-7.2-9.3-1.6-4.8 1.1-16 0.6-1.8-0.1-1.7-1.8-2.7-2.5-1.3-5.5 0.3-2.6-2.1-1.9-5-0.6-4.7-1.3-4.9-15.3-18.9-4.5-4-9.4-3.5-11.4-2.3-8.9-4-1.7-8.6 3.3-3.5 11.3-5.4 2.6-3.4-1.7-3.9-11.7-16.5-8.1-3.7-11.3-0.1-9.8-2.2-3.6-10 1.3-6.6 3-2.5 4.4 0.4 5.7 2 3.9-0.6 8.3-7.2 4.2-2.6 11.3-1.7 4-2.8 1.4-7.2-0.2-5.8 0.7-4.9 2.5-3.5 5.7-0.9 8.8-4.7 5.5-12.1 4.1-16.9 4.2-0.5 67.9-4.2 1.7 1 1.8 2 1.5 4.6 0.1 3.3-1.4 6.5 0.4 3.9 1.4 4 5.1 10.7 3.3 8.9 2.7 5.2 3.7 4.7 11 10.3 4.3 5.2 3.1 3 8.5 5 12.4 14.1z" 
		/>
 
	<path
		id="MWI1912" 
		name="Ntcheu"
		d="M717.6 1694.5l-1.7 4 0.7 4.6 1.3 5.4 0.1 3.1-0.5 4.1-5.2 18.2-1.4 2.9-15.8 21.7-1.1 3.7 0.9 2.9 0.2 5-22.9 102.5-3.4 4-3.5-0.4-0.7-2.7 0.7-3.3-0.2-5-0.6-3.6-1.5-4.4-2.5-2.7-2.6-2.2-3.7-1.7-4.5-1.4-12.2-2.3-4.4-1.6-2.5-0.6-2.3-0.1-5.1 0.8-1.4-0.1-18.3-5.7-14.5-2.9-4.2-0.4-3.4-24.4 0.8-5.4 2.8-3.5-0.8-3.6-1.9-4-0.7-4.6 1.8-4.4 6.3-8.8 2.2-4.7 0.6-5.4-2.2-4.8-3.4-4.8-2.8-5.1-1.8-6.4-0.7-5.3-0.1-23.5-1.7-10.1-3.3-9.4-5.2-10.2-2.9-10.9 4.1-19-0.3-10.6-5.1-10.1-16-16-7.2-8.9-10-20.7-4.1-6 7-5.7 3.2-0.5 7.3 1.4 4.6 0.5 2.7 0.8 2.1 0.9 4 2.8 5.1 2.4 3.6 3.2 3.2 0.3 4.8-1.1 17.5-7.3 23.2-17.5 24.9-15.3 2.1 32.3 4.4 22.2 8.5 25.6 35.8 48.1 4 3.8 9.4 4.1 10.4 7.8z" 
		/>
 
	<path
		id="MWI1913" 
		name="Ntchisi"
		d="M453.7 1292.4l-5.2 4.8-2.7 1.5-8.6 3.6-2.1 0.5-2.6 0-3-0.6-17.6-6.5-4.7-0.2-8.7 0.8-4.4-1-7.8-2.9-4.8-1-4.8-0.1-3.5 0.7-16.7 5.8-16-0.3-2.2-0.2-1.6-1.2-1.7-2.5-1-5.4-0.8-14.3-0.9-4.2-6.8-17.5-3.5-6.5-4.4-6.3-8.1-8.2-4.4-3.4-3.5-2-3.9-3.1-2.4-11.2 4.6-0.4 5-2.2 4.5-2.7 5.2-1.7 5.2-1.1 1.4-0.7 1.1-1.3 0.8-2.3 1.1-1.6 2.2-0.9 3-1.7 3.4-2.9 6.2-7.2 3.9-7.1 1.9-2.4 4.1-3.2 4.6-1.9 2.9-1.7 1.9-1.8 1.6-3.4 0.6-2.4 3-3 2.4-2.1 22.3-11.1 0.3 15.5 2.2 6.2 3.3 4.3 3.4 6 0.3 3-0.4 5.4 1.7 2.1 2 1.9 3 2 2.2 0.8 2.4-0.5 2.2-1.8 1.4-1.8 1.1-2.5 2.1-8.1 0.7-1.2 1.2-0.9 13-3.9 1.5 0.1 0.6 1.6-0.4 2.6-1.3 5.4 0.1 3.1 1.2 3 1.7 1.5 5.5 0.5 3.5 0.5 1.7 2.5 0.9 3.2 2.6 16.6-0.3 2.6-1.3 2.8-1.2 4.2-0.3 4.7 6.3 24.4 2.6 41.9z" 
		/>
 
	<path
		id="MWI1914" 
		name="Salima"
		d="M678.6 1300.9l-2.8 12.9-0.7-6.2 0.8-5.1 0.7-2.4 2 0.8z m-96.9 176.6l-1.9 0.7-3 1.9-1.9 1.6-6.5 7-2.9 1.9-3.7-2.3-5-5.1-9.7-14.6-10.3-18.6-4.3-5.2-19-18.6-13.6-19.3-3.1-1.2-3.9 0.2-4.8 1.2-10.7 5.5-3.2 1.2-2.6-0.3-1.6-1.4-0.5-2.2 0.2-2 1.3-2.4 2-2.2 4.2-2.9 8.5-3.6 3.4-3.5 0.6-8.7 2.2-2.4 3.2-1.4 3-0.7 4.5-1.5 3-2 1.5-2.9 0.3-2-1.6-2.8-2.9-1.5-1.7-1.7-1-2.7 0.4-5 0-3.4-0.9-3.2-2.1-1.5-1.8-0.2-2.1 0.8-10.9 5.9-3 0.6-2.6 0-2.4-0.7-2.6-1.5-2.5-2.1-13.9-13.8-2-1.5-3.8-2.4-0.3-1.1 2.7-4.6 0.8-5 0.1-3.7-4.8-23.4 5.2-4.8 9.4-4.4 3.6-0.4 7.5-1.5 12.7-5.5 26.6-15.3 0.7 0 15.3 25.3 6.5 14.4 6 7.1 2.5 4 3 3.1 4.3 1.3 5.7-1 9.6-3.6 4.8 0.4 4.1 2.8 2.3 3.8 4 8.8 4.2 4.7 9.1 8.2 1.8 4.4 2.3 3.3 4.8 3.6 3.6 4.3-1.5 5.1-3.4 5.8 0 4.4 1.1 4.5-0.7 5.9-1.5 2.4-5.3 4.1-1.7 2.3-0.3 3.1 2.2 5.3 0.4 2.5-5.4 14.7-2.1 3.7-7.9 8.6-4.9 6.8-1.6 8.1 5.3 27.4 0.9 2.6z" 
		/>
 
	<path
		id="MWI1915" 
		name="Balaka"
		d="M805.2 1694.6l0.9 0.6 7.4 7.8 3.4 13.8 0.7 15-3 25.7-2 6.9-3.3 3-4.6 3.2-9.4 14.7-2 3.9-0.8 2.8-0.4 4.9-0.7 3.2-5.4 11.2-1.9 8.4-4.5 11.9-1 6.7-2.4 5.2-2.5 2.4-14 13.2-6 9.9-3.9 3.8-12.4 3.3-65.2-3.5 22.9-102.5-0.2-5-0.9-2.9 1.1-3.7 15.8-21.7 1.4-2.9 5.2-18.2 0.5-4.1-0.1-3.1-1.3-5.4-0.7-4.6 1.7-4 3 0 84.6 0.1z" 
		/>
 
	<path
		id="MWI1916" 
		name="Chikwawa"
		d="M643.5 2032l31.1 2.9 3.9 0.8 1.9 2.4 2.9 7.7 0 2-1.2 2.9-3.4 6.3-0.9 3.4 0.4 6.1-0.4 2.7-4.6 9.1-0.2 3.5 1.5 1.5 2.9 0 3.1-0.3 3.3 0.8 1.2 1.7-0.2 1.7-2.3 3.1-0.4 1.9 0.1 2.8 1.3 4.9 0.8 1.6 0.9 0.7 2-1.5 17.6 28.6 41.1 47.5 0.5 2.4 0.1 3.2-0.4 2.4 4 13.6-10 47.2-0.9 2.2-1 1.3-2.3 1.4-5.9 5.5-16.6 18.9-1.9 3.3-1.7 5.6 0.3 3.4 0.7 2.6-0.2 1.8-1.6 1.7-3.8 1.8-5.6 3.4-5.2 5-8.8 13.6-2.8-2.1-5.4-2.3-4.7-2.8-3-4.9-2.3-7-2.4-4.4-14.4-12.2-3.1-4.3-5.5-10.8-4-4.4-19.5-10.4-2.3-0.9-1.9-1.5-3.8-9.5-1.6-2.9-2.1-2.3-9.9-7.6-3.9-3.9-3.3-4.9-8.6-22.3-6.9-7.1-13.7-2-10.6-0.4-6-6.2-12.7-28.1 1.3-10.9 6-20.7-1.3-9-5.2-7.3-25.7-27.2-4.5-2.8-10.2-4.9-3.8-3.4-3.4-8.9-0.6-11.4 1.6-11.2 3.3-8 8.8-9.5 5.4-4.3 5.3-2.5 6.3-2 3.5-2.1 4.4 1.8 43.4 18.8 12.2 3.8 65.5 1.8z" 
		/>
 
	<path
		id="MWI1917" 
		name="Chiradzulu"
		d="M825.4 1990.8l-5.9 18.1-0.2 11.7 4.3 53.2-0.3 4.6-1.6 3.6-1.5 1.5-4.1 10.3-6.2-3.6-3.7-3.8-2.4-3.1-1.3-2.9-1.7-6.9-1.7-4.5-1.9-2.9-10.9-10.3-2.3-2.7-2-3.1-2-1.4-3-0.9-11.4-0.1-6.9-13.3-1.9-5.6-0.5-6.3 0.7-31.1-0.7-9.3-1.3-6-2-2.4-0.4-4.5 0.3-3.5 11.5-21.6 4.3-0.8 2.1 0.7 2-1 2-1.4 3.5-2 1.7 0.6 0.6 2-0.5 4.5 0.2 3.1 2.2 3.4 3.1 2.2 4.9 2.1 2.8 2.2 2.1 2.9 2.5 7.1 2.1 4.3 4.4 6.4 3.7 3.4 3.4 2.1 13.9 5z" 
		/>
 
	<path
		id="MWI1918" 
		name="Thyolo"
		d="M816.1 2093.8l3.8 29.3-1.2 9.2-2.7 2.8-1.7 1.4-1.8 2.3-2 3.1-2.2 5.6-0.6 3.5 0.5 2.8 1.1 1.6 3.4 3.6-6.8 8.2-5.7 12-2.1 14.8 0.7 3.4 3.7 9.1-1.2 3.2-7.3 8.8-0.4 1.6-14.5-4.5-5.2 1.2-1.2 2.1-3.1-0.5-2.4-1-17.1-19-4-13.6 0.4-2.4-0.1-3.2-0.5-2.4-41.1-47.5-17.6-28.6 8.4-2.4 2.4-1.6 7.7-7 3-3.8 5.8-10.6 2.1-2.9 2.1-2.1 3.6-1.3 6-0.4 4.3-0.8 33-20.2 11.4 0.1 3 0.9 2 1.4 2 3.1 2.3 2.7 10.9 10.3 1.9 2.9 1.7 4.5 1.7 6.9 1.3 2.9 2.4 3.1 3.7 3.8 6.2 3.6z" 
		/>
 
	<path
		id="MWI1919" 
		name="Nsanje"
		d="M793.6 2220.1l-1.2 4.4 0.1 12.8-1.7 5.7-4.2 4.5-21.5 14.4-3.9 2.7 5 14.3 5 8 1.2 3.3 1.8 2.7 3.5 1.1 2.8 0.5 6.7 2.6 2 1.1 1.4 1.6 1.6 3.3 1.2 1.7 4.4 2.4 7.4 8.2 1 1.7 0.9 21.2 1.2 6.4 6.2 12.6 1.6 8-7.7 6.6-0.8 6.8 0.7 12.2-1 1.5-1.8 1.4-1.5 1.6 0.1 2.1 1.4 1.5 10 5.9 1.8 2.8-1.5 4.2-3.3 5.9-0.4 5.2 2.7 12.1 0.4 6.5-0.8 5.4-1.6 4.4-2.4 3.7-17.6 1.9-31-1.1-16.2-2.5-4.7-4.6 0.9-8.3-10-15.5 2.4-10.1 6.7-5.6 7.8-3.8 6.8-4.9 3.6-8.8 0.9-10.4-0.2-11.7-2.8-9.9-7-5.2-10.1-0.3-9.2 0.9-8.8-1.5-9-7.2-5.7-7.7-2.6-2.9-4.3-3.1-2.1-0.8-4.7-0.8-2.1-1.2-1.4-2.5-0.9-6.2-1.4-2.6-2.1-1.6 8.8-13.6 5.2-5 5.6-3.4 3.8-1.8 1.6-1.7 0.2-1.8-0.7-2.6-0.3-3.4 1.7-5.6 1.9-3.3 16.6-18.9 5.9-5.5 2.3-1.4 1-1.3 0.9-2.2 10-47.2 17.1 19 2.4 1 3.1 0.5 1.2-2.1 5.2-1.2 14.5 4.5z" 
		/>
 
	<path
		id="MWI1920" 
		name="Zomba"	
		d="M963.4 1839.9l7.2 29.8 8.8 35.9-1 13.5-35.2 1.3-11.6 3.7-7.5 3.4-4.5 4.9-7.2 6.7-16.2 10.8-3.7 1.7-3.3 2.3-2.5 2.4-4 9.9-7.5 5.5-2.3 2-9.1 10.7-2.4 0.8-3.8 0.6-13 0.5-3.9 0.7-4.1 2.1-2.6 1.1-8.6 0.6-13.9-5-3.4-2.1-3.7-3.4-4.4-6.4-2.1-4.3-2.5-7.1-2.1-2.9-2.8-2.2-4.9-2.1-3.1-2.2-2.2-3.4-0.2-3.1 0.5-4.5-0.6-2-1.7-0.6-3.5 2-2 1.4-2 1-2.1-0.7-4.3 0.8-4 0.2-1.7-0.3-1.9-0.8-1.4-1.6-0.3-2.5 0.5-2 1.1-1.9 6.4-7.6 0.8-1.8-0.5-1.3-2-0.5-5.3 0-2.7-0.5-2.9-2.3-2.8-3.4-10.3-15.2-7-6.1-6.5-11.9 13.5-8.4 12.4-3.3 3.9-3.8 6-9.9 14-13.2 3.8 7.4 2.3 1.5 3 0.1 3.7-2.7 2.6-2.7 2.5-1.7 3.1-0.5 5.1 1.1 5 1.7 4 0.8 2.8-0.2 3.1-1.9 5.8-6 2-1.5 3.4-1.1 3.7-0.2 6 1.3 15.7 6.6 5.7 1.7 3.5 0.1 4-0.6 6.6-2.1 3.9-1.7 3.2-2 4.9-4.3 0.8-0.5 79.5 1.4z" 
		/>
 
	<path 
		id="MWI1921" 
		name="Blantyre"
		d="M764.4 1944l-11.5 21.6-0.3 3.5 0.4 4.5 2 2.4 1.3 6 0.7 9.3-0.7 31.1 0.5 6.3 1.9 5.6 6.9 13.3-33 20.2-4.3 0.8-6 0.4-3.6 1.3-2.1 2.1-2.1 2.9-5.8 10.6-3 3.8-7.7 7-2.4 1.6-8.4 2.4-2 1.5-0.9-0.7-0.8-1.6-1.3-4.9-0.1-2.8 0.4-1.9 2.3-3.1 0.2-1.7-1.2-1.7-3.3-0.8-3.1 0.3-2.9 0-1.5-1.5 0.2-3.5 4.6-9.1 0.4-2.7-0.4-6.1 0.9-3.4 3.4-6.3 1.2-2.9 0-2-2.9-7.7-1.9-2.4-3.9-0.8-31.1-2.9-1.9-23.9-2.2-7.2 0-4 4.7-2.6 1.9-2.2 1.6-2.6 0.7-2.2-0.7-19.8 0.7-5.5 3.6-3.6 15-9.7 5.3-2 4.7-7.5 11.2-33.1 5.1-7.6 2.9-1.2 8.5-7.5 3.2-0.9 9.7-1.3 6.4-3.1 6.5 11.9 7 6.1 10.3 15.2 2.8 3.4 2.9 2.3 2.7 0.5 5.3 0 2 0.5 0.5 1.3-0.8 1.8-6.4 7.6-1.1 1.9-0.5 2 0.3 2.5 1.4 1.6 1.9 0.8 1.7 0.3 4-0.2z" 
		/>
 
	<path 
		id="MWI1922" 
		name="Mwanza"
		d="M647.6 1967.5l0.7 19.8-0.7 2.2-1.6 2.6-1.9 2.2-4.7 2.6 0 4 2.2 7.2 1.9 23.9-65.5-1.8-12.2-3.8-43.4-18.8-4.4-1.8 19-26.7 3.7-10.2 1-12.7 105.9 11.3z" 
		/>
 
	<path 
		id="MWI1923" 
		name="Mulanje"
		d="M965.8 2070.7l-2.1 8.2 0.1 5 1.8 9.8-0.4 5.1-2.9 6.9-4.6 5.3-22.4 15.6-3.2 1.6-2.8 0.3-5.9-1.1-3.1 0.2-29.4 8.9-7.5 0.8-1.5 1.8-0.9 5-2 3-3.9-0.2-4.1-2-2.6-2.5-2.2-5.3-5.1-3.5-6.4-1.8-6-0.3-7 1.8-5.8 4-21.5 19.6-1.7 2.1-3.4-3.6-1.1-1.6-0.5-2.8 0.6-3.5 2.2-5.6 2-3.1 1.8-2.3 1.7-1.4 2.7-2.8 1.2-9.2-3.8-29.3 4.1-10.3 1.5-1.5 1.6-3.6 0.3-4.6-4.3-53.2 0.2-11.7 5.9-18.1 8.6-0.6 2.6-1.1 4.1-2.1 3.9-0.7 13-0.5 3.8-0.6 2.4-0.8 9.1-10.7 2.3-2 7.5-5.5 2.3 2.7 0.4 1.2-1.6 4.8-1.4 2.3-1 0.5-1.6 3-2 2.9-3.4 6.1-0.9 3.4 0.5 0.6 3.1 0.3 1.9 1.5 2 29.5 1.1 6.1 1.7 5.1 1 1.5 2.5 1.8 0.9 0 2.8 3.6 2.6-0.2 1.4 1.8 9 24.8 1.5 2 12.2-10.9 7.7-2.7 1.3 0.4 3.6 2.6 4.7 4.6 5.4 4.4 2.1 1.1 3.2 2.5 3.2 0.7 2.2-1.7 2.3-0.8 2.5-1.7 2.7-0.8 2-0.3 2.5 1.3 2.7 0.5z"
		/>
 
	<path 
		id="MWI1924" 
		name="Phalombe"
		d="M965.8 2070.7l-2.7-0.5-2.5-1.3-2 0.3-2.7 0.8-2.5 1.7-2.3 0.8-2.2 1.7-3.2-0.7-3.2-2.5-2.1-1.1-5.4-4.4-4.7-4.6-3.6-2.6-1.3-0.4-7.7 2.7-12.2 10.9-1.5-2-9-24.8-1.4-1.8-2.6 0.2-2.8-3.6-0.9 0-2.5-1.8-1-1.5-1.7-5.1-1.1-6.1-2-29.5-1.9-1.5-3.1-0.3-0.5-0.6 0.9-3.4 3.4-6.1 2-2.9 1.6-3 1-0.5 1.4-2.3 1.6-4.8-0.4-1.2-2.3-2.7 4-9.9 2.5-2.4 3.3-2.3 3.7-1.7 16.2-10.8 7.2-6.7 4.5-4.9 7.5-3.4 11.6-3.7 35.2-1.3-6.4 93.6-3 46.1-3.2 11.9z"
		/>
 
	<path 
		id="MWI5509" 
		name="Likoma"
		d="M640.4 850l-3.3 1.5-3.5-1-2.9-2.1-1.8-1.9 2.6-3.7 2.3-8.6 3.3-2.7 8.6 4.3-4.9 2.7-0.2 3.5 1.2 4-1.4 4z" 
		/>
 
	<path 
		id="MWI5510" 
		name="Neno"
		d="M672.2 1872.6l65.2 3.5-13.5 8.4-6.4 3.1-9.7 1.3-3.2 0.9-8.5 7.5-2.9 1.2-5.1 7.6-11.2 33.1-4.7 7.5-5.3 2-15 9.7-3.6 3.6-0.7 5.5-105.9-11.3-2.8-19.3 0-10.8 3.8-5.3 5.6-2.9 6-9.8 6.2-3.8 2.1-4 1.5-8.1 1.4-4 3.5-4.7 3.8-2.6 4-2.1 4.2-3.2 5.6-8.3 1.2-8.3-3-22.7 4.2 0.4 14.5 2.9 18.3 5.7 1.4 0.1 5.1-0.8 2.3 0.1 2.5 0.6 4.4 1.6 12.2 2.3 4.5 1.4 3.7 1.7 2.6 2.2 2.5 2.7 1.5 4.4 0.6 3.6 0.2 5-0.7 3.3 0.7 2.7 3.5 0.4 3.4-4z" 
		/>
 
</svg>