
<svg
	xmlns="http://www.w3.org/2000/svg"
	viewBox="0 0 981 793"
	aria-label="Map of Denmark"
>
  <path
		d="m 927.8775,615.41261 -0.13,1.36 2.35,1.27 -0.05,0.58 1.56,1.26 2.54,5.86 1.71,1.26 1.56,0.11 0.96,1.31 2.79,1.03 1.23,2.23 5.22,2.1 1.9,1.89 1.11,0.48 3.56,-1.31 1.24,1.19 1.5,3.91 4.39,4.18 2.93,1.19 2.44,2.62 4,2.51 3.68,1.03 0.46,0.71 2.65,-0.18 1.02,0.79 0.1,1.6 1.18,0.19 -0.3,1.46 0.47,1.04 -1.11,0.67 -0.56,1.78 0.23,1.27 0.13,1.24 1.44,2.67 -0.43,0.57 0.55,1.47 -0.87,1.89 -1.79,1.63 0.26,1.81 -0.18,1 -1.45,0.17 -0.55,2.32 -1.96,1.77 0.41,1.66 1.18,1.34 -0.62,1.54 0.48,1.45 -1.93,1.55 -3.28,4.68 -1.46,0.27 -3.81,-1.58 -3.22,-0.17 -8.02,-2.23 -3.96,-2.69 -1.48,0.09 -5.35,-4.1 -5.77,-2.54 -1.6,0.32 -5.19,-3.11 -2.48,0.35 -4.42,-2.67 -2.8,-3.79 -1.97,-0.49 -1.34,-1.74 -1.28,-0.61 0.23,-0.51 0.73,-0.55 -0.61,-1.07 -1.58,0.6 0.59,-1.45 1.75,-0.88 0.39,-1.73 -0.48,-1.86 1.13,-2.08 -0.18,-9.73 -0.72,-3.06 0.55,-0.88 -0.43,-2.25 1.44,-6.41 5.66,-11 0.67,-2.25 -0.74,-1.03 -0.05,-1.34 2.98,-2.87 0.8,0.89 z m -282.29,-81.02 -0.77,-2.66 0.74,-0.37 -0.51,-0.97 0.12,-0.46 0.46,-0.29 -0.01,-2.3 0.77,-0.83 -0.34,-0.87 0.41,-0.83 0.75,0 1.68,-0.19 0.74,-1.13 1.11,1.36 0.37,1.57 0.19,4.79 0.5,0.37 -0.17,4.07 0.91,0.64 -0.68,1.11 1.33,1.36 -1.71,0.97 -2.48,-0.01 -0.41,-1.9 -1.06,-0.76 0.09,-0.99 -1.53,0.43 -0.56,-1.11 0.59,0.25 0.09,-0.89 -0.62,-0.36 z m -17.36,-14.44 2.66,-0.83 0.42,0.68 -2.09,1.64 1.36,2.44 0.39,-0.23 -1.18,-2.08 1.47,-1.11 0.5,1.13 -0.89,1.13 1.67,-0.85 0.57,0.91 -1.38,1.8 -0.68,-0.8 -0.45,0.23 0.22,1.6 1.33,3.15 0.92,0.83 0,1.31 1.19,1.13 -0.36,0.92 2.94,0.31 0.72,0.95 0.07,3.74 -1.6,2.24 0.7,2.6 0.99,0.36 -0.71,0.44 0.44,0.44 -2.21,1.59 -4.44,1.32 -1.94,2.59 -3.61,2.78 -3.88,-1.31 -0.95,-3.49 -2.22,0.49 -1.76,-1 -2.21,-4.3 -0.45,-3.52 3.59,-5.49 2.42,-2.35 2.19,-5.04 1.6,-2.15 2.28,-1.98 0.75,-1.46 0.41,0 0.13,-1.25 0.16,-0.47 0.2,-1.53 2.31,-0.04 0.48,0.82 -2.07,1.71 z m -86.96,-55.61 1.19,0.23 1.39,-0.67 2.77,1.95 0.32,1.73 -2.12,2.51 -0.38,1.43 -0.98,0.6 -0.48,4.59 0.54,1.19 3.94,1.77 0.92,3.35 0.27,5.45 1.96,1.38 -1.57,0.85 -0.08,1.8 0.41,0.72 1.03,-0.23 1.03,-0.07 -0.8,3.15 2,4.39 -0.49,1.54 -1.14,0.91 0.17,0.69 0.95,0.28 -0.43,0.76 0.16,2.32 0.5,0.46 -0.38,2.05 -0.94,-0.88 -1.17,0.08 -0.99,0.93 -0.9,0.35 -1.09,0.09 -1.59,1.4 -0.96,-0.21 -0.09,-2.89 -1.42,0.69 -0.76,-2.17 -1.32,2.58 0,0 -6.81,-3.72 -3.72,3.42 -4.05,-1.59 0,0 -2.62,0.33 -0.09,-3.86 -0.78,0.31 -0.64,-1.27 0.96,0.15 0.74,-1.66 0.86,-8.36 1.98,-1.27 -0.12,-3.07 4.89,-1.59 1.15,0.95 2.72,-1.22 1.09,-1.55 1.55,-5.81 -2.08,-4.81 -1.59,-0.84 -0.6,-1.58 0.26,-2.68 -4.03,-6.52 0.51,-4.82 8.12,2.02 2.83,3.94 z m 44.94,-52.37 2.51,0.99 2.92,0.42 4.99,4.57 3.33,0.44 3.54,1.57 2.98,-0.39 5.78,0.85 5.75,2.85 9.19,8.89 2.49,1.15 -0.28,0.57 -1.04,-0.15 0.15,1.34 -1.09,1.1 -1.52,3.65 -4.54,4.32 -2.58,5.64 -2.44,7.99 -0.69,1.24 0.04,1.56 -0.78,1.66 3.52,8.56 0.38,1.29 3.73,8.36 0.67,8.92 1.36,1.91 1.21,3.88 -0.49,3.36 1.22,3.67 -2.88,6.73 1.04,1.21 -0.36,0.53 -0.12,2.28 0.86,0.75 0.7,-1.7 0.63,-0.21 0.3,-1.26 2.88,1.94 -0.74,0.57 0.54,0.26 -1.4,1.15 -2.13,-0.71 -0.1,0.6 0.94,0.71 -1.43,0.27 0.33,0.75 0.09,1.76 0.54,0.03 0.26,1.19 -0.93,2.89 -4.35,3.87 0.17,0.76 -0.1,0.25 -0.62,1.48 -0.74,1.35 -0.83,-0.94 -0.54,0.38 0.16,1 0.47,-0.46 0.73,0.36 -0.77,1.22 -0.22,0.48 -2.04,1.81 0.05,-1.49 -3.1,0.86 -0.37,-0.36 -1.75,3.97 0.56,1.03 0.8,0.19 -1.78,3.46 -5.91,-0.89 -0.36,-1.25 -0.11,-0.51 -4.53,-0.41 -1.62,0.45 0.08,-0.61 1.24,-0.21 4.78,0.58 -0.31,-0.74 -5.54,-0.24 -0.61,1.26 -0.36,-0.8 -1.62,0.38 -0.78,0.9 0.15,0.36 0.67,-0.61 0.35,0.24 0.6,-0.38 0.17,0.79 0.79,-0.32 0.33,0.61 -5.04,3 0,0 -0.92,-0.81 0,0 -0.19,-0.23 0,0 -2.5,-2.34 -7.09,-2.26 -1.35,-1.23 -4.58,2.02 -1.11,-1.75 -2.74,0.83 -0.79,3.21 -6.89,-2.02 0.99,-5.23 -1.34,0.07 0.14,-3.76 -1.07,-5.32 4.85,-4.21 3.68,0.25 5.36,-5.19 -5.03,-4.51 1.14,-3.08 0.63,-0.2 -2.56,-2.57 -5.77,0.91 -2.4,-2.34 -2.93,-1.32 -2.74,-3.17 -2.68,-1.51 0,0 -2.19,-1.4 0.67,-3.11 -1.39,-2.29 -0.72,-4.85 -0.77,0.16 -0.92,-1.69 0.35,-0.47 -0.4,-1.39 -1.18,-0.46 0.64,-3.43 2.45,-0.51 0.35,-4.31 -1.55,-2 -1.26,-3.54 0.23,-3.57 -1.2,-3.73 -2.32,-4.2 -0.65,-3.22 -0.95,0.13 -0.95,-0.33 -0.98,-0.93 -1.13,-0.19 -1.7,-0.44 -3.78,2.1 -0.74,1.27 -1.51,0.82 -5.89,2.01 -2.7,-0.8 -0.68,0.11 -0.05,0.72 -1.71,-1.08 -1.37,-5.16 1.66,-2.39 5.17,-2.8 16.03,-10.64 7.41,-6.98 16.2,-12.08 2.33,-1.25 12.57,-3.98 1.47,0.36 1.66,-0.41 -0.04,0.94 z"
		id="hovedstaden"
		name="Hovedstaden"
	/>
  <path
		d="m 312.0275,499.69261 -0.81,5.47 -0.4,0.75 -1.65,0.7 -3.66,-1.62 -4.69,0.31 -1.68,-1.21 -0.03,-0.92 1.95,-1.51 3.52,0.62 3.61,-1 -0.44,-1.62 1.25,-1.96 -0.3,-1.12 1.02,-2.82 1.4,2.54 0.91,3.39 z m -33.11,-14.73 0.9,0.05 0.88,1.08 -1.23,1.44 -1.42,0.44 -1.1,-0.14 -1.51,-1.03 -0.88,-2.06 2.31,-1.05 2.05,1.27 z m -252.350001,-14.98 1.03,1.14 -0.23,0.54 -1.22,-0.71 -1.37,0.1 0.19,-1.61 1.6,0.54 z m 302.890001,-14.23 -2.18,1.21 -1.28,-0.32 -2.1,-1.55 -1.56,-2.14 1.16,-0.29 7.15,2.18 -1.19,0.4 0,0.51 z m -321.1500006,-13.26 0.42,0.26 -0.39,0.73 0.42,2.7 1.5499996,2.2 -0.3,0.99 1.34,2.66 0.21,1.79 2.01,1.56 -0.15,1.44 -0.04,0.85 -0.3,3.06 0.99,0.86 -0.26,2.2 0.36,1.02 -0.14,1.68 -0.6,0.75 1.83,4.71 -0.61,2.13 0.78,1.39 1.63,1.07 -3.09,4.77 0.22,4.72 1.93,1.96 0,0 -2.6,0.48 0,0 -2.33,-14.9 -2.0099996,-19.71 -1.15,-5.62 -2.1,-5 2.38,-0.75 z m 338.8700006,13.89 3.2,4.14 1.87,1.01 4.58,2.07 0.06,0.48 -1.2,0.96 -1.89,-0.87 -1.72,0.28 -1.09,1.34 1.11,3.88 1.73,0.56 -0.65,1.08 0.96,1.75 1.01,0.47 0.61,0.47 4.62,-2.31 0.25,3.11 -2.81,2.7 -2.46,5.51 -0.47,4.88 0.82,1.98 -0.14,3.1 -1.05,3.24 -1.28,1.75 -0.69,2.99 -5.64,-1.33 -3.96,0.23 -1.96,-2.19 -1.29,-4.1 -0.37,-7.06 0.61,-6.93 2.6,-2.98 3.89,-0.33 0.94,-0.9 1.36,-3.14 0.98,-6.19 -0.83,-2.97 -2.18,-2.85 -3.02,-1.92 -2.9,0.4 -0.95,-1.56 -1.1,-5.47 0.17,-3.5 5.48,-5.8 1.32,10.41 1.48,3.61 z m -266.590001,-158.14 -0.73,1.11 -0.68,-0.49 -0.83,0.37 0.24,1.24 1.33,0.66 -2.48,4.28 -0.4,2.85 0.82,1.59 0,2.67 -2.29,2.57 -0.45,-0.27 1.84,-2.3 -1.2,-2.36 0.04,-1.91 -1.29,-3 3.77,-6.79 2.31,-0.22 z m -10.06,-26.79 1.1,2.15 -1.37,1.32 -0.65,3.62 -0.92,1.42 2.01,3.21 1.55,0.65 0.76,-1.13 -0.37,-1.62 -1.85,-0.76 0.5,-0.25 0.4,-2.12 1.49,0.39 1.32,-0.62 2.61,1.23 1.47,-0.71 -0.48,1.99 -1.22,1.77 1.01,1.61 -0.73,2.85 1.11,2.08 -3.89,-3.81 -2.09,-0.23 0.16,3.13 -0.67,4.83 -0.64,1.01 -5.22,0.17 -2.69,1.77 0.11,1.67 2.62,1.03 0.97,0.8 -0.51,0.33 -3.44,-0.73 -0.88,-1.6 -1.01,-0.53 -0.52,-2.68 -1.25,-1.29 -1.37,-5.59 -1.27,-1.67 -1.93,-1.06 -1.4,-2.26 -2.24,-1.6 -2.28,-2.68 -3.08,-1.53 0,0 0.16,-1.37 0,0 1.25,0.24 0.41,0.98 1.17,0.11 2.55,-2.46 3.53,-1.17 2.11,0.54 -1.11,0.01 -0.07,1.41 0.98,1.32 2.06,1.35 1.18,-0.11 2.9,-1.89 1.57,-2.21 1.69,0.1 0.77,-1.33 2.37,0.77 0.73,-1.5 0.49,-0.03 0.04,0.68 z m 424.410001,-12.41 1.82,0.46 -6.39,4.56 -4.22,5.94 -1.56,1.22 -3.06,0.55 -1.94,-0.5 -2.21,-4.55 -1.29,-2.06 -0.75,-0.28 3.37,-2.44 4.43,0.83 11.8,-3.73 z m -357.47,-16.39 6.36,4.32 -0.75,1.85 0.5,2.28 2.83,7.3 5.58,6.65 0.48,1.46 -3.89,2.35 -1.73,2.13 -1.93,3.15 -0.38,2.72 -2.85,-0.24 0.39,5.21 0.72,0.94 -1.98,-0.36 -1.02,0.54 -4,3.91 -1.25,4.04 -0.41,4.52 0.3,1.92 0.9,2.31 0.52,1.5 -0.39,0.82 0.61,1 -0.92,0.36 1.07,1.27 2.56,-0.02 2.18,-3.1 0.7,-2.48 -1.03,-2.66 0.77,-3.35 2.75,-1.25 1.23,1.73 1.59,0.32 2.23,-2.53 0.02,-2.25 -3.48,0.7 -2.24,-1.07 3.78,-3.39 1.92,-5.37 0.66,0.85 -0.04,1.61 -0.67,0.68 -0.12,1.83 1.18,2.3 1.65,1.16 2.07,0.16 3.44,-2.25 1.9,0.69 5.49,-0.28 -0.83,0.36 0.61,0.98 1.32,-0.61 1.73,0.84 1.49,3.21 -0.68,-0.05 -0.42,1.26 0.37,0.5 -3.93,2.69 -0.67,-0.35 -0.28,2.58 -1.3,2.21 1.36,0.61 0.73,3.98 1.94,2.86 2.93,2.65 1.78,0.05 -1.08,1.46 -0.08,1.79 1.01,-0.31 -0.06,-0.85 4.1,-3.9 2.41,0.67 1.31,1.02 0.87,-0.31 -0.56,-4.09 0.33,-2.57 0.9,-1.21 -0.92,-0.34 -1.43,0.45 -2.66,2.13 -4.08,1.45 -1.72,-0.3 -1.34,-2.76 1.45,-7.92 0.08,-1.57 -0.84,-0.92 1.44,-0.64 1.19,-2.03 0.46,-2.17 -0.33,-2.35 1.16,-1.43 0.64,-3.07 -0.74,-5.01 0,0 4.77,0.2 1.56,2.2 4.24,-0.69 -0.16,2.99 4.96,3.53 3.43,0.63 3,-9.47 2.12,-0.16 0.42,-1.79 4.13,0.44 0.52,0.32 -0.87,1.94 0.59,0.54 0.83,-0.39 0.18,1.11 0.55,-0.12 0.45,0.94 -1.8,1.7 0.39,1.45 5.1,0.61 -0.56,3.36 4.58,1.56 3.97,-0.77 6.18,0.88 0.76,3.54 -4.37,1.49 -0.13,7.14 4.67,-2.55 4.94,1.25 5.22,7.45 6.24,-1.56 5.12,2.8 6.39,-1.41 0.48,-3.44 0.83,-1.12 2.13,0.16 6.23,-1.87 1.46,-3.92 2.67,1.43 8.75,-2.68 6.29,-4.37 3.94,-1.16 1.2,-3.25 -0.18,-2.43 4.87,-1.45 -0.23,-3.12 5.53,-3.52 -0.35,-1.49 0,0 1.49,0.63 6.45,-4.09 2.1,-0.05 2.41,1.26 2.41,-0.88 1.09,-1.05 4,-0.1 2,2.17 1.4,7.82 -1.53,0.16 -0.3,0.75 1.44,3.13 -0.15,1.66 -2.17,3.98 -6.27,3.49 -2.17,4.48 -2.47,0.79 -2.51,2.55 -0.42,2.32 -1.09,2.53 -0.84,1.01 -1.17,-0.09 -0.84,3.01 1.76,9.88 -2.01,6.77 -0.82,0.59 -3.35,0.42 -7.53,3.39 -1.31,-0.48 -0.35,-1.47 -4,-0.45 -1.82,0.5 0.18,0.5 -3,0.36 -1.67,1.18 -0.96,0.41 -5.59,-0.35 -3.11,2.96 0.98,-0.31 1.26,-1.48 1.02,-1.01 5.5,0.49 4.16,-1.78 3.32,-0.57 3.06,0.86 2.8,1.2 7.53,-3.67 1.7,-0.04 2.89,-0.93 4.19,1.75 6.16,-0.42 -0.29,-0.46 -3.61,-0.44 -2.22,0.27 -1.48,-0.61 -0.88,-1.4 -0.11,-1.37 0.22,-3.96 -0.09,-0.83 0.13,-3.03 -0.5,-0.93 0.81,-5.26 0.8,-1.66 1.49,-0.78 0.05,-1.99 2.77,-4.33 1.97,-1.04 2.12,-2.7 -0.03,-3.98 1.14,0.17 1.08,1.41 1.17,0.01 2.25,1.33 0.47,4.55 0.98,2.31 3.36,4.96 3.87,3.83 2.98,2.02 11.09,3.04 7.26,-0.37 15.39,-3.82 6.05,-0.27 3.69,-0.51 3.56,-1.29 3.98,0.14 2.07,1.07 3.56,0.63 3.42,3.26 2.19,7.64 3.01,1.57 2.28,2.31 1.32,0.4 3.45,3.4 0.38,2.09 0.75,0.74 -0.43,2.05 -1.39,-0.04 -1.37,1.13 -1.38,3.04 0.57,0.59 -0.38,1.92 0.14,0.7 -0.98,0.73 0.12,2.98 -0.92,3.44 -0.03,8.76 -5.83,8.06 -1.23,2.83 -3.31,2.09 -1.07,1.54 -2.85,7.02 -2.72,3.24 -3.32,1.03 -2.26,2.11 -1.64,2.97 -0.71,3.22 0.79,6.56 -3.55,9.46 -3.47,0.16 -1.25,-1.16 -0.32,-2.26 -1.14,-0.75 -3.38,-2.83 -1.04,-2.38 -0.03,-2.01 0.78,-0.22 1.68,1.23 1.23,-0.51 0.73,-1.13 -0.13,-1.25 1.22,-2.31 -0.41,-2.34 -1.42,-2.14 -1.19,-0.9 -5.63,-0.58 -1.85,0.43 -2.12,1.68 -1.34,2.88 0.1,1.31 -1.99,1.41 -2.72,3.86 -1.34,4.34 1.4,2.97 1.22,1.11 0.93,5.79 -0.25,2.71 -1.64,2.81 -4.51,1.83 -4.35,-11.17 1.35,-1.59 3.57,0.28 1.64,-5.69 -1.11,-1.15 -2.21,0.62 0.13,0.55 -1.84,-0.66 -3.19,-2.38 -2.21,-0.39 -2.16,1.04 -0.51,1.87 -2,1.9 -3.49,0.02 -2.24,-1.59 -0.86,-4.31 -1.9,-1.61 -1.3,0.2 -0.32,-0.56 0.35,-1.81 1.51,0.57 6.46,-2.11 0.74,-1.18 -0.34,-1.3 0.97,-0.54 1.35,0.42 0.13,-0.68 1.79,0.31 -2.06,2.5 1.29,1.94 2.46,0.3 0.81,0.74 1.1,-0.48 2.05,-1.96 -1.73,-3.37 0.4,-1.14 -0.57,-0.86 -1.23,-0.28 -1.29,1.48 -0.24,-1.01 2.33,-3.11 1.56,-0.95 1.16,-1.96 0.21,-1.95 0.98,-0.51 2.1,0.21 0.18,-1.08 -0.93,-0.94 0.47,-1.29 -3.38,-1.96 -1.06,2.45 -0.97,-0.32 1.15,-1.51 -2.15,-0.07 -0.69,-0.62 0.39,-2.54 -0.5,-0.51 -1,1 -2.46,-1.09 -1.63,1.47 0.15,-0.37 -1.14,-0.42 -1,0.45 -1.61,-0.41 -1.06,0.82 -0.18,0.97 1.1,1.79 -1.86,2.11 -1.98,-0.52 -2.19,2.25 0.14,2.69 0.88,1.02 -1.3,1.13 -0.64,-0.66 -0.24,2.81 -4.34,2.25 -2.69,4.12 -0.78,2.26 -3.06,1.31 -2.24,1.97 -2.12,4.57 0.74,0.72 -1.92,1.95 -0.45,-0.37 -0.07,1.73 1.84,-1.39 -1.2,3.97 3.13,-1.79 0.47,-0.82 -0.64,-0.55 0.81,-0.96 0.6,1.05 -0.4,0.39 0.44,0.72 -3.28,2.53 -1.91,0.06 -0.6,0.87 0.69,1.78 1.82,2.03 1.46,4.43 1.42,2.24 1.58,7.85 1.58,3.33 0.01,1.83 -0.51,4.01 -1.56,0.8 -0.19,-1.27 -1.38,0.43 -2.37,3.01 -1.87,0.77 0.78,0.56 2.56,-0.64 1.76,-2.85 0.86,0.25 0.73,-0.64 1.76,-0.14 0.89,0.74 -1.54,1.48 -2.34,5.31 -0.1,3.29 1.86,5.35 -1.17,6.97 -0.01,4.62 -2.72,0.81 -4.2,5.15 -2.12,0.23 0.28,3.77 1.2,1.47 0.26,1.34 -0.35,0.26 -1.36,1.43 0.84,2.67 -0.79,1.02 -4.63,-2.21 -2.36,-2.74 -0.43,-1.08 0.73,-2.81 -1.58,-1.9 -0.53,1.44 -1.41,1.04 -0.45,1.67 0.66,0.38 -0.16,0.65 -2.08,-0.43 -3.16,3.12 -3.79,0.37 -2.14,1.16 -0.2,-2.19 2.98,-4.42 7.64,1.35 0.51,-1.73 -0.84,-1.19 -0.16,-1.6 -5.35,-0.38 -1.23,1.08 -3.61,0.97 -2.79,0.09 -2.49,-1.23 -3.31,0.09 -0.84,0.2 -0.89,2.98 0.71,0.84 -0.07,1.16 -4.69,-0.63 -2.29,0.89 -3.3,-2.96 0.18,-1.25 1.19,-0.12 -0.44,-0.55 -2.52,-0.59 -1.31,0.78 -0.59,-0.72 -1.8,-0.02 0.2,1 2.43,0.67 2.45,-0.57 -0.19,0.96 0.86,1.69 -2.06,0.57 -0.83,1.38 0.03,0.99 0.41,1.28 0.37,0.22 1.6,1.04 7.54,2.32 3.03,0.25 0.87,0.85 3.46,0.81 1.15,-0.2 1.59,-2.16 0.41,0.9 -0.89,1.09 0.7,0.45 -0.99,1.85 2.29,-1.52 2.73,0.01 0.41,0.48 0.01,1.25 1.75,2.04 -6.39,6.77 -0.5,1.24 0.17,2.44 1.08,1.71 7.17,1.43 0.72,1.8 -3.92,-0.07 -2.44,2.74 -2.73,0.32 -2.12,1.3 -0.2,2.22 2.23,1.24 0.46,-0.45 1.46,4.64 -2.37,-1.17 -5.13,1.52 -7.51,0.56 -5.44,1.53 -2.67,1.23 -2.35,2.02 -3.69,1.1 -1.49,-2.22 -3.44,-0.88 -5.13,0.27 -3.75,-4.1 -0.53,-1.33 -2.2,-0.1 -0.81,-1.01 -3,-1.22 0,0 1.73,-5.82 -0.41,-3.33 -4.09,-2.48 -0.57,1.4 -3.22,-1.08 -3.1,1.54 -2.39,-2.96 1.64,-2.18 -1.52,-2.06 -0.86,1.62 -5.56,0.36 0.23,-2.54 -2.86,-0.51 -1.81,-6.03 -0.47,-4.12 -2.88,-0.07 0.06,-1.32 -4.99,-0.49 1.15,-3.77 -2.14,-0.93 2.77,-1.99 -10.2,-14.09 0.41,-0.23 -0.45,-1.35 0,0 0.05,-0.52 -5.22,-2.83 -0.5,0.68 0,0 0.02,0.07 0,0 -0.67,0.4 0,0 -0.51,0.54 0,0 -2.21,-0.57 -1.48,-1.1 -0.88,0.53 0,0 -3.16,-0.34 -3.26,-3.75 -5.23,-0.3 -3.35,5.91 0.08,3.45 -6.33,8.18 -4.48,3.51 -2.8,-1.95 -1.72,2.53 -1.94,5.53 -1.67,-1.53 -1.73,3.51 -2.24,-1.02 -2.86,2.44 -7.12,-3.66 1.07,-9.68 -11.63,-2.67 -0.33,0.48 -1.94,-0.4 -1.32,3.73 -2.21,-0.38 -2.28,8.44 -3.97,2.38 4.47,4.52 -9.380001,3.27 -5.05,-1.91 -1.99,-5.88 -4.4,-2.59 -11.51,3.3 -3.2,-3.14 -5.2,1.6 1.94,4.63 -1.31,2.28 -3.33,0.69 0.17,5.58 -2.66,2.65 -6.27,0.08 -1.2,-2.86 -3.54,-1.81 1.24,-0.88 -6.1,-0.61 -4.04,-5.1 -4.01,5.24 -5.21,-0.12 -0.72,1 -1.07,0.06 -3.67,-3.54 -2.88,-1.57 0.12,-2.11 -4.88,-1.31 -1.31,0.31 0,0 1,-3.88 -0.42,-0.02 0.18,-1.06 1.63,-0.37 1.64,-2.51 -0.44,-0.7 -0.19,-0.63 0.46,-0.92 -1.8,-1.64 0.45,-0.6 0.52,0.39 1.49,-0.36 -1.01,-1.7 0.52,-0.45 -0.46,-1.26 0.78,-0.72 2.87,0.53 0.06,1.12 -1.31,-0.13 1.71,2.19 -0.23,0.43 1.33,0.87 0.71,-0.18 -0.04,-1.18 1.47,-0.39 1.11,0.56 0.43,-0.46 1.33,1.26 -2.62,3.03 0.37,2.89 -0.72,1.9 1.64,1.2 0.78,-1.81 0.67,-0.29 2.26,-1.24 0.81,-1.14 3.41,-2.22 0.94,-1.95 3.18,-3.63 3.35,-2.47 0.33,-0.87 -0.6,-1.94 -1.3,-1.2 0.91,-1.14 -0.15,-1.66 0.06,-2.19 0.06,-1.78 -0.96,-0.73 -0.18,-0.99 -0.61,-0.99 -1.18,-1.22 -1.51,-1.9 -1.57,-1.71 -2.74,-4.96 -0.86,-4.4 0.3,-3.27 -0.9,-2.74 0.68,-3.45 -0.43,-1.42 -3.84,-2.7 -4.09,-3.94 -2.23,-1.96 -8.7,-3.14 -1.01,0.15 -0.35,-0.81 -4.3299996,-2.55 1.76,2.03 0.03,1.38 0.9099996,1.37 -1.8199996,2.4 -0.25,1.2 -0.61,6.44 0.33,1.79 -0.73,3.37 1.47,7.03 1.3299996,0.44 -2.1199996,0.93 -1.11,-0.48 0.23,0.79 -1.13,0.75 -2.21,-11.03 0.79,-15.21 3.39,-25.98 0.23,-9.93 -2.24,-30.24 0.48,-0.01 1.74,0.08 0.45,0.56 -1.43,-0.17 -0.36,0.71 1.63,-0.24 0.71,0.9 -1.04,1.73 0.12,1.81 -0.74,0.34 0.39,5.09 2.3199996,-0.64 0.45,-0.33 2.03,-1.22 0.48,3.42 3.16,-0.92 2.24,1.67 4.21,-0.33 -0.37,1.79 1.23,3.12 -1.46,0.78 1.43,2.21 1.01,0.43 2.74,-2.23 0.9,-0.13 1.93,-4.05 1.45,-1.41 0.02,-0.79 -1.5,1.37 -0.95,-0.95 -3.24,-0.95 -0.47,-0.26 -0.35,-0.8 -0.88,-0.19 0.38,-0.94 1.02,-0.23 -0.89,-3.06 -1.41,-0.86 -0.01,-1.08 -0.81,-0.9 -2.5,-2.05 -2.47,-1.1 -1.98,-2.25 -0.71,-2.46 -1.83,-2.62 0.02,-2.87 -0.76,-0.36 0.95,-0.99 -0.7,-4.65 -2.39,0.86 -2.1499996,-1.79 -0.21,1.43 -0.8,-0.2 0.83,1.24 0.23,1.89 -0.44,1 -0.78,0.12 0.75,2.15 -0.82,0.37 1.14,0.72 -1.18,1.13 1.22,0.09 0.6,2.46 -1.54,-0.26 1,1.34 -1.36,1.32 1.25,0.37 -0.1,1.05 -2.1,0.42 1.39,-25.2 -1.29,-8.57 -0.06,-4.21 1.15,-8.49 6.2799996,-25.46 4.72,-10.61 1.38,-1.65 1.28,0.49 0.02,0.95 -0.62,0.38 0.73,0.71 0.4,0.41 -0.24,1.91 -0.32,0.15 0.34,1.22 0.79,0.3 -3.57,4.4 1.85,2.63 -1.62,0.73 -1.42,-0.86 -1.19,5.87 1.67,-0.48 4.37,2.1 0.12,0.98 -0.59,0.35 0.56,0.56 -0.14,2.92 0.89,-0.04 1.02,1.18 3.74,1.04 2.81,-0.28 1.35,0.92 0.58,1.88 -2.59,0.13 -0.54,0.67 0.26,1.65 2.02,3.23 -0.71,0.78 0.31,2.15 0.9,0.79 0.67,-0.19 0,-5.2 2.86,-1.54 3.21,0.66 4.98,-0.92 13.85,6.64 2.62,2.53 1.09,0.26 2.6,-1.48 2.93,-3.76 1.58,-4.68 0.19,4.66 1.23,1.97 -0.36,2.8 1.61,1.2 2.57,5.03 -1.07,0.86 -1.81,3.75 0.3,1.16 -0.6,-0.04 -0.28,-2.05 -1.6,-0.47 -2.32,0.75 -1.05,1.53 0.51,0.97 -0.68,1.59 -1.81,-0.23 -0.71,0.79 0.91,0.64 2.49,-0.48 0.09,-1.93 1.12,-1.77 1.82,1.08 2.87,-0.21 1.06,0.54 0.55,-0.43 -0.53,-0.39 1.79,-1.06 0.01,3.69 1.46,2.72 3.69,1.81 1.3,-0.01 10.09,-2.8 0.85,-0.87 0.86,-4.54 -0.44,-5.34 -0.88,-2.55 1.82,-3.15 1.39,-0.77 0.64,-1.37 -1.4,-3.14 -3.47,-2.08 -3.76,-3.75 -1.24,-4.61 -2.2,-0.9 0.84,-3.83 1.63,-0.47 2.12,1.05 2.65,-0.03 4.22,-4.15 2.31,-3.7 1.4,-4.97 3.960001,-5 1.18,-0.12 2.09,1.97 1.21,-0.2 0.88,-1.42 2.36,0.51 -0.03,-1.67 1.68,-1.01 1.56,2.42 2.03,-0.21 1.67,-1.4 -0.46,-2.22 -1.86,-0.74 -1.73,0.71 -0.69,-2.31 -1.15,2.97 -1.85,-1.68 -1.66,1.14 -3.33,0.58 -0.24,-0.49 4,-9.15 2.4,-2.66 -1.17,-2.57 1.81,0.29 1.08,-0.46 4.14,-2.82 1.81,-2.96 5.19,-3.55 6.04,3.04 1.98,0.68 1.38,0.69 1.01,-0.37 0.14,-1.01 -1.15,-0.51 0.25,-1 -1.19,-1.11 2.61,-0.4 1.5,0.48 1.64,-0.78 z m -3.97,-11.05 5.11,0.76 -1.1,0.42 -1.09,1.41 0.35,1.66 2.2,0.3 -1.82,2.26 -1.32,0.56 -1.1,-0.76 -1.68,0.8 -0.71,-0.44 -0.94,1.98 -0.07,1.91 -1.77,0.47 0.03,1.47 -4.31,-3.87 -2.06,-4.36 -1.84,-1.13 0.75,-1.11 11.37,-2.33 z"
		id="midtjylland"
		name="Midtjylland"
	/>
  <path
		d="m 65.197499,269.51261 -2.24,-0.6 0.35,-1.05 1.44,-0.42 0.45,2.07 z m 75.750001,-46.94 -2.01,-0.94 -1.3,-1.84 1.93,-2.89 0.7,-0.06 2.02,3.9 -0.57,2.16 -0.77,-0.33 z m -25.1,-18.58 -0.42,2.46 2.09,7.03 -1.9,2.59 -2.38,10.7 -1,1.25 0.51,-1.88 -0.24,-3.27 -1.08,-0.25 -1.08,0.66 0.25,1.16 -1.51,-1.37 0.4,-1.03 -0.7,-0.6 -2.17,0.37 -0.38,1.26 -1.73,2.64 -0.13,1.37 1.5,2.94 0.51,4.92 1.42,3.47 3.05,3.31 0.67,3.02 -0.23,2.35 -0.89,-2.43 -0.98,-0.16 -0.44,0.91 -0.82,-0.08 -0.14,1.23 1.5,1.37 -2.93,1.85 -0.51,1.17 -0.56,1.99 0.6,0.26 -0.34,1.1 0.42,1.74 -0.94,0.02 -0.63,0.72 0.16,1.96 -2,1.18 -0.85,1.34 -1.54,0.58 -4.300001,5.77 1.05,2.46 -6.11,3.01 -0.18,0.56 -3.61,-0.6 -8.52,3.46 -0.13,-1.37 -0.94,-1.31 -0.59,-0.96 0.62,-2.42 -3.2,-3.4 0.19,-2.2 1.84,-0.59 0,-0.66 -0.52,-0.34 -2.06,0.65 -0.81,0.79 -1.22,-0.55 0.54,-1.46 -0.82,-1.93 -1.82,0.07 -0.24,0.99 0.06,1.06 1.87,0.24 -1.32,1.18 1.25,2.15 -3.78,1.48 -0.16,-1.18 -1,-2.75 0.08,-0.62 2.81,-0.55 -0.64,-1.35 -4.18,-3.01 -3.47,3.67 -1.66,0.81 0.5,-2.12 -0.38,-1.91 0.88,-2.07 2.05,-0.44 2.42,-2.18 1.44,0.49 0.75,-0.81 -1.5,-6.15 -1.03,-1.08 1.6,-1.02 0.62,1.25 0.91,0.09 1.66,-2.32 1.65,-0.28 4.67,1.15 6.17,-3.5 0.2,-2.19 -0.59,-0.7 -7.31,-1.27 0.01,-1 1.7,-2 2.52,0.83 1.03,-0.66 0.08,-1.51 -2.33,0.02 2.38,-3.95 -0.16,-3.74 -0.65,-1.38 0.38,-1.05 -1.07,-1.38 4.47,-1.45 2.52,0.75 5.25,-1 1.42,0.65 2.84,-2.3 3,-0.16 2.04,-1.11 3.310001,-0.17 1.16,-2.13 0.69,-4.75 2.86,-3.35 1.16,-3.05 1.18,1.48 2.75,-0.55 1.32,0.46 2.94,-3.42 0.33,-2.69 0.82,0.06 -0.23,2.37 -2.02,2.29 z m 131.05,-25.21 -2.01,0.4 -2.62,-1.2 -0.97,-1.02 -0.45,-2.36 4.02,-0.82 2.13,0.5 0.86,1.35 1.5,0.88 -0.03,0.67 -2.43,1.6 z m 23.08,-5.36 1.76,3.96 3.92,3.11 -0.32,1.13 4.14,2.24 4.04,3.68 2.05,3 7.49,5.47 5.54,2.1 9.65,-0.96 -0.3,4.35 -1.27,0.01 -0.98,1.69 1.03,0.42 0.19,0.67 -2.68,4.25 -1.41,11.21 0.6,2.18 0.71,14.39 0.67,6.2 2.97,12.32 4.92,7.81 -0.07,3.83 -1.13,1.04 -3.4,-1.7 -6.49,-0.47 -3.61,-1.81 -1.07,0.09 -2.17,1.98 -0.55,1.51 -2.16,0.69 -2.55,-1.31 -0.64,-1.57 0.22,-1.28 -1.4,0.04 -1.26,-0.3 -5.31,2.65 -0.63,2.4 -2.45,1.06 -0.08,0.59 -0.97,0.04 -0.46,-1.31 -1.47,-0.78 -2.58,0.83 -0.51,0.98 -1.97,0.1 -1.57,1.99 0.24,1.32 -4.06,0.64 -3.08,3.27 -2.01,-0.27 1.06,2.24 -1.18,-0.56 -1.64,0.88 -0.24,0.75 -0.69,-0.34 -1.86,0.97 -2.76,-0.26 -1.23,0.66 -4.61,-0.01 -1.12,0.96 -3.33,-0.13 -3.06,1.92 1.09,0.28 1.28,-0.65 4.21,0.73 1.77,-1.82 3.24,0.06 2.93,-0.78 0.35,0.51 2.52,-0.08 2.01,-1.08 1.18,0.58 1.58,-0.56 1.15,-1.39 2.02,0.6 0.51,-1.02 -0.55,-0.34 1.45,-1.72 1.22,-0.03 1.22,-1.52 1.21,0.48 1.69,-0.81 0.11,-1.3 2.53,-3.22 1.16,-0.22 2.46,2.3 1.44,-0.13 3.46,-3.44 0.24,-2.8 0.71,-1.29 0.81,0.83 1.71,-0.12 2.24,1.39 1.51,-0.39 4.16,5.46 0,0 0.35,1.49 -5.53,3.53 0.23,3.12 -4.87,1.45 0.18,2.43 -1.2,3.25 -3.94,1.16 -6.28,4.37 -8.75,2.68 -2.67,-1.43 -1.46,3.92 -6.23,1.87 -2.13,-0.16 -0.83,1.12 -0.48,3.44 -6.39,1.41 -5.12,-2.8 -6.23,1.56 -5.22,-7.45 -4.94,-1.25 -4.67,2.55 0.13,-7.14 4.38,-1.49 -0.76,-3.54 -6.18,-0.88 -3.97,0.77 -4.58,-1.56 0.56,-3.36 -5.1,-0.61 -0.39,-1.45 1.8,-1.7 -0.45,-0.94 -0.55,0.12 -0.18,-1.11 -0.83,0.39 -0.59,-0.53 0.87,-1.94 -0.52,-0.32 -4.12,-0.44 -0.42,1.8 -2.12,0.16 -3,9.47 -3.43,-0.63 -4.96,-3.53 0.16,-2.99 -4.24,0.69 -1.56,-2.2 -4.77,-0.2 0,0 -1.98,-5.11 -1.62,-1.41 -1.62,-0.18 -2.48,0.88 -1.68,1.56 -2.26,0.11 -1.61,1.81 -3.52,1.59 -2.3,2.33 -0.84,0.21 -1.83,-1.94 -0.42,-1.29 0.08,-1.2 2.05,-1.03 2.36,-3.63 0.66,-0.02 3.17,-3.27 2.43,-4.1 0.9,-3.76 -0.37,-2.55 -1.23,-1.4 -4.53,-1.63 -1.79,0.7 -0.26,-0.48 0.49,-5.08 -1.9,-4.57 -0.82,-0.29 2.85,-3.92 2.7,-5.15 0.35,-4.9 -1.56,-3.09 -4.42,-3.03 -0.31,-1.71 1.76,-6.3 2.59,-3 0.24,-1.67 2.17,-1.14 1.98,-2.38 1.93,-4.33 4.83,-1.5 0.84,-1.15 0.64,-3.9 1.1,-1.39 0.79,0.27 7.2,-2.77 10.24,-2.31 8.52,0.35 2.91,0.7 7.56,4.03 2.56,2.33 -2.02,2.34 -0.51,2.12 1,2.63 -0.99,1.21 -1.15,-2.47 -0.96,-0.16 -1.66,2.5 1.97,4.86 1.04,0.72 1.11,2.11 0.49,-0.16 0.91,-5.77 -0.4,-2.29 2.56,-1.7 1.77,0.02 1.88,-1.28 1.57,-4.48 1.32,-0.4 4.21,-5.62 -0.12,-3.24 0.5,-1.46 0.75,-1.24 2.65,-1.64 6.38,-1.24 4.7,-1.62 9,2.28 3.49,-2.81 1.45,-0.53 2.03,-0.37 2.01,0.13 3.01,2.1 2.03,-0.15 1.98,-0.81 2.19,-4 3.18,-2.46 3.59,0.42 z m 133.99,-32.32 -0.62,-0.12 0,-0.96 1.74,-0.8 -1.12,1.88 z m 5.79,-2.45 0.57,0.73 -0.63,1.47 -4.19,0.63 -0.93,0.62 -0.53,-0.7 0.27,-1.31 1.24,-1.01 3.17,-0.75 1.03,0.32 z m -16.26,-7.1 -2.53,0.13 -0.93,-1.44 0.48,-0.31 2.98,1.62 z m -7.63,-5.22 0.36,0.72 0.44,-0.11 0.25,0.3 4.36,5.35 -0.93,-0.13 -4.74,-5.71 -0.29,-1.17 1.12,0.27 -0.57,0.48 z m 46.77,-15.08 -0.8,8.94 -0.53,-0.22 0.56,-1.92 -0.29,-1.23 -1.39,-0.74 0.61,-2.06 -2.09,1.9 -0.1,0.88 -3.11,-0.6 -3.19,0.91 -1.22,-0.28 -5.27,2.59 -0.75,1.34 0.43,0.7 2.46,0.38 -0.27,4.1 -0.82,2.27 -2.73,3.03 -6.13,-0.53 -1.23,0.46 7.55,0.49 -1.11,1.52 -7.54,4.23 -2.06,-0.5 -1.79,0.95 -0.99,-3.35 -0.51,-0.25 0.21,-0.86 -2.85,-0.67 0.27,-0.94 -0.97,-1.23 -2.58,-0.57 -1.67,0.75 -4.52,-2.26 -0.91,-1.17 0.06,-1.91 4.6,-3.7 2.17,-3.73 3.64,-2.17 2.42,-0.01 1.38,-0.97 3.18,0.43 1.71,-0.47 1.54,-2.44 1.15,-0.68 4.27,0.28 8.11,-0.59 1.49,-0.36 2.35,-1.76 3.23,1.09 3.79,0.13 0.24,0.8 z m -82.54,-102.9200007 -1.1,1.02 -1,-0.71 -0.84,0.7 0.67,0.46 -1.38,-0.15 -3.64,3.0999997 -8.6,10.76 -6.31,10.87 -1.43,3.84 -1.1,6.82 1.15,6.05 1.96,5.24 7.84,10.05 -0.06,1.59 2.81,4 1.55,1.12 1.54,4.8 0.69,0.46 0.76,-0.38 0.6,0.68 -0.76,2 -1,-1.09 -0.41,0.5 0.88,1.52 -1.22,-0.91 -0.57,1.03 0.98,0.55 -1.4,-0.02 -0.12,0.74 -0.85,-0.02 -0.34,0.71 0.3,2.96 -0.53,0.68 0.05,2.28 -1.36,5.76 1.03,9.820001 1.73,3.12 -0.82,0.75 -0.23,1.29 2.53,13.04 0.64,6.08 -0.42,5.67 -0.78,0.24 -1.95,2.55 -2.09,1.77 -2.62,1.08 -3.47,3.76 -3.6,5.1 -3.28,6.81 -2.29,5.93 -3.57,16.14 -0.07,1.96 -3.21,9.55 -3.03,5.71 -2.55,-0.75 -1.68,-0.58 -3.83,0.67 -1.98,1.28 -4.96,-0.83 -5.75,-4.42 -1.29,-1.97 -8.58,-8.13 -2.15,-1.66 -2.15,-0.48 -4.65,-4.04 -3.75,-4.07 -1.91,-0.62 -3.16,1.3 -3.52,3.6 0.03,3.21 -2.78,1.05 -1.65,-0.5 -2.48,-1.94 -1.22,0.02 -3.22,-1.72 -1.05,-1.71 -3.93,-3.71 -1.41,-0.34 -5.54,-3.82 -1.3,-0.23 -0.1,1.43 0.51,0.48 -0.6,1.45 -2.72,5.28 0.26,0.65 -1.93,1.41 -5.92,0.96 -4.98,-3.04 -2.08,0.81 0.05,-2.86 2.6,-0.69 1.53,-1.95 0.06,-0.72 -2.12,0.19 -3.88,1.7 -1.79,1.72 -1.94,1.67 1.66,1.58 1.96,-0.28 0.65,0.42 -2.49,1.72 -1.74,3.01 -3.23,-0.19 -1.78,2.41 -4.16,-0.99 -5.2,0.01 -1.6,0.73 -1.11,-1.02 -4.36,1.8 -3.79,0.45 -7.43,3.38 -3.08,0.03 -6.25,2.9 -1.37,1.15 -1.36,1.51 -3.38,1.42 0.04,0.61 -1.05,0.39 -3.05,-0.44 -1.72,-0.31 -1.77,-1.2 -6.25,-6.32 -4.33,-3.76 -9.89,4.25 -0.32,1.4 -2.16,2.32 -1.41,-0.16 -0.04,-2.52 -0.93,-0.95 -3.49,0.33 -2.35,0.95 -2.51,3.51 -2.93,-0.74 -2.57,1.44 -1.98,4.86 -2.05,-0.01 -1.1,-2.44 -3.38,-0.96 -1.47,1.78 -0.29,-1.93 -1,0.19 -1.05,0.33 -1.11,0.12 -0.59,0.45 0.47,1.24 2.46,1.77 0.1,1.68 -2.01,0.66 -0.61,0.91 -1.71,0.08 -3.290001,1.63 -0.88,1.99 -3.31,1.38 -1.73,0.14 -2.7,-1.13 -1.41,0.27 -1.84,-0.92 -1.83,0.16 -2.78,-0.11 -0.78,0.61 -1.45,4.06 0.71,2.65 -3.07,3.03 -0.03,3.09 -2.04,2.86 0.8,3.03 -1.05,1.4 0.1,0.72 1.24,0.87 -3.18,4.77 -0.01,0.97 -4.88,5.85 -5.61,0.31 -0.36,0.57 0.45,2.36 -2.15,-0.19 -4.43,2.67 -2.54,3.7 1.17,2.62 3.15,4.05 -1.54,1.9 -1.44,6.17 -2.71,2.52 3.4,-0.95 1.98,0.49 2.47,0.06 0.6,1.14 -1.33,2.75 1.72,-0.97 0.74,0.56 -2.11,2.66 0.27,2.7 -3.39,-1.17 -1.36,-1.97 -3.74,-1.4 -3.82,1.94 0.17,0.73 -1.27,1.18 -1.28,-0.55 -0.64,0.31 -0.58,1.73 0.77,0.06 0,0 -0.16,1.38 0,0 -6.73,-1.73 -1.08,-3.89 -1.01,-0.93 -1.23,-2.87 -2.06,-1.91 -1.09,-2.96 -1.35,-7.75 -2.37,-2.84 -3.53,-2.12 -1.26,18.32 0.01,1.09 -0.28,0.55 -0.96,-0.71 0.01,-2.75 -1.49,-2.67 -1.02,-0.06 0.54,-2.24 0.5,-12.35 1.27,-5.82 4.84,-13.69 12.38,-25.33 2.64,-1.51 4.1,-5.22 5.23,-8.11 2.61,-5.55 1.26,-1.32 2.05,0.19 1.62,-0.86 3.97,-4.67 8.29,-13.87 -0.17,-0.62 0.42,-0.31 0.44,0.24 0.38,0.63 3.09,-1.69 0.83,0.84 7.31,2.37 8.36,3.73 2.09,0.01 9.400001,-2.32 5.69,-2.27 4.52,-2.51 8.15,-6.29 3.47,-1.48 3.24,0.59 3.55,-0.8 10.12,3.95 6.25,1.12 5.28,0.22 9.35,-1.04 3.61,-0.8 5.63,-2.37 6.41,-0.5 4.45,-1.81 17.48,-13.72 1.92,-2.1 13.78,-20.66 8.99,-16.690001 1.72,-2.05 10.82,-24.83 9.55,-10.08 3.29,-4.59 6.57,-12.72 3.25,-3.46 -0.6,1.27 3.19,-0.65 0.03,-0.67 1.23,0.97 2.23,0.44 3.69,0.34 3.17,-0.5 4.76,0.8 2.99,0.02 7.19,-1.24 11.8,-4.58 10.83,-6.49 27.51,-24.1699997 4.85,-3.37 2.63,-1.26 4.58,-1.13 2.22,0.19 3,1.77 -4.61,4.06 -1.45,2.06 z"
		id="nordjylland"
		name="Nordjylland"
	/>
  <path
		d="m 474.9075,707.81261 -0.66,0.71 -0.87,-0.48 -1.32,0.84 1.89,2.69 2.62,1.57 0.12,1.06 -1.59,-0.79 -3.67,0.94 -0.59,-2.89 2,-0.63 -0.86,-1.47 -0.45,0.14 -1.01,-0.99 -0.13,-0.84 4.52,0.14 z m -33.42,-10.63 4.06,2.7 3.54,5.22 1.02,-0.23 2.72,0.78 1.91,1.25 0.23,4.54 3.04,3.38 2.17,1.44 1.46,0.16 1.49,1.41 1.42,0.07 -0.59,1.65 0.87,0.64 1.89,-1.12 2.35,0.58 0.75,1 -0.66,3.31 0.53,1.36 1.15,-0.42 2.31,0.74 0.04,1.63 2.59,-0.44 2.81,0.97 3.18,0.04 1.42,1.32 3.44,-0.74 0.42,-0.92 -2.33,-0.84 -2.07,-2.85 0.43,-1.53 1.31,0.02 1.39,-1.27 3.47,2.09 2.73,-0.93 1.28,-1.31 1.92,-0.12 -0.11,-1.44 -1.13,-1.26 0.77,-4.48 -1.69,-2.57 0.12,-1.11 3.14,0.65 0.54,0.93 1.2,0.31 1.64,2.31 3.9,2.84 1.09,0.49 3.01,-0.61 0.75,0.8 -1.14,1.41 -0.3,1.52 1.73,4.84 1.34,0.08 2.83,1.82 1.35,-0.09 -1.22,2.77 0.18,3.27 2.2,1.77 0.27,1.23 1.26,0.02 0.38,0.7 1.4,0.34 1.64,2.27 2.38,1.55 0.94,1.17 -0.07,1.96 0.03,1.09 0.96,1.36 0.14,3.3 -2.52,1.77 -0.03,0.65 -1.83,0.08 -2.49,-2.05 0.4,0.98 -0.5,1.84 1.13,1.04 -2.18,1.02 0.66,1.5 0.54,0.98 1.96,1.34 2.15,0.98 0.85,-0.51 1.14,1.18 -0.22,1.53 -2.76,0.49 1.91,1.86 -1.81,1.13 1.22,1.08 -0.97,-0.06 -3.29,1.72 2.35,1.8 -1.28,0.46 -0.89,-0.44 -0.26,1.13 -1.1,-0.38 -0.69,0.86 -2.54,-1.04 -4.04,-0.67 -2.25,0.22 -1.57,-0.62 0.73,-1.05 -1.1,-1.88 -0.76,0.62 0.45,1.84 -1.69,0.89 -0.99,-1.97 -2.27,-1.06 -2.48,0.64 -0.7,-1.14 -0.64,1.05 0.47,0.53 -0.75,0.65 -0.28,-0.63 -0.81,0.51 -1.29,-1.09 -1.72,-0.11 -0.13,0.76 -1.32,0.21 -1.45,-0.16 -2.33,-1.29 -1.1,0.51 1.09,0.89 -0.27,0.29 -3.85,-0.3 -0.12,0.77 1.26,0.92 -2.51,0.14 -0.13,1.4 -0.92,1.34 -2.96,0.28 -0.72,0.83 -2.73,-0.01 -4.95,5.71 4.3,2.92 1.25,0.02 1.14,0.86 1.7,-0.16 0.63,-0.76 0.06,0.93 -2.1,0.42 -1.8,-0.39 -7.17,-4.41 -5.58,-4.67 -5.33,-2.97 -2.38,-2.05 -0.96,-0.16 -6.41,-7.31 -4.74,-3.87 -3.64,-1.58 -1.51,-0.07 -3.34,-2.04 -12.25,-4.94 -8.31,-2.47 -6.98,-3.75 -5.55,-9.57 -1.1,-6.48 0.53,-1.02 0.84,-0.4 2.69,1.92 -2.81,-1.44 -0.26,0.63 0.86,0.89 -0.01,0.82 -0.89,-0.37 -0.57,0.97 0.8,4.06 1.22,2.19 0.74,0.11 0.46,-0.32 2.41,0.01 1.4,-1.02 0.72,-1.38 -0.84,-1.27 -3.11,-1.96 2.21,0.22 1.94,1.27 0.76,-0.35 1.24,1.4 1.1,0.02 1.06,2.8 3.49,-0.17 1.35,-1.7 -1.68,-1.71 0.22,-1.97 2.23,2.58 1.09,-0.29 0.82,-2.2 1.76,-0.71 -0.34,-1.49 1.88,0.33 0.63,-0.43 -0.35,-0.78 -1.17,0.55 -1.51,-0.64 -1.83,0.42 -0.11,0.58 -1.05,-1.29 -0.79,0.41 0,-3.23 -1.3,0 -0.23,-1.89 -1.6,-1.27 0.69,-1.96 -2.14,0.43 0.06,-1.85 -0.6,-0.35 -1.1,1.58 -0.43,-0.12 -0.08,-2.71 -0.79,1.09 -0.87,-0.74 -0.29,-2.06 1.68,-5.86 4.48,-3.56 1.58,-2.58 1.57,-0.82 0.94,0.59 2.33,-0.23 1.23,0.93 0.58,1.32 0.02,-1.71 -1.14,-1.93 0.8,-0.61 1.64,1.1 0.12,-1.66 1.8,0.55 1.88,-1.62 1.41,0.28 2.06,-1.42 11.3,0.76 z m 20.34,-2.85 2.11,1.43 3.33,-0.42 2.69,3.06 0.17,0.89 -0.26,1.2 -4.94,-0.39 -3.88,5.34 -0.66,0.17 -0.43,-0.92 -3.54,-2.39 -1.24,-5.32 -1.18,0.01 -0.61,-2.57 1.12,-0.03 1.1,1.07 0.34,1.01 -0.43,0.82 0.69,1.7 0.84,-0.11 0.14,-1.39 0.42,-0.01 2.18,0.7 1.08,1.2 0.63,-0.15 0.33,-1.11 -0.44,-2.3 0.44,-1.49 z m 59.27,2.18 1.31,0.54 0.52,0.1 3.54,3.23 -0.57,1.09 2.05,1.69 0.18,2.38 1.97,1.15 1.71,0.29 0.41,-0.41 0.38,-1.06 0.28,-0.57 0.17,-3.76 1.11,1.05 2.56,-0.93 2.08,0.19 1.93,1.48 -0.4,0.89 0.4,3.16 0.92,1.84 -0.39,0.94 2.6,2.06 3.67,0.98 1.84,-0.16 2.06,0.9 2.01,-1.14 3.04,1.13 3.57,0.42 0.93,4.68 3.96,4.77 1.34,3.21 -0.84,1.37 -3.45,1.42 -1.07,3.47 -1.48,1.9 -4.88,2.81 -5.62,7.55 -2.09,6.1 -1.33,2.1 -3.89,3.4 -2.27,4.18 -1.3,5.9 -0.06,3.82 1.77,17.76 -0.47,3.82 -7.33,-3.6 0.72,-1.28 -0.03,-0.52 -0.47,0.12 0.13,-3.12 -3.91,-8.16 -2.71,-3.94 -0.88,-2.76 1.58,-5.28 0.13,-2.43 2.92,-3.42 1.54,-3.06 -0.52,-0.75 -0.69,0.23 -4.44,-1.95 0.7,-3.48 1.3,-1.4 -2.31,-3 -0.78,-3.33 -1.9,-2.36 -1.62,-0.8 -0.79,-2.31 -2.61,-0.56 -2.18,-2.19 -0.24,-0.86 1.66,-1.32 1.13,-2.67 -0.12,-0.99 -1.31,-0.98 0.31,-1.67 -3.18,-2.47 -3.93,-0.39 0.43,-1.31 -0.64,-2.06 -0.59,-0.34 1.03,-2.49 -1.38,-1 -0.89,-2.65 0.45,-1.64 1.53,-2.06 0.06,-1.86 -1.4,-2.39 -4.94,-0.07 -0.68,-0.58 2.25,-2.92 1.16,0.7 1.01,-0.15 0.48,-1.12 -1.31,-0.71 1.81,-2.64 3.2,0 2.27,1.4 2.45,4.43 1.87,-0.44 1.11,-1.4 0.93,-3.63 -0.92,-1.22 0.07,-0.79 1.02,0.23 1.25,1.67 z m 36.6,-0.45 -0.35,1.32 -0.74,0.21 0.48,1.5 -1.1,-1.13 -2.14,1.28 -2.21,-1.2 6.06,-1.98 z m -81.09,-7.26 4.33,0.81 2.54,3.79 -3.43,4.14 -0.65,2.08 -1.84,-2.58 -1.34,-3.42 -2.4,-2.13 0.64,-1.46 2.15,-1.23 z m 84.92,0.72 -2,2.62 -0.17,1.69 -1.23,-0.39 -0.47,1.14 -0.25,-1.2 1.83,-1.88 -0.53,-1.02 0.63,-0.75 1.14,0.54 1.05,-0.75 z m -32.83,-0.25 0.56,3 -1.69,-0.93 -1.62,-3.24 1.21,-0.85 1.08,0.74 0.46,1.28 z m -74.41,-9.59 -1.74,1.46 -0.14,-1.34 2.99,-2.46 1.27,-0.06 -0.17,1.39 -2.21,1.01 z m 121.77,-6.99 -2.59,6.03 -2.63,-1.61 -1.65,-0.1 -0.94,-1.48 2.43,-0.48 1.62,-2.08 1.05,-0.45 1.38,-0.4 1.43,0.11 -0.1,0.46 z m 5.93,3.71 1.38,1.94 3.72,1.8 9.94,0.11 4.54,1.16 1.99,-0.47 3.72,0.34 8.26,3.64 3.49,6.51 0.75,3.75 0.02,1.65 -1.62,2.88 -4.41,0.68 -5.79,-2.08 -0.82,-0.87 -5.94,-1.55 -4.57,-0.75 -3.62,0.22 -5.99,2.64 -4.64,3.77 -5.31,6.4 -1.43,3.02 -3.71,4.08 -3.68,0.73 -5.34,-0.72 -2.34,-4.28 0.83,-0.13 0.52,0.5 -0.34,0.29 1.38,0.21 -0.03,-0.91 1,0.1 -0.18,-0.39 -5.47,-0.41 -14.6,-4.74 -1.25,-2.74 0.31,-1.97 -1.77,-1.83 0.19,-1.25 1.16,-0.62 0.6,0.49 0.01,2.47 0.68,1.64 1,0.15 -0.13,0.79 1.65,0.34 1.57,-1.37 5.16,0.02 2.64,2.92 -1.77,3.96 0.8,-0.42 0.33,0.73 2.84,0.81 2.5,-0.97 -0.89,-1.7 -0.9,-0.23 1.38,-3.76 3.77,-2.48 -2.27,-0.94 -0.83,-0.95 -0.35,-1.78 3.32,-1.71 -0.02,-0.74 2.48,-0.77 2.52,0.96 0.32,-0.73 -1.89,-2.24 -0.39,-1.59 4.14,1.44 0.77,0.71 -0.04,1.7 0.58,0.97 3.62,-2.04 2.97,-0.73 0.84,-0.99 2.32,-0.33 1,0.85 -1.27,1.85 -0.37,1.84 -0.77,0.39 0.95,0.49 0.92,-0.77 1.48,-0.17 2.9,-3.3 5.46,-1.42 0.4,-0.32 -1.26,-0.38 -4.69,0.74 -1.04,-0.56 -0.53,-0.23 -2.02,1.5 -0.78,-0.87 -1.26,-3.34 1.62,-2.52 0.04,-1.5 -2.08,-3.56 -1.02,-0.59 0.23,-0.56 -1.16,-1.04 -0.91,0.17 -0.12,0.66 -1.35,-0.3 -0.57,-1.21 0.38,-1.6 2.52,-1.27 1.19,-1.6 1.27,1.03 1.16,3.25 z m -0.82,-5.38 -0.5,0.13 -0.18,-1.17 -1.33,-1.29 -0.03,-1.52 -1.05,-0.93 0.99,0.17 0.91,1.15 -0.39,0.32 1.44,0.83 0.14,2.31 z m -21.07,-15.85 -1.78,0.95 -1.88,-0.49 1.74,-0.6 1.92,0.14 z m -54.43,-1.5 -1.53,3.31 -0.62,-3.03 1.02,-2.7 0.42,0.25 -0.42,0.94 1.13,1.23 z m -76.22,-8.06 0.34,0.96 -2.3,2.02 -1.7,4.42 -2.38,-4.78 3.53,-2.93 0.58,0.41 2.2,-1.53 -0.27,1.43 z m 69.54,-2.19 -0.03,4.22 2.08,1.24 0.74,1.32 0.5,-0.12 0.98,0.78 0.21,1.04 -0.63,0.1 -3.52,-3.63 -2.89,-0.93 -1.92,-3.11 0.75,-0.44 1.57,0.9 1.27,-1.36 0.89,-0.01 z m -28.06,-3.08 -0.78,-0.02 0.73,-1.18 1.61,-0.39 0.23,0.42 -1.79,1.17 z m 33.78,2.1 -0.77,2.85 -1.41,-0.65 -2.12,0.61 -0.4,-0.84 0.86,-3.15 1.15,-1.39 0.11,-1.88 0.67,-0.17 1.2,1.17 2.3,0.6 -1.59,2.85 z m -73.45,-13.73 -1.06,0.85 -0.6,-0.55 -0.34,0.77 0.52,-0.13 -0.32,1.24 2.28,2.2 0.56,3.22 1.27,2.67 -0.38,0.91 -0.94,-0.43 -0.07,0.56 1.82,1.17 1.36,-2.19 -0.5,2.95 -0.61,0.53 -5.13,-3.59 -0.54,-7.8 0.65,-2.67 -0.84,-1.6 0.54,-0.59 1.52,0.9 0.81,1.58 z m -27.84,-24.13 -1.76,1.27 2.25,-0.27 -6.59,2.59 3.83,-3.49 2.28,-0.53 -0.01,0.43 z m 189.24,-62.66 0.92,0.81 0,0 -1.25,0.76 -0.33,-0.72 0.27,-0.47 0.39,-0.38 z m -145.9,-42.16 0.56,1 -1.88,-1.24 -1.74,-3.8 0.65,-2.52 1.44,1.45 -0.69,1.3 1.96,2.22 -0.3,1.59 z m 75.23,-3.22 -0.18,2 -1.51,3.12 0.37,1.22 -2.98,1.62 -1.71,-1.87 -1.36,-0.11 -2.43,-5.95 0.64,-0.74 1.48,-0.02 1.12,-1.67 1.2,1.84 1.27,0.56 1.5,-3.9 -0.82,-1.76 0.8,-0.86 2.05,3.06 0.56,3.46 z m -94.05,-25.7 3.45,3.97 3.08,1.71 0.47,2.29 -1.55,-1.65 -6.84,-2.25 -1.68,-1.36 -3.87,-5.06 -4.33,-1.97 -0.8,-3.64 5.11,1.85 0.98,2.1 3.25,1.61 2.73,2.4 z m 25.37,-22.51 4.58,2.77 5.06,1.33 8.77,0.34 5.5,2.25 9.59,-2.57 2.35,3.93 3.24,1.66 2.51,-0.04 6.88,-2.16 2.7,-1.47 3.47,-3.15 4.48,-2.5 1.94,4.87 0.21,2.02 -0.54,0.23 -0.02,-1.13 -1.2,-0.23 -3.45,3.23 -0.84,4.02 0.67,2.92 -0.23,1.8 -2.49,1.51 -3.17,-1.19 -0.52,-2.24 -1.43,-0.44 -1.19,0.73 -1.25,-0.83 -0.76,0.67 -1.11,4.22 0.36,3.43 3.21,1.71 2.39,3.24 0.69,2.44 2.39,3.66 0.32,3.84 -2.58,3.61 -0.57,-1.08 -6.54,-1.89 -2.02,2.38 0.98,1.18 -1.21,0.51 -0.05,1.79 -4.91,2.4 -0.17,1.16 2.93,2.02 2.76,-0.3 2.44,-0.66 1.86,-2.02 1.63,-0.37 1.24,-1.26 2.6,-0.22 1.45,-1.25 1.65,1.79 0.72,3.72 1.59,2.11 -1.08,0.65 -0.48,-1.93 -1.13,1.74 0.91,1.62 3.04,1.45 0.03,1.63 -0.91,-0.18 -2,1.53 -2.23,-0.12 -1.57,0.85 -8.19,0.45 -1.43,0.78 0.72,1.45 -0.67,0.15 0,0.81 1.54,0.36 0.1,0.91 5.79,-0.85 0.99,-0.65 1.16,0.5 0.81,-0.12 1.35,0.1 1.72,-0.75 2.77,0.61 0.74,-1.37 -1.47,-0.75 -0.05,-0.63 0.41,-0.34 0.71,0.6 1.61,1.78 1.31,2.75 -0.12,3.2 0.76,0.58 0.8,-0.25 0.51,2.64 -0.63,1.04 -1.81,0.31 0,2.57 -1.82,0.66 -1,1.87 0.25,0.6 1.59,0.01 1.04,-0.37 1.25,-0.75 0.61,0.65 1.02,-1.15 0.33,-2.12 2.54,-1.93 0.73,-0.48 0.51,-5.65 2.32,-6.05 1.08,-0.12 1.47,-1.46 0,0 4.05,1.59 3.73,-3.42 6.81,3.72 0,0 -0.09,3.36 -0.79,0.82 -1.5,4.28 -0.67,0.14 -2.19,3.85 -0.73,3.23 -0.73,0.18 -0.37,0.89 -0.39,2.07 0.74,1.45 1.25,-3.32 1.54,-0.7 -0.43,-0.56 0.3,-2.37 6.29,-0.64 -0.88,-1.24 -0.04,-1.66 -1.41,-0.81 1.54,-1.13 -0.05,-2.15 0.51,1 1.82,-0.63 -1.54,2.46 0.4,0.59 0.85,0.37 1.1,-1.26 0.78,0.76 1.63,-0.44 1.75,1.17 -0.39,1.3 0.97,0.05 0.64,0.82 -0.32,0.82 -1.85,-1.11 -1.82,0.46 -1.33,-1.51 -2.2,-0.63 -0.28,1 1.24,0.03 0.92,2.87 -0.68,1.41 1.31,-0.8 0.8,0.04 0.4,0.81 0.79,-0.16 0.64,-0.75 0.94,0.82 0.44,-1.08 1.8,-0.23 -0.18,1.19 0.64,0.5 -0.78,0.83 -0.02,1.47 1.96,0.46 1.37,1.35 0.8,-1.01 0.68,-3.93 -1.23,0.12 -1.18,-1.17 -0.42,-1.37 1.18,-2.1 0.88,-0.29 0.92,1.32 0.45,-2.07 -1.81,0.38 0.17,-0.75 0.41,-0.55 1.73,0.19 1.48,-1.74 0.59,-1.53 -1.66,-0.34 0,-2.1 1.32,-0.52 -0.5,-0.61 1.45,-0.6 0.16,-0.61 -0.36,-0.47 -1.53,0.12 0.43,-0.65 -1.87,-2.61 0.83,-1.64 -0.08,-1.41 -2.12,-2.42 0.56,-3.69 0,0 2.68,1.51 2.74,3.17 2.93,1.32 2.4,2.34 5.77,-0.91 2.56,2.58 -0.63,0.2 -1.14,3.08 5.03,4.51 -5.36,5.19 -3.67,-0.25 -4.85,4.22 1.07,5.32 -0.14,3.76 1.34,-0.07 -0.99,5.23 6.89,2.02 0.79,-3.21 2.75,-0.83 1.11,1.75 4.58,-2.01 1.35,1.23 7.09,2.26 2.5,2.34 0,0 -0.82,1.19 0.35,0.65 -7.73,4.01 -1.34,1.34 -3.08,2.47 -3.3,4.03 -3.32,8.79 -3.13,9.24 0.8,2.7 -0.27,0.78 -0.28,0.72 0.7,2.42 2.18,3.31 1.56,1.07 10.46,5.46 8.6,0.88 7.11,6.79 3.91,5.18 0.33,3.15 1.01,0.97 -1.3,3.95 0.35,3.53 1.03,1.57 -0.36,2.15 -1.04,1.92 -1.62,0.76 -2.66,3.24 -2.07,0.87 -0.46,0.74 -1.43,-0.44 -0.95,0.66 -1.18,-0.34 -2.18,4.38 -1.79,-0.57 -6,0.02 -3.4,-0.9 -5.46,1.61 -4.03,2.59 -1.65,0.11 -3.64,2.92 -0.22,-0.58 -0.63,0.1 -3.32,5.33 -3.05,2.26 -0.85,1.82 -0.24,3.62 0.81,4.72 -1.92,1.54 -1.74,0.19 -1.13,-1.15 0.96,-3.71 -0.1,-2.2 1.67,-2.87 -0.66,-0.61 -4.14,0.47 -4.35,2.12 -2.62,4.31 0.03,0.64 1,0.64 1.83,-0.02 0.56,0.62 0.64,1.67 -0.85,1.55 0.19,1.18 1.67,-0.77 0.57,0.31 -0.46,0.55 1.03,0.48 1.66,-2.36 2.52,0.06 0.6,0.54 -0.58,1.23 2.13,-0.15 0.36,-0.87 1.35,0.65 1.71,-0.6 -0.41,-1.08 0.99,-0.11 4.83,1.75 2.22,2.38 -0.11,2.21 -0.76,0.17 -0.62,1.35 -0.01,2.77 -2.21,2.74 -2.65,-1.58 -1.67,0.93 -0.37,-1.32 -1.04,-0.47 -0.43,-0.56 -1.4,-0.59 0.49,1.58 1.78,0.18 0.48,1.43 -0.55,0.55 1.44,0.35 -1.55,1.36 0.94,0.05 0.24,1.97 0.99,1.02 -0.43,1.95 2.27,0.45 -0.67,1.82 4.42,8.3 -0.28,2.42 -0.57,-0.52 -2.43,0.04 -0.9,0.67 -2.69,-0.45 -1.74,1.09 -0.71,1.49 -1.28,0.58 -2.39,2.69 -3.48,1.95 -3.69,-0.04 -6.55,-3.35 -2.29,-2.26 -1.05,-2.55 -5.74,-2 -0.62,0.45 1.34,0.59 0.14,1.31 -2.95,0.18 -1.84,-1.86 -2.81,-1.28 -1.5,-1.92 -3.29,-2.06 -2.72,-3.29 -4.85,-2.4 -6.16,-1.75 -4.24,-2.03 -2.68,-2.04 -7.49,-2.01 -0.8,-0.74 1.88,0.1 12.34,4.11 3.36,0.33 10.84,5.53 1.06,-1.26 -0.51,-1.72 -2.4,-2.78 -0.38,-1.58 -3.93,-2.23 -0.86,-1.31 -1,0.7 0.49,1.17 1.11,0.71 -2.5,-0.2 -1.73,-2.65 1.14,0.03 0.86,-1.57 -0.9,0.65 -1.8,-0.44 -3.22,-4.8 -0.05,-2.73 0.67,-1.03 0.96,0.81 -0.45,1.3 2.93,-0.28 1.46,0.62 0.72,-0.64 0.46,-1.87 1.39,-0.84 4.02,0.91 1.23,-0.54 0.19,-0.96 -1.07,-3.6 -1.19,-0.04 -0.86,-0.89 -0.83,0.05 -0.59,1.43 -0.83,0.21 -1.12,-0.76 0.28,-1.55 -2.87,0.61 -1.53,-0.57 -1.06,0.95 -2.31,-0.96 -0.46,-0.66 0.22,-2.48 3.89,-2.69 -0.63,-1.04 -1.53,0.77 -0.5,-0.07 0.06,-0.59 2.89,-3.31 -1.28,0.18 -0.59,-1.06 -2.58,-1.81 -3.74,0.54 -4.33,4.5 0.16,1.6 -2.29,1.21 -1.27,-1.31 -1.53,-0.12 -3.07,-1.87 -2.28,0.48 -1.27,-0.61 -2.78,0.1 -3.23,-1.56 -3.39,-0.76 -1.44,0.53 -0.62,-1.78 -1.53,-0.48 -1.41,0.57 0.13,-1.27 -1.57,-1.62 -1.22,0.68 -1.31,-1.15 -1.15,-0.15 -0.89,2.11 -1.24,0.98 0.38,0.81 1.02,-0.19 0.35,-0.68 2.34,0.43 0.79,0.61 -0.37,0.81 1.08,0.64 0.15,1.94 -3.04,0.6 -4.15,-1.15 -2.38,0.28 1.12,-1.64 0.78,0.96 0.54,-0.49 1.7,1.21 0.71,-0.2 -0.78,-0.49 -0.48,-3.44 -2.18,-0.62 -2.58,2.43 -1.38,0.24 -0.99,-0.62 -1.27,-2.23 -1.47,0.92 0,1.03 -0.66,0.37 -0.89,-2.26 -1.93,0.05 -0.65,2.18 0.65,1.13 -0.91,0.2 -2,0.5 -1.93,-1.86 -3.29,-0.22 -1.22,-0.95 -0.64,-0.66 0.83,-0.28 -1.77,-2.29 0.13,-0.51 1.81,-0.49 -2.44,-5.13 0.79,-0.58 1.12,0.53 -0.06,0.85 3.27,0.59 0.66,0.91 0.79,-0.39 1.03,-3.74 0.51,-0.92 0.8,-0.13 1.16,-2.83 -0.67,-2.84 -1.41,0.35 -0.58,0.97 -0.47,4.06 1.04,0.79 -2.46,1.65 -0.9,1.97 -1.24,-1.99 -0.83,-0.35 -0.75,0.53 -1.06,-0.85 0.82,-3.2 -1.09,-2.52 -0.3,-3.15 -4.8,-3.26 -3.54,-1.49 -3.32,-3.57 -2.82,-1.35 -0.17,-1.57 0.89,-0.55 0.62,0.96 1.81,0.22 0.18,0.54 2.23,-0.17 1.27,0.81 1.16,-0.32 0.35,-1.24 2.06,-1.15 0.28,-1.48 -0.42,-0.61 -1.09,-0.24 -2.21,-1.97 -2.13,-0.07 -1.18,1.03 0.66,1.05 -0.48,1.14 0.75,0.73 -3.09,1.61 -0.5,-1.3 -1.87,-0.15 -2.01,-2.64 -2.31,0.35 0.22,-1.25 2.71,-4.41 0.87,1.31 4.26,-0.68 3.66,-2.92 3.43,-0.74 1.64,-2.37 0.18,-1.27 -0.23,-1.32 -2.55,-3.69 1.29,-6.25 -0.49,-2.41 -3.21,-5.39 0.06,-3.24 -0.6,-1.87 -4.49,-4.5 -0.65,-1.9 -1.32,-0.72 -0.54,-1.59 -1.08,1.04 0.35,1.48 0.86,-0.28 -1.55,2.72 -2.54,0.37 -1.94,-1.03 1.27,-4.75 0.82,-0.4 1.21,0.6 1.49,-0.81 3.5,0.12 -0.16,0.58 0.75,0.49 1.13,-0.61 0.42,-0.94 -1.81,0.82 -0.11,-0.54 1.49,-2.37 0.68,-2.44 -1,-6.93 -2.85,-6.62 -2.65,-2.77 -9.88,-6.28 -4.19,-1.31 -9.03,-1.01 -1.42,-1.11 -0.14,-1.66 1.16,-0.85 2.52,0.54 0.78,0.8 3.13,0.32 1.6,-0.54 8.09,1.85 1.74,0.05 2.03,-1 0.39,1.02 0.54,-0.79 1.49,-0.29 0.25,-0.8 -0.63,0.27 -1.31,-0.65 0.18,-0.54 0.99,0.23 -0.07,-0.49 0.76,-0.01 -0.15,-0.59 -0.77,0.36 -3.44,-1.35 1.14,2.45 -0.47,0.08 -2.1,-3.09 -5.11,-3.78 -4.1,-6.35 -1.43,-0.76 -2.19,-0.59 -5.52,0.66 -2.67,-0.49 -3.31,-1.53 -2.28,-1.94 3.88,-0.15 6.7,-1.92 5.72,1.22 2.88,1.14 1.19,1.17 4.19,1.3 4.83,-0.83 3.75,-1.94 2.7,-2.23 2.56,-0.29 1.91,0.56 2.48,-0.83 0.35,1.52 -0.54,0.26 2.79,3.77 2.19,-0.15 0.9,-1.76 -0.57,-1.23 1.05,-0.74 0.75,1.26 3.98,3.16 1.83,-0.45 2.2,-1.99 0.77,-3.38 0.71,-0.18 0.99,2.8 0.82,-2.75 2.65,0.16 2.85,-1.03 2.94,-2.64 0.92,-2.38 0.75,-2.71 -0.91,-2.2 0.14,-6.09 -0.56,-2.61 -1.19,-2.04 -1.36,0.26 0.38,-0.74 0.77,-0.48 1.6,1.3 0.33,1.09 2.32,1.29 1.82,-0.58 5.64,-3.56 3.24,-0.3 1.7,0.72 1.21,-0.28 3.29,-4.48 1.27,-4.6 -0.25,-2.94 0.43,-5.12 -1.32,-3.79 -7.65,-4.25 -11.73,-1 -5.64,-3.96 -3.62,-1.48 -1.62,0.02 -1.24,-2.11 -1.61,-6.61 3.57,5.29 6.19,2.2 z"
		id="sjælland"
		name="Sjælland"
	/>
  <path
		d="m 353.1175,710.15261 -0.44,1.84 -1.55,1.36 -0.7,-0.25 -1.12,-2.24 0.29,-0.4 -0.92,-0.92 -0.3,-2.24 3.63,-0.91 0.78,0.64 -0.45,1.41 0.78,1.71 z m -18.82,-3.7 0.31,0.96 -2.34,-0.64 0.89,-1.85 1.14,1.53 z m 1.84,-4.07 1.22,1.85 -1.8,0.18 -0.43,-1.8 0.72,-1.05 0.29,0.82 z m 22.57,-6.13 1.97,0.53 0.78,-0.45 1.81,0.75 0.52,1.99 -1.58,0.01 -0.6,-1.22 -0.89,0.07 -0.29,-0.88 -1.8,-0.2 0.08,-0.6 z m -23.33,-1.41 -1.03,1.81 -0.66,0.12 -1.22,-2.05 1.86,0.29 0.87,-0.63 0.18,0.46 z m -40.34,-1.25 2.29,0.62 0.35,2.17 4,4.08 4.01,0.81 5.79,5.97 1.67,3.54 3.83,1.27 0.94,2.45 1.76,-0.47 3.22,-4 -0.68,-1.15 -1.59,-0.69 -0.13,-0.8 0.76,0.04 2.55,2.82 -0.18,1.05 -0.69,-0.2 -0.29,0.5 1.23,1.51 0.81,3.23 2.26,2.54 1.65,1.02 1.37,-1.16 0.48,-1.98 2.84,2.71 0.59,-0.41 -1.18,-0.97 0.01,-0.81 -2.31,-3.05 -1.63,-0.85 0.07,-0.67 2.91,-0.3 -1.79,0.55 -0.03,0.69 1.93,0.3 6.86,7.02 0.29,2.28 -0.44,0.87 1.75,-0.47 -0.85,-0.73 -0.09,-1.13 1.54,1.81 -1.79,0.71 -9.22,1.12 -1.96,1.18 -0.87,0.96 -0.33,1.9 -1.9,1.45 -3.11,-2.89 -3.54,-2.1 -4.07,-4.61 -3.19,-4.83 -4.49,-2.91 -5.74,-7.3 -1.01,-5.44 -3.81,-3.94 -0.75,-1.29 -0.1,-2.02 z m 29.99,-3.03 2.47,3.4 -1.97,1.87 -0.77,-0.02 -4.52,-3.59 -1,0.22 -1.16,1.36 -0.99,-0.22 -0.6,-1.24 1.16,-0.61 0.67,0.35 1.05,-1.01 0.58,0.1 0.06,0.8 2.96,-0.04 0.8,0.94 1.2,0.03 0.56,-0.61 -0.5,-1.73 z m 5.98,-6.65 2.14,0.88 1.42,1.46 -2.13,-0.46 -1.1,1.28 -1.68,-0.2 -0.32,-1.61 1.46,-2.06 0.21,0.71 z m -26.53,-2.7 1.4,0.97 2.12,-0.13 2.46,1.81 2.78,-1.12 0.38,2.57 -1.38,0.34 -2.77,-1.34 -2,-1.92 -5.32,0.03 -2.96,-3.18 0.46,-1.5 1.82,-0.54 2.15,2.17 0.86,1.84 z m 49.41,-7.78 0.8,0.5 -0.38,1.07 1.23,0.82 -0.62,2.09 0.88,0.68 1.65,0.03 0.35,2.21 -0.42,0.85 -1.04,0.25 -1.42,5.26 -0.64,0.91 -0.63,0.06 -0.1,-0.6 -0.75,1.65 1.5,2.1 2.97,0.68 1.66,-1.66 0.49,-2.27 1.74,-0.8 1.16,0.28 -0.7,2.79 0.25,2.7 -0.32,0.6 -0.31,-0.55 -1.98,-0.07 -2.41,0.56 -1.24,1.87 -1.45,0.55 -1.78,3.25 -5.02,-1.78 -1.05,0.17 1.73,1.8 -2.42,-0.32 -2.34,1.34 0.11,-0.91 1.27,-1.08 -0.28,-0.49 -1.75,0.31 0.12,-2.41 -2.86,-2.39 -0.62,-1.25 -0.16,-3.74 0.67,-0.94 -1.7,-0.84 -0.22,-1.94 2.41,0.02 1.65,-2.33 3.97,-2.03 1.88,-2.44 1.45,-0.25 1.13,-1.91 2.77,-1.78 -0.65,-0.55 1.42,-0.07 z m 9.66,-0.14 0.99,0.63 1.29,5.69 -1.06,-0.04 -1.04,-0.9 -2.78,0.99 -1.94,-0.18 0.38,-1.75 2.96,-0.11 1.16,-0.83 -4.29,-0.19 -2.34,1.07 -0.34,-0.3 -0.42,-2.38 0.83,-0.72 2.38,0.44 4.22,-1.42 z m -74.86,1.53 2.04,0.5 0.75,1.3 -1.36,1.47 -3.22,0.99 -1.35,-0.62 -1.55,-2.56 -0.15,-2.24 2.15,-1.54 -0.11,1.92 2.8,0.78 z m 14.73,-1.5 0.12,0.48 -1.67,-0.56 -2.06,-1.7 -0.82,-1.26 0.26,-0.74 3.16,2.19 1.01,1.59 z m -58.9,1.53 1.69,0.72 1.17,2.28 2.26,2.41 2.77,1.65 3.96,0.31 3.18,1.4 2.24,1.69 2.12,2.94 0.57,0.48 1.62,1.78 4.08,8.31 2.51,4.41 0.08,3.01 0.64,2.37 1.27,2.88 1.06,0.87 0.72,3.99 -0.94,0.87 -3.95,-0.4 -2.02,0.63 -4.53,4.79 -6.41,-0.3 -4.63,-2.55 -2.5,-0.16 -3.2,-2.9 0.18,-0.69 4.26,-4.02 2.4,3.04 1.48,0.24 3.35,2.12 0.32,1.4 2.33,0.17 2.57,2.78 1.08,-1.01 -1.29,-3.15 -1.22,-1.38 -3.51,-2.3 -0.7,-1.04 -4.26,-1.69 -1.23,-1.41 -2.42,-0.51 -0.78,0.33 -0.88,1.82 -1.16,-0.26 -5.47,2.63 -4.96,-2.01 -1.78,-2.08 0.29,-1.08 -0.5,-1.14 -1.69,-0.75 0.03,-1.94 -0.89,-1.79 0.27,-2.26 -0.82,-6.65 -1.13,-1.56 1.2,-1.18 1.89,2.89 2.74,0.83 3.74,6.12 1.31,0.94 -0.84,0.93 1.55,0.06 0.69,-0.33 4.68,-1.8 -0.07,-0.47 -2.7,0.61 -2.51,-1.55 2.9,-1.09 -0.22,-0.48 -2.02,0.35 -1.06,-0.82 1.41,-2.19 1.31,0.3 0.48,-0.47 -0.46,-0.65 -0.94,0.2 -3.17,-2.61 -5.25,-0.8 -0.53,-1.25 0.48,-0.86 2.59,-1.17 -3.18,0.77 -0.6,-0.61 0.11,-0.93 2.14,-0.88 0.27,-1.6 -3.88,-0.29 -9.07,1.07 -3.15,-1.98 -1.25,-1.46 -0.93,-0.07 -0.12,-1.77 3.48,-0.91 1.53,-1.4 1.15,0.37 -0.1,1.21 1.92,0.1 -1.53,-1.48 0.32,-0.3 -1.62,-0.16 1.22,-0.6 -0.08,-0.7 -1.34,0.11 0.04,0.51 -1.44,0.93 0.46,0.72 -1.36,0.04 -2.52,-0.93 -2.46,-0.01 -0.74,-1.32 0.06,-1.61 1.81,-0.86 2.09,-2.67 4.45,-2.81 6.18,-1.52 3.32,0.75 6.72,3.9 3.27,3.59 z m -37.22,-15.38 -0.64,0.59 -1.95,0.03 -0.11,-1.89 -0.85,-0.29 -0.11,-1.12 0.61,-1.46 1.71,0.26 1.36,1.98 -0.02,1.9 z m 191.51,-7.96 -2.76,15.39 -5.45,18.06 -0.21,3.1 -5.12,6.55 -3.79,8.49 -0.5,3.67 -1.27,1.95 -0.4,5.54 -5.32,13.54 -0.24,2.48 -2.75,7.58 -2.61,10.44 -2.65,3.87 -3.1,1.32 -1.11,-0.43 -2.57,-3.89 0.38,-0.48 -0.51,-1.65 1.12,-0.76 0.14,-1.45 -2.19,-5.16 -0.22,-4.24 -3.17,-4.92 -4.55,-2.99 -0.96,-2.02 0.52,-0.07 0.19,0.73 2.96,0.19 1.65,1.27 0.43,-0.72 0.65,0.11 -0.04,0.76 0.8,-0.24 1.74,-3.81 1.37,-0.38 -0.9,-0.88 1.12,-7.27 1.52,-0.2 0.49,1.89 2.22,1.05 0.52,-1.52 3.04,-0.24 -1.5,-1.61 -0.18,-1.01 -0.58,-1.14 -0.61,-0.88 -0.05,-2.44 -1.25,2.44 -1.58,-0.91 -0.86,0.69 -0.68,-2.94 1.02,-0.82 0.44,-2.37 1.88,-1.8 0.64,-1.77 1.6,-1 0.59,-0.69 0.59,-2.11 4.46,-5.18 1.5,-0.75 0.36,-0.93 2.52,0.28 2.9,-3.14 0.58,-2.03 1.49,-1.87 0.46,-2.33 2.68,-3.34 0.31,-2.56 1.77,-3.61 2.05,-10.15 3.09,-5.66 0.38,-3.13 2.68,-2.5 1.38,-2.75 1.23,-1.06 1.74,1.4 0.48,3.01 z m -165.87,-30.48 0.67,4.01 0.34,-0.07 0.81,-1.04 -1.08,-0.49 0.12,-0.78 0.72,0.17 1.47,-1.13 -0.4,1.7 -2.37,3.12 -2.78,0.09 -1.92,-2.33 1.03,-0.73 -0.84,-1.91 2.76,-1.04 1.47,0.43 z m 8.75,-13.27 1.39,4.01 -0.34,2.32 -4.01,1.34 -0.51,-0.72 0.06,-2.9 -0.74,-1.39 0.8,-2.39 2.05,1.69 0.18,-0.92 -0.85,-0.14 1.97,-0.9 z m -14.7,-6.82 -1.88,0.98 -1.81,-1.43 1.44,-1.61 1.64,-0.25 1.65,1.78 -1.04,0.53 z m -189.430001,-25.19 0.78,1.25 0.61,-2.03 2.29,-1.83 3.22,0.22 2.03,0.92 -0.54,7.21 0.73,1.4 1.36,1.06 1.69,-2.71 0.99,-0.42 2.02,1.38 -0.14,1.23 1.77,5.15 -2.6,2.78 0.19,1.23 2.55,2.99 0.8,5.28 1.35,-0.19 -1.56,3.26 0.43,0.88 -3.24,-0.49 -3.5,-2.72 -7,-15.41 -3.24,-4.11 -2.83,-1.99 -0.44,-4.17 4.2,-2.96 -1.92,2.79 z m 294.690001,-1.87 -2.5,0.83 -0.21,-0.95 0.11,-1.65 1.1,-1.25 1.43,-0.4 -1.12,1.79 1.19,1.63 z m -106.96,-2.05 -1.78,-0.37 -0.29,-1.45 -1.52,-2.21 0.53,-2.24 1.77,0.64 1.65,2.77 1.52,0.27 0.17,1.62 -2.05,0.97 z m 125.97,-24.77 -0.48,0.05 -0.27,-1.49 0.4,-1.02 0.35,2.46 z m 0.23,-5.31 0.3,2.26 1.02,0.12 -0.75,0.36 0.2,1.21 -1.27,-2.19 0.5,-1.76 z m -2.6,-3.18 0.8,0.42 2.03,-0.28 0.32,-1.98 -1.35,0.25 -0.34,1.05 -0.15,-0.65 -0.71,0.24 0.44,-0.62 2.14,-0.49 0.89,1.19 6.61,11.21 1.45,3.65 3.17,3.68 -0.33,2.73 1.48,4.14 1.07,1.71 2.49,2.08 1.38,3.25 -0.23,1.18 -1.43,0.68 -1.7,0.17 -1.67,-0.58 -5.45,2.85 -1.1,1.93 0.03,1.3 -1.77,0.94 -0.94,-1.04 -1.69,-0.32 -0.18,1.02 0.47,0.27 -1.24,0.26 -1.69,-0.77 -1.02,-1.75 -3.58,-1.4 -0.09,0.88 -3.69,1.09 0.57,1.18 -0.45,1.01 -1.59,-0.14 0.13,1.05 3.8,4.56 0.64,0.09 0.93,-1.42 -1.12,-5.46 1.78,-1.65 2.49,1.22 0.02,1.06 2.6,0.89 1.98,1.49 1.27,-1.13 1.08,0.12 0.34,-1.12 1.17,-0.77 0.12,0.79 2.78,2.41 1.89,3.07 1.62,1.73 1.66,0.48 2.33,4.1 2.89,2.53 1.65,3.88 2.25,3.13 3.85,11.82 2.91,2.52 1.73,-0.02 -0.06,0.47 -1.24,0.24 1.16,1.33 -0.22,0.69 -3.43,0.95 -0.41,-0.27 0.42,-0.57 0.56,0.29 0.24,-0.41 -0.91,-0.81 0.27,-0.87 -1.08,-0.71 -0.51,0.85 -0.19,-0.8 -0.85,-0.14 -0.32,-0.87 -1.1,-0.65 -0.48,0.37 -1.05,-0.53 0.38,1.92 -0.62,-0.55 -0.88,0.89 -2.73,-0.4 -1.49,0.78 4.57,-0.05 1.09,1.01 0.49,1.07 -0.59,3.38 3.82,10.14 -0.84,2.74 0.44,3.26 -0.77,6.21 -2.13,4.11 -0.1,2.04 -0.93,2.09 0.2,1.9 -0.89,1.61 -0.03,2.75 -1.07,2.58 0.62,2.1 -1.43,0.18 -1.18,1.05 -0.77,4.38 -1.04,2.26 -2.78,1.04 -2.52,1.84 0.18,-1.02 -2.36,-0.62 -0.73,1.34 -2.26,-0.13 -0.55,0.56 -0.88,-0.44 -2.12,0.73 -0.82,-1.14 -1.76,0.07 -1.2,-0.69 -0.17,2.06 -1.07,0.3 -1.1,1.25 -9.42,3.66 -1.85,1.36 -3.8,-1.12 -1.18,-1.94 -1.33,-0.74 -1.72,0.53 -4.99,-0.37 -0.97,0.52 -4.03,-2.29 0.35,-1.22 -2.02,-2.69 -0.85,0.29 0.3,1.16 -2.15,2.06 -1.18,-0.19 -0.08,-0.55 -1.86,0.35 -1.64,-0.43 -0.18,-2.07 -2.92,-0.94 -0.29,-1.16 -1.53,-1.11 -0.11,-1.01 -1.35,-1.05 -1.97,-0.32 -1.96,-1.67 -0.95,-0.04 -0.87,-0.79 0.38,-0.44 -0.93,-0.73 -2.74,1.69 2.01,1.36 0.85,2.64 -0.69,1.13 -1.35,0.49 -0.21,1.18 -1.5,-0.14 0.02,0.76 1.99,-0.2 -1.44,1.14 -1.08,-0.79 -0.25,-1.72 -1.58,-2.19 -3.43,-0.2 -4.13,-2.52 -7.73,3.46 -0.69,-2.53 1.58,-2.99 0.26,-1.85 0.77,-0.54 0.74,0.67 1.37,-0.14 1.76,-2.34 1.66,-0.64 0.94,0.24 0.51,-0.91 0.93,0.29 -0.01,-0.78 1.63,0.42 2.39,-1.56 -1.64,-0.96 -2.65,-5.13 -0.69,0.38 -0.57,-0.52 -0.21,-2.96 -1.85,-2.39 -0.98,-3.21 -0.8,-0.12 -0.93,1.7 -0.83,-0.38 -1.21,2.02 -5.19,-0.27 -3.99,-1.04 -0.17,-3.37 -3.29,-1.55 -0.64,0.71 1.12,1.65 0.72,0.47 -0.97,1.58 -0.9,-0.59 -0.44,2.56 1.3,-0.98 -0.48,1.53 0.79,1.82 2.02,1.37 4.42,6.43 -1.34,2.3 -1.34,0.86 -2.78,-0.67 -3.6,-2.29 -0.19,-0.6 1.45,-1.43 0.47,-1.52 -1.28,-4.8 0.86,-8.36 -0.39,-1.26 -1.04,-1.64 -1.64,-1.17 -5.23,-0.13 -0.92,-2.34 -1.84,-1.88 -3.62,-2.22 -0.43,0.59 -1.69,-2.08 0.91,-0.45 0.65,0.81 1.54,0.23 -0.83,0.68 1.21,0.55 0.18,-0.21 0.82,-1.59 -0.43,-1.06 -1.49,-0.79 -0.55,-1.64 0.56,0.09 0.64,-0.8 0.48,-8.87 -0.79,-3.54 -1.37,-2.88 0.14,-1.78 1.21,0.68 1.03,0.38 0.56,-1.11 -2.44,-0.9 -0.97,-1.87 0.18,-1.41 -1.82,1.46 -3.05,0.15 -7.38,-3.22 0.41,-2.78 4.06,-0.38 1.73,-0.67 1.19,-1.26 0.08,-1.69 -2.34,-2.73 -1.21,-1.07 -3.67,-0.96 1.38,-1.13 2.47,0.91 1.14,-0.36 0.46,-1.15 -0.28,-1.3 -4.74,-2.15 -2.56,0.21 -4.04,-0.87 -0.47,-0.65 0.87,-1.99 -3.01,-3.34 -1.12,-2.25 0.77,-1.2 0.81,1.78 3.74,3.13 1.25,0.39 0.42,1.4 2.35,1.57 3.97,1.74 1.69,-0.61 -0.77,-1.4 -1.8,-0.8 -0.38,-1.56 -1.09,0.22 -1.91,-1.26 0.02,-0.65 -0.75,-0.02 0.48,-1.11 0.92,0.87 1.32,0.1 -0.91,-1.59 -0.89,0.19 -0.88,-1.3 -2.61,0.6 -2.3,-1.5 -1.71,-4.75 -3.84,-0.41 -0.58,-1.49 -2.22,-1.53 -0.46,-2.15 0.91,-0.74 1.75,0.16 3.54,2.41 3.15,0.42 1.39,-1.22 1.91,-4.67 -1.8,-2.98 3.75,0 3.17,-2.27 3.87,-0.65 1.93,1.02 0.51,1.27 -0.38,4.96 2.26,2.81 7.04,1.07 3.2,-0.63 7.93,-6.46 3.66,-1.91 1.74,-2.64 5.19,-1.15 1.01,-1.23 0.63,-0.45 2.8,-1.4 2.5,-0.63 1.96,-0.05 2.21,-1.65 3.41,-1.3 2.11,0.14 0.3,-0.44 -0.98,-1.51 1.13,0.22 0.69,1.04 1.15,-2.15 3.17,-1.07 7.4,-1.16 0.98,0.62 -1.53,-0.29 -0.41,0.77 0.86,2.5 -0.85,0.72 0.36,0.44 0.11,0.58 -0.4,0.98 1.7,0.47 0.7,-0.72 2.32,0.01 0.3,-0.93 -1.71,-1.57 0.07,-3.52 -1.7,-2.8 2.72,-0.48 14.36,8.18 4.87,4.94 12.19,9.13 3.15,3.68 -1.07,0.61 -2.19,-2.02 -1.9,-3.51 -3.99,-2.82 -0.63,0.58 0.84,1.63 -1.18,0.27 1.22,1.44 -1.98,-0.63 -0.76,1.04 -0.8,-0.26 -0.11,1.19 1.82,1.45 0.05,2.15 0.94,1.48 1.23,0.36 0.57,1.2 -1.54,1.02 -1.16,-0.57 -0.77,1.32 1.16,0.6 0.28,1.19 -4.37,-1.06 -0.51,0.51 0.06,2.02 -1.5,-0.31 -0.71,2.46 0.66,0.75 -0.88,0.43 -0.43,2.34 0.25,0.77 -1.51,3.26 0.27,0.51 0.83,-0.65 1.5,0.59 1.85,-1.7 2.22,1.36 1.23,-1.5 1.24,-0.51 1,-1.57 -0.85,-1.78 -0.72,0.36 0.24,0.69 -1.17,-0.33 0.21,-1.13 0.62,0.69 0.68,-0.46 -1.15,-2.94 5.55,1.87 1.07,-0.57 1.24,-2.04 1.79,1.21 0.84,-0.11 0.02,-0.87 2.13,-0.44 0.83,-1.34 2.45,-0.43 1.89,1.43 1.74,-2.1 0.34,-0.87 -0.96,-1.33 0.04,-2 -3.97,-2.21 -2.84,-0.74 -0.53,-0.8 0.11,-1.08 1.43,-1.43 1.45,-0.49 1.06,0.38 0.94,2.19 1.63,1.08 1,0.3 0.93,-0.9 0.13,-0.93 -1.56,-1.7 0.33,-3.72 -2.06,-3.23 -0.13,-2.77 -1.18,-3.42 1.04,-2.49 0.31,0.65 -0.42,0.19 -0.74,1.54 1.78,3.76 2.25,2.8 0.77,-1.48 -0.23,-0.62 0.66,-0.29 -1.78,-1.46 0.06,-0.48 1.27,0.12 -0.53,-3.6 -1.06,-1.36 -0.63,-3.17 -0.89,-0.09 -0.39,0.9 -2.6,-2 0.36,-1.82 1.07,1.78 -0.77,0.36 z m -58.86,-8.71 2.82,0.87 0.26,1.46 -1.37,1.68 0.02,3.63 0.8,1.53 -0.7,1.02 -0.62,-1.07 0.29,-4.66 -2.02,-2.39 -0.51,-2.11 1.03,0.04 z m -119.81,-71.29 1.28,0.15 0.53,1.17 1.4,-0.37 0.86,0.88 0.5,-0.68 0,0 0.51,-0.54 0,0 1.37,-0.02 -0.7,-0.38 0,0 -0.01,-0.07 0,0 0.67,-0.33 2.04,1.79 2.97,1.21 0,0 0.45,1.35 -0.41,0.24 10.2,14.1 -2.77,1.99 2.14,0.93 -1.14,3.77 4.99,0.49 -0.06,1.32 2.88,0.07 0.47,4.12 1.81,6.03 2.86,0.51 -0.22,2.54 5.56,-0.36 0.86,-1.62 1.52,2.06 -1.64,2.18 2.39,2.96 3.1,-1.54 3.23,1.09 0.57,-1.4 4.09,2.48 0.42,3.33 -1.73,5.82 0,0 -9.52,1.8 -0.63,-0.62 -2.63,0.74 -1.79,-0.42 -0.29,-0.78 -0.91,-0.33 -0.37,1.12 0.55,0.5 -0.41,1.21 4.37,2.22 7.94,-1.02 1.4,1.05 1.66,-1.2 2.57,2.93 0.34,1.72 2.22,2.62 1.09,-0.34 3.53,1.96 1.21,6.24 0.65,1.61 1.13,0.85 5.44,-0.71 1.11,-0.62 7.35,0.81 -1.7,2.11 -7.27,5.32 -0.69,2.97 -2.8,3.37 -0.27,3.11 -1.7,-0.78 -1.61,0.35 -0.97,-0.35 -0.49,0.39 -0.68,1.44 0.18,2.15 1.71,4.6 -0.23,1.32 -2.31,0.12 -4.05,-1.76 -2.94,-0.56 -4.57,4.54 -1.9,-1.12 -1.18,0.78 -1.35,0.01 -0.42,-2.28 -0.55,0.24 -4.48,-2.12 -0.66,0.84 0.98,1.61 0.68,0.22 0.87,-0.7 0.94,0.16 0,0.46 -1.63,1.4 -2.13,-1.41 -0.62,0.51 3.23,1.24 0.43,3.1 -1.43,-0.51 -4.41,0.67 -2.7,-0.31 -1.02,-0.8 -4.48,2.69 1.91,0.12 2.5,1.44 1.88,-0.96 5.76,-1.25 1.01,1.36 1.37,0.32 2.32,-2.71 0.97,0.43 2.12,-0.89 9.37,9.19 -0.85,1.71 -4.67,4.25 -2.82,1.47 -2.84,0.12 -1.95,0.9 -0.79,1.84 2.82,5.57 1.17,1.03 0.05,1.22 -0.93,3.51 -1.88,2.74 -0.34,-1.28 -1.17,-1.15 -2.43,-0.83 -1.29,0.55 0.72,0.21 0.84,2.17 1.06,0.42 1.09,-0.33 0.31,0.49 0.67,-0.39 0.41,1.09 3.24,0.13 3.15,3.54 0.44,3.54 -2.49,3.6 1.45,-0.08 4.06,6.65 -0.75,-0.57 -2.12,0.35 -1.5,-1.05 -1.66,0.25 -2.39,3.75 -3.76,0.98 -0.15,2.78 -1.52,0.15 -0.98,1.62 -0.13,0.71 0.62,0.21 0.39,-1.17 2.54,-1.26 -0.48,-1.65 0.48,-1.01 3.04,-0.66 2.31,-3.24 1.03,-0.2 1.45,1.15 1.63,-0.65 3.61,3.08 3.94,2.03 0.9,2.75 -0.94,1.88 0.51,1.33 -2.5,2.59 -0.9,1.78 0.69,4.7 -0.36,1.29 -8.87,4.98 -1.16,-1.63 0.7,-1.99 0.72,1.08 -0.43,0.15 0.13,2.04 1.02,0.02 0.25,-0.53 -1.25,-2.81 -5.48,-0.95 -3.89,3.8 -1.93,0.75 -3.04,2.63 -3.74,1.66 -0.28,0.99 0.77,0.79 0.41,3.37 2.06,1.49 -0.11,0.54 -2.83,0.07 -3.39,-1.11 -1.42,1.64 0.2,0.69 0.53,-0.18 -0.11,1.44 -0.82,-0.04 0.08,-0.83 -0.79,1.43 1.23,0.09 1.64,-1.13 0.55,0.92 1.25,-1.14 0.85,0.13 1.35,1.93 1.79,0.35 1.88,2.28 0.8,1.98 1.62,0.55 -0.06,3.43 -6.93,7.26 -0.65,-0.58 -4.06,-0.15 -0.83,1.03 -2.54,0.8 -1.85,-0.5 -0.31,-0.98 0.16,1.02 -0.62,0.19 0.63,0.08 -0.61,0.27 0.55,-0.03 0.16,0.72 -0.8,-0.15 0.35,0.72 -0.49,0.37 0.49,2.09 1.27,0.78 0.14,-0.72 0.81,-0.16 1.74,2.18 3.71,-0.37 1.62,0.73 1.95,-0.44 1.7,-1.89 4.03,-1.71 3.53,-0.68 0.09,-1.91 1.17,-0.4 3.34,2.05 1.56,3.92 1.71,2.15 3.2,1.03 4.11,2.69 1.45,1.66 2.78,-0.56 3.36,0.67 0.22,3.21 1.73,1.93 -0.32,1.7 0.72,7.24 1.25,0.8 0.49,2.33 2.07,1.18 -0.62,1.82 -2.95,1.52 -6.43,-1.53 -1.17,1.83 0.22,1.27 1.16,0.62 1.87,-0.25 2.07,1.86 0.37,2.82 2.19,1.88 0.39,2.71 -1.2,2.43 -3.53,1.26 -0.77,-1.42 -2.35,-1.37 0.25,-1.36 -3.6,-1.15 -3.1,0.5 -2.66,-1.38 -0.34,-1.42 1.97,-1.39 0.86,-2.02 -1.22,-0.18 -0.81,-0.82 -0.74,-2.02 -2.02,-0.47 -1.78,-1.98 -1.47,-0.5 1.04,-1.11 4.34,-1.22 1.55,0.12 1.01,1.59 1.84,-0.24 0.74,-0.89 -0.57,-1.43 -2.28,-1.8 -2.04,-1.36 -2.44,-0.56 -0.91,1.24 -0.49,3.35 -0.53,0.29 -0.66,-1.18 -1.12,0.29 -0.78,0.97 1.16,-0.03 0.6,1.12 -3.82,2.12 0.68,0.68 -0.2,1.91 -1.59,2.54 -1.29,0.77 -2.51,-1.3 -0.37,1.19 -1.68,-0.06 -0.57,1.18 -1.44,0.14 -1.55,2.54 -0.99,0.53 -0.91,2.3 -2.01,0.73 -1.17,1.44 -2.01,0.23 -2.18,1.46 -1.95,-0.01 0.01,-1.4 -1.29,-1.07 -0.85,0.49 -2.72,0.3 -0.56,1.48 -0.65,2.84 -2.45,1.42 -1.39,2.06 -0.38,1.54 -1.97,-1.28 -4.96,-0.79 0.19,1.73 -1.18,-0.62 -0.3,-1.28 -1.9,-0.6 -2.82,0.6 -1.97,-5.17 -0.06,-1 1.31,-2.03 -0.64,-1.47 -4.87,-2.17 -1.45,-0.05 -5.74,-2.87 -5.91,-0.67 -2.72,0.91 -5.94,-0.43 -4.62,-3.48 -4.2,-1.35 -4.95,-2.48 -4.84,0.12 -2.92,-0.69 -4.52,1.96 -1.51,-0.14 -2.12,-2.27 -1.26,-0.01 -0.78,0.69 -0.99,-0.48 -1.71,0.3 0.01,0.49 -3.120001,1.75 0.06,0.64 -3.05,-1.01 -3.75,0.99 -6.48,-4.23 -1.73,-0.22 -1.21,0.62 -3.36,-0.68 3.09,-12.41 0.16,-5.58 -3.78,-12.9 2.01,-11.94 0.51,0.07 1.29,-2.4 2,-6.55 1.2,-1.03 -0.61,-1.22 1.14,-2.05 -1.85,-0.86 -2.88,-0.18 -6.01,0.88 -7.23,-1.17 -0.8,1.85 0.65,4.04 0.58,0.7 -1.16,5.09 2.57,3.91 -0.77,0.09 -0.9,1.58 -1.41,0.8 -3.07,-0.34 1.08,0.8 -0.64,0.59 1.19,1.35 -1.45,0.69 -0.96,0.31 -1.9,0.58 -1.02,-0.86 -4.32,-7.04 -0.43,0.2 -0.28,-2.04 0.22,-0.44 1.45,0.13 0.17,-0.48 -1.56,-0.02 1.7,-9.99 0.43,-8.33 1.05,-1.8 1.41,0.92 0.38,-0.4 -0.04,-0.6 -1.65,-0.62 0.86,-3.22 1.48,-1.45 0.3,0.36 2.62,-0.84 -0.63,1.94 4.29,-0.08 3,0.71 0.46,0.57 1.99,1.54 0.23,0.79 -0.97,1.8 -1.9,1.79 -0.44,1.88 0.66,0.56 -0.85,2.04 8.68,1.36 4.7,-0.7 -0.08,-0.63 1.03,-0.97 1.04,-0.1 0.49,0.88 0.75,0.02 -0.3,-0.61 0.71,-0.68 -0.83,-0.75 -2.63,-14.41 -0.49,1.34 -0.88,-0.27 0.02,-1.58 0.87,-0.04 -0.37,-1.77 0.8,-0.99 -1.07,-0.54 -0.15,-1.26 0.72,-0.94 -0.52,-0.67 0.98,-0.99 -1.27,-0.33 -0.23,-1.01 1.25,-0.44 -0.26,-0.85 -1.07,0.22 -0.27,-0.89 -0.83,0.02 -0.34,-0.59 0.85,-0.65 0.23,-1.55 0.5,0.72 0.71,-0.19 -0.82,-4.13 0.73,-2.74 -2.18,-0.73 -4.11,2.38 -1,1.28 -2.7,1.04 -2.32,5.15 -1.71,0.68 -1.82,-0.16 -1.72,-1.84 0.05,-2.1 2.12,-2.8 1.94,-0.66 4.09,0.6 7.12,-4.29 2.4,0.75 1.35,-3.67 0.14,-2.21 -0.81,-1.06 0.15,-1.13 -1.23,-1.76 -4.7,-18.74 -2.53,-1.36 -2.57,-2.37 -3.02,-1.3 -1.65,-1.92 -1.25,-0.39 -3.23,1.13 -6.57,-1.6 -0.82,1.69 -3.46,-1.52 1.14,-0.09 -0.18,-0.64 -1.59,-0.44 -0.2,0.92 -0.64,-0.54 0.76,-1.39 -0.96,-1.32 -1.22,-1.85 -0.55,-0.94 -13.81,-15.42 -3.28,-4.97 0.47,-1.84 2.57,-1.27 0.05,-0.92 -0.97,-1.4 -2.58,-1.43 -2.96,-0.25 -2.78,3.63 -0.43,1.82 -1.18,1.64 0.03,2.87 0.74,2.18 1.38,1.97 2.45,1.02 -1.34,2.4 1.22,1.96 2.16,1.34 2.95,3.44 0.07,3.69 -1.76,1.05 -14.13,-12.25 -16.21999963,-7.66 0.07,-1.5 2.67000003,-6.57 9.0099996,-29.56 2.24,-14.9 -0.75,-10.52 0,0 2.6,-0.48 0,0 -0.38,-1.23 -1.04,-0.69 0.06,-1.32 0,0 1.31,-0.3 4.88,1.31 -0.12,2.11 2.88,1.57 3.67,3.54 1.07,-0.06 0.72,-1 5.22,0.12 4.01,-5.24 4.04,5.1 6.1,0.61 -1.24,0.88 3.54,1.82 1.2,2.86 6.27,-0.08 2.66,-2.65 -0.16,-5.58 3.33,-0.68 1.31,-2.28 -1.94,-4.63 5.21,-1.6 3.2,3.15 11.51,-3.3 4.4,2.59 1.99,5.88 5.05,1.91 9.390001,-3.27 -4.470001,-4.52 3.970001,-2.38 2.28,-8.44 2.21,0.38 1.32,-3.73 1.94,0.4 0.33,-0.48 11.63,2.67 -1.07,9.69 7.12,3.66 2.86,-2.44 2.24,1.02 1.73,-3.51 1.67,1.53 1.94,-5.53 1.72,-2.53 2.8,1.95 4.48,-3.51 6.33,-8.18 -0.08,-3.44 3.35,-5.91 5.23,0.3 3.26,3.75 3.19,0.3 z m 49.05,176.34 -0.55,0.09 0.46,1.02 3.55,-0.62 -0.51,-1.04 -0.07,-0.49 -1.07,-1.88 -1.76,1.06 -0.05,1.86 z"
		id="syddanmark"
		name="Syddanmark"
	/>
</svg>
