<svg
   	xmlns="http://www.w3.org/2000/svg"
	viewBox="0 0 793 1032"
	aria-label="Map of Angola"
>
  <path
     d="m 106.43022,160.21374 2.06,0.54 2.22,-0.2 2.17,0.28 1.13,-0.38 4.56,0.39 2.14,-0.2 1.08,0.36 0.96,1.13 -0.03,1.09 1.07,0.95 1.08,0.37 0.82,1.14 1.09,0.78 3.83,4.8 1.09,0.78 2.34,0.65 2.39,1.43 3.47,0.34 7.31,-1.54 2.41,0.3 1.14,0.95 0.25,1.28 -0.61,4.74 0.18,3.3 -0.33,1.11 -3.03,4.58 -0.64,2.3 -0.07,2.54 0.9,2.77 0,0 -3.16,1.66 -6.52,0.1 -1.63,-0.43 -2.19,0.07 -2.38,1.75 -1.07,0.23 -1.61,1.39 -0.6,1.89 0,1.2 0.57,1.14 2.56,1.91 0.64,1.21 1.68,4.61 0.14,2.29 -1.83,3.16 -3.46,2.45 -3.65,1.43 -4.5,0.28 -1.19,2.08 -0.14,1.12 2.23,1.02 1.07,1.03 0.48,2.43 -0.85,1.08 -2.31,0.54 -1.12,0.76 -0.42,1.21 1.11,1.06 3.67,0.07 1.15,0.79 0.64,1.15 -1.16,1.04 -0.14,1.15 2.07,2.22 -0.18,1.23 -2.22,1.95 -0.55,1.1 -0.68,3.41 -2.21,5.16 1.37,0.39 0.26,0.37 1.06,3.7 1.25,0.85 1.14,0.23 3.31,-0.21 0.73,0.59 0.51,1.59 1.4,0.73 4.24,-0.47 3.19,1.63 1.01,1.74 1.56,0.5 0.97,1.12 1.76,-0.77 0,0 0.69,9.68 -2.43,3.12 0.28,1.48 2.28,3.71 0.03,1.11 -1.26,0.86 -0.55,1.08 0.11,1.06 0.69,1.35 2.26,1.81 0.62,2.28 -1.21,3.28 -1.01,1.52 -1.23,1.09 -2.33,-0.61 -1.23,-0.72 -3.86,-4.6 -2.34,-0.33 -2.23,-1.48 -1.05,-0.23 -3.5,-0.33 -1.15,0.4 -2.4,1.14 -3.01,3.13 -1.84,0.78 -1.04,1.02 -1.11,0.14 -0.96,-1.08 -1.98,-0.81 -5.31,0.69 -0.37,-0.32 0.05,-0.55 -2.99,-0.01 -1.8,-0.95 -0.55,0.06 0.39,0.87 -0.97,0.25 -2.700002,-4.13 -3.1,-1.76 -1.13,0 -0.34,-0.32 -0.07,-1.06 -2.11,-0.5 -1.23,1.49 0,0 -0.11,-0.49 -0.53,-0.03 -0.6,-0.68 -0.82,-1.51 -0.01,-1.27 -0.77,-1.04 -0.07,-0.94 -1.59,-1.98 -0.25,0.1 -1.97,-1.82 -0.1,-0.76 -2.35,-2.47 -0.11,-0.41 0.88,0.07 0.67,-1.13 -1.48,-2.98 0.08,-1.2 -1.27,-2.56 -4.56,-6.49 -0.04,-0.59 0.47,0.13 0.67,-0.39 0.95,-1.66 -0.53,-1.57 -1.66,-2.33 0.47,-0.3 -0.21,-0.76 0.41,-0.54 -1.77,-2.99 0.42,-1.17 -0.05,-1.48 -1.4,-3.14 0.57,-0.4 0.22,-0.92 0.92,0.35 0.25,-0.99 0.41,-0.26 -0.24,-0.58 0.64,-0.15 0.69,-1.1 -0.03,-0.55 0,0 0.51,-2.36 1.09,-1.11 1.49,-0.34 1.55,-1.41 0.5,-0.08 2.11,0.99 0.52,-0.12 0.44,0.6 0.28,-0.23 -0.09,-1.03 3.2,0.34 0.59,0.39 0.44,-0.27 -0.42,-4.67 1.49,-4.65 1.5,-1.1 -0.02,-2.75 0.42,-0.48 3.46,-1.55 1.42,-0.06 -0.04,-0.59 -5.49,-9.64 -2.28,1.33 -3.59,-2.35 0,0 -1.51,-2.19 -0.14,-2.39 -1.16,-3.19 0.47,-0.33 0.88,0.28 0.78,-0.6 0.19,-0.78 0.04,-1.35 0.18,-0.41 -0.33,-1.28 -2.04,-4.06 -2.59,-3.57 -0.33,-1.21 -1.26,-1.4 0.12,-1.9 -2.64,-3.06 -0.63,-2.03 -1.07,-1.74 -1.31,-2.42 -0.29,-1.83 -1.01,-1.04 -1.45,-2.58 0.38,-0.19 0.36,0.51 0.26,-0.27 0.75,0.66 -0.12,-0.52 0.85,0.15 -0.34,-0.47 0.47,-0.14 0.21,-0.51 -1.55,-0.53 -0.86,0.34 -0.81,-0.86 0,0 4.47,-0.88 1.92,-0.8 1.76,-1.66 1.89,0.73 1.07,-1.62 4.26,-1.18 1.01,0.34 2.26,1.87 2.32,0 1.16,-0.88 2.66,-0.35 0.83,-0.55 0.95,0.1 1.47,-1.27 1.5,-0.37 0.940002,0.41 1.16,-0.11 4.6,-2.87 z"
     name="Bengo"
     id="bengo" />
  <path
     d="m 105.10022,366.51374 5.21,-0.37 3.43,1.54 3.41,-1.09 2.44,0.54 0.41,1.09 0.29,3.77 0.76,1.08 2.47,0.76 1.21,0.93 1.35,2.35 1.04,1.03 2.49,-1.07 2.81,-4.6 1.09,-0.76 3.56,-1.99 1.29,-0.32 1.13,0.21 2.18,2.27 3.56,4.75 2.97,5.97 4.7,0.58 1.15,-0.32 1.16,-0.86 1.15,0 5.77,2.81 1.05,0.75 0.28,2.35 2.27,0.47 0,0 -0.17,7.62 1.91,4.71 -0.64,1.05 1.26,2.17 -0.9,1.32 -3.73,0.59 -2.49,1.12 -1.35,1.14 -0.44,1.24 -3.46,1.86 -1.25,1.12 1.28,2.48 -0.79,1.05 0,1.28 1.87,3.74 0.04,2.32 3.55,6 0.84,4.88 -1.29,3.59 2.57,5.02 1.05,1.24 3.3,1.5 0.18,1.09 0.94,1.16 2.11,0.85 0,0 -0.96,4.44 -1.98,-0.04 -2.39,1.01 -1.18,1.11 -1.08,-0.1 -1.05,-0.9 -1.13,-0.31 -1.46,1.08 -4.1,4.52 -4.9,1.78 -2.42,0.63 -6.32,-2.98 -1.07,-0.28 -1.22,0.7 0.15,2.21 -1.12,0.39 -4.87,9.95 -1.1,0.35 -1.33,0.21 -4.63,-0.28 -3.82,-0.59 -2.39,-0.77 -2.42,0.66 -3.37,-1.55 -1.49,-0.22 -1.19,0.21 -2.39,1.53 -1.12,0 -4.65,-0.77 -2.24,-1.83 -1.150002,-0.11 -5.79,2.35 0,0 -1.41,0.31 -1.07,-0.24 -2.16,-1.32 -1.25,-0.25 -2.21,1.27 -1.19,-0.76 -1.51,-3.59 -2.79,-3.54 -0.34,-1.08 0.22,-1.18 1.13,-2.35 -0.31,-1.19 -1.09,-0.62 -3.35,-0.99 -3.75,-0.3 -2.23,-1.08 -1.22,0.2 -0.85,2.3 -3.65,1.02 -4.28,1.98 -1.07,-0.45 -2.09,-1.87 -2.54,-0.05 -2.25,-1.1 -3.51,-0.33 -2.25,-0.87 -3.43,-0.03 0,0 -0.26,-0.42 0.36,-0.78 -0.82,-0.28 0.36,-0.81 -0.27,-0.21 0.26,-1.09 -0.7,-0.29 0.43,-0.69 -0.14,-0.95 0.74,0.14 0.26,-1.01 0.42,-0.07 0.26,0.59 0.79,-0.8 0.34,0.1 1.26,-1.94 1.88,-0.94 0.06,-1.33 -0.7,-1.22 0.84,0.27 0.19,-0.31 -0.73,-0.27 0.51,-1.96 0.82,0.66 1.73,-1.03 0.22,-0.75 -0.26,-0.57 0.55,0.2 0.18,0.85 0.44,0.03 0.95,-0.74 -0.27,-0.38 0.37,-0.56 0.75,0.18 0.33,-0.39 0.55,0.02 0.56,-1.66 -0.75,-0.38 1.96,-1.23 0.12,0.53 0.36,-0.08 0.59,-1.19 1.73,-0.53 0.82,-2.04 1.14,-1.01 0.11,-0.68 1.19,-0.63 0.1,-0.59 1.07,-1.22 0.64,0.02 -0.08,-1.24 -1.83,-4.48 0.01,-1.74 1.49,-0.71 2.04,-2.43 2.22,-1.52 1.03,-1.37 0.93,-0.31 1.03,-1.38 1.11,-0.54 0.52,-1.69 2.04,-1.7 0.62,-0.19 -0.1,0.68 0.78,0.38 0.4,-0.25 0.42,0.42 1.56,-1.12 -0.08,-0.85 1,0.31 0.82,-0.47 0.01,0.46 0.9,1 1.1,0.2 1.85,-1.03 1.3,-1.67 3.34,-2.48 0.53,-1.66 -0.38,-1.11 1.9,-4.14 1.6,-1.32 0.4,0.38 0.81,-0.38 3.79,-5.18 0.1,-1.66 0.96,-3.28 1.110002,-0.9 0.62,-1.15 0.86,-5.76 1.84,-1.65 1.7,-9.33 z"
     name="Benguela"
     id="benguela" />
  <path
     d="m 243.68022,306.56374 1.36,0.85 0.19,0.52 -0.87,0.49 -0.18,0.52 0.45,1.59 1.48,0.26 0.41,1.48 2.64,0.89 2.92,3.24 2.25,0.32 3.28,-0.68 4.13,0.73 3.01,1.16 2.31,1.79 0.98,0.36 0.69,-1.36 2.24,-0.01 0.34,1.65 2.91,0.98 3.08,-0.18 1.31,1.43 2.77,2.08 0.5,0.9 0.11,2.99 1.53,1.26 0.52,1.51 1.02,1.06 0.49,1.59 -0.47,2.91 -1.66,0.38 -0.43,0.96 -1.01,0.36 0.19,0.48 1.41,0.68 1.66,-0.08 0.38,0.32 0.03,1.69 0.61,2.1 2.53,3.66 -0.49,2.26 -1.03,1.04 -0.16,1.48 0.34,0.36 1.3,-0.74 0.4,0.93 -1.68,1.11 -0.73,1.36 0.08,1.17 1.13,1.64 0.72,2.01 -1.12,2.32 0.27,0.42 2.38,0.39 1.08,1.18 0.96,0.4 0.71,-0.64 2.18,-0.25 0.99,-1.04 0.33,-1.17 1.15,-0.59 1.11,-0.02 1.09,-1.15 0.13,-1.06 4.7,-4.01 0.33,-1.47 -0.28,-3.96 -0.8,-3.39 2.72,2.35 1.07,2.36 -0.11,2.43 0.5,0.87 2.27,0.42 2.17,-0.52 0.88,0.5 0.4,0.96 0.86,0.54 1.81,-0.94 3.49,0.68 6.32,-1.59 2.5,1.1 1.2,-0.25 2.49,0.32 1.08,-0.29 1.08,-0.85 4.04,-4.18 4.14,-1.93 6.28,-1.9 2.22,0.16 1.09,0.53 1.15,-0.22 0.53,-1.06 -0.67,-1.72 0.02,-1.25 -1.29,-1.45 -1.37,-0.71 -0.52,-0.86 1,-3.85 -1.42,-2.01 -0.39,-2.37 0.32,-2.33 0.74,-1.33 -0.38,-1.05 0,0 6.25,3.37 5.74,3.64 3.91,4.59 2.55,0.47 2.26,-0.04 1.23,0.61 1.52,2.35 0.2,1.11 -1.76,2.44 0.08,1.32 -0.88,1.22 -0.28,3.11 0,0 -1.38,0.35 -0.99,1.5 -2.24,2.16 -0.49,1.06 -0.35,4.38 -0.42,1.09 -1.09,1.09 -3.42,0.15 -1.09,0.57 0.2,1.07 1.06,0.95 0.2,1.07 -0.72,1.12 -1.17,0.09 -1.25,-0.56 -0.8,1.15 -0.77,3.3 -1.08,0.57 -0.96,1.29 -0.46,1.2 0.19,1.32 1.45,2.44 -0.13,1.85 -0.95,1.26 -6.43,5.77 -0.04,1.16 1.05,0.95 -0.33,1.31 -0.87,1.06 -2.64,0.51 -1.24,0.91 -0.86,1.55 -1.22,0.99 -2.7,0.4 -5.08,4.72 -0.98,1.05 0.41,2.38 -0.33,1.17 -1.63,2.26 -3.92,4.26 0.51,2.35 -0.4,1.06 -2.27,1.22 -3.77,3.63 -0.67,-1.12 -1.21,1.06 0.02,1.31 1.88,3.49 0.17,1.08 -0.44,1.13 -1.23,0.36 -1.1,1.08 -0.45,2.21 -3.5,1.57 0.64,1.36 -1.82,2.29 2.57,4.57 0.27,2.35 -0.32,1.08 -3.89,1.38 -3.29,2.88 1.54,2.28 0.38,1.4 -1.71,2.77 0.6,1.12 0.09,1.08 0,0 -1.19,4.34 -1.2,1.02 -2.38,0.65 -1.26,0.08 -1.14,-0.36 -1.12,0.36 0.18,1.32 1.11,2.45 -0.29,4.53 -1.35,2.72 -1.82,0.98 -0.86,1.19 -1.48,0.56 -2.47,1.7 -2.33,0.03 -2.46,0.95 -1.92,-0.24 -1.86,0.94 -2.59,3.78 -3.21,2.37 -0.35,1.09 0.1,2.54 -0.88,1.93 -1,1.12 0.49,1.47 -0.45,0.24 -2.37,-0.43 -2.39,-1.01 -1.6,-2.15 -2.23,-0.3 -4.88,-3.49 -1.05,-5.02 -1.12,-1.13 -0.37,-1.12 -1.08,-1.21 -1.36,-0.64 -1.49,-0.21 -3.64,2.54 -5.76,-3.35 -4.72,2.06 -5.92,-0.41 -1.1,0.56 0,0 -0.19,-0.51 0.68,-6.76 -0.64,-2.75 0.91,-1.75 0.13,-2.31 1.44,-3.55 0.41,-4.49 0.18,-3.78 -0.89,-3.89 0.58,-3.08 0,0 0.69,-6.96 -0.52,-1.54 0.52,-1.62 -1.34,-6.73 -0.43,-5.5 0.23,-1.18 -0.41,-1.56 0.23,-5.44 -2.29,-0.65 -4.62,-2.56 -0.46,-2.62 -1.02,-1.1 -1.1,-0.27 -0.56,-1.23 -0.12,-2.31 3.58,-2.33 0.34,-1.17 0.55,-4.19 -0.39,-1.19 -1.29,-1.24 -0.08,-1.12 -0.83,-1.24 0.16,-1.16 1.22,-1.56 2.24,-1.2 3.74,-3.16 0.98,-1.76 0.51,-2.83 1.83,-2.99 1.16,-0.97 0.29,-1.78 -0.35,-1.7 -1.92,-2.21 -2.69,-2.13 -0.29,-2.35 -0.74,-1.34 -3.66,-1.91 -0.03,-1.44 -2.25,-1.23 -0.19,-1.04 -1.02,-1.01 -1.36,-6.5 -4.61,0.31 -1.05,-1.09 -1.14,-0.21 -2.46,0.34 -2.23,-1.88 -1.28,0.35 -2.09,1.99 -1.14,-0.07 -3.61,0.78 -2.39,-1.13 -1.22,0.28 -3.39,-1.69 0,0 2.16,-4.76 -0.3,-3.58 1.07,-1.04 4.84,-7.27 0.85,-2.43 0.68,-4.38 0.7,-1.36 3.39,2.43 1.31,0.09 2.27,-1.4 3.51,1.73 1.07,0.27 1.15,-0.39 3.44,-6.1 1.74,-2.16 1.32,-0.97 6.12,-3.02 1.72,-2.09 0.02,-0.79 2.89,-1.24 0.26,-1.13 1.24,-1.49 -0.53,-0.83 0.04,-0.58 z"
     name="Bié"
     id="bie" />
  <path
     d="m 55.640218,1.57374 0.91,1.02 4.43,-0.5 0.16,2.86 3.94,3.63 1.34,2.49 4.47,2.67 0.15,1.68 -0.46,0.43 -0.7,0 -1.21,-0.53 -1.18,0.74 -2.41,0.46 -3.09,1.44 -2.15,0 -0.82,0.33 -0.24,0.78 -0.93,0.02 -0.41,0.93 -0.79,0.57 -1.12,2.27 0.45,0.35 -0.06,0.34 -1.06,1.14 -1.19,0.36 -1.22,1.3 -0.61,2.28 -2.26,0.47 -1.58,-0.4 -0.34,0.52 0.38,1.5 -0.57,1.48 -0.69,-0.01 -0.86,0.91 -0.53,-0.01 -0.59,0.53 -1.11,-0.02 -1.14,0.86 -2.45,0.06 -0.4,1.18 0.79,1.12 2.47,1.04 -0.11,29.35 -13.29,0.47 -2.91,1.28 0.46,1.19 -2.27,-3.27 -0.77,-1.75 -0.42,-2.58 1.81,-4.38 1.41,0.39 0.91,-0.66 0.17,-1.34 -0.5,-2.61 -2.72,-6.59 0.53,-0.2 0,-0.56 -2.27,-3.57 0.47,-1.23 -0.43,-0.9 0.7,-0.4 -0.55,-0.57 -0.13,-0.24 -0.37,-0.65 -0.46,0.17 -0.01,-0.38 -0.33,-0.02 -0.12,0.4 0.6,0.3 0.44,1.36 -5.51,-7.71 -0.34,-0.54 8.06,-6.52 1.82,-6.4 2.15,2.44 2.35,-0.19 2.81,-2.77 4.83,-7.69 7.87,-1.78 2.3,-3.79 4.8,-0.06 -1.66,-2.29 0.08,-1.95 1.15,-1.33 1.46,0.53 z"
     name="Cabinda"
     id="cabinda" />
  <path
     d="m 310.05022,456.68374 13.63,7.87 1.15,0.06 3.31,-0.75 2.26,1.15 4.72,3.46 1.13,0.41 2.31,-0.87 1.11,0.42 0.82,1.09 2.04,1.32 0.69,0.84 0.77,-0.27 0.83,0.64 0.36,1.36 2.21,1.34 0.86,1.23 0.35,1.7 2.47,3.54 0.2,0.49 -0.52,1.55 1.45,3.88 -0.47,0.99 0.22,1.67 1.15,2.38 0.95,0.54 0.08,1.59 1.13,1.07 0.02,0.86 1.08,1.09 -0.09,0.62 0.57,-0.01 1.4,0.98 0.5,-0.06 4.91,-1.88 1.16,-0.08 6.97,3.76 -1.67,-5.93 -0.08,-2.15 2.64,-1.43 1.08,-0.36 1.15,0.43 2.17,1.83 1.2,0.26 1.6,-0.26 2.18,0.71 5.71,-1.18 0.73,0.82 0.95,2.51 2.66,2.18 0.56,2.92 1.52,1.27 1.57,3.97 2.21,1.25 0.44,1.57 1.47,0.67 0.43,0.92 1.18,0.94 0.34,0.91 3.3,2.27 0.66,1.49 1.1,-0.06 0.03,1.25 0.52,0.19 1.03,-0.34 0.48,0.83 1.15,0.29 1.4,2.41 1.99,1.45 1.48,2 4.07,2.24 2.23,0.51 2.79,1.48 3.78,-0.36 4.5,1.06 2.92,-1.2 2.76,0.65 2.35,-1.13 1.65,0.37 1.9,-0.9 0.97,0.36 0.93,1.16 4.72,0.97 0.54,-0.17 0.45,-0.94 1.16,0.01 1.81,1.68 1.21,-0.02 0.92,-0.42 0.52,0.92 1.22,0.84 2.54,0.68 2.17,2.69 1.24,0.92 1.26,2.22 1.01,0.4 0.88,-0.55 0.45,0.1 -0.39,1.6 0.65,0.88 2.38,-0.16 1.72,1.05 1.47,4.75 1.69,1.85 1.11,0.3 1.5,1.32 2.39,0.33 0.56,0.8 0.94,0.42 0.83,1.97 -0.29,3.16 0.23,1.12 0.7,0.73 1.17,0.01 0.41,0.31 0.87,1.9 1.61,1.23 -0.29,2.16 1.57,1.23 1.32,3.56 2.14,2.07 1.3,0.04 1.82,1.01 -0.33,0.91 0.45,0.98 0,1.16 0.36,0.35 1.22,0 0.71,0.67 0.19,1.6 0.74,1.37 1.58,1.26 -0.11,1.19 0.69,0.71 0.28,1.77 6.67,3.76 1.69,1.61 0,0 0.17,1.77 2.66,2.66 0.88,0.36 -0.28,1.42 1.93,2.46 0.38,0.96 0.84,3.5 -0.16,1.36 0.48,1.24 -0.68,0.82 1.4,0.13 1.2,1.75 1.75,1.25 0.57,0.93 1.85,0.49 0.98,1.92 1.61,0.61 1.86,2.44 0.08,0.79 1.44,0.73 4.08,4.41 1.46,0.94 0.01,0.95 0.94,1.06 3.31,2.56 1.87,2.67 3.55,3.18 -0.02,0.92 1.35,0.38 0.84,1.77 2.61,2.05 0.95,1.46 -0.32,0.7 0.21,0.51 4.72,1.81 0.93,1.1 4.31,3 0.07,0.88 1.46,1.66 0.99,0.34 1.21,3.36 0.98,0.73 1.19,0.23 0.04,0.87 0.87,0.75 -0.27,0.39 2.07,0.61 2.81,3.6 2.16,-0.24 1.42,0.86 1.2,-0.38 1.31,1.27 1.35,0.16 1.59,1.55 0.21,1.38 -98.34,19.8 -1.28,-0.72 -1.28,-0.07 -1.22,-1.19 -1.7,-0.02 -1.84,-0.96 -0.79,0.01 -1.33,-0.61 -1.1,-1.17 -3.11,0.16 -0.93,0.34 -0.98,-0.21 -0.78,0.69 -1.74,-0.2 -0.4,0.36 -2.88,0.34 -0.95,-0.3 -1.8,0.63 -0.78,0.94 -1.71,0.44 -0.14,0.62 -1.01,0.16 -0.29,0.66 0.17,0.63 -2.45,0.38 -2.43,-1.02 -0.73,0.1 -0.18,-0.8 -2.23,0.46 -1.31,-1.27 -1.61,-0.73 -1.3,-0.09 -0.73,-0.07 -1.18,0.4 -2.26,-0.23 -2.06,-1.31 -1.04,-0.25 -0.94,-1.63 -3.13,-1.01 -0.98,0.08 -2.62,-1.72 -1.26,0.74 -1.17,-0.5 -1.33,1.34 -0.36,-0.34 -3.1,-0.4 -2.78,1.56 -1.49,-0.84 -1.18,-0.22 -1.62,0.63 -1.45,-0.69 -1.31,0.18 -0.74,-0.76 -2.13,-0.67 -1.08,0.85 -0.76,0.15 -1.23,0 -1.72,-0.55 -0.9,0.13 -1.28,0.9 -0.38,0.84 -0.7,0.15 -1.38,-1.65 -0.86,0.35 -1.03,-1.33 -1.05,-0.51 -4.54,1.03 -2.88,-0.47 -0.39,0.49 -2.34,-0.52 -2.55,0.39 -1.66,-0.95 -0.4,-0.02 -0.26,0.5 -0.95,-0.37 -0.64,0.23 -0.24,-0.29 -0.15,-0.57 -0.68,-0.42 -0.55,0.23 -0.89,-0.67 -0.83,0.15 -0.61,-0.42 -1.09,0.55 -2.53,-0.88 -0.34,0.24 -1.18,-0.33 -0.48,0.12 -1.14,1.32 -9.72,-0.88 -1.38,-0.85 -0.77,0.11 -1.15,-0.87 -0.12,-0.63 -2.18,-0.36 -1.04,-1.54 -1.28,0.12 -0.94,-1.4 -5.25,-3.84 -0.46,-0.8 0.07,-0.89 -0.88,-0.93 -1.64,-0.32 -0.84,-0.97 -0.67,-1.92 -0.8,-0.65 -0.35,-0.79 -1.61,-0.81 -0.4,-1.71 -2.39,-3 -56.57,-0.2 0,0 1.4,-7.38 -4.05,-13.05 0.02,-5.79 0.59,-6.5 2.9,-5.56 0.74,-3.9 0.52,-1.14 3.42,-3.41 1.49,-5.1 0.06,-6.3 -1.65,-9.46 0.2,-8.05 -1.12,-2.29 -3.38,-3.02 -3.46,-5.79 -3.06,-6.79 -3.49,-0.91 -1.02,-1.17 -0.77,-3.48 -0.93,0.56 -0.71,-1.42 -2.82,-0.79 -1.25,-1.52 -1.02,-0.4 -0.2,-1.68 -2.05,-1.08 -1.34,-1.36 0.37,-1.04 -0.36,-1.02 -2.82,-1.38 -0.84,-1.23 0.49,-1.46 -1.81,-0.81 0,0 -1.36,-1.34 -1.05,-1.83 0.09,-1.08 0.69,-0.72 -0.29,-1.75 -1.74,-1.73 -0.94,-1.81 -0.07,-1.8 0.44,-2.37 -0.7,-2.73 -2,-1.88 0.69,-2.35 0.49,-0.16 0.04,-0.45 -2.78,-0.79 0.54,-0.66 -0.19,-0.45 -1.13,-0.12 -2.64,-2.49 -0.06,-4.56 0.37,-2.43 -0.45,-1.6 0.41,-1.66 -1.46,-3.3 -0.17,-3.16 -0.69,-2.04 0.06,-0.65 0.85,-0.54 0.18,-0.55 0.72,-4.23 -1.17,-3.59 0.64,-2.06 -0.64,-1.38 0,0 1.1,-0.56 5.92,0.41 4.72,-2.06 5.76,3.35 3.64,-2.54 1.49,0.21 1.36,0.64 1.08,1.21 0.37,1.12 1.12,1.13 1.05,5.02 4.88,3.49 2.23,0.3 1.6,2.15 2.39,1.01 2.37,0.43 0.45,-0.24 -0.49,-1.47 1,-1.12 0.88,-1.93 -0.1,-2.54 0.35,-1.09 3.21,-2.37 2.59,-3.78 1.86,-0.94 1.92,0.24 2.46,-0.95 2.33,-0.03 2.47,-1.7 1.48,-0.56 0.86,-1.19 1.82,-0.98 1.35,-2.72 0.29,-4.53 -1.11,-2.45 -0.18,-1.32 1.12,-0.36 1.14,0.36 1.26,-0.08 2.38,-0.65 1.2,-1.02 z"
     name="Cuando-Cubango"
     id="cuando-cubango" />
  <path
     d="m 147.39022,196.77374 0.64,1.95 1.83,-0.31 1.93,0.85 1.76,0.15 2.39,-0.96 1.94,-2.16 0.52,-1.89 1.76,-1.66 2.52,0.24 2.49,1.63 2.57,-1.23 2.72,0.32 0.66,-2.09 1.3,-0.11 0.34,-1.04 0.93,-0.14 0.44,-1.29 0.41,-0.2 0.05,-3.09 1.07,-1.64 0.05,-0.58 -1.07,-1.04 -0.97,0.34 -0.32,-0.34 0.16,-1.25 1.04,-1.68 -0.39,-2.6 4.5,-1.07 5.98,-0.15 1.45,0.78 0.82,1.24 -0.14,1.64 0.41,1.65 1.75,0.74 1.73,0.11 2.9,-0.91 1.75,-1.65 4.53,-0.07 1,1.09 1.77,0.96 0.01,0.44 -1.43,0.26 0.01,0.53 0.64,1.81 0.55,0.15 0.25,-0.46 0.52,-0.1 0.67,0.7 0.24,4.78 0,0 -0.11,2.68 0.65,1.33 -0.26,2.04 0.61,0.76 -0.32,1.4 0.68,0.96 -1.32,1.54 -6.39,1.58 0.26,2.22 -3.26,4.62 1.37,2.87 1.08,0.73 2.46,0.16 1.07,2.45 -1.46,2.25 -1.81,5.68 -0.58,4.69 -0.81,2.2 0.57,3.49 -0.41,2.96 -1.68,1.11 -2.46,-0.09 -0.93,0.36 -0.93,-0.03 -1.21,-0.88 -0.62,-0.02 -1.98,1.42 -1.72,0.1 -1.41,1.37 -0.93,0.41 -2.41,-0.03 -1.51,0.54 -1.38,1.34 -0.48,1.58 -0.25,3.11 -2.79,0.51 -1.74,-0.32 -1.56,0.61 2.89,2.09 0.56,2.4 -3.44,3.03 0.11,1.06 1.15,0.84 0.69,1.12 0.6,3.53 -0.3,1.05 -2.61,2.28 0,0 -1.43,0.04 -1.96,-1.52 -1.57,-0.07 -2.63,-0.82 -0.22,0.4 0.57,0.81 -1.03,0.99 -1.71,-0.35 -1.99,0.12 -0.88,0.49 -2.24,0.41 -1.26,-0.14 -0.56,0.13 -0.82,1.28 -0.49,0.2 -5.35,0.73 -2.78,-0.54 0,0 -1.76,0.76 -0.97,-1.11 -1.56,-0.5 -1.02,-1.74 -3.18,-1.62 -4.25,0.47 -1.39,-0.73 -0.51,-1.59 -0.73,-0.59 -3.31,0.21 -1.13,-0.24 -1.25,-0.85 -1.06,-3.7 -0.26,-0.37 -1.37,-0.39 2.21,-5.16 0.68,-3.41 0.55,-1.1 2.22,-1.95 0.17,-1.23 -2.06,-2.22 0.13,-1.14 1.16,-1.04 -0.64,-1.14 -1.15,-0.79 -3.67,-0.07 -1.11,-1.06 0.43,-1.21 1.12,-0.76 2.31,-0.54 0.85,-1.08 -0.48,-2.42 -1.07,-1.04 -2.23,-1.02 0.14,-1.11 1.19,-2.09 4.5,-0.27 3.65,-1.44 3.46,-2.45 1.83,-3.16 -0.14,-2.28 -1.68,-4.62 -0.65,-1.21 -2.55,-1.91 -0.58,-1.14 0,-1.2 0.6,-1.89 1.61,-1.39 1.07,-0.23 2.38,-1.75 2.18,-0.07 1.63,0.43 6.52,-0.1 z"
     name="Cuanza Norte"
     id="cuanza-norte" />
  <path
     d="m 143.40022,266.68374 2.78,0.54 5.35,-0.73 0.49,-0.2 0.82,-1.28 0.56,-0.13 1.26,0.14 2.24,-0.41 0.88,-0.49 1.99,-0.12 1.71,0.35 1.03,-0.99 -0.57,-0.81 0.22,-0.4 2.63,0.82 1.57,0.07 1.96,1.52 1.43,-0.04 0,0 0.75,0.96 0.98,0.4 1,1.05 0.97,0.03 1.48,1.22 2.09,0.29 1.14,-0.23 0.91,0.47 2.03,0.04 1.72,-0.1 2.5,-0.99 2.2,-0.42 2.16,0.25 2.26,-0.53 1.16,0.28 2.31,-0.46 3.35,0.62 3.61,-0.22 2.28,-3.16 1.23,-0.14 3.44,1.01 4.9,-0.68 3.42,0.77 5.25,0.55 1.81,2.2 0.74,2.34 1.04,0.84 2.14,0.92 0.87,1.17 -0.41,3.04 2.11,2.71 0.31,3.09 1.29,2.65 -0.3,0.76 -2,1.5 -0.35,0.98 0.63,3.79 0.78,0.57 1.82,0.2 1.28,1.43 0.36,1.03 0.85,0.54 -0.23,2.47 0.28,0.99 2.03,0.6 1.07,1.7 2.14,2.64 1.22,0.89 1.31,1.98 0,0 -1.17,1.17 -0.04,0.58 0.53,0.83 -1.24,1.49 -0.26,1.13 -2.89,1.24 -0.02,0.79 -1.72,2.09 -6.12,3.02 -1.32,0.97 -1.74,2.16 -3.44,6.1 -1.15,0.39 -1.07,-0.27 -3.51,-1.73 -2.27,1.4 -1.31,-0.09 -3.39,-2.43 -0.7,1.36 -0.68,4.38 -0.85,2.43 -4.84,7.27 -1.07,1.04 0.3,3.58 -2.16,4.76 0,0 -0.68,1.18 -1.15,0.5 -9.34,1.51 -2.21,1.5 -3.61,0.77 -2.15,1.71 -0.38,3.7 1.34,1.96 0.15,2.31 1.18,0.89 -0.67,1.4 0,1.85 -1.2,0.86 0.9,1.17 -0.89,3.59 0.72,1.22 -3.71,-0.22 -1.73,2.09 -1.12,0.62 -1.2,-0.48 -2.53,1.53 -3.02,0.36 -2.07,2.06 -2.43,6.07 0,0 -2.27,-0.48 -0.28,-2.35 -1.05,-0.75 -5.77,-2.81 -1.15,0 -1.16,0.86 -1.15,0.32 -4.7,-0.58 -2.97,-5.97 -3.56,-4.75 -2.19,-2.27 -1.13,-0.2 -1.29,0.32 -3.55,1.99 -1.1,0.76 -2.81,4.6 -2.48,1.07 -1.04,-1.02 -1.35,-2.35 -1.21,-0.93 -2.48,-0.77 -0.76,-1.08 -0.29,-3.77 -0.41,-1.08 -2.44,-0.54 -3.41,1.09 -3.44,-1.54 -5.21,0.37 0,0 -0.79,-6.11 -0.06,-1.12 0.33,-0.64 -0.93,-1.75 0.63,-0.45 0.23,-0.83 -0.32,-1.22 0.13,-1.39 0.74,-2.12 -0.22,-1.35 0.65,-1.71 -0.47,-2.65 0.66,-1.26 0.85,-0.15 0.13,-0.35 -0.24,-3.08 0.44,-0.79 0.28,-4.25 1.26,-6.79 -0.52,-2.49 -1.28,-2.89 -5.4,-7.28 1.27,-0.46 0.62,-1.34 0.79,-0.31 0.48,-0.87 -0.05,-0.62 -0.75,-1.43 -7.150002,-8.69 -4.52,-4.57 0.89,-1.37 -0.23,-1.49 -0.83,-2.95 -1.34,-1.48 0,0 1.23,-1.49 2.12,0.51 0.07,1.06 0.34,0.31 1.13,0 3.11,1.77 2.700002,4.13 0.97,-0.25 -0.39,-0.87 0.55,-0.06 1.8,0.96 2.99,0.01 -0.05,0.55 0.37,0.32 5.31,-0.69 1.99,0.81 0.96,1.08 1.1,-0.14 1.04,-1.02 1.84,-0.77 3.02,-3.13 2.4,-1.13 1.15,-0.4 3.5,0.32 1.05,0.24 2.23,1.48 2.34,0.33 3.86,4.6 1.23,0.71 2.33,0.61 1.23,-1.09 1.01,-1.52 1.21,-3.28 -0.62,-2.28 -2.26,-1.81 -0.68,-1.35 -0.12,-1.07 0.55,-1.07 1.26,-0.86 -0.03,-1.11 -2.28,-3.71 -0.28,-1.48 2.43,-3.12 z"
     name="Cuanza Sul"
     id="cuanza-sul" />
  <path
     d="m 89.550218,592.67374 2.87,2.39 1.97,2.49 2.24,1.46 2.28,-0.74 3.600002,-1.66 1.37,-1.09 6.09,-8.28 1.52,-0.26 1.13,0.63 1.77,2.28 1.06,0.53 1.1,-0.15 1.37,-1.07 1.31,-2.34 1.06,-1.09 6.54,-1.35 1.06,-1.18 5.69,-2.88 7.45,-8.03 3.45,0.9 2.29,-0.11 1.25,-0.45 5.76,1.13 8.37,2.25 1.11,0.48 2.18,2.27 0.97,3.41 4.78,1.17 1.13,-0.18 1.69,-3.45 2.97,-3.31 2.74,-5.68 0.75,-2.51 3.06,-3.07 1.55,-3.9 2.54,-4.57 1.25,-0.46 2.15,-2.4 1.22,-0.55 2.51,-1.96 1.54,0.07 3.61,-2.49 2.23,0.43 3.38,-0.68 2.95,1.11 6,0.07 1.11,0.37 4.98,-1.31 3.77,0.72 1.17,-0.89 2.58,-3.6 3.44,-3.44 0.48,-1.15 1.15,-1.18 1.14,-0.61 6.01,-2.2 4.7,0.86 5.57,-0.03 0,0 1.81,0.81 -0.49,1.46 0.84,1.23 2.82,1.38 0.36,1.02 -0.37,1.04 1.34,1.36 2.05,1.08 0.2,1.68 1.02,0.4 1.25,1.52 2.82,0.79 0.71,1.42 0.93,-0.56 0.77,3.48 1.02,1.17 3.49,0.91 3.06,6.79 3.46,5.79 3.38,3.02 1.12,2.29 -0.2,8.05 1.65,9.46 -0.06,6.3 -1.49,5.1 -3.42,3.41 -0.52,1.14 -0.74,3.9 -2.9,5.56 -0.59,6.5 -0.02,5.79 4.05,13.05 -1.4,7.38 0,0 -0.1,0.42 -8.27,0.04 -11.46,-0.18 -0.11,-0.29 -105.46,0.03 -25.48,-0.33 -0.48,1.43 -1.91,0.41 -0.67,0.7 -1.99,-0.37 -0.87,0.83 -3.71,-1.16 -1.28,0.61 -1.78,0.08 -1.38,-0.79 -0.68,-1.99 -1.7,-1.45 -3.3,-1.37 -3.11,-2.26 -1.61,-0.53 -1.310002,-1.21 -0.68,0.01 -2.13,-2.19 -4.41,-2.87 -1.69,-0.65 -0.29,-0.45 0.85,-1.07 0.02,-0.76 -2.62,-3.66 -2.74,-1.07 -1.73,-1.18 -1.48,-0.03 0,0 -0.46,-0.09 -0.2,-2.61 -1.34,-2.5 -7.14,-7.13 -1.01,-1.26 -0.38,-1.24 1,-2.29 1.14,-1.1 1.12,-0.15 1.24,-0.84 1.77,-2.54 -0.22,-1.15 -0.71,-1.15 -2.01,-1.91 1.13,-1.75 0.8,-0.61 1.47,-0.2 1.12,-1.72 1.56,-0.08 0.78,-1.55 0.55,0.71 1.45,-1.35 0.95,-0.07 z"
     name="Cunene"
     id="cunene" />
  <path
     d="m 201.55022,350.22374 3.39,1.69 1.22,-0.28 2.39,1.13 3.61,-0.78 1.14,0.07 2.09,-1.99 1.28,-0.35 2.23,1.88 2.46,-0.34 1.14,0.21 1.05,1.09 4.61,-0.31 1.36,6.5 1.02,1.01 0.19,1.04 2.25,1.23 0.03,1.44 3.66,1.91 0.74,1.34 0.29,2.35 2.69,2.13 1.92,2.21 0.35,1.7 -0.29,1.78 -1.16,0.97 -1.83,2.99 -0.51,2.83 -0.98,1.76 -3.74,3.16 -2.24,1.2 -1.22,1.56 -0.16,1.16 0.83,1.24 0.08,1.12 1.29,1.24 0.39,1.19 -0.55,4.19 -0.34,1.17 -3.58,2.33 0.12,2.31 0.56,1.23 1.1,0.27 1.02,1.1 0.46,2.62 4.62,2.56 2.29,0.65 -0.23,5.44 0.41,1.56 -0.23,1.18 0.43,5.5 1.34,6.73 -0.52,1.62 0.52,1.54 -0.69,6.96 0,0 -3.72,0.59 -2.31,-1.06 -1.07,-0.09 -3.75,1.16 -1.27,-0.65 -0.53,-1.29 -1.22,0.18 -1.41,0.35 -1.2,1.05 -2.39,3.78 -3.42,0.59 -1.24,-0.45 -2.11,-2.29 -2.29,-0.13 -7.4,7.79 -2.74,3.5 -1.13,0.87 -3.57,1.09 -0.77,1.14 -0.03,1.06 -1,1.05 -3.53,1.96 -1.3,0.36 -1.08,-0.2 0.24,-4.99 -0.25,-1.43 -4.57,0.2 -1.2,-0.45 -0.6,-1.09 -0.5,-7.35 -1.09,-2.39 -0.95,-1.12 -1.09,-0.49 -4.87,0.99 -2.22,0.84 -2.16,-0.85 0,0 -2.1,-0.85 -0.95,-1.16 -0.17,-1.09 -3.3,-1.5 -1.05,-1.24 -2.57,-5.02 1.29,-3.59 -0.84,-4.88 -3.55,-6 -0.04,-2.32 -1.87,-3.74 0.01,-1.28 0.79,-1.05 -1.28,-2.48 1.24,-1.12 3.46,-1.85 0.44,-1.24 1.36,-1.15 2.49,-1.11 3.73,-0.59 0.9,-1.32 -1.25,-2.17 0.64,-1.05 -1.91,-4.71 0.17,-7.61 0,0 2.43,-6.07 2.07,-2.06 3.02,-0.36 2.53,-1.53 1.2,0.48 1.12,-0.62 1.73,-2.09 3.71,0.22 -0.72,-1.22 0.89,-3.59 -0.9,-1.17 1.2,-0.86 0,-1.85 0.67,-1.4 -1.18,-0.89 -0.15,-2.31 -1.34,-1.96 0.38,-3.7 2.15,-1.71 3.61,-0.77 2.21,-1.5 9.34,-1.51 1.15,-0.5 z"
     name="Huambo"
     id="huambo" />
  <path
     d="m 170.11022,448.49374 2.16,0.85 2.22,-0.84 4.87,-0.99 1.09,0.49 0.95,1.12 1.09,2.39 0.5,7.35 0.6,1.09 1.2,0.45 4.57,-0.2 0.25,1.43 -0.24,4.99 1.08,0.2 1.3,-0.36 3.53,-1.96 1,-1.05 0.03,-1.06 0.77,-1.14 3.57,-1.09 1.13,-0.87 2.74,-3.5 7.4,-7.79 2.29,0.13 2.11,2.29 1.24,0.45 3.42,-0.59 2.39,-3.78 1.2,-1.05 1.41,-0.35 1.22,-0.18 0.53,1.29 1.27,0.65 3.75,-1.16 1.07,0.09 2.31,1.06 3.72,-0.59 0,0 -0.58,3.08 0.89,3.89 -0.18,3.78 -0.41,4.49 -1.44,3.55 -0.13,2.31 -0.91,1.75 0.64,2.75 -0.68,6.76 0.19,0.51 0,0 0.64,1.38 -0.64,2.06 1.17,3.59 -0.72,4.23 -0.18,0.55 -0.85,0.54 -0.06,0.65 0.69,2.04 0.17,3.16 1.46,3.3 -0.41,1.66 0.45,1.6 -0.37,2.43 0.06,4.56 2.64,2.49 1.13,0.12 0.19,0.45 -0.54,0.66 2.78,0.79 -0.04,0.45 -0.49,0.16 -0.69,2.35 2,1.88 0.7,2.73 -0.44,2.37 0.07,1.8 0.94,1.81 1.74,1.73 0.29,1.75 -0.69,0.72 -0.09,1.08 1.05,1.83 1.36,1.34 0,0 -5.57,0.03 -4.7,-0.86 -6.01,2.2 -1.14,0.61 -1.15,1.18 -0.48,1.15 -3.44,3.44 -2.58,3.6 -1.17,0.89 -3.77,-0.72 -4.98,1.31 -1.11,-0.37 -6,-0.07 -2.95,-1.11 -3.38,0.68 -2.23,-0.43 -3.61,2.49 -1.54,-0.07 -2.51,1.96 -1.22,0.55 -2.15,2.4 -1.25,0.46 -2.54,4.57 -1.55,3.9 -3.06,3.07 -0.75,2.51 -2.74,5.68 -2.97,3.31 -1.69,3.45 -1.13,0.18 -4.78,-1.17 -0.97,-3.41 -2.18,-2.27 -1.11,-0.48 -8.37,-2.25 -5.76,-1.13 -1.25,0.45 -2.29,0.11 -3.45,-0.9 -7.45,8.03 -5.69,2.88 -1.06,1.18 -6.54,1.35 -1.06,1.09 -1.31,2.34 -1.37,1.07 -1.1,0.15 -1.06,-0.53 -1.77,-2.28 -1.13,-0.63 -1.52,0.26 -6.09,8.28 -1.37,1.09 -3.600002,1.66 -2.28,0.74 -2.24,-1.46 -1.97,-2.49 -2.87,-2.39 0,0 1.29,-0.7 0.43,-1.1 1.1,-1.05 0.07,-1.09 -1.99,-3.66 -0.49,-2.3 1.84,-4.65 3.87,-6.9 -2.38,-3.64 -0.24,-1.12 0.31,-12.17 -3.75,-1.41 -2.35,-1.85 -0.74,-1.15 0.65,-2.45 -0.76,-2.33 -1.37,-0.33 -0.52,1.08 -1.22,0.83 -1.16,0.1 -1.04,-1.26 0.35,-1.34 -0.18,-1.65 -1.43,-0.28 -2.38,0.65 -1.12,-1.02 -0.09,-1.19 3.68,-2.11 0.39,-1.2 -2.92,-3.44 0.35,-1.24 2.05,-2.41 -1.24,-3.59 0,-1.4 2,-2.16 2.37,-0.37 0.95,-1.27 3.59,-2.79 3.7,-1.63 2.93,-2.03 2.47,-5.79 0.27,-4.79 2.75,-3.74 -0.19,-4.21 -0.49,-2.2 0.4,-2.49 -1.16,-0.52 -1.11,0.59 -1.16,-0.8 -0.48,-1.22 0.81,-2.56 -0.68,-2.41 -1.19,-2.36 0.44,-1.58 2.19,-3.58 0.31,-1.13 -0.35,-1.19 -2.15,-1.46 -0.89,-2.73 0,0 5.8,-2.36 1.150002,0.12 2.24,1.83 4.66,0.77 1.12,0 2.39,-1.53 1.19,-0.21 1.49,0.23 3.37,1.55 2.42,-0.66 2.4,0.77 3.82,0.59 4.62,0.28 1.33,-0.21 1.1,-0.35 4.87,-9.95 1.13,-0.39 -0.15,-2.22 1.22,-0.7 1.06,0.28 6.32,2.99 2.42,-0.64 4.9,-1.77 4.1,-4.53 1.47,-1.07 1.13,0.3 1.05,0.9 1.08,0.1 1.18,-1.11 2.4,-1.01 1.98,0.05 z"
     name="Huíla"
     id="huila" />
  <path
     d="m 71.990218,223.84374 0.15,0.72 -0.38,1.16 -0.83,0.19 -0.1,-0.59 1.16,-1.48 z m 1.31,-2.11 0.52,0.36 -1.07,0.21 0.03,0.73 -1.05,0.4 -0.79,0.83 -0.07,0.55 -0.45,0.06 -0.38,0.7 -1.07,0.68 -0.68,1.3 -0.59,0.08 0.45,-1.05 4.59,-4.65 0.56,-0.2 z m 15.91,-9.27 2.28,-1.33 5.49,9.64 0.04,0.59 -1.41,0.07 -3.46,1.55 -0.41,0.48 0.02,2.75 -1.5,1.1 -1.49,4.65 0.42,4.67 -0.44,0.27 -0.59,-0.39 -3.2,-0.34 0.09,1.03 -0.28,0.23 -0.44,-0.6 -0.52,0.12 -2.11,-0.99 -0.5,0.08 -1.55,1.41 -1.49,0.34 -1.09,1.11 -0.51,2.36 0,0 0.04,0.49 -0.7,1.16 -0.64,0.15 0.24,0.58 -0.4,0.26 -0.25,0.99 -0.92,-0.34 -0.22,0.92 -0.57,0.4 -4.83,-8.04 -1.07,-2.38 -1.68,-2.05 0.04,-3.26 0.82,-0.3 0.29,0.36 -0.81,0.17 0.4,0.33 -0.37,1.14 0.21,0.39 0.27,0.8 -0.33,0.55 0.47,0.19 0.19,-1.21 1.64,-1.4 1.03,-2.47 0.86,-0.5 0.64,-1.67 2.16,-0.08 0.55,-1.39 -0.05,-1.02 2.12,-2.3 0.1,-1.23 0.55,-0.3 0.01,-0.95 0.41,-0.37 0.67,0.23 0.42,-0.72 1.19,0.12 0.74,-0.69 0.26,-0.98 0.62,-0.41 3.1,1 1.06,-0.8 0.62,-0.67 0.86,-3.55 -0.26,-2.02 3.17,2.07 z"
     name="Luanda"
     id="luanda" />
  <path
     d="m 434.13022,125.31374 7.66,0.03 -0.43,3.06 -1.43,1.51 -0.7,3.13 -1.17,2.13 -0.39,1.55 -0.36,3.71 0.26,3.07 61.08,0.12 0.33,0.94 1.6,1.22 0.92,2.87 -0.47,0.85 1.22,1.16 0.1,0.79 -0.62,0.82 0.69,0.79 -1.02,2.22 0.84,1.83 -0.09,0.79 -0.44,0.5 0.25,1.08 -0.96,0.85 -0.22,1.53 -0.66,0.43 0.03,1.01 -0.76,2.4 -0.47,0.48 -0.12,0.96 -0.77,0.86 0.49,1.97 -0.67,0.69 -0.11,0.7 0.42,2.39 -0.12,0.68 -1.12,1.02 0,0.53 0.71,1.05 0.56,2 0.83,1.52 1.28,1.24 2.01,4.34 1.57,1.54 0.07,0.59 -0.5,0.51 0.89,2.97 0.01,1.67 1.65,1.14 0,0 -1.2,0.94 -2.73,1.29 -2.24,3.66 -1.07,0.23 -2.6,-0.64 -4.78,1.77 -1.13,0.85 -2.21,3.45 -9.44,1.66 -4.82,-1.22 -1.37,0.26 -1.09,0.81 -3.51,-0.43 -2.71,1.56 -1.48,0.36 -2.12,-0.09 -4.58,2.42 -0.97,2.21 -3.76,1.78 -1.06,1.01 -3.24,5.19 -1.95,6.22 -2.36,1.35 -3.67,0.48 -2.54,1.65 -1.36,1.31 -3.6,0.45 -1.25,0.71 -1.43,3.47 -0.26,2.13 -0.9,1.09 -1.07,0.77 -4.89,0.27 -1.16,0.56 -5.32,4.22 -5.83,5.38 -1.66,12.45 -0.6,1.53 -1.58,2.31 -3.47,3.72 -1.22,0.92 -6.67,1.06 -1.43,0.62 -3.54,3.04 -1.07,0.31 -3.95,0.03 -1.31,0.52 -4.94,4.22 -5.65,1.41 -3.21,3.44 -3.68,1.84 -2.56,0.97 -7.13,0.65 -1.08,0.47 -3.7,4.4 -5.93,2.59 -1.1,0.43 -8.2,-0.64 -1.1,0.26 0.47,0.93 0.92,0.46 -0.81,0.58 0.07,0.4 1.25,0.03 1.26,1.03 0,0 -1.33,0.95 -2.26,0.79 -1.34,2.24 0.37,1.2 1.08,0.64 0.65,1.24 -1.18,2.39 -6,0.48 -1.07,-0.15 -4.5,-2.88 -1.18,-0.22 -1.15,-1.38 -3.34,-2.4 -1.05,-0.5 -2.2,-0.09 -1.16,-0.47 0.01,-1.06 -2,-2.1 -0.16,-0.8 5.06,-4.66 -0.03,-1.45 -2.24,-0.8 -0.75,-0.64 -0.89,-1.52 -1.04,-0.55 -1.11,-2.93 -1.22,-0.63 -0.32,-0.86 0.34,-1.12 -0.2,-0.47 0.8,-1.1 -0.03,-0.97 -2.06,-3.06 -0.3,-1.7 -1.45,-0.36 -0.93,-1.1 -1.64,-5.27 -4.74,-2.23 -3.68,0.56 -0.81,-1.08 0.18,-2.25 -1.02,-1.12 -0.4,-1.16 -4.44,-1.14 -1.08,-0.8 -0.71,-2.21 -2.37,-0.48 -0.7,-1.11 0.44,-1.18 -0.39,-2.27 -1.15,-2.27 -1.08,-1.05 -0.37,-2.33 -1.04,-1.08 -0.24,-2.35 2.3,-1.93 5.88,-2.22 2.23,-0.34 1.02,-1.35 -0.07,-2.31 1.69,-2.36 0.29,-1.09 -0.95,-2.41 -0.23,-2.31 -0.5,-1.21 1.47,-7.81 0.13,-2.11 -0.45,-3.25 0.58,-2.13 -0.62,-2.3 0.31,-2.24 -2.27,-1.46 -1.22,-3.91 0.7,-3.42 1.71,-2.19 -0.74,-0.82 -0.71,-4.67 0.16,-1.15 -0.3,-0.99 0.77,-0.63 -0.06,-0.57 -0.87,-1.17 -0.55,-0.11 -0.12,-0.54 0.53,-1.45 0,0 1.22,0.96 2.52,0.05 3.64,-1.33 1.77,-0.23 3.73,0.69 1.4,-0.96 2.95,-0.62 2.7,0.17 2.08,1.5 0.89,-0.74 4.95,0.07 0.15,-0.58 -0.79,-0.96 0.53,-1.37 1.82,-0.27 0.89,-1.3 3.15,-0.94 2.18,0.22 1.61,-0.29 0.68,0.28 -0.39,0.31 0.22,0.68 0.74,0.19 0.35,-0.24 1.36,0.68 0.54,-0.25 0.53,0.29 1.12,-0.7 -0.36,-0.65 6.72,0 0.41,-1.98 -0.17,-1.96 12.19,0.06 0.19,1.78 -0.26,0.3 1.09,1.8 28.24,-0.23 -0.81,-4.09 -0.67,-0.66 0.64,-0.99 -0.05,-0.62 0.46,-0.27 -0.13,-2.44 1.23,-1.45 0.7,-3.4 0.42,-0.64 -0.57,-2.47 -0.99,-1.68 -0.45,-1.68 0.56,-0.28 0.05,-0.42 4.57,-0.1 1,-1.67 -0.4,-1.5 1.28,-0.66 0.5,-0.76 1.41,-0.09 -0.28,-0.74 -0.91,-0.61 0.32,-0.64 -0.59,-0.35 -1.31,-2.8 0.45,-0.62 -0.8,-2.07 0.88,-5.15 -0.47,-1.55 1.86,-4.42 1.45,-1.52 -0.76,-1.34 -0.17,-1.52 37.36,-0.07 0.76,-4.19 z"
     name="Lunda Norte"
     id="lunda-norte" />
  <path
     d="m 506.65022,200.11374 0.84,3.49 -0.86,1.67 0.13,1.71 -1.11,1.73 0.68,0.68 -1.12,1.67 0.13,1.24 -0.87,2.3 0.29,2.36 -1.16,3.22 0.11,0.48 -0.73,1.34 0.12,0.81 -0.45,1.24 0.23,0.85 -0.78,4.76 0.57,1.43 -0.92,0.82 0.01,2.53 0.86,2.63 0.1,2.72 -1.54,3.32 -0.14,1.47 -0.68,0.69 -0.64,3.33 -0.46,0.79 2.07,2.21 -0.24,1.61 1.88,3.4 -0.08,1.59 0.44,0.85 -0.23,0.79 0.35,0.52 -0.1,0.59 2.88,1.67 0.27,1.28 1.29,0.91 0.53,1.66 0.48,0.09 0.84,-0.71 -0.06,1.63 0.5,1.55 0.64,0.97 0.95,0.06 1.4,2.04 1.12,0.42 1.03,-0.53 0.67,0.94 1.11,-0.13 1.9,1.76 -0.1,1.01 0.96,1.97 -0.52,0.6 1.01,1.15 -0.3,0.72 0.61,1.71 -0.11,4.37 0.64,1.23 0.03,1.29 2.16,2.56 0.29,1.18 -0.19,0.86 1.22,1.29 1.04,2.86 -0.25,1.75 -1.33,2.32 -0.16,1.53 -0.73,0.54 -0.01,0.39 1.85,1.18 0.07,3.42 0,0 -2.02,0.85 -2.28,-0.03 -1.7,-1.07 -2.59,-0.72 -1.83,0.17 -1,-0.32 -2.18,1.95 -7.14,0.19 -1.45,-0.63 -2.97,0.24 -1.32,1.4 -1.33,2.81 -0.56,2.87 0.1,3.09 -1.7,1.09 -1.88,2.2 -0.33,4.25 -0.63,0.75 -0.07,0.62 1.37,2.72 1.07,0.07 -0.31,1 0.38,0.93 -0.15,1.98 -2.74,0.71 -0.21,0.49 -2.03,0.44 -0.7,0.61 -2.18,-0.32 -0.57,-0.72 -0.18,0.51 -1.41,-0.24 -0.94,1.74 -0.98,-0.11 -0.93,0.45 -1,-0.18 -0.97,0.61 0,0.39 -2.21,0.31 -3.17,1.68 -2.9,0.44 -0.56,0.63 -0.03,0.93 -0.98,1 -1,0.29 -1.29,2.17 -1.91,0.71 -0.96,-0.35 -2.08,1.39 -1.08,0.14 0.16,1.21 0.52,0.86 -0.35,0.89 -0.97,0.4 -5.22,-0.89 -0.94,0.38 -0.82,-0.53 -1.84,0.15 -1.93,-0.46 -1.31,-0.76 -1.49,0.4 -1.01,-1.72 -1.18,-0.15 -0.88,0.37 -2.43,-1.66 -1.18,0.12 -1.41,-0.66 -0.82,-1.25 -0.55,-0.17 -1.04,0.33 -1.49,-0.56 -1.74,-1.7 -2.61,-1.47 -1.11,0.1 -1.28,0.78 -0.89,-0.49 -1.22,-0.11 -0.92,-1.15 -1.41,-0.63 -1.04,0.27 -0.48,-0.21 -0.58,-0.79 -1.51,-0.61 -0.66,-0.72 -1.06,0.26 -3.15,3.72 -1.63,0.01 -1.96,-1.36 -1.45,0.55 -1.62,-0.34 -1.06,1.71 -0.97,0.4 -1.17,-0.11 -0.98,-1.76 -1.04,-0.01 -0.68,-0.7 -1.71,0.85 -0.81,1.26 -3.32,0.79 -2.89,-1.23 -1.98,-1.47 -1.73,-0.09 -1.53,0.84 -0.82,1.95 -2.13,2 -1.92,1.57 -1.63,0.42 -1.53,1.19 -1.11,0.27 -3.28,-0.81 -1.31,0.06 -0.87,0.5 -0.84,1.23 -2.82,0.88 0,0 0.28,-3.11 0.88,-1.22 -0.08,-1.32 1.76,-2.44 -0.2,-1.11 -1.52,-2.35 -1.23,-0.61 -2.26,0.04 -2.55,-0.47 -3.91,-4.59 -5.74,-3.64 -6.25,-3.37 0,0 -0.75,-2.59 -1.73,-1.72 -1.41,-0.71 -1.43,-1.29 -1.9,-4.28 -0.16,-3.02 -0.41,-0.85 0.71,-0.68 1.5,0.29 -0.63,-1.28 0.86,-0.43 -0.01,-0.99 0.72,-0.31 -0.93,-0.45 0.63,-0.64 -1.15,-0.92 -0.26,-1.09 -0.6,0.78 -1.41,-0.64 -0.57,-0.8 -0.32,0.37 -0.22,-1.13 -0.86,0.02 -0.31,-2.22 -0.78,-0.34 0,0 -1.26,-1.03 -1.25,-0.03 -0.07,-0.4 0.81,-0.58 -0.92,-0.46 -0.47,-0.93 1.1,-0.26 8.2,0.64 1.1,-0.43 5.93,-2.59 3.7,-4.4 1.08,-0.47 7.13,-0.65 2.56,-0.97 3.68,-1.84 3.21,-3.44 5.65,-1.41 4.94,-4.22 1.31,-0.52 3.95,-0.03 1.07,-0.31 3.54,-3.04 1.43,-0.62 6.67,-1.06 1.22,-0.92 3.47,-3.72 1.58,-2.31 0.6,-1.53 1.66,-12.45 5.83,-5.38 5.32,-4.22 1.16,-0.56 4.89,-0.27 1.07,-0.77 0.9,-1.09 0.26,-2.13 1.43,-3.47 1.25,-0.71 3.6,-0.45 1.36,-1.31 2.54,-1.65 3.67,-0.48 2.36,-1.35 1.95,-6.22 3.24,-5.19 1.06,-1.01 3.76,-1.78 0.97,-2.21 4.58,-2.42 2.12,0.09 1.48,-0.36 2.71,-1.56 3.51,0.43 1.09,-0.81 1.37,-0.26 4.82,1.22 9.44,-1.66 2.21,-3.45 1.13,-0.85 4.78,-1.77 2.6,0.64 1.07,-0.23 2.24,-3.66 2.73,-1.29 1.2,-0.94 0,0 0.38,0.86 -0.89,1.24 -0.06,1.34 z"
     name="Lunda Sul"
     id="lunda-sul" />
  <path
     d="m 204.07022,189.42374 5.43,0.79 1.25,-0.85 0.91,-1.24 1.24,-0.58 2.33,0.13 1.08,-0.59 1.95,-2.14 0.67,-2.26 0.16,-2.82 1.42,-2.11 0.09,-1.15 -0.82,-4.88 -3.23,-9.45 0.02,-2.52 2.86,-1.4 1.51,-0.19 2.18,0.32 1.2,-0.46 1.03,-1.17 1.14,-0.18 1.24,-0.71 2.36,-3.34 1.11,-2.29 2.1,-1.54 9.2,-3.4 2.16,0.42 1.11,0.84 1.39,3.65 1.04,0.95 3.94,5.67 2.17,1.85 3.29,0.65 2.2,-0.61 1.24,-1.06 0.69,-2.17 0.06,-3.6 0.81,-1.06 2.32,-1.9 1.21,-0.52 1.53,-0.16 0.95,0.59 0,0 -0.3,1.29 0.26,0.39 0.95,-0.03 0.6,-0.95 0.78,0.97 0.89,0.07 0.47,0.55 -0.17,0.54 -1.24,0.27 -0.28,0.78 0.61,0.68 1.64,0.78 0.27,0.63 -0.36,1.02 1.11,2.23 1.45,1.25 2.27,0.98 0.51,0.68 -0.32,2.12 -0.44,0.48 0.76,0.68 0.55,-0.12 0.12,0.76 0.55,0.03 -0.47,2.06 1.11,0.97 2.19,0.7 -0.09,1.41 1.2,0.09 -0.4,0.94 0.85,-0.22 0.56,0.26 -0.33,1.34 1.02,0.15 0.47,0.53 -0.62,2.18 0.77,0.82 0.67,0.04 -0.16,0.73 0.79,-0.45 0.27,0.17 0.11,2.2 -0.41,0.08 1.17,0.65 1.23,1.52 -0.07,0.24 -0.68,-0.11 -0.62,1.1 0.04,0.7 1.12,0.47 0.36,0.77 0,0 -0.53,1.45 0.12,0.54 0.55,0.11 0.87,1.17 0.06,0.57 -0.77,0.63 0.3,0.99 -0.16,1.15 0.71,4.67 0.74,0.82 -1.71,2.19 -0.7,3.42 1.22,3.91 2.27,1.46 -0.31,2.24 0.62,2.3 -0.58,2.13 0.45,3.25 -0.13,2.11 -1.47,7.81 0.5,1.21 0.23,2.31 0.95,2.41 -0.29,1.09 -1.69,2.36 0.07,2.31 -1.02,1.35 -2.23,0.34 -5.88,2.22 -2.3,1.93 0.24,2.35 1.04,1.08 0.37,2.33 1.08,1.05 1.15,2.27 0.39,2.27 -0.44,1.18 0.7,1.11 2.37,0.48 0.71,2.21 1.08,0.8 4.44,1.14 0.4,1.16 1.02,1.12 -0.18,2.25 0.81,1.08 3.68,-0.56 4.74,2.23 1.64,5.27 0.93,1.1 1.45,0.36 0.3,1.7 2.06,3.06 0.03,0.97 -0.8,1.1 0.2,0.47 -0.34,1.12 0.32,0.86 1.22,0.63 1.11,2.93 1.04,0.55 0.89,1.52 0.75,0.64 2.24,0.8 0.03,1.45 -5.06,4.66 0.16,0.8 2,2.1 -0.01,1.06 1.16,0.47 2.2,0.09 1.05,0.5 3.34,2.4 1.15,1.38 1.18,0.22 4.5,2.88 1.07,0.15 6,-0.48 1.18,-2.39 -0.65,-1.24 -1.08,-0.64 -0.37,-1.2 1.34,-2.24 2.26,-0.79 1.33,-0.95 0,0 0.78,0.34 0.31,2.22 0.86,-0.02 0.22,1.13 0.32,-0.37 0.57,0.8 1.41,0.64 0.6,-0.78 0.26,1.09 1.15,0.92 -0.63,0.64 0.93,0.45 -0.72,0.31 0.01,0.99 -0.86,0.43 0.63,1.28 -1.5,-0.29 -0.71,0.68 0.41,0.85 0.16,3.02 1.9,4.28 1.43,1.29 1.41,0.71 1.73,1.72 0.75,2.59 0,0 0.38,1.05 -0.74,1.33 -0.32,2.33 0.39,2.37 1.42,2.01 -1,3.85 0.52,0.86 1.37,0.71 1.29,1.45 -0.02,1.25 0.67,1.72 -0.53,1.06 -1.15,0.22 -1.09,-0.53 -2.22,-0.16 -6.28,1.9 -4.14,1.93 -4.04,4.18 -1.08,0.85 -1.08,0.29 -2.49,-0.32 -1.2,0.25 -2.5,-1.1 -6.32,1.59 -3.49,-0.68 -1.81,0.94 -0.86,-0.54 -0.4,-0.96 -0.88,-0.5 -2.17,0.52 -2.27,-0.42 -0.5,-0.87 0.11,-2.43 -1.07,-2.36 -2.72,-2.35 0.8,3.39 0.28,3.96 -0.33,1.47 -4.7,4.01 -0.13,1.06 -1.09,1.15 -1.11,0.02 -1.15,0.59 -0.33,1.17 -0.99,1.04 -2.18,0.25 -0.71,0.64 -0.96,-0.4 -1.08,-1.18 -2.38,-0.39 -0.27,-0.42 1.12,-2.32 -0.72,-2.01 -1.13,-1.64 -0.08,-1.17 0.73,-1.36 1.68,-1.11 -0.4,-0.93 -1.3,0.74 -0.34,-0.36 0.16,-1.48 1.03,-1.04 0.49,-2.26 -2.53,-3.66 -0.61,-2.1 -0.03,-1.69 -0.38,-0.32 -1.66,0.08 -1.41,-0.68 -0.19,-0.48 1.01,-0.36 0.43,-0.96 1.66,-0.38 0.47,-2.91 -0.49,-1.59 -1.02,-1.06 -0.52,-1.51 -1.53,-1.26 -0.11,-2.99 -0.5,-0.9 -2.77,-2.08 -1.31,-1.43 -3.08,0.18 -2.91,-0.98 -0.34,-1.65 -2.24,0.01 -0.69,1.36 -0.98,-0.36 -2.31,-1.79 -3.01,-1.16 -4.13,-0.73 -3.28,0.68 -2.25,-0.32 -2.92,-3.24 -2.64,-0.89 -0.41,-1.48 -1.48,-0.26 -0.45,-1.59 0.18,-0.52 0.87,-0.49 -0.19,-0.52 -1.36,-0.85 0,0 -1.31,-1.98 -1.22,-0.89 -2.14,-2.64 -1.07,-1.7 -2.03,-0.6 -0.28,-0.99 0.23,-2.47 -0.85,-0.54 -0.36,-1.03 -1.28,-1.43 -1.82,-0.2 -0.78,-0.57 -0.63,-3.79 0.35,-0.98 2,-1.5 0.3,-0.76 -1.29,-2.65 -0.31,-3.09 -2.11,-2.71 0.41,-3.04 -0.87,-1.17 -2.14,-0.92 -1.04,-0.84 -0.74,-2.34 -1.81,-2.2 -5.25,-0.55 -3.42,-0.77 -4.9,0.68 -3.44,-1.01 -1.23,0.14 -2.28,3.16 -3.61,0.22 -3.35,-0.62 -2.31,0.46 -1.16,-0.28 -2.26,0.53 -2.16,-0.25 -2.2,0.42 -2.5,0.99 -1.72,0.1 -2.03,-0.04 -0.91,-0.47 -1.14,0.23 -2.09,-0.29 -1.48,-1.22 -0.97,-0.03 -1,-1.05 -0.98,-0.4 -0.75,-0.96 0,0 2.61,-2.28 0.3,-1.05 -0.6,-3.53 -0.69,-1.12 -1.15,-0.84 -0.11,-1.06 3.44,-3.03 -0.56,-2.4 -2.89,-2.09 1.56,-0.61 1.74,0.32 2.79,-0.51 0.25,-3.11 0.48,-1.58 1.38,-1.34 1.51,-0.54 2.41,0.03 0.93,-0.41 1.41,-1.37 1.72,-0.1 1.98,-1.42 0.62,0.02 1.21,0.88 0.93,0.03 0.93,-0.36 2.46,0.09 1.68,-1.11 0.41,-2.96 -0.57,-3.49 0.81,-2.2 0.58,-4.69 1.81,-5.68 1.46,-2.25 -1.07,-2.45 -2.46,-0.16 -1.08,-0.73 -1.37,-2.87 3.26,-4.62 -0.26,-2.22 6.39,-1.58 1.32,-1.54 -0.68,-0.96 0.32,-1.4 -0.61,-0.76 0.26,-2.04 -0.65,-1.33 z"
     name="Malange"
     id="malange" />
  <path
     d="m 370.92022,350.77374 2.82,-0.88 0.84,-1.23 0.87,-0.5 1.31,-0.06 3.28,0.81 1.11,-0.27 1.53,-1.19 1.63,-0.42 1.92,-1.57 2.13,-2 0.82,-1.95 1.53,-0.84 1.73,0.09 1.98,1.47 2.89,1.23 3.32,-0.79 0.81,-1.26 1.71,-0.85 0.68,0.7 1.04,0.01 0.98,1.76 1.17,0.11 0.97,-0.4 1.06,-1.71 1.62,0.34 1.45,-0.55 1.96,1.36 1.63,-0.01 3.15,-3.72 1.06,-0.26 0.66,0.72 1.51,0.61 0.58,0.79 0.48,0.21 1.04,-0.27 1.41,0.63 0.92,1.15 1.22,0.11 0.89,0.49 1.28,-0.78 1.11,-0.1 2.61,1.47 1.74,1.7 1.49,0.56 1.04,-0.33 0.55,0.17 0.82,1.25 1.41,0.66 1.18,-0.12 2.43,1.66 0.88,-0.37 1.18,0.15 1.01,1.72 1.49,-0.4 1.31,0.76 1.93,0.46 1.84,-0.15 0.82,0.53 0.94,-0.38 5.22,0.89 0.97,-0.4 0.35,-0.89 -0.52,-0.86 -0.16,-1.21 1.08,-0.14 2.08,-1.39 0.96,0.35 1.91,-0.71 1.29,-2.17 1,-0.29 0.98,-1 0.03,-0.93 0.56,-0.63 2.9,-0.44 3.17,-1.68 2.21,-0.31 0,-0.39 0.97,-0.61 1,0.18 0.93,-0.45 0.98,0.11 0.94,-1.74 1.41,0.24 0.18,-0.51 0.57,0.72 2.18,0.32 0.7,-0.61 2.03,-0.44 0.21,-0.49 2.74,-0.71 0.15,-1.98 -0.38,-0.93 0.31,-1 -1.07,-0.07 -1.37,-2.72 0.07,-0.62 0.63,-0.75 0.33,-4.25 1.88,-2.2 1.7,-1.09 -0.1,-3.09 0.56,-2.87 1.33,-2.81 1.32,-1.4 2.97,-0.24 1.45,0.63 7.14,-0.19 2.18,-1.95 1,0.32 1.83,-0.17 2.59,0.72 1.7,1.07 2.28,0.03 2.02,-0.85 0,0 -0.12,3.37 0.5,0.69 0.49,2.53 -0.32,1.58 -1.29,0.98 -1.72,0.17 -1.73,0.85 -2.51,1.97 -0.32,1.13 0.38,1.63 1.19,1.88 0.04,2.64 0.65,1.87 0.04,3.44 2.11,3.07 0.31,1.46 -0.54,1.59 0.95,1.13 1.06,-0.28 1.71,-1.84 0.83,-1.53 4.23,-0.08 2.85,-2.72 0.15,-1.12 -0.44,-1.47 0.42,-0.85 0.62,-0.46 2.57,-0.59 1.14,0.27 3.36,2.33 3.44,1.37 3.46,0.07 0.85,-1.41 1.11,-0.11 1.68,-0.95 1.8,0.97 2.7,0.84 2.74,0.1 3.44,1.19 3.36,-1.54 2.52,0.45 4.23,-3.55 7.22,-4.64 3.46,0.41 1.71,0.66 2.22,1.68 2.15,-0.13 2.13,0.88 1.76,-0.02 1.85,-0.78 3.45,1.78 1.81,-0.01 1,-0.51 0.85,-1.46 2.71,-1.66 0.78,-0.82 0.95,-2.08 0.79,-0.26 -0.45,1.09 1.43,1.27 0.23,0.44 -0.25,0.64 0.51,0.44 -0.69,4 0.35,2.3 -0.64,1.29 1.28,0.84 0.17,0.57 0.1,6.28 1.14,1.91 1.08,4.2 -0.55,1.03 -1.21,0.46 -0.76,0.86 -0.22,1.24 0.49,2.72 -1.63,3 -0.62,2.64 -0.97,0.94 1.19,2.77 0.14,1.85 1.31,3.73 -0.22,0.6 -0.87,0.64 -0.62,2.75 -0.34,10.48 0.13,2.14 1.4,3.08 2.69,2.49 -0.22,0.53 0.44,1.39 -0.98,1.2 1.03,0.79 0.19,1.16 -0.26,2.45 -2.29,1.72 -0.69,1.56 -0.82,0.45 -0.22,0.86 -0.98,0.39 -0.2,0.9 -0.57,0.67 0.22,3.19 -1.47,2.59 0.14,2.16 -0.99,2.48 -0.47,4.03 0.07,0.59 1.02,0.8 0.26,0.69 2.28,1.17 2.37,2.43 0.74,2.21 -100.59,0.71 -0.01,160.43 0,0 -1.69,-1.61 -6.67,-3.76 -0.28,-1.77 -0.69,-0.71 0.11,-1.19 -1.58,-1.26 -0.74,-1.37 -0.19,-1.6 -0.71,-0.67 -1.22,0 -0.36,-0.35 0,-1.16 -0.45,-0.98 0.33,-0.91 -1.82,-1.01 -1.3,-0.04 -2.14,-2.07 -1.32,-3.56 -1.57,-1.23 0.29,-2.16 -1.61,-1.23 -0.87,-1.9 -0.41,-0.31 -1.17,-0.01 -0.7,-0.73 -0.23,-1.12 0.29,-3.16 -0.83,-1.97 -0.94,-0.42 -0.56,-0.8 -2.39,-0.33 -1.5,-1.32 -1.11,-0.3 -1.69,-1.85 -1.47,-4.75 -1.72,-1.05 -2.38,0.16 -0.65,-0.88 0.39,-1.6 -0.45,-0.1 -0.88,0.55 -1.01,-0.4 -1.26,-2.22 -1.24,-0.92 -2.17,-2.69 -2.54,-0.68 -1.22,-0.84 -0.52,-0.92 -0.92,0.42 -1.21,0.02 -1.81,-1.68 -1.16,-0.01 -0.45,0.94 -0.54,0.17 -4.72,-0.97 -0.93,-1.16 -0.97,-0.36 -1.9,0.9 -1.65,-0.37 -2.35,1.13 -2.76,-0.65 -2.92,1.2 -4.5,-1.06 -3.78,0.36 -2.79,-1.48 -2.23,-0.51 -4.07,-2.24 -1.48,-2 -1.99,-1.45 -1.4,-2.41 -1.15,-0.29 -0.48,-0.83 -1.03,0.34 -0.52,-0.19 -0.03,-1.25 -1.1,0.06 -0.66,-1.49 -3.3,-2.27 -0.34,-0.91 -1.18,-0.94 -0.43,-0.92 -1.47,-0.67 -0.44,-1.57 -2.21,-1.25 -1.57,-3.97 -1.52,-1.27 -0.56,-2.92 -2.66,-2.18 -0.95,-2.51 -0.73,-0.82 -5.71,1.18 -2.18,-0.71 -1.6,0.26 -1.2,-0.26 -2.17,-1.83 -1.15,-0.43 -1.08,0.36 -2.64,1.43 0.08,2.15 1.67,5.93 -6.97,-3.76 -1.16,0.08 -4.91,1.88 -0.5,0.06 -1.4,-0.98 -0.57,0.01 0.09,-0.62 -1.08,-1.09 -0.02,-0.86 -1.13,-1.07 -0.08,-1.59 -0.95,-0.54 -1.15,-2.38 -0.22,-1.67 0.47,-0.99 -1.45,-3.88 0.52,-1.55 -0.2,-0.49 -2.47,-3.54 -0.35,-1.7 -0.86,-1.23 -2.21,-1.34 -0.36,-1.36 -0.83,-0.64 -0.77,0.27 -0.69,-0.84 -2.04,-1.32 -0.82,-1.09 -1.11,-0.42 -2.31,0.87 -1.13,-0.41 -4.72,-3.46 -2.26,-1.15 -3.31,0.75 -1.15,-0.06 -13.63,-7.87 0,0 -0.09,-1.08 -0.6,-1.12 1.71,-2.77 -0.38,-1.4 -1.54,-2.28 3.29,-2.88 3.89,-1.38 0.32,-1.08 -0.27,-2.35 -2.57,-4.57 1.82,-2.29 -0.64,-1.36 3.5,-1.57 0.45,-2.21 1.1,-1.08 1.23,-0.36 0.44,-1.13 -0.17,-1.08 -1.88,-3.49 -0.02,-1.31 1.21,-1.06 0.67,1.12 3.77,-3.63 2.27,-1.22 0.4,-1.06 -0.51,-2.35 3.92,-4.26 1.63,-2.26 0.33,-1.17 -0.41,-2.38 0.98,-1.05 5.08,-4.72 2.7,-0.4 1.22,-0.99 0.86,-1.55 1.24,-0.91 2.64,-0.51 0.87,-1.06 0.33,-1.31 -1.05,-0.95 0.04,-1.16 6.43,-5.77 0.95,-1.26 0.13,-1.85 -1.45,-2.44 -0.19,-1.32 0.46,-1.2 0.96,-1.29 1.08,-0.57 0.77,-3.3 0.8,-1.15 1.25,0.56 1.17,-0.09 0.72,-1.12 -0.2,-1.07 -1.06,-0.95 -0.2,-1.07 1.09,-0.57 3.42,-0.15 1.09,-1.09 0.42,-1.09 0.35,-4.38 0.49,-1.06 2.24,-2.16 0.99,-1.5 z"
     name="Moxico"
     id="moxico" />
  <path
     d="m 1.7902175,605.91374 0.78,0.16 0.14,0.5 -0.04,1.83 0.27,0.47 -0.42,0.92 0.6,1.26 -0.04,2.91 0.49,0.78 0.08,1.61 -1.33,-1.29 -2.06999999,-5.68 0.01,-2.03 0.71,-0.98 0.81999999,-0.46 z m 41.6300005,-151.15 3.43,0.03 2.25,0.87 3.51,0.33 2.26,1.1 2.54,0.05 2.09,1.87 1.07,0.45 4.28,-1.98 3.65,-1.02 0.85,-2.3 1.22,-0.2 2.23,1.08 3.75,0.3 3.35,0.99 1.1,0.62 0.31,1.19 -1.12,2.35 -0.22,1.18 0.34,1.08 2.79,3.54 1.52,3.59 1.19,0.76 2.21,-1.27 1.25,0.25 2.16,1.32 1.07,0.24 1.41,-0.31 0,0 0.89,2.73 2.15,1.46 0.35,1.19 -0.32,1.14 -2.18,3.57 -0.44,1.58 1.19,2.36 0.68,2.41 -0.81,2.55 0.48,1.22 1.16,0.8 1.11,-0.59 1.16,0.52 -0.4,2.48 0.49,2.21 0.19,4.21 -2.74,3.74 -0.27,4.79 -2.47,5.79 -2.93,2.02 -3.7,1.63 -3.59,2.8 -0.95,1.27 -2.37,0.36 -2,2.17 0,1.4 1.24,3.59 -2.04,2.41 -0.36,1.24 2.92,3.44 -0.38,1.2 -3.68,2.11 0.09,1.19 1.12,1.02 2.38,-0.65 1.42,0.28 0.19,1.65 -0.36,1.34 1.04,1.26 1.16,-0.1 1.22,-0.83 0.52,-1.07 1.37,0.33 0.76,2.33 -0.65,2.46 0.74,1.14 2.35,1.85 3.75,1.41 -0.31,12.17 0.24,1.12 2.38,3.65 -3.86,6.89 -1.84,4.66 0.49,2.3 1.99,3.66 -0.07,1.09 -1.1,1.05 -0.43,1.11 -1.29,0.7 0,0 -4,4.57 -0.94,0.07 -1.45,1.35 -0.55,-0.71 -0.78,1.55 -1.56,0.09 -1.11,1.72 -1.48,0.2 -0.79,0.61 -1.13,1.75 2.01,1.92 0.71,1.15 0.23,1.15 -1.77,2.54 -1.24,0.84 -1.12,0.14 -1.14,1.11 -1,2.29 0.38,1.24 1.01,1.27 7.14,7.12 1.34,2.51 0.2,2.61 0.47,0.09 0,0 -3,0.57 -0.9,0.52 -2.09,-0.73 -1.08,0.09 -0.54,-1.02 -0.51,0.29 -2.04,-0.48 -2.32,0.92 -1.42,-0.22 -4.11,0.52 -1.85,1.74 -1.36,0.15 -1.05,1.11 -1.04,0.18 -0.23,0.97 -1.4,0.92 -0.99,0.19 -0.83,1.47 -1.39,0.31 -3.33,2.43 -0.59,-0.11 -2.17,0.95 -1.97,1.24 -0.53,1.1 -1.15,-0.02 -0.7,0.62 -0.85,-0.12 -0.95,0.45 -1.55,-0.01 -0.48,-0.35 -1.83,1.16 -0.56,-0.23 -0.23,-2.21 -0.44,-0.37 -1,-0.13 -0.35,0.69 -0.58,-0.03 -0.51,0.55 -1.13,-0.57 -3.07,1 -0.97,-0.36 -1.06,0.26 -3.05,-2.02 -1.01,-1.98 -1.39,0.26 -1.47,-0.24 -1.3,-0.76 -0.86,0.59 -0.94,-0.18 -2.19,0.97 -2.69,0.56 -2.07,1.2 -1.18,1.32 -1.1500005,0.47 -1.14,-0.24 -0.81,1.38 -0.45,0.18 -1.07,0.03 -1.87,-0.93 0.01,-11.24 0.53,-4.64 0.95,-3.17 -0.55,-5.1 0.82,-0.63 -0.22,0.46 0.43,0.04 -0.36,0.36 -0.31,2.03 0.57,-0.06 0.73,-0.84 0.34,-1.21 0.55,-3.74 -0.36,-1.38 0.15,-0.18 0.23,-0.09 0.01,-1.89 -0.44,-0.7 0.43,-0.41 -0.41,-1.16 0.25,-0.07 0.33,-7.06 -1.81,-16.5 -0.01,-2.04 0.78,-3.58 -1.2,-2.55 -2.2,-3.21 -0.22,-1.65 0.93,-2.76 1.34,-1.95 0.4,-0.11 -0.01,0.42 0.53,0.23 1.69,-0.68 1.22,0.03 -0.12,0.31 -1.11,-0.23 -1,0.47 0.06,0.33 0.71,0.24 1.19,-0.11 1.6200005,-0.85 0.66,-1.57 0.69,-0.41 0.82,-3.51 1.97,-0.89 1.41,-1.41 0.45,-1.96 0.75,-1.24 0.55,-4.15 -0.04,-4.62 0.64,-2.23 0.51,-0.52 0.08,-5.49 1.82,-1.62 0.7,-0.01 0.97,-0.77 0.75,0.55 0.62,-0.69 0.15,-1.13 -0.66,-1.62 -0.33,-0.18 -0.41,0.55 -0.81,-0.03 0.29,-1.3 0.45,-1.34 0.53,-0.41 0.52,-1.79 1.04,-0.97 -0.27,-1.85 0.37,-1.27 1.07,-0.55 0.56,-2.46 0.53,-0.2 -0.16,-2.42 0.49,-0.66 1.31,-0.35 0.81,-2.28 1.11,-1.46 -0.12,-1.44 -0.68,-1.39 1.22,-1.53 -0.21,-1.97 0.44,-0.69 0.34,-2.17 0.56,-3.23 0.84,-1.74 0.06,-1.38 0.47,-0.11 0.62,-4.03 -0.33,-1.4 0.84,-1.28 -0.26,-0.91 0.27,-0.39 -0.75,-0.93 0.04,-1.25 -1,-1.42 -0.15,-1.18 0.04,-0.48 0.56,0.28 0.88,-0.41 0.47,-1.28 -0.89,-2.71 0.4,-2.15 0.79,-0.35 0.74,-0.98 0.44,-2.75 -0.26,-0.14 0.08,-0.93 0.48,-0.36 0.18,0.32 0.74,-0.76 -0.41,-2.19 0.19,-1.02 3.57,-0.53 -0.36,0.65 1.21,0.1 0.86,-1.77 -0.47,-0.2 0.1,-1.68 0.26,-1.25 -0.23,-0.99 0.51,-0.94 -0.29,-0.21 0.42,-2.48 -0.21,-0.94 0.44,-1.97 -0.57,-0.34 0.06,-0.88 0.23,-0.66 0.85,-0.52 -0.01,-0.9 0.19,-0.73 -0.56,-0.2 -0.19,-0.53 0.34,-0.7 z"
     name="Namibe"
     id="namibe" />
  <path
     d="m 232.66022,73.84374 0.95,0.98 1.91,0.38 3.37,-0.87 4.34,1.98 0.05,1.16 -0.57,1.21 0.12,0.57 0.72,0.32 -0.39,0.84 0.47,1.91 -0.43,0.89 0.17,0.33 1.26,-0.21 0.24,0.33 -0.38,0.36 -0.85,0.01 -0.06,0.51 1.83,0.55 0.26,0.49 -0.18,1.01 0.69,-0.15 0.55,0.67 0.94,0.08 1.57,1.3 -0.02,0.69 0.48,0.69 -1.01,2.05 0.4,1.18 -0.45,1.54 0.77,2.63 -0.45,0.85 -1.28,-0.29 -0.08,0.43 0.74,0.62 -0.62,1.42 1.35,0.21 0.7,0.77 -1.04,1.02 1.15,1.37 -0.36,1.32 1.76,1.36 -0.68,1.85 0.11,0.65 1.24,0.73 0.85,4.37 0.36,0.82 1.47,0.8 0.29,2.76 1.72,1.67 0.23,2.05 0.94,0.56 0.99,-0.26 1.23,1.08 -0.17,1.99 0.5,0.76 -0.41,1.76 0.56,0.72 1.12,0.26 0.49,1.84 -0.94,2.72 -0.73,-0.16 -0.27,-0.68 -0.72,0.35 -0.04,0.78 1.12,2.07 0.14,1.3 0.83,0.87 -0.77,0.91 -0.05,0.73 1.72,1.35 0.75,1.61 0.08,1.81 1.23,-0.11 0.73,1.15 0.96,0.31 0.58,0.76 1.63,0.17 0.34,0.56 -0.1,1.67 0,0 -0.95,-0.59 -1.53,0.16 -1.21,0.52 -2.32,1.9 -0.81,1.06 -0.06,3.6 -0.69,2.17 -1.24,1.06 -2.2,0.61 -3.29,-0.65 -2.17,-1.85 -3.94,-5.67 -1.04,-0.95 -1.39,-3.65 -1.11,-0.84 -2.16,-0.42 -9.2,3.4 -2.1,1.54 -1.11,2.29 -2.36,3.34 -1.24,0.71 -1.14,0.18 -1.03,1.17 -1.2,0.46 -2.18,-0.32 -1.51,0.19 -2.86,1.4 -0.02,2.52 3.23,9.45 0.82,4.88 -0.09,1.15 -1.42,2.11 -0.16,2.82 -0.67,2.26 -1.95,2.14 -1.08,0.59 -2.33,-0.13 -1.24,0.58 -0.91,1.24 -1.25,0.85 -5.43,-0.79 0,0 -0.24,-4.78 -0.67,-0.7 -0.52,0.1 -0.25,0.46 -0.55,-0.15 -0.64,-1.81 -0.01,-0.53 1.43,-0.26 -0.01,-0.44 -1.77,-0.96 -1,-1.09 -4.53,0.07 -1.75,1.65 -2.9,0.91 -1.73,-0.11 -1.75,-0.74 -0.41,-1.65 0.14,-1.64 -0.82,-1.24 -1.45,-0.78 -5.98,0.15 -4.5,1.07 0.39,2.6 -1.04,1.68 -0.16,1.25 0.32,0.34 0.97,-0.34 1.07,1.04 -0.05,0.58 -1.07,1.64 -0.05,3.09 -0.41,0.2 -0.44,1.29 -0.93,0.14 -0.34,1.04 -1.3,0.11 -0.66,2.09 -2.72,-0.32 -2.57,1.23 -2.49,-1.63 -2.52,-0.24 -1.76,1.66 -0.52,1.89 -1.94,2.16 -2.39,0.96 -1.76,-0.15 -1.93,-0.85 -1.83,0.31 -0.64,-1.95 0,0 -0.89,-2.77 0.06,-2.54 0.64,-2.3 3.04,-4.58 0.32,-1.11 -0.18,-3.3 0.62,-4.74 -0.25,-1.28 -1.14,-0.95 -2.4,-0.3 -7.31,1.54 -3.47,-0.34 -2.4,-1.43 -2.33,-0.65 -1.1,-0.78 -3.82,-4.8 -1.1,-0.78 -0.82,-1.14 -1.07,-0.38 -1.07,-0.94 0.03,-1.09 -0.96,-1.13 -1.08,-0.35 -2.14,0.2 -4.56,-0.39 -1.13,0.39 -2.17,-0.28 -2.22,0.2 -2.06,-0.54 0,0 1.05,-3.1 1.44,-0.59 2.15,-0.13 1.55,-1.86 0.49,0.08 0.45,-0.87 -0.64,-1.1 -2.1,-1.36 -0.55,-1.1 0,-1.08 -1.96,-1.97 -0.07,-1.22 0.82,-2.22 2.96,-3.36 0.17,-1.19 -2.15,-1.42 -1.97,-2.05 -1.14,-4.65 -1.54,-2.45 0.6,-0.52 1.78,-0.25 2.27,0.07 0.44,0.29 1.64,-0.26 4.39,-3.77 5.9,-1.55 2.46,-1.59 2.09,-0.55 0.98,-2.47 0.89,-1.13 0.16,-1.07 2.88,-1.88 1.05,-0.28 3.54,0.38 3.31,-1.47 2.04,-2.59 3.44,0.14 3.42,-0.66 4.82,-1.96 5.56,-8.8 1.96,-1.51 2.64,-3.65 -3.79,-2.56 -0.86,-1.08 -0.04,-3.88 -0.62,-2.28 -1.22,-2.26 -4.03,-5.42 -0.45,-1.54 0,0 17.58,-0.48 20.07,0.26 7.11,-0.33 9.21,0.52 19.33,-0.67 z"
     name="Uíge"
     id="uige" />
  <path
     d="m 32.820218,84.12374 -0.53,1.46 -1.2,0.1 0.62,0.19 0.45,0.04 -0.31,1.35 -0.25,0.37 -0.7,-0.23 -0.7,0.49 -0.27,-0.79 0.14,-1.4 2.75,-1.58 z m 81.570002,-11.6 2.56,2.1 2.01,-0.89 4.19,0.13 0.65,-0.35 2.68,1.36 3.14,-0.34 3.49,0.68 4.57,0.25 2.49,-0.53 4.24,0.98 5.12,-1.44 3.11,0.01 0,0 0.45,1.55 4.03,5.42 1.22,2.26 0.63,2.29 0.04,3.87 0.85,1.08 3.79,2.56 -2.64,3.66 -1.96,1.51 -5.56,8.8 -4.82,1.96 -3.42,0.66 -3.44,-0.14 -2.05,2.59 -3.31,1.47 -3.53,-0.38 -1.05,0.29 -2.88,1.88 -0.16,1.07 -0.89,1.14 -0.98,2.47 -2.09,0.55 -2.46,1.59 -5.9,1.55 -4.39,3.77 -1.64,0.26 -0.44,-0.29 -2.27,-0.07 -1.78,0.25 -0.6,0.52 1.54,2.45 1.14,4.64 1.97,2.06 2.15,1.41 -0.17,1.19 -2.96,3.36 -0.81,2.22 0.07,1.22 1.96,1.96 0,1.08 0.55,1.1 2.1,1.36 0.64,1.1 -0.45,0.88 -0.49,-0.08 -1.55,1.85 -2.14,0.14 -1.44,0.59 -1.05,3.1 0,0 -4.71,2.73 -1.16,0.11 -0.940002,-0.41 -1.5,0.37 -1.47,1.27 -0.95,-0.1 -0.83,0.55 -2.65,0.36 -1.16,0.88 -2.32,0 -2.26,-1.87 -1.01,-0.34 -4.26,1.18 -1.07,1.62 -1.89,-0.73 -1.75,1.66 -1.92,0.8 -4.47,0.88 0,0 -1.04,-1.52 -0.36,-2.12 -0.05,-0.42 -1.56,-3.03 -0.34,-1.67 -1.09,-1.24 0.49,-1.18 -1.03,-1.03 -1.77,-4.67 -0.77,-1.32 -1.08,-4.86 -2.97,-3.22 -0.15,-1.17 0.33,-1.14 -0.31,-0.85 -0.37,-2.65 0.36,-2.03 -1.1,-4.08 0.08,-1.71 -1.18,-1.84 -0.08,-0.38 -2.25,-2.59 -0.59,-1.48 -9.08,-9.97 -0.34,-1.52 -2.68,-4.05 -5.22,-11.17 -5.4,-7.88 0.59,0.03 0.55,-0.46 0.57,-0.98 0.97,0.26 0.22,-0.14 -1.09,-0.41 0.11,-0.53 1.31,0.17 1.15,-0.53 1.49,0.33 0.04,-0.05 -0.31,-0.34 1.6,-0.31 1.07,0.37 0.48,0.27 -0.49,-1.76 4.39,-1.23 3.88,-1.85 3.88,-0.39 2.67,-1.59 3.58,-0.26 3.35,-1.25 6.59,-3.61 2.54,-0.03 1.14,1.06 0.99,0.33 3.03,-1.28 3.14,-0.48 5.49,1.75 1.12,-1.22 0.69,-0.27 5.48,-0.08 2.05,0.5 1.21,-0.24 12.640002,0.05 3.24,-0.97 2.79,0.13 1.66,-0.89 z"
     name="Zaire"
     id="zaire" />
</svg>
