<svg
	xmlns="http://www.w3.org/2000/svg"
	viewBox="0 0 346 793"
	aria-label="Map of Sweden"
> 
	<path
		id="blekinge"
		name="Blekinge"
		d="m 90.133614,740.16334 2.19,0.61 0.47,0.31 0.69,0.66 0.74,1.07 0.7,0.86 3.7,0.35 1.34,0.01 1.009996,-0.12 0.82,-0.78 1.39,-1.72 2,-0.91 3.33,-0.1 2.12,-0.41 0.82,-0.29 0.45,-0.34 0.68,-0.79 0.21,-0.22 3.7,-0.2 1.22,0.05 3.74,3.86 1.88,2.58 0.58,0.87 0.67,0.53 1,0.43 2.86,0.39 2.54,-0.33 -0.3,2.12 -0.93,2.43 -0.25,0.44 -3.52,5.5 -2.03,-0.93 -0.34,-1.7 -3.09,-1.47 -1.61,-0.75 -5.88,2.68 -0.4,0.21 -0.29,-0.02 -6.23,-0.83 -0.65,-0.4 -0.16,-0.15 -0.06,-0.25 -9.599996,0.33 -0.54,0.02 -0.16,0.16 -0.11,0.24 -0.18,0.96 -0.01,0.56 0.07,0.24 0.12,0.2 0.17,0.15 0.45,0.25 0.13,0.17 0.95,1.87 0.45,1.1 -0.03,0.29 -0.75,0.91 -0.49,0.5 -2.23,-0.34 -0.39,-1.03 -0.45,-1.07 -1.18,-0.25 -0.2,0.1 -0.26,0.19 0.55,-0.7 0.25,-0.67 0.03,-0.57 0.04,-1.79 -0.2,-1.68 -0.25,-1.29 -0.15,-0.51 -0.54,-0.49 -1.76,-0.02 -0.62,0.39 -0.44,-0.25 -1.21,-3.95 0.15,-0.64 0.04,-0.16 0.77,-2.38 0.73,-1.57 z"
	/>
	<path
		id="dalarna"
		name="Dalarna"
		d="m 31.633614,438.62334 0.03,0.07 0.85,0.71 2.2,1.32 1.03,0.5 2.41,0.85 1.31,-0.2 2.87,-0.13 1.11,0.13 0.69,0.31 0.66,0.87 2.04,2.79 2.55,3.52 0.42,0.69 2.91,2.22 0.63,0.19 1.56,-0.63 2.1,-0.79 2.26,2.49 -0.84,1.05 -1.82,1.72 -1.2,0.96 -0.13,0.95 1.22,1.4 0.91,0.84 1.65,2.44 3.46,5.66 0.31,0.54 -0.1,1.06 0.08,1.46 0.55,1.23 0.53,0.82 4.54,0.8 0.96,-0.03 5.24,0.43 1.7,0.45 4.08,0.51 2.63,0.18 0.86,0.03 0.62,0.14 0.62,0.22 0.55,0.86 0.81,1.05 1.79,-1.12 0.88,-0.16 2.72,-0.06 2.14,0.04 0.68,2.08 0.27,1.29 -0.05,0.83 -0.01,1.3 0.78,0.28 1.27,0.31 1.29,0 6.359996,-0.11 0.54,-0.11 0.66,-0.58 0.34,-0.8 0.45,-1.46 2.09,2.44 0.43,1.08 0.36,0.55 0.8,1.06 1.55,2.03 0.67,0.86 0.98,1.15 4.49,5.23 2.52,2.88 0.27,0.5 0.22,0.58 0.2,0.85 0.16,1.12 0.03,0.49 0.19,1.52 0.16,0.62 0.12,0.5 0.63,1.35 0.47,0.82 0.31,0.42 0.31,0.42 0.61,0.63 0.58,0.49 3.74,1.92 2.37,0.53 2.71,0.59 1.09,2.44 1.44,2.42 0.63,1.03 1.41,2.02 1.17,1.58 0.46,0.72 0.11,0.75 0.14,2.39 -2.74,4.58 -1.01,1.38 -0.93,0.5 -1,0.41 -0.72,0.13 0.05,1.19 0.31,0.93 1.35,3.53 2.37,3.31 1.1,1.42 0.94,1.14 0.48,0.37 0.68,0.35 1.49,0.62 0.57,0.4 0.86,0.83 0.53,1.4 0.18,0.52 0.47,1.25 0.34,0.92 0.41,0.77 1.89,2.16 -2.11,1.34 -2.45,1.86 -3.78,2.94 -0.61,0.49 -0.56,0.27 -1.33,0.44 -0.67,0.08 -2.3,-0.15 -0.54,-0.5 -0.24,-0.5 -0.07,-0.76 0.13,-0.5 0.23,-1.09 -0.47,-0.44 -3.02,-2.5 -1.89,0.28 -4.27,1.06 -0.95,0.96 -1.54,4.95 -0.2,0.74 -0.01,0.56 0.46,0.41 0.5,0.44 -0.14,0.57 -0.66,1.93 -0.39,0.98 -0.69,0.53 -1.38,-0.13 -0.44,-0.59 -0.62,-0.13 -0.85,0.03 -0.49,0.19 -0.35,0.54 -1.06,1.96 -0.66,1.33 -0.45,1.02 -0.99,-0.57 -3.42,-3.67 -0.46,-0.78 -0.7,-1.39 -0.27,-0.84 -0.69,-1.08 -3.1,-2.17 -1.83,-0.6 -0.66,0.04 -0.45,0.68 -1.12,0.19 -0.499996,-0.09 -0.5,-0.57 -0.82,-1.37 -0.48,-0.53 -0.63,-0.44 -0.59,0.31 -0.85,0.62 -0.31,0.48 0.53,2.52 0.16,0.59 0.15,0.57 -0.15,1.06 -4.48,-0.72 -0.5,-0.15 -1.17,-0.66 -1.23,-0.14 -0.68,0.16 -0.11,-0.28 -0.29,-0.53 -1.34,-1.13 -2.24,-1.3 -2.19,-1.22 -0.63,-0.59 -0.29,-0.81 -0.1,-0.66 -0.08,-1.43 -0.05,-1.21 -1.02,-1.12 -0.74,-0.69 -2.38,-0.51 -0.46,0.9 0.05,1.13 -1.26,0.59 -0.61,-0.69 -1.97,-2.94 -1.77,-2.79 -0.77,-1.27 -0.56,-1.14 -0.85,-1.88 -0.36,-0.55 -1.01,-0.49 -0.92,-0.06 -0.95,-0.22 -1.5,-0.73 -0.77,-0.8 -0.39,-0.71 -2.51,-4.97 -3.28,-6.83 -3,-4.81 -3.18,-3.44 -6.48,-6.92 -1.77,-1.74 -0.25,-0.61 -1.3,-4.38 0.86,-1.65 2.69,-6.18 0.65,-2.42 0.91,-3.69 0.66,-2.76 -2.18,-2.88 -6.44,-8.37 -0.18,-0.06 -1.1,-0.12 -0.35,-0.02 -0.62,0.06 -0.38,-0.04 -0.63,-0.22 -0.37,-0.4 -6.56,-7.61 -0.53,-0.61 0.93,-6.47 0.28,-1.91 0.31,-1.9 0.49,-2.85 0.39,-2.4 1.15,-7.69 z"
	/>
	<path
		id="gavleborg"
		name="Gävleborg"
		d="m 111.67361,438.77334 0.37,-0.27 1.04,-0.86 1.01,-0.92 0.93,-0.99 0.89,-0.62 2.4,-0.39 0.5,0 1.65,0.2 1.49,0.52 1.96,0.93 2.88,1.28 2.23,0.95 6.14,1.41 1.87,0.38 2.43,0.05 0.58,-0.1 1.28,-0.03 3.09,0.65 4.55,0.97 4.08,1.12 0.95,0.37 3.08,0.68 4.47,0.86 3.61,0.36 1.27,0.14 1.71,0.47 0.6,0.21 -0.52,6.69 -0.32,0.53 -0.18,0.24 -0.2,0.18 -0.26,0.1 -0.24,-0.17 -0.26,-0.1 -0.22,0.14 -0.18,0.25 -1.04,1.94 -0.11,0.32 -0.12,1.06 -0.23,6.07 1.3,3.43 1.44,1.65 0.78,-0.3 0.37,0.08 0.29,0.16 0.14,0.23 0.62,1.24 0,0.3 -0.59,3.14 -0.06,0.22 -0.14,0.27 -0.17,0.25 -0.26,0.09 -0.85,-0.23 -0.33,-0.12 -0.28,-0.45 -0.06,-0.29 -0.15,-0.54 -0.64,-1.84 -0.1,-0.26 -0.48,-0.47 -0.37,-0.35 -0.38,-0.33 -0.33,-0.11 -2.46,-0.44 -0.35,-0.04 -1.87,0.1 -0.26,0.09 0.05,0.29 0.2,0.2 0.23,0.18 0.68,0.15 0.28,-0.06 0.35,0.04 0.33,0.11 1.07,0.68 0.23,0.17 0.05,0.28 -0.08,0.37 -0.14,0.29 -1.93,1.95 -0.24,0.15 -0.25,0.1 -0.35,-0.03 -0.32,-0.11 -0.48,-0.36 -0.05,-0.28 -0.24,0.02 -0.23,0.15 -0.2,0.19 -0.18,1.53 0.63,3.11 1.19,1.87 0.14,0.23 1.44,4.18 -0.08,0.69 -0.17,0.23 -1.1,0.26 -0.46,-0.42 -0.09,-0.26 -0.29,0.07 -0.8,1.3 -0.14,0.27 -0.04,0.34 0.05,0.29 1.07,1.87 1.58,1.6 0.23,0.17 0.61,0.24 0.68,0.08 0.33,0.11 -0.03,0.27 -0.72,1.67 -1.13,3.41 -0.54,4.83 -0.63,6.4 -0.23,3.79 0.1,0.24 1.25,1.28 1.04,1.15 0.09,0.25 0.83,2.61 0.2,3.86 -0.18,2.28 -2.13,1.52 0.42,0.68 1.67,0.67 2.23,1.92 0.46,1.15 -0.42,1.2 -0.3,1.09 -0.15,0.96 -1.03,4.02 -0.33,1.44 -0.15,0.6 -0.34,0.47 -0.66,0.3 -0.14,0.1 -0.54,0.42 -0.44,0.62 -0.42,0.49 -0.34,0.4 -0.15,0.56 0.54,0.88 0.15,0.75 -0.11,0.51 -0.12,0.79 -0.18,0.83 -0.06,0.67 0.11,0.19 -3.31,2.52 -1.15,-0.7 -1.42,-0.47 -1.41,0.04 -0.17,0.46 -0.02,0.69 -0.17,0.51 -0.65,0.96 -0.55,0.48 -0.14,0.12 -2.65,1.62 -0.47,0.19 -0.69,-0.03 -0.13,-0.22 -0.27,-0.43 -1.89,-2.16 -0.41,-0.77 -0.34,-0.92 -0.47,-1.25 -0.18,-0.52 -0.53,-1.4 -0.86,-0.83 -0.57,-0.4 -1.49,-0.62 -0.68,-0.35 -0.48,-0.37 -0.94,-1.14 -1.1,-1.42 -2.37,-3.31 -1.35,-3.53 -0.31,-0.93 -0.05,-1.19 0.72,-0.13 1,-0.41 0.93,-0.5 1.01,-1.38 2.74,-4.58 -0.14,-2.39 -0.11,-0.75 -0.46,-0.72 -1.17,-1.58 -1.41,-2.02 -0.63,-1.03 -1.44,-2.42 -1.09,-2.44 -2.71,-0.59 -2.37,-0.53 -3.74,-1.92 -0.58,-0.49 -0.61,-0.63 -0.31,-0.42 -0.31,-0.42 -0.47,-0.82 -0.63,-1.35 -0.12,-0.5 -0.16,-0.62 -0.19,-1.52 -0.03,-0.49 -0.16,-1.12 -0.2,-0.85 -0.22,-0.58 -0.27,-0.5 -2.52,-2.88 -4.49,-5.23 -0.98,-1.15 -0.67,-0.86 -1.55,-2.03 -0.8,-1.06 -0.36,-0.55 -0.43,-1.08 -2.09,-2.44 -0.45,1.46 -0.34,0.8 -0.66,0.58 -0.54,0.11 -6.359996,0.11 -1.29,0 -1.27,-0.31 -0.78,-0.28 0.01,-1.3 0.05,-0.83 -0.27,-1.29 -0.68,-2.08 -2.14,-0.04 -2.72,0.06 -0.88,0.16 1.1,-1.24 0.37,-2.13 0.51,-3.61 0.42,-5.06 1.24,-2.02 0.47,-0.71 1.23,-1.8 0.49,-0.64 0.69,0.14 0.5,0.74 0.64,1.74 0.1,0.61 0.2,0.6 0.36,0.81 0.69,0.71 0.76,0.08 5.359996,-3.66 0.99,-1.48 0.53,-2.86 0.15,-1.96 -0.14,-1.55 0.13,-0.59 3.82,-3.36 0.78,-0.59 1.49,-0.94 1.28,-1.07 0.37,-0.55 0.38,-0.67 0.29,-0.83 -0.07,-0.58 -0.23,-1.15 -0.33,-0.62 -1.14,-1.69 -0.57,-1.22 0,-0.54 0.34,-0.58 z"
	/>
	<path
		id="gotland"
		name="Gotland"
		d="m 208.90361,669.54334 0.78,3.57 -2.75,4.31 -2.13,0.92 -1.05,0.86 -0.42,2.19 -0.89,7.43 0.22,1.76 0.04,0.25 0.5,0.93 0.54,0.45 -0.69,3.56 -0.92,0.77 -0.69,0.69 -1.01,1.26 -0.31,0.41 -0.1,0.28 -0.08,0.33 0,0.27 0.04,0.26 0.37,0.33 0.28,0 0.51,-0.08 0.04,0.26 0.08,1.06 -0.07,0.26 -1.42,1.01 -2.8,1.85 -0.98,0.65 -0.43,0.2 -1.13,0.41 -0.43,0.2 -0.59,0.42 -0.53,0.49 -0.15,0.2 -0.12,0.24 -1.09,2.2 -0.11,0.28 -0.06,0.26 -0.1,2.2 0.01,0.28 0.2,0.15 0.16,1.17 -1.24,2.55 -0.2,0.13 -2.1,1.05 -0.25,0.05 -0.98,0.09 -0.56,-0.09 -0.2,-0.15 0.06,-0.25 0.42,-1.03 1.34,-2.3 1.25,-2.08 -0.06,-2.28 -2.14,-3.05 -0.66,-4.54 0.26,-3.93 -0.41,-4.58 -0.72,-3.5 -0.13,-0.75 -0.01,-0.83 0.04,-0.31 0.21,-0.57 0.51,-0.98 1.07,-1.83 0.32,-0.38 0.54,-0.48 0.42,-0.27 0.38,-0.3 0.18,-0.16 0.71,-0.66 0.49,-0.57 1.17,-1.77 0.45,-0.7 0.69,-1.12 0.52,-0.99 0.48,-1.07 0.97,-2.1 0.13,-0.25 0.15,-0.21 0.37,-0.33 5.31,-4.71 0.21,-0.12 0.69,-0.25 0.23,-0.08 4.15,0.15 0.54,0.07 0.31,0.04 2.39,0.44 0.04,0.25 -0.06,0.21 z m 3.23,2.93 -0.87,-0.61 -0.41,-0.32 -0.12,-0.21 -0.94,-1.68 -0.08,-0.23 0,-0.57 0.04,-0.3 1.39,-2.57 0.18,-0.17 0.23,-0.08 4.79,-0.07 0.28,0 0.29,0.11 0.66,0.46 0.08,0.23 -0.03,0.24 -1.26,0.91 -0.24,-0.14 -0.08,-0.24 -0.17,-0.18 -0.3,-0.04 -0.49,0.12 -1.78,0.87 -0.21,0.12 -0.32,0.41 -0.13,0.25 -0.11,0.29 -0.04,0.3 -0.36,3.1 z m 2.93,-24.82 -0.29,0 -0.21,-0.15 -0.82,-2.07 -0.08,-0.24 0.07,-0.27 1.01,0.08 0.97,0.28 1.17,0.45 0.5,0.28 0.17,0.18 -0.1,0.22 -0.32,0.42 -0.34,0.36 -0.21,0.13 -0.23,0.08 -1.29,0.25 z"
	/>
	<path
		id="halland"
		name="Halland"
		d="m 21.503614,687.92334 0.72,-0.06 0.61,0.04 1.12,0.47 0.62,0.12 0.58,0.07 0.8,-0.24 1.01,-0.53 1.16,-0.62 0.83,-0.55 0.66,-0.55 0.65,-0.19 0.37,0.38 1,0.96 2.1,7.14 0.01,0.5 -0.04,0.88 -0.4,0.64 -0.1,0.9 -0.05,0.65 0.08,0.55 0.19,0.56 0.78,2.11 0.53,0.07 1.5,-0.49 0.25,-0.52 0.18,-0.52 1.52,-1.22 2.17,-0.34 1.17,0.35 5.98,5.03 2.68,2.26 1.31,1.35 0.11,0.27 0.36,2.44 0.6,2.34 0.27,0.77 0.43,-0.05 1.05,-0.64 -0.02,-0.58 0.1,-0.6 0.97,-1.08 2.5,-1 1.07,-0.33 0.58,-0.02 3.09,0.89 1.8,1.03 0.62,0.4 -0.05,0.55 -0.04,1.01 0.09,0.88 0.42,0.45 2.48,1.07 -0.15,0.9 -0.34,1.43 -0.66,1.25 -1.07,0.86 -2.81,0.68 -1.51,0.18 -0.52,0.01 -2.44,0.32 -0.31,2.36 -0.05,0.45 0.25,2.32 0.37,3.49 1.39,4.08 0.61,1.3 0.7,0.65 0.46,0.71 0.33,1.3 0.06,0.75 0.08,3.52 -0.08,0.54 -0.75,0.29 -3.95,2 -0.66,0.61 -2.7,0.77 -3.85,-0.29 -0.68,-0.13 -0.62,-0.33 -0.07,-0.46 -0.02,-1.36 0.02,-1.01 0.05,-0.42 -0.48,-0.27 -1.25,-0.58 -0.89,-0.33 0.42,-0.07 0.2,-0.1 0.19,-0.14 0.47,-0.51 0.25,-0.47 0.19,-0.54 0.33,-1.09 0.19,-0.95 -0.02,-0.55 -0.09,-0.52 -0.05,-0.24 -0.38,-1.44 -0.78,-2.87 -0.29,-0.38 -0.2,-0.12 -1.25,-0.46 -0.22,0.09 -0.75,0.62 -0.71,0.17 -0.87,0.02 -0.18,-0.18 -1.26,-1.57 -1.51,-3.4 -0.36,-1.48 -0.04,-0.27 0.02,-0.6 0.06,-0.32 -0.04,-0.27 -0.07,-0.26 -0.11,-0.2 -0.36,-0.61 -0.15,-0.18 -2.36,-2.3 -0.43,-0.3 -1.33,-0.45 -1.79,-0.83 -0.07,-0.23 0.06,-2.46 -1.68,-3.03 -4.25,-9.04 -0.11,-1.45 0.55,-3.18 -1.24,-5.54 -0.97,-1.36 -0.19,-0.15 -0.19,-0.1 -0.19,0.14 -0.67,1.11 -0.1,0.26 -0.05,0.33 0.07,0.53 -0.02,0.31 -0.48,2.81 -0.09,0.3 -0.18,-0.11 -0.97,-1.58 -0.66,-1.28 -0.36,-0.97 -0.07,-0.23 0.14,-4.33 z"
	/>
	<path
		id="jamtland"
		name="Jämtland"
		d="m 84.523614,269.21334 1.49,1.68 5.14,5.05 1.6,1.08 3.62,3.24 6.529996,7.31 0.53,0.92 0.22,1.29 0.48,1.18 0.36,0.61 0.53,0.39 2.2,1.01 0.56,0.47 3.69,3.55 0.49,1.4 2.25,3.71 0.66,0.48 1.37,1.34 0.95,1.49 0.42,0.81 0.35,1.33 1.12,2.86 5.71,4.24 2.31,1.58 2.3,1.55 0.39,1.15 0.27,2.69 0.08,1.04 0.64,0.12 1.15,-0.1 0.7,-0.27 1.79,-0.37 0.9,0.1 7.86,8.88 2.26,2.58 2.8,3.34 0.9,1.25 -1.65,2.27 -0.78,1.3 -0.98,2.05 -0.19,0.52 -0.63,2.14 -0.4,1.86 -0.11,0.98 0.14,0.87 0.11,0.99 0.1,2.24 -0.58,0.58 -2.66,0.64 -4.42,2.17 -1.93,0.31 -2.09,-0.33 -1.84,0.12 -3.67,0.48 -1.4,0.39 -0.62,0.23 -1.38,0.65 0.3,1.29 0.65,0.69 0.83,0.76 0.52,0.59 0.83,1.22 0.51,0.8 0.25,0.86 0.48,2.74 4.1,8.59 1.09,0.98 2.52,2.13 1.12,0.93 1.29,0.93 4.43,3.55 1.76,1.8 1.25,1.41 3.14,3.66 6.85,8.18 -1.54,0.65 -1.54,0.29 -0.87,0.13 -1.77,0.1 -1.88,0.6 -1.49,1.4 -1.63,1.83 -3.14,3.93 -0.31,0.53 -0.85,1.65 -0.57,1.63 -0.23,0.73 -1.85,0.93 -4.42,0.96 -0.65,0.09 -0.65,-0.08 -0.87,-0.3 -0.91,-0.69 -0.66,-0.25 -0.79,-0.05 -4.95,2.28 -1.81,1.01 -1.47,0.48 -7.18,1.94 -0.56,0.11 -2.2,0.3 -2.89,1.12 -1.32,1.01 -0.6,0.21 -1.19,-0.62 -0.58,-0.54 -0.49,-0.33 -0.73,-0.21 -6.789996,0.09 0.82,10.57 3.829996,5.37 2.39,1.38 3.1,1.73 0.56,-0.44 1.29,-1.1 0.56,-0.33 1.18,-0.03 0.75,0.44 0.49,0.49 -0.19,0.14 -0.34,0.58 0,0.54 0.57,1.22 1.14,1.69 0.33,0.62 0.23,1.15 0.07,0.58 -0.29,0.83 -0.38,0.67 -0.37,0.55 -1.28,1.07 -1.49,0.94 -0.78,0.59 -3.82,3.36 -0.13,0.59 0.14,1.55 -0.15,1.96 -0.53,2.86 -0.99,1.48 -5.359996,3.66 -0.76,-0.08 -0.69,-0.71 -0.36,-0.81 -0.2,-0.6 -0.1,-0.61 -0.64,-1.74 -0.5,-0.74 -0.69,-0.14 -0.49,0.64 -1.23,1.8 -0.47,0.71 -1.24,2.02 -0.42,5.06 -0.51,3.61 -0.37,2.13 -1.1,1.24 -1.79,1.12 -0.81,-1.05 -0.55,-0.86 -0.62,-0.22 -0.62,-0.14 -0.86,-0.03 -2.63,-0.18 -4.08,-0.51 -1.7,-0.45 -5.24,-0.43 -0.96,0.03 -4.54,-0.8 -0.53,-0.82 -0.55,-1.23 -0.08,-1.46 0.1,-1.06 -0.31,-0.54 -3.46,-5.66 -1.65,-2.44 -0.91,-0.84 -1.22,-1.4 0.13,-0.95 1.2,-0.96 1.82,-1.72 0.84,-1.05 -2.26,-2.49 -2.1,0.79 -1.56,0.63 -0.63,-0.19 -2.91,-2.22 -0.42,-0.69 -2.55,-3.52 -2.04,-2.79 -0.66,-0.87 -0.69,-0.31 -1.11,-0.13 -2.87,0.13 -1.31,0.2 -2.41,-0.85 -1.03,-0.5 -2.2,-1.32 -0.85,-0.71 -0.03,-0.07 0.03,-0.2 -0.11,-0.61 -0.53,-2.02 -0.4,-1.09 -0.29,-0.61 -0.93,-2.96 -0.28,-0.84 -0.4,-1.09 -0.32,-0.79 -0.61,-1.28 -1.71,-3.94 -0.98,-3.48 -0.02,-4.32 0.69,-2.91 0.44,-1.93 -0.6,-3.1 -0.44,-2.07 -0.56,-3.1 0.78,-1.51 1.45,-2.82 1,-1.87 0.46,-0.96 -0.64,-1.71 -2.84,-7.5 -0.25,-0.5 -2.4,-5.26 1.65,-3.03 2.1,-3.8 1.55,-2.85 1.53,-2.87 -0.43,-1.59 -1.04,-4.26 0.38,-0.64 5.1,-7.97 3.34,-6.24 1.52,-2.36 2.73,-4.2 1.26,-1.47 2.98,-2.4 1.38,-1.09 2.41,-1.69 1.33,-0.67 1.16,-0.4 2.73,-0.76 1.53,-0.38 0.97,-0.19 1.62,0.39 18.24,4.44 0.17,-0.31 4.19,-9.41 0.21,-0.72 -0.09,-8.98 -0.04,-0.69 -0.88,-7.68 -2.22,-1.07 -3.48,-1.19 -2.13,-1.34 -3.65,-2.56 -0.49,-0.38 -0.03,-0.34 0.07,-0.43 0.31,-1.11 0.53,-1.33 0.28,-0.64 0.48,-0.77 2.83,-5 1.23,-2.34 2.02,-4 3.59,-7.06 3.8,-6.23 z"
	/>
	<path
		id="jonkoping"
		name="Jönköping"
		d="m 69.303614,673.44334 0.1,0.08 1.17,0.58 0.83,-0.03 0.47,-0.55 0.48,-0.22 1.12,-0.4 1.17,1.09 0.79,0.95 0.59,0.23 3.56,-4.88 0.55,-1.05 1.41,-2.79 2.34,-5.26 0.77,-1.76 0.11,-0.38 0.97,0.29 1.9,0.23 3.16,0.28 5.34,0.48 0.21,0.48 0.55,0.29 1.75,-0.14 1.419996,-0.82 0.04,-1.26 0.74,-0.38 0.5,0 1.44,1.64 0.2,0.64 0.66,5.7 -0.42,1.14 -0.14,0.47 -0.07,1.68 1.59,5.85 0.51,1.46 1.03,2.22 0.53,0.53 1.07,0.03 1.13,-0.16 3.98,0.27 1.36,0.11 0.05,0.63 0.44,0.49 1.76,0.72 2.44,2.54 0.55,5.94 -0.35,0.94 -0.71,1.28 -2.01,1.22 -0.57,5.05 0.54,5.02 -0.7,-0.2 -1.9,-0.42 -0.49,-0.05 -1.06,-0.01 -4.33,-0.03 -1.35,0.09 -1.3,1.25 -2.91,2.35 -0.76,0.55 -0.9,-0.08 -0.47,-0.61 -0.13,-0.73 -0.339996,-1.28 -0.49,-0.46 -1.35,-1.04 -0.43,-0.22 -0.46,-0.05 -0.62,0.05 -0.63,0.19 -2.79,1.44 -4.52,1.58 -0.56,0.12 -1.88,0.43 -0.29,0.49 -0.76,5.36 0.18,0.62 0.59,0.43 0.47,0.52 0.04,1.53 -0.47,1.43 -0.61,1.19 -0.34,0.54 -0.73,0.6 -0.53,0.12 -0.46,0.03 -0.48,-0.39 -0.39,-0.92 -0.43,-1.37 -0.21,-1.09 -0.08,-0.73 -0.51,-1.03 -0.76,-1.05 -0.81,-0.77 -0.8,-0.44 -0.54,-0.16 -0.97,-0.04 -1.5,0.05 -0.21,0.01 -6.12,0.8 -0.77,0.58 -0.57,1.83 -2.48,-1.07 -0.42,-0.45 -0.09,-0.88 0.04,-1.01 0.05,-0.55 -0.62,-0.4 -1.8,-1.03 -3.09,-0.89 -0.58,0.02 -1.07,0.33 -2.5,1 -0.97,1.08 -0.1,0.6 0.02,0.58 -1.05,0.64 -0.43,0.05 -0.27,-0.77 -0.6,-2.34 -0.36,-2.44 0.8,-0.83 1.97,-3.24 0.68,-1.29 2.84,-3.38 1.85,-1.05 3.7,-3.7 3.47,-5.6 0.3,-0.79 0.24,-0.96 0.57,-3.18 1.01,-6.38 0.21,-1.67 0.05,-0.56 z"
	/>
	<path
		id="kalmar"
		name="Kalmar"
		d="m 146.85361,665.62334 0.51,0.81 1.79,0.55 -0.49,1.19 0.05,0.25 0.23,0.72 0.13,0.19 0.54,0.23 0.21,0.15 0.05,0.25 0.01,0.29 -0.18,0.17 -0.38,0.3 -0.21,0.12 -0.24,-0.01 -1.94,-0.52 -0.98,-0.34 -0.23,-0.1 -0.29,-1.52 0.1,-0.12 0.31,0.03 -0.4,-0.77 -2.22,-2.82 -0.21,0.03 -0.21,0.12 -0.11,0.18 -0.08,0.24 0.37,4.82 0.05,0.14 0.08,0.12 0.21,0.21 1.11,1.17 2.98,4.45 0.43,0.58 0.26,0.41 -0.07,0.27 -0.22,0.06 -0.21,-0.17 -1.73,-1.44 -0.09,-0.23 -0.11,-0.51 -0.23,-0.41 -0.32,-0.4 -0.78,-0.92 -0.17,-0.18 -1.95,-1.52 0,0.18 0.03,0.14 0.21,0.56 0.17,0.23 0.18,0.23 2.39,2.74 0.31,0.31 1.46,1.27 0.84,0.95 0.26,0.4 0.22,0.42 0.06,0.26 -2.19,3.67 -1.64,1.86 -0.16,1.09 1.89,0.66 1.5,3.29 0.11,0.49 0,0.3 -0.58,2.86 -0.18,0.16 -0.23,0.12 -0.5,0.09 -0.13,1.05 -0.03,0.23 -0.18,0.12 -0.62,-0.15 -0.91,-0.29 -0.3,-0.01 -0.23,0.09 -0.11,0.23 -1.84,4.23 -0.13,0.66 -0.07,0.6 -0.24,2.88 -0.01,0.23 0.07,1.08 0.06,0.53 0.18,0.43 1.23,2.01 0.25,0.03 0.18,-0.13 0.26,-0.05 0.16,0.18 0.46,1.12 0.55,2.16 0.01,0.27 -2.19,0.35 -0.23,-0.12 -1.01,4.06 -0.37,2.97 -0.37,2.43 -0.5,2.32 -0.87,3.59 -1.77,3.16 -0.2,-0.16 -0.26,-0.04 -0.48,0.12 -0.5,0.51 -0.99,1.86 -2.44,6.96 -0.18,0.57 -0.35,1.15 -0.36,1.46 -0.95,3.87 -2.54,0.33 -2.86,-0.38 -1,-0.44 -0.68,-0.53 -0.57,-0.87 -1.89,-2.58 -3.74,-3.86 -1.23,-0.05 -3.69,0.2 -0.22,0.22 -0.1,-0.58 0.07,-2.89 0.93,-7.99 2.23,-4.1 1.28,-2.87 -0.07,-0.64 0.04,-0.67 0.09,-0.83 0.44,-0.58 1.37,0.32 0.84,0.58 0.74,0.21 1.56,-0.01 0.56,-0.04 1.83,-0.4 0.15,-0.54 0.16,-0.74 0.1,-1.36 -0.07,-0.71 -0.58,-1.72 -0.32,-0.51 -1.06,-1.56 -0.54,-0.65 -2.91,-2.63 -1.86,-1.38 -1.09,-2.37 -0.54,-5.02 0.56,-5.05 2.02,-1.22 0.7,-1.28 0.35,-0.94 -0.55,-5.94 -2.44,-2.54 -1.76,-0.71 -0.44,-0.49 -0.05,-0.63 0.27,-1.01 3.6,-5.73 0.62,-0.29 1.76,-0.59 0.57,-0.11 0.44,0.05 0.98,0.43 0.46,0.33 0.8,0.94 0.76,0.26 2.55,0.03 3.28,-2.59 0.31,-0.54 -0.93,-2.04 -0.14,-0.57 -0.53,-4.79 0.07,-1.36 0.07,-0.59 3.13,-1.12 2.72,-1.59 0.67,-0.43 0.46,-0.11 2.94,0.38 0.99,0.33 4.48,1.71 0.83,2.75 0.34,0.57 0.69,0.75 0.48,0.46 z m -5.96,85.88 -0.23,-0.11 -0.13,-0.2 -0.14,-0.46 -0.2,-2.33 -0.31,-9.09 0.04,-3.07 0.07,-0.32 0.65,-2.42 3.23,-9.12 1.83,-4.43 0.13,-0.25 0.33,-0.27 0.42,-0.21 2.76,-2.71 2.61,-6.03 1.37,-3.44 1.57,-4.31 0.1,-0.28 0.07,-0.6 -0.14,-0.74 -0.03,-0.84 0.04,-0.3 0.15,-0.65 0.19,-0.57 0.25,-0.5 0.27,-0.45 0.45,-0.62 0.32,-0.37 0.35,-0.34 0.56,-0.35 1.11,0.42 0.18,0.11 0.49,1.34 -1.95,6.54 -1.1,2.66 -1.26,2.75 -0.91,1.8 -1.23,5.24 -0.84,4.14 -0.19,0.56 -0.12,0.25 -0.23,0.08 -0.29,-0.03 -0.23,0.08 -0.62,0.68 -0.15,0.2 -0.24,0.48 -1.15,4.5 -2.41,8.78 -1.56,5.34 -0.16,0.6 -0.03,0.3 0.02,0.53 0.04,0.25 0.09,0.21 0.01,0.28 -0.1,0.3 -0.49,1.36 -1.5,4.06 -0.26,0.45 -0.34,0.33 -0.96,0.62 -0.2,0.17 z"
	/>
	<path
		id="kronoberg"
		name="Kronoberg"
		d="m 67.923614,714.92334 0.57,-1.83 0.77,-0.58 6.12,-0.8 0.21,-0.01 1.5,-0.05 0.97,0.04 0.54,0.16 0.8,0.44 0.81,0.77 0.76,1.05 0.51,1.03 0.08,0.73 0.21,1.09 0.43,1.37 0.39,0.92 0.48,0.39 0.46,-0.03 0.53,-0.12 0.73,-0.6 0.34,-0.54 0.61,-1.19 0.47,-1.43 -0.04,-1.53 -0.47,-0.52 -0.59,-0.43 -0.18,-0.62 0.76,-5.36 0.29,-0.49 1.88,-0.43 0.56,-0.12 4.52,-1.58 2.79,-1.44 0.63,-0.19 0.62,-0.05 0.46,0.05 0.43,0.22 1.35,1.04 0.49,0.46 0.339996,1.28 0.13,0.73 0.47,0.61 0.9,0.08 0.76,-0.55 2.91,-2.35 1.3,-1.25 1.35,-0.09 4.33,0.03 1.06,0.01 0.49,0.05 1.9,0.42 0.7,0.2 1.1,2.37 1.86,1.38 2.91,2.63 0.55,0.64 1.05,1.56 0.32,0.52 0.58,1.72 0.07,0.71 -0.1,1.36 -0.16,0.73 -0.15,0.54 -1.83,0.4 -0.56,0.04 -1.56,0.02 -0.74,-0.22 -0.84,-0.57 -1.37,-0.33 -0.44,0.58 -0.09,0.83 -0.04,0.67 0.07,0.65 -1.28,2.86 -2.23,4.1 -0.93,8 -0.07,2.89 0.11,0.58 -0.68,0.79 -0.45,0.34 -0.82,0.29 -2.12,0.41 -3.33,0.1 -2,0.91 -1.39,1.72 -0.82,0.78 -1.009996,0.12 -1.34,-0.01 -3.7,-0.35 -0.7,-0.86 -0.74,-1.07 -0.69,-0.66 -0.47,-0.31 -2.19,-0.61 -0.1,-0.05 -2.98,-1.03 -2.87,-0.72 -5.53,-1.33 -0.43,0.1 -0.63,0.42 -0.19,0.55 0.01,0.45 -0.4,0.53 -0.94,0.58 -0.55,0.24 -2.04,0.6 -7.83,1.93 -0.43,0.09 -0.63,0.07 -1.25,-0.19 -1.11,-0.38 0.08,-0.54 -0.08,-3.52 -0.06,-0.75 -0.33,-1.3 -0.46,-0.71 -0.7,-0.65 -0.61,-1.3 -1.39,-4.08 -0.37,-3.49 -0.25,-2.32 0.05,-0.45 0.31,-2.36 2.44,-0.32 0.52,-0.01 1.51,-0.18 2.81,-0.68 1.07,-0.86 0.66,-1.25 0.34,-1.43 z"
	/>
	<path
		id="norrbotten"
		name="Norrbotten"
		d="m 250.57361,0.2733419 0.62,0.54 1.21,0.68 2.49,0.94 1.25,0.57 1.45,0.84 0.53,0.51 0.47,0.55 0.65,0.88 0.52,0.92 0.11,0.35 0.16,0.74 -0.01,0.4 -0.19,0.47 -0.42,0.51 -0.7,1.0000001 -0.15,0.92 -0.01,0.41 0.15,0.71 0.18,0.33 0.23,0.26 0.3,0.25 0.78,0.38 0.38,0.1 0.83,0.05 0.9,0.14 0.9,0.3 0.6,0.49 3.34,3.43 0.23,0.27 5.39,6.7 0.74,2.4 0.11,0.33 0.34,0.62 0.58,0.49 0.35,0.22 1.31,0.48 0.92,0.22 0.42,0.19 0.58,0.48 0.52,0.5 1.56,1.57 0.22,0.26 0.11,0.35 -0.09,0.44 -0.01,0.42 0.21,0.68 0.45,0.55 0.58,0.48 0.42,0.18 0.95,0.28 0.41,0.02 1.05,-0.24 0.44,0.08 0.42,0.18 0.97,1.06 0.68,0.82 1.01,1.47 0.16,0.3 0.49,0.92 0.33,0.62 0.08,0.74 0.11,0.34 0.22,0.28 0.36,0.22 2.29,0.76 0.44,0.08 5.41,0.06 1.54,0.86 1.84,0.82 2.16,0.93 2.06,0.34 0.37,0.12 3.96,2.35 0.16,0.3 0.9,1.89 0.95,1.85 0.28,0.24 0.69,0.43 0.87,0.32 2.08,1.71 0.28,0.25 0.22,0.28 1.99,4.02 0.19,0.69 0.12,0.69 0.18,2.63 3.07,2.07 0.46,0.16 0.34,0.21 0.43,0.55 0.15,0.32 0.35,0.98 0.12,0.69 0.1,0.65 0.07,0.75 0.37,1.33 0.25,0.65 0.46,0.92 3.63,3.53 2.82,2.42 0.27,0.24 0.22,0.27 0.24,0.64 0.03,0.38 -0.04,0.44 -0.16,0.45 -0.18,0.39 -0.22,0.35 -0.97,1.1 -0.3,0.15 -1.35,0.37 -0.91,0.45 -0.49,0.55 -0.14,0.46 -0.1,0.43 -0.32,2.82 -0.03,0.41 0.56,7.28 0.44,3.269998 -0.95,7.56 -1.02,4.45 -0.09,0.42 -0.03,0.69 0.06,0.71 0.46,0.9 0.41,0.54 0.28,0.24 0.33,0.21 0.35,0.12 0.31,-0.15 0.41,-0.65 0.24,-0.27 0.33,-0.1 0.87,0.23 4.04,1.65 0.71,0.4 0.16,0.28 0.03,0.37 0.37,5.39 -0.03,0.4 -0.23,0.82 -0.62,1.71 -0.21,0.32 -0.27,0.21 -0.62,0.24 -0.66,0.18 -1.25,0.47 -0.29,0.15 -0.28,0.21 -0.23,0.27 -0.29,0.89 -0.21,0.77 -0.43,4.98 0.03,0.36 0.24,0.62 2.66,6.79 1.32,2.64 0.35,0.57 0.35,0.54 0.79,0.71 2.1,3.39 1.82,3.16 0.14,0.28 0.23,0.62 1.35,4.06 0.18,0.65 -0.04,0.38 -0.18,0.24 -0.31,0.07 -1.05,0.1 -0.29,0.13 -1.15,2.52 -0.1,0.41 0.03,0.35 0.26,1.69 0.05,2.15 -0.28,6.57 -0.12,0.77 -0.09,0.41 -0.15,0.44 -0.17,0.37 -0.27,0.2 -0.92,0.31 -0.52,0.41 -2.17,2.44 -1.55,2.36 -0.2,0.31 -0.18,0.38 -0.14,0.43 -0.17,0.8 -0.03,0.37 0.57,7.46 0.03,0.33 0.12,0.66 0.48,2.55 0.91,3.82 0.08,0.31 0.15,0.29 0.2,0.26 0.51,0.45 1.42,1 0.31,0.2 0.74,0.34 0.42,0.15 0.41,0.07 0.36,0.18 0.51,0.45 0.34,0.55 0.14,0.29 0.25,0.92 0.22,1.31 0.51,1.88 1.68,3.39 3.41,11.67 0.17,0.61 0.05,0.68 -0.05,0.38 -0.36,0.55 -0.23,0.25 -0.62,0.18 -0.39,-0.09 -0.67,-0.38 -0.76,-0.12 -0.31,0.09 -2.23,1.44 -0.11,0.34 -0.09,0.4 -0.14,0.41 -0.16,0.36 -0.23,0.24 -0.31,-0.05 -3.77,-2.25 -0.03,-0.32 -3.14,-0.56 -3.59,0.36 -2.2,2.59 -1.07,-0.44 -3.82,-2.15 -0.2,-0.25 -0.86,1.91 -1.81,3.88 -0.25,0.19 -1.34,0.82 -6.66,-7.48 -0.07,-0.66 -0.09,-0.32 -0.86,-1.67 -1.77,-1.92 -1.26,-1.04 -0.82,-0.22 -0.2,0.18 0.04,0.33 0.29,0.57 0.46,0.47 0.2,0.25 0.14,0.27 0.09,0.3 0.57,3.96 -0.52,2.81 -0.19,0.3 -0.22,0.27 -0.25,0.2 -0.3,0.09 0.07,-0.4 0.13,-0.43 0.02,-0.35 -0.17,-0.61 -1.11,-1.2 -3.42,-3.49 -0.74,-0.32 -0.86,-0.22 -1.14,-0.09 -0.31,0.11 -0.16,0.22 -0.76,1.68 -1.88,8.91 -0.23,3.75 0.62,0.31 0.22,0.1 0.22,0.01 0.3,-0.25 0.42,0.76 0.13,-0.43 0.02,-0.35 -0.15,-0.29 -0.19,-0.25 -0.3,-0.55 -0.29,-0.82 -0.09,-0.32 0.16,-0.21 0.37,0.16 0.51,0.43 1.65,1.94 1.01,4.47 0.07,0.65 -0.08,0.41 -0.18,0.3 -0.28,0.14 -0.31,-0.19 -0.39,-0.48 -0.35,-0.53 -3.28,-1.48 -0.94,-0.09 -3.35,-1.82 -5.7,-3.8 -0.26,-0.22 -0.2,-0.24 -0.15,-0.27 -0.36,-1.23 -0.15,-0.27 -1.44,-1.35 -0.16,0.35 0.04,0.34 0.28,0.91 1.45,2.07 0.41,0.48 0.26,0.21 4.47,3.61 0.93,0.56 1.55,0.39 0.25,0.22 1.94,2.19 -0.13,0.29 -0.24,0.19 -0.55,0.3 -2.92,1 -1.42,0.24 -0.33,-0.11 -2.07,-0.72 -0.26,-0.21 -0.2,-0.25 -0.12,-0.21 -0.19,0.03 -0.55,0.29 -0.18,0.14 0.15,0.26 1.13,1.86 0.35,0.51 0.31,0.2 0.36,0.01 -0.45,-1.37 0.07,-0.25 0.31,0.18 1.12,1.16 1.35,1.75 0.03,0.32 -0.37,1.82 -0.18,0.3 -2.15,1.63 -6.7,0.44 -0.36,-0.01 -0.39,-0.07 -0.31,-0.2 -0.2,-0.23 -0.44,-0.83 -0.26,-0.21 -0.39,-0.05 -1.11,0.53 -1.87,1.35 -0.15,0.37 0.76,1.62 0.24,0.68 0.74,1.09 0.24,0.04 0.96,0.76 0.22,-0.27 0.06,-0.38 -0.09,-0.3 0.06,-0.16 0.61,0.37 0.26,0.21 1.99,2 0.2,0.25 -0.02,0.35 -0.09,0.73 -0.15,0.37 -0.82,1.07 -0.25,0.21 -1.76,0.6 -0.6,0.19 -0.31,-0.19 -0.14,-0.27 -0.19,-0.59 -0.08,-0.67 -1.17,-1.75 -0.66,-1.53 -0.12,-0.15 -3.33,-3.57 -0.36,-0.14 -0.27,0.14 -1.27,1.81 -0.15,0.23 0.15,0.26 1.45,0.62 0.42,0.12 2.12,0.98 2.33,3.63 1.13,1.84 0.29,0.54 1.44,3.04 0.18,0.59 0.04,0.33 -0.02,0.35 -0.99,4.98 -0.17,0.32 -0.3,0.08 -0.85,-0.15 -4.64,-3.92 -3.04,-2.16 -2.71,-0.4 -2.75,-0.35 -0.99,-0.14 -3.12,-0.65 -1.56,-0.63 -6.58,-2.97 -1.97,-0.94 -2.69,-1.44 -5.57,-2.91 -4.88,-2.32 -1.31,-0.58 -1.22,-0.16 -0.7,0.81 -2.54,3.42 -2.23,3.19 -1.29,1.95 -0.63,1.13 -0.4,0.89 -0.52,0.79 -0.48,0.64 -2.17,1.61 -0.64,0.33 -1.73,-0.03 -3.96,-4.53 -0.14,-0.27 -0.1,-0.3 -0.05,-0.31 0,-0.42 0.11,-0.74 -0.09,-0.65 -0.29,-0.5 -0.24,-0.27 -1.17,-1.11 -0.46,-0.42 -0.83,-0.56 -3.14,-1.8 -2.96,-1.84 -2.05,-1.29 -0.31,-0.23 -0.71,-0.6 -0.42,-0.46 -0.21,-0.6 -4.01,-1.99 -1.29,-0.32 -0.71,-0.25 -0.34,-0.18 -6.2,-4.18 -0.26,-0.19 -0.44,-0.46 -0.64,-1.06 -0.33,-0.91 -0.95,-1.17 -0.67,-0.14 -0.77,-0.07 -0.86,0.25 -4.6,-1.22 -6.33,-2.72 -1.89,-2.06 -1.47,-1.62 -3.29,-4.16 -2.55,-2.82 -4.01,-4.06 -3.49,-3.63 -2.18,-2.53 -1.88,-1.73 -1.93,-1.53 -1.27,-0.83 -2.5,-0.74 -1.09,-0.26 -4.67,-0.86 -2.12,-1.88 -1.62,-1.31 -4.58,-3.4 -10.46,-7.65 -1.63,-0.82 -4.43,-1.9 -1.99,-0.82 -1.22,-5.63 -0.77,-3.61 -0.23,-1.22 4.36,-5.17 2.59,-3.17 2.78,-5.27 7.37,-13.79 9.09,-8.56 1.37,-9.86 -0.18,-0.99 -1,-4.09 -0.63,-1.57 -1.99,-3.06 -1.1,-1.67 -0.42,-0.51 -1.13,-1.26 -0.61,-0.8 -0.73,-1.11 -0.18,-0.28 -0.38,-0.95 -0.08,-0.35 -0.03,-0.34 2.81,-6.08 0.37,-0.12 4.66,-0.96 0.55,-0.99 2.78,-5.48 1.63,-3.31 0.18,-0.6 0.29,-1.159998 0.85,-3.48 1.71,-6.98 1.11,-4.69 12.19,-9.23 1.22,-2.24 0.48,-0.88 0.56,-1.13 8.42,4.29 1.49,1.1 0.83,0.69 1.67,1.39 1.55,1.44 0.47,0.51 0.3,0.23 0.71,0.36 0.69,0.21 1.47,-3.67 5.17,-10.78 0.52,-1.13 -1.36,-8.16 -0.47,-2.64 -0.44,-2.62 -0.42,-2.63 -0.2,-1.31 0.32,-2.19 0.63,-3.66 0.24,-1.22 0.23,-0.08 1.32,-0.46 5.51,-1.72 6.71,4.6 8.99,-0.9 12.18,4.91 3.45,1.42 4.58,1.93 3.79,1.63 1,0.61 0.67,0.34 0.37,-0.06 0.27,-0.24 0.23,-0.27 0.2,-0.36 0.33,-0.84 0.79,-1.41 0.62,-1 0.47,-0.59 0.74,-0.82 2.41,-2.09 0.23,-0.3 0.6,-1.06 0.27,-0.94 0.06,-0.46 -3.25,-1.4 -3.48,-3.05 2.82,-2.82 3.02,-4.63 0.66,-1.11 0.95,-2.12 2,-4.6 0.96,-2.33 -0.94,-10.3700001 -2,-2.96 -3.76,-5.43 11.59,-1.04 z"
	/>
	<path
		id="orebro"
		name="Örebro"
		d="m 88.033614,562.18334 0.68,-0.16 1.23,0.14 1.17,0.66 0.5,0.15 4.48,0.72 0.15,-1.06 -0.15,-0.57 -0.16,-0.59 -0.53,-2.52 0.31,-0.48 0.85,-0.62 0.59,-0.31 0.63,0.44 0.48,0.53 0.82,1.37 0.5,0.57 0.499996,0.09 1.12,-0.19 0.45,-0.68 0.66,-0.04 1.83,0.6 3.1,2.17 0.69,1.08 0.27,0.84 0.7,1.39 0.46,0.78 3.42,3.67 0.99,0.57 0.13,0.09 1.79,3.91 0.49,1.28 0.41,1.47 0.29,1.24 1.27,3.55 0.78,1.94 2,3.19 0.22,0.57 0.26,1.08 0.26,3.59 -0.03,0.52 -0.66,0.49 -0.74,0.4 -1.08,0 -0.24,0.63 -0.32,5.03 2.44,1.49 2.81,0.96 -0.42,1.93 0.23,4.33 -0.75,0.57 -1.21,0.26 -0.52,0.35 -1.81,1.8 -0.37,0.49 -0.16,1.4 0.6,2.14 -0.31,0.05 -1.73,1.64 -0.53,0.61 0.09,0.58 0.19,0.81 -0.13,0.94 -0.89,0.96 -2.54,2.52 -0.58,-0.07 -1.47,-0.79 -0.93,-0.77 -0.47,-0.35 -0.97,-0.09 -3.1,2.68 -1.17,1.14 -0.47,0.81 -0.17,0.44 -0.6,1.79 -0.53,0.7 -1.26,0.78 -0.49,-0.39 -0.48,-0.19 -0.8,0.21 -0.499996,0.24 -2.05,1.38 -0.11,0.23 -1.15,-0.58 -1.82,-1.37 -1.47,0.29 -0.81,0.34 -1.28,0.11 -2.44,-1.13 -1.93,-4.19 -0.67,-1.96 -2.28,-6.73 -0.59,-1.94 1.43,-1.66 0.28,-0.49 0.27,-0.57 -0.1,-0.71 -0.21,-0.58 -0.51,-1.02 -0.3,-0.78 -0.34,-1.14 -0.24,-1 -0.12,-1.33 0,-0.7 0.87,-6.05 0.35,-0.87 1.27,-1.92 0.74,-0.67 1,-1.41 0.55,-1.07 1.1,-4.63 0.08,-0.89 -0.1,-0.65 -0.31,-1.28 -0.42,-1.1 -0.49,-1.92 -0.65,-5.31 0.06,-8.39 1.16,-3.49 -0.13,-1.67 z"
	/>
	<path
		id="ostergotland"
		name="Östergötland"
		d="m 97.443614,631.29334 0.11,-0.23 2.05,-1.38 0.509996,-0.24 0.8,-0.21 0.48,0.18 0.49,0.39 1.26,-0.78 0.53,-0.71 0.59,-1.79 0.18,-0.44 0.47,-0.81 1.17,-1.15 3.1,-2.67 0.97,0.08 0.47,0.35 0.93,0.77 1.48,0.79 0.58,0.07 2.54,-2.52 0.89,-0.96 0.13,-0.94 -0.19,-0.81 -0.09,-0.58 0.53,-0.61 1.73,-1.63 0.31,-0.06 4.76,-1.35 1.18,0.17 1.12,1.2 1.72,1.64 4.67,3.7 2.77,1.88 0.69,0.59 2.63,4.01 0.21,0.86 0.46,1.13 0.54,0.23 0.87,0.2 1.87,0.27 0.48,0 0.83,-0.08 0.97,0.14 2.34,0.79 0.56,0.24 0.55,0.7 0.34,1.18 -1.54,-0.4 -5.72,-0.94 -0.66,-0.1 -0.62,-0.07 -3.02,-0.21 -1.48,-0.08 -0.23,0.08 -1.06,1.8 2.63,0.7 2.04,0.42 1.09,-0.41 0.55,-1.24 0.11,-0.18 5.62,1.06 2.36,0.76 1.09,0.89 3.92,4.83 0.26,0.42 -2.75,1.97 -0.68,0.32 -1.45,0.46 -0.44,0.04 -3.63,-0.92 -1.37,-0.57 -0.9,-0.59 -1.03,-0.49 -1.32,0.03 -0.32,0.22 4.22,1.96 2.92,1.26 0.27,0.06 0.43,0.31 1.59,1.83 0.05,0.27 0.5,2.89 0.9,5.26 0.03,1.14 -2,8.18 -0.18,0.18 -2.76,1.08 -0.69,-0.75 -0.34,-0.57 -0.83,-2.75 -4.48,-1.71 -0.99,-0.33 -2.94,-0.38 -0.46,0.11 -0.67,0.43 -2.72,1.59 -3.13,1.12 -0.07,0.59 -0.07,1.36 0.53,4.79 0.14,0.57 0.93,2.04 -0.31,0.54 -3.28,2.59 -2.55,-0.03 -0.76,-0.26 -0.8,-0.94 -0.46,-0.33 -0.98,-0.43 -0.44,-0.05 -0.57,0.11 -1.76,0.59 -0.62,0.29 -3.6,5.73 -0.27,1.01 -1.36,-0.11 -3.99,-0.27 -1.13,0.16 -1.06,-0.03 -0.54,-0.54 -1.03,-2.22 -0.51,-1.46 -1.59,-5.85 0.07,-1.68 0.15,-0.47 0.42,-1.15 -0.66,-5.7 -0.2,-0.64 -1.44,-1.64 -0.51,0 -0.74,0.37 -0.04,1.26 -1.419996,0.82 -1.75,0.14 -0.55,-0.29 -0.21,-0.47 -5.34,-0.49 -3.16,-0.28 -1.91,-0.24 -0.97,-0.29 0.34,-0.79 1.55,-4.26 0.94,-2.62 0.95,-2.17 1.36,-2.97 0.7,-1.5 1.18,-2.45 4.62,-9.08 0.57,-1.06 0.45,-0.79 z"
	/>
	<path
		id="skane"
		name="Skåne"
		d="m 90.133614,740.16334 -1.74,2.52 -0.73,1.57 -0.77,2.38 -0.04,0.16 -0.15,0.64 1.21,3.95 0.44,0.25 0.62,-0.39 1.76,0.02 0.54,0.49 0.15,0.51 0.25,1.29 0.2,1.68 -0.04,1.79 -0.03,0.57 -0.25,0.67 -0.55,0.7 -0.79,0.65 -3.76,3.7 -1.03,1.04 -1.76,2.39 -0.5,0.9 -0.32,0.72 -0.41,1 -0.25,0.83 -0.13,0.6 -0.06,0.33 -0.1,0.61 -0.09,0.61 -0.07,1.18 0.01,0.48 0.03,0.26 0.1,0.47 0.19,0.41 0.38,0.57 1.57,2.22 1.7,3.21 0.58,1.24 0.18,0.43 0.07,0.23 -0.1,0.28 -0.19,0.42 -0.66,1.01 -0.64,0.67 -3.15,4.67 -0.8,0.27 -1.07,0.04 -1.68,-0.31 -0.57,-0.15 -0.86,-0.76 -0.94,-0.71 -0.88,-0.48 -0.64,-0.12 -0.54,0.02 -4.25,0.37 -0.53,0.07 -1.82,0.31 -0.25,0.07 -3.55,1.56 -0.84,0.4 -0.96,0.79 -0.3,0.19 -1.13,0.58 -0.81,0.04 -1.16,-0.08 -0.29,-0.05 -8.13,-2.72 -1.7,-6.42 -0.04,-0.26 -0.05,-0.84 0.01,-0.16 0.04,-0.12 0.16,-0.3 0.23,-0.3 0.77,-0.47 0.57,-0.37 1.4,-1.16 0.15,-0.17 0.12,-0.23 0.36,-1.41 0.12,-0.91 -0.02,-0.13 -0.07,-0.38 -3.48,-6.09 -0.41,-0.71 -6.11,-10.54 -0.47,-0.79 -0.78,-1.15 -0.27,-0.22 -0.23,-0.08 -0.14,-0.11 -0.76,-1.42 -0.09,-0.19 -2.7,-6.6 1.37,0.09 2.69,1.15 0.43,0.26 1.94,1.45 1.81,0.03 0.19,-0.04 0.2,-0.12 0.3,-0.34 0.28,-0.43 0.16,-0.39 0.04,-0.11 0.08,-0.27 0.01,-0.29 -0.05,-0.24 -2.44,-3.95 -0.27,-0.34 -0.18,-0.17 -1.26,-0.8 -0.32,-0.03 -0.51,-0.21 -0.21,-0.14 -0.28,-0.36 -0.09,-0.22 -0.01,-0.57 0.11,-0.61 0.06,-0.32 0.08,-0.27 0.1,-0.25 0.15,-0.18 0.83,-0.84 0.19,-0.13 1.11,-0.05 0.28,0 0.44,0.13 0.97,0.69 0.2,0.12 0.5,0.21 0.54,0.17 0.53,-0.01 0.89,0.33 1.25,0.58 0.48,0.27 -0.05,0.42 -0.02,1.01 0.02,1.36 0.07,0.46 0.62,0.33 0.68,0.13 3.85,0.29 2.7,-0.77 0.66,-0.61 3.95,-2 0.75,-0.29 1.11,0.38 1.25,0.19 0.63,-0.07 0.43,-0.09 7.83,-1.93 2.04,-0.6 0.55,-0.24 0.94,-0.58 0.4,-0.53 -0.01,-0.45 0.19,-0.55 0.63,-0.42 0.43,-0.1 5.53,1.33 2.87,0.72 2.98,1.03 z"
	/>
	<path
		id="sodermanland"
		name="Södermanland"
		d="m 163.54361,600.72334 -0.13,0.14 -0.92,2.05 -0.13,0.67 1.67,8.49 0.5,1.34 1.39,1.64 0.84,0.2 0.73,0 0.51,-0.1 1.86,-0.23 0.61,0.09 0.76,1.57 0.34,0.35 1.04,1.46 -0.04,0.31 -0.08,0.35 -1.13,2.68 -0.12,0.2 -0.26,-0.14 -0.43,-0.31 -2.23,2.51 -3.13,2.7 -2.08,0.78 -1.59,0.25 -1.43,-0.04 -1.67,-1.51 -0.27,-0.06 -1.34,0.66 -0.11,0.18 0.13,0.21 1.28,1 1.37,1.06 -2.63,3.3 -3.15,1.03 -0.26,0.04 -0.32,-0.03 -2.74,-0.35 -1.42,-0.27 -0.34,-1.18 -0.55,-0.7 -0.56,-0.24 -2.34,-0.79 -0.97,-0.14 -0.83,0.08 -0.48,0 -1.87,-0.27 -0.87,-0.2 -0.54,-0.23 -0.46,-1.13 -0.21,-0.86 -2.59,-4.01 -0.69,-0.59 -2.77,-1.88 -4.67,-3.7 -1.72,-1.64 -1.12,-1.2 -1.18,-0.17 -4.76,1.35 -0.6,-2.13 0.15,-1.41 0.37,-0.48 1.81,-1.8 0.51,-0.36 1.22,-0.26 0.75,-0.57 -0.23,-4.33 1.56,-0.22 0.55,-0.3 0.35,-1.06 0.08,-0.63 -0.06,-0.56 0.08,-0.69 1.91,-2.93 1.19,-0.99 0.59,-0.43 0.54,-0.23 0.88,0.3 1.78,0.17 0.53,0 0.59,-0.04 1.35,-0.27 0.64,-0.26 0.7,-1.35 0.04,-0.49 -0.21,-0.58 -0.08,-1.04 0,-1.27 0.4,-0.08 0.75,-0.33 0.24,-0.09 0.56,-0.07 8.57,-1.08 0.28,0.06 0.26,0.13 0.18,0.17 0.1,0.25 0.27,0.42 1.31,1.57 1.48,1.74 0.18,0.19 0.26,0.13 1.25,0.16 0.29,-0.01 0.24,-0.09 0.08,-0.35 0.03,-0.32 -0.05,-0.27 -0.18,-0.19 -0.62,-0.01 -0.3,-0.12 -0.23,-0.16 -0.88,-0.62 -0.44,-0.32 -1.73,-1.3 -0.76,-0.71 -0.13,-0.22 0.01,-0.25 3.58,-0.79 0.3,0.1 0.23,0.16 1.28,0.98 0.71,0.74 0.29,0.36 0.27,0.42 0.23,0.45 0.18,0.49 1.95,2 0.93,0.27 1.09,0.11 1.66,0.07 2.8,0.85 0.57,0.24 0.22,0.16 0.13,0.22 0.05,0.26 -0.04,0.33 -0.11,0.3 -0.15,0.22 -0.21,0.13 -0.27,0.06 -0.63,1.49 -0.32,1.09 0.05,0.56 0.9,-0.01 z m -0.81,-5.91 -0.67,-0.12 -2,-0.42 -0.22,-0.16 -2.03,-3.49 -0.01,-0.29 0.52,-0.03 1.61,0.17 2.26,0.36 0.55,0.16 0.26,0.13 0.35,0.37 0.95,1.5 0.05,0.26 -0.02,0.26 -0.2,0.2 -1.15,1.02 -0.25,0.08 z"
	/>
	<path
		id="stockholm"
		name="Stockholm"
		d="m 196.31361,602.57334 -0.32,-0.04 -0.3,-0.1 -1.81,-1.43 -0.18,-0.19 -1.04,-1.42 0.07,-0.29 1.97,-0.13 0.32,0.04 0.42,0.06 0.23,0.1 2.6,1.62 0.22,0.17 -1.01,1.13 -0.22,0.13 -0.7,0.3 -0.25,0.05 z m -3.96,10.47 -0.32,-0.04 -0.13,-0.21 -0.08,-0.24 -0.01,-0.3 1.05,-2.35 0.27,-0.51 0.16,-0.21 0.81,-1.07 0.17,-0.11 0.24,-0.09 0.26,-0.04 0.25,0.03 0.33,0.88 -0.03,0.24 -1.75,3.16 -0.48,0.64 -0.74,0.22 z m -17.73,5.88 -0.28,-0.06 -0.51,-0.55 -0.13,-0.21 -0.18,-0.48 -0.62,-1.83 -0.05,-0.27 0,-0.28 0.07,-0.64 0.49,-2.59 0.19,-0.64 0.21,-0.13 0.17,0.18 0.37,0.58 0.57,1.11 0.1,0.53 -0.04,0.31 -0.11,0.31 -0.32,0.43 -0.21,0.6 -0.15,1.26 -0.07,1.22 0.01,0.28 0.09,0.23 0.4,0.64 z m -3.08,-37.94 4.03,2.55 0.4,0.35 0.27,0.74 0.51,1.76 -0.04,0.33 -1.26,4.29 -0.16,0.22 -0.29,0 -4.44,-2.38 -0.21,-0.16 -0.49,-0.59 -0.13,-0.22 -0.03,-0.16 -0.02,-0.1 0.11,-0.3 0.62,-0.99 0.6,0.16 0.35,-0.42 -0.07,-0.55 -0.95,-1.07 0.08,-0.02 -0.01,-0.29 -0.43,-1.15 0.23,-0.57 0.4,-0.58 0.93,-0.85 z m 4.97,17.18 -0.62,-0.04 -0.87,-0.34 -0.92,-0.62 -0.4,-0.34 -0.26,-0.43 -1.17,-2.83 -0.32,-0.98 0.13,-0.26 0.21,-0.14 0.24,-0.09 0.29,0 0.31,0.1 2.3,1.6 0.18,0.19 0.79,0.88 0.09,0.25 0.32,2.41 0,0.29 -0.06,0.27 -0.24,0.08 z m 1.05,1.59 -1.57,-0.16 -2.01,-0.46 -0.61,-0.21 -0.26,-0.13 -0.26,-0.14 -0.43,-0.32 -0.32,-0.4 -2.39,-4.86 -0.04,-0.26 0.04,-0.33 0.09,-0.23 0.21,-0.13 0.2,-0.07 0.83,-0.1 1.38,2.59 0.18,0.47 0.19,1.06 0.01,0.3 -0.04,0.32 0.01,0.59 0.04,0.26 0.26,0.14 2.3,1.12 2.19,0.95 z m 18.23,-45.76 0.64,-0.02 2.5,0.38 0.35,0.09 1.9,0.85 1.73,0.91 1.05,0.76 -0.04,0.32 0,0.6 0.04,0.26 0.18,0.79 1.68,5.07 0.18,0.5 0.31,0.7 0.13,0.22 0.53,0.58 0.54,0.23 0.36,0 1.15,0.4 1.01,0.72 0.66,0.5 -0.01,2.69 -0.04,0.32 -0.07,0.28 -0.17,0.22 -0.23,0.01 -0.26,-0.13 -0.39,-0.37 -1.5,-1.75 -0.88,-0.23 -1.89,3.78 2.75,0.76 2.78,0.5 0.18,0.19 0.04,0.28 -0.01,0.29 -0.18,1 -0.14,0.25 -1,0.83 -1.08,0.17 -0.3,0 -0.7,-0.17 -2.97,0.39 -2.53,1.22 -0.75,0.93 -0.6,1.36 0.15,0.14 0.27,-0.04 0.48,-0.17 0.3,0 0.12,0.22 -0.28,0.52 -1.79,2.14 -0.55,0.56 -7.06,5.88 -0.26,0.06 -1.35,-0.38 -0.99,-0.16 -0.24,0.09 -0.29,1.4 0,0.17 0.45,1.4 0.13,0.22 0.18,0.19 0.3,0.12 0.7,0.17 0.26,0.13 0.04,0.27 -0.16,0.22 -0.24,0.09 -0.29,0 -3.6,-0.76 -0.26,-0.13 -0.13,-0.22 0.07,-0.27 0.38,-0.36 0.29,0 0.26,0.14 0.15,-0.31 -0.12,-0.77 -0.03,-0.16 -0.06,-0.5 -0.23,-0.09 -1.65,0.12 -0.23,0.09 -0.68,0.82 -1.14,2.3 1.12,1.32 0.07,1.7 -3.97,-0.06 -0.32,-0.04 -0.3,-0.11 -0.52,-0.27 -1.02,-0.63 -0.7,-0.46 -0.44,-0.32 -0.39,-0.35 -0.49,-0.59 -0.48,-0.59 -0.18,-0.49 -0.01,-0.59 0.04,-0.32 0.56,-3.01 0.19,-0.66 0.11,-0.3 0.28,-0.55 0.38,-0.36 0.67,-0.35 0.1,-0.25 -0.59,-2.49 -0.18,-0.49 -0.18,-0.19 -1.51,-2.33 -0.32,-1.32 0.39,-0.08 3.77,-1.23 1.15,-0.52 0.54,-0.29 2.96,-1.61 0.46,-0.48 0.7,-1.92 1.02,-0.74 3.59,-2.08 1.07,-0.58 0.66,-0.23 0.46,-0.75 1.97,-6.71 1.58,-7.69 -0.09,-0.81 z m -32.25,46.73 0.13,0.09 1.94,0.44 0.28,0.06 0.32,0.03 0.27,-0.04 -0.05,-0.26 -0.26,-0.43 -0.18,-0.19 -0.4,-0.65 -0.14,-0.5 -0.1,-0.53 -0.15,-1.09 0.04,-0.32 0.29,-0.01 1.35,0.65 0.79,0.39 0.74,0.43 3.04,0.73 4.08,0.66 2.83,0.26 1.61,-1.69 0.86,-1 0.18,-0.17 0.76,-0.59 0.21,-0.13 0.32,0.04 0.53,0.56 0.26,0.13 0.69,0.17 0.59,-0.01 1.56,-0.07 1.94,-0.59 0.93,-0.91 0.23,-0.38 0.56,-0.52 0.21,-0.13 0.24,-0.09 1.56,-0.24 1.15,0.24 0.3,0.1 0.95,0.6 0.13,0.21 -0.09,0.31 -0.11,0.1 -0.13,0.08 0.08,0.25 0.52,0.27 0.32,0.04 0.2,-0.22 0.12,-0.3 -0.01,-0.29 -0.26,-1.02 -0.48,-1.48 -0.5,-1.4 -0.09,-0.25 0,-0.29 0.17,-0.12 1.13,-0.09 0.56,0.25 0.65,0.49 0.18,0.19 2.06,2.36 0.13,0.2 0.73,1.51 0.22,0.75 0.04,0.27 -0.09,0.34 -0.19,0.17 -0.24,0.09 -0.99,0.3 -1.87,0.3 -2.88,-0.26 -0.96,-0.09 -0.62,-0.16 -0.98,4.62 1.55,3.8 -1.69,0.5 -2.14,0.71 -0.23,0.08 -2.14,1.34 -3.14,2.51 -3.32,6.77 -0.08,0.34 -0.04,0.33 0.01,1.15 0.07,0.78 -2.78,-4.3 -0.87,-3.85 0.32,-4.02 -0.01,-0.87 -0.04,-0.27 -0.05,-0.26 -0.15,-0.14 -2.39,-2.04 -0.13,-0.1 -1.05,4.82 -0.33,1.74 -0.04,0.31 0.05,0.26 0.13,0.21 0.22,0.46 0.09,0.24 -0.4,1.89 -0.93,1.24 -0.76,-1.57 -0.61,-0.09 -1.86,0.23 -0.51,0.1 -0.73,0 -0.84,-0.2 -1.39,-1.64 -0.5,-1.34 -1.67,-8.49 0.13,-0.67 0.92,-2.05 0.12,-0.08 z m 33.77,-9.75 -0.32,-0.04 -0.7,-1.05 -0.13,-0.22 -0.04,-0.56 0,-0.3 0.07,-0.27 0.16,-0.22 1.09,-1.43 1.07,-1.05 0.6,-0.48 0.26,-0.04 2.52,0.43 0.21,0.17 -0.38,0.35 -0.21,0.13 -0.24,0.09 -1.25,0.39 -2.03,1.33 -0.07,0.29 0.04,0.26 0.44,1.21 -0.04,0.32 -0.57,0.53 -0.21,0.13 -0.27,0.03 z"
	/>
	<path
		id="uppsala"
		name="Uppsala"
		d="m 165.92361,529.09334 0.54,-0.55 0.23,-0.13 3.02,-0.61 0.92,-0.01 0.61,0.18 0.81,0.42 0.7,0.73 0.37,0.39 0.19,0.51 -0.14,0.27 -0.2,0.18 -0.92,0.51 -0.19,0.19 0.01,0.3 0.14,1.01 0.05,0.28 0.52,1.52 0.14,0.22 0.5,0.61 0.23,0.16 0.54,0.28 0.27,0.13 1.01,0.24 0.25,-0.1 -0.01,-0.3 -0.14,-0.52 -0.19,-0.51 -0.04,-0.27 -0.01,-0.61 0.09,-0.36 0.11,-0.33 1.06,-1.27 1.83,-1.01 1.01,-0.37 0.28,-0.04 1.22,-0.02 0.33,0.04 0.23,0.16 0.18,0.19 0.14,0.22 0.6,1.48 2.82,5.67 2.85,5.42 1.55,0.34 0.17,-0.22 0.25,-0.1 0.83,-0.13 3.12,0.53 0.22,0.16 0.18,0.5 0.49,1.7 2.86,2.63 0.71,0.47 0.18,0.21 -0.04,0.32 -0.2,0.18 -0.49,0.18 -0.61,0 -0.68,-0.13 -1.59,-0.43 -0.58,-0.25 -0.22,-0.16 -0.4,-0.37 -0.98,-0.92 -0.36,-0.38 -0.54,-0.89 -0.76,-1.06 -0.27,-0.13 -0.04,0.33 0.01,0.31 2.17,4.96 0.68,1.11 2.27,1.83 0.02,0.77 -1.58,7.69 -1.97,6.71 -0.46,0.75 -0.66,0.23 -1.07,0.58 -3.59,2.08 -1.02,0.74 -0.7,1.92 -0.46,0.48 -2.96,1.61 -0.54,0.29 -1.15,0.52 -3.77,1.23 -0.39,0.08 -0.31,-1.52 -0.09,-0.25 -0.17,-0.07 -0.13,0.26 -0.22,0.61 0.1,0.54 0.05,0.15 -1.31,-0.83 -0.2,0.16 0.02,-1.88 -0.6,-3.46 -0.09,-0.25 -0.9,-0.95 -0.17,0.12 -2.42,3.91 -1.28,2.18 -0.08,0.64 1.74,4.64 0.27,0.42 0.18,0.19 0.22,0.17 0.19,-0.04 0.95,1.07 0.07,0.55 -0.35,0.42 -0.6,-0.16 -1.21,-0.14 -0.26,-0.14 -1.15,-0.77 -0.22,-0.16 -1.61,-2.32 -0.13,-0.22 -0.05,-0.28 -0.01,-0.29 0.41,-1.64 -0.07,-0.2 -0.21,0.15 -0.83,1.54 0.24,0.87 0.46,1.2 0.86,1.55 0.09,0.25 0.05,0.27 0.28,2.63 0.01,0.29 -0.04,0.32 -0.21,0.62 -0.29,0 -1.94,-0.98 -1.68,-0.85 -0.18,-0.19 -1.85,-1.59 -1.8,-0.48 -1.3,0.22 -0.16,0.22 -0.81,0.16 -0.32,-0.04 -1.83,-0.33 -0.26,-0.13 -1.98,-2.01 -0.77,-4.77 -0.28,-0.81 -1.23,-2.27 -0.71,-0.47 -0.78,-0.9 -0.01,-0.54 0.35,-0.87 1.38,-2.62 1.53,-0.69 2.22,-0.51 0.47,0.07 1.42,1.44 0.52,0.16 1.03,-1.04 0.63,-1.05 0.41,-1.12 0.03,-2.89 2.33,-3.12 2.06,-1.42 0.46,-0.47 0.48,-0.81 0.51,-2.81 0.12,-0.91 0.61,-5.02 -0.63,-0.41 -1.77,-0.81 -0.52,-0.59 -1.24,-1.89 -0.17,-0.32 -0.1,-0.19 0.06,-0.67 0.17,-0.83 0.13,-0.8 0.11,-0.5 -0.15,-0.75 -0.54,-0.88 0.15,-0.56 0.34,-0.4 0.41,-0.49 0.44,-0.62 0.54,-0.41 0.14,-0.11 0.66,-0.29 0.33,-0.48 0.15,-0.59 0.32,-1.44 1.04,-4.02 0.15,-0.95 0.29,-1.09 0.45,-1.19 z m 5.62,51.89 -0.96,0.85 -0.4,0.58 -0.23,0.57 -0.21,-0.54 -0.16,-1.41 -0.06,-0.86 -0.12,-1.73 -0.01,-0.29 0.04,-0.32 0.08,-0.36 0.65,-1.35 1.36,-0.25 0.29,0 0.31,0.1 0.18,0.19 0.05,0.26 -0.11,1.61 -0.43,1.34 -0.28,0.56 0.01,1.05 z m 25.68,-35.1 -0.33,-0.04 -0.74,-0.52 -0.22,-0.18 -2.95,-2.46 -0.18,-0.5 -0.04,-0.27 -0.28,-1.96 -0.27,-4.16 0.07,-0.3 0.17,-0.22 0.25,-0.09 0.5,0.31 0.36,0.7 0.89,3.17 1.35,4.24 0.79,0.3 0.94,1.55 -0.07,0.3 -0.24,0.13 z"
	/>
	<path
		id="varmland"
		name="Värmland"
		d="m 40.703614,505.35334 1.3,4.38 0.25,0.61 1.77,1.74 6.48,6.92 3.18,3.44 3,4.81 3.28,6.83 2.51,4.97 0.39,0.71 0.77,0.8 1.5,0.73 0.95,0.22 0.92,0.06 1.01,0.49 0.36,0.55 0.85,1.88 0.56,1.14 0.77,1.27 1.77,2.79 1.97,2.94 0.61,0.69 1.26,-0.59 -0.05,-1.13 0.46,-0.9 2.38,0.51 0.74,0.69 1.02,1.12 0.05,1.21 0.08,1.43 0.1,0.66 0.29,0.81 0.63,0.59 2.19,1.22 2.24,1.3 1.34,1.13 0.29,0.53 0.11,0.28 0.21,0.65 0.13,1.67 -1.16,3.49 -0.06,8.39 0.65,5.31 0.49,1.92 0.42,1.1 0.31,1.28 0.1,0.65 -0.08,0.89 -1.1,4.63 -0.55,1.07 -1,1.41 -0.74,0.67 -1.27,1.92 -0.35,0.87 -0.87,6.05 0,0.7 0.12,1.33 0.24,1 0.34,1.14 0.3,0.78 0.51,1.02 0.21,0.58 0.1,0.71 -0.27,0.57 -0.28,0.49 -1.43,1.66 -0.14,-0.27 -0.55,-0.55 -0.72,-0.46 -2.13,-0.55 -0.45,-0.09 -0.65,0.07 -0.52,0.1 -4.73,-0.04 -3.12,-0.26 -3.13,-0.02 -1.57,0.04 -2.38,2.18 -0.73,0.74 -0.86,0.95 -0.23,0.44 -0.2,0.52 -0.66,2.36 -0.14,0.51 -0.42,1.6 -0.47,2.08 -0.12,0.77 -0.01,0.48 0.59,1.37 0.79,1.01 0.38,0.6 -0.81,0.49 -1.63,0.71 -1.42,0.43 -0.61,-0.01 -4.04,-2.05 -2.37,-1.28 -2.1,-1.17 -0.61,-1.15 -0.44,-1.66 -0.21,-1.5 -0.1,-0.58 -1.26,-4.61 -0.25,-0.8 -2.84,-7.28 -0.56,-0.63 -0.79,-0.47 -1.17,-0.16 -0.53,0.23 -0.2,0.72 -0.02,1.12 -0.35,0.58 -2.92,-0.19 -0.58,-0.22 -4.64,-3.38 -0.62,-0.94 -0.67,-1.56 -0.45,-0.42 -4.02,0.16 -0.13,0.7 0.05,0.4 0.06,0.77 0.02,0.8 -0.65,0.09 -4.65,-1.44 -1.56,-0.55 0.4,-0.66 0.2,-0.33 0.08,-0.13 0.08,-0.31 0.01,-0.65 -0.05,-0.9 -0.16,-1.45 -0.21,-1.1 -1.16,-5.44 -1.88,-8.42 -0.04,-0.2 2.38,-2.09 0.21,-0.14 0.46,-0.24 0.79,-0.21 0.23,-0.1 0.21,-0.16 1.8,-2.25 0.12,-0.32 0.05,-0.35 0.01,-0.65 0,-0.95 -0.12,-1.79 -0.06,-0.64 -0.14,-0.52 -0.12,-0.24 -0.14,-0.24 -0.31,-0.41 -1.42,-1.81 0.98,-0.8 0.61,-0.45 2.14,-1.42 0.29,-0.05 0.32,0.09 0.47,0.29 0.28,0.11 0.68,0.13 1.93,0.01 0.59,-0.05 0.28,-0.08 0.6,-0.45 0.77,-0.7 3.12,-3.09 0.36,-0.39 3.65,-4.61 0.4,-0.67 0.32,-1.16 0.13,-0.68 0.06,-0.37 0.05,-0.35 0.12,-1.06 0.13,-1.31 0.01,-0.33 0.01,-0.33 -0.02,-0.62 -0.09,-0.9 0.62,-6.58 0.27,-0.52 0.9,-1.82 0.47,-1.13 0.2,-1.38 0.14,-0.95 0.13,-1.05 0.01,-0.33 -0.06,-0.61 -0.3,-1.98 -0.18,-0.52 -2.16,-5.55 -2.13,-4.32 -1.03,-2.19 -0.19,-0.51 -0.38,-1.03 -0.29,-1.1 -0.07,-0.27 -0.39,-1.68 -0.73,-2.79 -0.97,-3.19 -0.7,-1.47 -0.31,-0.42 -0.43,-0.67 -0.12,-0.24 -0.07,-0.27 0.14,-0.24 0.19,-0.21 0.66,-0.43 1.23,-0.59 2.48,-1.15 0.52,-0.18 0.65,-0.03 0.68,0.03 1.11,0.17 1.77,0.15 0.93,-0.09 0.52,-0.18 z"
	/>
	<path
		id="vasterbotten"
		name="Västerbotten"
		d="m 114.92361,190.96334 1.99,0.82 4.43,1.9 1.64,0.82 10.46,7.65 4.58,3.4 1.62,1.3 2.11,1.88 4.67,0.87 1.09,0.25 2.5,0.74 1.27,0.83 1.93,1.53 1.88,1.73 2.18,2.53 3.49,3.63 4.01,4.06 2.55,2.82 3.29,4.15 1.48,1.62 1.89,2.06 6.33,2.72 4.59,1.22 0.86,-0.25 0.78,0.07 0.67,0.13 0.95,1.18 0.32,0.9 0.64,1.06 0.44,0.46 0.26,0.19 6.21,4.17 0.34,0.19 0.71,0.25 1.29,0.32 4.01,1.98 0.21,0.61 0.43,0.46 0.71,0.6 0.31,0.23 2.05,1.29 2.96,1.84 3.15,1.8 0.83,0.57 0.46,0.41 1.16,1.12 0.24,0.27 0.29,0.5 0.09,0.65 -0.1,0.74 0,0.42 0.05,0.31 0.1,0.31 0.15,0.27 3.96,4.53 1.72,0.03 0.64,-0.33 2.17,-1.6 0.48,-0.65 0.51,-0.79 0.4,-0.89 0.63,-1.14 1.28,-1.94 2.24,-3.19 2.53,-3.42 0.7,-0.81 1.22,0.16 1.31,0.58 4.87,2.32 5.58,2.91 2.69,1.44 1.97,0.95 6.58,2.97 1.56,0.63 3.13,0.65 0.98,0.14 2.75,0.35 2.71,0.4 3.05,2.16 4.63,3.92 -1.04,-0.15 -0.29,0.09 -0.27,0.16 -0.12,0.42 -0.02,0.35 0.08,0.66 0.25,0.21 -2.62,3.71 -1.46,0.99 -0.65,0.09 -1.21,0.31 -0.29,0.1 -1.02,3.49 0.04,0.33 0.06,1.48 -0.68,2.02 -1.36,0.69 -0.23,0.05 -0.36,-0.14 -0.31,-0.19 -0.15,-0.26 -0.18,-0.58 0.03,-0.71 -0.1,-0.29 -0.25,-0.21 -0.33,0.04 -0.41,0.5 -0.15,0.36 -0.07,0.38 -0.02,0.71 0.09,0.29 0.15,0.28 0.99,1.65 0.2,0.24 0.2,0.22 0.25,0.21 0.49,0.12 0.23,0.04 0.67,-0.02 1.47,-0.45 0.38,0.05 0.76,0.27 0.91,0.53 0.25,0.21 0.15,0.26 0.08,0.65 -0.15,5.49 -0.4,-0.12 -0.3,-0.17 -0.26,-0.21 -0.79,-0.94 -2.03,-2.32 -0.48,-0.1 -0.2,-0.06 -0.38,0.05 -0.44,0.11 -0.02,0.36 0.2,1.6 0.18,0.6 0.4,0.46 3.63,3.61 2.26,1.5 0.12,-0.39 0.15,-0.36 0.17,-0.14 2.43,1.83 2.35,2.65 -0.07,0.24 -0.23,0.19 -0.5,0.34 -0.29,0.09 -2.58,-0.49 -1.36,-0.49 -0.35,-0.14 -0.18,0.15 0.14,0.27 0.68,0.99 0.19,0.24 0.25,0.2 2.54,1.41 2.58,0.36 0.25,0.2 0.19,0.24 0.09,0.29 0.12,0.97 -0.05,0.46 -3.94,4.97 -1.78,1.57 -1.81,1.54 -0.23,0.19 -0.72,0.52 -0.26,0.15 -0.23,0.05 -0.2,-0.22 -0.04,-0.32 -0.09,-0.29 -0.32,-0.1 -0.21,0.25 -6.96,9.56 -0.37,0.55 -0.09,0.32 -1.3,5.12 -0.25,2.83 -2.69,6.98 -0.43,1.03 -0.2,0.25 -1.1,1.01 -1.55,1.06 -1.48,0.83 -2.09,1.03 -0.71,-1.26 -0.22,-0.15 -0.15,0.22 -1.23,3.63 -0.79,3.61 -0.11,0.4 -0.7,1.01 -2.33,1.65 -0.92,-1.16 -4.33,0.6 -2.33,1.19 -2.97,1.58 -0.17,0.17 -3.11,4.33 -0.69,0.99 -0.05,0.36 0.04,0.31 0.14,0.25 0.2,0.23 0.19,0.56 0.27,1.49 -0.17,0.29 -1.79,1.51 -0.58,0.13 -0.4,-0.1 -0.71,-0.66 -0.14,-0.25 0.11,-0.74 0.08,-0.31 0.01,-0.33 -0.1,-0.28 -0.62,-1.18 -3.03,-3.24 -0.69,-0.61 -0.32,-0.08 -0.28,0.1 -0.66,0.59 -0.14,0.21 0.04,0.31 1.3,5.17 -0.7,0.75 -2.15,0.31 -0.37,-0.02 -0.88,-0.82 -0.15,-0.25 -0.09,-0.61 -0.24,-1.4 -0.29,-0.77 -4.06,-7.57 -5.18,-7.69 -1.11,-1.14 -0.93,0.38 -0.54,-0.02 -0.79,-0.23 -7.05,-2.81 -0.54,-0.23 -0.54,-0.33 -0.55,-0.48 -0.43,-0.7 -0.59,-1.8 -0.16,-0.55 -0.15,-1.23 0.09,-0.82 0.32,-0.6 0.43,-1.07 -0.07,-0.65 -0.18,-0.65 -0.5,-0.38 -0.54,-0.27 -0.9,0.12 -1.6,0.55 -9.6,4.5 -4.07,1.57 -4.39,-0.25 -4.17,-0.38 -4.84,-0.73 -1.51,-0.27 -2.83,-0.62 -4.06,-0.85 -3.24,-0.45 -0.61,-0.4 -2.4,-2.47 -0.89,-1.25 -2.8,-3.33 -2.26,-2.58 -7.86,-8.88 -0.9,-0.1 -1.79,0.37 -0.7,0.27 -1.15,0.1 -0.64,-0.12 -0.07,-1.05 -0.27,-2.68 -0.39,-1.15 -2.3,-1.56 -2.31,-1.58 -5.71,-4.24 -1.12,-2.86 -0.35,-1.33 -0.42,-0.82 -0.95,-1.48 -1.37,-1.35 -0.66,-0.48 -2.25,-3.71 -0.49,-1.4 -3.69,-3.55 -0.56,-0.46 -2.2,-1.01 -0.53,-0.39 -0.37,-0.6 -0.48,-1.19 -0.22,-1.29 -0.53,-0.91 -6.529996,-7.32 -3.62,-3.24 -1.6,-1.07 -5.14,-5.05 -1.49,-1.68 0.33,-0.82 0.28,-0.93 0.26,-1.24 0.71,-3.7 0.34,-2.4 3.28,-4.22 0.04,-2.86 -0.02,-1.11 0.04,-4.44 0.05,-4.43 0.09,-4.45 0.84,-7.06 0.07,-0.43 0.12,-0.39 0.68,-1.77 0.6,-1.32 0.42,-1.05 0.46,-1.54 0.27,-1.25 0.08,-0.66 -0.68,-3.19 -0.76,-3.54 -0.29,-1.19 -0.76,-3.76 -0.15,-1.15 -0.41,-3.49 -0.26,-2.33 -0.11,-1.16 5.62,-0.53 6.969996,-0.56 1.16,-0.05 11.7,-8.76 -0.64,-2.43 z"
	/>
	<path
		id="vasternorrland"
		name="Västernorrland"
		d="m 147.64361,552.12334 0.27,0.43 0.13,0.22 0.69,0.03 0.47,-0.19 2.65,-1.62 0.14,-0.12 0.55,-0.48 0.65,-0.96 0.17,-0.51 0.02,-0.69 0.17,-0.46 1.41,-0.04 1.42,0.47 1.15,0.7 3.31,-2.52 0.17,0.31 1.24,1.9 0.52,0.59 1.77,0.81 0.63,0.41 -0.61,5.02 -0.12,0.92 -0.5,2.8 -0.49,0.81 -0.45,0.47 -2.06,1.42 -2.33,3.12 -0.03,2.89 -0.41,1.13 -0.64,1.05 -1.03,1.03 -0.52,-0.16 -1.42,-1.44 -0.47,-0.07 -2.21,0.51 -1.54,0.68 -1.38,2.63 -0.35,0.87 0.02,0.54 0.77,0.9 0.71,0.46 1.23,2.27 0.28,0.81 0.77,4.77 -1.02,-0.03 -1.04,1.38 -3.31,0.56 -0.1,-0.23 -0.92,-1.52 -0.18,-0.19 -1.35,-1.24 -0.35,-0.07 -0.27,0.05 -0.21,0.13 -0.85,0.55 -0.16,0.24 0.05,0.26 0.64,0.79 0.54,0.55 0.14,0.22 -0.04,0.32 -0.07,0.36 -0.13,0.26 -1.3,1.92 -0.44,0.23 -3.67,1.78 -4.11,-0.09 -0.25,-0.02 -1.77,-0.3 -0.26,-0.11 -0.67,-0.48 -0.59,-0.52 -0.23,-0.16 -0.26,-0.11 -0.14,0.14 0.05,0.27 0.1,0.24 0.42,0.63 0.64,0.79 0.18,0.18 0.23,0.16 0.52,0.25 0.31,0.11 1.48,0.23 0.33,0.03 2.51,-0.24 -0.4,0.08 0,1.26 0.08,1.04 0.21,0.58 -0.04,0.49 -0.7,1.35 -0.64,0.26 -1.35,0.27 -0.59,0.04 -0.53,0 -1.78,-0.17 -0.88,-0.3 -0.55,0.23 -0.58,0.43 -1.19,0.99 -1.91,2.93 -0.08,0.68 0.06,0.56 -0.08,0.63 -0.35,1.06 -0.55,0.3 -1.56,0.23 0.42,-1.93 -2.81,-0.96 -2.44,-1.49 0.32,-5.03 0.24,-0.63 1.08,0 0.74,-0.4 0.66,-0.49 0.03,-0.52 -0.26,-3.59 -0.26,-1.08 -0.22,-0.57 -2,-3.19 -0.78,-1.94 -1.27,-3.55 -0.29,-1.24 -0.41,-1.47 -0.49,-1.28 -1.79,-3.91 -0.13,-0.09 0.45,-1.02 0.66,-1.33 1.06,-1.96 0.35,-0.54 0.49,-0.19 0.85,-0.03 0.62,0.13 0.44,0.59 1.38,0.13 0.69,-0.53 0.39,-0.98 0.66,-1.93 0.14,-0.57 -0.5,-0.44 -0.46,-0.41 0.01,-0.56 0.2,-0.74 1.54,-4.95 0.95,-0.96 4.27,-1.06 1.89,-0.28 3.02,2.5 0.47,0.44 -0.23,1.09 -0.13,0.5 0.07,0.76 0.24,0.5 0.54,0.5 2.3,0.15 0.67,-0.08 1.33,-0.44 0.56,-0.27 0.61,-0.49 3.78,-2.94 2.45,-1.86 z"
	/>
	<path
		id="vastmanland"
		name="Västmanland"
		d="m 168.76361,432.67334 -0.74,-0.13 -0.33,-0.13 -0.58,-0.29 -0.15,-0.24 -0.1,-0.27 -0.21,-1.17 0.04,-0.36 0.09,-0.38 -0.01,-0.32 -0.16,-0.89 -0.2,-0.52 -0.59,-0.95 -0.1,-0.27 -0.05,-0.29 0.16,-0.16 0.87,0.43 1.5,0.3 0.24,0.19 0.23,0.78 0.15,0.24 0.1,0.25 0.1,0.59 0.15,0.24 0.24,0.17 0.15,0.24 0.11,0.59 -0.07,0.32 0.06,0.29 0.1,0.27 0.02,0.65 0.39,0.41 0.15,0.24 -0.88,0.16 -0.68,0.01 z m 14.93,-17.55 -0.21,-0.13 -0.15,-0.24 -0.25,-0.51 -0.1,-0.27 -0.1,-0.59 0.09,-0.7 0.44,-1.33 0.18,-0.24 0.38,-0.24 0.27,-0.1 1.56,0.29 0.31,0.08 0.15,0.24 0.16,0.35 0.1,0.61 -0.05,0.35 -1.08,1.45 -0.18,0.24 -0.21,0.19 -1.02,0.5 -0.29,0.05 z m 33.28,-46.24 -0.33,0 -0.19,0.25 -0.16,0.3 -0.13,0.34 -0.1,0.39 0.04,1.31 0.04,0.64 -1.24,4.79 -2.83,3.87 -1.5,4.86 -0.22,0.19 -0.3,0.05 -0.26,-0.11 -1.7,-1.97 -0.15,-0.26 -0.1,-0.26 0.04,-0.37 0.01,-0.33 -0.24,-0.85 -1.39,-1.61 -0.37,-0.05 -2.06,1.28 -0.15,0.09 -0.08,0.13 -0.05,0.19 0.06,0.17 0.18,0.1 0.98,0.37 0.97,0.41 0.64,0.99 0.19,0.21 -0.47,0.88 -2.98,1.74 -0.23,-0.05 -0.39,-0.44 -0.58,0.15 -2.43,1.59 -2.12,1.35 -0.21,0.19 -0.15,0.29 -1.69,4.31 0.95,2.87 0.39,0.08 0.34,0.13 0.25,0.19 0.15,0.24 0.24,0.52 0.1,0.6 -0.1,0.26 -2.71,5.13 -0.18,0.24 -6.83,4.6 -0.24,0.14 -1.94,0.59 -1.14,-0.88 0.57,-1.33 0.65,-0.02 0.24,-0.14 0.18,-0.24 -0.01,-0.32 -0.19,-0.22 -1.7,-0.93 -0.95,-0.14 -1.38,0.98 -0.27,0.63 0.53,4.66 0.26,1.49 0.01,0.66 -1.26,1.37 -0.28,-0.03 -1.91,0.32 0.1,0.27 0.2,0.21 2.14,1.24 1.81,0.46 0.29,0.16 0.45,1.69 -0.18,0.24 -5.61,5.88 -0.21,0.19 -0.27,0.1 -0.35,-0.03 -0.59,-0.95 -0.24,-0.17 -0.35,-0.05 -1.15,0.25 -0.8,0.3 -0.21,0.19 -0.71,0.97 -0.12,0.35 0.2,0.52 0.39,0.41 0.24,0.17 -0.37,0.57 -1.38,0.21 -0.35,-0.05 -1.1,-0.3 -0.48,-0.35 -0.2,-0.21 -0.25,-0.51 -0.4,-1.05 -0.25,-0.51 -0.79,-1.16 -0.98,-1.35 -0.4,-0.41 -0.35,-0.05 -0.21,0.21 -1.77,2.43 -0.15,0.29 -0.09,0.38 0.9,6.84 0.32,1.77 0.1,0.27 2.36,3.34 0.98,0.4 1.31,0.47 0.66,0.17 1.24,0.44 0.57,0.3 0.24,0.17 -0.13,0.21 -1.31,1.02 -1.15,0.79 -0.3,-0.08 -0.2,-0.21 -0.05,-0.28 -0.52,-0.01 -0.16,0.07 -0.05,0.23 -0.65,4.26 -0.59,-0.21 -1.71,-0.47 -1.27,-0.14 -3.61,-0.36 -4.47,-0.86 -3.08,-0.68 -0.95,-0.38 -4.09,-1.12 -4.54,-0.98 -3.09,-0.64 -1.28,0.03 -0.58,0.09 -2.43,-0.05 -1.86,-0.38 -6.14,-1.42 -2.23,-0.95 -2.88,-1.28 -1.96,-0.93 -1.49,-0.52 -1.64,-0.21 -0.51,0 -2.39,0.39 -0.89,0.62 -0.94,0.99 -1.01,0.91 -1.03,0.87 -0.37,0.27 -0.49,-0.49 -0.75,-0.44 -1.24,0.04 -0.56,0.33 -1.29,1.1 -0.56,0.44 -3.1,-1.73 -2.39,-1.39 -3.829996,-5.37 -0.82,-10.56 6.789996,-0.09 0.73,0.21 0.49,0.33 0.58,0.54 1.19,0.62 0.59,-0.21 1.32,-1.02 2.89,-1.11 2.2,-0.3 0.56,-0.11 7.19,-1.94 1.47,-0.48 1.81,-1 4.95,-2.28 0.79,0.05 0.67,0.26 0.91,0.69 0.87,0.3 0.65,0.08 0.65,-0.1 4.42,-0.96 1.85,-0.93 0.23,-0.74 0.57,-1.63 0.85,-1.65 0.32,-0.53 3.13,-3.93 1.63,-1.83 1.49,-1.4 1.88,-0.6 1.77,-0.1 0.87,-0.13 1.54,-0.29 1.54,-0.66 -6.85,-8.17 -3.14,-3.66 -1.24,-1.41 -1.77,-1.8 -4.43,-3.55 -1.29,-0.93 -1.12,-0.93 -2.52,-2.14 -1.09,-0.98 -4.1,-8.58 -0.48,-2.74 -0.26,-0.86 -0.51,-0.81 -0.83,-1.22 -0.52,-0.59 -0.83,-0.76 -0.65,-0.69 -0.3,-1.29 1.39,-0.64 0.62,-0.23 1.4,-0.4 3.67,-0.48 1.84,-0.12 2.09,0.33 1.93,-0.31 4.41,-2.17 2.66,-0.65 0.58,-0.58 -0.1,-2.24 -0.1,-1 -0.14,-0.86 0.11,-0.98 0.4,-1.86 0.63,-2.15 0.18,-0.52 0.98,-2.05 0.79,-1.3 1.64,-2.27 2.4,2.47 0.61,0.4 3.24,0.45 4.06,0.85 2.83,0.62 1.51,0.27 4.84,0.73 4.17,0.38 4.39,0.25 4.07,-1.57 9.6,-4.5 1.6,-0.55 0.9,-0.12 0.54,0.27 0.5,0.38 0.18,0.65 0.07,0.65 -0.43,1.07 -0.32,0.6 -0.09,0.82 0.15,1.23 0.16,0.55 0.59,1.8 0.43,0.7 0.55,0.48 0.54,0.33 0.54,0.23 7.05,2.81 0.79,0.23 0.54,0.02 0.93,-0.38 1.11,1.14 5.18,7.69 4.06,7.57 0.29,0.77 0.25,1.43 z"
	/>
	<path
		id="vastra gotaland"
		name="Västra Götaland"
		d="m 13.133614,667.87334 -0.25,0.08 -0.27,-0.04 -1.23,-0.81 -0.15,-0.19 -0.12,-1.43 -0.22,-0.45 -0.3,-0.86 -0.03,-0.29 0.02,-0.93 0.1,-0.26 0.49,-0.55 0.25,-0.07 5.44,0.37 0.14,0.56 0.03,0.28 -0.14,1.02 -0.07,0.29 -0.13,0.23 -0.17,0.18 -1.67,1.63 -0.35,0.33 -1.37,0.91 z m 5.6,-9.37 -0.16,0.18 -2.26,0.79 -1.01,0.11 -1.37,-0.43 -0.03,-0.28 -0.45,-0.28 -0.62,-0.01 -0.79,0.18 -2.2699998,0.69 -0.04,0.28 -0.06,1.21 0.04,0.28 -0.27,-0.32 -0.11,-0.22 -1.31,-2.66 0.04,-0.33 0.21,-0.53 6.8299998,-6.86 0.23,-0.11 0.83,0.04 0.34,0.06 0.4,0.15 1.32,1.81 0.62,1.06 0.07,0.26 0.03,0.28 0.06,2.08 -0.03,1.24 -0.1,0.68 -0.14,0.65 z m 11.65,-53.65 4.65,3.39 0.57,0.21 2.92,0.19 0.35,-0.57 0.02,-1.13 0.2,-0.71 0.53,-0.23 1.17,0.16 0.79,0.47 0.56,0.63 2.83,7.28 0.25,0.8 1.26,4.61 0.1,0.58 0.21,1.5 0.44,1.66 0.61,1.15 2.11,1.17 2.36,1.29 4.04,2.05 0.61,0.01 1.42,-0.44 1.63,-0.71 0.81,-0.49 -0.38,-0.59 -0.79,-1.02 -0.59,-1.37 0.01,-0.48 0.12,-0.76 0.47,-2.08 0.42,-1.6 0.14,-0.51 0.66,-2.36 0.21,-0.53 0.23,-0.44 0.86,-0.95 0.73,-0.74 2.38,-2.18 1.57,-0.04 3.13,0.03 3.12,0.26 4.73,0.04 0.53,-0.1 0.65,-0.07 0.46,0.09 2.13,0.55 0.71,0.46 0.56,0.55 0.13,0.26 0.59,1.94 2.28,6.74 0.67,1.95 1.93,4.19 2.44,1.13 1.28,-0.11 0.81,-0.34 1.48,-0.28 1.81,1.37 1.16,0.58 -0.47,0.86 -0.57,1.06 -4.62,9.08 -1.18,2.45 -0.7,1.5 -1.36,2.97 -0.95,2.17 -0.94,2.62 -1.55,4.26 -0.34,0.79 -0.11,0.39 -0.77,1.76 -2.33,5.26 -1.41,2.79 -0.55,1.06 -3.57,4.88 -0.59,-0.23 -0.79,-0.95 -1.17,-1.09 -1.12,0.4 -0.48,0.22 -0.47,0.55 -0.83,0.03 -1.17,-0.58 -0.1,-0.08 -0.01,1.32 -0.05,0.56 -0.21,1.68 -1.01,6.37 -0.56,3.18 -0.24,0.96 -0.29,0.79 -3.47,5.6 -3.71,3.71 -1.85,1.04 -2.83,3.39 -0.68,1.29 -1.97,3.24 -0.8,0.83 -0.11,-0.28 -1.31,-1.35 -2.68,-2.26 -5.98,-5.03 -1.17,-0.35 -2.17,0.34 -1.52,1.22 -0.18,0.51 -0.25,0.53 -1.5,0.49 -0.53,-0.07 -0.78,-2.11 -0.19,-0.56 -0.08,-0.56 0.04,-0.65 0.1,-0.9 0.4,-0.64 0.04,-0.88 -0.01,-0.5 -2.1,-7.14 -1,-0.96 -0.37,-0.38 -0.65,0.19 -0.65,0.55 -0.84,0.55 -1.16,0.63 -1.01,0.53 -0.8,0.23 -0.59,-0.07 -0.62,-0.12 -1.12,-0.46 -0.62,-0.04 -0.72,0.06 0.06,-0.1 0.07,-0.29 0.17,-1.45 -0.23,-2.45 -0.07,-0.25 -0.11,-0.23 -0.23,-0.05 -0.08,0.3 -0.02,0.34 -0.09,0.3 -0.17,0.16 -0.23,0.07 -0.27,-0.11 -0.92,-2.89 1.02,-0.95 0.51,-0.66 -3.63,0.25 -0.24,0.01 -0.98,-0.23 -0.15,-0.19 0.02,-0.92 0.62,-4.52 -1.45,-1.91 0.53,-1.78 0.16,-0.18 0.21,-0.1 0.25,-0.1 0.79,-0.15 0.42,-0.25 1.01,-5.41 0.15,-1.01 -0.02,-0.58 -0.04,-0.29 -0.15,-0.21 -0.45,-0.25 0,-0.31 0.51,-1.79 1.09,-2.97 0.87,-1.82 0.28,-0.44 0.1,-0.26 0.04,-0.33 -2.16,-4.54 -0.46,-0.79 -1.37,-0.5 -0.31,-0.03 -2.66,2.65 -0.4,0.67 -0.34,0.38 -1.55,1.25 -0.26,-0.01 -0.28,-0.07 -0.54,-0.21 -0.12,-0.22 0.01,-0.31 0.52,-2.35 0.07,-0.31 0.12,-0.25 1.38,-2.61 1.06,-1.84 -1.59,-0.22 -0.51,2.56 -0.26,0.88 -0.24,0.47 -0.54,0.91 -0.29,0.4 -0.2599998,0.32 -0.55,0.49 -1.19,0.83 -0.18,0.1 -2.31,-4.52 -1.92,0.11 -0.98,-2.64 0.9,-5.33 0.49,-2.32 0.08,-0.29 0.24,-1.14 -0.14,-2.67 -0.04,-0.28 -0.19,-0.78 -0.12,-0.22 -0.99,-1.13 -0.78,-1.5 -0.07,-0.24 -0.03,-0.86 0.12,-0.86 0.51,-1.13 0.45,-0.72 0.29,-0.41 0.12,-0.24 0.06,-0.34 -0.08,-1.5 -0.04,-0.62 -0.98,-3.69 -0.73,-0.36 -0.91999998,-0.55 -0.23,-0.16 -0.19,-0.16 -0.23,-0.47 0.17,-2.74 0.15,-0.63 0.22,-0.54 1.02999998,-1.95 0.16,-0.21 0.37,-0.33 0.46,-0.23 1.62,-0.74 1.31,-0.38 0.26,0.11 0.35,0.37 0.31,0.39 0.62,1.72 0.75,1.95 0.47,1.18 0.2,0.2 0.06,-0.09 -0.16,3.12 -0.01,0.33 0.06,0.88 0.03,0.3 0.04,0.21 0.11,0.23 0.19,0.17 0.31,0.07 0.32,0.01 0.8899998,-0.06 2.36,-0.61 0.37,-0.13 0.57,-0.28 0.14,-0.23 3.29,-9.27 0.05,-0.36 -0.03,-0.29 -0.15,-0.51 -0.11,-0.24 -0.07,-0.26 0,-0.24 0.3,-2.43 0.1,-0.7 0.12,-0.66 0.15,-0.56 0.13,-0.3 1.56,0.55 4.66,1.44 0.65,-0.09 -0.01,-0.8 -0.06,-0.77 -0.05,-0.41 0.13,-0.7 4.01,-0.16 0.46,0.42 0.67,1.56 0.6,0.95 z"
	/>
</svg>
