<svg 
    viewBox="0 0 703 989"
    xmlns="http://www.w3.org/2000/svg"
    aria-label="Map of Isle of Man"
>
    <path 
      id="ayre-and-michael" 
      name="Ayre and Michael" 
      d="M648.96,191.52c-3.721-0.239-5.585-2.126-8.88-2.64
                c-4.736,2.922-8.096,5.295-10.8,9.36c-0.32-0.24-0.64-0.48-0.96-0.72c-1.791,1.667-3.171,2.627-3.84,5.52
                c-1.322,0.033-3.003,0.105-3.6,0.96c-0.4,1.68-0.8,3.36-1.2,5.04c0.08,0.08,0.16,0.16,0.24,0.24c0.4,0,0.8,0,1.2,0
                c-0.08,0.4-0.16,0.8-0.24,1.2c-1.461,3.347-4.545,4.593-7.44,6.48c-0.32,2.08-0.64,4.16-0.96,6.24c0.08,0.08,0.16,0.16,0.24,0.24
                c1.92,0.08,3.84,0.16,5.76,0.24c-0.24,2-0.48,4-0.72,6c0.16,0.08,0.32,0.16,0.48,0.24c2.194-0.445,3.704-0.094,6,0.24
                c0,0.48,0,0.96,0,1.44c0.959,0.16,1.92,0.32,2.88,0.48c-0.051,1.159-0.059,1.866,0.48,2.4c2.845,1.265,6.141,0.754,9.12,0.96
                c0,0.56,0,1.12,0,1.68c-2.495,0.309-3.872,2.368-5.52,3.6c-9.318,6.964-9.009,19.675,2.64,23.04c0.24,4.319,0.48,8.64,0.72,12.96
                c-1.234,7.265-1.433,17.239-1.44,25.68c-3.12,0.96-6.24,1.92-9.36,2.88c-8.862,3.772-18.043,10.154-25.44,15.6
                c-4.71,3.468-10.282,5.071-14.88,8.64c-3.28,4.64-6.56,9.281-9.84,13.92c-3.421,4.217-7.552,6.796-10.56,11.76
                c-4.4-0.286-9.958-0.602-10.56,3.6c3.804,11.83-10.227,13.577-13.68,19.44c-0.32,2-0.64,4-0.96,6c-0.958,3.637-3.652,4.995-6,7.2
                c-0.05,4.12,0.792,6.71,0.96,10.8c-4.639,2.879-9.28,5.76-13.92,8.64c-3.256,1.385-16.355,3.731-20.4,3.12
                c-4.479-1.2-8.96-2.4-13.44-3.6c0.32-1.2,0.64-2.4,0.96-3.6c-1.36-1.36-2.72-2.72-4.08-4.08c0-1.84,0-3.68,0-5.52
                c-1.079-3.864-5.349-9.918-5.52-14.16c-0.148-3.666,2.941-6.346,2.16-10.08c-1.12-1.68-2.24-3.36-3.36-5.04
                c-1.438-4.686,2.625-8.71,0.48-12.48c-0.08,0-0.16,0-0.24,0c-3.28,0.48-6.56,0.96-9.84,1.44c-1.472,0.898-2.728,2.334-4.56,3.12
                c0.009,3.399,1.468,4.722,1.92,6.96c0,4,0,8,0,12c1.36,1.04,2.72,2.08,4.08,3.12c-1.12,4.959-2.24,9.92-3.36,14.88
                c-8.479,3.6-16.961,7.201-25.44,10.8c-7.098,2.806-13.136,4.146-18.48,8.4c-5.436,4.327-7.167,12.568-12,17.52
                c-3.759-2.72-7.52-5.44-11.28-8.16c-3.631-2.17-7.621-3.635-10.8-6.24c-4.917-4.03-8.588-10.599-14.16-13.92
                c-1.768,0.534-2.745,1.175-4.08,1.68c-0.76,0.288-2.922-0.935-4.56,0c-1.084,0.619-2.335,3.373-3.36,4.32
                c-4.257-1.412-9.875-1.841-12-5.28c-0.646-1.312,0.195-3.083-0.48-4.8c-1.405-3.575-2.994-8.716-4.8-12
                c-0.165-0.299,2.888-7.589,1.92-9.12c-2.158,0.493-5.275,2.208-7.92,1.44c-4.308-3.393-5.815-11.096-9.6-16.08
                c-1.52-0.96-3.041-1.92-4.56-2.88c-1.84-2.4-3.68-4.8-5.52-7.2c1.527-3.739,4.809-8.485,7.68-10.56
                c1.492-1.078,3.494-1.458,4.8-3.36c2.802-4.08,4.325-8.365,6.96-12.72c6.779-11.203,14.785-22.281,20.4-34.8
                c2.56-6.719,5.121-13.44,7.68-20.16c1.454-5.834,1.605-11.11,3.84-16.08c3.722-8.277,8.855-17.204,13.2-24.96
                c3.2-6.799,6.4-13.601,9.6-20.4c2.713-4.719,7.428-7.401,10.56-11.52c2.72-4.56,5.44-9.121,8.16-13.68
                c4.136-9.439,5.881-22.359,8.64-32.4c0.4-2.32,0.8-4.64,1.2-6.96c4.086-10.827,10.561-17.638,16.8-25.92c1.6-2.56,3.2-5.12,4.8-7.68
                c9.062-11.823,25.571-19.183,38.16-27.6c8.479-6.24,16.961-12.481,25.44-18.72c9.362-5.47,18.862-11.172,29.04-16.8
                c6.757-3.736,14.375-9.626,22.08-11.76c4.399-0.24,8.8-0.48,13.2-0.72c10.399-2.24,20.801-4.48,31.2-6.72
                c21.556-6.571,37.901-15.032,58.32-22.8c5.424-2.064,18.912-8.168,25.2-6.96c3.089,2.133,3.843,9.513,2.88,15.36
                c-2.122,12.88,0.144,26.884-2.4,39.12c-3.134,15.075-4.641,27.538-9.6,40.8C663.656,126.174,648.792,151.935,648.96,191.52z" />
              <path id="ramsey" name="Ramsey" d="M637.92,247.44c-0.16-1.04-0.32-2.08-0.48-3.12
            c-0.56-0.24-1.12-0.48-1.68-0.72c0.08-0.24,0.16-0.48,0.24-0.72c1.869-1.55,2.287-5.227,1.68-8.16c-3.331-1.157-6.184-0.237-9.6-1.2
            c0-0.8,0-1.6,0-2.4c-2.394-0.193-2.253-0.967-3.6-1.92c-1.322-0.652-3.91-0.958-5.52-0.48c0.298-1.937,1.028-4.752,0.48-6
            c-1.92-0.08-3.84-0.16-5.76-0.24c0-0.08,0-0.16,0-0.24c0.481-1.968,0.631-3.815,1.44-5.28c3.915-1.171,6.561-4.465,7.44-7.92
            c-0.48-0.32-0.96-0.64-1.44-0.96c0.16-1.2,0.32-2.4,0.48-3.6c1.28-0.16,2.56-0.32,3.84-0.48c0.38-2.778,1.541-3.389,2.88-5.04
            c2.909,1.57,7.192-8.382,12.72-8.88c1.69,1.008,6.758,1.543,7.92,3.12c0.24,3.679,0.48,7.36,0.72,11.04
            c1.24,7.254,2.365,14.755,5.04,20.4c0.64-0.08,1.28-0.16,1.92-0.24c-2.528,5.768,5.487,16.17,6.72,21.12
            c-0.48,0.88-0.96,1.76-1.44,2.64c-1.716-0.719-2.321,0.032-2.88,1.68c-2.183-0.717-5.034-3.303-8.64-2.64
            c-1.68,0.72-3.36,1.44-5.04,2.16C642.712,249.376,641.012,247.647,637.92,247.44z" />

    <path 
      id="garff" 
      name="Garff" 
      d="M636,238.32c0.24,0,0.48,0,0.72,0c-0.262,2.906-2.456,4-2.16,6.24
            c3.432,1.044,1.244,3.157,2.88,4.08c0.617,0.348,4.873,1.306,5.28,1.44c5.986,1.969,8.458-5.283,15.6,1.2
            c1.3-0.683,1.638-1.512,2.64-2.4c1.039,0.622,1.013,0.585,2.64,0.48c-0.136-1.517-0.17-2.17,0.72-3.12c0,0.16,0,0.32,0,0.48
            c1.04,1.36,2.08,2.72,3.12,4.08c1.44,0.24,2.88,0.48,4.32,0.72c0.48,0.8,0.96,1.6,1.44,2.4c1.36,0.24,2.72,0.48,4.08,0.72
            c2.615,1.624,6.755,7.068,11.28,5.52c1.985,0.252,2.278-3.281,3.12-4.8c0.4,0,0.8,0,1.2,0c0.792,4.601,5.041,10.958,10.56,11.52
            c3.167-3.399,11.374,0.69,15.84,1.92c0.16,0.08,0.32,0.16,0.48,0.24c3.245,3.243,5.044,0.976,8.4,2.88
            c1.12,0.96,2.24,1.92,3.36,2.88c3.742,1.408,5.581,0.196,8.64,1.44c2.71,1.103,8.32,8.263,8.88,12
            c-1.239,0.426-1.371,1.13-1.44,2.64c1.415,0.967,1.778,1.798,2.4,3.6c-0.96,0.64-1.92,1.28-2.88,1.92
            c-0.56-0.48-1.12-0.96-1.68-1.44c-0.563,0.302-3.834,1.071-4.08,1.68c-0.423,1.05,0.691,2.525-0.48,3.84
            c-0.51,0.573-1.414,0.008-1.68,0.96c-0.438,1.568,0.916,2.16,0,3.6c-0.979-0.406-0.938-0.44-1.92,0c-0.08,0.4-0.16,0.8-0.24,1.2
            c-1.076-0.6-2.065-0.342-3.6-0.72c-0.424-2.168-3.52-4.317-5.52-4.8c-0.64,0.32-1.28,0.64-1.92,0.96
            c-0.601,3.145-0.161,16.271,0.48,18c0.702,1.895,2.527,2.462,2.88,5.52c-6.268,4.234-7.13,13.62-14.4,16.08
            c-0.24-0.4-0.48-0.8-0.72-1.2c-1.751,1-0.936,3.098-2.16,4.56c-2.577,3.077-7.04,6.258-10.08,8.16
            c-1.268,6.111,0.715,11.474-1.92,15.84c-0.4,0.16-0.8,0.32-1.2,0.48c-0.24,0-0.48,0-0.72,0c-1.435-2.238-2.239-3.252-3.12-6.48
            c-0.08,0-0.16,0-0.24,0c-0.32,0.16-0.64,0.32-0.96,0.48c-0.08,1.28-0.16,2.56-0.24,3.84c0.413,1.972,3.18,4.77,1.44,8.16
            c-0.404-1.086-0.286-0.908-1.68-0.96c-5.107,3.377-5.121,9.778-8.88,14.4c-1.364,1.677-3.299,2.256-5.04,3.6
            c-0.64,0.96-1.28,1.92-1.92,2.88c-2.33,1.355-7.532,1.402-6.72,5.04c0.4,0.64,0.8,1.28,1.2,1.92c-1.387,2.663-3.311,3.816-6.96,5.28
            c0.14,4.161-4.028,7.377-3.6,10.56c1.049,2.735,4.623,3.236,5.04,6.24c-1.428,2.759-2.193,3.49-4.32,5.52
            c0.662,2.693-0.77,2.974-1.44,4.8c0.16,1.52,0.32,3.041,0.48,4.56c-1.873,5.554-18.755,15.946-23.76,20.16
            c-0.844-0.355-1.876,0.114-2.88-0.48c-1.349-0.799-1.543-2.508-3.12-3.36c-0.32,0.32-0.64,0.64-0.96,0.96
            c-0.08,0.24-0.16,0.48-0.24,0.72c0.4,0.4,0.8,0.8,1.2,1.2c-0.08,0.16-0.16,0.32-0.24,0.48c-5.179,1.779-11.058,8.906-10.8,15.12
            c-5.292,1.284-8.14,18.648-7.44,22.08c0.266,1.302,1.454,2.712,1.68,4.08c-0.16,0.16-0.32,0.32-0.48,0.48
            c-0.958,2.046-1.277,2.757-1.2,5.76c1.04,1.28,2.08,2.56,3.12,3.84c3.699,2.129,8.799,1.303,11.28,5.04
            c1.376,2.073,0.959,5.292,2.64,7.68c0.777,1.104,2.314,1.381,2.88,2.88c0.81,5.289-5.516,8.497-7.44,12.72
            c-0.677,1.486,0.079,1.988-0.24,3.12c-1.285-0.43-4.447,0.549-6,1.44c-0.932,3.7-11.02,15-8.16,16.32
            c-0.768,0.528-1.278,1.043-1.2,1.68c0.098,0.799-0.099,0.427-0.48,0.72c-3.424,2.267-5.717,6.258-9.6,7.2
            c-0.32-0.56-0.64-1.12-0.96-1.68c-1.339,0.596-3.127,2.451-4.56,2.88c-1.87,0.56-3.007-0.781-4.32,0.48
            c-0.327,1.333-2.968,2.805-4.08,4.08c-0.56-0.08-1.12-0.16-1.68-0.24c-0.023-1.183-0.185-2.23-0.72-2.88
            c-0.24,0.16-0.48,0.32-0.72,0.48c-0.064,3.587,0.175,5.476,1.68,7.68c-1.148,2.8-3.123,4.232-4.56,6.48
            c-1.1-0.301-0.778-0.379-1.44-0.96c-3.201,1.359-5.367,3.332-7.92,5.28c-1.665,1.271-5.797,0.078-6.96,0.48c0,0.4,0,0.8,0,1.2
            c-1.519,0.037-2.05,0.169-2.88-0.24c0.014-1.136-0.031-1.599-0.48-2.16c-0.4,0.32-0.8,0.64-1.2,0.96
            c-1.041-0.649-2.38-1.458-3.36-1.92c-0.56,0.32-1.12,0.64-1.68,0.96c-1.457-3.133-3.357-1.969-5.76-3.12
            c-1.398-4.449-6.788-11.937-5.04-15.36c3.007-1.364,6.673-4.456,8.16-7.44c-3.404-5.146-12.287-3.747-18.48-3.6
            c-1.019-2.937-3.166-7.36-5.52-9.12c-0.4,0.16-0.8,0.32-1.2,0.48c-1.12,1.36-2.24,2.72-3.36,4.08c-2.017-0.795-2.868-2.138-4.8-3.12
            c-1.325,0.396-1.698,1.184-2.64,1.92c-0.72-0.08-1.44-0.16-2.16-0.24c0.32-0.32,0.64-0.64,0.96-0.96c0.16-0.32,0.32-0.64,0.48-0.96
            c-0.64-1.28-1.28-2.56-1.92-3.84c-1.2,0.4-2.4,0.8-3.6,1.2c-0.08,0.88-0.16,1.76-0.24,2.64c-1.2-1.44-2.4-2.88-3.6-4.32
            c-0.16,0-0.32,0-0.48,0c-3.618,4.782-8.972,10.587-15.36,12.48c-2.544,0.754-5.325-0.807-7.68,0c-1.06,0.363-1.302,1.538-2.88,1.92
            c-1.431-7.825-8.618-10.143-12-15.84c-1.462-2.463-1.174-4.211-3.12-6c-2.883-2.65-5.279-2.62-6-7.68
            c2.322-2.534,2.407-7.247,1.2-10.8c0.48-0.56,0.96-1.12,1.44-1.68c-5.108-10.964,3.95-20.206,8.88-26.4
            c3.15-3.958,4.832-10.44,7.44-14.64c1.979-3.188,6.902-10.768,11.04-10.56c2.167,3.42,5.867,6.081,10.08,6.96
            c5.76-8.639,11.521-17.281,17.28-25.92c1.509-2.269,6.663-7.656,7.2-9.84c2.173-8.842-3.891-19.148-5.04-26.64
            c2.93-3.1,12.665-8.88,16.8-10.56c-0.192-3.277-2.2-7.657-0.96-10.8c1.671-2.357,4.37-3.113,5.52-6.24c0.4-2.32,0.8-4.64,1.2-6.96
            c1.6-1.04,3.2-2.08,4.8-3.12c2.72-2.56,5.44-5.12,8.16-7.68c2.045-2.916,0.11-8.791,2.4-10.8c0.08,0,0.16,0,0.24,0
            c1.434,0.228,1.522-0.885,2.88-1.2c2.135-0.495,4.111,0.736,5.76,0c2.229-5.574,7.222-7.733,10.56-12
            c3.12-4.479,6.24-8.96,9.36-13.44c3.573-3.341,11.739-5.639,15.36-8.88c4.688-4.195,9.534-6.207,15.36-9.6
            c3.2-1.92,6.4-3.84,9.6-5.76c3.277-1.379,6.96-1.718,9.84-3.12c0.933-7.101,2.275-36.875,0.24-40.32
            c-6.569-2.172-11.805-10.669-6.72-17.76C630.399,242.8,633.2,240.56,636,238.32z"/>

    <path 
      id="glenfaba-and-peel" 
      name="Glenfaba and Peel" 
      d="M315.12,356.64c0.4,0,0.8,0,1.2,0c1.713,5.184,7.402,6.58,9.6,9.84
                c1.284,1.905,1.213,4.619,2.4,6.48c0.762,1.195,2.694,2.006,3.6,3.36c-0.494,0.933-0.758,0.833-0.24,1.68
                c0.7,1.363,3.208,4.243,4.56,5.04c2.16-0.32,4.32-0.64,6.48-0.96c0,0.56,0,1.12,0,1.68c-0.527,2.008-1.439,3.829-1.68,6.24
                c2.676,1.236,4.826,14.421,5.52,17.28c4.355,2.143,7.898,4.49,13.92,5.28c1.04-1.52,2.08-3.04,3.12-4.56
                c1.366-0.121,7.902-0.982,7.92-0.96c3.52,3.12,7.041,6.24,10.56,9.36c1.237,1.639,2.205,3.352,3.84,4.56
                c6.748,4.987,15.732,7.836,21.36,13.92c-1.12,2.72-2.24,5.44-3.36,8.16c-0.4,4.32-0.8,8.641-1.2,12.96
                c-2.954,11.848-9.736,21.913-16.08,30.72c-2.72,2.56-5.44,5.12-8.16,7.68c-4.646,5.99-8.412,11.771-13.68,17.04
                c-2.74,2.741-8.619,6.206-8.64,11.28c-2.608,0.463-3.784,2.044-6,2.88c1.274,4.708-0.736,8.303-0.48,13.44
                c-1.843,0.325-2.035,3.542-3.84,4.56c-2.72,0.64-5.44,1.28-8.16,1.92c-5.845,4.096-6.706,13.881-8.4,22.08
                c-2.879,0.48-5.76,0.96-8.64,1.44c-0.08,0.16-0.16,0.32-0.24,0.48c0.32,2.08,0.64,4.16,0.96,6.24c-1.683,0.775-1.998,2.029-2.88,3.6
                c0.82,1.782,1.878,3.667,3.36,4.8c-0.24,0.72-0.48,1.44-0.72,2.16c-0.16-0.08-0.32-0.16-0.48-0.24
                c-1.286-6.743-11.013-14.954-18.72-9.12c-1,0.757-1.741,4.001-2.4,5.04c-4.492,0.032-6.981,2.423-10.56,2.88
                c-1.279-2.691-3.163-1.283-5.76-2.64c-8.309-4.341-6.408,0.138-11.76,3.36c-1.52,0.56-3.04,1.12-4.56,1.68
                c-1.439,2.35-1.727,4.924-3.84,6.48c-0.8,0.16-1.6,0.32-2.4,0.48c-1.76,1.52-3.521,3.04-5.28,4.56c-3.16,1.456-5.825,0.65-8.64,2.4
                c-4.418,2.746-8.709,5.834-13.2,8.88c-1.44,1.84-2.88,3.68-4.32,5.52c-2.4,0.96-4.8,1.92-7.2,2.88c-1.68,1.92-3.36,3.84-5.04,5.76
                c-1.12,1.04-2.24,2.08-3.36,3.12c-1.28,0.32-2.56,0.64-3.84,0.96c-1.28,1.84-2.56,3.68-3.84,5.52
                c-3.798,3.9-10.922,12.133-18.24,7.2c-0.24,0.08-0.48,0.16-0.72,0.24c-0.401,1.444-0.548,2.405-1.68,3.12
                c-2.339,1.148-4.607-0.753-6.72-0.24c-3.2,1.04-6.4,2.08-9.6,3.12c-6.835,1.484-11.432-1.918-14.64,5.52
                c-0.96,0.16-1.92,0.32-2.88,0.48c-0.08,0.56-0.16,1.12-0.24,1.68c-2.497,0.167-3.1,1.155-5.28,1.44c0-0.08,0-0.16,0-0.24
                c2.847-6.035,3.864-12.476,5.04-18.96c-1.012-1.935-1.943-3.665-2.88-6.48c-1.792,0.054-1.974-0.614-2.88-1.92
                c0.303-0.331,6.034-19.098,5.28-21.36c-0.56-1.681-2.384-2.546-3.12-3.84c-0.08-1.36-0.16-2.72-0.24-4.08
                c-0.672-1.666-9.175-12.727-10.08-13.2c2.034-2.984,0-6.96,0-6.96c0.974-0.848,1.772-3.412,0.96-4.56
                c-0.924,0.246-0.495,0.472-1.2,0c0.573-1.096,0.345-1.032,1.2-2.16c-0.627-1.363,0.153-0.941-0.24-2.64
                c1.626-0.342,2.82-0.667,3.84-1.92c-0.742-2.065-1.808-2.634-1.2-4.32c2.261-1.312,3.353-3.762,5.52-5.04
                c2.012-1.186,4.666-0.953,6.48-2.4c0.597-0.476,0.344-1.908,1.2-2.64c0.88-0.4,1.76-0.8,2.64-1.2c1.132-1.442,0.37-2.851,1.2-3.84
                c1.112-1.352,3.971-3.318,5.28-5.28c0.32-1.04,0.64-2.08,0.96-3.12c1.04-0.72,2.08-1.44,3.12-2.16
                c1.326-2.265,2.043-12.518,3.12-13.68c2.598-2.787,4.302-5.742,2.4-10.32c-0.235-0.566-1.542-0.915-0.96-2.4
                c0.4-0.24,0.8-0.48,1.2-0.72c0.523-1.178-0.559-2.592,0.48-4.32c0.589-0.979,1.914-0.677,2.64-1.44l2.4-4.56
                c1.211-3.397-0.444-9.751-0.24-13.92c-1.273-0.875-2.319-2.036-3.36-2.64c0.926-2.499-1.493-2.817-2.16-5.04
                c0.08-1.76,0.16-3.52,0.24-5.28c1.36-0.24,2.72-0.48,4.08-0.72c6.001-4.438,6.712-11.512,9.36-18
                c0.783-1.917,12.928-10.548,16.08-11.52c0,0.32,0,0.64,0,0.96c-1.04,2.96-2.08,5.92-3.12,8.88c0.32,0.24,0.64,0.48,0.96,0.72
                c0.24-0.08,0.48-0.16,0.72-0.24c1.04-1.28,2.08-2.56,3.12-3.84c0.807-2.078-0.291-5.036,0.48-6.72
                c5.826,5.717,13.998,1.324,16.8-4.08c5.658-0.833,4.25-6.45,8.88-8.64c1.76-0.56,3.521-1.12,5.28-1.68
                c0.464,0.11,0.352,0.934,1.44,0.72c5.051-0.992,9.009-4.361,12.48-7.44c0.75-0.666,4.259,0.065,6-1.2
                c3.543-2.575,5.934-9.931,7.68-14.16c0.786-1.904,4.229-2.527,5.76-4.32c4.263-4.988,7.911-10.716,12.48-14.16
                c3.561-2.684,6.863-1.88,9.84-6.48c0.247-0.381,2.844-4.454,1.68-4.32c0.96-0.08,1.92-0.16,2.88-0.24
                c2.389-1.192,8.072-7.433,8.4-10.8C306.21,366.609,313.52,358.785,315.12,356.64z"/> 

    <path 
      id="rushen" 
      name="Rushen" 
      d="M206.4,759.36c-0.061,4.385-0.225,7.067,0.72,10.32
                c-3.023,1.522-1.74,7.621-8.4,9.6c-3.18,0.944-5.178-1.286-7.68-1.92c-4.009-1.017-18.832-1.042-21.36,0.96
                c-5.753-3.895-22.159-5.733-25.2,2.16c-1.273,2.809,0.357,7.75,0.96,10.56c-0.8,0.24-1.6,0.48-2.4,0.72
                c-0.578-0.699-1.073-0.737-2.4-0.72c-0.08-0.4-0.16-0.8-0.24-1.2c-0.549-1.143-1.199-1.424-2.88-1.44
                c-2.242,0.835-3.047,1.706-4.56,3.12c0.087,2.179,1.153,2.584,1.44,4.08c0.341,1.775-1.154,2.281-1.44,3.36
                c-0.645,2.432,0.03,5.651,0.72,6.96c1.738,0.018,1.782-0.113,2.16-1.44c0.08,0.16,0.16,0.32,0.24,0.48
                c1.609,1.485,2.764,4.445,1.44,5.52c-0.514,2.003-1.99,3.538-3.6,4.32c-2.338-0.686-4.972-0.457-6.48-0.72
                c0.639-4.336-6.177-7.906-10.08-5.52c0.001,3.394-1.265,3.275-2.88,4.8c0.137,2.991,0.899,3.659,0,6.48
                c-1.041,0.395-0.956,0.198-1.2,1.44c-1.439-0.154-1.988-0.127-3.12,0.24c-0.08,0.16-0.16,0.32-0.24,0.48
                c-0.193,2.952,0.286,3.84,0.72,6c-2.729,0.984-6.098,1.965-8.16,3.84c-0.24-0.16-0.48-0.32-0.72-0.48
                c0.352-1.032,0.427-1.042,0-1.92c-1.6,0.24-3.2,0.48-4.8,0.72c-2.837-0.309-5.742-2.66-8.88-0.96
                c-1.447,0.784-2.158,2.522-3.84,3.36c0.133,3.11,1.329,4.971,0.48,7.92c-5.331-2.476-8.516,1.679-13.68-0.96
                c0.368-1.068,0.546-5.939-0.72-7.68c-0.64-0.48-1.28-0.96-1.92-1.44c-0.665-1.442-0.139-3.048-0.72-4.08
                c-1.271-0.377-1.78-1.032-2.88-0.96c-0.72,0.96-1.44,1.92-2.16,2.88c-0.845-0.602-0.827-0.878-1.92-0.72
                c0.101-1.991,0.84-2.325,0.72-3.6c-1.173-0.278-1.286-0.673-2.16-1.2c-1.073,0.534-1.984,0.856-2.64,0
                c-1.07,0.398-0.817,0.129-0.96,1.44c-0.471-0.525-0.548-0.767-0.72-1.68c0.24-0.16,0.48-0.32,0.72-0.48c-0.4-0.48-0.8-0.96-1.2-1.44
                c0.677-2.836,1.555-7.97,3.6-9.36c0.201,1.171,0.265,1.104,0.96,1.68c0.32-0.08,0.64-0.16,0.96-0.24
                c0.558-2.802,3.003-3.68,3.84-5.76c-0.24-1.76-0.48-3.52-0.72-5.28c1.205-4.815,5.882-4.328,8.88-7.2
                c1.161,0.877,1.56,1.247,3.84,1.2c0.48-0.48,0.96-0.96,1.44-1.44c0.614-1.221,0.67-2.42,0.48-3.84c3.568-1.191,4.63-6.625,6.72-9.6
                c0.88-0.64,1.76-1.28,2.64-1.92c1.216-2.434,0.195-5.899,4.32-6.48c3.632-0.511,5.494,2.517,8.16,2.88
                c5.675-2.04,6.772-13.592,1.68-12.96c-0.24-0.16-0.48-0.32-0.72-0.48c0-0.08,0-0.16,0-0.24c0.32-0.64,0.64-1.28,0.96-1.92
                c-0.4-0.64-0.8-1.28-1.2-1.92c-5.878,0.048-9.574,1.146-15.84,0.24c0.154-1.066,0.235-1.029-0.72-0.96
                c-0.24-0.16-0.48-0.32-0.72-0.48c-0.32,0.32-0.64,0.64-0.96,0.96c-1.891-1.184-3.135-2.019-4.56-3.6c-0.16-0.88-0.32-1.76-0.48-2.64
                c1.433-1.109,1.985-2.637,1.92-5.28c-1.073-0.313-0.482,0.159-0.96-0.72c6.992-2.14,3.125-4.461,6.24-8.4
                c2.587-3.272,4.307-0.093,4.08-5.28c2-2.08,4-4.16,6-6.24c-0.361-0.875-0.406-1.115-0.24-2.16c0.921-0.522,2.602-1.382,3.36-2.16
                c-0.168-1.191-0.713-1.526,0.48-2.4c0.758,1.236,2.713,1.511,4.08,1.68c0.672-1.843,1.665-2.033,2.4-3.6
                c3.464,0.979,5.405-1.502,9.12-0.48c-0.163,3.052,0.461,5.625,3.36,5.76c4.414-2.71,4.822-13.851,6.72-19.92
                c-0.08-0.96-0.16-1.92-0.24-2.88c1.586-2.867,1.765-2.905,2.16-6.24c1.351,0.117,1.21,0.108,2.16-0.48
                c1.352-4.506,10.094-14.768,12.72-17.28c-0.412-4.891,0.506-8.265-0.48-12c2.496-1.515,3.398-4.019,5.52-5.76
                c0.442-0.362,6.046-1.251,6.96-1.44c0-0.56,0-1.12,0-1.68c3.981-0.398,2.234-2.93,4.56-4.32c2.608-1.559,9.053-2.838,12-1.44
                c1.827-0.628,4.381-1.542,6.72-1.92c0,0.16,0,0.32,0,0.48c1.432,3.743-9.342,17.101-11.52,17.76
                c-5.161,1.562-11.016-0.925-14.64,2.4c-1.12,2.08-2.24,4.16-3.36,6.24c-6.307,9.806-0.248,10.558,1.92,19.68
                c1.344,5.656-2.482,12.188-0.72,15.6c0.24,0.08,0.48,0.16,0.72,0.24c1.76-0.32,3.52-0.64,5.28-0.96
                c0.107,10.042,0.744,18.989,7.44,22.56c-0.517,2.746,5.224,10.513,6.96,12.48c-1.974,2.388-3.304,4.796-4.8,7.92
                c0.63,3.213,6.124,13.008,8.64,14.64c0.48-0.56,0.96-1.12,1.44-1.68c0.4,0.24,0.8,0.48,1.2,0.72c1.64-1.003,3.415-2.53,6.72-1.92
                c0.96,0.24,1.92,0.48,2.88,0.72c3.994-0.965,7.887-5.52,11.52-6C199.695,756.867,202.174,759.069,206.4,759.36z" /> 
              <path id="arbory-castletown-malew" name="Arbory, Castletown and Malew" d="M336.24,712.08c-0.64,0.24-1.28,0.48-1.92,0.72
                c-0.193,2.661-4.163,4.075-5.28,6.48c-0.24,1.28-0.48,2.56-0.72,3.84c-0.8,0.64-1.6,1.28-2.4,1.92
                c-0.628,1.178,0.115,2.602,0.24,3.36c-0.16,0.8-0.32,1.6-0.48,2.4c0.785,5.355,3.333,4.03-0.72,9.36
                c0.505,3.863,0.907,7.164,0.48,12c-6.1,1.409-4.98,13.27-2.88,17.04c-2.916,2.797-5.065,7.345-7.92,11.28
                c-0.25,0.344-4.592,5.149-4.8,5.28c-1.042,0.655-1.91-0.013-2.64,0.96c-1.331,1.902,0.732,4.561-0.96,6.24
                c-5.473-6.169-13.562,1.475-12.72,9.12c0.679,6.17,6.064,13.243,13.2,12.96c1.6-1.36,3.2-2.72,4.8-4.08
                c0.762,1.102,1.035,1.167,2.4,1.68c-0.16,0.48-0.32,0.96-0.48,1.44c-0.4-0.16-0.8-0.32-1.2-0.48c-0.16,0.16-0.32,0.32-0.48,0.48
                c0.424,1.068,0.597,0.928,0.48,2.16c-2.685,1.038-3.729,4.957-4.32,4.8c-0.627,0.824-0.513,2.061-0.72,3.12
                c-1.084-0.058-1.566-0.077-2.16,0.96c-0.08,0.08-0.16,0.16-0.24,0.24c0.456,1.3,1.005,1.043,1.44,2.4
                c-0.72,0.32-1.44,0.64-2.16,0.96c0.313,1.486,0.273,1.917-0.48,3.12c-0.72,0-1.44,0-2.16,0c-0.4,0.96-0.8,1.92-1.2,2.88
                c1.208,0.365,1.164,0.412,1.2,1.92c0,0-8.318,11.382-8.64,12c-0.883,1.694,0.885,1.405-0.24,2.64c-1.314-0.183-1.95-0.184-2.64,1.44
                c-1.52-1.042-2.3-2.803-4.32-2.64c0.488-1.359,1.801-1.527,2.4-2.64c0.65-1.21-0.192-2.763,0.48-4.56
                c0.711-1.901,3.184-3.852,4.08-5.52c0.32-3.439,0.64-6.88,0.96-10.32c1.417,0.264,1.696,0.327,2.4-0.72
                c-0.263-1.231,0.087-2.135,0.96-2.88c0.464,0.727,0.049,0.389,0.96,0.72c0-0.16,0-0.32,0-0.48c0-0.88,0-1.76,0-2.64
                c-0.806-0.243-1.093-0.079-1.44-0.48c-1.572-3.993-1.37-8.245-3.84-12.24c-1.077-1.741-3.149-2.637-4.8-3.84
                c-7.942-5.786-14.166-8.759-26.88-4.8c-3.545,1.104-3.717,4.308-5.76,5.04c-0.8-0.88-1.6-1.76-2.4-2.64
                c-0.56,0.16-1.12,0.32-1.68,0.48c0,0.32,0,0.64,0,0.96c1.145,1.093,2.461,1.75,3.36,3.12c-0.16,0.24-0.32,0.48-0.48,0.72
                c-5.784,1.225-14.473,7.068-17.52,11.04c0.428,1.208,1.602,1.602,1.92,2.64c-0.16,2.4-0.32,4.8-0.48,7.2
                c-2.036,1.297-3.663,2.416-5.76,3.84c-1.458-0.521-1.588-1.145-2.64-1.68c-1.191-0.606-6.704-0.455-7.92-1.2
                c-0.24-0.64-0.48-1.28-0.72-1.92c-4.863-5.699-7.179-3.431-8.64-12.72c-0.64-0.24-1.28-0.48-1.92-0.72
                c1.087-1.26,2.339-4.195,1.68-6.48c0.976-0.22,1.211-0.212,1.68-0.96c0.08-0.08,0.16-0.16,0.24-0.24
                c-0.132-1.39-0.463-2.094-1.44-2.64c-0.883-0.621-2.003-0.751-3.6-0.72c0-0.08,0-0.16,0-0.24c0.24-0.88,0.48-1.76,0.72-2.64
                c-0.604-0.904-1.051-1.241-2.4-1.44c0.91-1.658,0.86-3.205,0.48-4.8c-1.011-0.221-3.163-0.754-3.84-1.44
                c-0.058-0.774-0.51-2.127-1.2-2.64c-1.231-0.669-3.117-0.601-3.6-0.96c-1.018-3.621,2.434-2.981-1.2-8.16
                c7.671-1.372,6.438-6.296,10.56-10.8c-0.731-3.319,0.106-7.576-0.96-11.52c-4.174-0.026-9.251-3.103-12.72-1.68
                c-3.581,1.469-6.849,4.796-11.04,5.76c-2.527,0.581-5.333-1.543-8.16-0.24c-1.397,0.644-2.577,1.747-4.32,1.2
                c-1.993-4.889-6.042-6.797-6.96-12.48c0.48-0.88,0.96-1.76,1.44-2.64c0.56-0.08,1.12-0.16,1.68-0.24
                c-0.061-3.28,1.008-2.622,1.44-5.28c-2.125-3.192-4.994-6.466-6.72-9.84c-0.16-1.04-0.32-2.08-0.48-3.12
                c-0.8-0.32-1.6-0.64-2.4-0.96c-0.942-0.924-3.184-4.174-3.6-5.28c-0.4-5.439-0.8-10.88-1.2-16.32c-0.56,0-1.12,0-1.68,0
                c-1.6,0.24-3.2,0.48-4.8,0.72c0.628-4.259,2.63-10.437,1.2-15.36c-3.395-11.691-7.838-10.84,0-22.8
                c3.292-5.022,9.028-1.829,15.6-3.84c1.613-0.494,11.24-12.109,12-13.92c0.754-1.796,0.307-3.736,0.24-5.76
                c3.182-0.732,9.998,1.269,10.8-3.6c10.096,6.052,18.198-8.181,22.56-12.96c1.36-0.4,2.72-0.8,4.08-1.2
                c3.211-1.765,5.338-6.562,8.16-8.88c2.4-0.96,4.8-1.92,7.2-2.88c0.959-1.36,1.92-2.72,2.88-4.08
                c5.439-3.759,10.88-7.521,16.32-11.28c1.862-1.076,4.755-0.345,6.96-1.44c3.523-1.75,3.309-3.923,7.92-4.56
                c1.095-4.311,11.255-13.468,16.08-13.92c3.226,1.262,6.926,3.174,9.36,5.28c3.699-1.97,8.98-2.584,12.24-5.04
                c0.32-1.2,0.64-2.4,0.96-3.6c18.73-5.247,18.508,12.207,19.2,27.36c-0.48,1.76-0.96,3.52-1.44,5.28c0.64,1.04,1.28,2.08,1.92,3.12
                c0.523,1.388-0.047,2.21,0.48,3.36c1.864,4.067,8.783,4.525,11.28,8.16c2.53,3.684,3.817,8.495,7.44,11.04
                c-1.299,1.88-0.945,3.259-1.44,5.52c0.64,0.4,1.28,0.8,1.92,1.2c-0.08,3.12-0.16,6.24-0.24,9.36c0.64,1.52,1.28,3.041,1.92,4.56
                c-0.16,0.72-0.32,1.44-0.48,2.16c0.4,1.04,0.8,2.08,1.2,3.12c0.154,0.972-1.132,3.141-0.72,4.56c0.343,1.183,2.271,2.792,2.64,4.32
                c1.068,4.422-2.598,5.941-1.68,10.08c1.316,5.931,1.83,12.443-0.24,18.48c-0.315,0.918-1.192,0.82-1.68,1.44
                c-1.698,2.156-2.191,5.859-3.36,7.68c-0.551,0.858-2.046,1.108-2.64,2.16C336.4,711.28,336.32,711.68,336.24,712.08z" /> 
              <path id="middle" name="Middle" d="M474.72,356.64c1.037,0.892-1.562,8.454-0.48,11.76
                c1.04,1.44,2.08,2.88,3.12,4.32c1.577,4.539-2.857,6.435-1.92,10.8c0.919,4.278,3.736,9.694,5.28,13.44
                c0.864,2.098-0.843,4.273,0.24,6.48c1.28,1.28,2.56,2.56,3.84,3.84c-0.32,1.2-0.64,2.4-0.96,3.6c0.24,0.08,0.48,0.16,0.72,0.24
                c9.61,5,20.476,2.694,31.68,1.44c-0.317,2.163,0.94,1.981,1.2,3.36c0.995,5.286,1.672,8.519,3.36,12.96c-0.16,1.2-0.32,2.4-0.48,3.6
                c0.235,0.791,1.35,2.331,1.2,3.84c-0.498,5.007-3.994,7.794-6.48,11.52c-5.919,8.799-11.841,17.601-17.76,26.4
                c-1.28-0.4-2.56-0.8-3.84-1.2c-2.305-1.992-3.489-4.311-6.48-5.76c-2.699,0.508-3.286,2.224-4.8,3.84
                c-2.764,2.951-5.927,5.641-8.16,9.12c-2.568,4.001-2.97,8.931-5.52,12.72c-2.8,3.36-5.6,6.72-8.4,10.08
                c-2.189,5.104-2.803,12.59-0.96,17.28c-1.172,0.484-1.313,0.294-1.44,1.92c1.796,3.596,0.419,7.751-1.2,10.56
                c1.326,7.477,5.833,6.334,8.64,11.04c0.16,0.96,0.32,1.92,0.48,2.88c1.2,1.04,2.4,2.08,3.6,3.12c0.24,0.96,0.48,1.92,0.72,2.88
                c0.72,0.16,1.44,0.32,2.16,0.48c1.2,1.36,2.4,2.72,3.6,4.08c0.417,0.675,5.28,14.16,5.28,14.16c-0.728,3.084-3.706,8.461-2.88,12.24
                c0.635,2.904,4.346,8.378,2.4,13.44c-1.699,4.419-6.783,6.988-9.12,11.04c-1.04,0.16-2.08,0.32-3.12,0.48c0-0.16,0-0.32,0-0.48
                c-0.739-1.504-0.98-2.902-1.92-4.08c-3.361,0.203-9.849,4.33-14.4,5.52c-8.555,2.237-12.915,1.181-19.68,4.56
                c0.8,1.68,1.6,3.36,2.4,5.04c-2.82-0.306-4.836,2.832-2.16,4.32c0.8,0.16,1.6,0.32,2.4,0.48c0.069,1.558,0.467,1.284,1.92,1.92
                c-0.318,3.487,0.35,5.098-0.96,8.16c2.24,1.92,4.48,3.84,6.72,5.76c1.732,2.306,2.041,5.977,4.56,7.44c3.6,0.72,7.2,1.44,10.8,2.16
                c-1.44,1.68-2.88,3.36-4.32,5.04c0.356,1.483,1.346,2.79,2.4,3.6c5.457-3.983,9.016-10.581,14.64-14.16
                c1.326-0.844,11.499-3.855,13.2-3.6c2.503,0.376,2.957,1.787,4.8,2.4c6.399,1.6,12.8,3.2,19.2,4.8
                c-1.222,4.582,2.956,5.945,5.04,8.64c-0.005,0.245-10.617,6.556-11.04,6.96c-0.08,0.08-0.16,0.16-0.24,0.24c-0.08,0-0.16,0-0.24,0
                c-0.24,0.08-0.48,0.16-0.72,0.24c0.093-0.963,0.26-0.759-0.24-1.44c-5.212,2.202-10.32,5.773-14.64,8.4
                c1.388,6.623-12.371,6.781-11.76,10.32c-0.96,1.2-1.92,2.4-2.88,3.6c-1.062-0.374-2.079-0.164-2.88,0.24
                c-0.08,0.48-0.16,0.96-0.24,1.44c0.32,0.16,0.64,0.32,0.96,0.48c-0.4,0.8-0.8,1.6-1.2,2.4c-3.566-0.492-4.864-3.558-6.96-4.8
                c-1.271-0.368-1.353,0.272-2.16,0.96c-0.56-0.16-1.12-0.32-1.68-0.48c-0.16-0.56-0.32-1.12-0.48-1.68
                c-2.766,0.09-3.779,1.256-4.8,3.12c-1.941-0.772-4.656-2.962-6-2.16c-1.44,1.04-2.88,2.08-4.32,3.12c-0.08,0-0.16,0-0.24,0
                c-0.009-1.324,0.067-1.389-0.72-1.92c-0.24-0.16-0.48-0.32-0.72-0.48c-5.111,1.311-7.013,6.961-10.56,8.16
                c-0.942-0.492-0.553-0.739-1.44-0.24c-1.261,0.616-1.674,1.743-1.68,3.6c3.309,3.803,1.609,8.098,0.96,13.44
                c-0.802-0.247-4.517,0.264-3.84,2.4c-0.214,0.637,0.02,0.621-0.48,1.2c-0.571,0.74-7.572,5.561-8.16,5.76
                c-1.657,0.56-2.458-0.751-3.84-0.24c-0.109,2.322-1.047,5.546-1.92,8.4c0.32,0.16,0.64,0.32,0.96,0.48
                c-2.226,3.035-2.191,5.56-2.64,9.6c-1.282,0.658-1.731,1.148-3.36,1.68c-0.16,1.04-0.32,2.08-0.48,3.12
                c-3.216,0.683-4.217,2.435-7.44,3.6c-1.642-2.733-4.352-0.621-6.72-0.72c-0.4-0.48-0.8-0.96-1.2-1.44
                c-1.487,0.306-2.314,0.782-3.36,1.44c-0.8-0.88-1.6-1.76-2.4-2.64c-2.387,0.11-2.317,1.207-3.84,1.68
                c-1.94,0.604-2.976-0.489-5.04-0.72c-0.64,0.64-1.28,1.28-1.92,1.92c-0.56-0.64-1.12-1.28-1.68-1.92c-0.56,0.16-1.12,0.32-1.68,0.48
                c-1.507-1.73-4.979-4.443-7.68-4.56c-0.56,0.8-1.12,1.6-1.68,2.4c0.687,1.314,1.665,1.827,2.4,3.12
                c-0.509,0.311-0.347,0.295-1.2,0.48c-1.321-0.878-3.197-0.763-5.52,0c-0.08,0.8-0.16,1.6-0.24,2.4c-1.921,0.147-2.393,0.52-3.6-0.24
                c-3.932,1.976-5.134,5.789-8.4,8.16c-2.051,1.489-4.766,0.521-6.72,1.92c-0.4-0.48-0.8-0.96-1.2-1.44
                c-0.24,0.08-0.48,0.16-0.72,0.24c-0.4,0.16-0.8,0.32-1.2,0.48c-0.134,1.629,0.129,2.155,1.44,2.88
                c-0.542,1.322-0.47,2.706-0.72,3.12c-0.24,0.24-0.48,0.48-0.72,0.72c-0.72-0.08-1.44-0.16-2.16-0.24
                c-0.865,3.061-4.763,3.415-7.44,1.92c-0.32-0.88-0.64-1.76-0.96-2.64c1.406-1.809-0.01-3.274,1.2-6.24
                c0.714-1.75,2.693-2.725,3.84-4.08c0.007-0.632,0.649-9.124,0.48-9.6c-0.301-0.849-0.863-0.866-0.96-2.4
                c6.413-4.64-1.699-10.055,0.72-14.4c0.8-0.72,1.6-1.44,2.4-2.16c1.924-2.907,1.9-6.108,4.56-8.16c0.66-0.509,1.48,0.255,1.92-0.48
                c-0.08-0.56-0.16-1.12-0.24-1.68c1.017-1.562,3.932-2.613,5.04-4.08c0.898-1.189,1.478-5.201,2.64-6.96
                c0.899-1.361,2.415-2.886,2.88-4.8c-0.16-0.72-0.32-1.44-0.48-2.16c0.48-1.92,0.96-3.84,1.44-5.76
                c0.911-3.734-1.746-6.593-0.48-10.8c0.507-1.687-1.065-0.954-0.48-2.16c2.145-6.071-1.086-7.049-1.68-11.76
                c0.32-0.959,0.64-1.92,0.96-2.88c-0.236-3.382-1.941-6.195-2.64-9.36c0.08-2.72,0.16-5.44,0.24-8.16
                c-0.231-1.47-1.76-3.159-1.44-3.84c0.24-0.16,0.48-0.32,0.72-0.48c0.08-0.16,0.16-0.32,0.24-0.48c-0.559-0.694-0.849-0.677-1.2-1.68
                c0.4-0.64,0.8-1.28,1.2-1.92c-3.917-4.188-6.269-9.836-10.08-14.16c-1.285-1.458-3.076-0.971-5.04-1.92
                c-2.447-1.182-5.304-6.345-6-9.12c0.4-1.36,0.8-2.72,1.2-4.08c0.291-1.26-0.951-18.313-1.44-19.44c1.02-0.333,2.433-2.108,3.12-2.88
                c-0.08-0.24-0.16-0.48-0.24-0.72c-2.325-0.269-3.929-2.421-4.08-4.8c0.744-1.42,1.777-1.912,2.64-3.12
                c-0.32-1.92-0.64-3.84-0.96-5.76c0.16,0,0.32,0,0.48,0c2.72-0.48,5.44-0.96,8.16-1.44c0.979-7.56,2.659-19.373,8.4-22.32
                c2.64-0.56,5.28-1.12,7.92-1.68c1.994-1.347,1.367-3.903,4.32-3.84c0.08-0.8,0.16-1.6,0.24-2.4c-1.432-3.782,1.702-7.655,0.72-12.48
                c1.76-0.8,3.521-1.6,5.28-2.4c1.941-7.862,9.999-11.796,14.88-17.52c2.48-3.68,4.96-7.36,7.44-11.04c2.72-2.56,5.44-5.12,8.16-7.68
                c4.702-6.648,10.817-14.419,13.44-22.56c1.301-4.038,5.53-15.943,3.84-20.88c2.555-8.895,9.749-20.41,15.12-26.4
                c4.373-4.877,12.009-6.014,18.72-8.64c8.719-3.76,17.441-7.521,26.16-11.28c1.12-5.12,2.24-10.24,3.36-15.36
                c-1.44-1.2-2.88-2.4-4.32-3.6c1.543-5.457-0.01-12.862-1.92-16.56C464.316,356.76,469.649,358.543,474.72,356.64z" /> 
              <path id="douglas-south" name="Douglas South" d="M465.12,605.28c0.32,0,0.64,0,0.96,0
                c2.132,7.714,4.436,17.685,8.16,24.24c-0.48,0.24-0.96,0.48-1.44,0.72c0.24,0.56,0.48,1.12,0.72,1.68
                c-3.077,0.142-13.127,9.021-14.64,11.28c-1.053,1.573-0.724,3.388-2.16,4.56c-9.902-0.558-8.967-1.945-12.96-8.16
                c-2.24-1.92-4.48-3.84-6.72-5.76c2.15-4.042,1.634-10.57-4.32-11.28c-0.258-2.771,1.196-1.862,2.88-2.88
                c-0.021-2.762-1.133-3.177-2.16-4.8c0-0.08,0-0.16,0-0.24c2.125-0.495,4.833-2.017,7.2-2.64c9.331-2.458,16.854-1.98,24.24-6
                C464.96,605.76,465.04,605.52,465.12,605.28z" /> 

              <path id="douglas-central" name="Douglas Central" d="M492.96,591.84c7.176,8.168,0.663,13.216-2.4,20.16
            c2.984,8.017,3.11,14.404,8.16,20.64c0.08,1.84,0.16,3.68,0.24,5.52c-0.08,0-0.16,0-0.24,0c-1.721-0.692-3.613-0.338-5.04,0.48
            c0,0.96,0,1.92,0,2.88c0.32,0,0.64,0,0.96,0c10.807-4.186,12.054,3.567,20.4,4.8c1.28-0.88,2.56-1.76,3.84-2.64
            c-0.56,1.44-1.12,2.88-1.68,4.32c0.08,0.16,0.16,0.32,0.24,0.48c1.424,0.102,1.303,0.157,1.92,0.96
            c-1.457,2.31-3.394,4.63-6.48,5.28c-1.44-1.44-2.88-2.88-4.32-4.32c0.08-1.2,0.16-2.4,0.24-3.6c-0.08-0.08-0.16-0.16-0.24-0.24
            c-0.08,0-0.16,0-0.24,0c-0.08,0-0.16,0-0.24,0c-6.56-1.68-13.121-3.36-19.68-5.04c-1.59-0.953-2.165-1.961-4.8-2.4
            c-4.4,1.2-8.8,2.4-13.2,3.6c-3.44,1.708-12.282,14.218-14.88,13.44c-0.24-0.48-0.48-0.96-0.72-1.44c1.426-1.919,4.036-3.334,4.56-6
            c-0.48-0.24-0.96-0.48-1.44-0.72c1.657-0.934,1.187-3.467,2.4-4.8c3.92-3.44,7.84-6.88,11.76-10.32
            c1.403-0.57,1.979,0.342,3.12-0.96c-0.32-0.48-0.64-0.96-0.96-1.44c0.965-0.274,0.918-0.33,1.44-0.96
            c-3.339-5.159-5.323-13.251-6.96-19.92c5.599,0.504,8.746-9.263,12.96-11.28c0.181,2.375,1.499,4.571,3.6,5.04
            c0.08-0.24,0.16-0.48,0.24-0.72c1.183-2.076,0.517-4.202,0.72-6.48C489.245,595.117,491.295,594.171,492.96,591.84z"  /> 
          <path id="douglas-east" name="Douglas East" d="M518.88,582.24c3.074,2.42,9.824,12.526,15.12,10.08
            c0-0.32,0-0.64,0-0.96c1.182,0.423,1.366,1.19,1.44,2.64c-0.4,0-0.8,0-1.2,0c-14.312-3.9-28.713,17.606-30.96,30.24
            c-1.807,10.16,8.231,9.95,5.52,15.84c-2.775-1.084-5.398-2.53-8.64-2.16c-0.064-6.983-2.259-5.754-4.08-10.08
            c-1.063-2.525-0.674-4.299-1.44-7.68c-0.88-2.8-1.76-5.601-2.64-8.4c1.92-3.36,3.84-6.721,5.76-10.08
            c-0.32-1.76-0.64-3.521-0.96-5.28c3.04-2.24,6.081-4.48,9.12-6.72C510.24,587.2,514.561,584.719,518.88,582.24z" />
          <path id="douglas-north" name="Douglas North" d="M504.72,549.36c3.291,1.908,3.348,5.804,5.52,8.88
            c1.76,1.52,3.52,3.04,5.28,4.56c-0.64,1.973-1.63,3.042-1.92,5.52c2.626,3.368,4.388,8.571,4.32,13.44
            c-6.276,1.454-16.016,10.204-21.36,13.68c-0.24-0.16-0.48-0.32-0.72-0.48c-0.475-1.646-1.459-3.565-2.64-4.56
            c-2.921,2.23-4.043,3.548-8.4,4.8c0,0.08,0,0.16,0,0.24c0.455,2.366,0.387,4.018,0,6.48c-0.24-0.16-0.48-0.32-0.72-0.48
            c-0.585-1.365-1.813-3.106-2.4-4.32c-0.24-3.76-0.48-7.521-0.72-11.28c-0.396-1.408-2.133-1.428-1.68-4.08
            c0.96-3.92,1.92-7.841,2.88-11.76c-0.643-2.414-2.284-3.517-3.12-6.48c1.49-0.535,2.046-1.098,3.12-1.92
            C491.386,562.936,500.536,556.612,504.72,549.36z" /> 

          <path id="onchan" name="Onchan" d="M536.64,594.24c-0.24-1.12-0.48-2.24-0.72-3.36
            c-0.72-0.24-1.44-0.48-2.16-0.72c-3.576,3.175-6.49-1.697-8.88-3.84c-2-1.839-4-3.68-6-5.52c-1.219-1.899,0.154-3.981-0.24-5.76
            c-1.28-2.48-2.56-4.96-3.84-7.44c0-0.16,0-0.32,0-0.48c0-0.08,0-0.16,0-0.24c0.64-1.44,1.28-2.88,1.92-4.32
            c-3.712-3.655-6.932-4.785-6.72-12c0.72-0.32,1.44-0.64,2.16-0.96c0.32,0.96,0.64,1.92,0.96,2.88c-0.48,0.72-0.96,1.44-1.44,2.16
            c0.16,0.16,0.32,0.32,0.48,0.48c1.04,0.24,2.08,0.48,3.12,0.72c0.88-0.72,1.76-1.44,2.64-2.16c1.956,1.138,2.282,2.697,5.28,2.88
            c1.36-1.44,2.72-2.88,4.08-4.32c0,0.16,0,0.32,0,0.48c2.619,1.771,2.973,6.471,5.28,8.64c5.028-0.232,12.829-1.108,17.04,1.44
            c0.16,0.4,0.32,0.8,0.48,1.2c-2.902,3.039-6.917,5.189-9.6,8.4c0.16,0.24,0.32,0.48,0.48,0.72c0.614,0.53,0.139,0.288,0.96,0.24
            c-0.212,2.903,4.407,13.774,7.68,15.12c0,0.32,0,0.64,0,0.96c-1.872,2.264-2.508,5.094-4.8,6.96
            C542.001,594.995,540.408,594.073,536.64,594.24z" /> 

          <path id="douglas-south" name="Douglas South" d="M465.12,605.28c0.32,0,0.64,0,0.96,0
                c2.132,7.714,4.436,17.685,8.16,24.24c-0.48,0.24-0.96,0.48-1.44,0.72c0.24,0.56,0.48,1.12,0.72,1.68
                c-3.077,0.142-13.127,9.021-14.64,11.28c-1.053,1.573-0.724,3.388-2.16,4.56c-9.902-0.558-8.967-1.945-12.96-8.16
                c-2.24-1.92-4.48-3.84-6.72-5.76c2.15-4.042,1.634-10.57-4.32-11.28c-0.258-2.771,1.196-1.862,2.88-2.88
                c-0.021-2.762-1.133-3.177-2.16-4.8c0-0.08,0-0.16,0-0.24c2.125-0.495,4.833-2.017,7.2-2.64c9.331-2.458,16.854-1.98,24.24-6
                C464.96,605.76,465.04,605.52,465.12,605.28z" /> 

                <path id="douglas-central" name="Douglas Central" d="M492.96,591.84c7.176,8.168,0.663,13.216-2.4,20.16
            c2.984,8.017,3.11,14.404,8.16,20.64c0.08,1.84,0.16,3.68,0.24,5.52c-0.08,0-0.16,0-0.24,0c-1.721-0.692-3.613-0.338-5.04,0.48
            c0,0.96,0,1.92,0,2.88c0.32,0,0.64,0,0.96,0c10.807-4.186,12.054,3.567,20.4,4.8c1.28-0.88,2.56-1.76,3.84-2.64
            c-0.56,1.44-1.12,2.88-1.68,4.32c0.08,0.16,0.16,0.32,0.24,0.48c1.424,0.102,1.303,0.157,1.92,0.96
            c-1.457,2.31-3.394,4.63-6.48,5.28c-1.44-1.44-2.88-2.88-4.32-4.32c0.08-1.2,0.16-2.4,0.24-3.6c-0.08-0.08-0.16-0.16-0.24-0.24
            c-0.08,0-0.16,0-0.24,0c-0.08,0-0.16,0-0.24,0c-6.56-1.68-13.121-3.36-19.68-5.04c-1.59-0.953-2.165-1.961-4.8-2.4
            c-4.4,1.2-8.8,2.4-13.2,3.6c-3.44,1.708-12.282,14.218-14.88,13.44c-0.24-0.48-0.48-0.96-0.72-1.44c1.426-1.919,4.036-3.334,4.56-6
            c-0.48-0.24-0.96-0.48-1.44-0.72c1.657-0.934,1.187-3.467,2.4-4.8c3.92-3.44,7.84-6.88,11.76-10.32
            c1.403-0.57,1.979,0.342,3.12-0.96c-0.32-0.48-0.64-0.96-0.96-1.44c0.965-0.274,0.918-0.33,1.44-0.96
            c-3.339-5.159-5.323-13.251-6.96-19.92c5.599,0.504,8.746-9.263,12.96-11.28c0.181,2.375,1.499,4.571,3.6,5.04
            c0.08-0.24,0.16-0.48,0.24-0.72c1.183-2.076,0.517-4.202,0.72-6.48C489.245,595.117,491.295,594.171,492.96,591.84z" /> 

          <path id="douglas-east" name="Douglas East" d="M518.88,582.24c3.074,2.42,9.824,12.526,15.12,10.08
        c0-0.32,0-0.64,0-0.96c1.182,0.423,1.366,1.19,1.44,2.64c-0.4,0-0.8,0-1.2,0c-14.312-3.9-28.713,17.606-30.96,30.24
        c-1.807,10.16,8.231,9.95,5.52,15.84c-2.775-1.084-5.398-2.53-8.64-2.16c-0.064-6.983-2.259-5.754-4.08-10.08
        c-1.063-2.525-0.674-4.299-1.44-7.68c-0.88-2.8-1.76-5.601-2.64-8.4c1.92-3.36,3.84-6.721,5.76-10.08
        c-0.32-1.76-0.64-3.521-0.96-5.28c3.04-2.24,6.081-4.48,9.12-6.72C510.24,587.2,514.561,584.719,518.88,582.24z" />

      <path id="douglas-north" name="Douglas North" d="M504.72,549.36c3.291,1.908,3.348,5.804,5.52,8.88
        c1.76,1.52,3.52,3.04,5.28,4.56c-0.64,1.973-1.63,3.042-1.92,5.52c2.626,3.368,4.388,8.571,4.32,13.44
        c-6.276,1.454-16.016,10.204-21.36,13.68c-0.24-0.16-0.48-0.32-0.72-0.48c-0.475-1.646-1.459-3.565-2.64-4.56
        c-2.921,2.23-4.043,3.548-8.4,4.8c0,0.08,0,0.16,0,0.24c0.455,2.366,0.387,4.018,0,6.48c-0.24-0.16-0.48-0.32-0.72-0.48
        c-0.585-1.365-1.813-3.106-2.4-4.32c-0.24-3.76-0.48-7.521-0.72-11.28c-0.396-1.408-2.133-1.428-1.68-4.08
        c0.96-3.92,1.92-7.841,2.88-11.76c-0.643-2.414-2.284-3.517-3.12-6.48c1.49-0.535,2.046-1.098,3.12-1.92
        C491.386,562.936,500.536,556.612,504.72,549.36z" /> 

      <path id="onchan" name="Onchan" d="M536.64,594.24c-0.24-1.12-0.48-2.24-0.72-3.36
        c-0.72-0.24-1.44-0.48-2.16-0.72c-3.576,3.175-6.49-1.697-8.88-3.84c-2-1.839-4-3.68-6-5.52c-1.219-1.899,0.154-3.981-0.24-5.76
        c-1.28-2.48-2.56-4.96-3.84-7.44c0-0.16,0-0.32,0-0.48c0-0.08,0-0.16,0-0.24c0.64-1.44,1.28-2.88,1.92-4.32
        c-3.712-3.655-6.932-4.785-6.72-12c0.72-0.32,1.44-0.64,2.16-0.96c0.32,0.96,0.64,1.92,0.96,2.88c-0.48,0.72-0.96,1.44-1.44,2.16
        c0.16,0.16,0.32,0.32,0.48,0.48c1.04,0.24,2.08,0.48,3.12,0.72c0.88-0.72,1.76-1.44,2.64-2.16c1.956,1.138,2.282,2.697,5.28,2.88
        c1.36-1.44,2.72-2.88,4.08-4.32c0,0.16,0,0.32,0,0.48c2.619,1.771,2.973,6.471,5.28,8.64c5.028-0.232,12.829-1.108,17.04,1.44
        c0.16,0.4,0.32,0.8,0.48,1.2c-2.902,3.039-6.917,5.189-9.6,8.4c0.16,0.24,0.32,0.48,0.48,0.72c0.614,0.53,0.139,0.288,0.96,0.24
        c-0.212,2.903,4.407,13.774,7.68,15.12c0,0.32,0,0.64,0,0.96c-1.872,2.264-2.508,5.094-4.8,6.96
        C542.001,594.995,540.408,594.073,536.64,594.24z"/> </svg> 
