<svg
	xmlns="http://www.w3.org/2000/svg"
	viewBox="0 0 544 792"
	aria-label="Map of Serbia"
>
  <path
     id="RS-00"
	  name="Beograd"
     d="m 206.65269,344.54258 -2.02,0.38 -3.88,3.39 -0.72,3.39 -5.82,0.97 -3.39,1.94 -7.5,-7.75 -4.36,-6.3 -0.25,-1.69 4.12,-0.49 0.73,-2.42 -2.91,-2.66 2.42,-3.15 -0.24,-3.15 2.91,-1.69 0.72,-3.88 -2.18,-1.69 1.46,-2.18 0.48,-4.6 -4.84,-3.88 -0.24,-6.54 -1.7,-2.66 -5.57,10.17 -2.9,-1.94 -1.22,-2.9 -2.9,-2.18 -2.42,0.24 -0.97,3.87 -3.15,1.22 -2.18,-2.67 -3.63,-1.21 -2.91,-2.42 1.45,-3.15 0,0 0.25,-4.6 -2.67,-1.94 -0.99,-4.96 0,0 2.72,-1.98 1.67,-3.01 2.83,-2.53 12.29,-5.86 -5.82,-4.5 0.13,-1.46 4.51,-3.24 1.47,-3.2 -1.66,-3.59 0.32,-2.42 6.58,-1.73 2.24,-1.57 0.22,-2.22 -3.22,-3.89 -0.06,-3.17 2,-4.05 4.98,-4.12 11.69,-5.63 -1.09,-3.74 0.68,-2.94 1.5,-1.61 4.67,-1.39 1.8,-2.26 0.83,-2.71 -0.44,-3.64 -1.24,-2.51 -2.74,-0.73 0,0 1.69,-2.18 0,0 5.33,-1.21 0,0 3.82,-0.2 0,0 0.29,6.71 5.37,5.08 2.4,5.75 6.57,3 -0.26,2.08 3.37,7.47 6.67,-0.2 2,1.06 4.11,16.34 -2.74,7.92 1.63,5.88 5.36,3.68 6.83,9.85 5.01,3.2 3.94,0.58 0,0 0.51,0.02 0,0 -0.78,3.88 0.49,5.32 2.66,0.73 2.91,3.87 -9.21,1.46 -4.11,3.15 3.39,3.14 1.69,3.15 3.64,0 -0.25,2.91 4.85,5.32 1.45,4.61 -2.66,2.18 -2.67,-0.25 -2.66,-1.69 -2.42,0.73 -1.46,5.56 -2.42,2.91 6.78,6.54 -3.15,1.69 0,0 0.23,4.79 0,0 -2.11,-1.73 -3.39,-0.73 -0.97,-2.91 -3.64,-0.24 -1.93,1.7 -4.12,-0.49 -2.18,-2.9 -0.24,-3.64 -2.67,-1.21 -2.42,0.73 -1.21,1.69 -4.84,1.22 -1.94,-8.48 -7.99,-1.45 -1.45,-1.7 -3.39,-0.97 -0.73,3.39 -1.7,1.94 1.22,2.66 2.17,1.21 1.46,3.15 -5.57,7.03 0,0 z"
     />
  <path
     id="RS-01"
     name="Severnobački okrug"
     d="m 136.78269,79.352578 -8.29,5.63 -4.12,1.21 -1.94,2.66 2.18,1.7 0,3.87 -5.32,6.300002 0,4.84 -2.18,2.91 -3.64,-0.24 -10.65,-5.81 0,0 -4.359996,-0.25 0,0 5.809996,-4.110002 -1.69,-3.39 -6.539996,-4.36 2.18,-1.94 0.24,-2.42 -7.99,-4.12 -2.91,4.36 -6.78,-6.54 -2.42,-5.57 -7.75,-7.99 -1.94,-5.33 0.73,-3.87 -2.42,-4.85 2.42,-2.9 2.18,-0.73 0.97,-2.66 -4.6,1.45 0.24,-4.36 -5,-5.16 0,0 0.5,-0.55 -2.54,-4.19 10.55,-6.72 2.14,2.87 4.45,-1.92 6.51,-6.48 -0.05,-2.67 7.73,-4.47 -2.17,-2.59 -0.44,-2.0499998 1.49,-1.29 1.49,0.45 3.49,-2.65 1.44,-2.86 8.709996,1.48 3.8,-3.72 2.53,1.74 1.81,-1.24 2.77,3.29 1.86,-0.04 3.65,4.46 7.44,3.3799998 4.64,-4.0099998 3.87,-0.87 0,0 1.49,5.0599998 -1.21,2.66 -2.18,1.94 -1.45,10.17 -6.05,12.83 -1.21,9.69 2.18,3.88 0,2.66 -2.91,0.73 -0.48,3.14 2.42,4.6 -0.24,5.09 1.45,1.94 0.72,3.39 2.67,1.69 0.72,2.18 0,0 z"
      />
  <path
     id="RS-02" 
     name="Srednjebanatski okrug"
     d="m 197.72269,206.12258 -3.51,-1.85 -2.9,-5.57 -3.64,-3.15 0,0 2.67,-1.69 0,0 -1.45,-3.88 4.6,-3.63 2.42,-3.63 -2.91,-5.33 -11.38,-11.87 5.33,-3.63 1.45,-2.66 -2.42,-2.18 -4.6,-1.7 -2.18,-2.9 0,-4.6 1.94,-1.94 0.72,-2.42 -1.45,-3.88 -3.63,3.15 -3.39,-1.21 0.97,-6.05 -1.22,-3.15 -3.39,-0.97 -0.96,-3.15 -2.67,-1.69 -2.9,5.81 -2.67,2.66 -1.69,-2.66 0.48,-4.6 1.7,-2.91 -1.94,-3.39 7.51,-4.36 3.14,-3.39 -3.63,-1.21 -5.08,1.69 -0.25,-3.63 3.64,-1.69 0.24,-4.36 -7.75,1.69 -0.73,-3.14 1.46,-1.7 8.47,-0.73 -2.18,-6.780002 2.42,-2.9 0,0 5.57,0 0,0 2.67,-1.94 0,-3.88 -3.15,-2.9 1.94,-1.21 1.69,-3.63 15.74,-2.18 4.6,1.45 2.91,-1.21 4.36,7.75 1.21,4.6 4.12,2.42 -0.97,3.87 -6.54,3.15 0,4.120002 -4.36,5.09 3.39,2.9 6.54,0.24 7.51,-3.87 2.66,1.69 5.33,0 -1.7,-9.200002 1.94,-4.6 5.33,-4.6 2.42,2.42 4.36,0 0.48,-8.96 2.42,-3.63 0.49,-3.63 2.6,-0.95 0,0 2.78,-0.38 1.12,7 0.96,1.69 1.82,0.39 2.4,-1.34 5.39,0.24 1.21,-5.89 5.13,2.04 -0.94,4.89 -1.03,0.13 -0.68,2.06 -0.03,7.01 -0.83,2.35 0.91,0.93 0.22,4.55 -2.02,2.010002 -1.29,4.31 -1.8,1.85 0.84,5.48 2.96,-0.98 4.87,9.62 -3.16,3.58 -5.12,2.99 1.11,1.75 -0.83,1.9 8.1,0.04 4.43,2.8 1.78,3.42 -0.82,-0.07 -0.54,2.54 -0.93,0.04 4.84,2.82 2.53,-0.11 1.98,4.43 -0.72,0.09 0.15,0.96 2.22,0.18 1.54,3.46 2.88,1.75 1.83,2.48 1.82,0.32 0.5,2.41 0,0 -1.83,1.95 -10.66,1.7 -5.57,4.6 -7.99,3.14 5.33,3.4 -0.97,2.17 -3.39,0.97 -6.54,4.12 -5.57,8.23 -9.44,-9.68 -8.48,-1.46 -1.69,-1.93 -1.94,0.97 -1.69,5.08 -6.3,-0.97 -2.18,1.21 -2.91,3.15 -2.42,4.6 0.49,7.75 -2.67,1.94 -0.97,3.15 0,0 -4.6,0.24 0,0 -5.33,1.21 0,0 z"
     />
  <path
     id="RS-03" 
     name="Severnobanatski okrug"
     d="m 169.90269,90.942578 0,-1.84 -2.18,-3.15 -10.17,-2.91 -6.06,0 -4.6,-2.66 -9.2,-0.73 0,0 -2.91,-0.97 0,0 -0.72,-2.18 -2.67,-1.69 -0.72,-3.39 -1.45,-1.94 0.24,-5.09 -2.42,-4.6 0.48,-3.14 2.91,-0.73 0,-2.66 -2.18,-3.88 1.21,-9.69 6.05,-12.83 1.45,-10.17 2.18,-1.94 1.21,-2.66 -1.49,-5.0599998 0,0 6.32,-3.95 8.13,-0.05 3.8,0.76 1.75,4.67 2.89,-0.47 0.64,0.71 4.48,-5.95 1.53,3.45 3.73,2.61 2.85,-0.71 2.51,-1.94 6.44,6.7699998 2.19,-1.32 0.54,2.67 2.09,-2.04 -0.57,1.94 2.46,0.04 -2.27,1.2 0.96,2.31 3.71,2.18 1.01,2.72 4.31,4.28 -0.43,1.98 2.23,5.88 -1.26,1.34 7.69,6.43 5.4,-0.93 4.67,3.18 4.21,11.47 4.41,-1.47 -0.44,-1.13 2.98,-0.78 1.58,7.65 1.7,-0.43 0.56,1.88 1.66,-0.45 6.34,6.49 -1.26,3.23 1.52,3 0,0 -2.6,0.95 -0.49,3.63 -2.42,3.63 -0.48,8.96 -4.36,0 -2.42,-2.42 -5.33,4.6 -1.94,4.6 1.7,9.200002 -5.33,0 -2.66,-1.69 -7.51,3.87 -6.54,-0.24 -3.39,-2.9 4.36,-5.09 0,-4.120002 6.54,-3.15 0.97,-3.87 -4.12,-2.42 -1.21,-4.6 -4.36,-7.75 -2.91,1.21 -4.6,-1.45 -15.74,2.18 -1.69,3.63 -1.94,1.21 3.15,2.9 0,3.88 -2.67,1.94 0,0 z"
     />
  <path
     id="RS-04" 
     name="Južnobanatski okrug"
     d="m 257.88269,282.52258 -3.94,-0.58 -5.01,-3.2 -6.83,-9.85 -5.36,-3.68 -1.63,-5.88 2.74,-7.92 -4.11,-16.34 -2,-1.06 -6.67,0.2 -3.37,-7.47 0.26,-2.08 -6.57,-3 -2.4,-5.75 -5.37,-5.08 -0.29,-6.71 0,0 0.78,-0.04 0,0 0.97,-3.15 2.67,-1.94 -0.49,-7.75 2.42,-4.6 2.91,-3.15 2.18,-1.21 6.3,0.97 1.69,-5.08 1.94,-0.97 1.69,1.93 8.48,1.46 9.44,9.68 5.57,-8.23 6.54,-4.12 3.39,-0.97 0.97,-2.17 -5.33,-3.4 7.99,-3.14 5.57,-4.6 10.66,-1.7 1.83,-1.95 0,0 0.29,0.71 5.85,-1.32 -0.19,2.77 2.55,-0.16 2.03,3.89 6.2,-1.69 2.04,-3.54 0.66,0.97 1.11,-0.9 1.13,0.72 -0.37,2.3 1.31,3.8 2.21,2.2 -0.67,1.8 1.98,2.85 1.13,-0.31 6.19,4.14 2.19,-2.31 4.38,0.52 4.35,3.15 1.28,-0.6 3.22,1.39 1.68,-1.87 3.71,4.49 5.98,2.3 1.68,3.74 2.88,0.47 1.4,3.4 -0.15,2.18 -6.33,3.06 -0.95,2.85 1.57,2.64 -3.37,3.68 -0.87,2.83 0.66,2.86 -4.35,1.37 -2.13,-0.71 -1.39,1.62 -2.15,-0.18 -2.37,1.37 3.43,2.93 -0.53,0.51 4.14,2.76 -0.96,1.42 4.04,3.33 4.13,0.36 9.78,4.99 0.98,1.4 0.95,6.3 -6.47,1.57 -2.09,1.64 -3.1,-0.15 -0.44,0.82 -1.99,-1.58 -1.59,1.07 -1.67,-0.58 -2.62,0.99 -4.72,-0.19 -1.48,2.99 0.61,1.75 -1.31,0 1.05,0.82 -0.73,0.66 1.17,0.49 -0.92,0.42 0.21,1.02 0,0 -17.9,7.58 -5.64,4.06 -3.11,3.95 -5.27,1.23 -4.81,2.35 -4.1,0.15 0,0 -2.01,-0.29 0,0 -4.21,0.61 -9.14,8.2 -7.01,1.91 -6.75,0.64 0,0 z"
     />
  <path
     id="RS-05" 
     name="Zapadnobački okrug"
     d="m 99.472694,102.23258 -1.01,0.28 -2.91,7.03 3.15,4.35 -0.72,1.94 -4.85,-0.48 -1.45,7.26 -2.91,1.21 -6.29,-3.39 -5.57,4.36 -0.49,4.12 -3.15,1.45 -2.9,3.15 1.21,2.66 2.91,1.94 -1.46,3.15 -2.42,-1.21 -4.12,-0.24 -3.14,2.18 -2.43,-1.7 -1.21,-2.66 -1.69,0.72 -0.97,3.15 -8.23,0 -0.97,-2.42 -3.15,-0.97 -3.39,1.7 -3.63,-0.49 1.69,-1.94 -5.33,-2.66 -1.69,-2.18 -3.39,1.21 -1.7,-0.97 0.68,-2.28 0,0 2.07,0.71 5.4,-0.55 1.75,-2.23 0.33,-2.73 -4.42,-3.19 -4.3,-0.65 -1.55,-4.08 -2.94,0.15 -1.15,2.68 -5.17,1.27 -2.41,-1.03 -4.99,-5.27 0.47,-2.41 2.42,-3.53 -1.48,-2.74 1.18,-1.22 3.44,-0.18 0.65,-3.83 2.68,-3.310002 0.25,-2.72 -4.84,-2.48 -2.63,-2.9 -3.0099995,-12.76 -1.3,-2.19 -2.46,-1.13 -0.69,-1.69 0.77,-10.18 -3.49,-2.75 -0.49,-4.66 -1.69000003,-2.39 0.87000003,-0.67 0.88,1.72 5.1,-1.15 -0.52,-1.87 2.09,0.78 3.5399995,-3.52 7.15,1.66 3.21,-1.1 1.14,1.64 1.67,-0.17 -1.68,-4.37 2.37,-2.95 8.62,-0.17 -1.8,-6.62 5.27,-7.3 3.82,0.67 1.56,7.24 7.16,0.62 -0.35,-1.01 4.27,-0.11 0.55,0.71 6.21,-0.25 1.72,1.39 0,0 5,5.16 -0.24,4.36 4.6,-1.45 -0.97,2.66 -2.18,0.73 -2.42,2.9 2.42,4.85 -0.73,3.87 1.94,5.33 7.75,7.99 2.42,5.57 6.78,6.54 2.91,-4.36 7.99,4.12 -0.24,2.42 -2.18,1.94 6.539996,4.36 1.69,3.39 -5.809996,4.110002 0,0 z"
     />
  <path
     id="RS-06" 
     name=" Južnobački okrug"
     d="m 27.942694,130.50258 -0.68,2.28 1.7,0.97 3.39,-1.21 1.69,2.18 5.33,2.66 -1.69,1.94 3.63,0.49 3.39,-1.7 3.15,0.97 0.97,2.42 8.23,0 0.97,-3.15 1.69,-0.72 1.21,2.66 2.43,1.7 3.14,-2.18 4.12,0.24 2.42,1.21 1.46,-3.15 -2.91,-1.94 -1.21,-2.66 2.9,-3.15 3.15,-1.45 0.49,-4.12 5.57,-4.36 6.29,3.39 2.91,-1.21 1.45,-7.26 4.85,0.48 0.72,-1.94 -3.15,-4.35 2.91,-7.03 1.01,-0.28 0,0 3.349996,0.19 0,0 10.65,5.81 3.64,0.24 2.18,-2.91 0,-4.84 5.32,-6.300002 0,-3.87 -2.18,-1.7 1.94,-2.66 4.12,-1.21 8.29,-5.63 0,0 0.91,0.3 0,0 9.2,0.73 4.6,2.66 6.06,0 10.17,2.91 2.18,3.15 0,1.84 0,0 -3.54,0 0,0 -2.42,2.9 2.18,6.780002 -8.47,0.73 -1.46,1.7 0.73,3.14 7.75,-1.69 -0.24,4.36 -3.64,1.69 0.25,3.63 5.08,-1.69 3.63,1.21 -3.14,3.39 -7.51,4.36 1.94,3.39 -1.7,2.91 -0.48,4.6 1.69,2.66 2.67,-2.66 2.9,-5.81 2.67,1.69 0.96,3.15 3.39,0.97 1.22,3.15 -0.97,6.05 3.39,1.21 3.63,-3.15 1.45,3.88 -0.72,2.42 -1.94,1.94 0,4.6 2.18,2.9 4.6,1.7 2.42,2.18 -1.45,2.66 -5.33,3.63 11.38,11.87 2.91,5.33 -2.42,3.63 -4.6,3.63 1.45,3.88 0,0 -2.26,1.43 0,0 -6.22,-7.49 -3.87,0.73 -5.81,-0.48 -0.97,-2.43 -2.42,-0.72 -5.57,5.81 -3.64,-0.48 -1.45,-1.94 1.94,-1.94 0.24,-3.87 -3.15,-0.49 -4.12,5.33 -0.96,3.15 -1.94,1.45 -6.3,1.21 -7.02,-0.97 -4.36,0.73 -1.45,1.69 -3.15,-1.69 -4.6,-0.24 -4.85,0 -3.14,1.93 -7.27,-0.72 -5.81,0.48 -3.149996,-1.21 -3.15,0 -5.81,-3.39 -2.91,0.49 -4.6,4.35 -6.74,-5.89 0,0 -0.24,-2.69 1.23,-2.12 -0.66,-6.37 -7.63,-0.11 -11.55,-1.93 -18.33,-9.64 -2.78,-7.35 -8.32,-1.55 -5.73,-4.91 -0.56,-2.19 2.97,-3.48 1.92,-0.07 1.25,-3.5 -4.43,-5.21 0.65,-6.51 1.35,-1.88 z"
     />
  <path
     id="RS-07" 
     name="Sremski okrug"
     d="m 188.08269,195.29258 -0.41,0.26 0,0 3.64,3.15 2.9,5.57 3.51,1.85 0,0 -1.23,1.59 0,0 2.74,0.73 1.24,2.51 0.44,3.64 -0.83,2.71 -1.8,2.26 -4.67,1.39 -1.5,1.61 -0.68,2.94 1.09,3.74 -11.69,5.63 -4.98,4.12 -2,4.05 0.06,3.17 3.22,3.89 -0.22,2.22 -2.24,1.57 -6.58,1.73 -0.32,2.42 1.66,3.59 -1.47,3.2 -4.51,3.24 -0.13,1.46 5.82,4.5 -12.29,5.86 -2.83,2.53 -1.67,3.01 -2.72,1.98 0,0 -4.84,-1.2 -0.62,-2.74 2.03,-1.36 4.58,-0.88 3.33,-2.59 -0.14,-2.39 -7.5,1.15 -3.26,-0.76 -6.01,-3.02 -9.32,-7.59 -9.16,-0.62 -2.67,-2.74 -1.28,-3.97 0.23,-5.21 8.05,-16.25 -1.28,-1.44 -3.28,0.69 -2.63,-3.05 -4.74,-0.2 -7.08,4.42 -9.629996,0.57 -3.42,-0.62 -2.36,-3.4 -3.84,4.16 -5.71,-3.17 -1.44,1.82 -1.14,-2.43 -2.37,1.57 -7.12,-1.71 -0.69,1.75 4.25,2.46 0.13,0.97 -1.07,0.68 -5.46,-3.54 -3.43,0.84 -2.87,-1.74 -5.78,2.99 -1.6,-3.74 -2.75,-0.85 -3.4,2.86 -3.32,1.39 -1.41,2.13 -3.91,1.35 -1.97,2.85 -6.11,1.42 -1.67,-8.61 8.79,-1.17 3.18,-3.87 4.94,-2.06 1.57,-2.06 -0.85,-0.88 0.29,-3.11 -0.99,-0.85 -3.77,1.86 -7.74,-1.22 5.36,-3.35 1.24,-2.32 -0.92,-5.25 2.28,-2.38 0.08,-2.96 -2.36,-2.65 1.16,-2.22 -2.03,-3.06 0.11,-3.42 5.17,0.66 1.8,-0.88 5.27,-7.72 0.45,-2.33 -1.85,-2.12 0.21,-0.92 1.27,-0.09 10.07,5.5 2.96,0 0.96,-4.95 3.06,-0.29 4.9,5.75 5.27,-0.61 0,0 6.74,5.89 4.6,-4.35 2.91,-0.49 5.81,3.39 3.15,0 3.149996,1.21 5.81,-0.48 7.27,0.72 3.14,-1.93 4.85,0 4.6,0.24 3.15,1.69 1.45,-1.69 4.36,-0.73 7.02,0.97 6.3,-1.21 1.94,-1.45 0.96,-3.15 4.12,-5.33 3.15,0.49 -0.24,3.87 -1.94,1.94 1.45,1.94 3.64,0.48 5.57,-5.81 2.42,0.72 0.97,2.43 5.81,0.48 3.87,-0.73 z"
     />
  <path
     id="RS-08" 
     name="Mačvanski okrug"
     d="m 153.30269,297.79258 -4.46,-0.57 -0.97,1.69 -3.15,1.21 -3.39,-2.18 -6.3,6.06 3.39,7.02 0.25,3.87 -0.25,3.15 -1.93,3.39 0,3.64 -1.94,4.35 -3.39,0.25 -3.39,-1.46 -1.94,-2.9 -4.12,-1.7 -4.11,-0.48 -2.18,-3.15 -6.3,0.97 -2.66,2.66 -2.91,-0.48 -0.97,-2.67 -4.359996,-1.93 -2.66,1.21 -5.09,0 -1.45,1.69 3.15,2.42 0.24,2.91 -1.45,3.63 0,2.67 -3.39,0.24 -1.21,1.21 5.57,5.33 -0.24,2.9 -4.36,0.73 -0.97,2.91 -3.15,1.93 -2.42,3.15 5.08,3.63 4.6,0.97 3.39,1.94 4.85,0.73 2.419996,3.63 0,5.08 3.15,1.46 2.68,3.39 0.22,3.87 -0.96,3.15 -1.7,-1.94 -2.42,-0.72 -12.069996,8.43 -1.52,-4.59 -2.96,-1.05 -0.04,-1.55 1.57,-1.98 -0.77,-1.51 -2.18,0.63 -1.84,2.31 -3.3,-2 -1.44,-4.47 -6.31,-2.65 0.02,-4.09 -2.04,-2.42 0.62,-2.36 -2.64,-3.45 -0.38,-3.3 -3.63,0.18 -2.28,-1.21 -2.71,1.97 -2.75,0.63 -2.22,-1.42 -1.42,-3.81 -3.84,1.57 -1.77,-0.45 -1.71,-3.09 -2.97,-2.73 0.46,-3.9 -2.21,-0.56 -1.09,-2.31 1.04,-2.23 -1.32,0 -0.5,-0.99 0.82,-4.43 4.2,-2.59 0.75,-1.46 -0.02,-6.74 -2.02,-6.99 -1.68,-1.46 1.3,-3.79 5.74,-0.38 0.73,-2.38 2.35,-2.5 -0.2,-1.63 -1.72,-1.09 1.37,-3.05 4.17,-2.03 -0.35,-2.92 1.99,-1.04 0.82,-2.58 1.25,-0.16 -0.45,-1.53 1.21,-3.16 1.78,-1.52 0.68,-3.66 4.55,-2.38 -1.49,-2.67 0.73,-2.37 -0.67,-1.65 2.28,0.76 1.05,-1.69 -2.28,-2.2 0.33,-1.71 -1.25,-0.97 0.55,-0.96 2.97,-0.53 -0.76,-1.68 -1.52,0.64 -2,-0.89 2.7,-1.64 -0.76,-1.97 0.37,-1.09 1.39,-0.2 -0.75,-1.49 2.01,0.65 1.27,-0.56 2.28,-3.05 -1.34,-2.57 2.27,0.59 2.17,-2.76 -1.7,-0.74 -0.14,-2.89 -2.49,-2.84 -3.92,-2.1 0.69,-1.75 7.12,1.71 2.37,-1.57 1.14,2.43 1.44,-1.82 5.71,3.17 3.84,-4.16 2.36,3.4 3.42,0.62 9.639996,-0.57 7.08,-4.42 4.73,0.2 2.63,3.05 3.84,-0.47 0.35,2.99 -1.83,2.04 -5.85,12.44 -0.23,5.21 0.93,3.4 3.03,3.31 9.15,0.62 9.32,7.59 6.01,3.02 3.27,0.76 7.49,-1.15 0.14,2.39 -3.87,2.9 -5.06,1.09 -1.17,1.87 0.78,1.71 4.64,1.25 1.19,4.91 2.67,1.94 z"
     />
  <path
     id="RS-09" 
     name="Kolubarski okrug"
     d="m 153.15269,297.79258 -0.11,1.12 0,0 -1.45,3.15 2.91,2.42 3.63,1.21 2.18,2.67 3.15,-1.22 0.97,-3.87 2.42,-0.24 2.9,2.18 1.22,2.9 2.9,1.94 5.57,-10.17 1.7,2.66 0.24,6.54 4.84,3.88 -0.48,4.6 -1.46,2.18 2.18,1.69 -0.72,3.88 -2.91,1.69 0.24,3.15 -2.42,3.15 2.91,2.66 -0.73,2.42 -4.12,0.49 0.25,1.69 4.36,6.3 7.5,7.75 3.39,-1.94 5.82,-0.97 0.72,-3.39 3.88,-3.39 2.02,-0.38 0,0 -0.09,0.87 0,0 2.91,0.24 0.24,8.23 1.14,1.33 0,0 -2.11,3.52 0,0 -5.32,6.54 -3.15,0.96 -2.67,4.85 -3.87,0.97 -1.45,3.63 -4.36,0 -3.64,1.69 -5.81,-0.48 -5.08,4.6 -6.06,0.73 0,0 -1.82,0.54 0,0 -0.84,-1.51 -7.51,-0.73 -3.87,0.49 -3.64,2.42 -3.39,-2.42 -2.66,-5.09 -3.87,-0.97 -3.88,1.94 -2.18,2.66 -2.66,-2.42 -3.39,0 1.21,2.67 2.9,2.42 1.21,3.63 -1.21,2.18 -4.11,0 -0.97,-3.63 -2.91,-4.12 -14.29,-8.48 0,0 -2.65,0.49 -2.67,-3.39 -3.15,-1.46 0,-5.08 -2.419996,-3.63 -4.85,-0.73 -3.39,-1.94 -4.6,-0.97 -5.08,-3.63 2.42,-3.15 3.15,-1.93 0.96,-2.91 4.36,-0.73 0.25,-2.9 -5.57,-5.33 1.21,-1.21 3.39,-0.24 0,-2.67 1.45,-3.63 -0.24,-2.91 -3.15,-2.42 1.45,-1.69 5.09,0 2.66,-1.21 4.359996,1.93 0.97,2.67 2.91,0.48 2.66,-2.66 6.3,-0.97 2.18,3.15 4.11,0.48 4.12,1.7 1.94,2.9 3.39,1.46 3.39,-0.25 1.93,-4.35 0,-3.64 1.94,-3.39 0.24,-3.15 -0.24,-3.87 -3.39,-7.02 6.3,-6.06 3.39,2.18 3.15,-1.21 0.97,-1.69 z"
     />
  <path
     id="RS-10" 
     name="Podunavski okrug"
     d="m 300.54269,365.43258 -2.49,-0.31 0.49,-3.87 -3.63,-0.73 -1.94,1.69 -3.63,-4.11 -5.57,-3.15 -1.7,-4.6 -4.36,1.69 -5.33,0 -6.29,-2.66 -5.09,-0.49 1.21,-5.08 -1.21,-0.73 0,0 -6.29,-0.24 -0.25,-5.09 0,0 3.15,-1.69 -6.78,-6.54 2.42,-2.91 1.46,-5.56 2.42,-0.73 2.66,1.69 2.67,0.25 2.66,-2.18 -1.45,-4.61 -4.85,-5.32 0.25,-2.91 -3.64,0 -1.69,-3.15 -3.39,-3.14 4.11,-3.15 9.21,-1.46 -2.91,-3.87 -2.66,-0.73 -0.49,-5.32 0.78,-3.88 0,0 1.4,0.06 0,0 6.75,-0.64 7.01,-1.91 9.14,-8.2 4.21,-0.61 0,0 2.01,0.29 0,0 -0.54,8.1 0.72,3.64 3.15,2.9 -0.48,3.64 1.21,2.9 8.96,3.39 -1.21,10.17 5.08,10.9 -0.48,5.09 -5.33,6.05 0.49,4.12 5.32,1.93 0.97,4.36 -6.78,2.18 -0.42,4.29 0,0 -1.07,2.15 6.43,8.93 -2.5,3.21 -1.43,4.65 0,0 z"
     />
  <path
     id="RS-11" 
     name="Braničevski okrug"
     d="m 299.57269,345.19258 0.42,-4.29 6.78,-2.18 -0.97,-4.36 -5.32,-1.93 -0.49,-4.12 5.33,-6.05 0.48,-5.09 -5.08,-10.9 1.21,-10.17 -8.96,-3.39 -1.21,-2.9 0.48,-3.64 -3.15,-2.9 -0.72,-3.64 0.54,-8.1 0,0 0,0 0,0 4.1,-0.15 4.81,-2.35 5.27,-1.23 3.11,-3.95 5.64,-4.06 17.9,-7.58 0,0 3.34,2.72 2.39,5.77 9.17,0.11 4.78,1.15 3.45,-0.48 6.51,2.39 2.14,2.93 1.61,5.22 0.26,6.6 2.11,2.94 7.95,-0.53 3.88,2.02 9.06,-1.67 1.82,1.65 7.91,0.56 3.12,1.08 3.93,-0.38 4.42,2.23 4.79,0.42 2.04,5.24 0,0 -2.01,1.13 -0.83,4.69 -2.21,1.93 -0.27,1.94 -3.32,0.27 0.28,7.18 -1.38,3.04 0.27,5.25 -2.21,2.48 -4.14,0.28 -1.38,3.86 -4.69,0 -0.55,3.04 -4.7,5.25 1.93,2.21 1.38,3.86 -1.93,1.93 7.73,1.38 4.14,3.04 0.83,11.88 3.04,1.93 1.66,-3.32 2.21,-1.1 1.1,3.87 -0.27,3.31 2.76,3.31 -3.04,5.8 1.38,4.42 -1.1,3.59 -2.21,1.93 -6.08,-0.27 -2.21,3.03 -5.52,-0.82 -2.4,3.42 0,0 -2.15,-3.93 0,0 -4.64,0 -4.64,-2.86 -7.51,0 -4.28,-3.93 -11.79,-0.71 -0.72,-5 -6.07,-5.36 -5,0.35 -2.5,-2.5 -4.65,0 -3.21,2.5 -3.94,-2.5 1.08,-2.14 2.14,-1.43 -3.57,-2.14 -3.58,-7.86 -3.21,-1.79 -3.57,6.43 -4.65,-0.71 -1.43,-4.65 -4.64,-3.21 z"
     />
  <path
     id="RS-12" 
     name="Šumadijski okrug"
     d="m 254.69269,342.54258 6.31,0.54 0,0 1.21,0.73 -1.21,5.08 5.09,0.49 6.29,2.66 5.33,0 4.36,-1.69 1.7,4.6 5.57,3.15 3.63,4.11 1.94,-1.69 3.63,0.73 -0.49,3.87 2.49,0.31 0,0 -1.32,3.7 0,0 2.5,5.36 4.29,2.5 -1.79,4.29 -6.43,4.28 -1.79,3.93 2.5,3.93 0.36,5 -5,1.08 -4.65,2.86 3.58,2.5 1.07,3.93 -1.79,2.14 -0.36,2.5 -3.21,1.07 -2.86,2.86 1.07,4.65 3.93,1.07 -15,9.29 -1.74,0.29 0,0 -0.41,-2.44 0,0 -3.57,-2.14 -6.07,-0.72 -3.58,1.08 -3.57,1.43 -0.71,3.21 2.5,1.79 -3.93,2.86 -6.08,0.35 -7.86,-12.14 0,0 -2.23,-1 0,0 0.38,-2.28 -3.87,-2.66 -3.39,-5.09 -3.15,-2.91 -2.91,-6.53 9.45,-8 3.63,-0.48 0.73,-2.18 -3.39,-4.84 -9.45,-7.51 -0.24,-4.36 -2.42,-5.09 -2.42,-2.66 -3.39,-0.24 -4.36,-5.81 -0.25,-6.3 -2.42,-2.91 0,0 -0.07,0.12 0,0 -1.14,-1.33 -0.24,-8.23 -2.91,-0.24 0,0 0.49,-4.6 0,0 5.57,-7.03 -1.46,-3.15 -2.17,-1.21 -1.22,-2.66 1.7,-1.94 0.73,-3.39 3.39,0.97 1.45,1.7 7.99,1.45 1.94,8.48 4.84,-1.22 1.21,-1.69 2.42,-0.73 2.67,1.21 0.24,3.64 2.18,2.9 4.12,0.49 1.93,-1.7 3.64,0.24 0.97,2.91 3.39,0.73 z"
     />
  <path
     id="RS-13" 
     name="Pomoravski okrug"
     d="m 347.84269,441.74258 -0.39,-1.08 0,0 -4.29,4.64 -2.86,1.43 -3.21,0 -0.36,-2.5 -3.21,-0.36 -2.15,-1.79 4.29,-2.14 -2.86,-1.07 -0.71,-2.5 -3.58,-0.36 -1.43,2.86 -6.78,0.36 -1.08,-7.51 2.51,-1.43 -1.08,-4.64 -3.21,2.86 -0.72,10.36 -2.86,1.07 -3.57,3.57 -3.57,0 -2.86,-1.07 -0.36,2.86 1.79,3.57 -3.93,1.43 -3.93,-1.43 -3.93,0 -7.5,-2.86 -2.86,1.79 0,0 -3.6,-3.3 0,0 -4.97,-7.85 0,0 -0.67,-3.99 0,0 1.74,-0.29 15,-9.29 -3.93,-1.07 -1.07,-4.65 2.86,-2.86 3.21,-1.07 0.36,-2.5 1.79,-2.14 -1.07,-3.93 -3.58,-2.5 4.65,-2.86 5,-1.08 -0.36,-5 -2.5,-3.93 1.79,-3.93 6.43,-4.28 1.79,-4.29 -4.29,-2.5 -2.5,-5.36 0,0 1.78,-5 0,0 1.43,-4.65 2.5,-3.21 -6.43,-8.93 1.07,-2.15 0,0 8.58,-0.71 4.64,3.21 1.43,4.65 4.65,0.71 3.57,-6.43 3.21,1.79 3.58,7.86 3.57,2.14 -2.14,1.43 -1.08,2.14 3.94,2.5 3.21,-2.5 4.65,0 2.5,2.5 5,-0.35 6.07,5.36 0.72,5 11.79,0.71 4.28,3.93 7.51,0 4.64,2.86 4.64,0 0,0 2.15,3.93 0,0 -2.5,2.14 -2.15,8.22 0,0 -2.14,6.43 0,0 -3.93,6.79 -2.14,6.79 -5,0.36 -0.36,1.78 2.14,8.22 -4.64,5 0,0 -2.15,1.79 0,0 -12.14,0.71 z"
     />
  <path
     id="RS-14" 
     name="Borski okrug"
     d="m 390.68269,385.92258 2.4,-3.42 5.52,0.82 2.21,-3.03 6.08,0.27 2.21,-1.93 1.1,-3.59 -1.38,-4.42 3.04,-5.8 -2.76,-3.31 0.27,-3.31 -1.1,-3.87 -2.21,1.1 -1.66,3.32 -3.04,-1.93 -0.83,-11.88 -4.14,-3.04 -7.73,-1.38 1.93,-1.93 -1.38,-3.86 -1.93,-2.21 4.7,-5.25 0.55,-3.04 4.69,0 1.38,-3.86 4.14,-0.28 2.21,-2.48 -0.27,-5.25 1.38,-3.04 -0.28,-7.18 3.32,-0.27 0.27,-1.94 2.21,-1.93 0.83,-4.69 2.01,-1.13 0,0 2.23,2.37 1.38,8.97 4.19,2.83 1.42,5.57 7.43,4.54 5.44,-0.65 7.69,-16.66 3.02,-4.31 1.87,-6.16 3.11,-2.5 1.15,-3.93 4.09,-3.05 6.58,-0.66 3.38,-4.32 6.77,-2.17 14.07,15.18 6.04,3.39 6.57,-0.49 1.46,1.84 3,0.91 5.7,6.73 1.12,4.73 -8.34,4.33 -8.99,-5.98 -5.51,-0.09 -2.64,2.81 -0.9,7.56 -1.24,2.03 -3.83,1.79 -6.39,-1.29 -1.58,1.45 0.92,4.62 4.57,4.5 0.37,5.99 2.62,7.56 4.64,6.75 3.4,1.48 9.76,1.81 3.23,3.57 0.04,3.27 -1.69,3.93 -0.27,3.66 -0.66,-1.4 -1.53,1.76 -1.19,-0.7 0.18,1.73 -1.27,1.6 0.49,0.8 -1.61,0.3 1.01,1.55 -1.18,0.72 -0.77,-0.52 -0.86,1.59 1.92,1.38 -0.01,2.08 -1.11,-0.38 -1.2,7.43 1.26,1.84 -0.63,3.38 1.09,0.97 -0.35,1.66 -4.78,0.2 -0.57,1.51 -2.35,-0.56 -3.46,0.93 -0.13,0.89 0,0 -1.98,0 -0.55,-1.66 -4.42,2.76 -2.76,-1.38 -0.27,-6.9 3.03,-0.83 1.93,-2.48 -3.86,-4.14 -3.04,0 -3.86,-6.08 -8.29,1.11 -6.35,-1.39 -4.14,-1.65 -2.76,-3.87 -1.66,6.08 -3.31,2.21 3.03,3.86 0,3.32 1.94,2.76 -0.28,5.52 1.66,3.59 -6.9,7.45 -2.49,5.25 -0.83,6.9 -3.31,1.11 -1.38,2.48 -4.14,2.21 0,-2.76 -3.32,-0.83 -4.69,-10.77 -3.04,0.56 -1.93,2.76 -4.42,-1.11 -4.97,-3.03 -3.59,-6.63 -5.25,0 -1.93,1.65 -3.59,-1.37 -2.48,1.93 -3.02,-1.21 0,0 0.66,-1.99 0,0 2.15,-8.22 2.5,-2.14 0,0 z"
     />
  <path
     id="RS-15" 
     name="Zaječarski okrug"
     d="m 482.59269,392.85258 1.23,2.39 -1.89,2.46 -11.03,0.61 -0.57,1.2 -3.91,1.12 0.7,2.12 -0.94,1.74 -0.04,7.75 -2.51,2.35 0.74,3.16 -1.04,7.01 -3.68,10.68 3.19,7.04 2.44,2.14 -0.83,5.21 1.08,1.61 0.64,4.2 2.15,3.27 3.47,2.8 3.55,1.2 1.65,3.04 -1.51,3.1 1.83,3.77 -0.62,6.69 6.07,16.55 2.18,1.36 3.21,0.05 2.91,4.75 7.85,1.58 1.44,4.75 0,0 -2.07,0.41 -2.76,2.21 -7.45,8.56 -5.8,-0.83 -3.04,-3.31 -0.27,-3.59 -2.77,1.1 -0.82,1.66 -4.42,1.66 -3.59,-3.04 -2.76,-0.28 -4.7,-2.48 -3.03,0 0,0 0,0.74 0,0 0.27,-6.26 1.11,-2.49 -2.76,-6.07 -2.77,-1.94 -1.38,2.49 -3.59,1.1 -6.62,-6.35 -2.49,1.94 -7.18,0.55 -1.38,-3.59 -3.04,-0.28 -2.21,-2.21 -5.52,-0.55 0.55,-1.93 -1.93,-3.32 0.28,-1.93 -4.97,-5.24 -3.59,-1.66 -2.76,0.83 0.82,3.03 4.42,4.42 0,3.04 -3.03,0.28 -1.39,-2.21 -2.2,0 -0.83,1.93 -2.49,0 -0.83,-3.31 -1.93,-1.38 -4.42,-8.01 -2.76,1.93 -7.18,-2.21 -2.76,-1.93 -0.83,-3.59 -2.76,-2.49 -4.42,-7.18 -0.27,-4.14 1.65,-3.59 -0.55,-2.48 -2.21,-2.49 2.21,-3.86 -4.14,-5.53 -1.05,-3.01 0,0 0.02,-0.02 0,0 4.64,-5 -2.14,-8.22 0.36,-1.78 5,-0.36 2.14,-6.79 3.93,-6.79 0,0 1.48,-4.44 0,0 3.02,1.21 2.48,-1.93 3.59,1.37 1.93,-1.65 5.25,0 3.59,6.63 4.97,3.03 4.42,1.11 1.93,-2.76 3.04,-0.56 4.69,10.77 3.32,0.83 0,2.76 4.14,-2.21 1.38,-2.48 3.31,-1.11 0.83,-6.9 2.49,-5.25 6.9,-7.45 -1.66,-3.59 0.28,-5.52 -1.94,-2.76 0,-3.32 -3.03,-3.86 3.31,-2.21 1.66,-6.08 2.76,3.87 4.14,1.65 6.35,1.39 8.29,-1.11 3.86,6.08 3.04,0 3.86,4.14 -1.93,2.48 -3.03,0.83 0.27,6.9 2.76,1.38 4.42,-2.76 0.55,1.66 z"
     />
  <path
     id="RS-16" 
     name="Zlatiborski okrug"
     d="m 165.51269,382.76258 -0.6,0.18 0,0 0.24,3.64 -1.21,3.39 2.67,5.08 -3.39,6.78 6.53,7.99 -1.69,3.64 0,5.32 1.69,5.57 0,4.85 3.64,2.18 -1.7,7.26 3.15,7.27 4.6,6.54 0,4.35 1.94,4.12 -2.91,2.42 -4.11,-1.93 -3.88,2.18 -0.48,3.39 -3.15,1.69 -3.88,0.24 -3.39,2.91 -4.6,7.02 -4.12,0.24 -0.48,-2.18 -1.69,0.73 -2.67,4.6 0.73,3.88 4.36,0.97 7.26,7.75 4.36,7.5 0.73,4.36 3.87,3.39 0.97,3.63 2.42,3.15 -0.97,5.09 4.36,2.66 4.12,0.73 3.15,-2.18 7.75,-1.94 3.15,0.24 2.66,1.7 -0.58,2.45 0,0 -3.4,0 0,0 -1.78,4.29 1.78,5.36 -3.93,0.72 -2.14,2.85 3.93,3.22 1.43,2.86 2.86,0.35 1.07,4.65 -15.01,3.57 -1.78,6.43 -5.01,0.36 -2.5,3.57 -1.78,4.65 -3.58,5 -0.4,3.12 0,0 -12.35,-13.61 -2.48,-5.52 -4.45,2.9 -6.87,-0.2 -2.25,-1.63 -1.77,1.23 -1.49,-2.02 -4.68,-0.64 -2.27,-8.41 -1.43,-2.02 -1.48,0.16 -1.45,3.31 -1.99,-1.4 -6.21,-1.7 -4.48,-2.82 -3.98,-7.23 -8.899996,-5.56 -2.87,-8.78 -6.2,-2.42 -1.82,-2.52 -1.21,-5.03 -3.73,-1.12 -5.72,-5.05 -5.9,-2.35 -4.59,-3.06 -9.02,-10.08 -0.49,-6.32 2.54,0.53 0.82,-1.09 0.45,-10.73 2.34,-0.95 7.79,1.66 4.8,-2.23 1.27,0.66 0.56,1.85 1.28,0.02 1.84,4.07 1.71,0.25 3.8,-2.69 6.11,0.17 0.92,-1.1 -1.15,-1.73 -0.83,0.07 1.06,-3.32 -1.48,-3 1.43,-1.11 1.61,1.91 1.76,-1.44 -2.51,-15.6 -5.74,-4.85 -1.07,-3.74 -2.32,-1.93 -4.54,-1.66 -1.49,-9.01 -2.08,-1.78 -2.45,-4.76 -3.46,-2.01 -0.51,-4.38 -3.4,-1.51 -0.45,-2.78 -4.87,-3.91 -2.61,-4.78 -0.46,-5.04 1.63,-0.44 2.91,3.2 5.26,0.49 3.76,2.66 1.85,-0.17 1.52,2.16 3.17,1.78 1.94,-1.17 3.29,1.54 12.66,0.31 1.86,-3.2 3.38,-1.95 -0.26,-2.57 7.299996,-3.04 -0.79,-3.4 1.2,-2.64 -0.65,-0.79 -1.86,0.43 -0.46,-3.15 -1.71,-0.37 -0.799996,3.74 -0.92,0.5 -2.75,-4.3 -4.85,-1.56 -1.51,-1.76 12.069996,-8.43 2.42,0.72 1.69,1.94 0.97,-3.15 -0.24,-3.87 2.66,-0.49 0,0 14.29,8.48 2.91,4.12 0.97,3.63 4.11,0 1.21,-2.18 -1.21,-3.63 -2.9,-2.42 -1.21,-2.67 3.39,0 2.66,2.42 2.18,-2.66 3.88,-1.94 3.87,0.97 2.66,5.09 3.39,2.42 3.64,-2.42 3.87,-0.49 7.51,0.73 z"
     />
  <path
     id="RS-17" 
     name="Moravički okrug"
     d="m 238.39269,424.94258 -0.98,-0.43 0,0 -5.72,1.78 -3.57,4.29 0.36,6.07 -6.79,3.22 -2.86,4.64 -2.5,2.15 -5.72,0.35 0.72,3.22 2.86,4.29 0.71,5 -2.5,2.5 -4.29,-1.79 -3.21,1.79 -1.43,3.57 3.57,3.58 -2.86,7.5 -7.14,6.43 3.21,3.93 5.36,1.07 2.14,4.65 4.29,3.21 -2.86,10.72 2.86,2.5 -0.36,9.29 -4.64,1.79 -4.29,5.71 -0.71,4.29 -3.57,-1.43 -3.93,-3.22 0,0 -0.18,0 0,0 0.58,-2.45 -2.66,-1.7 -3.15,-0.24 -7.75,1.94 -3.15,2.18 -4.12,-0.73 -4.36,-2.66 0.97,-5.09 -2.42,-3.15 -0.97,-3.63 -3.87,-3.39 -0.73,-4.36 -4.36,-7.5 -7.26,-7.75 -4.36,-0.97 -0.73,-3.88 2.67,-4.6 1.69,-0.73 0.48,2.18 4.12,-0.24 4.6,-7.02 3.39,-2.91 3.88,-0.24 3.15,-1.69 0.48,-3.39 3.88,-2.18 4.11,1.93 2.91,-2.42 -1.94,-4.12 0,-4.35 -4.6,-6.54 -3.15,-7.27 1.7,-7.26 -3.64,-2.18 0,-4.85 -1.69,-5.57 0,-5.32 1.69,-3.64 -6.53,-7.99 3.39,-6.78 -2.67,-5.08 1.21,-3.39 -0.24,-3.64 0,0 2.42,-0.72 0,0 6.06,-0.73 5.08,-4.6 5.81,0.48 3.64,-1.69 4.36,0 1.45,-3.63 3.87,-0.97 2.67,-4.85 3.15,-0.96 5.32,-6.54 0,0 2.18,-3.64 0,0 2.42,2.91 0.25,6.3 4.36,5.81 3.39,0.24 2.42,2.66 2.42,5.09 0.24,4.36 9.45,7.51 3.39,4.84 -0.73,2.18 -3.63,0.48 -9.45,8 2.91,6.53 3.15,2.91 3.39,5.09 3.87,2.66 z"
     />
  <path
     id="RS-18" 
     name="Raški okrug"
     d="m 279.54269,444.50258 -0.69,-0.63 0,0 -4.28,6.79 -0.36,5.36 -2.5,3.57 -0.36,2.86 6.79,5 -0.72,3.22 -3.93,0 0,2.85 1.79,3.22 0.36,4.64 1.78,4.29 -3.93,2.5 -4.28,-1.07 -2.86,-2.14 -2.86,-0.36 -2.86,2.14 -3.93,-1.78 -1.79,2.85 4.65,3.94 -2.86,10 0.36,5.36 5.72,0.71 4.28,4.29 -0.71,6.43 -5.36,5 2.86,2.5 -2.67,5.54 0,0 -0.2,0 0,0 -2.66,0.64 -3.93,3.48 -3.17,0.92 -7.64,4.77 -8.3,2.55 0.61,2.73 5.55,5.67 -0.86,4.73 0.6,2.55 0.98,1.18 2.35,-0.42 -0.06,4.39 2.05,6.63 0.14,3.82 -0.49,1.38 -7.51,1.09 0.05,2.35 -3.74,-1.87 -5,1.8 -9.78,6.85 -1.48,3.11 0.24,2.06 4.99,7.48 -0.09,1.08 0,0 -0.75,1.69 0,0 -1.52,2.54 -2.08,1.22 -19.01,2.99 0,0 2.16,-2.85 0.19,-8.85 -1.22,-2.51 -6.02,-3.21 -0.48,-2.43 -5.91,-1.12 -3.15,-2.49 -9.87,-4.45 -4.32,1.58 -4.64,-4.46 -3.09,-1.59 0,0 0.4,-3.12 3.58,-5 1.78,-4.65 2.5,-3.57 5.01,-0.36 1.78,-6.43 15.01,-3.57 -1.07,-4.65 -2.86,-0.35 -1.43,-2.86 -3.93,-3.22 2.14,-2.85 3.93,-0.72 -1.78,-5.36 1.78,-4.29 0,0 3.58,0 0,0 3.93,3.22 3.57,1.43 0.71,-4.29 4.29,-5.71 4.64,-1.79 0.36,-9.29 -2.86,-2.5 2.86,-10.72 -4.29,-3.21 -2.14,-4.65 -5.36,-1.07 -3.21,-3.93 7.14,-6.43 2.86,-7.5 -3.57,-3.58 1.43,-3.57 3.21,-1.79 4.29,1.79 2.5,-2.5 -0.71,-5 -2.86,-4.29 -0.72,-3.22 5.72,-0.35 2.5,-2.15 2.86,-4.64 6.79,-3.22 -0.36,-6.07 3.57,-4.29 5.72,-1.78 0,0 3.21,1.43 0,0 7.86,12.14 6.08,-0.35 3.93,-2.86 -2.5,-1.79 0.71,-3.21 3.57,-1.43 3.58,-1.08 6.07,0.72 3.57,2.14 0,0 1.08,6.43 0,0 z"
     />
  <path
     id="RS-19" 
     name="Rasinski okrug"
     d="m 347.45269,510.75258 -0.36,-0.78 0,0 -8.22,-2.86 -3.57,1.78 -3.93,-3.21 -3.21,0.36 -0.72,2.14 -2.86,0 -4.28,2.5 -6.44,0.36 -1.78,2.5 0.36,5.71 -1.79,2.86 -3.93,0.36 -0.71,6.07 -2.15,4.29 -5,3.22 -2.86,-1.43 -3.57,-3.57 -4.65,2.5 -2.5,-2.86 -2.14,1.43 -1.07,4.64 -1.79,0.72 0,8.93 -2.14,2.86 -1.07,3.57 0.27,5.2 0,0 -0.2,-0.09 0,0 -3.49,-2.1 -3.46,-0.78 -3.24,-3.24 -0.9,-4.17 1.34,-1.2 2.23,-0.27 4.59,1.58 0.28,-2.16 -6.88,-11.78 -3.43,-2.16 -2.55,-0.09 0,0 -0.45,0 0,0 2.67,-5.54 -2.86,-2.5 5.36,-5 0.71,-6.43 -4.28,-4.29 -5.72,-0.71 -0.36,-5.36 2.86,-10 -4.65,-3.94 1.79,-2.85 3.93,1.78 2.86,-2.14 2.86,0.36 2.86,2.14 4.28,1.07 3.93,-2.5 -1.78,-4.29 -0.36,-4.64 -1.79,-3.22 0,-2.85 3.93,0 0.72,-3.22 -6.79,-5 0.36,-2.86 2.5,-3.57 0.36,-5.36 4.28,-6.79 0,0 4.29,3.93 0,0 2.86,-1.79 7.5,2.86 3.93,0 3.93,1.43 3.93,-1.43 -1.79,-3.57 0.36,-2.86 2.86,1.07 3.57,0 3.57,-3.57 2.86,-1.07 0.72,-10.36 3.21,-2.86 1.08,4.64 -2.51,1.43 1.08,7.51 6.78,-0.36 1.43,-2.86 3.58,0.36 0.71,2.5 2.86,1.07 -4.29,2.14 2.15,1.79 3.21,0.36 0.36,2.5 3.21,0 2.86,-1.43 4.29,-4.64 0,0 1.43,3.93 0,0 0,3.57 2.86,1.78 -1.08,2.86 -3.57,2.5 -1.43,4.29 3.93,7.5 3.93,1.43 1.43,11.08 3.57,2.14 -0.35,5.36 -3.22,4.65 1.43,5.35 2.86,3.22 -2.86,3.57 -3.57,0.36 -2.15,3.57 z"
     />
  <path
     id="RS-20" 
     name="Nišavski okrug"
     d="m 456.87269,511.36258 0,3.13 0,0 -1.66,4.69 -7.46,1.93 -1.65,0 -2.49,-2.21 -3.86,-1.65 -2.77,0 -3.86,-2.21 -0.83,1.1 -0.83,3.04 1.38,3.87 -0.27,1.65 3.31,2.76 0,3.32 -4.69,3.03 -2.49,6.63 0.83,2.49 6.63,3.03 6.35,5.25 7.18,0.83 1.38,2.76 -1.11,5.25 -2.76,0.27 -3.31,1.77 0,0 0,-0.3 0,0 -1.94,1.1 -1.93,3.87 -2.21,0.27 -1.1,-2.21 -4.97,0.56 -0.28,-3.87 -3.04,-1.1 -9.11,-9.39 -4.42,-1.38 -4.41,-0.28 -7.46,4.97 -0.28,-3.86 -2.21,-1.94 -4.96,2.21 -6.16,0.99 0,0 -0.52,-1.39 0,0 -2.86,-8.58 -1.07,-7.14 -3.57,-2.5 -5,-0.36 -1.79,7.5 -1.78,-2.14 -5.36,-1.79 -1.79,-3.21 1.79,-2.15 0,-3.21 -4.29,-0.72 -3.22,-2.5 -1.07,-3.21 2.5,-3.22 0.72,-3.93 -6.79,1.07 -6.43,-0.35 0,0 -1.43,-3.15 0,0 3.21,-2.93 2.15,-3.57 3.57,-0.36 2.86,-3.57 -2.86,-3.22 -1.43,-5.35 3.22,-4.65 0.35,-5.36 -3.57,-2.14 -1.43,-11.08 -3.93,-1.43 -3.93,-7.5 1.43,-4.29 3.57,-2.5 1.08,-2.86 -2.86,-1.78 0,-3.57 0,0 -1.04,-2.85 0,0 7.83,-7.59 12.14,-0.71 0,0 2.13,-1.77 0,0 1.05,3.01 4.14,5.53 -2.21,3.86 2.21,2.49 0.55,2.48 -1.65,3.59 0.27,4.14 4.42,7.18 2.76,2.49 0.83,3.59 2.76,1.93 7.18,2.21 2.76,-1.93 4.42,8.01 1.93,1.38 0.83,3.31 2.49,0 0.83,-1.93 2.2,0 1.39,2.21 3.03,-0.28 0,-3.04 -4.42,-4.42 -0.82,-3.03 2.76,-0.83 3.59,1.66 4.97,5.24 -0.28,1.93 1.93,3.32 -0.55,1.93 5.52,0.55 2.21,2.21 3.04,0.28 1.38,3.59 7.18,-0.55 2.49,-1.94 6.62,6.35 3.59,-1.1 1.38,-2.49 2.77,1.94 2.76,6.07 -1.11,2.49 z"
     />
  <path
     id="RS-21" 
     name="Toplički okrug"
     d="m 336.40269,604.49258 -0.31,-0.43 0,0 -3.92,0.97 -2.28,-4.51 -3.4,-3.37 -6.13,-1.54 -5.81,0.55 -0.52,-1.43 2.84,-8.61 -1.89,-5.64 -1.79,-1.34 -2.67,0.67 -3.36,4.72 -0.26,-16.31 -1.56,-5.88 -1.93,0.13 -2.31,2.08 -1.9,-5.55 -3.06,-3.12 -6.6,3.01 -4.62,-2.09 -2.09,1.38 0,0 -0.75,0.27 0,0 -2.09,0.71 -2.02,-0.85 0,0 -0.63,-0.27 0,0 -0.27,-5.2 1.07,-3.57 2.14,-2.86 0,-8.93 1.79,-0.72 1.07,-4.64 2.14,-1.43 2.5,2.86 4.65,-2.5 3.57,3.57 2.86,1.43 5,-3.22 2.15,-4.29 0.71,-6.07 3.93,-0.36 1.79,-2.86 -0.36,-5.71 1.78,-2.5 6.44,-0.36 4.28,-2.5 2.86,0 0.72,-2.14 3.21,-0.36 3.93,3.21 3.57,-1.78 8.22,2.86 0,0 1.79,3.93 0,0 6.43,0.35 6.79,-1.07 -0.72,3.93 -2.5,3.22 1.07,3.21 3.22,2.5 4.29,0.72 0,3.21 -1.79,2.15 1.79,3.21 5.36,1.79 1.78,2.14 1.79,-7.5 5,0.36 3.57,2.5 1.07,7.14 2.86,8.58 0,0 1.07,2.86 0,0 -4.28,5.71 -6.43,2.86 -2.86,0.36 -5.72,5.36 -4.64,0.35 -2.15,2.86 -6.43,3.22 -6.07,0 -1.79,2.86 -7.14,4.64 2.5,4.65 0,3.92 -1.79,0.72 -0.36,3.57 1.43,2.86 -2.5,4.29 z"
     />
  <path
     id="RS-22" 
     name="Pirotski okrug"
     d="m 443.89269,562.09258 3.31,-1.77 2.76,-0.27 1.11,-5.25 -1.38,-2.76 -7.18,-0.83 -6.35,-5.25 -6.63,-3.03 -0.83,-2.49 2.49,-6.63 4.69,-3.03 0,-3.32 -3.31,-2.76 0.27,-1.65 -1.38,-3.87 0.83,-3.04 0.83,-1.1 3.86,2.21 2.77,0 3.86,1.65 2.49,2.21 1.65,0 7.46,-1.93 1.66,-4.69 0,0 0,-3.87 0,0 3.03,0 4.7,2.48 2.76,0.28 3.59,3.04 4.42,-1.66 0.82,-1.66 2.77,-1.1 0.27,3.59 3.04,3.31 5.8,0.83 7.45,-8.56 2.76,-2.21 2.07,-0.41 0,0 1.3,1.12 5.55,-0.24 5.65,3.27 0.48,2.38 3.25,3.66 4.03,2.33 2.35,5.84 -0.24,2.49 3.26,2.89 0.17,1.7 3.54,5.52 5.59,4.11 2.71,-0.71 5.81,2.77 -2.61,4.48 1.4,1.47 -0.27,3.93 -1.86,4.78 -7.96,5.13 -2.9,7.93 -4.24,2.22 -2.08,3.33 -8.27,3.79 -0.12,4.1 -1.7,1.96 1.21,2.98 -4.44,7.84 -4.06,-0.07 -1.05,1.28 -1.12,-0.79 -2.31,2.96 -0.63,-1.6 -2.2,-1.13 -2.23,0.81 -2.84,-3.14 -4.46,0.69 -1.32,2.57 0.04,2.29 -4.86,-2.9 -2.23,1.31 0,0 -10.85,-2.28 -7.45,-8.56 3.31,-3.87 -11.04,-6.35 -4.97,-1.93 -3.32,0 -0.83,-1.94 -3.59,-1.1 -1.93,-3.04 2.21,-2.48 3.87,-0.28 0.27,-1.93 1.94,-1.11 -1.39,-2.48 -3.03,-0.28 0,0 z"
     />
  <path
     id="RS-23" 
     name="Jablanički okrug"
     d="m 480.69269,601.90258 -0.4,2.67 -1.22,1.39 -4.06,3.26 -3.65,1.13 0,0 -3.45,-0.1 -2.59,2.15 -2.16,0 -1.72,3.89 -3.02,2.15 -4.32,0.87 -0.86,2.59 -1.9,1.19 -3.86,0 -5.25,-1.66 0,-5.8 -1.66,0 -0.82,1.38 -2.77,-4.42 -7.45,3.59 -1.11,-2.48 0.28,-3.87 -5.8,-0.55 -3.86,3.04 -3.32,-2.76 -2.48,0 -2.49,5.52 -6.07,0.83 -3.04,-2.21 -3.04,0.27 -2.21,1.66 -4.14,0 -1.93,3.04 0,2.21 -2.49,3.04 -1.1,7.17 -3.59,1.11 -0.1,1.82 0,0 -0.12,-0.07 0,0 -2.62,0.14 -4.94,5.78 -2.66,1.09 -3.18,-2.72 -4.98,-8.76 -4.24,-2.74 -5.06,-1.21 -6.47,0.12 0,0 -0.13,-0.05 0,0 -5.68,-2.98 -9.44,-0.7 -0.48,-4.7 3.11,-5.55 0.89,-6.27 0,0 -0.64,-0.91 0,0 5.33,-3.06 2.5,-4.29 -1.43,-2.86 0.36,-3.57 1.79,-0.72 0,-3.92 -2.5,-4.65 7.14,-4.64 1.79,-2.86 6.07,0 6.43,-3.22 2.15,-2.86 4.64,-0.35 5.72,-5.36 2.86,-0.36 6.43,-2.86 4.28,-5.71 0,0 -0.55,-1.47 0,0 6.16,-0.99 4.96,-2.21 2.21,1.94 0.28,3.86 7.46,-4.97 4.41,0.28 4.42,1.38 9.11,9.39 3.04,1.1 0.28,3.87 4.97,-0.56 1.1,2.21 2.21,-0.27 1.93,-3.87 1.94,-1.1 0,0 0,2.48 0,0 3.03,0.28 1.39,2.48 -1.94,1.11 -0.27,1.93 -3.87,0.28 -2.21,2.48 1.93,3.04 3.59,1.1 0.83,1.94 3.32,0 4.97,1.93 11.04,6.35 -3.31,3.87 7.45,8.56 z"
     />
  <path
     id="RS-24" 
     name="Pčinjski okrug"
     d="m 471.36269,610.35258 -0.82,0.55 0.27,2.97 1.86,2.4 0.53,2.52 5.11,6.49 -0.39,3.17 -1.17,0.19 -2.32,4.99 -1.45,0.83 2.19,2.46 -2.83,4.81 1.4,1.37 -3.39,8.98 -0.24,3.63 4.11,1.05 3.58,4.42 3.09,1.61 3.19,3.26 1.62,4.03 -1.95,3.89 -1.15,6.99 -1.57,1.59 -0.35,2.66 -5.33,0.89 0.23,2.42 -2.69,3.28 0.37,2.78 -1.22,2.03 -2.51,1.75 -1.06,-1.36 -2.55,-0.02 -0.81,1 -4.26,0.64 -0.62,1.52 -2,0.84 -10.46,-8.51 -3.07,3.04 -4.91,1.92 0.13,2.35 1.38,2.13 -0.46,1.25 -1.4,-1.31 -3.11,0.11 -2.46,-1.75 -5.51,3.27 -9.39,-2.55 -1.92,0.78 -3.72,-2.84 -8.26,-3.78 -1.08,1.31 -1.04,5.19 -2.85,0.75 -5.14,-2.06 -5.29,0.82 -7.75,8.04 -12.63,2.91 -7.71,-2.34 0,0 0.13,-7.65 -2.52,-1.22 -1.4,-3.04 0.23,-3.32 2.02,-3.74 3.87,-2.8 1.38,-6.6 -1.05,-2.36 0.94,-2.75 3.71,-3.41 6.67,-3.38 2.52,-2.98 2.59,-11.51 3.41,-5.91 5.15,-2.95 -1.84,-3.04 -0.56,-5.94 -2.9,-2.56 0,0 -0.89,-0.53 0,0 0.1,-1.82 3.59,-1.11 1.1,-7.17 2.49,-3.04 0,-2.21 1.93,-3.04 4.14,0 2.21,-1.66 3.04,-0.27 3.04,2.21 6.07,-0.83 2.49,-5.52 2.48,0 3.32,2.76 3.86,-3.04 5.8,0.55 -0.28,3.87 1.11,2.48 7.45,-3.59 2.77,4.42 0.82,-1.38 1.66,0 0,5.8 5.25,1.66 3.86,0 1.9,-1.19 0.86,-2.59 4.32,-0.87 3.02,-2.15 1.72,-3.89 2.16,0 2.59,-2.15 z"
     />
  <path
     id="RS-25" 
     name="Kosovski okrug"
     d="m 253.86269,648.63258 1.05,-2.36 0.72,-7.15 6.07,-2.14 0.72,-3.93 5,-1.79 2.86,3.22 2.86,-3.93 3.57,-1.08 2.86,2.5 0.71,3.22 4.64,-1.07 7.15,-5.36 2.86,-6.79 -1.79,-4.64 2.5,-2.86 5.01,-1.43 -1.43,-5 -5,-2.5 -1.08,-14.29 1.43,-4.65 0.36,-6.43 -6.79,-6.07 -2.5,-5.01 0,-6.43 -3.12,-4.37 0,0 0.31,-0.11 0,0 2.09,-1.38 4.62,2.09 6.6,-3.01 3.06,3.12 1.9,5.55 2.31,-2.08 1.93,-0.13 1.56,5.88 0.26,16.31 3.36,-4.72 2.67,-0.67 1.79,1.34 1.89,5.64 -2.84,8.61 0.52,1.43 5.81,-0.55 6.13,1.54 3.4,3.37 2.28,4.51 3.92,-0.97 0,0 0.95,1.34 0,0 -0.89,6.27 -3.11,5.55 0.48,4.7 9.44,0.7 5.68,2.98 0,0 0.08,0.03 0,0 -2.7,7.06 -5.36,-1.79 -3.57,1.07 6.43,6.08 0.36,6.07 -4.65,0 -6.07,1.79 -0.72,3.21 -3.21,4.29 -3.58,1.43 -5.35,6.43 5.35,4.65 -1.78,4.28 -2.86,1.08 -0.36,5 3.22,3.21 1.07,2.86 -2.5,1.43 1.79,6.79 -5.72,2.5 -1.43,1.79 2.86,0.71 0,3.57 -1.43,4.65 2.86,2.14 0,2.5 1.43,1.43 10,1.79 1.21,1.82 0,0 -5.38,5.16 -2.9,5.21 -3.16,9.9 -2.35,2.77 -2.58,0.56 -5.41,-0.84 -2.54,-6.2 -3.46,-3.5 -1.38,-5.72 -2.36,-2.04 -4.06,-0.28 -4.95,3.49 -1.97,2.93 -8.54,5.39 0,0 -0.9,-5.43 -5.72,-3.58 -5,0.36 -3.22,-2.14 0.36,-2.86 7.15,-6.43 3.93,-1.43 2.85,-3.57 0.36,-5.36 -2.5,-8.94 -4.64,-2.14 3.93,-3.57 1.07,-3.93 -3.57,-4.65 -2.86,-1.42 -1.07,-4.65 -10.72,-5.72 0,0 -3.22,0 0,0 -0.71,-4.64 1.43,-2.14 -2.15,-3.93 1.43,-2.86 -3.21,-1.79 0,0 z"
     />
  <path
     id="RS-26" 
     name="Pećki okrug"
     d="m 259.20269,664.84258 -2.14,0 0,0 -3.57,2.15 -5.36,0.35 -3.93,-6.43 -2.15,-0.71 -4.28,3.57 -9.65,-0.71 -6.43,5.71 1.43,12.15 -0.72,9.65 4.29,3.93 7.5,3.21 -3.93,1.08 -4.28,5 -4.65,3.57 -2.39,7.43 0,0 -0.49,-1.95 -4.98,-5.31 -7.03,-2.44 -1.29,-2.24 -5.29,-1.9 0.13,-1.23 -2.19,-2.02 -1.53,0.05 -2.46,2.11 -2.12,-1.52 -4.26,0.93 -1.75,-1.05 0.22,-1.85 -1.3,-2.24 0.99,-0.8 0.16,-2.89 -0.7,-1.84 -4.04,-3.63 2.35,-2.93 -0.91,-3.09 -3.53,-3.09 0.64,-1.87 -1.92,-2.03 -2.14,-5.59 -8.43,-4.58 -1.7,-3.17 -1.82,-0.77 1.97,-5.7 -0.66,-5.66 7.25,-7.97 -4.42,-5.57 -5.6,-3.29 -1.99,-5.49 2.45,-5.4 12.82,3.83 10.95,0.83 1.37,-0.63 4.44,-5.86 -1.05,-3.26 0.78,-1.39 5.11,-3.82 3.5,0.52 0,0 19.01,-2.99 2.08,-1.22 1.52,-2.54 0,0 0.51,-1.16 0,0 2.39,0.53 3.57,-3.22 5.36,2.15 5,8.93 -0.36,7.86 -2.86,2.5 2.15,1.43 0,6.43 -3.22,0.71 0.72,3.22 2.14,1.43 1.07,4.64 2.86,0.36 2.14,-2.5 1.43,0.36 2.5,8.57 1.79,0.71 2.14,2.86 0,0 3.58,1.43 0,0 3.21,1.79 -1.43,2.86 2.15,3.93 -1.43,2.14 z"
     />
  <path
     id="RS-27" 
     name="Prizrenski okrug"
     d="m 282.97269,730.30258 -6.52,2.07 -5.33,5.74 -4.59,0.04 -2.83,1.67 -5.91,1.53 -5.34,8.81 0.41,8.13 1.71,4 -0.44,3.59 1.94,3.63 -5.98,6.53 -8.56,5.24 -5.77,9.91 -1.54,1.06 -1.99,-0.76 -3.28,0.64 -2.23,-6.97 -0.03,-7.39 1.65,-1.31 2.7,-0.33 -2.28,-6.69 5.57,-4.25 0.61,-6.13 -1.65,-2.26 -2.24,-9.36 -3.1,-3.01 -2.03,-3.93 1.4,-2.68 -0.61,-1.81 0.8,-2.53 -1.26,-4.2 -1.89,-2.37 -2.48,-9.1 -2.94,-3.02 0,0 2.39,-7.43 4.65,-3.57 4.28,-5 3.93,-1.08 -7.5,-3.21 -4.29,-3.93 0.72,-9.65 -1.43,-12.15 6.43,-5.71 9.65,0.71 4.28,-3.57 2.15,0.71 3.93,6.43 5.36,-0.35 3.57,-2.15 0,0 5.36,0 0,0 10.72,5.72 1.07,4.65 2.86,1.42 3.57,4.65 -1.07,3.93 -3.93,3.57 4.64,2.14 2.5,8.94 -0.36,5.36 -2.85,3.57 -3.93,1.43 -4.65,3.93 -2.5,2.5 -0.36,2.86 3.22,2.14 5,-0.36 5.72,3.58 z"
     />
  <path
     id="RS-28" 
     name="Kosovsko-Mitrovački okrug"
     d="m 282.52269,558.29258 3.12,4.37 0,6.43 2.5,5.01 6.79,6.07 -0.36,6.43 -1.43,4.65 1.08,14.29 5,2.5 1.43,5 -5.01,1.43 -2.5,2.86 1.79,4.64 -2.86,6.79 -7.15,5.36 -4.64,1.07 -0.71,-3.22 -2.86,-2.5 -3.57,1.08 -2.86,3.93 -2.86,-3.22 -5,1.79 -0.72,3.93 -6.07,2.14 -0.72,7.15 -1.05,2.36 0,0 -1.45,-0.58 0,0 -2.14,-2.86 -1.79,-0.71 -2.5,-8.57 -1.43,-0.36 -2.14,2.5 -2.86,-0.36 -1.07,-4.64 -2.14,-1.43 -0.72,-3.22 3.22,-0.71 0,-6.43 -2.15,-1.43 2.86,-2.5 0.36,-7.86 -5,-8.93 -5.36,-2.15 -3.57,3.22 -2.39,-0.53 0,0 0.24,-0.53 0,0 0.09,-1.08 -4.99,-7.48 -0.24,-2.06 1.48,-3.11 9.78,-6.85 5,-1.8 3.74,1.87 -0.05,-2.35 7.51,-1.09 0.49,-1.38 -0.14,-3.82 -2.05,-6.63 0.06,-4.39 -2.35,0.42 -0.98,-1.18 -0.6,-2.55 0.86,-4.73 -5.55,-5.67 -0.61,-2.73 8.3,-2.55 7.64,-4.77 3.17,-0.92 3.93,-3.48 2.66,-0.64 0,0 0.65,0 0,0 2.55,0.09 3.43,2.16 6.88,11.78 -0.28,2.16 -4.59,-1.58 -2.23,0.27 -1.34,1.2 0.9,4.17 3.24,3.24 3.46,0.78 3.49,2.1 0,0 0.83,0.36 0,0 2.02,0.85 2.09,-0.71 0,0 z"
     />
  <path
     id="RS-29" 
     name="Kosovsko-Pomoravski okrug"
     d="m 334.01269,713.47258 -1.21,-1.82 -10,-1.79 -1.43,-1.43 0,-2.5 -2.86,-2.14 1.43,-4.65 0,-3.57 -2.86,-0.71 1.43,-1.79 5.72,-2.5 -1.79,-6.79 2.5,-1.43 -1.07,-2.86 -3.22,-3.21 0.36,-5 2.86,-1.08 1.78,-4.28 -5.35,-4.65 5.35,-6.43 3.58,-1.43 3.21,-4.29 0.72,-3.21 6.07,-1.79 4.65,0 -0.36,-6.07 -6.43,-6.08 3.57,-1.07 5.36,1.79 2.7,-7.06 0,0 0.05,0.02 0,0 6.47,-0.12 5.06,1.21 4.24,2.74 4.98,8.76 3.18,2.72 2.66,-1.09 4.94,-5.78 2.62,-0.14 0,0 1.01,0.6 0,0 2.9,2.56 0.56,5.94 1.84,3.04 -5.15,2.95 -3.41,5.91 -2.59,11.51 -2.52,2.98 -6.67,3.38 -3.71,3.41 -0.94,2.75 1.05,2.36 -1.38,6.6 -3.87,2.8 -2.02,3.74 -0.23,3.32 1.4,3.04 2.52,1.22 -0.13,7.65 0,0 -12.34,1.52 -4.62,-2.37 -3.19,0 -2.69,4.26 z"
     />
</svg>

